<?xml version="1.0" encoding="UTF-8" standalone="no"?>
<!-- Generator: Adobe Illustrator 19.0.0, SVG Export Plug-In . SVG Version: 6.00 Build 0)  -->

<svg
   xmlns:dc="http://purl.org/dc/elements/1.1/"
   xmlns:cc="http://creativecommons.org/ns#"
   xmlns:rdf="http://www.w3.org/1999/02/22-rdf-syntax-ns#"
   xmlns:svg="http://www.w3.org/2000/svg"
   xmlns="http://www.w3.org/2000/svg"
   xmlns:sodipodi="http://sodipodi.sourceforge.net/DTD/sodipodi-0.dtd"
   xmlns:inkscape="http://www.inkscape.org/namespaces/inkscape"
   version="1.1"
   id="Layer_1"
   x="0px"
   y="0px"
   viewBox="0 0 290.626 290.626"
   style="enable-background:new 0 0 290.626 290.626;"
   xml:space="preserve"
   sodipodi:docname="003-park_white.svg"
   inkscape:version="0.92.0 r15299"><metadata
     id="metadata59"><rdf:RDF><cc:Work
         rdf:about=""><dc:format>image/svg+xml</dc:format><dc:type
           rdf:resource="http://purl.org/dc/dcmitype/StillImage" /><dc:title></dc:title></cc:Work></rdf:RDF></metadata><defs
     id="defs57" /><sodipodi:namedview
     pagecolor="#ffffff"
     bordercolor="#666666"
     borderopacity="1"
     objecttolerance="10"
     gridtolerance="10"
     guidetolerance="10"
     inkscape:pageopacity="0"
     inkscape:pageshadow="2"
     inkscape:window-width="1600"
     inkscape:window-height="837"
     id="namedview55"
     showgrid="false"
     inkscape:zoom="0.8120402"
     inkscape:cx="145.313"
     inkscape:cy="145.313"
     inkscape:window-x="1912"
     inkscape:window-y="-8"
     inkscape:window-maximized="1"
     inkscape:current-layer="Layer_1" /><g
     id="g24" /><g
     id="g26" /><g
     id="g28" /><g
     id="g30" /><g
     id="g32" /><g
     id="g34" /><g
     id="g36" /><g
     id="g38" /><g
     id="g40" /><g
     id="g42" /><g
     id="g44" /><g
     id="g46" /><g
     id="g48" /><g
     id="g50" /><g
     id="g52" /><g
     id="g4714"
     transform="translate(-3.6938949,2.4634358)"
     style="fill:#ffffff"><g
       id="g4657"
       style="fill:#ffffff"><g
         id="g4655"
         style="fill:#ffffff"><path
           id="path4653"
           d="M 290.625,234.375 V 225 H 262.5 v -9.375 h 18.75 V 187.5 H 262.5 v -9.375 h 18.75 V 150 H 103.125 v 28.125 h 18.75 v 9.375 h -18.75 v 28.125 h 18.75 V 225 H 93.75 v 9.375 h 28.125 V 281.25 H 65.625 V 253.125 H 51.563 V 121.875 H 42.188 V 35.156 c 0,-14.212 11.569,-25.781 25.781,-25.781 13.556,0 24.675,10.528 25.683,23.827 -15.825,2.33 -28.027,15.961 -28.027,32.423 v 4.688 h 18.75 c 0,7.753 6.309,14.063 14.063,14.063 7.754,0 14.062,-6.31 14.062,-14.063 h 18.75 V 65.625 C 131.25,49.097 118.945,35.414 103.027,33.173 101.986,14.709 86.686,0 67.969,0 48.581,0 32.813,15.769 32.813,35.156 v 86.719 h -9.375 v 131.25 H 9.375 V 281.25 H 0 v 9.375 h 9.375 56.25 56.25 H 150 234.375 262.5 290.625 V 281.25 H 262.5 V 234.375 Z M 98.438,75 C 95.85,75 93.75,72.9 93.75,70.312 h 9.375 c 0,2.588 -2.1,4.688 -4.687,4.688 z M 121.402,60.938 H 112.5 84.375 75.473 c 2.18,-10.683 11.644,-18.75 22.964,-18.75 11.32,0 20.79,8.067 22.965,18.75 z M 32.813,131.25 h 9.375 v 121.875 h -9.375 z m 23.438,150 H 18.75 V 262.5 h 4.688 28.125 4.688 z M 112.5,168.75 v -9.375 h 159.375 v 9.375 z m 140.625,9.375 v 9.375 h -9.375 v -9.375 z m -18.75,0 V 187.5 H 150 v -9.375 z m -93.75,0 v 9.375 h -9.375 v -9.375 z m 93.75,103.125 H 150 v -32.813 h 84.375 z m 9.375,0 v -42.188 h -4.688 -4.688 -84.374 -4.688 -4.688 v 42.188 h -9.375 V 234.375 H 253.124 V 281.25 Z M 131.25,225 v -9.375 h 9.375 V 225 Z m 18.75,0 v -9.375 h 84.375 V 225 Z m 103.125,0 h -9.375 v -9.375 h 9.375 z m -18.75,-18.75 H 150 121.875 112.5 v -9.375 h 159.375 v 9.375 H 262.5 Z"
           inkscape:connector-curvature="0"
           style="fill:#ffffff" /></g></g><g
       id="g4659"
       style="fill:#ffffff" /><g
       id="g4661"
       style="fill:#ffffff" /><g
       id="g4663"
       style="fill:#ffffff" /><g
       id="g4665"
       style="fill:#ffffff" /><g
       id="g4667"
       style="fill:#ffffff" /><g
       id="g4669"
       style="fill:#ffffff" /><g
       id="g4671"
       style="fill:#ffffff" /><g
       id="g4673"
       style="fill:#ffffff" /><g
       id="g4675"
       style="fill:#ffffff" /><g
       id="g4677"
       style="fill:#ffffff" /><g
       id="g4679"
       style="fill:#ffffff" /><g
       id="g4681"
       style="fill:#ffffff" /><g
       id="g4683"
       style="fill:#ffffff" /><g
       id="g4685"
       style="fill:#ffffff" /><g
       id="g4687"
       style="fill:#ffffff" /></g></svg>