<?xml version="1.0" encoding="UTF-8" standalone="no"?>
<!-- Generator: Adobe Illustrator 19.0.0, SVG Export Plug-In . SVG Version: 6.00 Build 0)  -->

<svg
   xmlns:dc="http://purl.org/dc/elements/1.1/"
   xmlns:cc="http://creativecommons.org/ns#"
   xmlns:rdf="http://www.w3.org/1999/02/22-rdf-syntax-ns#"
   xmlns:svg="http://www.w3.org/2000/svg"
   xmlns="http://www.w3.org/2000/svg"
   xmlns:sodipodi="http://sodipodi.sourceforge.net/DTD/sodipodi-0.dtd"
   xmlns:inkscape="http://www.inkscape.org/namespaces/inkscape"
   version="1.1"
   id="Layer_1"
   x="0px"
   y="0px"
   viewBox="0 0 290.626 290.626"
   style="enable-background:new 0 0 290.626 290.626;"
   xml:space="preserve"
   sodipodi:docname="006-train_white.svg"
   inkscape:version="0.92.0 r15299"><metadata
     id="metadata59"><rdf:RDF><cc:Work
         rdf:about=""><dc:format>image/svg+xml</dc:format><dc:type
           rdf:resource="http://purl.org/dc/dcmitype/StillImage" /><dc:title></dc:title></cc:Work></rdf:RDF></metadata><defs
     id="defs57" /><sodipodi:namedview
     pagecolor="#ffffff"
     bordercolor="#666666"
     borderopacity="1"
     objecttolerance="10"
     gridtolerance="10"
     guidetolerance="10"
     inkscape:pageopacity="0"
     inkscape:pageshadow="2"
     inkscape:window-width="1600"
     inkscape:window-height="837"
     id="namedview55"
     showgrid="false"
     inkscape:zoom="0.8120402"
     inkscape:cx="145.313"
     inkscape:cy="145.313"
     inkscape:window-x="1912"
     inkscape:window-y="-8"
     inkscape:window-maximized="1"
     inkscape:current-layer="Layer_1" /><g
     id="g24" /><g
     id="g26" /><g
     id="g28" /><g
     id="g30" /><g
     id="g32" /><g
     id="g34" /><g
     id="g36" /><g
     id="g38" /><g
     id="g40" /><g
     id="g42" /><g
     id="g44" /><g
     id="g46" /><g
     id="g48" /><g
     id="g50" /><g
     id="g52" /><g
     id="g4957"
     transform="translate(4.0044194e-6,6.6202669)"
     style="fill:#ffffff"><g
       id="g4888"
       style="fill:#ffffff"><g
         id="g4886"
         style="fill:#ffffff"><g
           id="g4884"
           style="fill:#ffffff"><path
             id="path4860"
             d="M 145.313,1.205 C 65.189,1.205 0,66.389 0,146.517 v 131.25 h 32.813 v -131.25 c 0,-62.03 50.47,-112.5 112.5,-112.5 62.03,0 112.5,50.47 112.5,112.5 v 131.25 h 32.813 V 146.517 C 290.625,66.389 225.436,1.205 145.313,1.205 Z M 23.438,268.393 H 9.375 v -10e-4 -32.812 h 14.063 z m 0,-42.188 H 9.375 v -32.813 h 14.063 z m 0,-42.188 H 9.375 V 151.204 H 23.438 Z M 23.526,141.833 9.492,141.83 c 0.389,-11.348 2.17,-22.341 5.189,-32.827 l 13.364,4.339 c -2.581,9.113 -4.145,18.652 -4.519,28.491 z m 7.42,-37.397 -13.391,-4.358 C 21.394,89.545 26.499,79.617 32.686,70.481 l 11.386,8.283 c -5.336,7.948 -9.761,16.554 -13.126,25.672 z M 49.59,71.169 38.236,62.93 C 45.084,54.178 52.973,46.289 61.725,39.441 l 8.283,11.321 C 62.426,56.736 55.569,63.591 49.59,71.169 Z M 77.569,45.272 69.281,33.891 C 78.417,27.703 88.345,22.599 98.878,18.76 l 4.349,13.396 C 94.114,35.519 85.513,39.94 77.569,45.272 Z m 63.018,-20.538 c -9.818,0.376 -19.335,1.936 -28.43,4.51 l -4.364,-13.359 c 10.486,-3.014 21.483,-4.8 32.831,-5.189 z m 4.725,-0.091 c -0.002,0 -0.005,0 -0.007,0 l 0.007,-0.002 0.012,0.002 c -0.004,0 -0.008,0 -0.012,0 z m 33.203,4.616 C 169.382,26.67 159.822,25.104 149.961,24.732 L 150,10.697 c 11.348,0.389 22.345,2.17 32.831,5.189 z m 8.96,2.918 4.281,-13.421 c 10.528,3.839 20.456,8.944 29.592,15.131 l -8.299,11.384 c -7.921,-5.315 -16.492,-9.734 -25.574,-13.094 z m 33.167,18.614 8.262,-11.349 c 8.752,6.848 16.641,14.737 23.489,23.489 l -11.34,8.28 C 235.075,63.63 228.224,56.768 220.642,50.791 Z m 25.924,27.973 11.376,-8.281 c 6.188,9.136 11.292,19.064 15.131,29.597 l -13.394,4.34 c -3.365,-9.11 -7.78,-17.715 -13.113,-25.656 z m 16.014,34.577 13.364,-4.338 c 3.014,10.486 4.8,21.478 5.189,32.827 l -14.035,-0.017 c -0.375,-9.833 -1.938,-19.364 -4.518,-28.472 z m 18.671,155.052 h -14.063 v -10e-4 -32.812 h 14.063 z m 0,-42.188 h -14.063 v -32.813 h 14.063 z m 0,-42.188 h -14.063 v -32.813 h 14.063 z"
             style="fill:#ffffff"
             inkscape:connector-curvature="0" /><path
             id="path4862"
             d="m 229.819,203.691 c 2.784,-2.573 4.556,-6.22 4.556,-10.298 0,-6.103 -3.933,-11.259 -9.375,-13.2 V 104.33 C 225,81.066 206.072,62.142 182.812,62.142 h -4.688 v -4.688 c 0,-7.753 -6.825,-14.063 -14.578,-14.063 h -36.984 c -7.753,0 -14.063,6.309 -14.063,14.063 v 4.688 h -4.688 c -23.259,0 -42.188,18.923 -42.188,42.188 v 75.862 c -5.442,1.941 -9.375,7.097 -9.375,13.2 0,4.078 1.772,7.725 4.556,10.298 l -5.105,45.952 h 20.709 l -19.57,35.227 8.194,4.552 1.266,-2.278 h 158.03 l 1.266,2.273 8.194,-4.552 -19.575,-35.222 h 20.709 z M 121.875,57.455 c 0,-2.588 2.105,-4.688 4.688,-4.688 h 36.984 c 2.583,0 5.203,2.1 5.203,4.688 v 4.688 H 121.875 Z M 75,104.33 C 75,86.241 89.719,71.517 107.813,71.517 h 4.688 65.109 5.203 c 18.094,0 32.813,14.723 32.813,32.813 v 23.438 h -9.375 V 104.33 c 0,-12.923 -10.514,-23.438 -23.438,-23.438 h -75 c -12.923,0 -23.438,10.514 -23.438,23.438 v 23.438 H 75 Z m 121.876,0 v 23.437 H 196.875 150 v -37.5 h 32.813 c 7.753,0 14.063,6.309 14.063,14.063 z m -56.25,-14.063 v 37.5 H 140.625 93.75 V 104.33 c 0,-7.753 6.309,-14.063 14.063,-14.063 z M 75,137.142 H 215.625 V 179.33 H 75 Z M 219.118,277.767 H 71.508 l 5.208,-9.375 H 213.91 Z m -137.195,-18.75 5.208,-9.375 h 116.362 l 5.209,9.375 z m -15.75,-18.749 3.647,-32.813 h 0.492 150 0.492 l 3.647,32.813 z m 154.14,-42.187 h -150 c -2.583,0 -4.688,-2.1 -4.688,-4.688 0,-2.588 2.105,-4.688 4.688,-4.688 h 150 c 2.583,0 4.688,2.1 4.688,4.688 0,2.587 -2.105,4.688 -4.688,4.688 z"
             style="fill:#ffffff"
             inkscape:connector-curvature="0" /><rect
             id="rect4864"
             height="14.063"
             width="9.375"
             style="fill:#ffffff"
             y="216.83"
             x="75" /><rect
             id="rect4866"
             height="14.063"
             width="9.375"
             style="fill:#ffffff"
             y="216.83"
             x="93.75" /><rect
             id="rect4868"
             height="14.063"
             width="9.375"
             style="fill:#ffffff"
             y="216.83"
             x="112.5" /><rect
             id="rect4870"
             height="14.063"
             width="9.375"
             style="fill:#ffffff"
             y="216.83"
             x="131.25" /><rect
             id="rect4872"
             height="14.063"
             width="9.375"
             style="fill:#ffffff"
             y="216.83"
             x="150" /><rect
             id="rect4874"
             height="14.063"
             width="9.375"
             style="fill:#ffffff"
             y="216.83"
             x="168.75" /><rect
             id="rect4876"
             height="14.063"
             width="9.375"
             style="fill:#ffffff"
             y="216.83"
             x="187.5" /><rect
             id="rect4878"
             height="14.063"
             width="9.375"
             style="fill:#ffffff"
             y="216.83"
             x="206.25" /><path
             id="path4880"
             d="m 112.5,146.517 c -3.614,0 -6.881,1.411 -9.375,3.656 -2.494,-2.25 -5.761,-3.656 -9.375,-3.656 -7.753,0 -14.063,6.309 -14.063,14.063 0,7.753 6.309,14.063 14.063,14.063 3.614,0 6.881,-1.411 9.375,-3.656 2.494,2.25 5.761,3.656 9.375,3.656 7.753,0 14.063,-6.309 14.063,-14.063 0,-7.753 -6.31,-14.063 -14.063,-14.063 z m -18.75,18.75 c -2.583,0 -4.688,-2.1 -4.688,-4.688 0,-2.587 2.105,-4.688 4.688,-4.688 2.583,0 4.688,2.1 4.688,4.688 0,2.588 -2.105,4.688 -4.688,4.688 z m 18.75,0 c -2.583,0 -4.688,-2.1 -4.688,-4.688 0,-2.587 2.105,-4.688 4.688,-4.688 2.583,0 4.688,2.1 4.688,4.688 0,2.588 -2.105,4.688 -4.688,4.688 z"
             style="fill:#ffffff"
             inkscape:connector-curvature="0" /><path
             id="path4882"
             d="m 196.875,146.517 c -3.614,0 -6.881,1.411 -9.375,3.656 -2.494,-2.25 -5.761,-3.656 -9.375,-3.656 -7.753,0 -14.063,6.309 -14.063,14.063 0,7.753 6.309,14.063 14.063,14.063 3.614,0 6.881,-1.411 9.375,-3.656 2.494,2.25 5.761,3.656 9.375,3.656 7.753,0 14.063,-6.309 14.063,-14.063 0,-7.753 -6.31,-14.063 -14.063,-14.063 z m -18.75,18.75 c -2.583,0 -4.688,-2.1 -4.688,-4.688 0,-2.587 2.105,-4.688 4.688,-4.688 2.583,0 4.688,2.1 4.688,4.688 0,2.588 -2.105,4.688 -4.688,4.688 z m 18.75,0 c -2.583,0 -4.688,-2.1 -4.688,-4.688 0,-2.587 2.105,-4.688 4.688,-4.688 2.583,0 4.688,2.1 4.688,4.688 0,2.588 -2.105,4.688 -4.688,4.688 z"
             style="fill:#ffffff"
             inkscape:connector-curvature="0" /></g></g></g><g
       id="g4890"
       style="fill:#ffffff" /><g
       id="g4892"
       style="fill:#ffffff" /><g
       id="g4894"
       style="fill:#ffffff" /><g
       id="g4896"
       style="fill:#ffffff" /><g
       id="g4898"
       style="fill:#ffffff" /><g
       id="g4900"
       style="fill:#ffffff" /><g
       id="g4902"
       style="fill:#ffffff" /><g
       id="g4904"
       style="fill:#ffffff" /><g
       id="g4906"
       style="fill:#ffffff" /><g
       id="g4908"
       style="fill:#ffffff" /><g
       id="g4910"
       style="fill:#ffffff" /><g
       id="g4912"
       style="fill:#ffffff" /><g
       id="g4914"
       style="fill:#ffffff" /><g
       id="g4916"
       style="fill:#ffffff" /><g
       id="g4918"
       style="fill:#ffffff" /></g></svg>