<?xml version="1.0" encoding="UTF-8" standalone="no"?>
<!-- Generator: Adobe Illustrator 19.0.0, SVG Export Plug-In . SVG Version: 6.00 Build 0)  -->

<svg
   xmlns:dc="http://purl.org/dc/elements/1.1/"
   xmlns:cc="http://creativecommons.org/ns#"
   xmlns:rdf="http://www.w3.org/1999/02/22-rdf-syntax-ns#"
   xmlns:svg="http://www.w3.org/2000/svg"
   xmlns="http://www.w3.org/2000/svg"
   xmlns:sodipodi="http://sodipodi.sourceforge.net/DTD/sodipodi-0.dtd"
   xmlns:inkscape="http://www.inkscape.org/namespaces/inkscape"
   version="1.1"
   id="Layer_1"
   x="0px"
   y="0px"
   viewBox="0 0 290.626 290.626"
   style="enable-background:new 0 0 290.626 290.626;"
   xml:space="preserve"
   sodipodi:docname="012-cctv_blue.svg"
   inkscape:version="0.92.0 r15299"><metadata
     id="metadata59"><rdf:RDF><cc:Work
         rdf:about=""><dc:format>image/svg+xml</dc:format><dc:type
           rdf:resource="http://purl.org/dc/dcmitype/StillImage" /><dc:title></dc:title></cc:Work></rdf:RDF></metadata><defs
     id="defs57" /><sodipodi:namedview
     pagecolor="#ffffff"
     bordercolor="#666666"
     borderopacity="1"
     objecttolerance="10"
     gridtolerance="10"
     guidetolerance="10"
     inkscape:pageopacity="0"
     inkscape:pageshadow="2"
     inkscape:window-width="1600"
     inkscape:window-height="837"
     id="namedview55"
     showgrid="false"
     inkscape:zoom="0.8120402"
     inkscape:cx="142.85007"
     inkscape:cy="145.313"
     inkscape:window-x="1912"
     inkscape:window-y="-8"
     inkscape:window-maximized="1"
     inkscape:current-layer="Layer_1" /><g
     id="g24" /><g
     id="g26" /><g
     id="g28" /><g
     id="g30" /><g
     id="g32" /><g
     id="g34" /><g
     id="g36" /><g
     id="g38" /><g
     id="g40"
     style="fill:#ffffff" /><g
     id="g42" /><g
     id="g44" /><g
     id="g46" /><g
     id="g48" /><g
     id="g50" /><g
     id="g52" /><g
     id="g5410"
     transform="translate(-0.001,0.00100708)"
     style="fill:#0000ff"><g
       id="g5350"
       style="fill:#0000ff"><g
         id="g5348"
         style="fill:#0000ff"><g
           id="g5346"
           style="fill:#0000ff"><path
             id="path5340"
             d="M 253.126,0 V 23.438 H 93.751 c -12.923,0 -23.438,10.514 -23.438,23.438 V 75 H 23.439 v 37.5 h -9.375 c -7.754,0 -14.063,6.309 -14.063,14.063 L 0.015,159.736 5.035,225 h 6.595 c 8.672,38.241 42.548,65.625 82.12,65.625 39.572,0 73.448,-27.384 82.12,-65.625 h 6.595 l 5.034,-65.625 v -32.813 c 0,-7.753 -6.309,-14.063 -14.063,-14.063 h -9.375 V 84.375 h 68.119 l 20.944,25.134 V 187.5 h 37.5 V 0 Z M 32.814,84.375 h 9.375 v 14.063 h 9.375 V 84.375 h 9.375 v 14.063 h 9.375 V 84.375 h 9.375 v 14.063 h 9.375 V 84.375 h 9.375 v 14.063 h 9.375 V 84.375 h 9.375 v 14.063 h 9.375 V 84.375 h 9.375 v 14.063 h 9.375 V 84.375 h 9.375 V 112.5 H 32.814 Z M 93.751,281.25 c -34.463,0 -64.13,-23.339 -72.563,-56.25 h 145.125 c -8.432,32.911 -38.1,56.25 -72.562,56.25 z m 70.313,-159.375 h 9.375 c 2.583,0 4.688,2.1 4.688,4.688 l 0.014,28.125 h -14.077 v 9.375 h 13.687 l -3.966,51.563 H 13.717 l -3.98,-51.563 h 144.952 v -9.375 H 9.376 v -28.125 c 0,-2.588 2.105,-4.688 4.688,-4.688 h 9.375 z M 253.127,94.865 236.57,75 H 164.064 79.689 V 46.875 c 0,-7.753 6.309,-14.063 14.063,-14.063 h 159.375 z m 28.124,83.26 h -18.75 V 120.759 23.438 9.375 h 18.75 z"
             inkscape:connector-curvature="0"
             style="fill:#0000ff" /><path
             id="path5342"
             d="m 146.471,236.723 -8.109,-4.697 c -1.758,3.028 -3.863,5.925 -6.253,8.592 l 6.98,6.262 c 2.817,-3.149 5.306,-6.566 7.382,-10.157 z"
             inkscape:connector-curvature="0"
             style="fill:#0000ff" /><path
             id="path5344"
             d="m 127.412,257.03 -5.184,-7.809 c -16.922,11.241 -40.027,11.241 -56.948,0 l -5.184,7.809 c 9.998,6.647 21.638,10.158 33.656,10.158 12.018,0 23.657,-3.511 33.66,-10.158 z"
             inkscape:connector-curvature="0"
             style="fill:#0000ff" /></g></g></g><g
       id="g5352"
       style="fill:#0000ff" /><g
       id="g5354"
       style="fill:#0000ff" /><g
       id="g5356"
       style="fill:#0000ff" /><g
       id="g5358"
       style="fill:#0000ff" /><g
       id="g5360"
       style="fill:#0000ff" /><g
       id="g5362"
       style="fill:#0000ff" /><g
       id="g5364"
       style="fill:#0000ff" /><g
       id="g5366"
       style="fill:#0000ff" /><g
       id="g5368"
       style="fill:#0000ff" /><g
       id="g5370"
       style="fill:#0000ff" /><g
       id="g5372"
       style="fill:#0000ff" /><g
       id="g5374"
       style="fill:#0000ff" /><g
       id="g5376"
       style="fill:#0000ff" /><g
       id="g5378"
       style="fill:#0000ff" /><g
       id="g5380"
       style="fill:#0000ff" /></g></svg>