<?xml version="1.0" encoding="UTF-8" standalone="no"?>
<!-- Generator: Adobe Illustrator 19.0.0, SVG Export Plug-In . SVG Version: 6.00 Build 0)  -->

<svg
   xmlns:dc="http://purl.org/dc/elements/1.1/"
   xmlns:cc="http://creativecommons.org/ns#"
   xmlns:rdf="http://www.w3.org/1999/02/22-rdf-syntax-ns#"
   xmlns:svg="http://www.w3.org/2000/svg"
   xmlns="http://www.w3.org/2000/svg"
   xmlns:sodipodi="http://sodipodi.sourceforge.net/DTD/sodipodi-0.dtd"
   xmlns:inkscape="http://www.inkscape.org/namespaces/inkscape"
   version="1.1"
   id="Layer_1"
   x="0px"
   y="0px"
   viewBox="0 0 290.626 290.626"
   style="enable-background:new 0 0 290.626 290.626;"
   xml:space="preserve"
   sodipodi:docname="014-vending-machine_blue.svg"
   inkscape:version="0.92.0 r15299"><metadata
     id="metadata59"><rdf:RDF><cc:Work
         rdf:about=""><dc:format>image/svg+xml</dc:format><dc:type
           rdf:resource="http://purl.org/dc/dcmitype/StillImage" /><dc:title></dc:title></cc:Work></rdf:RDF></metadata><defs
     id="defs57" /><sodipodi:namedview
     pagecolor="#ffffff"
     bordercolor="#666666"
     borderopacity="1"
     objecttolerance="10"
     gridtolerance="10"
     guidetolerance="10"
     inkscape:pageopacity="0"
     inkscape:pageshadow="2"
     inkscape:window-width="1600"
     inkscape:window-height="837"
     id="namedview55"
     showgrid="false"
     inkscape:zoom="0.8120402"
     inkscape:cx="142.85007"
     inkscape:cy="145.313"
     inkscape:window-x="1912"
     inkscape:window-y="-8"
     inkscape:window-maximized="1"
     inkscape:current-layer="Layer_1" /><g
     id="g24" /><g
     id="g26" /><g
     id="g28" /><g
     id="g30" /><g
     id="g32" /><g
     id="g34" /><g
     id="g36" /><g
     id="g38" /><g
     id="g40"
     style="fill:#ffffff" /><g
     id="g42" /><g
     id="g44" /><g
     id="g46" /><g
     id="g48" /><g
     id="g50" /><g
     id="g52" /><g
     id="g5632"
     transform="translate(0,7.0800781e-6)"
     style="fill:#0000ff"><g
       id="g5548"
       style="fill:#0000ff"><g
         id="g5546"
         style="fill:#0000ff"><g
           id="g5544"
           style="fill:#0000ff"><path
             id="path5490"
             d="m 234.375,281.251 v 0 -14.064 h 4.688 V 103.125 c 23.264,0 42.188,-18.928 42.188,-42.188 0,-23.26 -18.923,-42.187 -42.188,-42.187 V 0 H 9.375 v 267.188 h 4.688 v 14.063 H 0 v 9.375 H 14.063 37.5 290.625 v -9.375 z m 37.5,-220.313 c 0,18.094 -14.723,32.813 -32.813,32.813 -18.09,0 -32.812,-14.72 -32.812,-32.813 0,-18.093 14.723,-32.813 32.813,-32.813 18.091,0 32.812,14.719 32.812,32.813 z m -60.937,31.355 v 1.458 h -18.75 V 28.125 h 18.75 v 1.458 c -8.606,7.73 -14.063,18.905 -14.063,31.355 0,12.45 5.456,23.625 14.063,31.355 z M 28.126,281.25 h -4.688 v -14.063 h 4.688 z m 182.812,10e-4 H 37.5 V 267.188 H 210.938 Z M 225,281.25 h -4.688 V 267.187 H 225 Z m 4.688,-23.437 H 18.75 V 9.375 h 210.938 v 10.463 c -3.291,0.75 -6.427,1.894 -9.375,3.366 V 18.75 h -37.5 v 84.375 h 37.5 v -4.453 c 2.948,1.472 6.084,2.616 9.375,3.366 z"
             inkscape:connector-curvature="0"
             style="fill:#0000ff" /><path
             id="path5492"
             d="M 28.125,182.813 H 168.75 V 18.75 H 28.125 Z M 37.5,28.125 H 159.375 V 70.313 H 37.5 Z m 0,93.75 V 79.688 h 121.875 v 42.188 z m 0,9.375 h 121.875 v 42.188 H 37.5 Z"
             inkscape:connector-curvature="0"
             style="fill:#0000ff" /><path
             id="path5494"
             d="m 182.813,182.813 h 37.5 v -65.625 h -37.5 z m 9.375,-56.25 h 18.75 v 46.875 h -18.75 z"
             inkscape:connector-curvature="0"
             style="fill:#0000ff" /><rect
             id="rect5496"
             height="23.438"
             width="9.375"
             y="37.5"
             x="46.875"
             style="fill:#0000ff" /><rect
             id="rect5498"
             height="23.438"
             width="9.375"
             y="37.5"
             x="65.625"
             style="fill:#0000ff" /><rect
             id="rect5500"
             height="23.438"
             width="9.375"
             y="37.5"
             x="84.375"
             style="fill:#0000ff" /><rect
             id="rect5502"
             height="23.438"
             width="9.375"
             y="37.5"
             x="103.125"
             style="fill:#0000ff" /><rect
             id="rect5504"
             height="23.438"
             width="9.375"
             y="37.5"
             x="121.875"
             style="fill:#0000ff" /><rect
             id="rect5506"
             height="23.438"
             width="9.375"
             y="37.5"
             x="140.625"
             style="fill:#0000ff" /><path
             id="path5508"
             d="M 65.625,248.438 H 131.25 V 196.875 H 65.625 Z M 75,206.25 h 46.875 v 32.813 H 75 Z"
             inkscape:connector-curvature="0"
             style="fill:#0000ff" /><rect
             id="rect5510"
             height="9.375"
             width="28.125"
             y="225"
             x="84.375"
             style="fill:#0000ff" /><rect
             id="rect5512"
             height="23.438"
             width="9.375"
             y="89.063004"
             x="46.875"
             style="fill:#0000ff" /><rect
             id="rect5514"
             height="23.438"
             width="9.375"
             y="89.063004"
             x="65.625"
             style="fill:#0000ff" /><rect
             id="rect5516"
             height="23.438"
             width="9.375"
             y="89.063004"
             x="84.375"
             style="fill:#0000ff" /><rect
             id="rect5518"
             height="23.438"
             width="9.375"
             y="89.063004"
             x="103.125"
             style="fill:#0000ff" /><rect
             id="rect5520"
             height="23.438"
             width="9.375"
             y="89.063004"
             x="121.875"
             style="fill:#0000ff" /><rect
             id="rect5522"
             height="23.438"
             width="9.375"
             y="89.063004"
             x="140.625"
             style="fill:#0000ff" /><rect
             id="rect5524"
             height="23.438"
             width="9.375"
             y="140.625"
             x="46.875"
             style="fill:#0000ff" /><rect
             id="rect5526"
             height="23.438"
             width="9.375"
             y="140.625"
             x="65.625"
             style="fill:#0000ff" /><rect
             id="rect5528"
             height="23.438"
             width="9.375"
             y="140.625"
             x="84.375"
             style="fill:#0000ff" /><rect
             id="rect5530"
             height="23.438"
             width="9.375"
             y="140.625"
             x="103.125"
             style="fill:#0000ff" /><rect
             id="rect5532"
             height="23.438"
             width="9.375"
             y="140.625"
             x="121.875"
             style="fill:#0000ff" /><rect
             id="rect5534"
             height="23.438"
             width="9.375"
             y="140.625"
             x="140.625"
             style="fill:#0000ff" /><circle
             id="circle5536"
             r="4.6880002"
             cy="135.938"
             cx="201.563"
             style="fill:#0000ff" /><circle
             id="circle5538"
             r="4.6880002"
             cy="150"
             cx="201.563"
             style="fill:#0000ff" /><circle
             id="circle5540"
             r="4.6880002"
             cy="164.063"
             cx="201.563"
             style="fill:#0000ff" /><path
             id="path5542"
             d="m 243.75,75 h -9.375 c -2.587,0 -4.688,-2.105 -4.688,-4.688 h -9.375 c 0,7.753 6.309,14.063 14.063,14.063 v 4.688 h 9.375 v -4.688 c 7.753,0 14.063,-6.309 14.063,-14.063 0,-7.754 -6.31,-14.062 -14.063,-14.062 h -9.375 c -2.587,0 -4.688,-2.105 -4.688,-4.688 0,-2.583 2.1,-4.688 4.688,-4.688 h 9.375 c 2.587,0 4.688,2.105 4.688,4.688 h 9.375 c 0,-7.753 -6.309,-14.063 -14.063,-14.063 v -4.688 h -9.375 v 0.002 4.687 c -7.753,0 -14.063,6.309 -14.063,14.063 0,7.754 6.309,14.063 14.063,14.063 h 9.375 c 2.587,0 4.688,2.105 4.688,4.688 0,2.583 -2.1,4.686 -4.688,4.686 z"
             inkscape:connector-curvature="0"
             style="fill:#0000ff" /></g></g></g><g
       id="g5550"
       style="fill:#0000ff" /><g
       id="g5552"
       style="fill:#0000ff" /><g
       id="g5554"
       style="fill:#0000ff" /><g
       id="g5556"
       style="fill:#0000ff" /><g
       id="g5558"
       style="fill:#0000ff" /><g
       id="g5560"
       style="fill:#0000ff" /><g
       id="g5562"
       style="fill:#0000ff" /><g
       id="g5564"
       style="fill:#0000ff" /><g
       id="g5566"
       style="fill:#0000ff" /><g
       id="g5568"
       style="fill:#0000ff" /><g
       id="g5570"
       style="fill:#0000ff" /><g
       id="g5572"
       style="fill:#0000ff" /><g
       id="g5574"
       style="fill:#0000ff" /><g
       id="g5576"
       style="fill:#0000ff" /><g
       id="g5578"
       style="fill:#0000ff" /></g></svg>