<?xml version="1.0" encoding="UTF-8" standalone="no"?>
<!-- Generator: Adobe Illustrator 19.0.0, SVG Export Plug-In . SVG Version: 6.00 Build 0)  -->

<svg
   xmlns:dc="http://purl.org/dc/elements/1.1/"
   xmlns:cc="http://creativecommons.org/ns#"
   xmlns:rdf="http://www.w3.org/1999/02/22-rdf-syntax-ns#"
   xmlns:svg="http://www.w3.org/2000/svg"
   xmlns="http://www.w3.org/2000/svg"
   xmlns:sodipodi="http://sodipodi.sourceforge.net/DTD/sodipodi-0.dtd"
   xmlns:inkscape="http://www.inkscape.org/namespaces/inkscape"
   version="1.1"
   id="Layer_1"
   x="0px"
   y="0px"
   viewBox="0 0 295.239 295.239"
   style="enable-background:new 0 0 295.239 295.239;"
   xml:space="preserve"
   sodipodi:docname="021-flowchart_blue.svg"
   inkscape:version="0.92.0 r15299"><metadata
     id="metadata47"><rdf:RDF><cc:Work
         rdf:about=""><dc:format>image/svg+xml</dc:format><dc:type
           rdf:resource="http://purl.org/dc/dcmitype/StillImage" /><dc:title></dc:title></cc:Work></rdf:RDF></metadata><defs
     id="defs45" /><sodipodi:namedview
     pagecolor="#ffffff"
     bordercolor="#666666"
     borderopacity="1"
     objecttolerance="10"
     gridtolerance="10"
     guidetolerance="10"
     inkscape:pageopacity="0"
     inkscape:pageshadow="2"
     inkscape:window-width="1600"
     inkscape:window-height="837"
     id="namedview43"
     showgrid="false"
     inkscape:zoom="0.79935235"
     inkscape:cx="147.61951"
     inkscape:cy="147.61951"
     inkscape:window-x="1912"
     inkscape:window-y="-8"
     inkscape:window-maximized="1"
     inkscape:current-layer="Layer_1" /><g
     id="g12" /><g
     id="g14" /><g
     id="g16" /><g
     id="g18" /><g
     id="g20" /><g
     id="g22" /><g
     id="g24" /><g
     id="g26" /><g
     id="g28" /><g
     id="g30" /><g
     id="g32" /><g
     id="g34" /><g
     id="g36" /><g
     id="g38" /><g
     id="g40" /><g
     id="g4663"
     transform="translate(-0.001,1.3671875e-5)"
     style="fill:#0000ff"><g
       id="g4604"
       style="fill:#0000ff"><g
         id="g4602"
         style="fill:#0000ff"><g
           id="g4600"
           style="fill:#0000ff"><path
             id="path4596"
             d="m 228.572,123.81 v 14.286 h -51.257 l -24.933,-12.467 v -16.105 h 7.143 c 6.562,0 11.905,-5.338 11.905,-11.905 0,-3.876 -1.89,-7.29 -4.762,-9.462 v -5.062 c 6.081,-5.438 9.524,-13.029 9.524,-21.186 0,-15.757 -12.814,-28.571 -28.571,-28.571 -15.757,0 -28.571,12.814 -28.571,28.571 0,8.157 3.443,15.752 9.524,21.186 v 5.062 c -2.871,2.176 -4.762,5.59 -4.762,9.462 0,6.567 5.343,11.905 11.905,11.905 h 7.143 v 16.105 l -34.459,17.228 34.457,17.229 v 16.105 H 38.096 V 161.905 H 66.667 V 123.81 H 0.001 v 38.095 h 28.571 v 14.286 4.762 V 200 H 0.001 v 38.095 H 66.668 V 200 H 38.096 V 185.714 H 142.858 V 200 h -28.571 v 38.095 h 28.571 v 19.048 h -9.524 c -10.505,0 -19.048,8.543 -19.048,19.048 0,10.505 8.543,19.048 19.048,19.048 h 28.571 c 10.505,0 19.048,-8.543 19.048,-19.048 0,-10.505 -8.543,-19.048 -19.048,-19.048 h -9.524 v -19.048 h 28.571 V 200 h -28.571 v -14.286 -9.524 -16.105 l 24.933,-12.467 h 51.257 v 14.286 h 28.571 v 38.771 c -8.19,2.129 -14.286,9.519 -14.286,18.371 0,10.505 8.543,19.048 19.048,19.048 10.505,0 19.048,-8.543 19.048,-19.048 0,-8.852 -6.095,-16.243 -14.286,-18.371 v -38.771 h 28.573 V 123.81 Z M 57.144,209.523 v 19.048 H 9.524 V 209.523 Z M 9.524,152.381 v -19.048 h 47.619 v 19.048 z M 147.62,42.857 c 10.505,0 19.048,8.543 19.048,19.048 0,5.957 -2.781,11.476 -7.633,15.143 l -1.89,1.424 v 7.243 h -4.762 v -10.4 c 5.529,-1.971 9.524,-7.21 9.524,-13.41 0,-7.876 -6.41,-14.286 -14.286,-14.286 -7.876,0 -14.286,6.41 -14.286,14.286 0,6.2 3.995,11.438 9.524,13.41 v 10.4 h -4.762 v -7.243 l -1.89,-1.429 c -4.852,-3.662 -7.633,-9.181 -7.633,-15.138 -0.003,-10.505 8.541,-19.048 19.046,-19.048 z m 4.761,19.048 c 0,2.629 -2.138,4.762 -4.762,4.762 -2.624,0 -4.762,-2.134 -4.762,-4.762 0,-2.629 2.138,-4.762 4.762,-4.762 2.624,0 4.762,2.133 4.762,4.762 z M 135.714,100 c -1.314,0 -2.381,-1.071 -2.381,-2.381 0,-1.31 1.067,-2.381 2.381,-2.381 h 23.81 c 1.314,0 2.381,1.071 2.381,2.381 0,1.31 -1.066,2.381 -2.381,2.381 z m 26.192,166.666 c 5.252,10e-4 9.524,4.272 9.524,9.524 0,5.252 -4.271,9.524 -9.524,9.524 h -28.571 c -5.252,0 -9.524,-4.271 -9.524,-9.524 0,-5.252 4.271,-9.524 9.524,-9.524 z m 9.524,-57.143 v 19.048 h -47.619 v -19.048 z m -23.81,-57.704 -17.924,-8.962 17.924,-8.962 17.924,8.962 z m 123.81,67.229 c 0,5.252 -4.271,9.524 -9.524,9.524 -5.253,0 -9.524,-4.271 -9.524,-9.524 0,-5.253 4.271,-9.524 9.524,-9.524 5.253,0 9.524,4.271 9.524,9.524 z m 14.284,-66.667 h -47.619 v -19.048 0 h 47.619 z"
             inkscape:connector-curvature="0"
             style="fill:#0000ff" /><path
             id="path4598"
             d="m 85.714,28.571 c 6.2,0 11.438,-3.995 13.41,-9.524 H 117.6 C 105.329,27.671 96.91,41.4 95.481,57.143 h -9.767 v 28.571 h 28.571 V 57.143 h -9.243 c 2.381,-21.395 20.557,-38.095 42.576,-38.095 22.019,0 40.2,16.7 42.576,38.095 h -9.243 v 28.571 h 28.571 V 57.143 h -9.767 C 198.326,41.4 189.912,27.672 177.636,19.048 h 18.476 c 1.971,5.529 7.21,9.524 13.41,9.524 7.876,0 14.286,-6.41 14.286,-14.286 C 223.809,6.41 217.401,0 209.524,0 c -6.2,0 -11.438,3.995 -13.41,9.524 H 99.124 C 97.152,3.995 91.915,0 85.714,0 77.838,0 71.428,6.41 71.428,14.286 c 0,7.876 6.411,14.285 14.286,14.285 z m 19.049,47.619 h -9.524 v -9.524 h 9.524 z m 85.714,-9.524 h 9.524 v 9.524 h -9.524 z M 209.524,9.524 c 2.624,0 4.762,2.133 4.762,4.762 0,2.629 -2.138,4.762 -4.762,4.762 -2.624,0 -4.762,-2.133 -4.762,-4.762 0.001,-2.629 2.139,-4.762 4.762,-4.762 z m -123.81,0 c 2.624,0 4.762,2.133 4.762,4.762 0,2.629 -2.138,4.762 -4.762,4.762 -2.624,0 -4.762,-2.133 -4.762,-4.762 0.001,-2.629 2.139,-4.762 4.762,-4.762 z"
             inkscape:connector-curvature="0"
             style="fill:#0000ff" /></g></g></g><g
       id="g4606"
       style="fill:#0000ff" /><g
       id="g4608"
       style="fill:#0000ff" /><g
       id="g4610"
       style="fill:#0000ff" /><g
       id="g4612"
       style="fill:#0000ff" /><g
       id="g4614"
       style="fill:#0000ff" /><g
       id="g4616"
       style="fill:#0000ff" /><g
       id="g4618"
       style="fill:#0000ff" /><g
       id="g4620"
       style="fill:#0000ff" /><g
       id="g4622"
       style="fill:#0000ff" /><g
       id="g4624"
       style="fill:#0000ff" /><g
       id="g4626"
       style="fill:#0000ff" /><g
       id="g4628"
       style="fill:#0000ff" /><g
       id="g4630"
       style="fill:#0000ff" /><g
       id="g4632"
       style="fill:#0000ff" /><g
       id="g4634"
       style="fill:#0000ff" /></g></svg>