<?xml version="1.0" encoding="UTF-8" standalone="no"?>
<!-- Generator: Adobe Illustrator 19.0.0, SVG Export Plug-In . SVG Version: 6.00 Build 0)  -->

<svg
   xmlns:dc="http://purl.org/dc/elements/1.1/"
   xmlns:cc="http://creativecommons.org/ns#"
   xmlns:rdf="http://www.w3.org/1999/02/22-rdf-syntax-ns#"
   xmlns:svg="http://www.w3.org/2000/svg"
   xmlns="http://www.w3.org/2000/svg"
   xmlns:sodipodi="http://sodipodi.sourceforge.net/DTD/sodipodi-0.dtd"
   xmlns:inkscape="http://www.inkscape.org/namespaces/inkscape"
   version="1.1"
   id="Layer_1"
   x="0px"
   y="0px"
   viewBox="0 0 295.239 295.239"
   style="enable-background:new 0 0 295.239 295.239;"
   xml:space="preserve"
   sodipodi:docname="022-graphic-design_white.svg"
   inkscape:version="0.92.0 r15299"><metadata
     id="metadata47"><rdf:RDF><cc:Work
         rdf:about=""><dc:format>image/svg+xml</dc:format><dc:type
           rdf:resource="http://purl.org/dc/dcmitype/StillImage" /><dc:title></dc:title></cc:Work></rdf:RDF></metadata><defs
     id="defs45" /><sodipodi:namedview
     pagecolor="#ffffff"
     bordercolor="#666666"
     borderopacity="1"
     objecttolerance="10"
     gridtolerance="10"
     guidetolerance="10"
     inkscape:pageopacity="0"
     inkscape:pageshadow="2"
     inkscape:window-width="1600"
     inkscape:window-height="837"
     id="namedview43"
     showgrid="false"
     inkscape:zoom="0.79935235"
     inkscape:cx="147.61951"
     inkscape:cy="147.61951"
     inkscape:window-x="1912"
     inkscape:window-y="-8"
     inkscape:window-maximized="1"
     inkscape:current-layer="Layer_1" /><g
     id="g12" /><g
     id="g14" /><g
     id="g16" /><g
     id="g18" /><g
     id="g20" /><g
     id="g22" /><g
     id="g24" /><g
     id="g26" /><g
     id="g28" /><g
     id="g30" /><g
     id="g32" /><g
     id="g34" /><g
     id="g36" /><g
     id="g38" /><g
     id="g40" /><g
     id="g4732"
     transform="translate(-5.0577453e-4,-0.06298633)"
     style="fill:#ffffff"><g
       id="g4673"
       style="fill:#ffffff"><g
         id="g4671"
         style="fill:#ffffff"><g
           id="g4669"
           style="fill:#ffffff"><path
             id="path4665"
             d="m 147.652,76.226 c -31.51,0 -57.143,25.633 -57.143,57.143 0,20.543 10.871,39.229 28.571,49.443 v 5.381 c -2.876,2.176 -4.762,5.59 -4.762,9.467 0,2.69 0.929,5.148 2.438,7.143 -1.51,1.99 -2.438,4.448 -2.438,7.138 0,6.567 5.338,11.905 11.905,11.905 h 42.857 c 6.567,0 11.905,-5.338 11.905,-11.905 0,-2.69 -0.929,-5.148 -2.438,-7.143 1.51,-1.995 2.438,-4.452 2.438,-7.143 0,-3.876 -1.886,-7.29 -4.762,-9.467 v -5.381 c 17.7,-10.214 28.571,-28.895 28.571,-49.443 10e-4,-31.505 -25.632,-57.138 -57.142,-57.138 z m 21.429,138.095 h -42.857 c -1.31,0 -2.381,-1.071 -2.381,-2.381 0,-1.31 1.071,-2.381 2.381,-2.381 h 42.857 c 1.31,0 2.381,1.071 2.381,2.381 0.001,1.31 -1.071,2.381 -2.381,2.381 z m 0,-14.285 h -42.857 c -1.31,0 -2.381,-1.071 -2.381,-2.381 0,-1.31 1.071,-2.381 2.381,-2.381 h 42.857 c 1.31,0 2.381,1.071 2.381,2.381 0,1.31 -1.071,2.381 -2.381,2.381 z m 0.209,-24.296 -2.59,1.333 v 8.676 h -14.286 v -34.01 c 8.195,-2.129 14.286,-9.524 14.286,-18.371 0,-10.505 -8.543,-19.048 -19.048,-19.048 -10.505,0 -19.048,8.543 -19.048,19.048 0,8.848 6.09,16.243 14.286,18.371 v 34.01 h -14.286 v -8.676 l -2.59,-1.329 c -16.024,-8.2 -25.981,-24.438 -25.981,-42.376 0,-26.257 21.362,-47.619 47.619,-47.619 26.257,0 47.619,21.362 47.619,47.619 0,17.939 -9.956,34.177 -25.981,42.372 z m -21.638,-32.847 c -5.252,0 -9.524,-4.271 -9.524,-9.524 0,-5.252 4.271,-9.524 9.524,-9.524 5.253,0 9.524,4.271 9.524,9.524 0.001,5.252 -4.27,9.524 -9.524,9.524 z"
             inkscape:connector-curvature="0"
             style="fill:#ffffff" /><path
             id="path4667"
             d="m 291.844,177.164 c -3.338,-15.252 -8.995,-30.643 -16.633,-45.719 11.105,-38.01 6.176,-73.252 -15.962,-95.386 C 239.53,16.345 209.316,9.721 174.111,17.421 c -3.424,0.748 -6.852,1.662 -10.286,2.662 C 148.754,12.454 133.377,6.802 118.135,3.469 79.224,-5.05 45.805,2.254 24.029,24.031 2.252,45.808 -5.047,79.231 3.462,118.141 c 3.338,15.252 8.99,30.643 16.629,45.719 -11.31,38.538 -5.938,73.49 15.962,95.39 14.357,14.357 34.281,21.767 57.638,21.767 8.724,0 17.929,-1.038 27.495,-3.129 3.424,-0.748 6.852,-1.662 10.286,-2.662 15.071,7.629 30.448,13.281 45.69,16.614 10.595,2.314 20.781,3.462 30.438,3.462 25.81,0 47.824,-8.181 63.671,-24.029 21.781,-21.771 29.081,-55.195 20.573,-94.109 z M 252.515,42.793 c 17.838,17.838 22.89,45.633 16.081,76.495 -10.724,-18.31 -24.376,-35.962 -40.5,-52.081 -16.119,-16.124 -33.771,-29.776 -52.081,-40.5 30.586,-6.738 58.48,-1.933 76.5,16.086 z M 12.766,116.107 C 4.971,80.478 11.361,50.169 30.761,30.764 44.771,16.754 64.461,9.531 87.747,9.531 c 8.957,0 18.452,1.071 28.357,3.238 11.571,2.533 23.248,6.467 34.795,11.652 -26.733,10.181 -53.071,27.571 -75.99,50.49 -8.29,8.29 -15.905,17.157 -22.762,26.357 -2.167,-0.743 -4.457,-1.233 -6.876,-1.233 -11.814,0 -21.429,9.614 -21.429,21.429 0,6.09 2.581,11.562 6.671,15.467 -2.248,4.695 -4.3,9.371 -6.076,14.01 C 19.243,139.378 15.3,127.693 12.766,116.107 Z m 44.411,5.357 c 0,6.562 -5.338,11.905 -11.905,11.905 -6.567,0 -11.905,-5.343 -11.905,-11.905 0,-6.562 5.338,-11.905 11.905,-11.905 6.567,0 11.905,5.343 11.905,11.905 z M 42.79,252.516 C 25.195,234.921 19.861,207.33 26.757,176.102 c 10.714,18.281 24.352,35.9 40.452,51.995 16.124,16.129 33.776,29.786 52.095,40.51 -30.595,6.743 -58.489,1.938 -76.514,-16.091 z m 31.151,-31.152 c -17.99,-17.99 -32.776,-37.91 -43.648,-58.462 2.229,-6.933 5.086,-14 8.462,-21.133 2.067,0.667 4.229,1.124 6.514,1.124 11.814,0 21.429,-9.614 21.429,-21.429 0,-5.952 -2.448,-11.333 -6.376,-15.224 6.448,-8.571 13.576,-16.843 21.324,-24.595 25.129,-25.129 53.81,-42.614 81.2,-51.381 20.576,10.871 40.51,25.667 58.519,43.676 18.005,18.005 32.8,37.943 43.676,58.514 -5.313,16.52 -13.87,33.6 -25.551,50.315 -2.61,-1.138 -5.481,-1.781 -8.505,-1.781 -11.814,0 -21.429,9.614 -21.429,21.429 0,4.352 1.319,8.39 3.557,11.771 -24.995,24.838 -53.452,42.152 -80.643,50.857 -20.576,-10.876 -40.519,-25.671 -58.529,-43.681 z m 168.95,-18.948 c 0,6.567 -5.338,11.905 -11.905,11.905 -6.567,0 -11.905,-5.338 -11.905,-11.905 0,-6.567 5.338,-11.905 11.905,-11.905 6.567,0 11.905,5.338 11.905,11.905 z m 21.653,62.129 c -19.395,19.4 -49.69,25.8 -85.343,17.995 -11.571,-2.533 -23.243,-6.467 -34.795,-11.652 26.595,-10.129 52.8,-27.4 75.633,-50.148 3.214,1.929 6.933,3.105 10.948,3.105 11.814,0 21.429,-9.614 21.429,-21.429 0,-5.348 -2.038,-10.186 -5.29,-13.943 10.205,-14.567 18.138,-29.443 23.743,-44.105 5.195,11.567 9.138,23.252 11.671,34.838 7.793,35.625 1.403,65.939 -17.996,85.339 z"
             inkscape:connector-curvature="0"
             style="fill:#ffffff" /></g></g></g><g
       id="g4675"
       style="fill:#ffffff" /><g
       id="g4677"
       style="fill:#ffffff" /><g
       id="g4679"
       style="fill:#ffffff" /><g
       id="g4681"
       style="fill:#ffffff" /><g
       id="g4683"
       style="fill:#ffffff" /><g
       id="g4685"
       style="fill:#ffffff" /><g
       id="g4687"
       style="fill:#ffffff" /><g
       id="g4689"
       style="fill:#ffffff" /><g
       id="g4691"
       style="fill:#ffffff" /><g
       id="g4693"
       style="fill:#ffffff" /><g
       id="g4695"
       style="fill:#ffffff" /><g
       id="g4697"
       style="fill:#ffffff" /><g
       id="g4699"
       style="fill:#ffffff" /><g
       id="g4701"
       style="fill:#ffffff" /><g
       id="g4703"
       style="fill:#ffffff" /></g></svg>