<?xml version="1.0" encoding="UTF-8" standalone="no"?>
<!-- Generator: Adobe Illustrator 19.0.0, SVG Export Plug-In . SVG Version: 6.00 Build 0)  -->

<svg
   xmlns:dc="http://purl.org/dc/elements/1.1/"
   xmlns:cc="http://creativecommons.org/ns#"
   xmlns:rdf="http://www.w3.org/1999/02/22-rdf-syntax-ns#"
   xmlns:svg="http://www.w3.org/2000/svg"
   xmlns="http://www.w3.org/2000/svg"
   xmlns:sodipodi="http://sodipodi.sourceforge.net/DTD/sodipodi-0.dtd"
   xmlns:inkscape="http://www.inkscape.org/namespaces/inkscape"
   version="1.1"
   id="Layer_1"
   x="0px"
   y="0px"
   viewBox="0 0 295.239 295.239"
   style="enable-background:new 0 0 295.239 295.239;"
   xml:space="preserve"
   sodipodi:docname="025-sketchbook_blue.svg"
   inkscape:version="0.92.0 r15299"><metadata
     id="metadata47"><rdf:RDF><cc:Work
         rdf:about=""><dc:format>image/svg+xml</dc:format><dc:type
           rdf:resource="http://purl.org/dc/dcmitype/StillImage" /><dc:title></dc:title></cc:Work></rdf:RDF></metadata><defs
     id="defs45" /><sodipodi:namedview
     pagecolor="#ffffff"
     bordercolor="#666666"
     borderopacity="1"
     objecttolerance="10"
     gridtolerance="10"
     guidetolerance="10"
     inkscape:pageopacity="0"
     inkscape:pageshadow="2"
     inkscape:window-width="1600"
     inkscape:window-height="837"
     id="namedview43"
     showgrid="false"
     inkscape:zoom="0.79935235"
     inkscape:cx="147.61951"
     inkscape:cy="147.61951"
     inkscape:window-x="1912"
     inkscape:window-y="-8"
     inkscape:window-maximized="1"
     inkscape:current-layer="Layer_1" /><g
     id="g12" /><g
     id="g14" /><g
     id="g16" /><g
     id="g18" /><g
     id="g20" /><g
     id="g22" /><g
     id="g24" /><g
     id="g26" /><g
     id="g28" /><g
     id="g30" /><g
     id="g32" /><g
     id="g34" /><g
     id="g36" /><g
     id="g38" /><g
     id="g40" /><g
     id="g4858"
     transform="translate(-0.779,-1.3099863)"
     style="fill:#0000ff"><g
       id="g4801"
       style="fill:#0000ff"><g
         id="g4799"
         style="fill:#0000ff"><path
           id="path4797"
           d="m 284.855,237.167 -12.871,3.219 -18.938,-41.662 -5.919,-53.276 8.762,1.252 c 0.581,0.086 1.162,0.124 1.733,0.124 5.167,0 9.857,-3.295 11.533,-8.324 1.143,-3.433 0.71,-7.171 -1.195,-10.248 -1.9,-3.076 -5.048,-5.138 -8.629,-5.648 l -10.933,-1.562 V 23.81 C 248.398,10.681 237.717,0 224.588,0 h -200 C 11.46,0 0.779,10.681 0.779,23.81 c 0,11.495 8.195,21.114 19.048,23.329 v 248.1 h 190.286 l 0.376,1.31 9.157,-2.619 -8.171,-28.6 2.667,-0.667 61.852,-15.462 2.614,-0.652 8.129,24.39 9.033,-3.014 z m -36.738,-106.543 9.871,1.41 c 1.062,0.147 1.629,0.828 1.872,1.223 0.243,0.395 0.6,1.21 0.262,2.229 -0.405,1.214 -1.643,1.929 -2.881,1.786 l -10.01,-1.429 z M 224.588,9.523 c 7.876,0 14.286,6.41 14.286,14.287 v 84.962 l -9.524,-5.557 v -65.12 h -4.762 c -7.876,0 -14.286,-6.41 -14.286,-14.286 0,-7.876 6.41,-14.286 14.286,-14.286 z m -48.648,116.134 -22.933,-3.276 -2.105,-4.205 c -0.271,-0.543 -0.571,-1.067 -0.895,-1.567 l 22.605,3.229 v 0.005 l 62.452,8.91 3.619,0.519 -0.886,5.219 -14.757,-2.105 z m 9.377,16.405 -8.795,8.795 -14.843,-11.133 -3.49,-6.986 23.738,3.39 z m -52.633,-37.081 -15.333,5.114 c -0.743,0.105 -1.495,0.186 -2.229,0.314 -0.014,-0.295 -0.057,-0.586 -0.057,-0.886 0,-10.167 3.576,-19.51 9.514,-26.867 4.047,5.006 6.99,10.958 8.457,17.544 -0.014,0.048 -0.043,0.09 -0.052,0.138 -0.386,1.543 -0.424,3.1 -0.3,4.643 z m -11.292,22.123 0.738,5.924 c -2.667,-4.029 -4.619,-8.471 -5.781,-13.176 0.663,-0.128 1.344,-0.195 2.015,-0.295 l 3.176,3.176 c -0.229,1.438 -0.333,2.9 -0.148,4.371 z m -3.575,16.011 c -7.505,5.948 -16.81,9.267 -26.562,9.267 -2.819,0 -5.571,-0.29 -8.238,-0.814 3.176,-12.949 12.166,-23.568 24.257,-28.858 1.943,7.495 5.519,14.448 10.543,20.405 z M 105.74,113.019 c -15.757,6.01 -27.605,19.286 -31.819,35.662 -15.014,-6.671 -25.524,-21.7 -25.524,-39.157 0,-23.629 19.229,-42.857 42.857,-42.857 9.924,0 19.171,3.448 26.533,9.262 -7.632,9.1 -12.247,20.814 -12.247,33.595 0,1.176 0.124,2.333 0.2,3.495 z M 81.774,161 c 3.081,0.567 6.238,0.905 9.481,0.905 12.167,0 23.748,-4.248 33.014,-11.795 l 0.562,4.486 33.538,33.524 c -8.11,10.452 -20.443,16.643 -33.781,16.643 -23.629,0 -42.857,-19.229 -42.857,-42.857 0,-0.306 0.038,-0.601 0.043,-0.906 z m 49.613,-85.066 c 7.31,-5.786 16.514,-9.267 26.533,-9.267 11.41,0 22.09,4.643 29.948,12.352 l -5.666,-3.305 -40.181,14.61 c -0.614,0.224 -1.152,0.581 -1.724,0.881 -2.105,-5.638 -5.143,-10.781 -8.91,-15.271 z m 10.84,26.722 c 0.395,-1.586 1.514,-2.814 3.062,-3.376 l 35.986,-13.086 53.132,30.996 0.21,1.881 -23.671,-3.381 -32.371,-4.624 -3.871,-6.786 -20.129,3.357 -12.062,-1.724 c -0.462,-1 -0.571,-2.133 -0.286,-3.257 z M 10.302,23.81 c 0,-7.876 6.41,-14.286 14.286,-14.286 h 181.076 c -3.024,3.99 -4.886,8.905 -4.886,14.286 0,5.381 1.862,10.295 4.886,14.286 H 24.588 C 16.712,38.095 10.302,31.686 10.302,23.81 Z m 189.305,234.671 7.786,27.233 H 29.35 V 47.619 h 190.476 v 50.043 l -13.467,-7.857 c -7.99,-19.595 -27.21,-32.662 -48.438,-32.662 -12.652,0 -24.267,4.51 -33.333,12.005 -9.129,-7.538 -20.8,-12.005 -33.333,-12.005 -28.881,0 -52.381,23.5 -52.381,52.381 0,22.219 13.933,41.205 33.5,48.805 -0.076,1.186 -0.167,2.371 -0.167,3.576 0,28.881 23.5,52.381 52.381,52.381 15.905,0 30.671,-7.167 40.576,-19.376 l 3.943,3.943 32.333,27.714 9.681,29.033 z m 42.624,-10.658 -21.848,5.462 -10.743,-32.233 -34.067,-29.181 -41.7,-41.7 -3.033,-24.248 c -0.1,-0.81 -0.029,-1.605 0.176,-2.357 l 0.224,-0.581 c 0.462,-1.19 1.243,-2.167 2.224,-2.852 2.481,-1.61 6.076,-1.138 8.062,1.048 0.324,0.376 0.624,0.781 0.852,1.243 l 4.338,8.671 7.443,14.89 23.252,17.438 19.776,-19.776 -3.324,-5.814 43.519,6.219 6.276,56.471 18.93,42.21 z"
           inkscape:connector-curvature="0"
           style="fill:#0000ff" /></g></g><g
       id="g4803"
       style="fill:#0000ff" /><g
       id="g4805"
       style="fill:#0000ff" /><g
       id="g4807"
       style="fill:#0000ff" /><g
       id="g4809"
       style="fill:#0000ff" /><g
       id="g4811"
       style="fill:#0000ff" /><g
       id="g4813"
       style="fill:#0000ff" /><g
       id="g4815"
       style="fill:#0000ff" /><g
       id="g4817"
       style="fill:#0000ff" /><g
       id="g4819"
       style="fill:#0000ff" /><g
       id="g4821"
       style="fill:#0000ff" /><g
       id="g4823"
       style="fill:#0000ff" /><g
       id="g4825"
       style="fill:#0000ff" /><g
       id="g4827"
       style="fill:#0000ff" /><g
       id="g4829"
       style="fill:#0000ff" /><g
       id="g4831"
       style="fill:#0000ff" /></g></svg>