<?xml version="1.0" encoding="utf-8"?>
<!-- Generator: Adobe Illustrator 21.0.0, SVG Export Plug-In . SVG Version: 6.00 Build 0)  -->
<svg version="1.1" xmlns="http://www.w3.org/2000/svg" xmlns:xlink="http://www.w3.org/1999/xlink" x="0px" y="0px"
	 viewBox="0 0 800 800" style="enable-background:new 0 0 800 800;" xml:space="preserve">
<style type="text/css">
	.st0{fill:none;stroke:#7AB1ED;stroke-width:3;stroke-miterlimit:10;}
	.st1{fill:#F2F2F2;}
	.st2{fill:#01122C;}
	.st3{fill:#FE3718;}
	.st4{fill:#0593E5;}
	.st5{fill:#FCFCFA;}
	.st6{fill:#808080;}
	.st7{fill:none;}
	.st8{font-family:'OpenSans-Bold';}
	.st9{font-size:4.3525px;}
	.st10{fill:#D10510;}
	.st11{fill:#D8D8D8;}
	.st12{clip-path:url(#SVGID_2_);}
	.st13{fill:#ED1C24;}
	.st14{clip-path:url(#SVGID_2_);fill:none;stroke:#F2F2F2;stroke-width:3;stroke-miterlimit:10;}
	.st15{fill:#0059D1;}
	.st16{fill:#EFEED0;}
	.st17{fill:#E6E6E6;}
	.st18{fill:#666666;}
	.st19{fill:none;stroke:#01122C;stroke-miterlimit:10;}
</style>
<g id="_x38_00X800">
</g>
<g id="_x31_200X800">
</g>
<g id="DESIGNED_BY_FREEPIK">
	<g>
		<g>
			<circle class="st0" cx="291.6" cy="394.2" r="240.3"/>
			<circle class="st0" cx="499.3" cy="394.2" r="240.3"/>
			<circle class="st0" cx="402.1" cy="394.2" r="240.3"/>
		</g>
		<polygon class="st1" points="162.7,487.6 139.8,487.6 139.8,464.7 114.3,464.7 114.3,487.6 91.4,487.6 91.4,513.1 114.3,513.1 
			114.3,536 139.8,536 139.8,513.1 162.7,513.1 		"/>
		<g>
			<g>
				<path class="st2" d="M499.7,577.5c0,10.4-8.5,18.9-18.9,18.9H321.2c-10.4,0-18.9-8.5-18.9-18.9V210.4c0-10.4,8.5-18.9,18.9-18.9
					h159.6c10.4,0,18.9,8.5,18.9,18.9V577.5z"/>
			</g>
			<g>
				<rect x="314.4" y="243.8" class="st3" width="172.2" height="305.6"/>
			</g>
			<path class="st1" d="M400.3,559.1c-7.9,0-14.3,6.4-14.3,14.3c0,7.9,6.4,14.3,14.3,14.3c7.9,0,14.3-6.4,14.3-14.3
				C414.6,565.5,408.2,559.1,400.3,559.1z M400.3,586.2c-7.1,0-12.8-5.8-12.8-12.8c0-7.1,5.8-12.8,12.8-12.8
				c7.1,0,12.8,5.8,12.8,12.8C413.1,580.5,407.4,586.2,400.3,586.2z"/>
			<g>
				<path class="st4" d="M416.6,220c0,1.1-0.9,2-2,2h-28.7c-1.1,0-2-0.9-2-2l0,0c0-1.1,0.9-2,2-2h28.7
					C415.7,218,416.6,218.9,416.6,220L416.6,220z"/>
			</g>
			<g>
				<circle class="st4" cx="369.7" cy="220.7" r="4"/>
			</g>
			<g>
				<circle class="st4" cx="401.4" cy="207.6" r="2.9"/>
			</g>
			<circle class="st5" cx="324.8" cy="250.6" r="1.5"/>
			<circle class="st6" cx="329.5" cy="250.6" r="1.5"/>
			<circle class="st5" cx="329.5" cy="250.6" r="1.5"/>
			<circle class="st6" cx="334.2" cy="250.6" r="1.5"/>
			<circle class="st5" cx="334.2" cy="250.6" r="1.5"/>
			<circle class="st5" cx="338.9" cy="250.6" r="1.5"/>
			<rect x="461.5" y="248.5" class="st5" width="7.2" height="3.5"/>
			<rect x="460.5" y="249.3" class="st5" width="5.8" height="1.9"/>
			<rect x="462.4" y="248.5" class="st7" width="26.9" height="18.6"/>
			<g>
				<text transform="matrix(1 0 0 1 470.1699 251.761)" class="st5 st8 st9">100%</text>
			</g>
			<polygon class="st10" points="314.4,549.5 486.6,243.8 486.6,549.5 			"/>
			
				<ellipse transform="matrix(0.4899 -0.8718 0.8718 0.4899 -141.4824 551.4796)" class="st11" cx="400.5" cy="396.6" rx="51.4" ry="51.4"/>
			<path class="st5" d="M355.8,371.5c-13.9,24.7-5.1,56,19.6,69.9l50.3-89.5C401,338,369.6,346.8,355.8,371.5z"/>
			<polygon class="st2" points="429.9,386.6 410.5,386.6 410.5,367.2 389,367.2 389,386.6 369.7,386.6 369.7,408.1 389,408.1 
				389,427.4 410.5,427.4 410.5,408.1 429.9,408.1 			"/>
			<rect x="314.4" y="461.2" class="st7" width="172.2" height="87"/>
		</g>
		<g>
			<g>
				<defs>
					<path id="SVGID_1_" d="M680.3,331.1c-9.7,0-18.4,4.1-24.5,10.7c-6.1-6.6-14.8-10.7-24.5-10.7c-18.4,0-33.4,15-33.4,33.5
						c0,5,0.9,9.7,2.4,14.3c0,0,1.4,4.1,2.6,6.4c14.1,29,52.8,47.8,52.8,47.8s38.7-18.8,52.8-47.8c0,0,1.8-3.9,2.6-6.4
						c1.5-4.6,2.4-9.3,2.4-14.3C713.6,346.1,698.7,331.1,680.3,331.1z"/>
				</defs>
				<clipPath id="SVGID_2_">
					<use xlink:href="#SVGID_1_"  style="overflow:visible;"/>
				</clipPath>
				<g class="st12">
					<path class="st3" d="M631.4,331.1c-18.4,0-33.4,15-33.4,33.5c0,5,0.9,9.7,2.4,14.3c0,0,1.4,4.1,2.6,6.4
						c14.1,29,52.8,47.8,52.8,47.8v-91.3C649.7,335.2,641,331.1,631.4,331.1z"/>
					<path class="st3" d="M69.3,709c-18.4,0-33.4,15-33.4,33.5c0,5,0.9,9.7,2.4,14.3c0,0,1.4,4.1,2.6,6.4
						C55,792.2,93.7,811,93.7,811v-91.3C87.6,713.1,78.9,709,69.3,709z"/>
					<path class="st13" d="M680.3,331.1c-9.7,0-18.4,4.1-24.5,10.7v91.3c0,0,38.7-18.8,52.8-47.8c0,0,1.8-3.9,2.6-6.4
						c1.5-4.6,2.4-9.3,2.4-14.3C713.6,346.1,698.7,331.1,680.3,331.1z"/>
					<path class="st10" d="M680.3,331.1c-9.7,0-18.4,4.1-24.5,10.7v91.3c0,0,38.7-18.8,52.8-47.8c0,0,1.8-3.9,2.6-6.4
						c1.5-4.6,2.4-9.3,2.4-14.3C713.6,346.1,698.7,331.1,680.3,331.1z"/>
					<path class="st10" d="M118.4,709c-9.7,0-18.4,4.1-24.5,10.7V811c0,0,38.7-18.8,52.8-47.8c0,0,1.8-3.9,2.6-6.4
						c1.5-4.6,2.4-9.3,2.4-14.3C151.8,724,136.9,709,118.4,709z"/>
				</g>
				<polyline class="st14" points="586.3,383.3 630.3,383.3 640.9,358.2 654.7,410 669.4,369.3 675.9,382.5 729.5,382.5 				"/>
			</g>
		</g>
		<g>
			<path class="st3" d="M600.3,561.8l-11.7-25.5c1.7,3.6-2.1,8.9-8.3,11.7c-6.2,2.9-12.7,2.3-14.3-1.3l11.7,25.5
				c2.9,6.2,10.3,9,16.5,6.1C600.5,575.4,603.2,568,600.3,561.8z"/>
			<path class="st1" d="M580.3,548c6.2-2.9,10-8.1,8.3-11.7l-8.3-18c-2.9-6.2-10.3-9-16.5-6.1c-6.2,2.9-9,10.3-6.1,16.5l8.3,18
				C567.6,550.3,574.1,550.9,580.3,548z"/>
		</g>
		<g>
			<path class="st2" d="M244.2,302.5l14-23.6c-2,3.3-8.3,3.3-14-0.2c-5.8-3.4-8.9-8.9-6.9-12.2l-14,23.6c-3.4,5.8-1.5,13.2,4.3,16.7
				C233.3,310.1,240.8,308.2,244.2,302.5z"/>
			<path class="st1" d="M244.1,278.7c5.8,3.4,12.1,3.5,14,0.2l9.9-16.7c3.4-5.8,1.5-13.2-4.3-16.7c-5.8-3.4-13.2-1.5-16.7,4.3
				l-9.9,16.7C235.3,269.8,238.3,275.3,244.1,278.7z"/>
		</g>
		<g>
			<path class="st15" d="M530.3,255.8l11.5,19.2c-1.6-2.7,0.9-7.2,5.5-10c4.7-2.8,9.8-2.9,11.5-0.2l-11.5-19.2
				c-2.8-4.7-8.9-6.2-13.6-3.4C529,245,527.5,251.1,530.3,255.8z"/>
			<path class="st1" d="M547.4,265c-4.7,2.8-7.2,7.3-5.5,10l8.2,13.6c2.8,4.7,8.9,6.2,13.6,3.4c4.7-2.8,6.2-8.9,3.4-13.6l-8.2-13.6
				C557.3,262,552.1,262.1,547.4,265z"/>
		</g>
		<polygon class="st1" points="583.7,400.3 564.9,388.5 583.1,377 569.8,355.8 553.6,366 553.6,346.9 528.6,346.9 528.6,365.6 
			513,355.8 499.7,377 517.9,388.5 499,400.3 512.4,421.5 528.6,411.4 528.6,430.4 553.6,430.4 553.6,411 570.4,421.5 		"/>
		<g>
			<path class="st15" d="M139.2,213c2,3.1,3.1,6.4,3.6,9.8l20.7-0.9c-0.6-6.9-2.9-13.8-6.8-20c-4-6.2-9.3-11.1-15.3-14.6l-9.6,18.4
				C134.7,207.5,137.3,209.9,139.2,213z"/>
			<path class="st2" d="M81.1,250.2c11,17.2,31.9,24.4,50.6,18.8l-6.9-19.6c-9.8,2.5-20.5-1.4-26.3-10.4
				c-7.2-11.2-3.9-26.2,7.3-33.4c6.9-4.4,15.1-4.9,22.2-2l9.6-18.4c-13.4-6.1-29.5-5.6-42.9,2.9C73.9,201.5,67.8,229.3,81.1,250.2z"
				/>
			<path class="st3" d="M143,263.8c2.3-1.5,4.5-3.2,6.5-5l-14.9-14.5c-0.9,0.7-1.8,1.4-2.7,2c-1,0.6-2,1.2-3,1.6l6.9,19.6
				C138.2,266.5,140.7,265.3,143,263.8z"/>
			<path class="st5" d="M163.7,226.1l-20.7,0.9c-0.2,5.1-2.1,10.1-5.4,14.1l14.9,14.5C159.8,247.4,163.7,236.9,163.7,226.1z"/>
		</g>
		<g>
			<path class="st1" d="M756.3,243.8c0,6.4-1.4,12.5-4,17.9L784,280c5.6-10.9,8.8-23.2,8.8-36.2c0-13-3.2-25.4-8.8-36.2l-31.7,18.3
				C754.8,231.3,756.3,237.4,756.3,243.8z"/>
			<path class="st1" d="M634.5,243.8c0,36.1,24.3,66.6,57.3,76.1l8.4-35.6c-16.9-5.6-29.2-21.6-29.2-40.4
				c0-23.5,19.1-42.6,42.6-42.6c14.4,0,27.1,7.2,34.8,18.1l31.7-18.3c-14.1-21.8-38.6-36.3-66.5-36.3
				C670,164.7,634.5,200.2,634.5,243.8z"/>
			<path class="st1" d="M713.6,323c4.9,0,9.7-0.5,14.4-1.3l-8.4-35.6c-2,0.3-4,0.4-6,0.4c-2,0-4-0.2-6-0.4l-8.4,35.6
				C703.9,322.5,708.7,323,713.6,323z"/>
			<path class="st1" d="M780.2,286.6l-31.7-18.3c-5.2,7.4-12.7,13-21.4,15.9l8.4,35.6C754.1,314.5,769.9,302.5,780.2,286.6z"/>
		</g>
		<g>
			<path class="st16" d="M750,439.6c-2.9-5-2.9-11.2,0-16.2l9.8-17.1l-9.7-17c-0.5-0.9-1.8-0.9-2.3,0l-15.4,26.9
				c-3.2,5.7-3.5,12.9,0,19c4.4,7.7,13.4,11.2,21.6,8.9C752.4,443,751,441.4,750,439.6z"/>
			<path class="st3" d="M752.5,424.9c-2.3,4-2.4,9,0,13.3c2.5,4.3,7,6.7,11.6,6.7c2.3,0,4.5-0.6,6.6-1.8c6.4-3.7,8.6-11.8,5-18.3
				L764.9,406c-0.2-0.3-0.5-0.5-0.8-0.5c-0.3,0-0.6,0.2-0.8,0.5L752.5,424.9z"/>
		</g>
		<g>
			<g>
				<g>
					<path class="st16" d="M51.3,363.8H25.7c-7.5,0-13.5,6-13.5,13.5V416v11.6v11.2c0,1.2,1,2.2,2.3,2.2h11.2h25.6h11.2
						c1.3,0,2.3-1,2.3-2.2v-11.2V416v-38.7C64.8,369.8,58.8,363.8,51.3,363.8z"/>
				</g>
			</g>
			<g>
				<g>
					<path class="st11" d="M51.3,363.8H38.5v77.3h12.8h11.2c1.3,0,2.3-1,2.3-2.2v-11.2V416v-38.7C64.8,369.8,58.8,363.8,51.3,363.8z
						"/>
				</g>
			</g>
			<g>
				<g>
					<rect x="12.2" y="393.5" class="st3" width="26.3" height="23.8"/>
				</g>
			</g>
			<g>
				<g>
					<rect x="38.5" y="393.5" class="st10" width="26.3" height="23.8"/>
				</g>
			</g>
			<g>
				<g>
					<rect x="20.3" y="353.5" class="st10" width="36.5" height="11.4"/>
				</g>
			</g>
			<g>
				<g>
					<rect x="21.7" y="354.9" class="st3" width="1.1" height="8.5"/>
				</g>
				<g>
					<rect x="24.9" y="354.9" class="st3" width="1.1" height="8.5"/>
				</g>
				<g>
					<rect x="28.2" y="354.9" class="st3" width="1.1" height="8.5"/>
				</g>
				<g>
					<rect x="31.4" y="354.9" class="st3" width="1.1" height="8.5"/>
				</g>
				<g>
					<rect x="34.7" y="354.9" class="st3" width="1.1" height="8.5"/>
				</g>
				<g>
					<rect x="37.9" y="354.9" class="st3" width="1.1" height="8.5"/>
				</g>
				<g>
					<rect x="41.2" y="354.9" class="st3" width="1.1" height="8.5"/>
				</g>
				<g>
					<rect x="44.4" y="354.9" class="st3" width="1.1" height="8.5"/>
				</g>
				<g>
					<rect x="47.7" y="354.9" class="st3" width="1.1" height="8.5"/>
				</g>
				<g>
					<rect x="50.9" y="354.9" class="st3" width="1.1" height="8.5"/>
				</g>
				<g>
					<rect x="54.2" y="354.9" class="st3" width="1.1" height="8.5"/>
				</g>
			</g>
		</g>
		<g>
			<path class="st2" d="M609.5,191.6c0-3.6,0.8-7.1,2.2-10.2l-18-10.4c-3.2,6.2-5,13.1-5,20.5c0,7.4,1.8,14.4,5,20.5l18-10.4
				C610.3,198.7,609.5,195.2,609.5,191.6z"/>
			<path class="st11" d="M633.7,146.7c-2.8,0-5.5,0.3-8.2,0.8l4.8,20.2c1.1-0.2,2.3-0.2,3.4-0.2c1.2,0,2.3,0.1,3.4,0.2l4.8-20.2
				C639.2,147,636.5,146.7,633.7,146.7z"/>
			<path class="st3" d="M596,167.3l18,10.4c2.9-4.2,7.2-7.4,12.1-9l-4.8-20.2C610.8,151.5,601.8,158.3,596,167.3z"/>
			<path class="st16" d="M678.5,191.6c0-20.4-13.8-37.7-32.5-43.1l-4.8,20.2c9.6,3.2,16.5,12.3,16.5,22.9
				c0,13.3-10.8,24.2-24.2,24.2c-8.2,0-15.4-4.1-19.7-10.3l-18,10.4c8,12.4,21.9,20.6,37.7,20.6
				C658.4,236.4,678.5,216.3,678.5,191.6z"/>
		</g>
		<g>
			<rect x="8" y="297.1" class="st17" width="10.4" height="18.9"/>
			<rect x="91.4" y="285.6" class="st17" width="10.4" height="30.4"/>
			<rect x="28.8" y="287.2" class="st17" width="10.4" height="28.8"/>
			<rect x="70.5" y="290.1" class="st17" width="10.4" height="25.9"/>
			<rect x="49.7" y="279.5" class="st17" width="10.4" height="36.5"/>
			<rect x="197" y="300.8" class="st17" width="10.4" height="18.9"/>
			<rect x="113.6" y="300.8" class="st17" width="10.4" height="30.4"/>
			<rect x="176.2" y="300.8" class="st17" width="10.4" height="28.8"/>
			<rect x="134.5" y="300.8" class="st17" width="10.4" height="25.9"/>
			<rect x="155.3" y="300.8" class="st17" width="10.4" height="36.5"/>
		</g>
		<g>
			<rect x="647.8" y="464.7" class="st17" width="79.6" height="113.5"/>
			<circle class="st3" cx="668.4" cy="486.4" r="14.4"/>
			<polygon class="st5" points="678,483 671.8,483 671.8,476.8 665,476.8 665,483 658.8,483 658.8,489.8 665,489.8 665,496 
				671.8,496 671.8,489.8 678,489.8 			"/>
			<rect x="654" y="508.6" class="st5" width="66.5" height="63.6"/>
			<rect x="691.1" y="476.8" class="st11" width="17.5" height="3.4"/>
			<rect x="711.7" y="476.8" class="st11" width="8.8" height="3.4"/>
			<rect x="695.5" y="483" class="st11" width="8.8" height="3.4"/>
			<rect x="686.7" y="483" class="st11" width="5.7" height="3.4"/>
			<rect x="706" y="483" class="st11" width="14.5" height="3.4"/>
			<rect x="670.5" y="520" class="st11" width="17.5" height="3.4"/>
			<rect x="658.6" y="520" class="st11" width="8.8" height="3.4"/>
			<rect x="699.2" y="520" class="st11" width="8.8" height="3.4"/>
			<rect x="674.9" y="513.8" class="st11" width="8.8" height="3.4"/>
			<rect x="686.7" y="513.8" class="st11" width="5.7" height="3.4"/>
			<rect x="690.5" y="520" class="st11" width="5.7" height="3.4"/>
			<rect x="658.6" y="513.8" class="st11" width="14.5" height="3.4"/>
			<rect x="667.3" y="532.4" class="st11" width="8.8" height="3.4"/>
			<rect x="674.9" y="526.2" class="st11" width="8.8" height="3.4"/>
			<rect x="658.6" y="532.4" class="st11" width="5.7" height="3.4"/>
			<rect x="678.1" y="532.4" class="st11" width="9.4" height="3.4"/>
			<rect x="696.8" y="526.2" class="st11" width="9.5" height="3.4"/>
			<rect x="685.9" y="526.2" class="st11" width="8.6" height="3.4"/>
			<rect x="658.6" y="526.2" class="st11" width="14.5" height="3.4"/>
			<rect x="695.5" y="513.8" class="st11" width="14.5" height="3.4"/>
		</g>
		<path class="st1" d="M245.3,362.7h-0.8h-15.6H228c-1.3,0-2.4,1.1-2.4,2.4c0,1.3,1.1,2.4,2.4,2.4h0.8v40.7v20.9v13
			c0,4.3,3.5,7.8,7.8,7.8c4.3,0,7.8-3.5,7.8-7.8v-13v-20.9v-40.7h0.8c1.3,0,2.4-1.1,2.4-2.4C247.7,363.8,246.6,362.7,245.3,362.7z"
			/>
		<path class="st1" d="M617.8,448.2h-0.6h-10.9h-0.6c-0.9,0-1.7,0.7-1.7,1.7c0,0.9,0.7,1.7,1.7,1.7h0.6v28.2v14.5v9
			c0,3,2.4,5.4,5.4,5.4c3,0,5.4-2.4,5.4-5.4v-9v-14.5v-28.2h0.6c0.9,0,1.7-0.7,1.7-1.7C619.4,449,618.7,448.2,617.8,448.2z"/>
		<g>
			<path class="st5" d="M577.1,367.9h-0.8h-15.6h-0.8c-1.3,0-2.4,1.1-2.4,2.4c0,1.3,1.1,2.4,2.4,2.4h0.8v40.7v20.9v13
				c0,4.3,3.5,7.8,7.8,7.8c4.3,0,7.8-3.5,7.8-7.8v-13v-20.9v-40.7h0.8c1.3,0,2.4-1.1,2.4-2.4C579.5,369,578.5,367.9,577.1,367.9z"/>
			<path class="st15" d="M563.4,395.8v51.5c0,2.8,2.3,5.1,5.1,5.1c2.8,0,5.1-2.3,5.1-5.1v-51.5H563.4z"/>
		</g>
		<g>
			<path class="st1" d="M554.7,568.6c-5.3,0-10,2.2-13.3,5.8c-3.3-3.6-8.1-5.8-13.3-5.8c-10,0-18.2,8.2-18.2,18.3
				c0,2.7,0.5,5.3,1.3,7.8c0,0,0.8,2.2,1.4,3.5c7.7,15.8,28.8,26.1,28.8,26.1s21.1-10.3,28.8-26.1c0,0,1-2.1,1.4-3.5
				c0.8-2.5,1.3-5.1,1.3-7.8C572.9,576.7,564.8,568.6,554.7,568.6L554.7,568.6z M554.7,568.6"/>
		</g>
		<g>
			<g>
				
					<rect x="161.4" y="516.7" transform="matrix(0.7525 -0.6586 0.6586 0.7525 -323.8766 254.946)" class="st1" width="31.7" height="83.5"/>
			</g>
			<g>
				
					<rect x="183.2" y="589.4" transform="matrix(0.7525 -0.6586 0.6586 0.7525 -338.3052 281.8401)" class="st1" width="45.3" height="3.3"/>
			</g>
			<g>
				
					<rect x="141.4" y="521.8" transform="matrix(0.7525 -0.6586 0.6586 0.7525 -308.998 227.215)" class="st1" width="12.8" height="6"/>
			</g>
			<g>
				<g>
					<line class="st4" x1="147.8" y1="524.7" x2="111.1" y2="482.8"/>
				</g>
				<g>
					<polygon class="st1" points="149,523.7 146.7,525.7 112.7,486.9 112.2,481.8 					"/>
				</g>
			</g>
			<g>
				
					<rect x="156.5" y="524.3" transform="matrix(0.7525 -0.6586 0.6586 0.7525 -319.3316 246.6639)" class="st3" width="24.1" height="47.9"/>
			</g>
			<g>
				
					<rect x="179.3" y="567.9" transform="matrix(0.7525 -0.6586 0.6586 0.7525 -330.8797 268.1877)" class="st17" width="24.1" height="12.8"/>
			</g>
			<g>
				
					<rect x="194.9" y="577" transform="matrix(0.7525 -0.6586 0.6586 0.7525 -335.9087 277.5591)" class="st17" width="12.8" height="17.3"/>
			</g>
			<g>
				
					<rect x="210.7" y="588.5" transform="matrix(0.7525 -0.6586 0.6586 0.7525 -343.865 292.3904)" class="st1" width="12.8" height="30.6"/>
			</g>
			<g>
				
					<rect x="215" y="614.6" transform="matrix(0.7525 -0.6586 0.6586 0.7525 -349.9633 303.5681)" class="st1" width="27.8" height="5.7"/>
			</g>
			<g>
				<g>
					<line class="st1" x1="142.8" y1="538.9" x2="149.3" y2="533.2"/>
					
						<rect x="141.7" y="535.6" transform="matrix(0.7525 -0.6585 0.6585 0.7525 -316.845 228.8425)" class="st18" width="8.7" height="0.8"/>
				</g>
				<g>
					<line class="st1" x1="146.6" y1="543.3" x2="153.2" y2="537.5"/>
					
						<rect x="145.6" y="540" transform="matrix(0.7526 -0.6585 0.6585 0.7526 -318.7694 232.433)" class="st18" width="8.7" height="0.8"/>
				</g>
				<g>
					<line class="st1" x1="150.5" y1="547.6" x2="157" y2="541.9"/>
					
						<rect x="149.4" y="544.4" transform="matrix(0.7525 -0.6585 0.6585 0.7525 -320.7179 236.0607)" class="st18" width="8.7" height="0.8"/>
				</g>
				<g>
					<line class="st1" x1="154.3" y1="552" x2="160.8" y2="546.3"/>
					
						<rect x="153.2" y="548.8" transform="matrix(0.7526 -0.6585 0.6585 0.7526 -322.641 239.6487)" class="st18" width="8.7" height="0.8"/>
				</g>
				<g>
					<line class="st1" x1="158.1" y1="556.4" x2="164.7" y2="550.7"/>
					
						<rect x="157.1" y="553.2" transform="matrix(0.7525 -0.6586 0.6586 0.7525 -324.6048 243.3001)" class="st18" width="8.7" height="0.8"/>
				</g>
				<g>
					<line class="st1" x1="162" y1="560.8" x2="168.5" y2="555.1"/>
					
						<rect x="160.9" y="557.5" transform="matrix(0.7525 -0.6586 0.6586 0.7525 -326.5625 246.943)" class="st18" width="8.7" height="0.8"/>
				</g>
				<g>
					<line class="st1" x1="165.8" y1="565.2" x2="172.3" y2="559.4"/>
					
						<rect x="164.7" y="561.9" transform="matrix(0.7524 -0.6586 0.6586 0.7524 -328.5042 250.5608)" class="st18" width="8.7" height="0.8"/>
				</g>
				<g>
					<line class="st1" x1="169.6" y1="569.5" x2="176.2" y2="563.8"/>
					
						<rect x="168.6" y="566.3" transform="matrix(0.7525 -0.6586 0.6586 0.7525 -330.3996 254.1044)" class="st18" width="8.7" height="0.8"/>
				</g>
				<g>
					<line class="st1" x1="173.5" y1="573.9" x2="180" y2="568.2"/>
					
						<rect x="172.4" y="570.7" transform="matrix(0.7524 -0.6587 0.6587 0.7524 -332.3904 257.8015)" class="st18" width="8.7" height="0.8"/>
				</g>
				<g>
					<line class="st1" x1="177.3" y1="578.3" x2="183.8" y2="572.6"/>
					
						<rect x="176.2" y="575.1" transform="matrix(0.7525 -0.6585 0.6585 0.7525 -334.265 261.3103)" class="st18" width="8.7" height="0.8"/>
				</g>
				<g>
					<line class="st1" x1="181.1" y1="582.7" x2="187.7" y2="577"/>
					
						<rect x="180.1" y="579.4" transform="matrix(0.7525 -0.6586 0.6586 0.7525 -336.2102 264.9334)" class="st18" width="8.7" height="0.8"/>
				</g>
				<g>
					<line class="st1" x1="185" y1="587.1" x2="191.5" y2="581.3"/>
					
						<rect x="183.9" y="583.8" transform="matrix(0.7526 -0.6585 0.6585 0.7526 -338.1239 268.5046)" class="st18" width="8.7" height="0.8"/>
				</g>
				<g>
					<line class="st1" x1="188.8" y1="591.4" x2="195.3" y2="585.7"/>
					
						<rect x="187.7" y="588.2" transform="matrix(0.7525 -0.6586 0.6586 0.7525 -340.0822 272.15)" class="st18" width="8.7" height="0.8"/>
				</g>
				<g>
					<line class="st1" x1="192.6" y1="595.8" x2="199.2" y2="590.1"/>
					
						<rect x="191.6" y="592.6" transform="matrix(0.7525 -0.6586 0.6586 0.7525 -342.0473 275.8079)" class="st18" width="8.7" height="0.8"/>
				</g>
			</g>
		</g>
		<g>
			<ellipse class="st19" cx="720.5" cy="270.9" rx="25.3" ry="52.7"/>
			<path class="st19" d="M738.4,255.1c23.3,20.6,34.1,44.3,24.3,53.1c-9.9,8.7-36.7-0.9-60-21.5c-23.3-20.6-34.1-44.3-24.3-53.1
				C688.2,224.9,715.1,234.5,738.4,255.1z"/>
			<path class="st19" d="M738.4,286.7c-23.3,20.6-50.1,30.2-60,21.5c-9.9-8.7,1-32.5,24.3-53.1c23.3-20.6,50.1-30.2,60-21.5
				C772.5,242.3,761.6,266.1,738.4,286.7z"/>
			<circle class="st2" cx="720.5" cy="270.9" r="10.9"/>
			<circle class="st2" cx="730.3" cy="304.5" r="4.6"/>
			<circle class="st2" cx="698.4" cy="245.1" r="4.6"/>
		</g>
		<g>
			<path class="st1" d="M294.2,490.1c0-4.1-1.3-7.4-3.9-9.7c-2.6-2.3-6.2-3.4-10.8-3.4c-4.1,0-8.8,0.9-13.9,2.6
				c-4.7-9.2-11-14.8-18-14.8c-7,0-13.3,5.7-18,14.8c-5-1.7-9.8-2.6-13.9-2.6c-4.6,0-8.2,1.1-10.8,3.4c-2.6,2.3-3.9,5.5-3.9,9.7
				c0,7.8,4.7,17.9,12.7,28.2c-8,10.3-12.7,20.4-12.7,28.2c0,4.1,1.3,7.4,3.9,9.7c2.6,2.3,6.2,3.4,10.8,3.4c4.1,0,8.8-0.9,13.9-2.6
				c4.7,9.2,11,14.8,18,14.8c7,0,13.3-5.7,18-14.8c5,1.7,9.8,2.6,13.9,2.6c4.6,0,8.2-1.1,10.8-3.4c2.6-2.3,3.9-5.5,3.9-9.7
				c0-7.8-4.7-17.9-12.7-28.2C289.5,508,294.2,497.9,294.2,490.1z M279.5,478.5c4.2,0,7.5,1,9.8,3c2.2,2,3.4,4.9,3.4,8.5
				c0,7.4-4.5,17-12.1,26.9c-2.2-2.8-4.6-5.5-7.3-8.2c-0.9-10.7-3.4-20.3-7-27.8C271.1,479.4,275.6,478.5,279.5,478.5z M257.5,547.3
				c-1.8,0-3.3,1-4.1,2.5c-1.4-0.8-2.9-1.6-4.3-2.5c5.7-3.6,11.5-7.9,16.9-12.7c1.9-1.7,3.8-3.5,5.6-5.2c-1,9.9-3.4,18.7-6.6,25.6
				c-1.1-0.4-2.2-0.8-3.3-1.3c0.3-0.6,0.4-1.2,0.4-1.9C262.1,549.4,260,547.3,257.5,547.3z M265.1,533.5c-5.6,5-11.5,9.3-17.4,13
				c-5.9-3.6-11.7-8-17.4-13c-2.4-2.1-4.7-4.3-6.8-6.5c-0.2-2.9-0.4-5.8-0.4-8.8c0-3,0.1-5.9,0.4-8.8c2.1-2.2,4.4-4.3,6.8-6.5
				c5.6-5,11.5-9.3,17.4-13c5.9,3.6,11.7,8,17.4,13c2.4,2.1,4.7,4.3,6.8,6.5c0.2,2.9,0.4,5.8,0.4,8.8c0,3-0.1,5.9-0.4,8.8
				C269.7,529.2,267.5,531.4,265.1,533.5z M225.6,497c2.5,0,4.6-2,4.6-4.6c0-1.8-1-3.3-2.5-4.1c0.8-2.5,1.7-4.8,2.7-6.9
				c5,1.8,10.4,4.4,15.9,7.7c-5.7,3.6-11.5,7.9-16.9,12.7c-1.9,1.7-3.8,3.5-5.6,5.2c0.4-3.5,0.9-6.9,1.6-10.1
				C225.4,497,225.5,497,225.6,497z M246.3,547.4c-5.4,3.3-10.8,5.9-15.9,7.7c-3.3-6.9-5.6-15.7-6.6-25.6c1.8,1.8,3.6,3.5,5.6,5.2
				C234.8,539.5,240.5,543.8,246.3,547.4z M221.9,525.4c-2.2-2.4-4.3-4.7-6.2-7.1c1.9-2.4,3.9-4.7,6.2-7.1c-0.2,2.3-0.2,4.7-0.2,7.1
				C221.7,520.7,221.8,523,221.9,525.4z M249.1,489.2c5.4-3.3,10.8-5.9,15.9-7.7c3.3,6.9,5.6,15.8,6.6,25.6
				c-1.8-1.8-3.6-3.5-5.6-5.2C260.6,497.1,254.9,492.8,249.1,489.2z M273.5,511.2c2.2,2.4,4.3,4.7,6.2,7.1c-1.9,2.4-3.9,4.7-6.2,7.1
				c0.2-2.3,0.2-4.7,0.2-7.1C273.7,515.9,273.6,513.5,273.5,511.2z M247.7,466.3c6.4,0,12.3,5.3,16.6,13.8
				c-5.3,1.9-10.9,4.7-16.6,8.2c-5.7-3.5-11.3-6.2-16.6-8.2C235.4,471.6,241.3,466.3,247.7,466.3z M202.7,490.1
				c0-3.7,1.1-6.6,3.4-8.5c2.3-2,5.6-3,9.8-3c3.9,0,8.4,0.9,13.2,2.5c-1,2.1-2,4.5-2.8,6.9c-0.2,0-0.4-0.1-0.6-0.1
				c-2.5,0-4.6,2-4.6,4.6c0,1.9,1.2,3.5,2.8,4.2c-0.8,3.8-1.4,7.9-1.8,12.1c-2.6,2.7-5.1,5.5-7.3,8.2
				C207.2,507.2,202.7,497.5,202.7,490.1z M215.9,558c-4.2,0-7.5-1-9.8-3c-2.2-2-3.4-4.9-3.4-8.5c0-7.4,4.5-17,12.1-26.9
				c2.2,2.8,4.6,5.5,7.3,8.2c0.9,10.7,3.4,20.3,7,27.8C224.3,557.1,219.8,558,215.9,558z M247.7,570.2c-6.4,0-12.3-5.3-16.6-13.8
				c5.3-1.9,10.9-4.7,16.6-8.2c1.8,1.1,3.5,2.1,5.3,3c0,0.2-0.1,0.4-0.1,0.6c0,2.5,2,4.6,4.6,4.6c1.3,0,2.5-0.6,3.3-1.4
				c1.2,0.5,2.4,1,3.5,1.4C260,565,254.1,570.2,247.7,570.2z M292.7,546.4c0,3.7-1.1,6.6-3.4,8.5c-2.3,2-5.6,3-9.8,3
				c-3.9,0-8.4-0.9-13.2-2.5c3.5-7.5,6-17.1,7-27.8c2.6-2.7,5.1-5.5,7.3-8.2C288.2,529.4,292.7,539,292.7,546.4z"/>
			<circle class="st1" cx="247.7" cy="518.3" r="10.9"/>
		</g>
		<g>
			<path class="st11" d="M197.6,363.1h-55.9c-4.1,0-7.5,3.4-7.5,7.5v3.6h3.8v-3.6c0-2.1,1.7-3.8,3.8-3.8h55.9c2.1,0,3.8,1.7,3.8,3.8
				v3.6h3.8v-3.6C205.2,366.5,201.8,363.1,197.6,363.1z"/>
			<path class="st5" d="M197.6,359.3h-55.9c-6.2,0-11.3,5.1-11.3,11.3v3.6h3.8v-3.6c0-4.1,3.4-7.5,7.5-7.5h55.9
				c4.1,0,7.5,3.4,7.5,7.5v3.6h3.8v-3.6C208.9,364.4,203.9,359.3,197.6,359.3z"/>
			<g>
				<rect x="120.4" y="383.2" class="st16" width="98.6" height="62.4"/>
				<polygon class="st11" points="212.9,373.7 126.4,373.7 120.4,383.2 218.9,383.2 				"/>
				<circle class="st3" cx="169.6" cy="414.4" r="21.6"/>
				<polygon class="st5" points="182.5,409.8 174.2,409.8 174.2,401.6 165,401.6 165,409.8 156.8,409.8 156.8,419 165,419 
					165,427.3 174.2,427.3 174.2,419 182.5,419 				"/>
				<polygon class="st5" points="122.9,379.2 134.1,373.7 126.4,373.7 				"/>
				<polygon class="st5" points="216.4,379.2 205.2,373.7 212.9,373.7 				"/>
			</g>
		</g>
	</g>
</g>
</svg>
