<?xml version="1.0" encoding="UTF-8" standalone="no"?>
<svg
   xmlns:dc="http://purl.org/dc/elements/1.1/"
   xmlns:cc="http://creativecommons.org/ns#"
   xmlns:rdf="http://www.w3.org/1999/02/22-rdf-syntax-ns#"
   xmlns:svg="http://www.w3.org/2000/svg"
   xmlns="http://www.w3.org/2000/svg"
   xmlns:sodipodi="http://sodipodi.sourceforge.net/DTD/sodipodi-0.dtd"
   xmlns:inkscape="http://www.inkscape.org/namespaces/inkscape"
   width="100"
   height="40"
   viewBox="0 0 100 40"
   version="1.1"
   preserveAspectRatio="xMidYMid"
   id="svg3802"
   inkscape:version="0.91 r13725"
   sodipodi:docname="cloud_f0.svg">
  <metadata
     id="metadata3816">
    <rdf:RDF>
      <cc:Work
         rdf:about="">
        <dc:format>image/svg+xml</dc:format>
        <dc:type
           rdf:resource="http://purl.org/dc/dcmitype/StillImage" />
        <dc:title></dc:title>
      </cc:Work>
    </rdf:RDF>
  </metadata>
  <defs
     id="defs3814" />
  <sodipodi:namedview
     pagecolor="#ffffff"
     bordercolor="#666666"
     borderopacity="1"
     objecttolerance="10"
     gridtolerance="10"
     guidetolerance="10"
     inkscape:pageopacity="0"
     inkscape:pageshadow="2"
     inkscape:window-width="1280"
     inkscape:window-height="751"
     id="namedview3812"
     showgrid="false"
     showborder="true"
     inkscape:zoom="3.9496403"
     inkscape:cx="36.856219"
     inkscape:cy="27.687325"
     inkscape:window-x="0"
     inkscape:window-y="1"
     inkscape:window-maximized="1"
     inkscape:current-layer="svg3802" />
  <text
     xml:space="preserve"
     style="font-style:normal;font-weight:normal;font-size:12.5px;line-height:125%;font-family:sans-serif;letter-spacing:0px;word-spacing:0px;fill:#000000;fill-opacity:1;stroke:none;stroke-width:1px;stroke-linecap:butt;stroke-linejoin:miter;stroke-opacity:1"
     x="-135.70856"
     y="-156.47359"
     id="text4701"
     sodipodi:linespacing="125%"><tspan
       sodipodi:role="line"
       id="tspan4703"
       x="-135.70856"
       y="-156.47359" /></text>
  <text
     xml:space="preserve"
     style="font-style:normal;font-weight:normal;font-size:12.5px;line-height:125%;font-family:sans-serif;letter-spacing:0px;word-spacing:0px;fill:#000000;fill-opacity:1;stroke:none;stroke-width:1px;stroke-linecap:butt;stroke-linejoin:miter;stroke-opacity:1"
     x="159.00182"
     y="-101.27869"
     id="text4705"
     sodipodi:linespacing="125%"><tspan
       sodipodi:role="line"
       id="tspan4707"
       x="159.00182"
       y="-101.27869" /></text>
  <text
     xml:space="preserve"
     style="font-style:normal;font-weight:normal;font-size:12.5px;line-height:125%;font-family:sans-serif;letter-spacing:0px;word-spacing:0px;fill:#000000;fill-opacity:1;stroke:none;stroke-width:1px;stroke-linecap:butt;stroke-linejoin:miter;stroke-opacity:1"
     x="131.15118"
     y="-250.15302"
     id="text4709"
     sodipodi:linespacing="125%"><tspan
       sodipodi:role="line"
       id="tspan4711"
       x="131.15118"
       y="-250.15302" /></text>
  <g
     style="font-style:normal;font-weight:normal;font-size:19.41080475px;line-height:125%;font-family:sans-serif;letter-spacing:0px;word-spacing:0px;fill:#ffffff;fill-opacity:1;stroke:none;stroke-width:1px;stroke-linecap:butt;stroke-linejoin:miter;stroke-opacity:1"
     id="text4713"
     transform="matrix(1.2966906,0,0,1.2966906,-14.264699,-5.4012034)">
    <path
       d="m 6.2341227,18.326693 0,8.324552 2.8011527,0 0,-8.324552 1.9331896,0 0,-1.874011 -1.9331896,0 0,-0.611519 q 0,-0.631246 0.2367172,-0.887689 0.2564435,-0.27617 0.8285104,-0.27617 0.532613,0 1.025774,0.05918 l 0,-2.091001 q -0.355076,-0.01973 -0.729878,-0.03945 -0.374802,-0.03945 -0.7496043,-0.03945 -1.7161992,0 -2.5644356,0.867963 -0.8482364,0.867962 -0.8482364,2.229086 l 0,0.789057 -1.6767463,0 0,1.874011 1.6767463,0 z"
       style="font-style:normal;font-variant:normal;font-weight:bold;font-stretch:normal;font-size:19.41080475px;line-height:125%;font-family:'.Helvetica Neue DeskInterface';-inkscape-font-specification:'.Helvetica Neue DeskInterface, Bold';text-align:start;writing-mode:lr-tb;text-anchor:start;fill:#ffffff;fill-opacity:1"
       id="path4750"
       inkscape:connector-curvature="0" />
    <path
       d="m 12.100885,19.589184 q 0.05918,-0.986321 0.493161,-1.637293 0.433982,-0.650973 1.10468,-1.045501 0.670699,-0.394529 1.499209,-0.55234 0.848236,-0.177538 1.696472,-0.177538 0.769331,0 1.558388,0.118359 0.789057,0.09863 1.440029,0.414255 0.650973,0.315622 1.065227,0.887689 0.414255,0.55234 0.414255,1.479482 l 0,5.306409 q 0,0.690425 0.07891,1.321671 0.07891,0.631245 0.27617,0.946868 l -2.840605,0 q -0.07891,-0.236717 -0.138085,-0.473434 -0.03945,-0.256444 -0.05918,-0.512887 -0.670698,0.690425 -1.578114,0.966595 -0.907416,0.27617 -1.854284,0.27617 -0.729878,0 -1.361124,-0.177538 -0.631245,-0.177538 -1.10468,-0.55234 -0.473434,-0.374802 -0.749604,-0.946869 -0.256443,-0.572066 -0.256443,-1.361123 0,-0.867963 0.295896,-1.420303 0.315623,-0.572066 0.789057,-0.907416 0.493161,-0.335349 1.10468,-0.49316 0.631246,-0.177538 1.262491,-0.27617 0.631246,-0.09863 1.242765,-0.157812 0.61152,-0.05918 1.084954,-0.177538 0.473434,-0.118358 0.749604,-0.335349 0.27617,-0.236717 0.256444,-0.670698 0,-0.453708 -0.157812,-0.710152 -0.138085,-0.27617 -0.394528,-0.414255 -0.236717,-0.157811 -0.572067,-0.197264 -0.315622,-0.05918 -0.690425,-0.05918 -0.82851,0 -1.301944,0.355075 -0.473434,0.355076 -0.55234,1.183586 l -2.801153,0 z m 6.470269,2.071275 q -0.177538,0.157811 -0.453708,0.256443 -0.256444,0.07891 -0.572066,0.138085 -0.295897,0.05918 -0.631246,0.09863 -0.335349,0.03945 -0.670699,0.09863 -0.315623,0.05918 -0.631245,0.157811 -0.295897,0.09863 -0.532614,0.27617 -0.216991,0.157812 -0.355076,0.414255 -0.138085,0.256444 -0.138085,0.650972 0,0.374802 0.138085,0.631246 0.138085,0.256444 0.374802,0.414255 0.236718,0.138085 0.55234,0.197264 0.315623,0.05918 0.650973,0.05918 0.82851,0 1.282217,-0.27617 0.453708,-0.276169 0.670699,-0.650972 0.216991,-0.394528 0.256443,-0.789057 0.05918,-0.394528 0.05918,-0.631245 l 0,-1.045501 z"
       style="font-style:normal;font-variant:normal;font-weight:bold;font-stretch:normal;font-size:19.41080475px;line-height:125%;font-family:'.Helvetica Neue DeskInterface';-inkscape-font-specification:'.Helvetica Neue DeskInterface, Bold';text-align:start;writing-mode:lr-tb;text-anchor:start;fill:#ffffff;fill-opacity:1"
       id="path4752"
       inkscape:connector-curvature="0" />
    <path
       d="m 22.923605,24.540517 0,2.110728 9.370053,0 0,-2.110728 -5.681211,0 5.306409,-5.977107 0,-2.110728 -8.600722,0 0,2.110728 4.91188,0 -5.306409,5.977107 z"
       style="font-style:normal;font-variant:normal;font-weight:bold;font-stretch:normal;font-size:19.41080475px;line-height:125%;font-family:'.Helvetica Neue DeskInterface';-inkscape-font-specification:'.Helvetica Neue DeskInterface, Bold';text-align:start;writing-mode:lr-tb;text-anchor:start;fill:#ffffff;fill-opacity:1"
       id="path4754"
       inkscape:connector-curvature="0" />
    <path
       d="m 40.617901,20.457147 -4.556805,0 q 0.01973,-0.295897 0.118359,-0.670699 0.118358,-0.374802 0.374802,-0.710151 0.27617,-0.335349 0.710151,-0.55234 0.453708,-0.236717 1.124407,-0.236717 1.025774,0 1.518935,0.55234 0.512887,0.55234 0.710151,1.617567 z m -4.556805,1.775378 7.357958,0 q 0.0789,-1.183585 -0.197264,-2.268539 -0.27617,-1.084953 -0.907416,-1.93319 -0.611519,-0.848236 -1.578114,-1.341397 -0.966595,-0.512887 -2.26854,-0.512887 -1.163859,0 -2.130454,0.414255 -0.946868,0.414255 -1.637293,1.144133 -0.690425,0.710151 -1.065227,1.696473 -0.374802,0.986321 -0.374802,2.130454 0,1.183585 0.355075,2.169907 0.374802,0.986321 1.045501,1.696473 0.670698,0.710151 1.637293,1.10468 0.966595,0.374802 2.169907,0.374802 1.735926,0 2.958965,-0.789057 1.223038,-0.789058 1.814831,-2.623615 l -2.465804,0 q -0.138085,0.473434 -0.749604,0.907415 -0.611519,0.414255 -1.459755,0.414255 -1.183586,0 -1.814832,-0.611519 -0.631245,-0.611519 -0.690425,-1.972643 z"
       style="font-style:normal;font-variant:normal;font-weight:bold;font-stretch:normal;font-size:19.41080475px;line-height:125%;font-family:'.Helvetica Neue DeskInterface';-inkscape-font-specification:'.Helvetica Neue DeskInterface, Bold';text-align:start;writing-mode:lr-tb;text-anchor:start;fill:#ffffff;fill-opacity:1"
       id="path4756"
       inkscape:connector-curvature="0" />
    <path
       d="m 44.477194,24.205168 0,2.446077 11.87531,0 0,-2.603888 -7.752486,0 7.555222,-9.034704 0,-2.446077 -11.086253,0 0,2.603888 6.963429,0 -7.555222,9.034704 z"
       style="font-style:normal;font-variant:normal;font-weight:bold;font-stretch:normal;font-size:19.41080475px;line-height:125%;font-family:'.Helvetica Neue DeskInterface';-inkscape-font-specification:'.Helvetica Neue DeskInterface, Bold';text-align:start;writing-mode:lr-tb;text-anchor:start;fill:#ffffff;fill-opacity:1"
       id="path4758"
       inkscape:connector-curvature="0" />
    <path
       d="m 58.160863,12.566576 0,14.084669 10.691724,0 0,-2.603888 -7.594675,0 0,-3.452125 6.825344,0 0,-2.406624 -6.825344,0 0,-3.018144 7.436863,0 0,-2.603888 -10.533912,0 z"
       style="font-style:normal;font-variant:normal;font-weight:bold;font-stretch:normal;font-size:19.41080475px;line-height:125%;font-family:'.Helvetica Neue DeskInterface';-inkscape-font-specification:'.Helvetica Neue DeskInterface, Bold';text-align:start;writing-mode:lr-tb;text-anchor:start;fill:#ffffff;fill-opacity:1"
       id="path4760"
       inkscape:connector-curvature="0" />
    <path
       d="m 74.034165,18.938212 0,-3.965012 3.392945,0 q 1.065227,0 1.597841,0.473434 0.532613,0.453708 0.532613,1.479482 0,1.065227 -0.532613,1.538662 -0.532614,0.473434 -1.597841,0.473434 l -3.392945,0 z m -3.097049,-6.371636 0,14.084669 3.097049,0 0,-5.503673 3.097049,0 q 1.163859,0 1.676746,0.512887 0.512887,0.512887 0.670699,1.617567 0.118358,0.848236 0.177538,1.775378 0.05918,0.927143 0.315622,1.597841 l 3.09705,0 q -0.216991,-0.295896 -0.33535,-0.710151 -0.09863,-0.433982 -0.157811,-0.907416 -0.03945,-0.473434 -0.05918,-0.927142 -0.01973,-0.453708 -0.03945,-0.789057 -0.03945,-0.532614 -0.157812,-1.065227 -0.09863,-0.532614 -0.335349,-0.966595 -0.236717,-0.453708 -0.611519,-0.769331 -0.374802,-0.335349 -0.946869,-0.493161 l 0,-0.03945 q 1.183586,-0.473435 1.696473,-1.38085 0.532614,-0.907416 0.532614,-2.150181 0,-0.808783 -0.295897,-1.499208 -0.27617,-0.710152 -0.82851,-1.242765 -0.532613,-0.532614 -1.301944,-0.82851 -0.749604,-0.315623 -1.696473,-0.315623 l -7.594674,0 z"
       style="font-style:normal;font-variant:normal;font-weight:bold;font-stretch:normal;font-size:19.41080475px;line-height:125%;font-family:'.Helvetica Neue DeskInterface';-inkscape-font-specification:'.Helvetica Neue DeskInterface, Bold';text-align:start;writing-mode:lr-tb;text-anchor:start;fill:#ffffff;fill-opacity:1"
       id="path4762"
       inkscape:connector-curvature="0" />
    <path
       d="m 87.677452,19.66809 q 0,-0.927142 0.197264,-1.795105 0.216991,-0.867963 0.670699,-1.538662 0.453708,-0.690424 1.183585,-1.084953 0.729878,-0.414255 1.775379,-0.414255 1.045501,0 1.775378,0.414255 0.729878,0.394529 1.183586,1.084953 0.453708,0.670699 0.650972,1.538662 0.216991,0.867963 0.216991,1.795105 0,0.887689 -0.216991,1.735925 -0.197264,0.82851 -0.650972,1.499209 -0.453708,0.670698 -1.183586,1.084953 -0.729877,0.394529 -1.775378,0.394529 -1.045501,0 -1.775379,-0.394529 -0.729877,-0.414255 -1.183585,-1.084953 -0.453708,-0.670699 -0.670699,-1.499209 -0.197264,-0.848236 -0.197264,-1.735925 z m -3.097049,0 q 0,1.538661 0.473434,2.880058 0.473434,1.321671 1.361124,2.307992 0.887689,0.986322 2.169907,1.558388 1.301944,0.55234 2.919511,0.55234 1.637293,0 2.919511,-0.55234 1.282218,-0.572066 2.169907,-1.558388 0.88769,-0.986321 1.361124,-2.307992 0.473434,-1.341397 0.473434,-2.880058 0,-1.578114 -0.473434,-2.919512 -0.473434,-1.361123 -1.361124,-2.367171 -0.887689,-1.006048 -2.169907,-1.578114 -1.282218,-0.572066 -2.919511,-0.572066 -1.617567,0 -2.919511,0.572066 -1.282218,0.572066 -2.169907,1.578114 -0.88769,1.006048 -1.361124,2.367171 -0.473434,1.341398 -0.473434,2.919512 z"
       style="font-style:normal;font-variant:normal;font-weight:bold;font-stretch:normal;font-size:19.41080475px;line-height:125%;font-family:'.Helvetica Neue DeskInterface';-inkscape-font-specification:'.Helvetica Neue DeskInterface, Bold';text-align:start;writing-mode:lr-tb;text-anchor:start;fill:#ffffff;fill-opacity:1"
       id="path4764"
       inkscape:connector-curvature="0" />
  </g>
</svg>
