<?xml version="1.0" encoding="UTF-8" standalone="no"?>
<!-- Generator: Adobe Illustrator 16.0.0, SVG Export Plug-In . SVG Version: 6.00 Build 0)  -->

<svg
   xmlns:dc="http://purl.org/dc/elements/1.1/"
   xmlns:cc="http://creativecommons.org/ns#"
   xmlns:rdf="http://www.w3.org/1999/02/22-rdf-syntax-ns#"
   xmlns:svg="http://www.w3.org/2000/svg"
   xmlns="http://www.w3.org/2000/svg"
   xmlns:sodipodi="http://sodipodi.sourceforge.net/DTD/sodipodi-0.dtd"
   xmlns:inkscape="http://www.inkscape.org/namespaces/inkscape"
   version="1.1"
   id="Layer_1"
   x="0px"
   y="0px"
   width="175px"
   height="175px"
   viewBox="0 0 175 175"
   enable-background="new 0 0 175 175"
   xml:space="preserve"
   sodipodi:docname="code-fork.svg"
   inkscape:version="0.92.0 r15299"><metadata
     id="metadata31"><rdf:RDF><cc:Work
         rdf:about=""><dc:format>image/svg+xml</dc:format><dc:type
           rdf:resource="http://purl.org/dc/dcmitype/StillImage" /><dc:title></dc:title></cc:Work></rdf:RDF></metadata><defs
     id="defs29" /><sodipodi:namedview
     pagecolor="#ffffff"
     bordercolor="#666666"
     borderopacity="1"
     objecttolerance="10"
     gridtolerance="10"
     guidetolerance="10"
     inkscape:pageopacity="0"
     inkscape:pageshadow="2"
     inkscape:window-width="1600"
     inkscape:window-height="837"
     id="namedview27"
     showgrid="false"
     inkscape:zoom="1.907168"
     inkscape:cx="55.638085"
     inkscape:cy="101.47203"
     inkscape:window-x="1912"
     inkscape:window-y="-8"
     inkscape:window-maximized="1"
     inkscape:current-layer="Layer_1" /><g
     id="Ñëîé_1" /><g
     id="_xB9_Ï_xBC_h_x5F_1" /><g
     id="Layer_1_1_" /><style
     id="style4495"
     type="text/css">
	.st0{fill:#C9C9C9;}
</style><style
     type="text/css"
     id="style4495-8">
	.st0{fill:#C9C9C9;}
</style><path
     id="path8321"
     d="m 126.02467,55.691202 v 19.044166 h 11.96242 V 55.691202 c 6.95016,-2.470239 11.96242,-9.037605 11.96242,-16.843082 0,-9.910861 -8.03875,-17.943623 -17.94363,-17.943623 -9.90488,0 -17.94365,8.032762 -17.94365,17.943623 0,7.805477 5.01228,14.372843 11.96244,16.843082 z m 5.98121,-27.609256 c 5.93336,0 10.76618,4.826835 10.76618,10.766174 0,5.93934 -4.83282,10.766175 -10.76618,10.766175 -5.93336,0 -10.76617,-4.826835 -10.76617,-10.766175 0,-5.939339 4.83281,-10.766174 10.76617,-10.766174 z M 72.193779,134.54744 H 54.250156 c -6.603254,0 -11.962416,-5.36514 -11.962416,-11.96242 V 55.691202 c 6.950164,-2.470239 11.962416,-9.037605 11.962416,-16.843082 0,-9.910861 -8.032762,-17.943623 -17.943624,-17.943623 -9.910861,0 -17.943624,8.032762 -17.943624,17.943623 0,7.805477 5.012253,14.372843 11.962416,16.843082 v 66.893818 c 0,13.19455 10.736268,23.92484 23.924832,23.92484 h 17.943623 v 17.94362 L 96.118611,140.52865 72.193779,116.60382 Z M 36.306532,49.614295 c -5.933358,0 -10.766174,-4.826835 -10.766174,-10.766175 0,-5.939339 4.832816,-10.766174 10.766174,-10.766174 5.933358,0 10.766174,4.826835 10.766174,10.766174 0,5.93934 -4.832816,10.766175 -10.766174,10.766175 z M 137.98709,123.68557 V 104.6414 h -11.96242 v 19.04417 c -6.95016,2.47622 -11.96244,9.04358 -11.96244,16.84308 0,9.91086 8.03877,17.94362 17.94365,17.94362 9.90488,0 17.94363,-8.03276 17.94363,-17.94362 0,-7.80548 -5.01226,-14.37284 -11.96242,-16.84308 z m -5.98121,27.60925 c -5.93336,0 -10.76617,-4.82683 -10.76617,-10.76617 0,-5.93934 4.83281,-10.76618 10.76617,-10.76618 5.93336,0 10.76618,4.82684 10.76618,10.76618 0,5.93934 -4.83282,10.76617 -10.76618,10.76617 z m -5.98121,-70.578244 h 11.96242 v 17.943617 h -11.96242 z"
     inkscape:connector-curvature="0"
     style="stroke-width:1;fill:#0000ff" /></svg>