<?xml version="1.0" encoding="UTF-8" standalone="no"?>
<!-- Generator: Adobe Illustrator 16.0.0, SVG Export Plug-In . SVG Version: 6.00 Build 0)  -->

<svg
   xmlns:dc="http://purl.org/dc/elements/1.1/"
   xmlns:cc="http://creativecommons.org/ns#"
   xmlns:rdf="http://www.w3.org/1999/02/22-rdf-syntax-ns#"
   xmlns:svg="http://www.w3.org/2000/svg"
   xmlns="http://www.w3.org/2000/svg"
   xmlns:sodipodi="http://sodipodi.sourceforge.net/DTD/sodipodi-0.dtd"
   xmlns:inkscape="http://www.inkscape.org/namespaces/inkscape"
   version="1.1"
   id="Layer_1"
   x="0px"
   y="0px"
   width="175px"
   height="175px"
   viewBox="0 0 175 175"
   enable-background="new 0 0 175 175"
   xml:space="preserve"
   sodipodi:docname="connected.svg"
   inkscape:version="0.92.0 r15299"><metadata
     id="metadata31"><rdf:RDF><cc:Work
         rdf:about=""><dc:format>image/svg+xml</dc:format><dc:type
           rdf:resource="http://purl.org/dc/dcmitype/StillImage" /><dc:title></dc:title></cc:Work></rdf:RDF></metadata><defs
     id="defs29" /><sodipodi:namedview
     pagecolor="#ffffff"
     bordercolor="#666666"
     borderopacity="1"
     objecttolerance="10"
     gridtolerance="10"
     guidetolerance="10"
     inkscape:pageopacity="0"
     inkscape:pageshadow="2"
     inkscape:window-width="1600"
     inkscape:window-height="837"
     id="namedview27"
     showgrid="false"
     inkscape:zoom="1.907168"
     inkscape:cx="55.638085"
     inkscape:cy="101.47203"
     inkscape:window-x="1912"
     inkscape:window-y="-8"
     inkscape:window-maximized="1"
     inkscape:current-layer="Layer_1" /><g
     id="Ñëîé_1" /><g
     id="_xB9_Ï_xBC_h_x5F_1" /><g
     id="Layer_1_1_" /><style
     id="style4495"
     type="text/css">
	.st0{fill:#C9C9C9;}
</style><g
     id="g8149"
     transform="translate(5.7967251,-7.4541159)"
     style="fill:#0000ff"><g
       id="Isolation_Mode-0"
       style="fill:#0000ff" /><path
       id="path8134"
       d="m 120,75 c 0.8,0.3 1.6,0.5 2.5,0.6 0.1,0 0.3,0 0.3,0 3,0 5.8,-1.9 7,-4.6 0.8,-1.9 0.8,-3.9 0,-5.8 -0.8,-1.9 -2.3,-3.3 -4.1,-4.1 -0.8,-0.3 -1.601,-0.5 -2.5,-0.6 -0.101,0 -0.2,0 -0.3,0 -3,0 -5.801,1.9 -7,4.6 -0.7,1.7 -0.801,3.6 -0.2,5.3 l -14.1,7.9 c -2,-3.2 -4.699,-5.7 -8.1,-7.3 -2.7,-1.3 -5.7,-2 -8.7,-2 -0.8,0 -1.6,0.1 -2.5,0.2 L 76.8,46 c 1.6,-0.9 2.8,-2.3 3.4,-4 0.7,-1.9 0.6,-4 -0.3,-5.7 C 79,34.5 77.5,33.1 75.6,32.4 74.8,32.1 74,32 73.2,32 c -3.2,0 -6,2 -7.1,5 -0.7,1.9 -0.6,4 0.3,5.7 0.9,1.8 2.4,3.2 4.3,3.9 0.9,0.3 1.7,0.5 2.5,0.5 0.1,0 0.2,0 0.3,0 L 79,70 c -5.1,1.6 -9.4,5.3 -11.9,10.2 -1.1,2.2 -1.8,4.7 -2,7.2 l -21.5,1.9 c -0.1,-0.2 -0.2,-0.5 -0.3,-0.7 -0.9,-1.8 -2.4,-3.2 -4.3,-3.899 -0.9,-0.3 -1.7,-0.5 -2.5,-0.5 -3.2,0 -6,2 -7.1,5 -0.7,1.899 -0.6,4 0.3,5.7 0.9,1.8 2.4,3.199 4.3,3.899 0.9,0.3 1.7,0.5 2.5,0.5 3.2,0 6,-2 7.1,-5 0.1,-0.399 0.3,-0.899 0.4,-1.5 L 65.2,91 c 0.6,6.1 4,11.6 9.2,14.8 l -8.2,18.7 c -0.6,-0.1 -1.1,-0.2 -1.6,-0.2 -3.2,0 -6,2 -7.1,5 -0.7,1.9 -0.6,4 0.3,5.7 0.9,1.8 2.4,3.2 4.3,3.9 0.9,0.3 1.7,0.5 2.5,0.5 3.2,0 6,-2 7.1,-5 1.1,-3 0.1,-6.301 -2.2,-8.301 L 77.7,107.4 c 2.3,0.899 4.7,1.399 7.2,1.399 4.1,0 8,-1.2 11.4,-3.6 l 19.4,25.3 c -0.601,0.7 -1.2,1.6 -1.5,2.5 -0.7,1.9 -0.601,4 0.3,5.7 0.9,1.8 2.4,3.2 4.3,3.899 0.9,0.301 1.7,0.5 2.5,0.5 3.2,0 6,-2 7.101,-5 0.699,-1.899 0.6,-4 -0.301,-5.699 -0.899,-1.801 -2.399,-3.2 -4.3,-3.9 -0.899,-0.3 -1.7,-0.5 -2.5,-0.5 -0.899,0 -1.8,0.2 -2.7,0.5 l -19.5,-25.7 c 1.5,-1.5 2.801,-3.399 3.7,-5.3 2.3,-4.8 2.7,-10.2 0.9,-15 -0.101,-0.3 -0.2,-0.7 -0.3,-1 l 14.399,-8 C 118.3,74.1 119.1,74.6 120,75 Z m -59.4,55.2 c 0.6,-1.7 2.2,-2.8 4,-2.8 0.4,0 1,0.1 1.4,0.199 2.2,0.801 3.4,3.301 2.6,5.5 -0.6,1.7 -2.2,2.801 -4,2.801 -0.4,0 -1,-0.101 -1.5,-0.2 -1,-0.4 -1.9,-1.101 -2.4,-2.2 -0.5,-1.099 -0.5,-2.3 -0.1,-3.3 z M 77.3,40.8 c -0.6,1.7 -2.2,2.8 -4,2.8 h -0.1 c -0.1,0 -0.1,0 -0.2,0 -0.3,0 -0.7,-0.1 -1.2,-0.2 -1,-0.4 -1.9,-1.1 -2.4,-2.2 -0.5,-1.1 -0.5,-2.2 -0.1,-3.3 0.6,-1.7 2.2,-2.8 4,-2.8 0.4,0 1,0.1 1.5,0.2 1,0.4 1.9,1.1 2.4,2.2 0.5,1.1 0.5,2.3 0.1,3.3 z m 21.9,55 c -2.7,5.5 -8.101,8.9 -14.3,8.9 -2.4,0 -4.8,-0.5 -7,-1.601 C 70,99.2 66.8,89.7 70.6,81.9 73.3,76.4 78.7,73 84.9,73 c 2.4,0 4.8,0.5 7,1.6 3.8,1.9 6.699,5.1 8,9.1 1.4,4 1.1,8.3 -0.7,12.1 z m 23.5,35.6 c 1,0.399 1.899,1.1 2.399,2.199 0.5,1.101 0.5,2.301 0.101,3.301 -0.601,1.699 -2.2,2.8 -4,2.8 -0.4,0 -1,-0.101 -1.5,-0.2 -1,-0.4 -1.9,-1.1 -2.4,-2.2 -0.5,-1.1 -0.5,-2.2 -0.1,-3.3 0.6,-1.7 2.2,-2.8 4,-2.8 0.5,-0.1 1,0 1.5,0.2 z m -3.7,-65 c 0.7,-1.6 2.2,-2.6 4,-2.6 0.1,0 0.1,0 0.2,0 0.6,0.1 1.1,0.2 1.5,0.3 1,0.4 1.899,1.3 2.3,2.3 0.401,1 0.4,2.2 0,3.3 -0.7,1.6 -2.2,2.6 -3.9,2.6 -0.1,0 -0.1,0 -0.199,0 -0.601,-0.1 -1.101,-0.2 -1.5,-0.3 -1,-0.4 -1.9,-1.3 -2.301,-2.3 -0.6,-1.1 -0.6,-2.3 -0.1,-3.3 z M 36.6,96 c -0.4,0 -1,-0.1 -1.5,-0.2 -1,-0.399 -1.9,-1.1 -2.4,-2.2 -0.5,-1.1 -0.5,-2.3 -0.1,-3.3 0.6,-1.7 2.2,-2.8 4,-2.8 0.4,0 1,0.1 1.5,0.2 1,0.399 1.9,1.1 2.4,2.2 0.5,1 0.5,2.199 0.1,3.3 -0.6,1.7 -2.2,2.8 -4,2.8 z"
       inkscape:connector-curvature="0"
       style="fill:#0000ff" /><g
       id="_xB9_Ï_xBC_h_x5F_1-9"
       style="fill:#0000ff" /><g
       id="Layer_1_1_-8"
       style="fill:#0000ff" /></g></svg>