<svg xmlns="http://www.w3.org/2000/svg" xmlns:xlink="http://www.w3.org/1999/xlink" viewBox="0 0 113.9 75.6"><defs><path id="a" d="M26.2 0h64.1v75.6H26.2z"/></defs><clipPath id="b"><use xlink:href="#a" overflow="visible"/></clipPath><path clip-path="url(#b)" fill="none" stroke="#f7ad41" stroke-width="3.343" stroke-linecap="round" stroke-linejoin="round" stroke-miterlimit="10" d="M27.8 31.7v41l17.6-11L67.8 74l20.8-17.1V15.2L67.8 29.8 45.4 17.4z"/><path clip-path="url(#b)" fill="none" stroke="#f7ad41" stroke-width="3.343" stroke-linecap="round" stroke-linejoin="round" stroke-miterlimit="10" d="M27.8 50.9l18-11.7 22 11.7 20.8-15.1"/><path fill="none" stroke="#f7ad41" stroke-width="3.343" stroke-linecap="round" stroke-linejoin="round" stroke-miterlimit="10" d="M45.4 61.7V17.4"/><defs><path id="c" d="M26.2 0h64.1v75.6H26.2z"/></defs><clipPath id="d"><use xlink:href="#c" overflow="visible"/></clipPath><path clip-path="url(#d)" fill="none" stroke="#f7ad41" stroke-width="3.343" stroke-linecap="round" stroke-linejoin="round" stroke-miterlimit="10" d="M67.8 29.8V74"/><path d="M74.4 2.7C72.6 1 70.3 0 67.8 0S63 1 61.2 2.7c-3.6 3.6-3.6 9.6 0 13.2l6.6 6.6 6.6-6.6c3.6-3.6 3.6-9.5 0-13.2m-6.6 10.1c-1.9 0-3.5-1.6-3.5-3.5s1.6-3.5 3.5-3.5 3.5 1.6 3.5 3.5-1.6 3.5-3.5 3.5" clip-path="url(#d)" fill="#f7ad41"/></svg>