<svg xmlns="http://www.w3.org/2000/svg" xmlns:xlink="http://www.w3.org/1999/xlink" viewBox="0 0 113.9 75.6"><defs><path id="a" d="M30.3 0h55v76h-55z"/></defs><clipPath id="b"><use xlink:href="#a" overflow="visible"/></clipPath><path d="M80.1 5.3h-9.5c-.5-1.5-2-2.6-3.7-2.6h-4C61.7 1 59.8 0 57.8 0s-4 1-5.2 2.6h-4c-1.7 0-3.1 1.1-3.7 2.6h-9.5c-2.9 0-5.2 2.3-5.2 5.2v60.4c0 2.9 2.3 5.2 5.2 5.2h44.7c2.9 0 5.2-2.3 5.2-5.2V10.4c0-2.8-2.3-5.1-5.2-5.1M44.9 13c.5 1.5 2 2.6 3.7 2.6H67c1.7 0 3.1-1.1 3.7-2.6h6.9v55.3H38V13h6.9zm3.7-7.9h4.7c.4 0 .8-.2 1.1-.6.7-1.3 2-2 3.5-2s2.7.8 3.5 2c.2.4.6.6 1.1.6H67c.8 0 1.4.6 1.4 1.4v5.2c0 .8-.6 1.4-1.4 1.4H48.6c-.8 0-1.4-.6-1.4-1.4V6.5c0-.8.6-1.4 1.4-1.4m34.2 65.7c0 1.5-1.2 2.7-2.7 2.7H35.4c-1.5 0-2.7-1.2-2.7-2.7V10.4c0-1.5 1.2-2.7 2.7-2.7h9.3v2.8h-8c-.7 0-1.2.6-1.2 1.2v57.8c0 .7.6 1.2 1.2 1.2h42c.7 0 1.2-.6 1.2-1.2V11.7c0-.7-.5-1.2-1.2-1.2h-8V7.7H80c1.5 0 2.7 1.2 2.7 2.7v60.4z" clip-path="url(#b)" fill="#f7ad41"/><path d="M57.8 10.3c.7 0 1.2-.5 1.2-1.2V6.5c0-.7-.6-1.2-1.2-1.2s-1.2.6-1.2 1.2v2.6c-.1.7.5 1.2 1.2 1.2m1.3 17.1H67c.7 0 1.2-.6 1.2-1.2 0-.7-.6-1.2-1.2-1.2h-7.9c-.7 0-1.2.5-1.2 1.2s.5 1.2 1.2 1.2m0 5.3h13.1c.7 0 1.2-.5 1.2-1.2s-.6-1.2-1.2-1.2H59.1c-.7 0-1.2.6-1.2 1.2s.5 1.2 1.2 1.2m-12.7-.4c.2.2.6.4.9.4.3 0 .6-.1.9-.4l6.6-6.6c.5-.5.5-1.3 0-1.7-.5-.5-1.3-.5-1.7 0l-5.7 5.7-3.1-3.1c-.5-.5-1.3-.5-1.7 0-.5.5-.5 1.3 0 1.7l3.8 4zm12.7 8.2H67c.7 0 1.2-.6 1.2-1.2s-.6-1.2-1.2-1.2h-7.9c-.7 0-1.2.5-1.2 1.2s.5 1.2 1.2 1.2m0 5.3h13.1c.7 0 1.2-.5 1.2-1.2s-.6-1.2-1.2-1.2H59.1c-.7 0-1.2.6-1.2 1.2 0 .7.5 1.2 1.2 1.2m-12.7-.4c.2.2.6.4.9.4.3 0 .6-.1.9-.4l6.6-6.6c.5-.5.5-1.3 0-1.7-.5-.5-1.3-.5-1.7 0l-5.7 5.7-3.1-3.1c-.5-.5-1.3-.5-1.7 0-.5.5-.5 1.3 0 1.7l3.8 4zm12.7 8.3H67c.7 0 1.2-.6 1.2-1.2 0-.7-.6-1.2-1.2-1.2h-7.9c-.7 0-1.2.5-1.2 1.2 0 .6.5 1.2 1.2 1.2m0 5.2h13.1c.7 0 1.2-.5 1.2-1.2s-.6-1.2-1.2-1.2H59.1c-.7 0-1.2.6-1.2 1.2 0 .7.5 1.2 1.2 1.2m-12.7-.3c.2.2.6.4.9.4.3 0 .6-.1.9-.4l6.6-6.6c.5-.5.5-1.3 0-1.7-.5-.5-1.3-.5-1.7 0L47.3 56l-3.1-3.1c-.5-.5-1.3-.5-1.7 0-.5.5-.5 1.3 0 1.7l3.9 4z" clip-path="url(#b)" fill="#f7ad41"/></svg>