<?xml version="1.0" encoding="UTF-8" standalone="no"?>
<svg
   xmlns:dc="http://purl.org/dc/elements/1.1/"
   xmlns:cc="http://creativecommons.org/ns#"
   xmlns:rdf="http://www.w3.org/1999/02/22-rdf-syntax-ns#"
   xmlns:svg="http://www.w3.org/2000/svg"
   xmlns="http://www.w3.org/2000/svg"
   xmlns:sodipodi="http://sodipodi.sourceforge.net/DTD/sodipodi-0.dtd"
   xmlns:inkscape="http://www.inkscape.org/namespaces/inkscape"
   viewBox="0 0 621.9 240.5"
   id="svg2"
   version="1.1"
   inkscape:version="0.91 r13725"
   sodipodi:docname="f0-managed-cloud.svg">
  <metadata
     id="metadata80">
    <rdf:RDF>
      <cc:Work
         rdf:about="">
        <dc:format>image/svg+xml</dc:format>
        <dc:type
           rdf:resource="http://purl.org/dc/dcmitype/StillImage" />
        <dc:title></dc:title>
      </cc:Work>
    </rdf:RDF>
  </metadata>
  <defs
     id="defs78" />
  <sodipodi:namedview
     pagecolor="#ffffff"
     bordercolor="#666666"
     borderopacity="1"
     objecttolerance="10"
     gridtolerance="10"
     guidetolerance="10"
     inkscape:pageopacity="0"
     inkscape:pageshadow="2"
     inkscape:window-width="1280"
     inkscape:window-height="751"
     id="namedview76"
     showgrid="false"
     inkscape:zoom="0.99694481"
     inkscape:cx="352.57719"
     inkscape:cy="185.4492"
     inkscape:window-x="0"
     inkscape:window-y="1"
     inkscape:window-maximized="1"
     inkscape:current-layer="svg2" />
  <path
     fill="none"
     stroke="#fbb615"
     stroke-width="2"
     stroke-linecap="round"
     stroke-miterlimit="10"
     stroke-dasharray="7"
     d="M379.1 109.2h59m-87.7 44.6v45.3m-281.4 0v-16.7h213.4v-28.6"
     id="path4" />
  <path
     fill="none"
     stroke="#fbb615"
     stroke-width="2"
     stroke-linecap="round"
     stroke-miterlimit="10"
     stroke-dasharray="7"
     d="M223.3 153.8v9.1H7.4v-44.4m168.7-40.9c29.1 1.3-144.7 0-144.7 0V17.1m412.3.7v54.3h-93.4"
     id="path6" />
  <path
     d="M345.6 67h-.1c-1.9-30.3-27.2-54.4-58-54.4-28.5 0-52.1 20.4-57.1 47.4-.6 0-1.3-.1-2-.1-21.2 0-39.1 14-44.9 33.3-.9-.1-1.8-.1-2.7-.1-16.7 0-30.3 13.6-30.3 30.3 0 16.8 13.6 30.3 30.3 30.3h164.8c24 0 43.4-19.4 43.4-43.4 0-23.9-19.4-43.3-43.4-43.3z"
     id="path8"
     fill="#31c4ee"
     style="fill:#5599ff" />
  <path
     d="M55.4 10.5v.6l-6.2 3.2v-1c0-.1 0-.2.1-.2 0-.1.1-.1.2-.2l3.6-1.8c.1-.1.2-.1.3-.1.1 0 .2-.1.4-.1-.3-.1-.5-.1-.7-.3l-3.6-1.8c-.1-.1-.2-.1-.2-.2s-.1-.1-.1-.2v-1l6.2 3.1z"
     fill="#00b7d3"
     id="path10" />
  <path
     d="M71.1 9.5c0 .1-.1.1-.1.1h-.2c-.1 0-.2 0-.3-.1s-.2-.1-.4-.2c-.1-.1-.3-.2-.5-.2s-.5-.1-.8-.1c-.4 0-.8.1-1.1.2s-.6.3-.8.6c-.2.3-.4.6-.5 1s-.2.8-.2 1.3.1.9.2 1.3.3.7.5 1 .5.5.8.6.6.2 1 .2c.3 0 .6 0 .9-.1l.6-.3c.1-.1.3-.2.4-.3s.2-.1.3-.1c.1 0 .2 0 .3.1l.4.5-.6.6c-.2.2-.5.3-.7.4s-.5.2-.8.2c-.3 0-.6.1-.9.1-.5 0-1-.1-1.4-.3-.4-.2-.8-.5-1.1-.8s-.6-.8-.8-1.3-.3-1.1-.3-1.7c0-.6.1-1.2.3-1.7.2-.5.4-1 .7-1.3.3-.4.7-.7 1.2-.9.5-.2 1-.3 1.6-.3.6 0 1.1.1 1.5.3.4.2.8.4 1.2.8l-.4.4zm3.5-5.1v11.9h-1.4V4.4h1.4zm9.1 3.7v8.2h-.9c-.2 0-.3-.1-.4-.3l-.1-.9c-.4.4-.8.7-1.2.9s-.9.4-1.5.4c-.4 0-.8-.1-1.2-.2-.3-.1-.6-.4-.9-.6-.2-.3-.4-.6-.5-1-.1-.4-.2-.8-.2-1.3V8.1h1.4v5.2c0 .6.1 1.1.4 1.4.3.3.7.5 1.3.5.4 0 .8-.1 1.2-.3.4-.2.7-.5 1-.8v-6h1.6zm7 1.3c-.1.1-.2.2-.3.2-.1 0-.2 0-.3-.1-.1-.1-.2-.1-.4-.2-.1-.1-.3-.1-.5-.2s-.4-.1-.7-.1c-.2 0-.5 0-.7.1-.2.1-.4.1-.5.3-.1.1-.2.2-.3.4-.1.1-.1.3-.1.5s.1.4.2.5c.1.1.3.3.5.4s.4.2.7.3c.3.1.5.2.8.2.3.1.5.2.8.3.3.1.5.2.7.4.2.2.4.4.5.6.1.2.2.5.2.8 0 .4-.1.7-.2 1-.1.3-.3.6-.6.8-.3.2-.6.4-1 .6-.4.1-.8.2-1.3.2-.6 0-1.1-.1-1.5-.3-.5-.2-.9-.4-1.2-.7l.3-.5c0-.1.1-.1.2-.2.1 0 .1-.1.2-.1s.2 0 .3.1c.1.1.2.2.4.3s.3.2.6.3c.2.1.5.1.8.1.3 0 .5 0 .7-.1.2-.1.4-.2.5-.3.1-.1.2-.3.3-.4s.1-.3.1-.5-.1-.4-.2-.6c-.1-.1-.3-.3-.5-.4-.2-.1-.4-.2-.7-.3-.3-.1-.5-.2-.8-.2-.3-.1-.5-.2-.8-.3-.3-.1-.5-.2-.7-.4-.2-.2-.4-.4-.5-.6-.1-.2-.2-.5-.2-.9 0-.3.1-.6.2-.9.1-.3.3-.5.6-.8s.6-.4.9-.5c.4-.2.8-.3 1.3-.3s1 .1 1.4.3c.4.2.8.4 1.1.7l-.3.5zm4.7 7c-.6 0-1.1-.2-1.5-.5s-.5-.9-.5-1.6v-5h-1c-.1 0-.2 0-.2-.1-.1-.1-.1-.1-.1-.2v-.6l1.3-.2.3-2.5c0-.1.1-.1.1-.2s.1-.1.2-.1h.7v2.8h2.4v1h-2.4v4.9c0 .3.1.6.3.8s.4.3.6.3c.2 0 .3 0 .4-.1s.2-.1.3-.1c.1 0 .1-.1.2-.1s.1-.1.1-.1c.1 0 .1 0 .2.1l.4.7c-.2.2-.5.4-.9.5-.1.2-.5.3-.9.3zm9.9-1.3l-.6.6c-.2.2-.5.3-.8.4-.3.1-.6.2-.9.2-.3.1-.6.1-.9.1-.6 0-1.1-.1-1.6-.3-.5-.2-.9-.5-1.2-.8s-.6-.8-.8-1.4-.3-1.2-.3-1.9c0-.6.1-1.1.3-1.6.2-.5.4-.9.8-1.3.3-.4.7-.6 1.2-.9.5-.2 1-.3 1.6-.3.5 0 .9.1 1.4.2.4.2.8.4 1.1.7.3.3.5.7.7 1.1.2.5.3 1 .3 1.6 0 .2 0 .4-.1.5 0 .1-.1.1-.3.1h-5.5c0 .5.1 1 .2 1.3.1.4.3.7.5 1 .2.3.5.4.8.6s.7.2 1 .2c.4 0 .7 0 .9-.1s.5-.2.7-.3.3-.2.5-.3.2-.1.3-.1c.1 0 .2 0 .3.1l.4.6zm-1.2-3.8c0-.3 0-.6-.1-.9-.1-.3-.2-.5-.4-.7-.2-.2-.4-.4-.7-.5s-.5-.2-.9-.2c-.7 0-1.2.2-1.6.6s-.6 1-.7 1.7h4.4zm4.4-1.6c.3-.6.6-1 1-1.3s.8-.5 1.4-.5c.2 0 .3 0 .5.1.2 0 .3.1.4.2l-.1 1.1c0 .1-.1.2-.2.2h-.8c-.3 0-.5 0-.7.1s-.4.2-.5.3c-.2.1-.3.3-.4.5-.1.2-.2.5-.3.7v5.2h-1.4V8.1h.8c.2 0 .3 0 .3.1.1.1.1.2.1.3l-.1 1.2zm13.1-.3c-.1.1-.2.2-.3.2-.1 0-.2 0-.3-.1-.1-.1-.2-.1-.4-.2-.1-.1-.3-.1-.5-.2s-.4-.1-.7-.1c-.2 0-.5 0-.7.1-.2.1-.4.1-.5.3-.1.1-.2.2-.3.4-.1.1-.1.3-.1.5s.1.4.2.5c.1.1.3.3.5.4s.4.2.7.3c.3.1.5.2.8.2.3.1.5.2.8.3.3.1.5.2.7.4.2.2.4.4.5.6.1.2.2.5.2.8 0 .4-.1.7-.2 1-.1.3-.3.6-.6.8-.3.2-.6.4-1 .6-.4.1-.8.2-1.3.2-.6 0-1.1-.1-1.5-.3-.5-.2-.9-.4-1.2-.7l.3-.5c0-.1.1-.1.2-.2.1 0 .1-.1.2-.1s.2 0 .3.1c.1.1.2.2.4.3s.3.2.6.3c.2.1.5.1.8.1.3 0 .5 0 .7-.1.2-.1.4-.2.5-.3.1-.1.2-.3.3-.4s.1-.3.1-.5-.1-.4-.2-.6c-.1-.1-.3-.3-.5-.4-.2-.1-.4-.2-.7-.3-.3-.1-.5-.2-.8-.2-.3-.1-.5-.2-.8-.3-.3-.1-.5-.2-.7-.4-.2-.2-.4-.4-.5-.6-.1-.2-.2-.5-.2-.9 0-.3.1-.6.2-.9.1-.3.3-.5.6-.8s.6-.4.9-.5c.4-.1.8-.2 1.2-.2.5 0 1 .1 1.4.3.4.2.8.4 1.1.7l-.2.4zm8.8 5.7l-.6.6c-.2.2-.5.3-.8.4-.3.1-.6.2-.9.2-.3.1-.6.1-.9.1-.6 0-1.1-.1-1.6-.3-.5-.2-.9-.5-1.2-.8s-.6-.8-.8-1.4-.3-1.2-.3-1.9c0-.6.1-1.1.3-1.6.2-.5.4-.9.8-1.3.3-.4.7-.6 1.2-.9.5-.2 1-.3 1.6-.3.5 0 .9.1 1.4.2.4.2.8.4 1.1.7.3.3.5.7.7 1.1.2.5.3 1 .3 1.6 0 .2 0 .4-.1.5 0 .1-.1.1-.3.1h-5.5c0 .5.1 1 .2 1.3.1.4.3.7.5 1 .2.3.5.4.8.6s.7.2 1 .2c.4 0 .7 0 .9-.1s.5-.2.7-.3.3-.2.5-.3.2-.1.3-.1c.1 0 .2 0 .3.1l.4.6zm-1.1-3.8c0-.3 0-.6-.1-.9-.1-.3-.2-.5-.4-.7-.2-.2-.4-.4-.7-.5-.3-.1-.6-.2-.9-.2-.7 0-1.2.2-1.6.6s-.6 1-.7 1.7h4.4zm5.5 5.1c-.6 0-1.1-.2-1.5-.5s-.5-.9-.5-1.6v-5h-1c-.1 0-.2 0-.2-.1-.1-.1-.1-.1-.1-.2v-.6l1.3-.2.3-2.5c0-.1.1-.1.1-.2s.1-.1.2-.1h.7v2.8h2.4v1h-2.4v4.9c0 .3.1.6.3.8s.4.3.6.3c.2 0 .3 0 .4-.1s.2-.1.3-.1c.1 0 .1-.1.2-.1s.1-.1.1-.1c.1 0 .1 0 .2.1l.4.7c-.2.2-.5.4-.9.5-.2.2-.6.3-.9.3zm10-8.3v8.2h-.9c-.2 0-.3-.1-.4-.3l-.1-.9c-.4.4-.8.7-1.2.9s-.9.4-1.5.4c-.4 0-.8-.1-1.2-.2-.3-.1-.6-.4-.9-.6-.2-.3-.4-.6-.5-1-.1-.4-.2-.8-.2-1.3V8.1h1.4v5.2c0 .6.1 1.1.4 1.4.3.3.7.5 1.3.5.4 0 .8-.1 1.2-.3.4-.2.7-.5 1-.8v-6h1.6zm3.6 1.2c.3-.4.7-.8 1.2-1s1-.4 1.5-.4.9.1 1.3.3c.4.2.7.4 1 .8.3.4.5.8.6 1.3.1.5.2 1.1.2 1.8 0 .6-.1 1.2-.2 1.7-.2.5-.4 1-.7 1.3s-.7.7-1.1.9c-.4.2-.9.3-1.5.3-.5 0-.9-.1-1.3-.3-.4-.2-.7-.4-.9-.7V19H147V8.1h.9c.2 0 .3.1.4.3l.1.9zm.1 5c.3.4.6.6.9.7.3.1.7.2 1 .2.8 0 1.3-.3 1.8-.8.4-.5.6-1.3.6-2.3 0-.5 0-1-.1-1.4-.1-.4-.2-.7-.4-.9-.2-.2-.4-.4-.7-.5s-.6-.2-.9-.2c-.5 0-.9.1-1.2.3-.4.2-.7.5-1 .9v4zM64.8 31.2c.5-.4.9-.8 1.5-1 .5-.2 1.1-.3 1.7-.3.5 0 .9.1 1.2.2s.7.4.9.6c.2.3.4.6.5 1 .1.4.2.8.2 1.3v5.2h-.6c-.1 0-.2 0-.3-.1s-.1-.1-.2-.3l-.2-.8c-.2.2-.4.4-.6.5-.2.2-.4.3-.6.4-.2.1-.5.2-.7.2-.3.1-.5.1-.9.1-.3 0-.6 0-.9-.1s-.5-.2-.7-.4c-.2-.2-.4-.4-.5-.7s-.2-.6-.2-1c0-.3.1-.6.3-.9s.5-.6.9-.8c.4-.2.9-.4 1.6-.6.6-.1 1.4-.2 2.4-.3V33c0-.6-.1-1.1-.4-1.4s-.7-.5-1.2-.5c-.4 0-.7 0-.9.1l-.6.3c-.2.1-.3.2-.5.3s-.4.2-.5.2c-.1 0-.2 0-.3-.1l-.2-.2-.2-.5zm4.7 3.4c-.7 0-1.2.1-1.7.2s-.8.2-1.1.3-.5.3-.6.5c-.1.2-.2.4-.2.6 0 .2 0 .4.1.6.1.2.2.3.3.4.1.1.3.2.4.2s.3.1.5.1c.3 0 .5 0 .7-.1.2-.1.4-.1.6-.2.2-.1.4-.2.5-.3.2-.1.3-.3.5-.5v-1.8zm4.9-3.3c.2-.2.4-.4.6-.5.2-.2.4-.3.6-.4.2-.1.5-.2.7-.3.3-.1.5-.1.8-.1.4 0 .8.1 1.2.2.3.1.6.4.9.6.2.3.4.6.5 1 .1.4.2.8.2 1.3v5.2h-1.4V33c0-.6-.1-1.1-.4-1.4-.3-.3-.7-.5-1.3-.5-.4 0-.8.1-1.2.3-.4.2-.7.5-1 .8v6H73V30h.9c.2 0 .3.1.4.3l.1 1zm14.4-4.9v11.9h-.9c-.2 0-.3-.1-.4-.3l-.1-1c-.3.4-.7.8-1.2 1-.4.3-1 .4-1.5.4s-.9-.1-1.3-.3c-.4-.2-.7-.4-1-.8-.3-.3-.5-.8-.6-1.3-.1-.5-.2-1.1-.2-1.8 0-.6.1-1.2.2-1.7.2-.5.4-1 .7-1.3.3-.4.7-.7 1.1-.9.4-.2.9-.3 1.5-.3.5 0 .9.1 1.3.3s.7.4 1 .7v-4.5h1.4zM87.4 32c-.3-.4-.6-.6-.9-.8s-.7-.2-1-.2c-.8 0-1.3.3-1.8.8s-.6 1.3-.6 2.3c0 .5 0 1 .1 1.4.1.4.2.7.4.9.2.2.4.4.7.5.3.1.6.2.9.2.5 0 .9-.1 1.2-.3.4-.2.7-.5 1-.9V32zm13.5-.5c0 .1-.1.1-.1.1h-.2c-.1 0-.2 0-.3-.1s-.2-.1-.4-.2c-.1-.1-.3-.2-.5-.2s-.5-.1-.8-.1c-.4 0-.8.1-1.1.2s-.6.3-.8.6c-.2.3-.4.6-.5 1s-.2.8-.2 1.3.1.9.2 1.3.3.7.5 1 .5.5.8.6.6.2 1 .2c.3 0 .6 0 .9-.1l.6-.3c.1-.1.3-.2.4-.3s.2-.1.3-.1c.1 0 .2 0 .3.1l.4.5-.6.6c-.2.2-.5.3-.7.4s-.5.2-.8.2c-.3 0-.6.1-.9.1-.5 0-1-.1-1.4-.3-.4-.2-.8-.5-1.1-.8s-.6-.8-.8-1.3-.3-1.1-.3-1.8c0-.6.1-1.2.3-1.7.2-.5.4-1 .7-1.3.3-.4.7-.7 1.2-.9.5-.2 1-.3 1.6-.3.6 0 1.1.1 1.5.3.4.2.8.4 1.2.8l-.4.5zm5.3-1.6c.6 0 1.1.1 1.6.3s.9.5 1.2.8c.3.4.6.8.8 1.3.2.5.3 1.1.3 1.7 0 .6-.1 1.2-.3 1.7-.2.5-.4 1-.8 1.3-.3.4-.7.6-1.2.8s-1 .3-1.6.3c-.6 0-1.1-.1-1.6-.3-.5-.2-.9-.5-1.2-.8-.3-.4-.6-.8-.8-1.3-.2-.5-.3-1.1-.3-1.7 0-.6.1-1.2.3-1.7s.4-1 .8-1.3c.3-.4.7-.6 1.2-.8.5-.2 1-.3 1.6-.3zm0 7.3c.8 0 1.4-.3 1.8-.8.4-.5.6-1.3.6-2.3 0-1-.2-1.7-.6-2.3s-1-.8-1.8-.8c-.4 0-.8.1-1.1.2s-.6.3-.8.6c-.2.3-.4.6-.5 1-.1.4-.1.8-.1 1.3 0 1 .2 1.7.6 2.3.5.6 1.1.8 1.9.8zm7.1-5.9c.2-.2.4-.4.6-.5.2-.2.4-.3.6-.4.2-.1.5-.2.7-.3.3-.1.5-.1.8-.1.4 0 .8.1 1.2.2.3.1.6.4.9.6.2.3.4.6.5 1 .1.4.2.8.2 1.3v5.2h-1.4V33c0-.6-.1-1.1-.4-1.4-.3-.3-.7-.5-1.3-.5-.4 0-.8.1-1.2.3-.4.2-.7.5-1 .8v6h-1.4V30h.9c.2 0 .3.1.4.3l-.1 1zm8 6.9v-6.9l-.9-.1c-.1 0-.2-.1-.3-.1-.1-.1-.1-.1-.1-.2v-.6h1.3v-.5c0-.5.1-1 .2-1.4.2-.4.4-.8.7-1.1s.7-.5 1.2-.7c.5-.2 1-.3 1.6-.3h.6c.2 0 .4.1.6.1l-.1.8c0 .1 0 .1-.1.1h-.6c-1 0-1.7.2-2.1.6-.4.4-.6 1-.6 1.8v.4h4.9v8h-1.4v-7h-3.5v7h-1.4zm15.6-7.8v.5c0 .2-.1.3-.3.3l-.9.1c.2.4.3.7.3 1.2 0 .4-.1.8-.2 1.1-.2.3-.4.6-.6.8-.3.2-.6.4-1 .5s-.8.2-1.2.2c-.4 0-.7 0-1.1-.1-.2.1-.3.2-.4.3-.1.1-.1.2-.1.4s.1.3.2.4c.2.1.4.2.6.2s.6.1.9.1c.3 0 .7 0 1 .1s.7.1 1 .1l.9.3c.3.1.5.3.6.6.2.2.2.5.2.9 0 .3-.1.7-.3 1-.2.3-.4.6-.8.9-.3.3-.7.5-1.2.6-.5.2-1 .2-1.6.2-.6 0-1.1-.1-1.6-.2-.4-.1-.8-.3-1.1-.5-.3-.2-.5-.4-.7-.7-.1-.3-.2-.5-.2-.8 0-.4.1-.7.4-1 .3-.3.6-.5 1-.7-.2-.1-.4-.3-.6-.4-.1-.2-.2-.4-.2-.7 0-.1 0-.2.1-.4s.1-.3.2-.4.2-.2.3-.4c.1-.1.3-.2.5-.3-.4-.2-.7-.5-.9-.9-.2-.4-.3-.8-.3-1.3 0-.4.1-.8.2-1.1s.4-.6.6-.8c.3-.2.6-.4 1-.5.4-.1.8-.2 1.2-.2.4 0 .7 0 1 .1.3.1.6.2.8.3h2.3zm-1.5 8.3c0-.2-.1-.4-.2-.5-.1-.1-.3-.2-.5-.3-.2-.1-.4-.1-.7-.1s-.5-.1-.8-.1h-.9c-.3 0-.6 0-.8-.1-.3.1-.5.3-.7.5-.2.2-.3.5-.3.7 0 .2 0 .4.1.5s.2.3.4.4.4.2.7.3.6.1 1 .1.7 0 1-.1c.3-.1.6-.2.8-.3s.4-.3.5-.5c.4-.1.4-.3.4-.5zm-2.6-4.4c.3 0 .5 0 .8-.1l.6-.3c.2-.1.3-.3.3-.5.1-.2.1-.4.1-.7 0-.5-.2-.9-.5-1.2s-.7-.4-1.3-.4c-.6 0-1 .1-1.3.4s-.5.7-.5 1.2c0 .2 0 .5.1.7.1.2.2.4.3.5.2.1.3.3.6.3s.5.1.8.1zm12.3-4.2v8.2h-.9c-.2 0-.3-.1-.4-.3l-.1-.9c-.4.4-.8.7-1.2.9s-.9.4-1.5.4c-.4 0-.8-.1-1.2-.2-.3-.1-.6-.4-.9-.6-.2-.3-.4-.6-.5-1-.1-.4-.2-.8-.2-1.3v-5.2h1.4v5.2c0 .6.1 1.1.4 1.4.3.3.7.5 1.3.5.4 0 .8-.1 1.2-.3.4-.2.7-.5 1-.8v-6h1.6zm3.6 1.6c.3-.6.6-1 1-1.3s.8-.5 1.4-.5c.2 0 .3 0 .5.1.2 0 .3.1.4.2l-.1 1.1c0 .1-.1.2-.2.2h-.8c-.3 0-.5 0-.7.1s-.4.2-.5.3c-.2.1-.3.3-.4.5-.1.2-.2.5-.3.7v5.2h-1.4v-8.2h.8c.2 0 .3 0 .3.1.1.1.1.2.1.3l-.1 1.2zm4.2-.5c.5-.4.9-.8 1.5-1 .5-.2 1.1-.3 1.7-.3.5 0 .9.1 1.2.2s.7.4.9.6c.2.3.4.6.5 1 .1.4.2.8.2 1.3v5.2h-.6c-.1 0-.2 0-.3-.1s-.1-.1-.2-.3l-.2-.8c-.2.2-.4.4-.6.5-.2.2-.4.3-.6.4-.2.1-.5.2-.7.2-.3.1-.5.1-.9.1-.3 0-.6 0-.9-.1s-.5-.2-.7-.4c-.2-.2-.4-.4-.5-.7s-.2-.6-.2-1c0-.3.1-.6.3-.9s.5-.6.9-.8c.4-.2.9-.4 1.6-.6.6-.1 1.4-.2 2.4-.3V33c0-.6-.1-1.1-.4-1.4s-.7-.5-1.2-.5c-.4 0-.7 0-.9.1l-.6.3c-.2.1-.3.2-.5.3s-.3.1-.4.1c-.1 0-.2 0-.3-.1l-.2-.2-.3-.4zm4.6 3.4c-.7 0-1.2.1-1.7.2s-.8.2-1.1.3-.5.3-.6.5c-.1.2-.2.4-.2.6 0 .2 0 .4.1.6.1.2.2.3.3.4.1.1.3.2.4.2s.3.1.5.1c.3 0 .5 0 .7-.1.2-.1.4-.1.6-.2.2-.1.4-.2.5-.3.2-.1.3-.3.5-.5v-1.8zm11.1 3.6h-1.4v-7H163v4.9c0 .3.1.6.3.8s.4.3.6.3c.2 0 .3 0 .4-.1s.2-.1.3-.1c.1 0 .1-.1.2-.1s.1-.1.1-.1c.1 0 .1 0 .2.1l.4.7c-.2.2-.5.4-.9.5-.3.1-.7.2-1.1.2-.6 0-1.1-.2-1.5-.5s-.5-.9-.5-1.6v-5h-1c-.1 0-.2 0-.2-.1-.1-.1-.1-.1-.1-.2v-.6l1.3-.2.3-2.5c0-.1.1-.1.1-.2s.1-.1.2-.1h.7v2.8h5.6v8.1zm.3-10.7c0 .1 0 .3-.1.4-.1.1-.1.2-.2.3-.1.1-.2.2-.3.2-.1.1-.3.1-.4.1s-.3 0-.4-.1-.2-.1-.3-.2c-.1-.1-.2-.2-.2-.3s-.1-.3-.1-.4 0-.3.1-.4.1-.2.2-.3c.1-.1.2-.2.3-.2s.3-.1.4-.1.3 0 .4.1c.1.1.2.1.3.2.1.1.2.2.2.3.1.1.1.2.1.4zm5.5 2.4c.6 0 1.1.1 1.6.3s.9.5 1.2.8c.3.4.6.8.8 1.3.2.5.3 1.1.3 1.7 0 .6-.1 1.2-.3 1.7-.2.5-.4 1-.8 1.3-.3.4-.7.6-1.2.8s-1 .3-1.6.3c-.6 0-1.1-.1-1.6-.3-.5-.2-.9-.5-1.2-.8-.3-.4-.6-.8-.8-1.3-.2-.5-.3-1.1-.3-1.7 0-.6.1-1.2.3-1.7s.4-1 .8-1.3c.3-.4.7-.6 1.2-.8.4-.2 1-.3 1.6-.3zm0 7.3c.8 0 1.4-.3 1.8-.8.4-.5.6-1.3.6-2.3 0-1-.2-1.7-.6-2.3s-1-.8-1.8-.8c-.4 0-.8.1-1.1.2s-.6.3-.8.6c-.2.3-.4.6-.5 1-.1.4-.1.8-.1 1.3 0 1 .2 1.7.6 2.3.5.6 1.1.8 1.9.8zm7-5.9c.2-.2.4-.4.6-.5.2-.2.4-.3.6-.4.2-.1.5-.2.7-.3.3-.1.5-.1.8-.1.4 0 .8.1 1.2.2.3.1.6.4.9.6.2.3.4.6.5 1 .1.4.2.8.2 1.3v5.2h-1.4V33c0-.6-.1-1.1-.4-1.4-.3-.3-.7-.5-1.3-.5-.4 0-.8.1-1.2.3-.4.2-.7.5-1 .8v6h-1.4V30h.9c.2 0 .3.1.4.3l-.1 1zM198 37c.5 0 .9-.1 1.3-.2.4-.2.7-.4 1-.7.3-.3.5-.6.6-1 .1-.4.2-.8.2-1.3v-7h1.6v7c0 .7-.1 1.3-.3 1.9-.2.6-.5 1.1-.9 1.5-.4.4-.9.7-1.4 1-.6.2-1.2.4-1.9.4s-1.3-.1-1.9-.4-1.1-.6-1.5-1c-.4-.4-.7-.9-.9-1.5-.2-.6-.3-1.2-.3-1.9v-7h1.6v7c0 .5.1.9.2 1.3s.3.8.6 1c.3.3.6.5 1 .7s.5.2 1 .2zm9 1.2h-1.6V26.7h1.6v11.5z"
     fill="#454545"
     id="path12" />
  <path
     d="M468 8.1v.6l-6.2 3.2v-1c0-.1 0-.2.1-.2 0-.1.1-.1.2-.2l3.6-1.8c.1-.1.2-.1.3-.1.1 0 .2-.1.4-.1-.3-.1-.5-.1-.7-.3l-3.6-1.8c-.1-.1-.2-.1-.2-.2s-.1-.1-.1-.2V5l6.2 3.1z"
     fill="#00b7d3"
     id="path14" />
  <path
     d="M478.1 6.8c.5-.4.9-.8 1.5-1 .5-.2 1.1-.3 1.7-.3.5 0 .9.1 1.2.2s.7.4.9.6c.2.3.4.6.5 1 .1.4.2.8.2 1.3v5.2h-.6c-.1 0-.2 0-.3-.1s-.1-.1-.2-.3l-.2-.8c-.2.2-.4.4-.6.5-.2.2-.4.3-.6.4-.2.1-.5.2-.7.2-.3.1-.5.1-.9.1-.3 0-.6 0-.9-.1s-.5-.2-.7-.4c-.2-.2-.4-.4-.5-.7s-.2-.6-.2-1c0-.3.1-.6.3-.9s.5-.6.9-.8c.4-.2.9-.4 1.6-.6.6-.1 1.4-.2 2.4-.3v-.4c0-.6-.1-1.1-.4-1.4s-.7-.5-1.2-.5c-.4 0-.7 0-.9.1l-.6.3c-.2.1-.3.2-.5.3s-.3.1-.4.1c-.1 0-.2 0-.3-.1l-.2-.2-.3-.4zm4.7 3.4c-.7 0-1.2.1-1.7.2s-.8.2-1.1.3-.5.3-.6.5c-.1.2-.2.4-.2.6 0 .2 0 .4.1.6.1.2.2.3.3.4.1.1.3.2.4.2s.3.1.5.1c.3 0 .5 0 .7-.1.2-.1.4-.1.6-.2.2-.1.4-.2.5-.3.2-.1.3-.3.5-.5v-1.8zm10.3-4.5v8.2h-.9c-.2 0-.3-.1-.4-.3l-.1-.9c-.4.4-.8.7-1.2.9s-.9.4-1.5.4c-.4 0-.8-.1-1.2-.2-.3-.1-.6-.4-.9-.6-.2-.3-.4-.6-.5-1-.1-.4-.2-.8-.2-1.3V5.7h1.4v5.2c0 .6.1 1.1.4 1.4.3.3.7.5 1.3.5.4 0 .8-.1 1.2-.3.4-.2.7-.5 1-.8v-6h1.6zm4.8 8.3c-.6 0-1.1-.2-1.5-.5s-.5-.9-.5-1.6v-5h-1c-.1 0-.2 0-.2-.1-.1-.1-.1-.1-.1-.2V6l1.3-.2.3-2.5c0-.1.1-.1.1-.2s.1-.1.2-.1h.7v2.8h2.4v1h-2.4v4.9c0 .3.1.6.3.8s.4.3.6.3c.2 0 .3 0 .4-.1s.2-.1.3-.1c.1 0 .1-.1.2-.1s.1-.1.1-.1c.1 0 .1 0 .2.1l.4.7c-.2.2-.5.4-.9.5-.2.2-.6.3-.9.3zm6.6-8.5c.6 0 1.1.1 1.6.3s.9.5 1.2.8c.3.4.6.8.8 1.3.2.5.3 1.1.3 1.7 0 .6-.1 1.2-.3 1.7-.2.5-.4 1-.8 1.3-.3.4-.7.6-1.2.8s-1 .3-1.6.3c-.6 0-1.1-.1-1.6-.3-.5-.2-.9-.5-1.2-.8-.3-.4-.6-.8-.8-1.3-.2-.5-.3-1.1-.3-1.7 0-.6.1-1.2.3-1.7s.4-1 .8-1.3c.3-.4.7-.6 1.2-.8.5-.2 1-.3 1.6-.3zm0 7.3c.8 0 1.4-.3 1.8-.8.4-.5.6-1.3.6-2.3 0-1-.2-1.7-.6-2.3s-1-.8-1.8-.8c-.4 0-.8.1-1.1.2s-.6.3-.8.6c-.2.3-.4.6-.5 1-.1.4-.1.8-.1 1.3 0 1 .2 1.7.6 2.3.5.6 1.1.8 1.9.8zm5.7 1V5.7h.9c.2 0 .3.1.4.3l.1.8c.3-.4.6-.7 1-.9.4-.2.8-.4 1.3-.4s1 .2 1.3.5c.3.3.6.7.7 1.2.1-.3.3-.6.5-.8s.4-.4.6-.5c.2-.1.5-.2.7-.3.3-.1.5-.1.8-.1.4 0 .8.1 1.1.2s.6.3.9.6c.2.3.4.6.5 1 .1.4.2.8.2 1.3v5.2h-1.4V8.6c0-.6-.1-1.1-.4-1.5-.3-.3-.7-.5-1.2-.5-.2 0-.5 0-.7.1-.2.1-.4.2-.6.4s-.3.4-.4.6c-.1.2-.1.5-.1.8v5.2H515V8.6c0-.7-.1-1.1-.4-1.5-.3-.3-.6-.5-1.2-.5-.4 0-.7.1-1 .3-.3.2-.6.5-.8.8v6.1h-1.4zm13.1-7c.5-.4.9-.8 1.5-1 .5-.2 1.1-.3 1.7-.3.5 0 .9.1 1.2.2s.7.4.9.6c.2.3.4.6.5 1 .1.4.2.8.2 1.3v5.2h-.6c-.1 0-.2 0-.3-.1s-.1-.1-.2-.3l-.2-.8c-.2.2-.4.4-.6.5-.2.2-.4.3-.6.4-.2.1-.5.2-.7.2-.3.1-.5.1-.9.1-.3 0-.6 0-.9-.1s-.5-.2-.7-.4c-.2-.2-.4-.4-.5-.7s-.2-.6-.2-1c0-.3.1-.6.3-.9s.5-.6.9-.8c.4-.2.9-.4 1.6-.6.6-.1 1.4-.2 2.4-.3v-.4c0-.6-.1-1.1-.4-1.4s-.7-.5-1.2-.5c-.4 0-.7 0-.9.1s-.6.2-.8.3c-.2.1-.3.2-.5.3s-.3.1-.4.1c-.1 0-.2 0-.3-.1l-.2-.2-.1-.4zm4.6 3.4c-.7 0-1.2.1-1.7.2s-.8.2-1.1.3-.5.3-.6.5c-.1.2-.2.4-.2.6 0 .2 0 .4.1.6.1.2.2.3.3.4.1.1.3.2.4.2s.3.1.5.1c.3 0 .5 0 .7-.1.2-.1.4-.1.6-.2.2-.1.4-.2.5-.3.2-.1.3-.3.5-.5v-1.8zm6 3.8c-.6 0-1.1-.2-1.5-.5s-.5-.9-.5-1.6v-5h-1c-.1 0-.2 0-.2-.1-.1-.1-.1-.1-.1-.2V6l1.3-.2.3-2.5c0-.1.1-.1.1-.2s.1-.1.2-.1h.7v2.8h2.4v1h-2.4v4.9c0 .3.1.6.3.8s.4.3.6.3c.2 0 .3 0 .4-.1s.2-.1.3-.1c.1 0 .1-.1.2-.1s.1-.1.1-.1c.1 0 .1 0 .2.1l.4.7c-.2.2-.5.4-.9.5-.2.2-.5.3-.9.3zm9.9-1.3l-.6.6c-.2.2-.5.3-.8.4-.3.1-.6.2-.9.2-.3.1-.6.1-.9.1-.6 0-1.1-.1-1.6-.3-.5-.2-.9-.5-1.2-.8s-.6-.8-.8-1.4-.3-1.2-.3-1.9c0-.6.1-1.1.3-1.6.2-.5.4-.9.8-1.3.3-.4.7-.6 1.2-.9.5-.2 1-.3 1.6-.3.5 0 .9.1 1.4.2.4.2.8.4 1.1.7.3.3.5.7.7 1.1.2.5.3 1 .3 1.6 0 .2 0 .4-.1.5 0 .1-.1.1-.3.1h-5.5c0 .5.1 1 .2 1.3.1.4.3.7.5 1 .2.3.5.4.8.6s.7.2 1 .2c.4 0 .7 0 .9-.1s.5-.2.7-.3.3-.2.5-.3.2-.1.3-.1c.1 0 .2 0 .3.1l.4.6zm-1.2-3.8c0-.3 0-.6-.1-.9-.1-.3-.2-.5-.4-.7-.2-.2-.4-.4-.7-.5s-.6-.2-.9-.2c-.7 0-1.2.2-1.6.6s-.6 1-.7 1.7h4.4zm9.8-6.9v11.9h-.9c-.2 0-.3-.1-.4-.3l-.1-1c-.3.4-.7.8-1.2 1-.4.3-1 .4-1.5.4s-.9-.1-1.3-.3c-.4-.2-.7-.4-1-.8-.3-.3-.5-.8-.6-1.3-.1-.5-.2-1.1-.2-1.8 0-.6.1-1.2.2-1.7.2-.5.4-1 .7-1.3.3-.4.7-.7 1.1-.9.4-.2.9-.3 1.5-.3.5 0 .9.1 1.3.3s.7.4 1 .7V2h1.4zM551 7.6c-.3-.4-.6-.6-.9-.8s-.7-.2-1-.2c-.8 0-1.3.3-1.8.8s-.6 1.3-.6 2.3c0 .5 0 1 .1 1.4.1.4.2.7.4.9.2.2.4.4.7.5.3.1.6.2.9.2.5 0 .9-.1 1.2-.3.4-.2.7-.5 1-.9V7.6zm9.3-5.6v11.9h-1.4V2h1.4zm5.8 3.5c.6 0 1.1.1 1.6.3s.9.5 1.2.8c.3.4.6.8.8 1.3.2.5.3 1.1.3 1.7 0 .6-.1 1.2-.3 1.7-.2.5-.4 1-.8 1.3-.3.4-.7.6-1.2.8s-1 .3-1.6.3c-.6 0-1.1-.1-1.6-.3-.5-.2-.9-.5-1.2-.8-.3-.4-.6-.8-.8-1.3-.2-.5-.3-1.1-.3-1.7 0-.6.1-1.2.3-1.7s.4-1 .8-1.3c.3-.4.7-.6 1.2-.8.4-.2 1-.3 1.6-.3zm0 7.3c.8 0 1.4-.3 1.8-.8.4-.5.6-1.3.6-2.3 0-1-.2-1.7-.6-2.3s-1-.8-1.8-.8c-.4 0-.8.1-1.1.2s-.6.3-.8.6c-.2.3-.4.6-.5 1-.1.4-.1.8-.1 1.3 0 1 .2 1.7.6 2.3.4.6 1 .8 1.9.8zM578.6 6v.5c0 .2-.1.3-.3.3l-1 .2c.2.4.3.7.3 1.2 0 .4-.1.8-.2 1.1-.2.3-.4.6-.6.8-.3.2-.6.4-1 .5s-.8.2-1.2.2c-.4 0-.7 0-1.1-.1-.2.1-.3.2-.4.3-.1.1-.1.2-.1.4s.1.3.2.4c.2.1.4.2.6.2s.6.1.9.1c.3 0 .7 0 1 .1s.7.1 1 .1l.9.3c.3.1.5.3.6.6.2.2.2.5.2.9 0 .3-.1.7-.3 1-.2.3-.4.6-.8.9-.3.3-.7.5-1.2.6-.5.2-1 .2-1.6.2-.6 0-1.1-.1-1.6-.2-.4-.1-.8-.3-1.1-.5-.3-.2-.5-.4-.7-.7-.1-.3-.2-.5-.2-.8 0-.4.1-.7.4-1 .3-.3.6-.5 1-.7-.2-.1-.4-.3-.6-.4-.1-.2-.2-.4-.2-.7 0-.1 0-.2.1-.4s.1-.3.2-.4.2-.2.3-.4c.1-.1.3-.2.5-.3-.4-.2-.7-.5-.9-.9-.2-.4-.3-.8-.3-1.3 0-.4.1-.8.2-1.1s.4-.6.6-.8c.3-.2.6-.4 1-.5.4-.1.8-.2 1.2-.2.4 0 .7 0 1 .1.3.1.6.2.8.3h2.4zm-1.4 8.3c0-.2-.1-.4-.2-.5-.1-.1-.3-.2-.5-.3-.2-.1-.4-.1-.7-.1s-.5-.1-.8-.1h-.9c-.3 0-.6 0-.8-.1-.3.1-.5.3-.7.5-.2.2-.3.5-.3.7 0 .2 0 .4.1.5s.2.3.4.4.4.2.7.3.6.1 1 .1.7 0 1-.1c.3-.1.6-.2.8-.3s.4-.3.5-.5c.3-.1.4-.3.4-.5zm-2.6-4.5c.3 0 .5 0 .8-.1l.6-.3c.2-.1.3-.3.3-.5.1-.2.1-.4.1-.7 0-.5-.2-.9-.5-1.2s-.7-.4-1.3-.4c-.6 0-1 .1-1.3.4s-.5.7-.5 1.2c0 .2 0 .5.1.7.1.2.2.4.3.5.2.1.3.3.6.3.2.1.5.1.8.1zM484.4 24v11.9h-.9c-.2 0-.3-.1-.4-.3l-.1-1c-.3.4-.7.8-1.2 1-.4.3-1 .4-1.5.4s-.9-.1-1.3-.3c-.4-.2-.7-.4-1-.8-.3-.3-.5-.8-.6-1.3-.1-.5-.2-1.1-.2-1.8 0-.6.1-1.2.2-1.7.2-.5.4-1 .7-1.3.3-.4.7-.7 1.1-.9.4-.2.9-.3 1.5-.3.5 0 .9.1 1.3.3s.7.4 1 .7V24h1.4zm-1.5 5.6c-.3-.4-.6-.6-.9-.8s-.7-.2-1-.2c-.8 0-1.3.3-1.8.8s-.6 1.3-.6 2.3c0 .5 0 1 .1 1.4.1.4.2.7.4.9.2.2.4.4.7.5.3.1.6.2.9.2.5 0 .9-.1 1.2-.3.4-.2.7-.5 1-.9v-3.9zm3.5-.8c.5-.4.9-.8 1.5-1 .5-.2 1.1-.3 1.7-.3.5 0 .9.1 1.2.2s.7.4.9.6c.2.3.4.6.5 1 .1.4.2.8.2 1.3v5.2h-.6c-.1 0-.2 0-.3-.1s-.1-.1-.2-.3l-.2-.8c-.2.2-.4.4-.6.5-.2.2-.4.3-.6.4-.2.1-.5.2-.7.2-.3.1-.5.1-.9.1-.3 0-.6 0-.9-.1s-.5-.2-.7-.4c-.2-.2-.4-.4-.5-.7s-.2-.6-.2-1c0-.3.1-.6.3-.9s.5-.6.9-.8c.4-.2.9-.4 1.6-.6.6-.1 1.4-.2 2.4-.3v-.6c0-.6-.1-1.1-.4-1.4s-.7-.5-1.2-.5c-.4 0-.7 0-.9.1l-.6.3c-.2.1-.3.2-.5.3s-.3.1-.4.1c-.1 0-.2 0-.3-.1l-.2-.2-.3-.2zm4.6 3.4c-.7 0-1.2.1-1.7.2s-.8.2-1.1.3-.5.3-.6.5c-.1.2-.2.4-.2.6 0 .2 0 .4.1.6.1.2.2.3.3.4.1.1.3.2.4.2s.3.1.5.1c.3 0 .5 0 .7-.1.2-.1.4-.1.6-.2.2-.1.4-.2.5-.3.2-.1.3-.3.5-.5v-1.8zm6 3.8c-.6 0-1.1-.2-1.5-.5s-.5-.9-.5-1.6v-5h-1c-.1 0-.2 0-.2-.1-.1-.1-.1-.1-.1-.2V28l1.3-.2.3-2.5c0-.1.1-.1.1-.2s.1-.1.2-.1h.7v2.8h2.4v1h-2.4v4.9c0 .3.1.6.3.8s.4.3.6.3c.2 0 .3 0 .4-.1s.2-.1.3-.1c.1 0 .1-.1.2-.1s.1-.1.1-.1c.1 0 .1 0 .2.1l.4.7c-.2.2-.5.4-.9.5-.1.2-.5.3-.9.3zm3.1-7.2c.5-.4.9-.8 1.5-1 .5-.2 1.1-.3 1.7-.3.5 0 .9.1 1.2.2s.7.4.9.6c.2.3.4.6.5 1 .1.4.2.8.2 1.3v5.2h-.6c-.1 0-.2 0-.3-.1s-.1-.1-.2-.3l-.2-.8c-.2.2-.4.4-.6.5-.2.2-.4.3-.6.4-.2.1-.5.2-.7.2-.3.1-.5.1-.9.1-.3 0-.6 0-.9-.1s-.5-.2-.7-.4c-.2-.2-.4-.4-.5-.7s-.2-.6-.2-1c0-.3.1-.6.3-.9s.5-.6.9-.8c.4-.2.9-.4 1.6-.6.6-.1 1.4-.2 2.4-.3v-.6c0-.6-.1-1.1-.4-1.4s-.7-.5-1.2-.5c-.4 0-.7 0-.9.1l-.6.3c-.2.1-.3.2-.5.3s-.3.1-.4.1c-.1 0-.2 0-.3-.1l-.2-.2-.3-.2zm4.6 3.4c-.7 0-1.2.1-1.7.2s-.8.2-1.1.3-.5.3-.6.5c-.1.2-.2.4-.2.6 0 .2 0 .4.1.6.1.2.2.3.3.4.1.1.3.2.4.2s.3.1.5.1c.3 0 .5 0 .7-.1.2-.1.4-.1.6-.2.2-.1.4-.2.5-.3.2-.1.3-.3.5-.5v-1.8zm7.8 3.6v-8.2h.9c.2 0 .3.1.4.3l.1.8c.3-.4.6-.7 1-.9.4-.2.8-.4 1.3-.4s1 .2 1.3.5c.3.3.6.7.7 1.2.1-.3.3-.6.5-.8s.4-.4.6-.5c.2-.1.5-.2.7-.3.3-.1.5-.1.8-.1.4 0 .8.1 1.1.2s.6.3.9.6c.2.3.4.6.5 1 .1.4.2.8.2 1.3v5.2h-1.4v-5.2c0-.6-.1-1.1-.4-1.5-.3-.3-.7-.5-1.2-.5-.2 0-.5 0-.7.1-.2.1-.4.2-.6.4s-.3.4-.4.6c-.1.2-.1.5-.1.8v5.2h-1.4v-5.2c0-.7-.1-1.1-.4-1.5-.3-.3-.6-.5-1.2-.5-.4 0-.7.1-1 .3-.3.2-.6.5-.8.8v6.1h-1.4zm13-7c.5-.4.9-.8 1.5-1 .5-.2 1.1-.3 1.7-.3.5 0 .9.1 1.2.2s.7.4.9.6c.2.3.4.6.5 1 .1.4.2.8.2 1.3v5.2h-.6c-.1 0-.2 0-.3-.1s-.1-.1-.2-.3l-.2-.8c-.2.2-.4.4-.6.5-.2.2-.4.3-.6.4-.2.1-.5.2-.7.2-.3.1-.5.1-.9.1-.3 0-.6 0-.9-.1s-.5-.2-.7-.4c-.2-.2-.4-.4-.5-.7s-.2-.6-.2-1c0-.3.1-.6.3-.9s.5-.6.9-.8c.4-.2.9-.4 1.6-.6.6-.1 1.4-.2 2.4-.3v-.6c0-.6-.1-1.1-.4-1.4s-.7-.5-1.2-.5c-.4 0-.7 0-.9.1l-.6.3c-.2.1-.3.2-.5.3s-.3.1-.4.1c-.1 0-.2 0-.3-.1l-.2-.2-.3-.2zm4.6 3.4c-.7 0-1.2.1-1.7.2s-.8.2-1.1.3-.5.3-.6.5c-.1.2-.2.4-.2.6 0 .2 0 .4.1.6.1.2.2.3.3.4.1.1.3.2.4.2s.3.1.5.1c.3 0 .5 0 .7-.1.2-.1.4-.1.6-.2.2-.1.4-.2.5-.3.2-.1.3-.3.5-.5v-1.8zm5-3.3c.2-.2.4-.4.6-.5.2-.2.4-.3.6-.4.2-.1.5-.2.7-.3.3-.1.5-.1.8-.1.4 0 .8.1 1.2.2.3.1.6.4.9.6.2.3.4.6.5 1 .1.4.2.8.2 1.3v5.2h-1.4v-5.2c0-.6-.1-1.1-.4-1.4-.3-.3-.7-.5-1.3-.5-.4 0-.8.1-1.2.3-.4.2-.7.5-1 .8v6h-1.4v-8.2h.9c.2 0 .3.1.4.3l-.1.9zm7.4-.1c.5-.4.9-.8 1.5-1 .5-.2 1.1-.3 1.7-.3.5 0 .9.1 1.2.2s.7.4.9.6c.2.3.4.6.5 1 .1.4.2.8.2 1.3v5.2h-.6c-.1 0-.2 0-.3-.1s-.1-.1-.2-.3l-.2-.8c-.2.2-.4.4-.6.5-.2.2-.4.3-.6.4-.2.1-.5.2-.7.2-.3.1-.5.1-.9.1-.3 0-.6 0-.9-.1s-.5-.2-.7-.4c-.2-.2-.4-.4-.5-.7s-.2-.6-.2-1c0-.3.1-.6.3-.9s.5-.6.9-.8c.4-.2.9-.4 1.6-.6.6-.1 1.4-.2 2.4-.3v-.6c0-.6-.1-1.1-.4-1.4s-.7-.5-1.2-.5c-.4 0-.7 0-.9.1l-.6.3c-.2.1-.3.2-.5.3s-.3.1-.4.1c-.1 0-.2 0-.3-.1l-.2-.2-.3-.2zm4.7 3.4c-.7 0-1.2.1-1.7.2s-.8.2-1.1.3-.5.3-.6.5c-.1.2-.2.4-.2.6 0 .2 0 .4.1.6.1.2.2.3.3.4.1.1.3.2.4.2s.3.1.5.1c.3 0 .5 0 .7-.1.2-.1.4-.1.6-.2.2-.1.4-.2.5-.3.2-.1.3-.3.5-.5v-1.8zm10.4-4.2v.5c0 .2-.1.3-.3.3l-.9.1c.2.4.3.7.3 1.2 0 .4-.1.8-.2 1.1-.2.3-.4.6-.6.8-.3.2-.6.4-1 .5s-.8.2-1.2.2c-.4 0-.7 0-1.1-.1-.2.1-.3.2-.4.3-.1.1-.1.2-.1.4s.1.3.2.4c.2.1.4.2.6.2s.6.1.9.1c.3 0 .7 0 1 .1s.7.1 1 .1l.9.3c.3.1.5.3.6.6.2.2.2.5.2.9 0 .3-.1.7-.3 1-.2.3-.4.6-.8.9-.3.3-.7.5-1.2.6-.5.2-1 .2-1.6.2-.6 0-1.1-.1-1.6-.2-.4-.1-.8-.3-1.1-.5-.3-.2-.5-.4-.7-.7-.1-.3-.2-.5-.2-.8 0-.4.1-.7.4-1 .3-.3.6-.5 1-.7-.2-.1-.4-.3-.6-.4-.1-.2-.2-.4-.2-.7 0-.1 0-.2.1-.4s.1-.3.2-.4.2-.2.3-.4c.1-.1.3-.2.5-.3-.4-.2-.7-.5-.9-.9-.2-.4-.3-.8-.3-1.3 0-.4.1-.8.2-1.1s.4-.6.6-.8c.3-.2.6-.4 1-.5.4-.1.8-.2 1.2-.2.4 0 .7 0 1 .1.3.1.6.2.8.3h2.3zm-1.4 8.3c0-.2-.1-.4-.2-.5-.1-.1-.3-.2-.5-.3-.2-.1-.4-.1-.7-.1s-.5-.1-.8-.1h-.9c-.3 0-.6 0-.8-.1-.3.1-.5.3-.7.5-.2.2-.3.5-.3.7 0 .2 0 .4.1.5s.2.3.4.4.4.2.7.3.6.1 1 .1.7 0 1-.1c.3-.1.6-.2.8-.3s.4-.3.5-.5c.3-.1.4-.3.4-.5zm-2.6-4.5c.3 0 .5 0 .8-.1l.6-.3c.2-.1.3-.3.3-.5.1-.2.1-.4.1-.7 0-.5-.2-.9-.5-1.2s-.7-.4-1.3-.4c-.6 0-1 .1-1.3.4s-.5.7-.5 1.2c0 .2 0 .5.1.7.1.2.2.4.3.5.2.1.3.3.6.3.2.1.5.1.8.1zm12 2.9l-.6.6c-.2.2-.5.3-.8.4-.3.1-.6.2-.9.2-.3.1-.6.1-.9.1-.6 0-1.1-.1-1.6-.3-.5-.2-.9-.5-1.2-.8s-.6-.8-.8-1.4-.3-1.2-.3-1.9c0-.6.1-1.1.3-1.6.2-.5.4-.9.8-1.3.3-.4.7-.6 1.2-.9.5-.2 1-.3 1.6-.3.5 0 .9.1 1.4.2.4.2.8.4 1.1.7.3.3.5.7.7 1.1.2.5.3 1 .3 1.6 0 .2 0 .4-.1.5 0 .1-.1.1-.3.1H560c0 .5.1 1 .2 1.3.1.4.3.7.5 1 .2.3.5.4.8.6s.7.2 1 .2c.4 0 .7 0 .9-.1s.5-.2.7-.3.3-.2.5-.3.2-.1.3-.1c.1 0 .2 0 .3.1l.4.6zm-1.1-3.8c0-.3 0-.6-.1-.9-.1-.3-.2-.5-.4-.7-.2-.2-.4-.4-.7-.5s-.6-.2-.9-.2c-.7 0-1.2.2-1.6.6s-.6 1-.7 1.7h4.4zm3 4.9v-8.2h.9c.2 0 .3.1.4.3l.1.8c.3-.4.6-.7 1-.9.4-.2.8-.4 1.3-.4s1 .2 1.3.5c.3.3.6.7.7 1.2.1-.3.3-.6.5-.8s.4-.4.6-.5c.2-.1.5-.2.7-.3.3-.1.5-.1.8-.1.4 0 .8.1 1.1.2s.6.3.9.6c.2.3.4.6.5 1 .1.4.2.8.2 1.3v5.2h-1.4v-5.2c0-.6-.1-1.1-.4-1.5-.3-.3-.7-.5-1.2-.5-.2 0-.5 0-.7.1-.2.1-.4.2-.6.4s-.3.4-.4.6c-.1.2-.1.5-.1.8v5.2h-1.4v-5.2c0-.7-.1-1.1-.4-1.5-.3-.3-.6-.5-1.2-.5-.4 0-.7.1-1 .3-.3.2-.6.5-.8.8v6.1h-1.4zm19.9-1.1l-.6.6c-.2.2-.5.3-.8.4-.3.1-.6.2-.9.2-.3.1-.6.1-.9.1-.6 0-1.1-.1-1.6-.3-.5-.2-.9-.5-1.2-.8s-.6-.8-.8-1.4-.3-1.2-.3-1.9c0-.6.1-1.1.3-1.6.2-.5.4-.9.8-1.3.3-.4.7-.6 1.2-.9.5-.2 1-.3 1.6-.3.5 0 .9.1 1.4.2.4.2.8.4 1.1.7.3.3.5.7.7 1.1.2.5.3 1 .3 1.6 0 .2 0 .4-.1.5 0 .1-.1.1-.3.1h-5.5c0 .5.1 1 .2 1.3.1.4.3.7.5 1 .2.3.5.4.8.6s.7.2 1 .2c.4 0 .7 0 .9-.1s.5-.2.7-.3.3-.2.5-.3.2-.1.3-.1c.1 0 .2 0 .3.1l.4.6zm-1.2-3.8c0-.3 0-.6-.1-.9-.1-.3-.2-.5-.4-.7-.2-.2-.4-.4-.7-.5s-.6-.2-.9-.2c-.7 0-1.2.2-1.6.6s-.6 1-.7 1.7h4.4zm4.4-2c.2-.2.4-.4.6-.5.2-.2.4-.3.6-.4.2-.1.5-.2.7-.3.3-.1.5-.1.8-.1.4 0 .8.1 1.2.2.3.1.6.4.9.6.2.3.4.6.5 1 .1.4.2.8.2 1.3v5.2h-1.4v-5.2c0-.6-.1-1.1-.4-1.4-.3-.3-.7-.5-1.3-.5-.4 0-.8.1-1.2.3-.4.2-.7.5-1 .8v6h-1.4v-8.2h.9c.2 0 .3.1.4.3l-.1.9zm10.1 7.1c-.6 0-1.1-.2-1.5-.5s-.5-.9-.5-1.6v-5h-1c-.1 0-.2 0-.2-.1-.1-.1-.1-.1-.1-.2V28l1.3-.2.3-2.5c0-.1.1-.1.1-.2s.1-.1.2-.1h.7v2.8h2.4v1H600v4.9c0 .3.1.6.3.8s.4.3.6.3c.2 0 .3 0 .4-.1s.2-.1.3-.1c.1 0 .1-.1.2-.1s.1-.1.1-.1c.1 0 .1 0 .2.1l.4.7c-.2.2-.5.4-.9.5-.2.2-.6.3-.9.3z"
     fill="#454545"
     id="path16" />
  <path
     d="M468 109.2v.6l-6.2 3.2v-1c0-.1 0-.2.1-.2 0-.1.1-.1.2-.2l3.6-1.8c.1-.1.2-.1.3-.1.1 0 .2-.1.4-.1-.3-.1-.5-.1-.7-.3l-3.6-1.8c-.1-.1-.2-.1-.2-.2s-.1-.1-.1-.2v-1l6.2 3.1z"
     fill="#00b7d3"
     id="path18" />
  <path
     d="M479.4 108c.3-.4.7-.8 1.2-1s1-.4 1.5-.4.9.1 1.3.3c.4.2.7.4 1 .8.3.4.5.8.6 1.3.1.5.2 1.1.2 1.8 0 .6-.1 1.2-.2 1.7-.2.5-.4 1-.7 1.3s-.7.7-1.1.9c-.4.2-.9.3-1.5.3-.5 0-.9-.1-1.3-.3-.4-.2-.7-.4-.9-.7v3.6H478v-10.9h.9c.2 0 .3.1.4.3l.1 1zm0 5c.3.4.6.6.9.7.3.1.7.2 1 .2.8 0 1.3-.3 1.8-.8.4-.5.6-1.3.6-2.3 0-.5 0-1-.1-1.4-.1-.4-.2-.7-.4-.9-.2-.2-.4-.4-.7-.5s-.6-.2-.9-.2c-.5 0-.9.1-1.2.3-.4.2-.7.5-1 .9v4zm14.3.8l-.6.6c-.2.2-.5.3-.8.4-.3.1-.6.2-.9.2-.3.1-.6.1-.9.1-.6 0-1.1-.1-1.6-.3-.5-.2-.9-.5-1.2-.8s-.6-.8-.8-1.4-.3-1.2-.3-1.9c0-.6.1-1.1.3-1.6.2-.5.4-.9.8-1.3.3-.4.7-.6 1.2-.9.5-.2 1-.3 1.6-.3.5 0 .9.1 1.4.2.4.2.8.4 1.1.7.3.3.5.7.7 1.1.2.5.3 1 .3 1.6 0 .2 0 .4-.1.5 0 .1-.1.1-.3.1H488c0 .5.1 1 .2 1.3.1.4.3.7.5 1 .2.3.5.4.8.6s.7.2 1 .2c.4 0 .7 0 .9-.1s.5-.2.7-.3.3-.2.5-.3.2-.1.3-.1c.1 0 .2 0 .3.1l.5.6zm-1.2-3.8c0-.3 0-.6-.1-.9-.1-.3-.2-.5-.4-.7-.2-.2-.4-.4-.7-.5s-.6-.2-.9-.2c-.7 0-1.2.2-1.6.6s-.6 1-.7 1.7h4.4zm4.4-1.6c.3-.6.6-1 1-1.3s.8-.5 1.4-.5c.2 0 .3 0 .5.1.2 0 .3.1.4.2l-.1 1.1c0 .1-.1.2-.2.2h-.8c-.3 0-.5 0-.7.1s-.4.2-.5.3c-.2.1-.3.3-.4.5-.1.2-.2.5-.3.7v5.2h-1.4v-8.2h.8c.2 0 .3 0 .3.1.1.1.1.2.1.3l-.1 1.2zm5.1 6.5V108l-.9-.1c-.1 0-.2-.1-.3-.1-.1-.1-.1-.1-.1-.2v-.6h1.3v-.8c0-.5.1-.9.2-1.2.1-.4.3-.7.6-.9.2-.3.5-.4.9-.6s.7-.2 1.2-.2c.4 0 .7.1 1 .2v.7c0 .1-.1.2-.2.2h-.5c-.2 0-.5 0-.7.1-.2.1-.4.2-.5.3-.1.1-.3.3-.3.6-.1.2-.1.5-.1.9v.8h2.4v1h-2.3v7H502zm8.3-8.2c.6 0 1.1.1 1.6.3.5.2.9.5 1.2.8.3.4.6.8.8 1.3.2.5.3 1.1.3 1.7 0 .6-.1 1.2-.3 1.7-.2.5-.4 1-.8 1.3-.3.4-.7.6-1.2.8-.5.2-1 .3-1.6.3-.6 0-1.1-.1-1.6-.3-.5-.2-.9-.5-1.2-.8-.3-.4-.6-.8-.8-1.3-.2-.5-.3-1.1-.3-1.7 0-.6.1-1.2.3-1.7s.4-1 .8-1.3c.3-.4.7-.6 1.2-.8.4-.2.9-.3 1.6-.3zm0 7.2c.8 0 1.4-.3 1.8-.8.4-.5.6-1.3.6-2.3 0-1-.2-1.7-.6-2.3-.4-.5-1-.8-1.8-.8-.4 0-.8.1-1.1.2s-.6.3-.8.6c-.2.3-.4.6-.5 1-.1.4-.1.8-.1 1.3 0 1 .2 1.7.6 2.3.4.6 1 .8 1.9.8zm5.6 1v-8.2h.9c.2 0 .3.1.4.3l.1.8c.3-.4.6-.7 1-.9.4-.2.8-.4 1.3-.4s1 .2 1.3.5c.3.3.6.7.7 1.2.1-.3.3-.6.5-.8s.4-.4.6-.5c.2-.1.5-.2.7-.3.3-.1.5-.1.8-.1.4 0 .8.1 1.1.2s.6.3.9.6c.2.3.4.6.5 1 .1.4.2.8.2 1.3v5.2h-1.4v-5.2c0-.6-.1-1.1-.4-1.5-.3-.3-.7-.5-1.2-.5-.2 0-.5 0-.7.1-.2.1-.4.2-.6.4s-.3.4-.4.6c-.1.2-.1.5-.1.8v5.2h-1.4v-5.2c0-.7-.1-1.1-.4-1.5-.3-.3-.6-.5-1.2-.5-.4 0-.7.1-1 .3-.3.2-.6.5-.8.8v6.1h-1.4zm13.1-7c.5-.4.9-.8 1.5-1 .5-.2 1.1-.3 1.7-.3.5 0 .9.1 1.2.2s.7.4.9.6c.2.3.4.6.5 1 .1.4.2.8.2 1.3v5.2h-.6c-.1 0-.2 0-.3-.1s-.1-.1-.2-.3l-.2-.8c-.2.2-.4.4-.6.5-.2.2-.4.3-.6.4-.2.1-.5.2-.7.2-.3.1-.5.1-.9.1-.3 0-.6 0-.9-.1s-.5-.2-.7-.4c-.2-.2-.4-.4-.5-.7s-.2-.6-.2-1c0-.3.1-.6.3-.9s.5-.6.9-.8c.4-.2.9-.4 1.6-.6.6-.1 1.4-.2 2.4-.3v-.6c0-.6-.1-1.1-.4-1.4s-.7-.5-1.2-.5c-.4 0-.7 0-.9.1l-.6.3c-.2.1-.3.2-.5.3s-.3.1-.4.1c-.1 0-.2 0-.3-.1l-.2-.2-.3-.2zm4.6 3.4c-.7 0-1.2.1-1.7.2s-.8.2-1.1.3-.5.3-.6.5c-.1.2-.2.4-.2.6 0 .2 0 .4.1.6.1.2.2.3.3.4.1.1.3.2.4.2s.3.1.5.1c.3 0 .5 0 .7-.1.2-.1.4-.1.6-.2.2-.1.4-.2.5-.3.2-.1.3-.3.5-.5v-1.8zm5-3.3c.2-.2.4-.4.6-.5.2-.2.4-.3.6-.4.2-.1.5-.2.7-.3.3-.1.5-.1.8-.1.4 0 .8.1 1.2.2.3.1.6.4.9.6.2.3.4.6.5 1 .1.4.2.8.2 1.3v5.2h-1.4v-5.2c0-.6-.1-1.1-.4-1.4-.3-.3-.7-.5-1.3-.5-.4 0-.8.1-1.2.3-.4.2-.7.5-1 .8v6h-1.4v-8.2h.9c.2 0 .3.1.4.3l-.1.9zm13.3.2c0 .1-.1.1-.1.1h-.2c-.1 0-.2 0-.3-.1s-.2-.1-.4-.2c-.1-.1-.3-.2-.5-.2s-.5-.1-.8-.1c-.4 0-.8.1-1.1.2s-.6.3-.8.6c-.2.3-.4.6-.5 1s-.2.8-.2 1.3.1.9.2 1.3.3.7.5 1 .5.5.8.6.6.2 1 .2c.3 0 .6 0 .9-.1l.6-.3c.1-.1.3-.2.4-.3s.2-.1.3-.1c.1 0 .2 0 .3.1l.4.5-.6.6c-.2.2-.5.3-.7.4s-.5.2-.8.2c-.3 0-.6.1-.9.1-.5 0-1-.1-1.4-.3-.4-.2-.8-.5-1.1-.8s-.6-.8-.8-1.3-.3-1.1-.3-1.8c0-.6.1-1.2.3-1.7.2-.5.4-1 .7-1.3.3-.4.7-.7 1.2-.9.5-.2 1-.3 1.6-.3.6 0 1.1.1 1.5.3.4.2.8.4 1.2.8l-.4.5zm8.5 5.6l-.6.6c-.2.2-.5.3-.8.4-.3.1-.6.2-.9.2-.3.1-.6.1-.9.1-.6 0-1.1-.1-1.6-.3-.5-.2-.9-.5-1.2-.8s-.6-.8-.8-1.4-.3-1.2-.3-1.9c0-.6.1-1.1.3-1.6.2-.5.4-.9.8-1.3.3-.4.7-.6 1.2-.9.5-.2 1-.3 1.6-.3.5 0 .9.1 1.4.2.4.2.8.4 1.1.7.3.3.5.7.7 1.1.2.5.3 1 .3 1.6 0 .2 0 .4-.1.5 0 .1-.1.1-.3.1h-5.5c0 .5.1 1 .2 1.3.1.4.3.7.5 1 .2.3.5.4.8.6s.7.2 1 .2c.4 0 .7 0 .9-.1s.5-.2.7-.3.3-.2.5-.3.2-.1.3-.1c.1 0 .2 0 .3.1l.4.6zm-1.2-3.8c0-.3 0-.6-.1-.9-.1-.3-.2-.5-.4-.7-.2-.2-.4-.4-.7-.5s-.6-.2-.9-.2c-.7 0-1.2.2-1.6.6s-.6 1-.7 1.7h4.4zm14-6.9V115h-.9c-.2 0-.3-.1-.4-.3l-.1-1c-.3.4-.7.8-1.2 1-.4.3-1 .4-1.5.4s-.9-.1-1.3-.3c-.4-.2-.7-.4-1-.8-.3-.3-.5-.8-.6-1.3-.1-.5-.2-1.1-.2-1.8 0-.6.1-1.2.2-1.7.2-.5.4-1 .7-1.3.3-.4.7-.7 1.1-.9.4-.2.9-.3 1.5-.3.5 0 .9.1 1.3.3s.7.4 1 .7v-4.5h1.4zm-1.5 5.6c-.3-.4-.6-.6-.9-.8s-.7-.2-1-.2c-.8 0-1.3.3-1.8.8s-.6 1.3-.6 2.3c0 .5 0 1 .1 1.4.1.4.2.7.4.9.2.2.4.4.7.5.3.1.6.2.9.2.5 0 .9-.1 1.2-.3.4-.2.7-.5 1-.9v-3.9zm3.5-.8c.5-.4.9-.8 1.5-1 .5-.2 1.1-.3 1.7-.3.5 0 .9.1 1.2.2s.7.4.9.6c.2.3.4.6.5 1 .1.4.2.8.2 1.3v5.2h-.6c-.1 0-.2 0-.3-.1s-.1-.1-.2-.3l-.2-.8c-.2.2-.4.4-.6.5-.2.2-.4.3-.6.4-.2.1-.5.2-.7.2-.3.1-.5.1-.9.1-.3 0-.6 0-.9-.1s-.5-.2-.7-.4c-.2-.2-.4-.4-.5-.7s-.2-.6-.2-1c0-.3.1-.6.3-.9s.5-.6.9-.8c.4-.2.9-.4 1.6-.6.6-.1 1.4-.2 2.4-.3v-.6c0-.6-.1-1.1-.4-1.4s-.7-.5-1.2-.5c-.4 0-.7 0-.9.1l-.6.3c-.2.1-.3.2-.5.3s-.3.1-.4.1c-.1 0-.2 0-.3-.1l-.2-.2-.3-.2zm4.7 3.4c-.7 0-1.2.1-1.7.2s-.8.2-1.1.3-.5.3-.6.5c-.1.2-.2.4-.2.6 0 .2 0 .4.1.6.1.2.2.3.3.4.1.1.3.2.4.2s.3.1.5.1c.3 0 .5 0 .7-.1.2-.1.4-.1.6-.2.2-.1.4-.2.5-.3.2-.1.3-.3.5-.5v-1.8zm6 3.8c-.6 0-1.1-.2-1.5-.5s-.5-.9-.5-1.6v-5h-1c-.1 0-.2 0-.2-.1-.1-.1-.1-.1-.1-.2v-.6l1.3-.2.3-2.5c0-.1.1-.1.1-.2s.1-.1.2-.1h.7v2.8h2.4v1h-2.4v4.9c0 .3.1.6.3.8s.4.3.6.3c.2 0 .3 0 .4-.1s.2-.1.3-.1c.1 0 .1-.1.2-.1s.1-.1.1-.1c.1 0 .1 0 .2.1l.4.7c-.2.2-.5.4-.9.5-.2.2-.6.3-.9.3zm3-7.2c.5-.4.9-.8 1.5-1 .5-.2 1.1-.3 1.7-.3.5 0 .9.1 1.2.2s.7.4.9.6c.2.3.4.6.5 1 .1.4.2.8.2 1.3v5.2h-.6c-.1 0-.2 0-.3-.1s-.1-.1-.2-.3l-.2-.8c-.2.2-.4.4-.6.5-.2.2-.4.3-.6.4-.2.1-.5.2-.7.2-.3.1-.5.1-.9.1-.3 0-.6 0-.9-.1s-.5-.2-.7-.4c-.2-.2-.4-.4-.5-.7s-.2-.6-.2-1c0-.3.1-.6.3-.9s.5-.6.9-.8c.4-.2.9-.4 1.6-.6.6-.1 1.4-.2 2.4-.3v-.6c0-.6-.1-1.1-.4-1.4s-.7-.5-1.2-.5c-.4 0-.7 0-.9.1l-.6.3c-.2.1-.3.2-.5.3s-.3.1-.4.1c-.1 0-.2 0-.3-.1l-.2-.2-.3-.2zm4.7 3.4c-.7 0-1.2.1-1.7.2s-.8.2-1.1.3-.5.3-.6.5c-.1.2-.2.4-.2.6 0 .2 0 .4.1.6.1.2.2.3.3.4.1.1.3.2.4.2s.3.1.5.1c.3 0 .5 0 .7-.1.2-.1.4-.1.6-.2.2-.1.4-.2.5-.3.2-.1.3-.3.5-.5v-1.8zm-109.4 17.5l-3.3 8.2h-1.3l-3.3-8.2h1.2c.1 0 .2 0 .3.1l.2.2 2.1 5.3c.1.2.1.4.2.6 0 .2.1.4.1.6 0-.2.1-.4.1-.6 0-.2.1-.4.2-.6l2.1-5.3c0-.1.1-.2.2-.2.1-.1.2-.1.3-.1h.9zm3.1-2.6c0 .1 0 .3-.1.4s-.1.2-.2.3c-.1.1-.2.2-.3.2-.1.1-.3.1-.4.1s-.3 0-.4-.1c-.1-.1-.2-.1-.3-.2-.1-.1-.2-.2-.2-.3s-.1-.3-.1-.4c0-.1 0-.3.1-.4s.1-.2.2-.3c.1-.1.2-.2.3-.2.1-.1.3-.1.4-.1s.3 0 .4.1c.1.1.2.1.3.2.1.1.2.2.2.3s.1.3.1.4zm-.3 2.6v8.2h-1.4v-8.2h1.4zm7.2 1.3c-.1.1-.2.2-.3.2-.1 0-.2 0-.3-.1-.1-.1-.2-.1-.4-.2-.1-.1-.3-.1-.5-.2s-.4-.1-.7-.1c-.2 0-.5 0-.7.1-.2.1-.4.1-.5.3-.1.1-.2.2-.3.4-.1.1-.1.3-.1.5s.1.4.2.5c.1.1.3.3.5.4s.4.2.7.3c.3.1.5.2.8.2.3.1.5.2.8.3.3.1.5.2.7.4.2.2.4.4.5.6.1.2.2.5.2.8 0 .4-.1.7-.2 1-.1.3-.3.6-.6.8-.3.2-.6.4-1 .6-.4.1-.8.2-1.3.2-.6 0-1.1-.1-1.5-.3-.5-.2-.9-.4-1.2-.7l.3-.5c0-.1.1-.1.2-.2.1 0 .1-.1.2-.1s.2 0 .3.1c.1.1.2.2.4.3s.3.2.6.3c.2.1.5.1.8.1.3 0 .5 0 .7-.1.2-.1.4-.2.5-.3.1-.1.2-.3.3-.4s.1-.3.1-.5-.1-.4-.2-.6c-.1-.1-.3-.3-.5-.4-.2-.1-.4-.2-.7-.3-.3-.1-.5-.2-.8-.2-.3-.1-.5-.2-.8-.3-.3-.1-.5-.2-.7-.4-.2-.2-.4-.4-.5-.6-.1-.2-.2-.5-.2-.9 0-.3.1-.6.2-.9.1-.3.3-.5.6-.8s.6-.4.9-.5c.4-.1.8-.2 1.2-.2.5 0 1 .1 1.4.3.4.2.8.4 1.1.7l-.2.4zm8.9-1.3v8.2h-.9c-.2 0-.3-.1-.4-.3l-.1-.9c-.4.4-.8.7-1.2.9s-.9.4-1.5.4c-.4 0-.8-.1-1.2-.2-.3-.1-.6-.4-.9-.6-.2-.3-.4-.6-.5-1-.1-.4-.2-.8-.2-1.3v-5.2h1.4v5.2c0 .6.1 1.1.4 1.4.3.3.7.5 1.3.5.4 0 .8-.1 1.2-.3.4-.2.7-.5 1-.8v-6h1.6zm2.1 1.1c.5-.4.9-.8 1.5-1 .5-.2 1.1-.3 1.7-.3.5 0 .9.1 1.2.2s.7.4.9.6c.2.3.4.6.5 1 .1.4.2.8.2 1.3v5.2h-.6c-.1 0-.2 0-.3-.1s-.1-.1-.2-.3l-.2-.8c-.2.2-.4.4-.6.5-.2.2-.4.3-.6.4-.2.1-.5.2-.7.2-.3.1-.5.1-.9.1-.3 0-.6 0-.9-.1s-.5-.2-.7-.4c-.2-.2-.4-.4-.5-.7s-.2-.6-.2-1c0-.3.1-.6.3-.9s.5-.6.9-.8c.4-.2.9-.4 1.6-.6.6-.1 1.4-.2 2.4-.3v-.6c0-.6-.1-1.1-.4-1.4s-.7-.5-1.2-.5c-.4 0-.7 0-.9.1l-.6.3c-.2.1-.3.2-.5.3s-.3.1-.4.1c-.1 0-.2 0-.3-.1l-.2-.2-.3-.2zm4.6 3.4c-.7 0-1.2.1-1.7.2s-.8.2-1.1.3-.5.3-.6.5c-.1.2-.2.4-.2.6 0 .2 0 .4.1.6.1.2.2.3.3.4.1.1.3.2.4.2s.3.1.5.1c.3 0 .5 0 .7-.1.2-.1.4-.1.6-.2.2-.1.4-.2.5-.3.2-.1.3-.3.5-.5v-1.8zm5.1-8.2V137h-1.4v-11.9h1.4zm4.1 1.1c0 .1 0 .3-.1.4s-.1.2-.2.3c-.1.1-.2.2-.3.2-.1.1-.3.1-.4.1s-.3 0-.4-.1c-.1-.1-.2-.1-.3-.2-.1-.1-.2-.2-.2-.3s-.1-.3-.1-.4c0-.1 0-.3.1-.4s.1-.2.2-.3c.1-.1.2-.2.3-.2.1-.1.3-.1.4-.1s.3 0 .4.1c.1.1.2.1.3.2.1.1.2.2.2.3s.1.3.1.4zm-.3 2.6v8.2h-1.4v-8.2h1.4zm8 .6c0 .1 0 .2-.1.3 0 .1-.1.2-.1.3l-4.4 5.9h4.5v1.1h-6.2v-.8c0-.1.1-.2.1-.3l4.5-5.9h-4.4v-1.1h6.1v.5zm1.4.5c.5-.4.9-.8 1.5-1 .5-.2 1.1-.3 1.7-.3.5 0 .9.1 1.2.2s.7.4.9.6c.2.3.4.6.5 1 .1.4.2.8.2 1.3v5.2h-.6c-.1 0-.2 0-.3-.1s-.1-.1-.2-.3l-.2-.8c-.2.2-.4.4-.6.5-.2.2-.4.3-.6.4-.2.1-.5.2-.7.2-.3.1-.5.1-.9.1-.3 0-.6 0-.9-.1s-.5-.2-.7-.4c-.2-.2-.4-.4-.5-.7s-.2-.6-.2-1c0-.3.1-.6.3-.9s.5-.6.9-.8c.4-.2.9-.4 1.6-.6.6-.1 1.4-.2 2.4-.3v-.6c0-.6-.1-1.1-.4-1.4s-.7-.5-1.2-.5c-.4 0-.7 0-.9.1l-.6.3c-.2.1-.3.2-.5.3s-.3.1-.4.1c-.1 0-.2 0-.3-.1l-.2-.2-.3-.2zm4.7 3.4c-.7 0-1.2.1-1.7.2s-.8.2-1.1.3-.5.3-.6.5c-.1.2-.2.4-.2.6 0 .2 0 .4.1.6.1.2.2.3.3.4.1.1.3.2.4.2s.3.1.5.1c.3 0 .5 0 .7-.1.2-.1.4-.1.6-.2.2-.1.4-.2.5-.3.2-.1.3-.3.5-.5v-1.8zm11 3.6h-1.4v-7h-4.2v4.9c0 .3.1.6.3.8s.4.3.6.3c.2 0 .3 0 .4-.1s.2-.1.3-.1c.1 0 .1-.1.2-.1s.1-.1.1-.1c.1 0 .1 0 .2.1l.4.7c-.2.2-.5.4-.9.5-.3.1-.7.2-1.1.2-.6 0-1.1-.2-1.5-.5s-.5-.9-.5-1.6v-5h-1c-.1 0-.2 0-.2-.1-.1-.1-.1-.1-.1-.2v-.6l1.3-.2.3-2.5c0-.1.1-.1.1-.2s.1-.1.2-.1h.7v2.8h5.6v8.1zm.4-10.7c0 .1 0 .3-.1.4-.1.1-.1.2-.2.3-.1.1-.2.2-.3.2-.1.1-.3.1-.4.1s-.3 0-.4-.1-.2-.1-.3-.2c-.1-.1-.2-.2-.2-.3s-.1-.3-.1-.4 0-.3.1-.4.1-.2.2-.3c.1-.1.2-.2.3-.2s.3-.1.4-.1.3 0 .4.1c.1.1.2.1.3.2.1.1.2.2.2.3.1.1.1.2.1.4zm5.4 2.5c.6 0 1.1.1 1.6.3s.9.5 1.2.8c.3.4.6.8.8 1.3.2.5.3 1.1.3 1.7 0 .6-.1 1.2-.3 1.7-.2.5-.4 1-.8 1.3-.3.4-.7.6-1.2.8s-1 .3-1.6.3c-.6 0-1.1-.1-1.6-.3-.5-.2-.9-.5-1.2-.8-.3-.4-.6-.8-.8-1.3-.2-.5-.3-1.1-.3-1.7 0-.6.1-1.2.3-1.7s.4-1 .8-1.3c.3-.4.7-.6 1.2-.8.5-.2 1-.3 1.6-.3zm0 7.2c.8 0 1.4-.3 1.8-.8.4-.5.6-1.3.6-2.3 0-1-.2-1.7-.6-2.3s-1-.8-1.8-.8c-.4 0-.8.1-1.1.2s-.6.3-.8.6c-.2.3-.4.6-.5 1-.1.4-.1.8-.1 1.3 0 1 .2 1.7.6 2.3.5.6 1.1.8 1.9.8zm7.1-5.9c.2-.2.4-.4.6-.5.2-.2.4-.3.6-.4.2-.1.5-.2.7-.3.3-.1.5-.1.8-.1.4 0 .8.1 1.2.2.3.1.6.4.9.6.2.3.4.6.5 1 .1.4.2.8.2 1.3v5.2h-1.4v-5.2c0-.6-.1-1.1-.4-1.4-.3-.3-.7-.5-1.3-.5-.4 0-.8.1-1.2.3-.4.2-.7.5-1 .8v6h-1.4v-8.2h.9c.2 0 .3.1.4.3l-.1.9zm22 6.9h-1.4c-.2 0-.3 0-.4-.1-.1 0-.2-.1-.3-.2l-1.2-1.2c-.5.5-1.1.9-1.7 1.2-.7.3-1.4.4-2.2.4-.4 0-.9-.1-1.3-.2s-.8-.4-1.1-.6c-.3-.3-.6-.6-.8-1-.2-.4-.3-.8-.3-1.3 0-.4.1-.7.2-1.1.1-.3.3-.6.5-.9.2-.3.5-.5.8-.8.3-.2.6-.4 1-.6-.3-.4-.6-.8-.7-1.2-.2-.4-.2-.8-.2-1.2 0-.4.1-.8.2-1.1.1-.3.3-.6.6-.9.3-.3.6-.5 1-.6.4-.1.8-.2 1.3-.2.4 0 .8.1 1.2.2.3.1.7.3.9.5.3.2.5.5.6.8l.3.9-.9.2c-.2 0-.3 0-.4-.3 0-.1-.1-.3-.2-.4s-.2-.3-.3-.4c-.1-.1-.3-.2-.5-.3-.2-.1-.4-.1-.6-.1-.3 0-.5 0-.7.1s-.4.2-.6.4c-.2.2-.3.3-.4.5-.1.2-.1.4-.1.7 0 .2 0 .4.1.5 0 .2.1.3.2.5s.2.4.4.5c.1.2.3.4.5.6l3.3 3.4c.2-.4.4-.7.5-1.1.1-.4.2-.8.2-1.2 0-.1 0-.2.1-.2.1-.1.1-.1.2-.1h.9c0 .6-.1 1.2-.3 1.8-.2.6-.5 1.2-.8 1.7l2.4 2.4zm-7.5-5.6c-.6.3-1 .7-1.3 1.1-.3.4-.4.9-.4 1.4 0 .3.1.7.2.9.1.3.3.5.5.7.2.2.4.3.7.4.3.1.5.1.8.1.6 0 1.1-.1 1.6-.3.5-.2.9-.5 1.3-.9l-3.4-3.4zm12.6-1.4c.5-.4.9-.8 1.5-1 .5-.2 1.1-.3 1.7-.3.5 0 .9.1 1.2.2s.7.4.9.6c.2.3.4.6.5 1 .1.4.2.8.2 1.3v5.2h-.6c-.1 0-.2 0-.3-.1s-.1-.1-.2-.3l-.2-.8c-.2.2-.4.4-.6.5-.2.2-.4.3-.6.4-.2.1-.5.2-.7.2-.3.1-.5.1-.9.1-.3 0-.6 0-.9-.1s-.5-.2-.7-.4c-.2-.2-.4-.4-.5-.7s-.2-.6-.2-1c0-.3.1-.6.3-.9s.5-.6.9-.8c.4-.2.9-.4 1.6-.6.6-.1 1.4-.2 2.4-.3v-.6c0-.6-.1-1.1-.4-1.4s-.7-.5-1.2-.5c-.4 0-.7 0-.9.1l-.6.3c-.2.1-.3.2-.5.3s-.3.1-.4.1c-.1 0-.2 0-.3-.1l-.2-.2-.3-.2zm4.7 3.4c-.7 0-1.2.1-1.7.2s-.8.2-1.1.3-.5.3-.6.5c-.1.2-.2.4-.2.6 0 .2 0 .4.1.6.1.2.2.3.3.4.1.1.3.2.4.2s.3.1.5.1c.3 0 .5 0 .7-.1.2-.1.4-.1.6-.2.2-.1.4-.2.5-.3.2-.1.3-.3.5-.5v-1.8zm5.1-8.2V137h-1.4v-11.9h1.4zm8.9 10.7l-.6.6c-.2.2-.5.3-.8.4-.3.1-.6.2-.9.2-.3.1-.6.1-.9.1-.6 0-1.1-.1-1.6-.3-.5-.2-.9-.5-1.2-.8s-.6-.8-.8-1.4-.3-1.2-.3-1.9c0-.6.1-1.1.3-1.6.2-.5.4-.9.8-1.3.3-.4.7-.6 1.2-.9.5-.2 1-.3 1.6-.3.5 0 .9.1 1.4.2.4.2.8.4 1.1.7.3.3.5.7.7 1.1.2.5.3 1 .3 1.6 0 .2 0 .4-.1.5 0 .1-.1.1-.3.1h-5.5c0 .5.1 1 .2 1.3.1.4.3.7.5 1 .2.3.5.4.8.6s.7.2 1 .2c.4 0 .7 0 .9-.1s.5-.2.7-.3.3-.2.5-.3.2-.1.3-.1c.1 0 .2 0 .3.1l.4.6zm-1.2-3.8c0-.3 0-.6-.1-.9-.1-.3-.2-.5-.4-.7-.2-.2-.4-.4-.7-.5s-.6-.2-.9-.2c-.7 0-1.2.2-1.6.6s-.6 1-.7 1.7h4.4zm4.5-1.6c.3-.6.6-1 1-1.3s.8-.5 1.4-.5c.2 0 .3 0 .5.1.2 0 .3.1.4.2l-.1 1.1c0 .1-.1.2-.2.2h-.8c-.3 0-.5 0-.7.1s-.4.2-.5.3c-.2.1-.3.3-.4.5-.1.2-.2.5-.3.7v5.2h-1.4v-8.2h.8c.2 0 .3 0 .3.1.1.1.1.2.1.3l-.1 1.2zm7 6.7c-.6 0-1.1-.2-1.5-.5s-.5-.9-.5-1.6v-5h-1c-.1 0-.2 0-.2-.1-.1-.1-.1-.1-.1-.2v-.6l1.3-.2.3-2.5c0-.1.1-.1.1-.2s.1-.1.2-.1h.7v2.8h2.4v1h-2.4v4.9c0 .3.1.6.3.8s.4.3.6.3c.2 0 .3 0 .4-.1s.2-.1.3-.1c.1 0 .1-.1.2-.1s.1-.1.1-.1c.1 0 .1 0 .2.1l.4.7c-.2.2-.5.4-.9.5-.2.2-.6.3-.9.3zm8-7c-.1.1-.2.2-.3.2-.1 0-.2 0-.3-.1-.1-.1-.2-.1-.4-.2-.1-.1-.3-.1-.5-.2s-.4-.1-.7-.1c-.2 0-.5 0-.7.1-.2.1-.4.1-.5.3-.1.1-.2.2-.3.4-.1.1-.1.3-.1.5s.1.4.2.5c.1.1.3.3.5.4s.4.2.7.3c.3.1.5.2.8.2.3.1.5.2.8.3.3.1.5.2.7.4.2.2.4.4.5.6.1.2.2.5.2.8 0 .4-.1.7-.2 1-.1.3-.3.6-.6.8-.3.2-.6.4-1 .6-.4.1-.8.2-1.3.2-.6 0-1.1-.1-1.5-.3-.5-.2-.9-.4-1.2-.7l.3-.5c0-.1.1-.1.2-.2.1 0 .1-.1.2-.1s.2 0 .3.1c.1.1.2.2.4.3s.3.2.6.3c.2.1.5.1.8.1.3 0 .5 0 .7-.1.2-.1.4-.2.5-.3.1-.1.2-.3.3-.4s.1-.3.1-.5-.1-.4-.2-.6c-.1-.1-.3-.3-.5-.4-.2-.1-.4-.2-.7-.3-.3-.1-.5-.2-.8-.2-.3-.1-.5-.2-.8-.3-.3-.1-.5-.2-.7-.4-.2-.2-.4-.4-.5-.6-.1-.2-.2-.5-.2-.9 0-.3.1-.6.2-.9.1-.3.3-.5.6-.8s.6-.4.9-.5c.4-.1.8-.2 1.2-.2.5 0 1 .1 1.4.3.4.2.8.4 1.1.7l-.2.4z"
     fill="#454545"
     id="path20" />
  <path
     d="M374.8 208.4v.6l-6.2 3.2v-1c0-.1 0-.2.1-.2 0-.1.1-.1.2-.2l3.6-1.8c.1-.1.2-.1.3-.1.1 0 .2-.1.4-.1-.3-.1-.5-.1-.7-.3l-3.6-1.8c-.1-.1-.2-.1-.2-.2s-.1-.1-.1-.2v-1l6.2 3.1z"
     fill="#00b7d3"
     id="path22" />
  <path
     d="M384.8 214.2V206h.9c.2 0 .3.1.4.3l.1.8c.3-.4.6-.7 1-.9.4-.2.8-.4 1.3-.4s1 .2 1.3.5c.3.3.6.7.7 1.2.1-.3.3-.6.5-.8s.4-.4.6-.5c.2-.1.5-.2.7-.3.3-.1.5-.1.8-.1.4 0 .8.1 1.1.2s.6.3.9.6c.2.3.4.6.5 1 .1.4.2.8.2 1.3v5.2h-1.4V209c0-.6-.1-1.1-.4-1.5-.3-.3-.7-.5-1.2-.5-.2 0-.5 0-.7.1-.2.1-.4.2-.6.4s-.3.4-.4.6c-.1.2-.1.5-.1.8v5.2h-1.4V209c0-.7-.1-1.1-.4-1.5-.3-.3-.6-.5-1.2-.5-.4 0-.7.1-1 .3-.3.2-.6.5-.8.8v6.1h-1.4zm13.1-7c.5-.4.9-.8 1.5-1 .5-.2 1.1-.3 1.7-.3.5 0 .9.1 1.2.2s.7.4.9.6c.2.3.4.6.5 1 .1.4.2.8.2 1.3v5.2h-.6c-.1 0-.2 0-.3-.1s-.1-.1-.2-.3l-.2-.8c-.2.2-.4.4-.6.5-.2.2-.4.3-.6.4-.2.1-.5.2-.7.2-.3.1-.5.1-.9.1-.3 0-.6 0-.9-.1s-.5-.2-.7-.4c-.2-.2-.4-.4-.5-.7s-.2-.6-.2-1c0-.3.1-.6.3-.9s.5-.6.9-.8c.4-.2.9-.4 1.6-.6.6-.1 1.4-.2 2.4-.3v-.6c0-.6-.1-1.1-.4-1.4s-.7-.5-1.2-.5c-.4 0-.7 0-.9.1l-.6.3c-.2.1-.3.2-.5.3s-.3.1-.4.1c-.1 0-.2 0-.3-.1l-.2-.2-.3-.2zm4.6 3.3c-.7 0-1.2.1-1.7.2s-.8.2-1.1.3-.5.3-.6.5c-.1.2-.2.4-.2.6 0 .2 0 .4.1.6.1.2.2.3.3.4.1.1.3.2.4.2s.3.1.5.1c.3 0 .5 0 .7-.1.2-.1.4-.1.6-.2.2-.1.4-.2.5-.3.2-.1.3-.3.5-.5v-1.8zm4.9-3.3c.2-.2.4-.4.6-.5.2-.2.4-.3.6-.4.2-.1.5-.2.7-.3.3-.1.5-.1.8-.1.4 0 .8.1 1.2.2.3.1.6.4.9.6.2.3.4.6.5 1 .1.4.2.8.2 1.3v5.2h-1.4V209c0-.6-.1-1.1-.4-1.4-.3-.3-.7-.5-1.3-.5-.4 0-.8.1-1.2.3-.4.2-.7.5-1 .8v6h-1.4V206h.9c.2 0 .3.1.4.3l-.1.9zm7.5 0c.5-.4.9-.8 1.5-1 .5-.2 1.1-.3 1.7-.3.5 0 .9.1 1.2.2s.7.4.9.6c.2.3.4.6.5 1 .1.4.2.8.2 1.3v5.2h-.6c-.1 0-.2 0-.3-.1s-.1-.1-.2-.3l-.2-.8c-.2.2-.4.4-.6.5-.2.2-.4.3-.6.4-.2.1-.5.2-.7.2-.3.1-.5.1-.9.1-.3 0-.6 0-.9-.1s-.5-.2-.7-.4c-.2-.2-.4-.4-.5-.7s-.2-.6-.2-1c0-.3.1-.6.3-.9s.5-.6.9-.8c.4-.2.9-.4 1.6-.6.6-.1 1.4-.2 2.4-.3v-.6c0-.6-.1-1.1-.4-1.4s-.7-.5-1.2-.5c-.4 0-.7 0-.9.1l-.6.3c-.2.1-.3.2-.5.3s-.3.1-.4.1c-.1 0-.2 0-.3-.1l-.2-.2-.3-.2zm4.6 3.3c-.7 0-1.2.1-1.7.2s-.8.2-1.1.3-.5.3-.6.5c-.1.2-.2.4-.2.6 0 .2 0 .4.1.6.1.2.2.3.3.4.1.1.3.2.4.2s.3.1.5.1c.3 0 .5 0 .7-.1.2-.1.4-.1.6-.2.2-.1.4-.2.5-.3.2-.1.3-.3.5-.5v-1.8zm10.5-4.2v.5c0 .2-.1.3-.3.3l-.9.1c.2.4.3.7.3 1.2 0 .4-.1.8-.2 1.1-.2.3-.4.6-.6.8-.3.2-.6.4-1 .5s-.8.2-1.2.2c-.4 0-.7 0-1.1-.1-.2.1-.3.2-.4.3-.1.1-.1.2-.1.4s.1.3.2.4c.2.1.4.2.6.2s.6.1.9.1c.3 0 .7 0 1 .1s.7.1 1 .1l.9.3c.3.1.5.3.6.6.2.2.2.5.2.9 0 .3-.1.7-.3 1-.2.3-.4.6-.8.9-.3.3-.7.5-1.2.6-.5.2-1 .2-1.6.2-.6 0-1.1-.1-1.6-.2-.4-.1-.8-.3-1.1-.5-.3-.2-.5-.4-.7-.7-.1-.3-.2-.5-.2-.8 0-.4.1-.7.4-1 .3-.3.6-.5 1-.7-.2-.1-.4-.3-.6-.4-.1-.2-.2-.4-.2-.7 0-.1 0-.2.1-.4s.1-.3.2-.4.2-.2.3-.4c.1-.1.3-.2.5-.3-.4-.2-.7-.5-.9-.9-.2-.4-.3-.8-.3-1.3 0-.4.1-.8.2-1.1s.4-.6.6-.8c.3-.2.6-.4 1-.5.4-.1.8-.2 1.2-.2.4 0 .7 0 1 .1.3.1.6.2.8.3h2.3zm-1.5 8.3c0-.2-.1-.4-.2-.5-.1-.1-.3-.2-.5-.3-.2-.1-.4-.1-.7-.1s-.5-.1-.8-.1h-.9c-.3 0-.6 0-.8-.1-.3.1-.5.3-.7.5-.2.2-.3.5-.3.7 0 .2 0 .4.1.5s.2.3.4.4.4.2.7.3.6.1 1 .1.7 0 1-.1c.3-.1.6-.2.8-.3s.4-.3.5-.5c.4-.1.4-.3.4-.5zm-2.6-4.4c.3 0 .5 0 .8-.1l.6-.3c.2-.1.3-.3.3-.5.1-.2.1-.4.1-.7 0-.5-.2-.9-.5-1.2s-.7-.4-1.3-.4c-.6 0-1 .1-1.3.4s-.5.7-.5 1.2c0 .2 0 .5.1.7.1.2.2.4.3.5.2.1.3.3.6.3s.6.1.8.1zM438 213l-.6.6c-.2.2-.5.3-.8.4-.3.1-.6.2-.9.2-.3.1-.6.1-.9.1-.6 0-1.1-.1-1.6-.3-.5-.2-.9-.5-1.2-.8s-.6-.8-.8-1.4-.3-1.2-.3-1.9c0-.6.1-1.1.3-1.6.2-.5.4-.9.8-1.3.3-.4.7-.6 1.2-.9.5-.2 1-.3 1.6-.3.5 0 .9.1 1.4.2.4.2.8.4 1.1.7.3.3.5.7.7 1.1.2.5.3 1 .3 1.6 0 .2 0 .4-.1.5 0 .1-.1.1-.3.1h-5.5c0 .5.1 1 .2 1.3.1.4.3.7.5 1 .2.3.5.4.8.6s.7.2 1 .2c.4 0 .7 0 .9-.1s.5-.2.7-.3.3-.2.5-.3.2-.1.3-.1c.1 0 .2 0 .3.1l.4.6zm-1.2-3.8c0-.3 0-.6-.1-.9-.1-.3-.2-.5-.4-.7-.2-.2-.4-.4-.7-.5s-.6-.2-.9-.2c-.7 0-1.2.2-1.6.6s-.6 1-.7 1.7h4.4zm9.8-6.9v11.9h-.9c-.2 0-.3-.1-.4-.3l-.1-1c-.3.4-.7.8-1.2 1-.4.3-1 .4-1.5.4s-.9-.1-1.3-.3c-.4-.2-.7-.4-1-.8-.3-.3-.5-.8-.6-1.3-.1-.5-.2-1.1-.2-1.8 0-.6.1-1.2.2-1.7.2-.5.4-1 .7-1.3.3-.4.7-.7 1.1-.9.4-.2.9-.3 1.5-.3.5 0 .9.1 1.3.3s.7.4 1 .7v-4.5h1.4zm-1.4 5.6c-.3-.4-.6-.6-.9-.8s-.7-.2-1-.2c-.8 0-1.3.3-1.8.8s-.6 1.3-.6 2.3c0 .5 0 1 .1 1.4.1.4.2.7.4.9.2.2.4.4.7.5.3.1.6.2.9.2.5 0 .9-.1 1.2-.3.4-.2.7-.5 1-.9v-3.9zm12.6-.5c-.1.1-.2.2-.3.2-.1 0-.2 0-.3-.1-.1-.1-.2-.1-.4-.2-.1-.1-.3-.1-.5-.2s-.4-.1-.7-.1c-.2 0-.5 0-.7.1-.2.1-.4.1-.5.3-.1.1-.2.2-.3.4-.1.1-.1.3-.1.5s.1.4.2.5c.1.1.3.3.5.4s.4.2.7.3c.3.1.5.2.8.2.3.1.5.2.8.3.3.1.5.2.7.4.2.2.4.4.5.6.1.2.2.5.2.8 0 .4-.1.7-.2 1-.1.3-.3.6-.6.8-.3.2-.6.4-1 .6-.4.1-.8.2-1.3.2-.6 0-1.1-.1-1.5-.3-.5-.2-.9-.4-1.2-.7l.3-.5c0-.1.1-.1.2-.2.1 0 .1-.1.2-.1s.2 0 .3.1c.1.1.2.2.4.3s.3.2.6.3c.2.1.5.1.8.1.3 0 .5 0 .7-.1.2-.1.4-.2.5-.3.1-.1.2-.3.3-.4s.1-.3.1-.5-.1-.4-.2-.6c-.1-.1-.3-.3-.5-.4-.2-.1-.4-.2-.7-.3-.3-.1-.5-.2-.8-.2-.3-.1-.5-.2-.8-.3-.3-.1-.5-.2-.7-.4-.2-.2-.4-.4-.5-.6-.1-.2-.2-.5-.2-.9 0-.3.1-.6.2-.9.1-.3.3-.5.6-.8s.6-.4.9-.5c.4-.1.8-.2 1.2-.2.5 0 1 .1 1.4.3.4.2.8.4 1.1.7l-.2.4zm5.6-1.5c.6 0 1.1.1 1.6.3s.9.5 1.2.8c.3.4.6.8.8 1.3.2.5.3 1.1.3 1.7 0 .6-.1 1.2-.3 1.7-.2.5-.4 1-.8 1.3-.3.4-.7.6-1.2.8s-1 .3-1.6.3c-.6 0-1.1-.1-1.6-.3-.5-.2-.9-.5-1.2-.8-.3-.4-.6-.8-.8-1.3-.2-.5-.3-1.1-.3-1.7 0-.6.1-1.2.3-1.7s.4-1 .8-1.3c.3-.4.7-.6 1.2-.8.5-.2 1-.3 1.6-.3zm0 7.3c.8 0 1.4-.3 1.8-.8.4-.5.6-1.3.6-2.3 0-1-.2-1.7-.6-2.3s-1-.8-1.8-.8c-.4 0-.8.1-1.1.2s-.6.3-.8.6c-.2.3-.4.6-.5 1-.1.4-.1.8-.1 1.3 0 1 .2 1.7.6 2.3.5.5 1.1.8 1.9.8zm7.2-10.9v11.9h-1.4v-11.9h1.4zm9.1 3.7v8.2h-.9c-.2 0-.3-.1-.4-.3l-.1-.9c-.4.4-.8.7-1.2.9s-.9.4-1.5.4c-.4 0-.8-.1-1.2-.2-.3-.1-.6-.4-.9-.6-.2-.3-.4-.6-.5-1-.1-.4-.2-.8-.2-1.3V206h1.4v5.2c0 .6.1 1.1.4 1.4.3.3.7.5 1.3.5.4 0 .8-.1 1.2-.3.4-.2.7-.5 1-.8v-6h1.6zm9.8 8.2h-1.4v-7h-4.2v4.9c0 .3.1.6.3.8s.4.3.6.3c.2 0 .3 0 .4-.1s.2-.1.3-.1c.1 0 .1-.1.2-.1s.1-.1.1-.1c.1 0 .1 0 .2.1l.4.7c-.2.2-.5.4-.9.5-.3.1-.7.2-1.1.2-.6 0-1.1-.2-1.5-.5s-.5-.9-.5-1.6v-5h-1c-.1 0-.2 0-.2-.1-.1-.1-.1-.1-.1-.2v-.6l1.3-.2.3-2.5c0-.1.1-.1.1-.2s.1-.1.2-.1h.7v2.8h5.6v8.1zm.4-10.8c0 .1 0 .3-.1.4-.1.1-.1.2-.2.3-.1.1-.2.2-.3.2-.1.1-.3.1-.4.1s-.3 0-.4-.1-.2-.1-.3-.2c-.1-.1-.2-.2-.2-.3s-.1-.3-.1-.4 0-.3.1-.4.1-.2.2-.3c.1-.1.2-.2.3-.2s.3-.1.4-.1.3 0 .4.1c.1.1.2.1.3.2.1.1.2.2.2.3 0 .1.1.2.1.4zm5.4 2.5c.6 0 1.1.1 1.6.3s.9.5 1.2.8c.3.4.6.8.8 1.3.2.5.3 1.1.3 1.7 0 .6-.1 1.2-.3 1.7-.2.5-.4 1-.8 1.3-.3.4-.7.6-1.2.8s-1 .3-1.6.3c-.6 0-1.1-.1-1.6-.3-.5-.2-.9-.5-1.2-.8-.3-.4-.6-.8-.8-1.3-.2-.5-.3-1.1-.3-1.7 0-.6.1-1.2.3-1.7s.4-1 .8-1.3c.3-.4.7-.6 1.2-.8.5-.2 1-.3 1.6-.3zm0 7.3c.8 0 1.4-.3 1.8-.8.4-.5.6-1.3.6-2.3 0-1-.2-1.7-.6-2.3s-1-.8-1.8-.8c-.4 0-.8.1-1.1.2s-.6.3-.8.6c-.2.3-.4.6-.5 1-.1.4-.1.8-.1 1.3 0 1 .2 1.7.6 2.3.5.5 1.1.8 1.9.8zm7.1-6c.2-.2.4-.4.6-.5.2-.2.4-.3.6-.4.2-.1.5-.2.7-.3.3-.1.5-.1.8-.1.4 0 .8.1 1.2.2.3.1.6.4.9.6.2.3.4.6.5 1 .1.4.2.8.2 1.3v5.2h-1.4V209c0-.6-.1-1.1-.4-1.4-.3-.3-.7-.5-1.3-.5-.4 0-.8.1-1.2.3-.4.2-.7.5-1 .8v6H501V206h.9c.2 0 .3.1.4.3l.1.9zm-118.2 22c.5-.4.9-.8 1.5-1 .5-.2 1.1-.3 1.7-.3.5 0 .9.1 1.2.2s.7.4.9.6c.2.3.4.6.5 1 .1.4.2.8.2 1.3v5.2h-.6c-.1 0-.2 0-.3-.1s-.1-.1-.2-.3l-.2-.8c-.2.2-.4.4-.6.5-.2.2-.4.3-.6.4-.2.1-.5.2-.7.2-.3.1-.5.1-.9.1-.3 0-.6 0-.9-.1s-.5-.2-.7-.4c-.2-.2-.4-.4-.5-.7s-.2-.6-.2-1c0-.3.1-.6.3-.9s.5-.6.9-.8c.4-.2.9-.4 1.6-.6.6-.1 1.4-.2 2.4-.3v-.6c0-.6-.1-1.1-.4-1.4s-.7-.5-1.2-.5c-.4 0-.7 0-.9.1l-.6.3c-.2.1-.3.2-.5.3s-.3.1-.4.1c-.1 0-.2 0-.3-.1l-.2-.2-.3-.2zm4.6 3.3c-.7 0-1.2.1-1.7.2s-.8.2-1.1.3-.5.3-.6.5c-.1.2-.2.4-.2.6 0 .2 0 .4.1.6.1.2.2.3.3.4.1.1.3.2.4.2s.3.1.5.1c.3 0 .5 0 .7-.1.2-.1.4-.1.6-.2.2-.1.4-.2.5-.3.2-.1.3-.3.5-.5v-1.8zm10.4-8.2v11.9h-.9c-.2 0-.3-.1-.4-.3l-.1-1c-.3.4-.7.8-1.2 1-.4.3-1 .4-1.5.4s-.9-.1-1.3-.3c-.4-.2-.7-.4-1-.8-.3-.3-.5-.8-.6-1.3-.1-.5-.2-1.1-.2-1.8 0-.6.1-1.2.2-1.7.2-.5.4-1 .7-1.3.3-.4.7-.7 1.1-.9.4-.2.9-.3 1.5-.3.5 0 .9.1 1.3.3s.7.4 1 .7v-4.5h1.4zm-1.5 5.6c-.3-.4-.6-.6-.9-.8s-.7-.2-1-.2c-.8 0-1.3.3-1.8.8s-.6 1.3-.6 2.3c0 .5 0 1 .1 1.4.1.4.2.7.4.9.2.2.4.4.7.5.3.1.6.2.9.2.5 0 .9-.1 1.2-.3.4-.2.7-.5 1-.9v-3.9zm3.7 6.3V228h.9c.2 0 .3.1.4.3l.1.8c.3-.4.6-.7 1-.9.4-.2.8-.4 1.3-.4s1 .2 1.3.5c.3.3.6.7.7 1.2.1-.3.3-.6.5-.8s.4-.4.6-.5c.2-.1.5-.2.7-.3.3-.1.5-.1.8-.1.4 0 .8.1 1.1.2s.6.3.9.6c.2.3.4.6.5 1 .1.4.2.8.2 1.3v5.2H411V231c0-.6-.1-1.1-.4-1.5-.3-.3-.7-.5-1.2-.5-.2 0-.5 0-.7.1-.2.1-.4.2-.6.4s-.3.4-.4.6c-.1.2-.1.5-.1.8v5.2h-1.4V231c0-.7-.1-1.1-.4-1.5-.3-.3-.6-.5-1.2-.5-.4 0-.7.1-1 .3-.3.2-.6.5-.8.8v6.1h-1.4zm15.1-10.8c0 .1 0 .3-.1.4s-.1.2-.2.3c-.1.1-.2.2-.3.2-.1.1-.3.1-.4.1s-.3 0-.4-.1c-.1-.1-.2-.1-.3-.2-.1-.1-.2-.2-.2-.3s-.1-.3-.1-.4c0-.1 0-.3.1-.4s.1-.2.2-.3c.1-.1.2-.2.3-.2.1-.1.3-.1.4-.1s.3 0 .4.1c.1.1.2.1.3.2.1.1.2.2.2.3s.1.3.1.4zm-.3 2.6v8.2h-1.4V228h1.4zm3.7 1.2c.2-.2.4-.4.6-.5.2-.2.4-.3.6-.4.2-.1.5-.2.7-.3.3-.1.5-.1.8-.1.4 0 .8.1 1.2.2.3.1.6.4.9.6.2.3.4.6.5 1 .1.4.2.8.2 1.3v5.2H424V231c0-.6-.1-1.1-.4-1.4-.3-.3-.7-.5-1.3-.5-.4 0-.8.1-1.2.3-.4.2-.7.5-1 .8v6h-1.4V228h.9c.2 0 .3.1.4.3l-.1.9zm9.5-3.8c0 .1 0 .3-.1.4s-.1.2-.2.3c-.1.1-.2.2-.3.2-.1.1-.3.1-.4.1s-.3 0-.4-.1c-.1-.1-.2-.1-.3-.2-.1-.1-.2-.2-.2-.3s-.1-.3-.1-.4c0-.1 0-.3.1-.4s.1-.2.2-.3c.1-.1.2-.2.3-.2.1-.1.3-.1.4-.1s.3 0 .4.1c.1.1.2.1.3.2.1.1.2.2.2.3s.1.3.1.4zm-.3 2.6v8.2h-1.4V228h1.4zm7.1 1.4c-.1.1-.2.2-.3.2-.1 0-.2 0-.3-.1-.1-.1-.2-.1-.4-.2-.1-.1-.3-.1-.5-.2s-.4-.1-.7-.1c-.2 0-.5 0-.7.1-.2.1-.4.1-.5.3-.1.1-.2.2-.3.4-.1.1-.1.3-.1.5s.1.4.2.5c.1.1.3.3.5.4s.4.2.7.3c.3.1.5.2.8.2.3.1.5.2.8.3.3.1.5.2.7.4.2.2.4.4.5.6.1.2.2.5.2.8 0 .4-.1.7-.2 1-.1.3-.3.6-.6.8-.3.2-.6.4-1 .6-.4.1-.8.2-1.3.2-.6 0-1.1-.1-1.5-.3-.5-.2-.9-.4-1.2-.7l.3-.5c0-.1.1-.1.2-.2.1 0 .1-.1.2-.1s.2 0 .3.1c.1.1.2.2.4.3s.3.2.6.3c.2.1.5.1.8.1.3 0 .5 0 .7-.1.2-.1.4-.2.5-.3.1-.1.2-.3.3-.4s.1-.3.1-.5-.1-.4-.2-.6c-.1-.1-.3-.3-.5-.4-.2-.1-.4-.2-.7-.3-.3-.1-.5-.2-.8-.2-.3-.1-.5-.2-.8-.3-.3-.1-.5-.2-.7-.4-.2-.2-.4-.4-.5-.6-.1-.2-.2-.5-.2-.9 0-.3.1-.6.2-.9.1-.3.3-.5.6-.8s.6-.4.9-.5c.4-.1.8-.2 1.2-.2.5 0 1 .1 1.4.3.4.2.8.4 1.1.7l-.2.4zm4.7 6.9c-.6 0-1.1-.2-1.5-.5s-.5-.9-.5-1.6v-5h-1c-.1 0-.2 0-.2-.1-.1-.1-.1-.1-.1-.2v-.6l1.3-.2.3-2.5c0-.1.1-.1.1-.2s.1-.1.2-.1h.7v2.8h2.4v1h-2.4v4.9c0 .3.1.6.3.8s.4.3.6.3c.2 0 .3 0 .4-.1s.2-.1.3-.1c.1 0 .1-.1.2-.1s.1-.1.1-.1c.1 0 .1 0 .2.1l.4.7c-.2.2-.5.4-.9.5-.1.2-.5.3-.9.3zm4.7-6.7c.3-.6.6-1 1-1.3s.8-.5 1.4-.5c.2 0 .3 0 .5.1.2 0 .3.1.4.2l-.1 1.1c0 .1-.1.2-.2.2h-.8c-.3 0-.5 0-.7.1s-.4.2-.5.3c-.2.1-.3.3-.4.5-.1.2-.2.5-.3.7v5.2h-1.4V228h.8c.2 0 .3 0 .3.1.1.1.1.2.1.3l-.1 1.2zm4.1-.4c.5-.4.9-.8 1.5-1 .5-.2 1.1-.3 1.7-.3.5 0 .9.1 1.2.2s.7.4.9.6c.2.3.4.6.5 1 .1.4.2.8.2 1.3v5.2h-.6c-.1 0-.2 0-.3-.1s-.1-.1-.2-.3l-.2-.8c-.2.2-.4.4-.6.5-.2.2-.4.3-.6.4-.2.1-.5.2-.7.2-.3.1-.5.1-.9.1-.3 0-.6 0-.9-.1s-.5-.2-.7-.4c-.2-.2-.4-.4-.5-.7s-.2-.6-.2-1c0-.3.1-.6.3-.9s.5-.6.9-.8c.4-.2.9-.4 1.6-.6.6-.1 1.4-.2 2.4-.3v-.6c0-.6-.1-1.1-.4-1.4s-.7-.5-1.2-.5c-.4 0-.7 0-.9.1l-.6.3c-.2.1-.3.2-.5.3s-.3.1-.4.1c-.1 0-.2 0-.3-.1l-.2-.2-.3-.2zm4.7 3.3c-.7 0-1.2.1-1.7.2s-.8.2-1.1.3-.5.3-.6.5c-.1.2-.2.4-.2.6 0 .2 0 .4.1.6.1.2.2.3.3.4.1.1.3.2.4.2s.3.1.5.1c.3 0 .5 0 .7-.1.2-.1.4-.1.6-.2.2-.1.4-.2.5-.3.2-.1.3-.3.5-.5v-1.8zm11 3.7H464v-7h-4.2v4.9c0 .3.1.6.3.8s.4.3.6.3c.2 0 .3 0 .4-.1s.2-.1.3-.1c.1 0 .1-.1.2-.1s.1-.1.1-.1c.1 0 .1 0 .2.1l.4.7c-.2.2-.5.4-.9.5-.3.1-.7.2-1.1.2-.6 0-1.1-.2-1.5-.5s-.5-.9-.5-1.6v-5h-1c-.1 0-.2 0-.2-.1-.1-.1-.1-.1-.1-.2v-.6l1.3-.2.3-2.5c0-.1.1-.1.1-.2s.1-.1.2-.1h.7v2.8h5.6v8.1zm.4-10.8c0 .1 0 .3-.1.4-.1.1-.1.2-.2.3-.1.1-.2.2-.3.2-.1.1-.3.1-.4.1s-.3 0-.4-.1-.2-.1-.3-.2c-.1-.1-.2-.2-.2-.3s-.1-.3-.1-.4 0-.3.1-.4.1-.2.2-.3c.1-.1.2-.2.3-.2s.3-.1.4-.1.3 0 .4.1c.1.1.2.1.3.2.1.1.2.2.2.3.1.1.1.2.1.4zm5.4 2.5c.6 0 1.1.1 1.6.3s.9.5 1.2.8c.3.4.6.8.8 1.3.2.5.3 1.1.3 1.7 0 .6-.1 1.2-.3 1.7-.2.5-.4 1-.8 1.3-.3.4-.7.6-1.2.8s-1 .3-1.6.3c-.6 0-1.1-.1-1.6-.3-.5-.2-.9-.5-1.2-.8-.3-.4-.6-.8-.8-1.3-.2-.5-.3-1.1-.3-1.7 0-.6.1-1.2.3-1.7s.4-1 .8-1.3c.3-.4.7-.6 1.2-.8.5-.2 1-.3 1.6-.3zm0 7.3c.8 0 1.4-.3 1.8-.8.4-.5.6-1.3.6-2.3 0-1-.2-1.7-.6-2.3s-1-.8-1.8-.8c-.4 0-.8.1-1.1.2s-.6.3-.8.6c-.2.3-.4.6-.5 1-.1.4-.1.8-.1 1.3 0 1 .2 1.7.6 2.3.5.5 1.1.8 1.9.8zm7.1-6c.2-.2.4-.4.6-.5.2-.2.4-.3.6-.4.2-.1.5-.2.7-.3.3-.1.5-.1.8-.1.4 0 .8.1 1.2.2.3.1.6.4.9.6.2.3.4.6.5 1 .1.4.2.8.2 1.3v5.2h-1.4V231c0-.6-.1-1.1-.4-1.4-.3-.3-.7-.5-1.3-.5-.4 0-.8.1-1.2.3-.4.2-.7.5-1 .8v6h-1.4V228h.9c.2 0 .3.1.4.3l-.1.9z"
     fill="#454545"
     id="path24" />
  <path
     d="M90.8 207.4v.6l-6.2 3.2v-1c0-.1 0-.2.1-.2 0-.1.1-.1.2-.2l3.6-1.8c.1-.1.2-.1.3-.1.1 0 .2-.1.4-.1-.3-.1-.5-.1-.7-.3l-3.6-1.8c-.1-.1-.2-.1-.2-.2s-.1-.1-.1-.2v-1l6.2 3.1z"
     fill="#00b7d3"
     id="path26" />
  <path
     d="M107.6 205v8.2h-.9c-.2 0-.3-.1-.4-.3l-.1-.9c-.4.4-.8.7-1.2.9s-.9.4-1.5.4c-.4 0-.8-.1-1.2-.2-.3-.1-.6-.4-.9-.6-.2-.3-.4-.6-.5-1-.1-.4-.2-.8-.2-1.3V205h1.4v5.2c0 .6.1 1.1.4 1.4.3.3.7.5 1.3.5.4 0 .8-.1 1.2-.3.4-.2.7-.5 1-.8v-6h1.6zm3.6 1.2c.2-.2.4-.4.6-.5.2-.2.4-.3.6-.4.2-.1.5-.2.7-.3.3-.1.5-.1.8-.1.4 0 .8.1 1.2.2.3.1.6.4.9.6.2.3.4.6.5 1 .1.4.2.8.2 1.3v5.2h-1.4V208c0-.6-.1-1.1-.4-1.4-.3-.3-.7-.5-1.3-.5-.4 0-.8.1-1.2.3-.4.2-.7.5-1 .8v6H110V205h.9c.2 0 .3.1.4.3l-.1.9zm9.5-3.8c0 .1 0 .3-.1.4s-.1.2-.2.3c-.1.1-.2.2-.3.2-.1.1-.3.1-.4.1s-.3 0-.4-.1c-.1-.1-.2-.1-.3-.2-.1-.1-.2-.2-.2-.3s-.1-.3-.1-.4c0-.1 0-.3.1-.4s.1-.2.2-.3c.1-.1.2-.2.3-.2.1-.1.3-.1.4-.1s.3 0 .4.1c.1.1.2.1.3.2.1.1.2.2.2.3s.1.3.1.4zm-.3 2.6v8.2H119V205h1.4zm2.9 8.1v-6.9l-.9-.1c-.1 0-.2-.1-.3-.1-.1-.1-.1-.1-.1-.2v-.6h1.3v-.5c0-.5.1-1 .2-1.4.2-.4.4-.8.7-1.1s.7-.5 1.2-.7c.5-.2 1-.3 1.6-.3h.6c.2 0 .4.1.6.1l-.1.8c0 .1 0 .1-.1.1h-.6c-1 0-1.7.2-2.1.6-.4.4-.6 1-.6 1.8v.4h4.9v8h-1.4v-7h-3.5v7h-1.4zm15.3-1.1l-.6.6c-.2.2-.5.3-.8.4-.3.1-.6.2-.9.2-.3.1-.6.1-.9.1-.6 0-1.1-.1-1.6-.3-.5-.2-.9-.5-1.2-.8s-.6-.8-.8-1.4-.3-1.2-.3-1.9c0-.6.1-1.1.3-1.6.2-.5.4-.9.8-1.3.3-.4.7-.6 1.2-.9.5-.2 1-.3 1.6-.3.5 0 .9.1 1.4.2.4.2.8.4 1.1.7.3.3.5.7.7 1.1.2.5.3 1 .3 1.6 0 .2 0 .4-.1.5 0 .1-.1.1-.3.1H133c0 .5.1 1 .2 1.3.1.4.3.7.5 1 .2.3.5.4.8.6s.7.2 1 .2c.4 0 .7 0 .9-.1s.5-.2.7-.3.3-.2.5-.3.2-.1.3-.1c.1 0 .2 0 .3.1l.4.6zm-1.2-3.8c0-.3 0-.6-.1-.9-.1-.3-.2-.5-.4-.7-.2-.2-.4-.4-.7-.5s-.6-.2-.9-.2c-.7 0-1.2.2-1.6.6s-.6 1-.7 1.7h4.4zm9.8-6.9v11.9h-.9c-.2 0-.3-.1-.4-.3l-.1-1c-.3.4-.7.8-1.2 1-.4.3-1 .4-1.5.4s-.9-.1-1.3-.3c-.4-.2-.7-.4-1-.8-.3-.3-.5-.8-.6-1.3-.1-.5-.2-1.1-.2-1.8 0-.6.1-1.2.2-1.7.2-.5.4-1 .7-1.3.3-.4.7-.7 1.1-.9.4-.2.9-.3 1.5-.3.5 0 .9.1 1.3.3s.7.4 1 .7v-4.5h1.4zm-1.4 5.6c-.3-.4-.6-.6-.9-.8s-.7-.2-1-.2c-.8 0-1.3.3-1.8.8s-.6 1.3-.6 2.3c0 .5 0 1 .1 1.4.1.4.2.7.4.9.2.2.4.4.7.5.3.1.6.2.9.2.5 0 .9-.1 1.2-.3.4-.2.7-.5 1-.9v-3.9zm14.5-1.9v8.2h-.9c-.2 0-.3-.1-.4-.3v-.9c-.4.4-.8.7-1.2.9s-.9.4-1.5.4c-.4 0-.8-.1-1.2-.2-.3-.1-.6-.4-.9-.6-.2-.3-.4-.6-.5-1-.1-.4-.2-.8-.2-1.3V205h1.4v5.2c0 .6.1 1.1.4 1.4.3.3.7.5 1.3.5.4 0 .8-.1 1.2-.3.4-.2.7-.5 1-.8v-6h1.5zm7.1 1.3c-.1.1-.2.2-.3.2-.1 0-.2 0-.3-.1-.1-.1-.2-.1-.4-.2-.1-.1-.3-.1-.5-.2s-.4-.1-.7-.1c-.2 0-.5 0-.7.1-.2.1-.4.1-.5.3-.1.1-.2.2-.3.4-.1.1-.1.3-.1.5s.1.4.2.5c.1.1.3.3.5.4s.4.2.7.3c.3.1.5.2.8.2.3.1.5.2.8.3.3.1.5.2.7.4.2.2.4.4.5.6.1.2.2.5.2.8 0 .4-.1.7-.2 1-.1.3-.3.6-.6.8-.3.2-.6.4-1 .6-.4.1-.8.2-1.3.2-.6 0-1.1-.1-1.5-.3-.5-.2-.9-.4-1.2-.7l.3-.5c0-.1.1-.1.2-.2.1 0 .1-.1.2-.1s.2 0 .3.1c.1.1.2.2.4.3s.3.2.6.3c.2.1.5.1.8.1.3 0 .5 0 .7-.1.2-.1.4-.2.5-.3.1-.1.2-.3.3-.4s.1-.3.1-.5-.1-.4-.2-.6c-.1-.1-.3-.3-.5-.4-.2-.1-.4-.2-.7-.3-.3-.1-.5-.2-.8-.2-.3-.1-.5-.2-.8-.3-.3-.1-.5-.2-.7-.4-.2-.2-.4-.4-.5-.6-.1-.2-.2-.5-.2-.9 0-.3.1-.6.2-.9.1-.3.3-.5.6-.8s.6-.4.9-.5c.4-.1.8-.2 1.2-.2.5 0 1 .1 1.4.3.4.2.8.4 1.1.7l-.2.4zm8.8 5.7l-.6.6c-.2.2-.5.3-.8.4-.3.1-.6.2-.9.2-.3.1-.6.1-.9.1-.6 0-1.1-.1-1.6-.3-.5-.2-.9-.5-1.2-.8s-.6-.8-.8-1.4-.3-1.2-.3-1.9c0-.6.1-1.1.3-1.6.2-.5.4-.9.8-1.3.3-.4.7-.6 1.2-.9.5-.2 1-.3 1.6-.3.5 0 .9.1 1.4.2.4.2.8.4 1.1.7.3.3.5.7.7 1.1.2.5.3 1 .3 1.6 0 .2 0 .4-.1.5 0 .1-.1.1-.3.1h-5.5c0 .5.1 1 .2 1.3.1.4.3.7.5 1 .2.3.5.4.8.6s.7.2 1 .2c.4 0 .7 0 .9-.1s.5-.2.7-.3.3-.2.5-.3.2-.1.3-.1c.1 0 .2 0 .3.1l.4.6zm-1.2-3.8c0-.3 0-.6-.1-.9-.1-.3-.2-.5-.4-.7-.2-.2-.4-.4-.7-.5s-.6-.2-.9-.2c-.7 0-1.2.2-1.6.6s-.6 1-.7 1.7h4.4zm4.5-1.6c.3-.6.6-1 1-1.3s.8-.5 1.4-.5c.2 0 .3 0 .5.1.2 0 .3.1.4.2l-.1 1.1c0 .1-.1.2-.2.2h-.8c-.3 0-.5 0-.7.1s-.4.2-.5.3c-.2.1-.3.3-.4.5-.1.2-.2.5-.3.7v5.2h-1.4V205h.8c.2 0 .3 0 .3.1.1.1.1.2.1.3l-.1 1.2zm10.1-4.2c0 .1 0 .3-.1.4s-.1.2-.2.3c-.1.1-.2.2-.3.2-.1.1-.3.1-.4.1s-.3 0-.4-.1c-.1-.1-.2-.1-.3-.2-.1-.1-.2-.2-.2-.3s-.1-.3-.1-.4c0-.1 0-.3.1-.4s.1-.2.2-.3c.1-.1.2-.2.3-.2.1-.1.3-.1.4-.1s.3 0 .4.1c.1.1.2.1.3.2.1.1.2.2.2.3s.1.3.1.4zm-.3 2.6v8.2h-1.4V205h1.4zm9.1-3.7v11.9h-.9c-.2 0-.3-.1-.4-.3l-.1-1c-.3.4-.7.8-1.2 1-.4.3-1 .4-1.5.4s-.9-.1-1.3-.3c-.4-.2-.7-.4-1-.8-.3-.3-.5-.8-.6-1.3-.1-.5-.2-1.1-.2-1.8 0-.6.1-1.2.2-1.7.2-.5.4-1 .7-1.3.3-.4.7-.7 1.1-.9.4-.2.9-.3 1.5-.3.5 0 .9.1 1.3.3s.7.4 1 .7v-4.5h1.4zm-1.5 5.6c-.3-.4-.6-.6-.9-.8s-.7-.2-1-.2c-.8 0-1.3.3-1.8.8s-.6 1.3-.6 2.3c0 .5 0 1 .1 1.4.1.4.2.7.4.9.2.2.4.4.7.5.3.1.6.2.9.2.5 0 .9-.1 1.2-.3.4-.2.7-.5 1-.9v-3.9zm10.4 5.1l-.6.6c-.2.2-.5.3-.8.4-.3.1-.6.2-.9.2-.3.1-.6.1-.9.1-.6 0-1.1-.1-1.6-.3-.5-.2-.9-.5-1.2-.8s-.6-.8-.8-1.4-.3-1.2-.3-1.9c0-.6.1-1.1.3-1.6.2-.5.4-.9.8-1.3.3-.4.7-.6 1.2-.9.5-.2 1-.3 1.6-.3.5 0 .9.1 1.4.2.4.2.8.4 1.1.7.3.3.5.7.7 1.1.2.5.3 1 .3 1.6 0 .2 0 .4-.1.5 0 .1-.1.1-.3.1h-5.5c0 .5.1 1 .2 1.3.1.4.3.7.5 1 .2.3.5.4.8.6s.7.2 1 .2c.4 0 .7 0 .9-.1s.5-.2.7-.3.3-.2.5-.3.2-.1.3-.1c.1 0 .2 0 .3.1l.4.6zm-1.2-3.8c0-.3 0-.6-.1-.9-.1-.3-.2-.5-.4-.7-.2-.2-.4-.4-.7-.5s-.6-.2-.9-.2c-.7 0-1.2.2-1.6.6s-.6 1-.7 1.7h4.4zm4.4-2c.2-.2.4-.4.6-.5.2-.2.4-.3.6-.4.2-.1.5-.2.7-.3.3-.1.5-.1.8-.1.4 0 .8.1 1.2.2.3.1.6.4.9.6.2.3.4.6.5 1 .1.4.2.8.2 1.3v5.2h-1.4V208c0-.6-.1-1.1-.4-1.4-.3-.3-.7-.5-1.3-.5-.4 0-.8.1-1.2.3-.4.2-.7.5-1 .8v6h-1.4V205h.9c.2 0 .3.1.4.3l-.1.9zm15.1 6.9h-1.4v-7H220v4.9c0 .3.1.6.3.8s.4.3.6.3c.2 0 .3 0 .4-.1s.2-.1.3-.1c.1 0 .1-.1.2-.1s.1-.1.1-.1c.1 0 .1 0 .2.1l.4.7c-.2.2-.5.4-.9.5-.3.1-.7.2-1.1.2-.6 0-1.1-.2-1.5-.5s-.5-.9-.5-1.6v-5h-1c-.1 0-.2 0-.2-.1-.1-.1-.1-.1-.1-.2v-.6l1.3-.2.3-2.5c0-.1.1-.1.1-.2s.1-.1.2-.1h.7v2.8h5.6v8.1zm.4-10.7c0 .1 0 .3-.1.4-.1.1-.1.2-.2.3-.1.1-.2.2-.3.2-.1.1-.3.1-.4.1s-.3 0-.4-.1-.2-.1-.3-.2c-.1-.1-.2-.2-.2-.3s-.1-.3-.1-.4 0-.3.1-.4.1-.2.2-.3c.1-.1.2-.2.3-.2s.3-.1.4-.1.3 0 .4.1c.1.1.2.1.3.2.1.1.2.2.2.3 0 .1.1.2.1.4zm4.5 10.9c-.6 0-1.1-.2-1.5-.5s-.5-.9-.5-1.6v-5h-1c-.1 0-.2 0-.2-.1-.1-.1-.1-.1-.1-.2v-.6l1.3-.2.3-2.5c0-.1.1-.1.1-.2s.1-.1.2-.1h.7v2.8h2.4v1h-2.4v4.9c0 .3.1.6.3.8s.4.3.6.3c.2 0 .3 0 .4-.1s.2-.1.3-.1c.1 0 .1-.1.2-.1s.1-.1.1-.1c.1 0 .1 0 .2.1l.4.7c-.2.2-.5.4-.9.5-.2.2-.5.3-.9.3zm10.3-8.3l-4.6 10.6c0 .1-.1.2-.2.3s-.2.1-.3.1h-1.1l1.5-3.2-3.4-7.7h1.2c.1 0 .2 0 .3.1.1.1.1.1.1.2l2.2 5.1c.1.2.2.5.2.7.1-.3.2-.5.2-.7l2.1-5.1c0-.1.1-.2.2-.2.1-.1.2-.1.3-.1h1.3zm-140.4 30.1V227h.9c.2 0 .3.1.4.3l.1.8c.3-.4.6-.7 1-.9.4-.2.8-.4 1.3-.4s1 .2 1.3.5c.3.3.6.7.7 1.2.1-.3.3-.6.5-.8s.4-.4.6-.5c.2-.1.5-.2.7-.3.3-.1.5-.1.8-.1.4 0 .8.1 1.1.2s.6.3.9.6c.2.3.4.6.5 1 .1.4.2.8.2 1.3v5.2H110v-5.2c0-.6-.1-1.1-.4-1.5-.3-.3-.7-.5-1.2-.5-.2 0-.5 0-.7.1-.2.1-.4.2-.6.4s-.3.4-.4.6c-.1.2-.1.5-.1.8v5.2h-1.4v-5.2c0-.7-.1-1.1-.4-1.5-.3-.3-.6-.5-1.2-.5-.4 0-.7.1-1 .3-.3.2-.6.5-.8.8v6.1h-1.4zm13.1-7c.5-.4.9-.8 1.5-1 .5-.2 1.1-.3 1.7-.3.5 0 .9.1 1.2.2s.7.4.9.6c.2.3.4.6.5 1 .1.4.2.8.2 1.3v5.2h-.6c-.1 0-.2 0-.3-.1s-.1-.1-.2-.3l-.2-.8c-.2.2-.4.4-.6.5-.2.2-.4.3-.6.4-.2.1-.5.2-.7.2-.3.1-.5.1-.9.1-.3 0-.6 0-.9-.1s-.5-.2-.7-.4c-.2-.2-.4-.4-.5-.7s-.2-.6-.2-1c0-.3.1-.6.3-.9s.5-.6.9-.8c.4-.2.9-.4 1.6-.6.6-.1 1.4-.2 2.4-.3v-.6c0-.6-.1-1.1-.4-1.4s-.7-.5-1.2-.5c-.4 0-.7 0-.9.1l-.6.3c-.2.1-.3.2-.5.3s-.3.1-.4.1c-.1 0-.2 0-.3-.1l-.2-.2-.3-.2zm4.6 3.4c-.7 0-1.2.1-1.7.2s-.8.2-1.1.3-.5.3-.6.5c-.1.2-.2.4-.2.6 0 .2 0 .4.1.6.1.2.2.3.3.4.1.1.3.2.4.2s.3.1.5.1c.3 0 .5 0 .7-.1.2-.1.4-.1.6-.2.2-.1.4-.2.5-.3.2-.1.3-.3.5-.5v-1.8zm5-3.3c.2-.2.4-.4.6-.5.2-.2.4-.3.6-.4.2-.1.5-.2.7-.3.3-.1.5-.1.8-.1.4 0 .8.1 1.2.2.3.1.6.4.9.6.2.3.4.6.5 1 .1.4.2.8.2 1.3v5.2h-1.4V230c0-.6-.1-1.1-.4-1.4-.3-.3-.7-.5-1.3-.5-.4 0-.8.1-1.2.3-.4.2-.7.5-1 .8v6h-1.4V227h.9c.2 0 .3.1.4.3l-.1.9zm7.4-.1c.5-.4.9-.8 1.5-1 .5-.2 1.1-.3 1.7-.3.5 0 .9.1 1.2.2s.7.4.9.6c.2.3.4.6.5 1 .1.4.2.8.2 1.3v5.2h-.6c-.1 0-.2 0-.3-.1s-.1-.1-.2-.3l-.2-.8c-.2.2-.4.4-.6.5-.2.2-.4.3-.6.4-.2.1-.5.2-.7.2-.3.1-.5.1-.9.1-.3 0-.6 0-.9-.1s-.5-.2-.7-.4c-.2-.2-.4-.4-.5-.7s-.2-.6-.2-1c0-.3.1-.6.3-.9s.5-.6.9-.8c.4-.2.9-.4 1.6-.6.6-.1 1.4-.2 2.4-.3v-.6c0-.6-.1-1.1-.4-1.4s-.7-.5-1.2-.5c-.4 0-.7 0-.9.1l-.6.3c-.2.1-.3.2-.5.3s-.3.1-.4.1c-.1 0-.2 0-.3-.1l-.2-.2-.3-.2zm4.6 3.4c-.7 0-1.2.1-1.7.2s-.8.2-1.1.3-.5.3-.6.5c-.1.2-.2.4-.2.6 0 .2 0 .4.1.6.1.2.2.3.3.4.1.1.3.2.4.2s.3.1.5.1c.3 0 .5 0 .7-.1.2-.1.4-.1.6-.2.2-.1.4-.2.5-.3.2-.1.3-.3.5-.5v-1.8zm10.5-4.2v.5c0 .2-.1.3-.3.3l-.9.1c.2.4.3.7.3 1.2 0 .4-.1.8-.2 1.1-.2.3-.4.6-.6.8-.3.2-.6.4-1 .5s-.8.2-1.2.2c-.4 0-.7 0-1.1-.1-.2.1-.3.2-.4.3-.1.1-.1.2-.1.4s.1.3.2.4c.2.1.4.2.6.2s.6.1.9.1c.3 0 .7 0 1 .1s.7.1 1 .1l.9.3c.3.1.5.3.6.6.2.2.2.5.2.9 0 .3-.1.7-.3 1-.2.3-.4.6-.8.9-.3.3-.7.5-1.2.6-.5.2-1 .2-1.6.2-.6 0-1.1-.1-1.6-.2-.4-.1-.8-.3-1.1-.5-.3-.2-.5-.4-.7-.7-.1-.3-.2-.5-.2-.8 0-.4.1-.7.4-1 .3-.3.6-.5 1-.7-.2-.1-.4-.3-.6-.4-.1-.2-.2-.4-.2-.7 0-.1 0-.2.1-.4s.1-.3.2-.4.2-.2.3-.4c.1-.1.3-.2.5-.3-.4-.2-.7-.5-.9-.9-.2-.4-.3-.8-.3-1.3 0-.4.1-.8.2-1.1s.4-.6.6-.8c.3-.2.6-.4 1-.5.4-.1.8-.2 1.2-.2.4 0 .7 0 1 .1.3.1.6.2.8.3h2.3zm-1.4 8.3c0-.2-.1-.4-.2-.5-.1-.1-.3-.2-.5-.3-.2-.1-.4-.1-.7-.1s-.5-.1-.8-.1h-.9c-.3 0-.6 0-.8-.1-.3.1-.5.3-.7.5-.2.2-.3.5-.3.7 0 .2 0 .4.1.5s.2.3.4.4.4.2.7.3.6.1 1 .1.7 0 1-.1c.3-.1.6-.2.8-.3s.4-.3.5-.5c.3-.1.4-.3.4-.5zm-2.6-4.5c.3 0 .5 0 .8-.1l.6-.3c.2-.1.3-.3.3-.5.1-.2.1-.4.1-.7 0-.5-.2-.9-.5-1.2s-.7-.4-1.3-.4c-.6 0-1 .1-1.3.4s-.5.7-.5 1.2c0 .2 0 .5.1.7.1.2.2.4.3.5.2.1.3.3.6.3.2.1.5.1.8.1zm12 2.9l-.6.6c-.2.2-.5.3-.8.4-.3.1-.6.2-.9.2-.3.1-.6.1-.9.1-.6 0-1.1-.1-1.6-.3-.5-.2-.9-.5-1.2-.8s-.6-.8-.8-1.4-.3-1.2-.3-1.9c0-.6.1-1.1.3-1.6.2-.5.4-.9.8-1.3.3-.4.7-.6 1.2-.9.5-.2 1-.3 1.6-.3.5 0 .9.1 1.4.2.4.2.8.4 1.1.7.3.3.5.7.7 1.1.2.5.3 1 .3 1.6 0 .2 0 .4-.1.5 0 .1-.1.1-.3.1H148c0 .5.1 1 .2 1.3.1.4.3.7.5 1 .2.3.5.4.8.6s.7.2 1 .2c.4 0 .7 0 .9-.1s.5-.2.7-.3.3-.2.5-.3.2-.1.3-.1c.1 0 .2 0 .3.1l.4.6zm-1.1-3.8c0-.3 0-.6-.1-.9-.1-.3-.2-.5-.4-.7-.2-.2-.4-.4-.7-.5s-.6-.2-.9-.2c-.7 0-1.2.2-1.6.6s-.6 1-.7 1.7h4.4zm3 4.9V227h.9c.2 0 .3.1.4.3l.1.8c.3-.4.6-.7 1-.9.4-.2.8-.4 1.3-.4s1 .2 1.3.5c.3.3.6.7.7 1.2.1-.3.3-.6.5-.8s.4-.4.6-.5c.2-.1.5-.2.7-.3.3-.1.5-.1.8-.1.4 0 .8.1 1.1.2s.6.3.9.6c.2.3.4.6.5 1 .1.4.2.8.2 1.3v5.2h-1.4v-5.2c0-.6-.1-1.1-.4-1.5-.3-.3-.7-.5-1.2-.5-.2 0-.5 0-.7.1-.2.1-.4.2-.6.4s-.3.4-.4.6c-.1.2-.1.5-.1.8v5.2h-1.4v-5.2c0-.7-.1-1.1-.4-1.5-.3-.3-.6-.5-1.2-.5-.4 0-.7.1-1 .3-.3.2-.6.5-.8.8v6.1h-1.4zm19.9-1.1l-.6.6c-.2.2-.5.3-.8.4-.3.1-.6.2-.9.2-.3.1-.6.1-.9.1-.6 0-1.1-.1-1.6-.3-.5-.2-.9-.5-1.2-.8s-.6-.8-.8-1.4-.3-1.2-.3-1.9c0-.6.1-1.1.3-1.6.2-.5.4-.9.8-1.3.3-.4.7-.6 1.2-.9.5-.2 1-.3 1.6-.3.5 0 .9.1 1.4.2.4.2.8.4 1.1.7.3.3.5.7.7 1.1.2.5.3 1 .3 1.6 0 .2 0 .4-.1.5 0 .1-.1.1-.3.1h-5.5c0 .5.1 1 .2 1.3.1.4.3.7.5 1 .2.3.5.4.8.6s.7.2 1 .2c.4 0 .7 0 .9-.1s.5-.2.7-.3.3-.2.5-.3.2-.1.3-.1c.1 0 .2 0 .3.1l.4.6zm-1.2-3.8c0-.3 0-.6-.1-.9-.1-.3-.2-.5-.4-.7-.2-.2-.4-.4-.7-.5s-.6-.2-.9-.2c-.7 0-1.2.2-1.6.6s-.6 1-.7 1.7h4.4zm4.4-2c.2-.2.4-.4.6-.5.2-.2.4-.3.6-.4.2-.1.5-.2.7-.3.3-.1.5-.1.8-.1.4 0 .8.1 1.2.2.3.1.6.4.9.6.2.3.4.6.5 1 .1.4.2.8.2 1.3v5.2h-1.4V230c0-.6-.1-1.1-.4-1.4-.3-.3-.7-.5-1.3-.5-.4 0-.8.1-1.2.3-.4.2-.7.5-1 .8v6h-1.4V227h.9c.2 0 .3.1.4.3l-.1.9zm10.1 7.1c-.6 0-1.1-.2-1.5-.5s-.5-.9-.5-1.6v-5h-1c-.1 0-.2 0-.2-.1-.1-.1-.1-.1-.1-.2v-.6l1.3-.2.3-2.5c0-.1.1-.1.1-.2s.1-.1.2-.1h.7v2.8h2.4v1H188v4.9c0 .3.1.6.3.8s.4.3.6.3c.2 0 .3 0 .4-.1s.2-.1.3-.1c.1 0 .1-.1.2-.1s.1-.1.1-.1c.1 0 .1 0 .2.1l.4.7c-.2.2-.5.4-.9.5-.2.2-.6.3-.9.3zm7.9-.2v-6.9l-.9-.1c-.1 0-.2-.1-.3-.1-.1-.1-.1-.1-.1-.2v-.6h1.3v-.8c0-.5.1-.9.2-1.2.1-.4.3-.7.6-.9.2-.3.5-.4.9-.6s.7-.2 1.2-.2c.4 0 .7.1 1 .2v.7c0 .1-.1.2-.2.2h-.5c-.2 0-.5 0-.7.1-.2.1-.4.2-.5.3-.1.1-.3.3-.3.6-.1.2-.1.5-.1.9v.8h2.4v1H198v7h-1.4zm6.5-6.5c.3-.6.6-1 1-1.3s.8-.5 1.4-.5c.2 0 .3 0 .5.1.2 0 .3.1.4.2l-.1 1.1c0 .1-.1.2-.2.2h-.8c-.3 0-.5 0-.7.1s-.4.2-.5.3c-.2.1-.3.3-.4.5-.1.2-.2.5-.3.7v5.2H202V227h.8c.2 0 .3 0 .3.1.1.1.1.2.1.3l-.1 1.2zm7.6-1.8c.6 0 1.1.1 1.6.3s.9.5 1.2.8c.3.4.6.8.8 1.3.2.5.3 1.1.3 1.7 0 .6-.1 1.2-.3 1.7-.2.5-.4 1-.8 1.3-.3.4-.7.6-1.2.8s-1 .3-1.6.3c-.6 0-1.1-.1-1.6-.3-.5-.2-.9-.5-1.2-.8-.3-.4-.6-.8-.8-1.3-.2-.5-.3-1.1-.3-1.7 0-.6.1-1.2.3-1.7s.4-1 .8-1.3c.3-.4.7-.6 1.2-.8.5-.2 1-.3 1.6-.3zm0 7.3c.8 0 1.4-.3 1.8-.8.4-.5.6-1.3.6-2.3 0-1-.2-1.7-.6-2.3s-1-.8-1.8-.8c-.4 0-.8.1-1.1.2s-.6.3-.8.6c-.2.3-.4.6-.5 1-.1.4-.1.8-.1 1.3 0 1 .2 1.7.6 2.3.5.6 1.1.8 1.9.8zm5.7 1V227h.9c.2 0 .3.1.4.3l.1.8c.3-.4.6-.7 1-.9.4-.2.8-.4 1.3-.4s1 .2 1.3.5c.3.3.6.7.7 1.2.1-.3.3-.6.5-.8s.4-.4.6-.5c.2-.1.5-.2.7-.3.3-.1.5-.1.8-.1.4 0 .8.1 1.1.2s.6.3.9.6c.2.3.4.6.5 1 .1.4.2.8.2 1.3v5.2H226v-5.2c0-.6-.1-1.1-.4-1.5-.3-.3-.7-.5-1.2-.5-.2 0-.5 0-.7.1-.2.1-.4.2-.6.4s-.3.4-.4.6c-.1.2-.1.5-.1.8v5.2h-1.4v-5.2c0-.7-.1-1.1-.4-1.5-.3-.3-.6-.5-1.2-.5-.4 0-.7.1-1 .3-.3.2-.6.5-.8.8v6.1h-1.4zm19.9.2c-.6 0-1.1-.2-1.5-.5s-.5-.9-.5-1.6v-5h-1c-.1 0-.2 0-.2-.1-.1-.1-.1-.1-.1-.2v-.6l1.3-.2.3-2.5c0-.1.1-.1.1-.2s.1-.1.2-.1h.7v2.8h2.4v1h-2.4v4.9c0 .3.1.6.3.8s.4.3.6.3c.2 0 .3 0 .4-.1s.2-.1.3-.1c.1 0 .1-.1.2-.1s.1-.1.1-.1c.1 0 .1 0 .2.1l.4.7c-.2.2-.5.4-.9.5-.2.2-.5.3-.9.3zm4.7-7.2c.3-.4.7-.7 1.2-.9.4-.2.9-.3 1.5-.3.4 0 .8.1 1.2.2.3.1.6.4.9.6.2.3.4.6.5 1 .1.4.2.8.2 1.3v5.2h-1.4V230c0-.6-.1-1.1-.4-1.4-.3-.3-.7-.5-1.3-.5-.4 0-.8.1-1.2.3-.4.2-.7.5-1 .8v6h-1.4v-11.9h1.4v4.8zm14.2 5.9l-.6.6c-.2.2-.5.3-.8.4-.3.1-.6.2-.9.2-.3.1-.6.1-.9.1-.6 0-1.1-.1-1.6-.3-.5-.2-.9-.5-1.2-.8s-.6-.8-.8-1.4-.3-1.2-.3-1.9c0-.6.1-1.1.3-1.6.2-.5.4-.9.8-1.3.3-.4.7-.6 1.2-.9.5-.2 1-.3 1.6-.3.5 0 .9.1 1.4.2.4.2.8.4 1.1.7.3.3.5.7.7 1.1.2.5.3 1 .3 1.6 0 .2 0 .4-.1.5 0 .1-.1.1-.3.1h-5.5c0 .5.1 1 .2 1.3.1.4.3.7.5 1 .2.3.5.4.8.6s.7.2 1 .2c.4 0 .7 0 .9-.1s.5-.2.7-.3.3-.2.5-.3.2-.1.3-.1c.1 0 .2 0 .3.1l.4.6zm-1.2-3.8c0-.3 0-.6-.1-.9-.1-.3-.2-.5-.4-.7-.2-.2-.4-.4-.7-.5s-.6-.2-.9-.2c-.7 0-1.2.2-1.6.6s-.6 1-.7 1.7h4.4zm12.9-1.8c0 .1-.1.1-.1.1h-.2c-.1 0-.2 0-.3-.1s-.2-.1-.4-.2c-.1-.1-.3-.2-.5-.2s-.5-.1-.8-.1c-.4 0-.8.1-1.1.2s-.6.3-.8.6c-.2.3-.4.6-.5 1s-.2.8-.2 1.3.1.9.2 1.3.3.7.5 1 .5.5.8.6.6.2 1 .2c.3 0 .6 0 .9-.1l.6-.3c.1-.1.3-.2.4-.3s.2-.1.3-.1c.1 0 .2 0 .3.1l.4.5-.6.6c-.2.2-.5.3-.7.4s-.5.2-.8.2c-.3 0-.6.1-.9.1-.5 0-1-.1-1.4-.3-.4-.2-.8-.5-1.1-.8s-.6-.8-.8-1.3-.3-1.1-.3-1.8c0-.6.1-1.2.3-1.7.2-.5.4-1 .7-1.3.3-.4.7-.7 1.2-.9.5-.2 1-.3 1.6-.3.6 0 1.1.1 1.5.3.4.2.8.4 1.2.8l-.4.5zm3.5-5.1v11.9H269v-11.9h1.4zm5.7 3.5c.6 0 1.1.1 1.6.3s.9.5 1.2.8c.3.4.6.8.8 1.3.2.5.3 1.1.3 1.7 0 .6-.1 1.2-.3 1.7-.2.5-.4 1-.8 1.3-.3.4-.7.6-1.2.8s-1 .3-1.6.3c-.6 0-1.1-.1-1.6-.3-.5-.2-.9-.5-1.2-.8-.3-.4-.6-.8-.8-1.3-.2-.5-.3-1.1-.3-1.7 0-.6.1-1.2.3-1.7s.4-1 .8-1.3c.3-.4.7-.6 1.2-.8.5-.2 1-.3 1.6-.3zm0 7.3c.8 0 1.4-.3 1.8-.8.4-.5.6-1.3.6-2.3 0-1-.2-1.7-.6-2.3s-1-.8-1.8-.8c-.4 0-.8.1-1.1.2s-.6.3-.8.6c-.2.3-.4.6-.5 1-.1.4-.1.8-.1 1.3 0 1 .2 1.7.6 2.3.5.6 1.1.8 1.9.8zm12.5-7.1v8.2h-.9c-.2 0-.3-.1-.4-.3l-.1-.9c-.4.4-.8.7-1.2.9s-.9.4-1.5.4c-.4 0-.8-.1-1.2-.2-.3-.1-.6-.4-.9-.6-.2-.3-.4-.6-.5-1-.1-.4-.2-.8-.2-1.3V227h1.4v5.2c0 .6.1 1.1.4 1.4.3.3.7.5 1.3.5.4 0 .8-.1 1.2-.3.4-.2.7-.5 1-.8v-6h1.6zm9-3.7v11.9h-.9c-.2 0-.3-.1-.4-.3l-.1-1c-.3.4-.7.8-1.2 1-.4.3-1 .4-1.5.4s-.9-.1-1.3-.3c-.4-.2-.7-.4-1-.8-.3-.3-.5-.8-.6-1.3-.1-.5-.2-1.1-.2-1.8 0-.6.1-1.2.2-1.7.2-.5.4-1 .7-1.3.3-.4.7-.7 1.1-.9.4-.2.9-.3 1.5-.3.5 0 .9.1 1.3.3s.7.4 1 .7v-4.5h1.4zm-1.4 5.6c-.3-.4-.6-.6-.9-.8s-.7-.2-1-.2c-.8 0-1.3.3-1.8.8s-.6 1.3-.6 2.3c0 .5 0 1 .1 1.4.1.4.2.7.4.9.2.2.4.4.7.5.3.1.6.2.9.2.5 0 .9-.1 1.2-.3.4-.2.7-.5 1-.9v-3.9z"
     fill="#454545"
     id="path28" />
  <path
     d="M33.2 109.9v.6l-6.2 3.2v-1c0-.1 0-.2.1-.2 0-.1.1-.1.2-.2l3.6-1.8c.1-.1.2-.1.3-.1.1 0 .2-.1.4-.1-.3-.1-.5-.1-.7-.3l-3.6-1.8c-.1-.1-.2-.1-.2-.2s-.1-.1-.1-.2v-1l6.2 3.1z"
     fill="#31c4ee"
     id="path30" />
  <g
     fill="none"
     stroke="#fff"
     stroke-width="1.5"
     stroke-miterlimit="10"
     id="g34">
    <path
       d="M287.7 71.3h10.4c2.2 0 4-1.8 4-4s-1.7-4-3.9-4c0-.3.1-.7.1-1 0-4.9-3.9-8.8-8.8-8.8-.8 0-1.6.1-2.4.3-.9-6.3-6.2-11.1-12.8-11.1-7.1 0-12.9 5.8-12.9 12.9v.1c-3.9.4-7 3.8-7 7.8 0 4.3 3.5 7.9 7.9 7.9h6.9m5.3-.1h7.9"
       id="path36" />
    <path
       d="M278.5 67.8h-3.9v16l-5 .1V67.8h-3.9l6.4-8zm.3 8.1h3.8V59.8h5.1v16.1h3.8l-6.4 8z"
       id="path38" />
  </g>
  <g
     fill="#4fc7ef"
     id="g40">
    <path
       d="M444.2 17.7h-.2c-2 0-3.9-.9-5.3-2.3-1.4-1.5-2.1-3.4-2.1-5.4.1-4.1 3.5-7.4 7.6-7.4h.2c2 0 3.9.9 5.3 2.3 1.4 1.5 2.1 3.4 2.1 5.4 0 2-.9 3.9-2.3 5.3-1.6 1.4-3.4 2.1-5.3 2.1zm-.1-13.6c-3.3 0-6 2.6-6.1 5.9-.1 3.4 2.6 6.1 5.9 6.2h.1c3.3 0 6-2.6 6.1-5.9 0-1.6-.6-3.2-1.7-4.3-1.1-1.2-2.6-1.8-4.3-1.9.1 0 .1 0 0 0z"
       id="path42" />
    <circle
       cx="444.1"
       cy="10.2"
       r="3.3"
       id="circle44" />
  </g>
  <g
     fill="#4fc7ef"
     id="g46">
    <path
       d="M31.4 17.7h-.2c-2 0-3.9-.9-5.3-2.3-1.4-1.5-2.1-3.4-2.1-5.4.1-4.1 3.5-7.4 7.6-7.4h.2c2 0 3.9.9 5.3 2.3 1.4 1.5 2.1 3.4 2.1 5.4 0 2-.9 3.9-2.3 5.3-1.5 1.4-3.3 2.1-5.3 2.1zm0-13.6c-3.3 0-6 2.6-6.1 5.9-.1 3.4 2.6 6.1 5.9 6.2h.1c3.3 0 6-2.6 6.1-5.9 0-1.6-.6-3.2-1.7-4.3-1.1-1.2-2.6-1.8-4.3-1.9.1 0 .1 0 0 0z"
       id="path48" />
    <circle
       cx="31.4"
       cy="10.2"
       r="3.3"
       id="circle50" />
  </g>
  <g
     fill="#4fc7ef"
     id="g52">
    <path
       d="M350.4 214.2h-.2c-2 0-3.9-.9-5.3-2.3-1.4-1.5-2.1-3.4-2.1-5.4.1-4.1 3.5-7.4 7.6-7.4h.2c2 0 3.9.9 5.3 2.3 1.4 1.5 2.1 3.4 2.1 5.4 0 2-.9 3.9-2.3 5.3-1.5 1.3-3.4 2.1-5.3 2.1zm0-13.7c-3.3 0-6 2.6-6.1 5.9-.1 3.4 2.6 6.1 5.9 6.2h.1c3.3 0 6-2.6 6.1-5.9 0-1.6-.6-3.2-1.7-4.3-1.1-1.2-2.6-1.8-4.3-1.9.1 0 0 0 0 0z"
       id="path54" />
    <circle
       cx="350.4"
       cy="206.6"
       r="3.3"
       id="circle56" />
  </g>
  <g
     fill="#4fc7ef"
     id="g58">
    <path
       d="M69 214.2h-.2c-2 0-3.9-.9-5.3-2.3-1.4-1.5-2.1-3.4-2.1-5.4.1-4.1 3.5-7.4 7.6-7.4h.2c2 0 3.9.9 5.3 2.3 1.4 1.5 2.1 3.4 2.1 5.4 0 2-.9 3.9-2.3 5.3-1.5 1.3-3.3 2.1-5.3 2.1zm0-13.7c-3.3 0-6 2.6-6.1 5.9-.1 3.4 2.6 6.1 5.9 6.2h.1c3.3 0 6-2.6 6.1-5.9 0-1.6-.6-3.2-1.7-4.3-1.1-1.2-2.6-1.8-4.3-1.9.1 0 0 0 0 0z"
       id="path60" />
    <circle
       cx="69"
       cy="206.6"
       r="3.3"
       id="circle62" />
  </g>
  <g
     fill="#4fc7ef"
     id="g64">
    <path
       d="M7.6 118.5h-.2c-2 0-3.9-.9-5.3-2.3-1.4-1.5-2.1-3.4-2.1-5.4.1-4.1 3.5-7.4 7.6-7.4h.2c2 0 3.9.9 5.3 2.3 1.4 1.5 2.1 3.4 2.1 5.4 0 2-.9 3.9-2.3 5.3-1.5 1.4-3.4 2.1-5.3 2.1zm0-13.6c-3.3 0-6 2.6-6.1 5.9-.1 3.4 2.6 6.1 5.9 6.2h.1c3.3 0 6-2.6 6.1-5.9 0-1.6-.6-3.2-1.7-4.3-1.1-1.2-2.6-1.8-4.3-1.9z"
       id="path66" />
    <circle
       cx="7.6"
       cy="110.9"
       r="3.3"
       id="circle68" />
  </g>
  <g
     fill="#4fc7ef"
     id="g70">
    <path
       d="M445.6 116.8h-.2c-2 0-3.9-.9-5.3-2.3-1.4-1.5-2.1-3.4-2.1-5.4.1-4.1 3.5-7.4 7.6-7.4h.2c2 0 3.9.9 5.3 2.3 1.4 1.5 2.1 3.4 2.1 5.4 0 2-.9 3.9-2.3 5.3-1.5 1.3-3.3 2.1-5.3 2.1zm0-13.7c-3.3 0-6 2.6-6.1 5.9-.1 3.4 2.6 6.1 5.9 6.2h.1c3.3 0 6-2.6 6.1-5.9 0-1.6-.6-3.2-1.7-4.3-1.1-1.2-2.6-1.8-4.3-1.9.1 0 .1 0 0 0z"
       id="path72" />
    <circle
       cx="445.6"
       cy="109.2"
       r="3.3"
       id="circle74" />
  </g>
  <g
     style="font-style:normal;font-weight:normal;font-size:12.5px;line-height:125%;font-family:sans-serif;letter-spacing:0px;word-spacing:0px;fill:#000000;fill-opacity:1;stroke:none;stroke-width:1px;stroke-linecap:butt;stroke-linejoin:miter;stroke-opacity:1"
     id="text3408" />
  <g
     style="font-style:normal;font-weight:normal;font-size:12.5px;line-height:125%;font-family:sans-serif;letter-spacing:0px;word-spacing:0px;fill:#000000;fill-opacity:1;stroke:none;stroke-width:1px;stroke-linecap:butt;stroke-linejoin:miter;stroke-opacity:1"
     id="text3433"
     transform="matrix(1.6112815,0,0,1.6112815,164.87766,336.87208)">
    <path
       d="m 44.761253,-144.1432 0,0.93383 -1.074218,0 q -0.604248,0 -0.842286,0.24414 -0.231933,0.24415 -0.231933,0.87891 l 0,0.60425 1.849365,0 0,0.8728 -1.849365,0 0,5.96314 -1.129151,0 0,-5.96314 -1.074218,0 0,-0.8728 1.074218,0 0,-0.47608 q 0,-1.14135 0.531006,-1.66015 0.531006,-0.5249 1.684571,-0.5249 l 1.062011,0 z"
       id="path3438"
       inkscape:connector-curvature="0" />
    <path
       d="m 48.826195,-138.08241 q -1.361084,0 -1.885987,0.31128 -0.524902,0.31128 -0.524902,1.06201 0,0.59814 0.390625,0.95215 0.396729,0.3479 1.074219,0.3479 0.933838,0 1.495361,-0.65918 0.567627,-0.66529 0.567627,-1.76392 l 0,-0.25024 -1.116943,0 z m 2.23999,-0.46387 0,3.90015 -1.123047,0 0,-1.0376 q -0.384521,0.62256 -0.958252,0.92163 -0.57373,0.29297 -1.403808,0.29297 -1.049805,0 -1.672364,-0.58594 -0.616455,-0.59204 -0.616455,-1.58081 0,-1.15356 0.769043,-1.7395 0.775147,-0.58594 2.307129,-0.58594 l 1.574707,0 0,-0.10986 q 0,-0.77515 -0.512695,-1.19629 -0.506592,-0.42725 -1.428223,-0.42725 -0.585937,0 -1.141357,0.14038 -0.55542,0.14038 -1.068116,0.42115 l 0,-1.0376 q 0.616456,-0.23804 1.19629,-0.35401 0.579834,-0.12207 1.12915,-0.12207 1.483154,0 2.215576,0.76905 0.732422,0.76904 0.732422,2.33154 z"
       id="path3440"
       inkscape:connector-curvature="0" />
    <path
       d="m 52.921654,-141.48207 5.334472,0 0,1.02539 -4.223632,4.91333 4.223632,0 0,0.89722 -5.48706,0 0,-1.02539 4.223633,-4.91333 -4.071045,0 0,-0.89722 z"
       id="path3442"
       inkscape:connector-curvature="0" />
    <path
       d="m 65.824486,-138.34486 0,0.54931 -5.163574,0 q 0.07324,1.15967 0.6958,1.77002 0.628662,0.60425 1.745606,0.60425 0.646972,0 1.251221,-0.15869 0.610351,-0.15869 1.208496,-0.47608 l 0,1.06202 q -0.604248,0.25634 -1.239014,0.39062 -0.634766,0.13428 -1.287842,0.13428 -1.635742,0 -2.593994,-0.95215 -0.952148,-0.95215 -0.952148,-2.57568 0,-1.67847 0.90332,-2.66114 0.909424,-0.98877 2.44751,-0.98877 1.379394,0 2.178955,0.89112 0.805664,0.88501 0.805664,2.41089 z m -1.123047,-0.32959 q -0.01221,-0.92163 -0.518799,-1.47095 -0.500488,-0.54932 -1.330566,-0.54932 -0.939942,0 -1.507569,0.53101 -0.561523,0.531 -0.646972,1.49536 l 4.003906,-0.006 z"
       id="path3444"
       inkscape:connector-curvature="0" />
    <path
       d="m 67.167259,-143.75868 7.159424,0 0,0.93994 -5.761719,7.13501 5.9021,0 0,1.0376 -7.440186,0 0,-0.93994 5.761719,-7.13501 -5.621338,0 0,-1.0376 z"
       id="path3446"
       inkscape:connector-curvature="0" />
    <path
       d="m 82.059837,-138.34486 0,0.54931 -5.163574,0 q 0.07324,1.15967 0.695801,1.77002 0.628662,0.60425 1.745605,0.60425 0.646973,0 1.251221,-0.15869 0.610352,-0.15869 1.208496,-0.47608 l 0,1.06202 q -0.604248,0.25634 -1.239014,0.39062 -0.634765,0.13428 -1.287841,0.13428 -1.635742,0 -2.593994,-0.95215 -0.952149,-0.95215 -0.952149,-2.57568 0,-1.67847 0.90332,-2.66114 0.909424,-0.98877 2.44751,-0.98877 1.379395,0 2.178955,0.89112 0.805664,0.88501 0.805664,2.41089 z m -1.123047,-0.32959 q -0.01221,-0.92163 -0.518798,-1.47095 -0.500489,-0.54932 -1.330567,-0.54932 -0.939941,0 -1.507568,0.53101 -0.561524,0.531 -0.646973,1.49536 l 4.003906,-0.006 z"
       id="path3448"
       inkscape:connector-curvature="0" />
    <path
       d="m 87.839867,-140.43227 q -0.189209,-0.10986 -0.415039,-0.15869 -0.219727,-0.0549 -0.488282,-0.0549 -0.952148,0 -1.464843,0.62256 -0.506592,0.61645 -0.506592,1.77612 l 0,3.60108 -1.129151,0 0,-6.83594 1.129151,0 0,1.06201 q 0.354004,-0.62256 0.921631,-0.92163 0.567627,-0.30518 1.379394,-0.30518 0.115967,0 0.256348,0.0183 0.140381,0.0122 0.311279,0.0427 l 0.0061,1.15356 z"
       id="path3450"
       inkscape:connector-curvature="0" />
    <path
       d="m 91.42263,-140.69472 q -0.90332,0 -1.428222,0.70801 -0.524903,0.7019 -0.524903,1.92871 0,1.22681 0.518799,1.93482 0.524902,0.7019 1.434326,0.7019 0.897217,0 1.422119,-0.70801 0.524903,-0.70801 0.524903,-1.92871 0,-1.2146 -0.524903,-1.92261 -0.524902,-0.71411 -1.422119,-0.71411 z m 0,-0.95215 q 1.464844,0 2.301026,0.95215 0.836181,0.95215 0.836181,2.63672 0,1.67847 -0.836181,2.63672 -0.836182,0.95215 -2.301026,0.95215 -1.470947,0 -2.307129,-0.95215 -0.830078,-0.95825 -0.830078,-2.63672 0,-1.68457 0.830078,-2.63672 0.836182,-0.95215 2.307129,-0.95215 z"
       id="path3452"
       inkscape:connector-curvature="0" />
  </g>
  <g
     style="font-style:normal;font-weight:normal;font-size:12.5px;line-height:125%;font-family:sans-serif;letter-spacing:0px;word-spacing:0px;fill:#000000;fill-opacity:1;stroke:none;stroke-width:1px;stroke-linecap:butt;stroke-linejoin:miter;stroke-opacity:1"
     id="text3454"
     transform="translate(-48.147099,248.76001)">
    <path
       d="m 95.105782,-140.69472 q -0.903321,0 -1.428223,0.70801 -0.524902,0.7019 -0.524902,1.92871 0,1.22681 0.518798,1.93482 0.524903,0.7019 1.434327,0.7019 0.897216,0 1.422119,-0.70801 0.524902,-0.70801 0.524902,-1.92871 0,-1.2146 -0.524902,-1.92261 -0.524903,-0.71411 -1.422119,-0.71411 z m 0,-0.95215 q 1.464843,0 2.301025,0.95215 0.836182,0.95215 0.836182,2.63672 0,1.67847 -0.836182,2.63672 -0.836182,0.95215 -2.301025,0.95215 -1.470948,0 -2.307129,-0.95215 -0.830078,-0.95825 -0.830078,-2.63672 0,-1.68457 0.830078,-2.63672 0.836181,-0.95215 2.307129,-0.95215 z"
       id="path3459"
       inkscape:connector-curvature="0" />
    <path
       d="m 105.78083,-138.77211 0,4.12598 -1.12305,0 0,-4.08936 q 0,-0.97046 -0.37841,-1.45264 -0.37842,-0.48217 -1.13526,-0.48217 -0.90942,0 -1.43432,0.57983 -0.52491,0.57983 -0.52491,1.58081 l 0,3.86353 -1.12915,0 0,-6.83594 1.12915,0 0,1.06201 q 0.40284,-0.61645 0.94605,-0.92163 0.54931,-0.30518 1.26343,-0.30518 1.17797,0 1.78222,0.73243 0.60425,0.72631 0.60425,2.14233 z"
       id="path3461"
       inkscape:connector-curvature="0" />
    <path
       d="m 116.51081,-140.44447 0,-3.69873 1.12305,0 0,9.49707 -1.12305,0 0,-1.02539 q -0.354,0.61035 -0.89722,0.90942 -0.53711,0.29297 -1.29394,0.29297 -1.23901,0 -2.02026,-0.98877 -0.77515,-0.98877 -0.77515,-2.6001 0,-1.61133 0.77515,-2.6001 0.78125,-0.98877 2.02026,-0.98877 0.75683,0 1.29394,0.29908 0.54322,0.29297 0.89722,0.90332 z m -3.8269,2.38647 q 0,1.23902 0.50659,1.94702 0.51269,0.70191 1.40381,0.70191 0.89111,0 1.40381,-0.70191 0.51269,-0.708 0.51269,-1.94702 0,-1.23901 -0.51269,-1.94092 -0.5127,-0.708 -1.40381,-0.708 -0.89112,0 -1.40381,0.708 -0.50659,0.70191 -0.50659,1.94092 z"
       id="path3463"
       inkscape:connector-curvature="0" />
    <path
       d="m 125.79426,-138.34486 0,0.54931 -5.16358,0 q 0.0733,1.15967 0.6958,1.77002 0.62867,0.60425 1.74561,0.60425 0.64697,0 1.25122,-0.15869 0.61035,-0.15869 1.2085,-0.47608 l 0,1.06202 q -0.60425,0.25634 -1.23902,0.39062 -0.63476,0.13428 -1.28784,0.13428 -1.63574,0 -2.59399,-0.95215 -0.95215,-0.95215 -0.95215,-2.57568 0,-1.67847 0.90332,-2.66114 0.90942,-0.98877 2.44751,-0.98877 1.37939,0 2.17895,0.89112 0.80567,0.88501 0.80567,2.41089 z m -1.12305,-0.32959 q -0.0122,-0.92163 -0.5188,-1.47095 -0.50049,-0.54932 -1.33056,-0.54932 -0.93995,0 -1.50757,0.53101 -0.56153,0.531 -0.64698,1.49536 l 4.00391,-0.006 z"
       id="path3465"
       inkscape:connector-curvature="0" />
    <path
       d="m 132.93537,-140.16982 q 0.42114,-0.75683 1.00708,-1.11694 0.58594,-0.36011 1.3794,-0.36011 1.06811,0 1.64795,0.75074 0.57983,0.74463 0.57983,2.12402 l 0,4.12598 -1.12915,0 0,-4.08936 q 0,-0.98266 -0.3479,-1.45874 -0.3479,-0.47607 -1.06201,-0.47607 -0.87281,0 -1.3794,0.57983 -0.50659,0.57983 -0.50659,1.58081 l 0,3.86353 -1.12915,0 0,-4.08936 q 0,-0.98877 -0.3479,-1.45874 -0.3479,-0.47607 -1.07422,-0.47607 -0.86059,0 -1.36719,0.58593 -0.50659,0.57984 -0.50659,1.57471 l 0,3.86353 -1.12915,0 0,-6.83594 1.12915,0 0,1.06201 q 0.38452,-0.62866 0.92163,-0.92773 0.53711,-0.29908 1.27564,-0.29908 0.74463,0 1.26342,0.37842 0.52491,0.37842 0.77515,1.09863 z"
       id="path3467"
       inkscape:connector-curvature="0" />
    <path
       d="m 142.878,-138.08241 q -1.36109,0 -1.88599,0.31128 -0.5249,0.31128 -0.5249,1.06201 0,0.59814 0.39062,0.95215 0.39673,0.3479 1.07422,0.3479 0.93384,0 1.49536,-0.65918 0.56763,-0.66529 0.56763,-1.76392 l 0,-0.25024 -1.11694,0 z m 2.23999,-0.46387 0,3.90015 -1.12305,0 0,-1.0376 q -0.38452,0.62256 -0.95825,0.92163 -0.57373,0.29297 -1.40381,0.29297 -1.0498,0 -1.67236,-0.58594 -0.61646,-0.59204 -0.61646,-1.58081 0,-1.15356 0.76905,-1.7395 0.77514,-0.58594 2.30712,-0.58594 l 1.57471,0 0,-0.10986 q 0,-0.77515 -0.51269,-1.19629 -0.5066,-0.42725 -1.42823,-0.42725 -0.58593,0 -1.14135,0.14038 -0.55542,0.14038 -1.06812,0.42115 l 0,-1.0376 q 0.61646,-0.23804 1.19629,-0.35401 0.57983,-0.12207 1.12915,-0.12207 1.48315,0 2.21558,0.76905 0.73242,0.76904 0.73242,2.33154 z"
       id="path3469"
       inkscape:connector-curvature="0" />
    <path
       d="m 153.14411,-138.77211 0,4.12598 -1.12305,0 0,-4.08936 q 0,-0.97046 -0.37841,-1.45264 -0.37842,-0.48217 -1.13526,-0.48217 -0.90942,0 -1.43432,0.57983 -0.52491,0.57983 -0.52491,1.58081 l 0,3.86353 -1.12915,0 0,-6.83594 1.12915,0 0,1.06201 q 0.40284,-0.61645 0.94605,-0.92163 0.54932,-0.30518 1.26343,-0.30518 1.17798,0 1.78222,0.73243 0.60425,0.72631 0.60425,2.14233 z"
       id="path3471"
       inkscape:connector-curvature="0" />
    <path
       d="m 159.8946,-140.44447 0,-3.69873 1.12305,0 0,9.49707 -1.12305,0 0,-1.02539 q -0.354,0.61035 -0.89722,0.90942 -0.53711,0.29297 -1.29394,0.29297 -1.23902,0 -2.02027,-0.98877 -0.77514,-0.98877 -0.77514,-2.6001 0,-1.61133 0.77514,-2.6001 0.78125,-0.98877 2.02027,-0.98877 0.75683,0 1.29394,0.29908 0.54322,0.29297 0.89722,0.90332 z m -3.8269,2.38647 q 0,1.23902 0.50659,1.94702 0.51269,0.70191 1.40381,0.70191 0.89111,0 1.4038,-0.70191 0.5127,-0.708 0.5127,-1.94702 0,-1.23901 -0.5127,-1.94092 -0.51269,-0.708 -1.4038,-0.708 -0.89112,0 -1.40381,0.708 -0.50659,0.70191 -0.50659,1.94092 z"
       id="path3473"
       inkscape:connector-curvature="0" />
  </g>
</svg>
