<?xml version="1.0" encoding="UTF-8" standalone="no"?>
<!-- Page 1 -->

<svg
   xmlns:dc="http://purl.org/dc/elements/1.1/"
   xmlns:cc="http://creativecommons.org/ns#"
   xmlns:rdf="http://www.w3.org/1999/02/22-rdf-syntax-ns#"
   xmlns:svg="http://www.w3.org/2000/svg"
   xmlns="http://www.w3.org/2000/svg"
   xmlns:sodipodi="http://sodipodi.sourceforge.net/DTD/sodipodi-0.dtd"
   xmlns:inkscape="http://www.inkscape.org/namespaces/inkscape"
   x="0"
   y="0"
   width="194.39999"
   height="194.39999"
   viewBox="0 0 194.39999 194.39999"
   version="1.1"
   style="display:block"
   id="svg4729"
   inkscape:version="0.92.2 (5c3e80d, 2017-08-06)"
   sodipodi:docname="fazezero_switch_with_Signal - white.svg">
  <metadata
     id="metadata4745">
    <rdf:RDF>
      <cc:Work
         rdf:about="">
        <dc:format>image/svg+xml</dc:format>
        <dc:type
           rdf:resource="http://purl.org/dc/dcmitype/StillImage" />
        <dc:title></dc:title>
      </cc:Work>
    </rdf:RDF>
  </metadata>
  <sodipodi:namedview
     pagecolor="#ffffff"
     bordercolor="#666666"
     borderopacity="1"
     objecttolerance="10"
     gridtolerance="10"
     guidetolerance="10"
     inkscape:pageopacity="0"
     inkscape:pageshadow="2"
     inkscape:window-width="1920"
     inkscape:window-height="1017"
     id="namedview4743"
     showgrid="false"
     showguides="false"
     inkscape:zoom="0.99111828"
     inkscape:cx="66.856112"
     inkscape:cy="74.958139"
     inkscape:window-x="-8"
     inkscape:window-y="-8"
     inkscape:window-maximized="1"
     inkscape:current-layer="svg4729" />
  <defs
     id="defs4731">
    <style
       type="text/css"
       id="style4733"><![CDATA[

.g2_1{
fill: #E60012;
}
.g3_1{
fill: #FFFFFF;
}
.g1_1{
fill: #E6E6E6;
}


]]></style>
  </defs>
  <g
     id="g8191"
     style="fill:none"
     transform="matrix(0.1672712,0,0,0.1672712,30.313928,34.581261)" />
  <path
     id="path3996"
     style="fill:#ffffff"
     d="m 153.93359,130.50977 c 0.009,-3.6e-4 0.0183,0 0.0273,0 0.29622,0 0.56052,0.19948 0.63672,0.49023 l 2.62695,10.07617 1.47266,-3.93555 c 0.0879,-0.23357 0.30094,-0.39802 0.54882,-0.42382 0.25176,-0.0243 0.48825,0.0939 0.6211,0.30468 l 0.69336,1.08399 c 0.1358,0.84614 0.15954,1.6841 0.0605,2.51172 l -1.1582,-1.77539 -1.73437,4.63672 c -0.10056,0.26834 -0.36776,0.43882 -0.6504,0.42382 -0.28564,-0.0143 -0.52926,-0.21129 -0.60156,-0.48828 0,0 -2.19208,-9.13281 -2.38086,-9.13281 -0.18877,0 -2.37695,13.90234 -2.37695,13.90234 -0.0529,0.30787 -0.3141,0.53688 -0.64648,0.54688 -0.30416,0 -0.56898,-0.21018 -0.63868,-0.50781 0,0 -2.54609,-11.52735 -2.70117,-11.52735 -0.15508,0 -1.57422,3.62891 -1.57422,3.62891 -0.10409,0.23994 -0.33992,0.39453 -0.60156,0.39453 h -1.64453 c -0.2433,0.57779 -0.81606,0.98437 -1.48242,0.98437 -0.88708,10e-6 -1.60547,-0.71839 -1.60547,-1.60546 0,-0.88725 0.71839,-1.60743 1.60547,-1.60743 0.63901,0 1.18667,0.3758 1.44531,0.91602 h 1.25 l 2.19336,-5.05469 c 0.1129,-0.26005 0.37806,-0.41798 0.66016,-0.39258 0.28158,0.0254 0.51547,0.22851 0.58007,0.50391 0,0 2.19299,10.30078 2.41211,10.30078 0.2193,0 2.34375,-13.70898 2.34375,-13.70898 0.0524,-0.30487 0.31022,-0.53152 0.61914,-0.54492 z m -3.0039,-6.53907 c -8.15618,0 -14.76758,6.64882 -14.76758,14.85157 0,8.20259 6.6114,14.85156 14.76758,14.85156 8.15618,0 14.76953,-6.64897 14.76953,-14.85156 0,-8.20275 -6.61335,-14.85157 -14.76953,-14.85157 z m 0,-6.95312 c 12.4721,0 22.58398,9.77382 22.58398,21.83008 -1e-5,12.05608 -10.11188,21.83007 -22.58398,21.83007 -12.47209,0 -22.58203,-9.77399 -22.58203,-21.83007 0,-12.05626 10.10994,-21.83008 22.58203,-21.83008 z M 114.5,0 c -0.7,0 -1.30078,0.49921864 -1.30078,1.1992188 V 193 c 0,0.8 0.60039,1.40039 1.40039,1.40039 h 30 c 27.5,0 49.80078,-22.30078 49.80078,-49.80078 V 49.800781 C 194.40039,22.300781 172.09961,0 144.59961,0 Z M 92.3,-2.2070313e-6 H 49.8 C 22.3,-2.2070313e-6 0,22.299998 0,49.799998 V 144.6 c 0,27.5 22.3,49.8 49.8,49.8 h 42.5 c 0.8,0 1.5,-0.6 1.5,-1.4 V 1.3999978 C 93.8,0.59999779 93.1,-2.2070312e-6 92.3,-2.2070312e-6 M 78.1,178.8 H 49.8 c -9.1,0 -17.7,-3.6 -24.1,-10.1 -6.5,-6.4 -10.1,-15 -10.1,-24.1 V 49.799998 c 0,-9.1 3.6,-17.7 10.1,-24.1 6.4,-6.5 15,-10 24.1,-10 H 78.1 Z M 71.581146,35.977557 a 4.69215,4.69215 0 0 0 -4.693359,-4.691406 4.69215,4.69215 0 0 0 -4.691407,4.691406 4.69215,4.69215 0 0 0 4.691407,4.69336 4.69215,4.69215 0 0 0 4.693359,-4.69336 z m 0,16.589843 a 4.69215,4.69215 0 0 0 -4.224609,-4.66797 4.69215,4.69215 0 0 0 -0.46875,-0.0234 4.69215,4.69215 0 0 0 -4.667969,4.22266 4.69215,4.69215 0 0 0 -0.02344,0.46875 4.69215,4.69215 0 0 0 4.691407,4.6914 4.69215,4.69215 0 0 0 4.693359,-4.6914 z m 0,16.58985 a 4.69215,4.69215 0 0 0 -4.224609,-4.66993 4.69215,4.69215 0 0 0 -0.46875,-0.0234 4.69215,4.69215 0 0 0 -4.667969,4.22461 4.69215,4.69215 0 0 0 -0.02344,0.46875 4.69215,4.69215 0 0 0 4.691407,4.69141 4.69215,4.69215 0 0 0 4.693359,-4.69141 z M 54.991302,35.977557 a 4.69215,4.69215 0 0 0 -4.691406,-4.691406 4.69215,4.69215 0 0 0 -4.693359,4.691406 4.69215,4.69215 0 0 0 4.693359,4.69336 4.69215,4.69215 0 0 0 4.691406,-4.69336 z m 0,16.589843 a 4.69215,4.69215 0 0 0 -4.224609,-4.66797 4.69215,4.69215 0 0 0 -0.466797,-0.0234 4.69215,4.69215 0 0 0 -4.669922,4.22266 4.69215,4.69215 0 0 0 -0.02344,0.46875 4.69215,4.69215 0 0 0 4.693359,4.6914 4.69215,4.69215 0 0 0 4.691406,-4.6914 z M 38.401458,35.977557 a 4.69215,4.69215 0 0 0 -4.691406,-4.691406 4.69215,4.69215 0 0 0 -4.693359,4.691406 4.69215,4.69215 0 0 0 4.693359,4.69336 4.69215,4.69215 0 0 0 4.691406,-4.69336 z"
     inkscape:export-xdpi="96"
     inkscape:export-ydpi="96" />
</svg>
