<?xml version="1.0" encoding="UTF-8" standalone="no"?>
<svg
   xmlns:dc="http://purl.org/dc/elements/1.1/"
   xmlns:cc="http://creativecommons.org/ns#"
   xmlns:rdf="http://www.w3.org/1999/02/22-rdf-syntax-ns#"
   xmlns:svg="http://www.w3.org/2000/svg"
   xmlns="http://www.w3.org/2000/svg"
   xmlns:sodipodi="http://sodipodi.sourceforge.net/DTD/sodipodi-0.dtd"
   xmlns:inkscape="http://www.inkscape.org/namespaces/inkscape"
   id="Layer_1"
   data-name="Layer 1"
   viewBox="0 0 305.58097 340.98258"
   version="1.1"
   sodipodi:docname="fazezero_logo_Grey+GoogleDots_Up_Op3.svg"
   width="305.58096"
   height="340.98257"
   inkscape:version="0.92.0 r15299">
  <metadata
     id="metadata58">
    <rdf:RDF>
      <cc:Work
         rdf:about="">
        <dc:format>image/svg+xml</dc:format>
        <dc:type
           rdf:resource="http://purl.org/dc/dcmitype/StillImage" />
        <dc:title>filament-logo-final</dc:title>
      </cc:Work>
    </rdf:RDF>
  </metadata>
  <sodipodi:namedview
     pagecolor="#ffffff"
     bordercolor="#666666"
     borderopacity="1"
     objecttolerance="10"
     gridtolerance="10"
     guidetolerance="10"
     inkscape:pageopacity="0"
     inkscape:pageshadow="2"
     inkscape:window-width="1920"
     inkscape:window-height="1017"
     id="namedview56"
     showgrid="false"
     fit-margin-top="0"
     fit-margin-left="0"
     fit-margin-right="0"
     fit-margin-bottom="0"
     inkscape:zoom="1.3026548"
     inkscape:cx="-143.41643"
     inkscape:cy="117.82371"
     inkscape:window-x="-8"
     inkscape:window-y="-8"
     inkscape:window-maximized="1"
     inkscape:current-layer="On_Light"
     showguides="true"
     inkscape:guide-bbox="true">
    <sodipodi:guide
       position="149.6943,261.00545"
       orientation="1,0"
       id="guide4634"
       inkscape:locked="false" />
  </sodipodi:namedview>
  <defs
     id="defs4">
    <style
       id="style2">.cls-1{fill:#333;}.cls-2{fill:#0089e1;}.cls-3{fill:#45a9e9;}</style>
  </defs>
  <title
     id="title6">filament-logo-final</title>
  <g
     id="On_Light"
     data-name="On Light"
     transform="translate(92.65807,176.04523)">
    <rect
       class="cls-1"
       x="-78.148346"
       y="-99.573547"
       width="223.06787"
       height="8.2444506"
       transform="matrix(0.99416419,0.10787752,-0.10301688,0.99467961,0,0)"
       id="rect12"
       style="fill:#0000ff;stroke-width:0.99985594" />
    <rect
       class="cls-1"
       x="-75.433571"
       y="131.01582"
       width="258.76013"
       height="8.2528811"
       transform="matrix(0.99833108,-0.05774999,0.06323204,0.99799885,0,0)"
       id="rect8"
       style="fill:#aca793;stroke-width:1.00000751" />
    <rect
       class="cls-1"
       x="-71.402344"
       y="-103.27765"
       width="8.2632389"
       height="242.6156"
       transform="matrix(0.99999832,0.00183232,0.00350982,0.99999384,0,0)"
       id="rect10"
       style="fill:#0000ff;stroke-width:1.00000715" />
    <g
       id="g4760"
       transform="matrix(1.0448443,0.93611824,-0.93611824,1.0448443,665.01099,-938.62397)"
       style="stroke-width:0.71282935">
      <g
         id="g4781"
         transform="matrix(0.63057037,-0.56165244,0.56165244,0.63057037,-40.825098,765.82779)"
         style="stroke-width:0.84414822">
        <polygon
           style="fill:#343434;stroke-width:0.84414822"
           points="125.1661,9.5 125.1661,285.168 127.9611,287.958 255.9231,212.32 127.9611,0 "
           id="polygon4748" />
        <polygon
           style="fill:#8c8c8c;stroke-width:0.84414822"
           points="127.962,154.158 127.962,0 0,212.32 127.962,287.959 "
           id="polygon4750" />
        <polygon
           style="fill:#141414;stroke-width:0.84414822"
           points="127.9611,287.9577 255.9211,212.3207 127.9611,154.1587 "
           id="polygon4756" />
        <polygon
           style="fill:#393939;stroke-width:0.84414822"
           points="0.0009,212.3208 127.9609,287.9578 127.9609,154.1588 "
           id="polygon4758" />
      </g>
    </g>
    <rect
       class="cls-1"
       x="13.597569"
       y="16.429478"
       width="8.2794123"
       height="136.96411"
       transform="matrix(0.84538548,0.53415672,-0.53342633,0.84584653,0,0)"
       id="rect32"
       style="fill:#1accff;fill-opacity:1;stroke-width:1.00000012" />
    <rect
       class="cls-1"
       x="161.97058"
       y="-51.831703"
       width="8.2551928"
       height="207.60577"
       transform="matrix(0.98472071,-0.1741411,0.17961153,0.98373762,0,0)"
       id="rect34"
       style="fill:#1accff;fill-opacity:1;stroke-width:1.00000775" />
    <ellipse
       class="cls-1"
       cx="167.03271"
       cy="47.430916"
       transform="matrix(0.72833067,-0.68522582,0.68660824,0.7270276,0,0)"
       id="circle18"
       style="fill:#00aa00;stroke-width:1.00000095"
       rx="17.276686"
       ry="17.367393" />
    <ellipse
       class="cls-1"
       cx="-144.15797"
       cy="55.649754"
       transform="matrix(0.72833067,-0.68522582,0.68660824,0.7270276,0,0)"
       id="circle26"
       style="fill:#ffcc00;fill-opacity:1;stroke-width:1.00000095"
       rx="17.276686"
       ry="17.367393" />
    <rect
       class="cls-1"
       x="-10.474244"
       y="-123.34353"
       width="8.2408218"
       height="146.73201"
       transform="matrix(0.86591769,-0.50018652,0.50366974,0.86389628,0,0)"
       id="rect30"
       style="fill:#0000ff;stroke-width:1.00000405" />
    <ellipse
       class="cls-1"
       cx="21.802702"
       cy="-121.60231"
       transform="matrix(0.72833067,-0.68522582,0.68660824,0.7270276,0,0)"
       id="circle24"
       style="fill:#0000ff;fill-opacity:1;stroke-width:1.00000095"
       rx="17.276686"
       ry="17.367393" />
    <rect
       class="cls-1"
       x="16.241882"
       y="13.733775"
       width="210.90681"
       height="8.2333651"
       transform="matrix(0.87700252,0.48048577,-0.47913059,0.87774363,0,0)"
       id="rect28"
       style="fill:#1accff;fill-opacity:1;stroke-width:0.99985057" />
    <ellipse
       class="cls-1"
       cx="53.923809"
       cy="221.76212"
       transform="matrix(0.72833067,-0.68522582,0.68660824,0.7270276,0,0)"
       id="circle20"
       style="fill:#1accff;fill-opacity:1;stroke-width:1.00000095"
       rx="17.276686"
       ry="17.367393" />
    <ellipse
       class="cls-1"
       cx="-11.516113"
       cy="21.341183"
       transform="matrix(0.72833067,-0.68522582,0.68660824,0.7270276,0,0)"
       id="circle22"
       style="fill:#ff0000;fill-opacity:1;stroke-width:1.00000095"
       rx="17.276686"
       ry="17.367393" />
  </g>
</svg>
