<?xml version="1.0" encoding="UTF-8" standalone="no"?>
<svg
   xmlns:dc="http://purl.org/dc/elements/1.1/"
   xmlns:cc="http://creativecommons.org/ns#"
   xmlns:rdf="http://www.w3.org/1999/02/22-rdf-syntax-ns#"
   xmlns:svg="http://www.w3.org/2000/svg"
   xmlns="http://www.w3.org/2000/svg"
   xmlns:sodipodi="http://sodipodi.sourceforge.net/DTD/sodipodi-0.dtd"
   xmlns:inkscape="http://www.inkscape.org/namespaces/inkscape"
   viewBox="0 0 292.4 270.9"
   version="1.1"
   id="svg36"
   sodipodi:docname="fazeZERO earth.svg"
   inkscape:version="0.92.0 r15299">
  <metadata
     id="metadata42">
    <rdf:RDF>
      <cc:Work
         rdf:about="">
        <dc:format>image/svg+xml</dc:format>
        <dc:type
           rdf:resource="http://purl.org/dc/dcmitype/StillImage" />
      </cc:Work>
    </rdf:RDF>
  </metadata>
  <defs
     id="defs40" />
  <sodipodi:namedview
     pagecolor="#ffffff"
     bordercolor="#666666"
     borderopacity="1"
     objecttolerance="10"
     gridtolerance="10"
     guidetolerance="10"
     inkscape:pageopacity="0"
     inkscape:pageshadow="2"
     inkscape:window-width="1600"
     inkscape:window-height="837"
     id="namedview38"
     showgrid="false"
     inkscape:zoom="0.87117019"
     inkscape:cx="146.2"
     inkscape:cy="135.45"
     inkscape:window-x="1912"
     inkscape:window-y="-8"
     inkscape:window-maximized="1"
     inkscape:current-layer="svg36" />
  <path
     d="M147.9 15.7C82.1 15.7 28.6 69.3 28.6 135c0 65.8 53.5 119.3 119.3 119.3S267.2 200.8 267.2 135c0-65.7-53.5-119.3-119.3-119.3z"
     fill="none"
     stroke="#494949"
     stroke-width="2"
     stroke-miterlimit="10"
     id="path2" />
  <g
     fill="none"
     stroke="#494949"
     stroke-miterlimit="10"
     id="g8">
    <path
       d="M261.9 168.9c-1.6 0-3.6.8-3.6 1.3s-2.2 1.5-2.9 1.8c-.7.3-2.1 2.5-2.4 3.2-.3.7-2.1.5-2.7.8-.7.3-2 1.4-2 2 0 .6-.4.6-.8-.2l-.9.9-1 1.1c-.6 1.8-2.5 4.1-3.2 4.3-.7.2-.8 3.4-.8 4.7 0 1.3.5 2.9 1.1 3.6l.1 1 .2 2c-.4 1.6.8 3 1.2 3.3.3.3 3.3-.5 4.4-.8.5-.1 1.1-.4 1.6-.7 5.3-8.8 9.4-18.4 12.3-28.5-.2.2-.4.2-.6.2zm-197 3c-.2.3 2 2.5 2.8 3.3.8.8 2.6 4.3 2.9 5.5.4 1.2.1 3.1 0 3.5-.1.5.4 1.4.5 1.9.1.4-.7 3.9-.4 5.3.3 1.4-1.6 5.8-1.6 8 .1 2.2 1 5 1.4 4.8.4-.2.5 2-.1 2.3-.7.3-1.4 2-1.1 2.1.4.1 0 1.8.1 2.5s.7 5.2.8 6.4c.1 1.1 1.7 3.9 2.1 4.8.3.9.7 2.7.8 3 .1.3.3.5.3.6 0 0 1.3.5 1.7.8.4.3 2.9.1 3.8-.1.8-.2.1-.9-.3-1.3s-.7-2.4-1.1-2.6c-.4-.2-.6-2.8-.2-3.3.4-.6 1.9-1.5 2.1-2 .2-.5.2-2.7-.2-3-.4-.3.1-3-.2-4.4-.3-1.3 2.3-2.6 2.5-3.6.1-1.1 3-2.2 3.7-2.8.6-.5 1.2-3.6.9-4.3-.3-.7 1.1-1.2 1.7-1.2.6 0 1.3-.4 1.5-.4.2 0 1-1.4 1.3-1.7.4-.3 1.2-3.5 1.9-4.1.7-.5 1.3-2.5 1.3-3.1 0-.6 1.1-2.3 1.4-2.8.3-.5 3-1.7 3.5-1.9.5-.2 1.2-4.5 1.4-6 .2-1.5 1-3.6 1-4.1.1-.5.9-.9 1.1-1.1.2-.2.8-2.1 1.2-2.6.4-.5 1.9-2.3 1.9-2.7 0-.4.3-1.5.5-2.4v-2.8c-.5-1.3-1.9-2.9-2.3-2.6-.4.4-2-1.1-2.9-1.5-.9-.3-3-.6-3.5-.6s-2.4-1.5-3.2-1.8c-.8-.2-2.9-.7-3.3-.9-.4-.2-.9-3.4-2.6-4.4-1.7-1-4.7-3.4-5-4.3-.3-.9-3.6-2.7-4.6-3.3-1-.6-2.5-.7-2.7-.5-.2.2-1.4-1.7-2.1-2.2-.7-.5-2.6-1-2.7-.5-.1.5-1.4.2-1.7-.2-.3-.4-1.3.2-1.8.3-.5.1-2.1 2.6-2.8 3.2-.8.6-1.6-.6-2.1-.8-.5-.2-2.4.4-2.9.7-.5.4-1.7-2.6-1.4-4 .3-1.4-1.2-4.1-2.4-4.2-1.2-.1-1.5-2.9-1.3-4 .2-1.1-2.1-1.7-2.7-1.8-.6-.1-2 1.4-2.3 2.1-.3.7-5.5-1-4.9-4.1.6-3.2 3.1-6.4 3.7-6.8.6-.4 4-.6 4.8-.1.8.4 1.4 0 1.6-.2.1-.2 2.9 0 3.7.4.8.3 2 3.5 2.9 3.9.9.4 1.2-2.1 1.3-2.7.1-.6-.4-2.1-.6-2.5-.2-.4 1.4-4.3 2.7-5 1.3-.7 2.6-2.8 2.5-3.2-.1-.4 1-.7 1.3-.8.3-.1 0-3.3.5-4 .5-.7 2.9-2.1 3.7-2.4.8-.3 1.3-2.3 1.1-2.6-.3-.4 2-2.3 3.2-2.7 1.2-.4 2.2.7 1.9.8.2-.1 1.9-1 2.6-1.4.8-.5 0-2-.5-2.4-.5-.4-.2-2.1.4-2.3.6-.2 1.2-1.6 1-1.9-.2-.3 2.6.3 3.6-.5s.3 1.9-.5 2.9c-.8 1.1.6 2.1 1.1 1.9.5-.2 1 .6 1.1.9.1.3 1.2-.3 1.9 0s1.1-.9 1.2-1.5c.1-.6-1.7-1.8-1.9-2.5-.3-.7-.4-4.7-.4-5.6 0-.8-1.2-2.2-1.5-1.9-.4.2-1.1-2.2-1.7-2.7-.6-.5-.7-1.7-.7-2 0-.4-2-2.5-2.4-3.4-.5-1-1.1-.8-1.2-.3-.1.4-1.4.5-2 .4-.6 0-1-2.2-1-3.1 0-.8-2.6-1-3-1.6-.4-.7-2.1-.3-2.4-.8-.3-.5-1.7-.9-2-.7-.3.2-.2 6.1-.4 7.7-.3 1.6-1.6 3-2.1 3s-.2 1.1.1 1c.3-.1-1 1.7-1.1 3-.2 1.2-1.4-.1-1.6-1.2-.2-1.1-1.4-2.6-1.6-2.2-.2.4-1.1-.5-1.4-.2-.4.2-2.6-1.3-3.6-1.8-.9-.5-1.4-3.3-2-3.6-.5-.3-.1-.6-.1-1s1.8-2.1 2.3-2.7c.5-.7 2.5-3.2 3.3-3.8.8-.6 1.4-2 1.3-2.3-.1-.3 3.3-1.4 4.3-1.7.9-.3 1.8-3 1.9-3.7.1-.8-.6-2.2-1-2.4-.4-.2 1.3-.3 1.9 0 .6.3 2.4-.5 3.1-.2.7.4 2.1 1.2 3.2 1.9l-.2 1.9-.4 3.3c-2.7 1.1-3.5 3.1-2.6 3.1 1 0 5.3 1.9 6.6 2.8 1.2.9 1.6-1.3 2-2 .4-.7.2-2.8 0-3.2-.3-.4 1.4-.3 1.9.2s1.1-.5 1.4-.6c.4-.2.6-2 .8-2.3.2-.4-.8-.7-.8-1.2s-2-1.3-2.6-1.6c-.7-.3-.8-1.7-.5-1.9.3-.2-.2-2-.5-2.5-.3-.6-2.4-1-3.1-1-.7 0-1.4-1.6-1.8-1.8-.4-.2-3-.5-3.7-.3-.7.2-1.9-1.9-3-1.2-1.1.6-2.2-.7-2.7-1-.5-.3-3.1 2.5-3.1 4.4 0 2 1 3.8 1.4 3.9.4.1-.1 1.8-.5 2.3-.4.5-1.5-.5-1.1-1 .4-.4-1.1-2.5-1.7-3.3-.4-.6-1.7-1.1-2.6-1.5-.5.6-1.1 1.2-1.6 1.8.2.7.4 1.6.2 2.3-.4 1.2-1.4 1.4-1.4.9 0-.2-.5-.4-1.1-.5C41.7 77.5 32 99 29.3 122.5c.6.7 1.2 1.4 1.4 2 .3 1 2.2 1.7 2.5 2 .3.2.5-2 .2-2.6-.2-.6.4-.9.4-.5s1.7 2.4 2.3 3.1c.6.7 1.2 5.3 1.7 6.2.5 1 5.8 3 7.5 3.4 1.7.4 3.8 2.3 4.2 2.8.3.5 2.6.8 3.1 1 .5.2 1.6 1.7 2.1 2.1.5.3.9 1.2.9 1.5 0 .2 3 1.4 3.7 2.2.7.8 1.9.6 2.1.2.2-.3.8 1.6 1.1 2.2.3.7.4 2.3.1 2.5-.2.3-.7 3.2-1.2 3.8-.5.6-1.6 4.9-1.3 5.8.2.9 1.6 2.6 2.2 2.9.6.3.3 1.2-.1 1.3-.5.1-.3 4.2.9 4.8 1 .6 2 2.4 1.8 2.7zm14-72.7c0 .1 0 .1 0 0zm-8.1-50.3c1.4-.2 3.8-.6 4-1 .1-.3.1-1.3-.1-1.7h.7c.5 0 1.4-3 2-3.7.6-.7 3.8-1.7 4.6-2.2.8-.5 2.5-2.1 3.1-2.3.7-.2 1.6-1.7 1.5-2-.1-.3 2.2-1.7 3.1-2.1.9-.4 1.4-1.4 1-1.5-.2 0-5.2 2.6-9.8 5.2-5.2 3.5-10.1 7.5-14.7 11.8 1.5-.1 3.7-.3 4.6-.5zm86.3 148.5c1.5-.9 4.1-4.7 5-5.5.8-.8 1.5-3.7 1.7-4.3.2-.6 1.5-1.7 2-1.8.5-.1 2-6.6 3.4-8 1.4-1.4 3-8.2 2.8-10.7-.2-2.4.9-7.1 1.2-8.2.3-1.1 2-3.1 2.6-3.5.5-.4 3.8-5.3 4.9-7 1-1.7 2.1-5.6 1.9-6.5-.2-.9-2.5-1.5-2.9-1.1-.4.4-2.6.8-3.3.8-.7 0-2.3-3.7-3.2-4.4-1-.8-1.9-5-2.4-5.8-.6-.8-2.1-2.8-2.6-3.3s-.6-2.7-.7-3.3c-.1-.6 1 .4 1.1 1.3.2.9 2.7 4.5 3.5 5.7.8 1.2 2.8 5.1 3.4 6.3.5 1.2 5.1.6 6.6-.1s3.3-1.9 3.4-2.3c.1-.4 2.4-1.5 3.1-2 .7-.5 1.2-3.3 1.7-3.7.4-.5-.3-3.1-.8-3.9-.5-.8-2.9-1.4-3.3-1.1-.5.3-1.5-1.8-1.9-2.5-.4-.8-2.2-1.7-2.4-2.2-.2-.5.5-1.4.8-1.5.3-.2 3.6 2.2 4.6 3.3 1 1.2 2.1 3.3 2.3 3.7.2.4 2.8.6 3.4.1.6-.4 1.3-.3 1.5.2l.8-.2 2.9-.4c1.4 1.5 1.8 2.8 1.7 3.1 0 .3.8 1.5 1.4 1.6.6.1 1 2 1.2 2.5.2.5 1.8 3.3 2.2 4.5.3 1.2 1.8 3.5 2.1 4.2.3.6.6 2.4.6 2.9s1.1 1.5 1.7 1.4c.7 0 2-4.2 2.3-5.8.3-1.5 1.4-2.8 1.7-2.8.3 0 .6-.9.6-1.2 0-.3 1.7-.3 1.8-.7.1-.4.6-3.2 1.2-3.6.6-.4 2.7-1.8 3.5-2.1.7-.3 2.7 1.4 3.1 2.2.4.8.8 2.7.6 3-.2.3 1 2 2 2s1.3 1.3 1.4 1.8c0 .5 1.4 1.8 1.6 2.4.3.6.2 2.3 0 2.7-.2.4-.1 2.6.1 3.2.2.6 3.3 3.8 4.5 4.7 1.2 1 1.7-2 1.1-2.9-.6-.9-2.6-3-3.1-3.7-.5-.6-.6-3.2-.4-3.9.2-.7 1.8.4 2.5.9s1.5 1.7 1.6 2c0 .4 4.2-2 4.4-4.5.1-2.6 1.5-5.4 1.7-6.1.1-.7-.4-1.6-.8-1.6s.6-1.9 1.8-1.9c1.2 0 4-3.1 4.7-4.4.7-1.2 2-2.3 2.2-2.4.2-.1 1.1-3.1 1.3-4.3.2-1.2-.7-3.1-.8-3.8-.1-.6-1.1-2.1-1.4-2.5-.3-.5-.5-2.2-.3-2.5.2-.3 1.2-.7 1.3-.9.1-.3 1.3-1.6 1.2-2.2-.1-.6.8.7 1.3 1.2.6.5 1.2 3.5 1.8 3.8.7.3 3.5-3.2 3.1-5.5-.3-2.3.8-5.2 1.5-5.5.5-.2 1.8-2.1 2.7-3.4-6.1-17.7-16.3-33.5-29.4-46.3h-.5l-1-.2c-1.7-.4-2.7-2.2-2.4-2.6.1-.1.1-.4 0-.8-1-.9-1.9-1.7-2.9-2.5h-2.2c-1 0-3.2-.8-3.6-1.2-.4-.4-1.7.4-1.8 1.1-.1.7-2.4 1.1-2.6 1.6-.2.6-1.4.6-1.7.3-.2-.3-2.4.8-3.5.9-1.1.1-3.1 1-3.6 1.2-.5.2-1.6 1.3-1.8 1.8-.2.5-1.6 1.2-2 1.4-.5.2-.4 2.2.2 2.5.6.3-1.1-.2-1.8-.6-.7-.4-1.5.9-1.8 1.3-.2.4-.9-.3-.9-.9 0-.6-1.8-1.1-2-.6-.2.5-1.5-.2-2-.4-.5-.3-2.8 2.1-3.6 2.9-.8.8-4.8 1.5-5.6 1.2-.7-.3-1.5 1.8-.8 1.9.6.1-1.6-.1-2.9 0-1.2.1-4.8 1.6-5.7 2.2-.9.6-1.6-.1-1.6-.6s-1.4-.9-1.8-1.1c-.4-.1-1.2 2.7-1.9 3.2-.7.6-1.6-2.2-3.3-2.7-1.7-.5-4.3-2.1-5.1-2.3-.7-.2-2.2-1.8-2.7-2.2-.4-.5-2.6-.8-3.3-.8-.7 0-2.9 1.3-3.5 1.8-.6.5-1.5.4-1.8.6-.3.2-2.8 2.6-3.8 3.4-1 .8-2.7 4.1-3.2 4.9-.6.8-1.4.9-1.7 1-.3 0-.6.9-.6 1.2 0 .3-2.9 1.8-3.2 3.1-.3 1.3.3 4.3.3 5.4 0 1.1 1.1 3.2 1.9 3.2.8 0 .4 1.8.2 2.3-.2.5.5 1 .5 1.5 0 .4-2 1-2.6 1.3-.6.2-1.6 1.6-1.8 2.1-.1.5-2 .8-2.7 1.4.2-.4.4-1 .5-1.4.4-.7-.1-1.9-.4-2.2-.3-.3-.4-3.7-.9-4.5-.5-.7-1.7-2-2-2.3-.3-.2.2-1.2.4-1.5.2-.4-1.6-.6-2.1-.3s-.8 3.7-1 4.7c-.2.9.9 2.4 1.2 2.5.3.1.2 1.8-.4 1.8-.6.1-1.2 2.5-.9 3.1.3.6-.5 1.7-.8 1.9-.4.3 2.4.1 3.7.1 1.3 0 2.3.5 2.1.6-.1.1-2.4.4-2.8 1-.4.5-2 1.6-2.3 2-.3.4.5 1.3 1.2 1.3s1.4 2.3 1.9 2.7c.5.4.3 1.6.1 2-.2.3-3.3-.2-4.5.1-1.2.3-2.7 2.8-2.8 3.7-.1.9.2 3.7.3 4.4.1.7 2.6 1.2 3.1 1.6.5.4 2.9 0 3.4.2s2.1-2.4 2.4-3.6c.3-1.2 2.8-3.5 3.4-4.3.5-.8 3.2-.7 3.9-1.2.7-.4.3 2.1.6 3.4.3 1.4 2.9 1.2 2.5-.1-.4-1.3.3-1.8.4-1.4.1.5 2.6 1.5 3.1 2.2.5.7.3 2.3-.2 2.2-.6 0-.6 1.7 0 1.9.6.2 1.4-1.9 2-2.2.6-.3 1.1-1.6.8-1.7-.3-.1.5-1.3.9-.9s-1.3-2.6-2.4-3.6c-1.1-1.1-.3-.6 1.7 1.1l1.4 1.9c.3.3.6 1.4.9 1.8l.3.6c.3.7.5 2.5.5 3s1.1 1.5 1.7 1.4c.7 0 1.1.3 1 .3-.1 0 .4 1.3 1.1 1.3.6 0 .9-1.6.3-1.7-.7 0-.5-2.5-.6-3.5-.1-1.1.5-1.9.7-1.9.2 0 0 2.2 0 2.7s.3 1.5.6 2.2l.7.5 1.5 1.2c2.2-.6 5.1-.2 4.9.3-.1.4 1.6.5 1.7-.2.1-.7.2 0 .2.5s-1.4 2.4-1.7 3.3c-.2.9-5.2.3-7.4.1-2.1-.2-5.3.6-5.6 1.2-.2.6-3.6-1.5-5.1-2.1-1.5-.6-2.7-3-3.1-3.3-.3-.3.3-1.1.1-1.5-.1-.5-3.6-.6-4.7-.2-1 .4-6.3.9-7.5 1.5-1.2.6-3.1 0-3.7-.1-.6-.1-2 1.6-2.7 1.9-.7.3-1.6 2.7-2 5.4l-1 1.9-.6 1.2c-1.7 1.3-3.7 5.7-4.2 6.6-.6.9-1 7.2-1 9.4 0 2.1 1.9 6.7 2.4 7.9.5 1.2 3.7 4 4.8 4.7 1.1.6 4.6.7 5.7.7 1.1 0 2.4-1.1 2.9-2.4l1.7.2.8.1c0 .9 2.5 1.7 3.1 2 .6.3 2.2.1 2.7-.1.5-.1 1 4.2.7 5.5-.4 1.3.9 5.7 1.2 7 .4 1.3 1.9 5 2 6.3.1 1.3-.9 5.7-1.1 7.2-.2 1.5 1.9 5.8 2.5 7.3.5 1.5 1 4.6 1 5.4 0 .7 2.3 5.2 2.8 7 .6 1.8 6.2 2.2 7.8 1.3zm98.3-54.1c.2.3 1.6-.8 2.4-.9.9-.1 1.4-2.4.7-2.6-.7-.2-1.5-2-2-2.2-.5-.2-1.4.8-1.4 1.5s-1.6 1-1.9 1.6c-.3.6-.3 1 .1.9.4-.2 2 1.3 2.1 1.7zm-1.7 12.5c.4-.2 0-2.4-.9-2.6-.9-.2-3.4 3-2.9 4.8.5 1.8 1 1.7 1.2 1.3.3-.4 1.7.3 2.2.4.4.1.4-.3 0-1-.5-.6 0-2.8.4-2.9zm-4.9-2.2c.1-.8.3-3.4.4-3.9.1-.5-1.4-2-2.1-2.2-.7-.3-3.2 5-4.9 5.9-1.7.9-2.4 4.1-1.9 4.8.5.7 4.1 1.1 4.7 1.7.6.5 1.3-.1 1.7-.2.4-.1.3-.3.1-.4-.1-.1 1.3-1.6 1.5-2.5.1-1 .4-2.4.5-3.2zm-9.8 8.6c-1.4-.5-2.9.3-3.1.8-.1.5 5.2 1.4 7 1.8 1.8.5 2.9.6 2.5.3-.4-.2-5.1-2.3-6.4-2.9zm10.8-34.7c.4-.6-.6-3.4-1.1-2.8-.5.6-.1 2.3 0 2.8.2.7.7.6 1.1 0zm3.2 6c.3-.7-.4-1.5-1.5-1.8-1.2-.2-1 3.2-.5 3.7s1.7-1.1 2-1.9zm6 21.5c1.4 1 4.5.5 4.6-1.3-1.4-.9-4.7-.7-4.6 1.3zm-.7-42.5c-.6.4-.9 1.4-.7 1.8h-.2c-.5 0-.5 1.8 0 2.1.5.3 1.6-1.4 2.3-1.8.6-.4 1.8-.7 2-.5.2.1 1.3-.2 2.4-.7.2-.1.4-.4.7-.8-.3-1.3-.6-2.6-.9-4-.6.4-1.2.9-1.5 1.1-.8.6-3.3 2.3-4.1 2.8zm-31.5 36.6c-.3-.2-.3-.2 0 0z"
       id="path4" />
    <path
       d="M235.4 157.1c-.5-1.1-2.2-3-3.7-4.2l-.6-.9-.6-1c-.6-1.1-2.3-2-2.4-2.4-.1-.3-.7 1-1.3.6.3.2.9.7 1.8 1.3 1.6 1.1 4.7 8.9 5.4 9.5.7.4 1.9-1.8 1.4-2.9zm-24.7-12.6c-.4.9 2.3 2.7 2.5 2.3.2-.4-.3-2.6-.8-3.1-.5-.4-1.2 0-1.7.8zm-36 41.6c.1.9 2 1.7 2.5 1.5.6-.2 2.1-2.9 2.3-3.7.2-.8.4-2.5.4-2.9 0-.4.2-1.3.5-1.5.2-.1.5-1.1.8-2.1.2-1.1-1.1-6-1.2-6.8 0-.9-1 .4-1.2 1.3-.3.9-2.7 2.6-3.2 3.4-.5.7-1.1 3.2-.9 3.7.2.4-.2 2.1-.5 2.6-.4.4.4 3.5.5 4.5zm-88 33.9h1.6c.4-1.8-1.7-1.5-1.6 0zm43.7-184.6c-.7.1-2.5-.3-2.8-.6-.3-.3-3-.6-3.7-.3-.8.3-.2-1.9.8-2.1 1.1-.2.2-1.8-1-1.8-1.1 0-4-.4-4.6-.3-.7.1-2-.5-2.4-.5-.5-.1-3.9 1-5.4.9-1.6-.1-5.5.1-6.4.3-.9.2-1.5 1.9-1.4 2.5.1.6-3.8.6-5 .6-1.2 0-7.8 1.4-9.5 2.4-1.7.9-3.1 3.4-2.5 3.4.6 0-1 1.4-1.9 1.7-.9.3-3.1.5-3.6 1s.6.9.8 1.2c.2.3.8-.3 1.4 0 .6.3 2.5.5 3 .7.5.2-1.6.6-2.6.7-1 .1-.8 2 0 2.3.8.3 2.9.6 3.1.2.2-.3 2.5.4 3.5.5 1 .1 1.8 2.7 2.1 3.3.3.6.4 2.5.3 3.1-.1.6 1.8 1.6 2.2 1.2.3-.4.2.9-.5.8-.8-.1-.3 2.1.7 2.4.9.3.3 1.7-.2 2.1-.5.4-.2 1.7-.8 2.2-.5.5 2 4.8 1.9 7 0 2.2 1.4 4.1 1.9 4.1s2.4.4 2.6.9c.2.5 1.1-.3 1.5-.7.3-.4 1.1-1.4 1.7-2.4.6-.9 1.8-5.4 2-5.9.2-.5 2.3-.2 2.8-.4s1.9-1.3 2.3-1.7c.4-.3 3.4-1.6 4.2-2.2.8-.6 2.2-3.1 2.8-3.7.6-.5-.3-.4-1.1-.9s-.4-1.2-.2-1.4c.2-.3 2.6.4 3.5.7.8.3 2.4-.8 1.8-1.3-.6-.4-.3-.4 0-.2s.6-1.5.3-1.8c-.3-.3 2.5-2.3 2-4.3-.5-1.9.8-3.9 1.5-3.9s.5-2.2-.4-2.4c-.9-.2-.1-.4.3-.7.3-.3.8-2.2.6-2.6-.2-.4 1.4-.8 1.6-1.2.3-.4 2.1-1.3 2.7-1.4.5.1.8-1.6.1-1.5zm15.6 1.5c-.9-.3-2.6.7-2.4 1.2.2.5-1.4-.7-2.5-.1s-1.4 2.6-.9 2.8c.5.3.9 1.8.9 2.1 0 .3 2.2.1 2.8-.4.5-.5.5 1.6-.1 2.2-.6.6.2 1.7.8 1.8.6.1 1.4 1.5 2.1 1.5.6 0 1.7-2.4 1.9-3.3.2-.9 2.3-.2 3.3.1 1 .3 1.3-3.3.3-3.9-1-.5-2.3-.3-2.8-.7-.4-.4-1.2-.8-1.6-.9-.5 0-1-2.1-1.8-2.4zm8.3 1.8c1.7.2 3.6-1.1 4-1.5.4-.4-4.7-1.4-6.6-1.5-1.9-.1-3.5.2-3.5.6.1.3 4.4 2.1 6.1 2.4zm-30.7 45.5c-.4-.2-.7 1.5-.6 2.1.1.6 1.7.6 2.3.5.7-.1 1.2-.6 1.1-1.2 0-.5-1-3-1.3-3s-1 1.8-1.5 1.6zm5-19.4c-.3-.6-3-.5-3.6-.6-.6 0-2.6-.7-3-1.1-.4-.4-.7 1.6-1.3 1.9-.6.3.3.7.5.4.2-.2 0 1.1-.3 1.5-.3.4 1.8.7 2 1.4.2.7 1.1 1.1 1.9 1 .8-.1 2.4-1 2.9-1 .6-.1 1.2-2.9.9-3.5zM184 49.7c.9-.9 4.6-2.1 5.1-3.1.4-.9-.3-1.7-.6-1.7-.4 0-.8.5-.9.6-.1.2-4.4 1.2-5.7 1.8-1.3.6-2.8 1.6-3.4 2.2-.6.6-1.5 4.8-1.8 5.3-.3.5 1.4 2.2 2.2 2.7.8.5 1.8.2 2.1.1.3-.1-.4-3.1-.8-4.1-.4-1 2.9-2.9 3.8-3.8zm-4.5-11.1c1.4 1.4 2.2-.6 3.7-.4 0-2.8-3.9-1.9-3.7.4zm27.4.6c0 .5 3.9.9 5.1.7 1.1-.2-.2-2-1.9-1.9-1.8.1-3.2.6-3.2 1.2zM64.1 68.4c-.4.4-.1 2.3.7 2.4.8.1 2-2.9 3-2.3 1 .6 1.6.8 1.5.5-.2-.3-2.9-1.5-3.3-1.7-.3-.3-1.5.7-1.9 1.1zm10.1 65.5c0 .3 1.7.3 2-.3.3-.5.1-1-.3-1-.5.1-1.7.9-1.7 1.3zm-7.6-2.9c.8-.2.4 1.2.6 1.7.2.5 2.2.9 2.6 1.2.4.3 1.4-.6 2.2-.5.8.1-.3-2.7-1.6-2.6-1.3.1-2.4-1.2-2.7-1.4-.3-.1-1.8-1.1-2.3-1.4-.4-.4-3.8-.7-4.9-.7-1.1 0-2.4 1.2-2.6 1.5-.2.4 1.8.6 2.4.3.6-.3 3.2.3 3.8 1 .5.7 1.6 1.1 2.5.9zm-3.7 2.9c0 .3 1.7.1 2.2.1.4 0 .4-.3 0-.6-.5-.4-2.2.1-2.2.5zm1.3-9c-.4-.2-.8.5-.8.9 0 .3.2.6.5.6s.7-1.3.3-1.5zm3.6.3c-.1-.3-.9-.6-1.1-.6-.2 0-.4.6-.3 1.3 0 .7 1.6-.4 1.4-.7zm2.6 4c.7-.3.8-1.2.4-1.1-.4 0-1.2-1.2-1.6-1.4-.5-.2-.8.7-.8 1.2 0 .4.3.7.6.6.2-.1.7 1.1 1.4.7zm193.9 27.3c-.4.2-2.1.4-2.3 0-.2-.3-.6.7-1 .9-.4.2-.2 1.1.4.8.4-.2 2 .7 3.4 1.6.3-1.3.5-2.7.7-4-.5.2-1 .6-1.2.7z"
       id="path6" />
  </g>
  <path
     d="M74.9 45.1c-.1-.1-.6.2-.4.5.1.1.6-.2.4-.5zm13.2 39.4c-.1-.1-.6.2-.4.5.1.1.6-.3.4-.5z"
     fill="#d1ecfb"
     id="path10" />
  <path
     d="M206.5 240.5c-.4 0-.7-.3-.7-.7 0-.4.3-.7.7-.7 1.6 0 3.2-.1 4.8-.2.4 0 .7.3.7.6 0 .4-.3.7-.6.7-1.6.3-3.2.3-4.9.3zm-4.8 0c-1.6 0-3.2-.1-4.8-.2-.4 0-.7-.3-.6-.7 0-.4.4-.7.7-.6 1.6.1 3.2.2 4.8.2.4 0 .7.3.7.7-.1.3-.4.6-.8.6zm-9.5-.5c-.1 0-.1 0 0 0-1.6-.1-3.2-.3-4.9-.5-.4 0-.6-.4-.6-.8s.4-.6.8-.6c1.6.2 3.2.4 4.7.5.4 0 .7.4.6.7 0 .4-.3.7-.6.7zm23.9 0c-.3 0-.6-.3-.7-.6 0-.4.2-.7.6-.8 1.6-.2 3.2-.4 4.7-.6.4-.1.7.2.8.6.1.4-.2.7-.6.8-1.5.2-3.1.4-4.8.6zm-33.5-1.2h-.1c-1.6-.2-3.2-.5-4.7-.8-.4-.1-.6-.4-.6-.8.1-.4.4-.6.8-.6 1.6.3 3.2.5 4.7.8.4.1.6.4.6.8s-.3.6-.7.6zm43-.3c-.3 0-.6-.2-.7-.5-.1-.4.2-.7.5-.8 1.6-.3 3.1-.7 4.6-1.1.4-.1.7.1.8.5.1.4-.1.7-.5.8-1.5.4-3.1.8-4.7 1.1.1 0 0 0 0 0zm-52.4-1.4h-.1c-1.6-.3-3.1-.7-4.7-1-.4-.1-.6-.5-.5-.8.1-.4.5-.6.8-.5 1.6.4 3.1.7 4.7 1 .4.1.6.4.5.8-.1.3-.4.5-.7.5zm61.6-1c-.3 0-.6-.2-.6-.5-.1-.4.1-.7.4-.9 1.5-.5 3-1.1 4.4-1.7.3-.1.7 0 .9.4.1.3 0 .8-.4.9-1.5.6-3 1.2-4.5 1.7 0 0-.1.1-.2.1zm-70.9-1.2h-.2c-1.5-.4-3.1-.8-4.6-1.3-.4-.1-.6-.5-.5-.8.1-.4.5-.6.8-.5 1.5.4 3.1.9 4.6 1.3.4.1.6.5.5.8 0 .3-.3.5-.6.5zm79.8-2.5c-.3 0-.5-.1-.6-.4-.2-.3 0-.8.3-.9 1.4-.7 2.8-1.5 4.1-2.3.3-.2.7-.1.9.2.2.3.1.7-.2.9l-4.2 2.4c-.1 0-.2.1-.3.1zm-89-.1h-.2c-1.5-.5-3-1-4.6-1.5-.4-.1-.6-.5-.4-.9.1-.4.5-.6.9-.4l4.5 1.5c.4.1.6.5.4.9-.1.2-.3.4-.6.4zm-9.1-3.1h-.2c-1.5-.5-3-1.1-4.5-1.7-.4-.1-.5-.5-.4-.9.1-.4.5-.5.9-.4 1.5.6 3 1.1 4.5 1.7.4.1.5.5.4.9-.2.3-.4.4-.7.4zm106.2-1.9c-.2 0-.4-.1-.5-.3-.2-.3-.2-.7.1-1 1.3-1 2.5-2 3.6-3 .3-.3.7-.2 1 0 .3.3.2.7 0 1-1.2 1.1-2.4 2.1-3.7 3.1-.2.2-.4.2-.5.2zm-115.2-1.5c-.1 0-.2 0-.3-.1-1.5-.6-3-1.2-4.4-1.9-.3-.2-.5-.6-.4-.9.2-.3.6-.5.9-.4 1.5.6 2.9 1.3 4.4 1.9.4.1.5.5.4.9 0 .3-.3.5-.6.5zm-8.8-3.8c-.1 0-.2 0-.3-.1-1.5-.7-2.9-1.3-4.4-2-.3-.2-.5-.6-.3-.9.2-.3.6-.5.9-.3 1.4.7 2.9 1.4 4.3 2 .3.2.5.6.3.9 0 .2-.2.4-.5.4zm131.1-1.1c-.2 0-.3-.1-.5-.2-.3-.3-.3-.7-.1-1 1-1.2 2-2.4 3-3.7.2-.3.6-.4 1-.2.3.2.4.6.2 1-.9 1.3-2 2.6-3 3.8-.3.2-.5.3-.6.3zm-139.7-3c-.1 0-.2 0-.3-.1-1.4-.7-2.9-1.4-4.3-2.2-.3-.2-.5-.6-.3-.9.2-.3.6-.5.9-.3 1.4.7 2.8 1.5 4.3 2.2.3.2.5.6.3.9-.1.2-.4.4-.6.4zm-8.5-4.5c-.1 0-.2 0-.3-.1l-4.2-2.4c-.3-.2-.4-.6-.3-.9.2-.3.6-.4.9-.3 1.4.8 2.8 1.6 4.2 2.3.3.2.5.6.3.9-.1.4-.4.5-.6.5zm153.7-.3c-.1 0-.2 0-.3-.1-.3-.2-.4-.6-.3-.9.8-1.4 1.5-2.8 2.1-4.2.2-.3.6-.5.9-.3.3.2.5.6.3.9-.7 1.5-1.4 2.9-2.2 4.3 0 .2-.2.3-.5.3zm-162-4.5c-.1 0-.2 0-.3-.1-1.4-.8-2.7-1.7-4.1-2.5-.3-.2-.4-.6-.2-.9.2-.3.6-.4.9-.2 1.4.8 2.7 1.7 4.1 2.5.3.2.4.6.2.9-.2.2-.4.3-.6.3zm165.9-4.3h-.2c-.4-.1-.6-.5-.4-.9.5-1.5.9-3 1.2-4.6.1-.4.4-.6.8-.5.4.1.6.4.5.8-.4 1.6-.8 3.2-1.3 4.7 0 .4-.3.5-.6.5zm-174.1-.7c-.1 0-.3 0-.4-.1-1.4-.9-2.7-1.8-4-2.6-.3-.2-.4-.6-.2-1 .2-.3.6-.4 1-.2 1.3.9 2.7 1.8 4 2.6.3.2.4.6.2.9-.1.3-.3.4-.6.4zm-7.9-5.4c-.1 0-.3 0-.4-.1-1.3-.9-2.6-1.8-3.9-2.8-.3-.2-.4-.7-.2-1 .2-.3.6-.4 1-.2 1.3.9 2.6 1.9 3.9 2.8.3.2.4.6.2 1-.2.2-.4.3-.6.3zm184.1-3.2s-.1 0 0 0c-.5-.1-.7-.4-.7-.8.2-1.5.3-3.1.4-4.7 0-.4.3-.7.7-.7.4 0 .7.3.7.7-.1 1.6-.2 3.3-.4 4.8-.1.4-.4.7-.7.7zm-191.9-2.4c-.1 0-.3 0-.4-.1-1.3-1-2.6-1.9-3.8-2.9-.3-.2-.4-.7-.1-1 .2-.3.7-.4 1-.1 1.3 1 2.5 1.9 3.8 2.9.3.2.4.7.1 1-.2.1-.4.2-.6.2zm-7.5-5.9c-.2 0-.3 0-.4-.2-1.3-1-2.5-2-3.7-3.1-.3-.2-.3-.7-.1-1 .2-.3.7-.3 1-.1 1.2 1 2.4 2 3.7 3.1.3.2.3.7.1 1-.3.2-.4.3-.6.3zm199.8-1.3c-.4 0-.7-.3-.7-.7-.1-1.5-.2-3.1-.3-4.7 0-.4.2-.7.6-.8.4-.1.7.2.8.6.2 1.6.3 3.2.3 4.8 0 .5-.3.8-.7.8zm-207.2-4.9c-.2 0-.3-.1-.5-.2-1.2-1.1-2.4-2.1-3.6-3.2-.3-.3-.3-.7 0-1 .3-.3.7-.3 1 0 1.2 1.1 2.4 2.1 3.6 3.2.3.3.3.7.1 1-.2.1-.4.2-.6.2zm206.2-4.6c-.3 0-.6-.2-.7-.6-.3-1.5-.6-3.1-.9-4.7-.1-.4.1-.7.5-.8.4-.1.7.1.8.5.4 1.6.7 3.2.9 4.7.1.4-.2.7-.6.8.1.1.1.1 0 .1zM56.6 174c-.2 0-.3-.1-.5-.2-1.2-1.1-2.3-2.2-3.5-3.3-.3-.3-.3-.7 0-1 .3-.3.7-.3 1 0 1.1 1.1 2.3 2.2 3.4 3.3.3.3.3.7 0 1-.1.2-.3.2-.4.2zm-6.9-6.7c-.2 0-.4-.1-.5-.2-1.1-1.2-2.2-2.3-3.3-3.5-.3-.3-.2-.7 0-1 .3-.3.7-.2 1 0 1.1 1.2 2.2 2.3 3.3 3.5.3.3.3.7 0 1-.1.1-.3.2-.5.2zm218-.7c-.3 0-.6-.2-.7-.5-.4-1.5-.9-3-1.4-4.5-.1-.4.1-.7.4-.9.4-.1.7.1.9.4.5 1.5 1 3.1 1.4 4.6.1.4-.1.7-.5.8 0 0 0 .1-.1.1zm-224.5-6.3c-.2 0-.4-.1-.5-.2-1.1-1.2-2.1-2.4-3.1-3.6-.2-.3-.2-.7.1-1 .3-.2.7-.2 1 .1 1 1.2 2.1 2.4 3.1 3.6.3.3.2.7-.1 1-.1 0-.3.1-.5.1zm-6.2-7.4c-.2 0-.4-.1-.5-.3-1-1.3-2-2.5-3-3.8-.2-.3-.2-.7.1-1 .3-.2.7-.2 1 .1 1 1.3 1.9 2.5 2.9 3.8.2.3.2.7-.1 1-.1.2-.2.2-.4.2zm-5.8-7.6c-.2 0-.4-.1-.6-.3-.9-1.3-1.9-2.6-2.8-3.9-.2-.3-.1-.7.2-1 .3-.2.7-.1 1 .2l2.7 3.9c.2.3.2.7-.2 1 0 .1-.1.1-.3.1zm-5.4-7.9c-.2 0-.4-.1-.6-.3-.9-1.4-1.7-2.7-2.5-4.1-.2-.3-.1-.7.2-.9.3-.2.7-.1.9.2.8 1.3 1.7 2.7 2.5 4.1.2.3.1.7-.2.9 0 .1-.1.1-.3.1zm-4.9-8.2c-.2 0-.5-.1-.6-.4-.8-1.4-1.6-2.9-2.3-4.3-.2-.3 0-.7.3-.9.3-.2.7 0 .9.3.7 1.4 1.5 2.8 2.2 4.2.2.3.1.7-.3.9 0 .1-.1.2-.2.2zm-4.4-8.6c-.3 0-.5-.1-.6-.4-.7-1.5-1.3-3-2-4.4-.1-.3 0-.8.4-.9.4-.1.8 0 .9.4.6 1.4 1.2 2.9 1.9 4.4.2.3 0 .8-.3.9h-.3zm-3.7-8.8c-.3 0-.5-.2-.6-.4-.6-1.5-1.1-3.1-1.6-4.6-.1-.4.1-.7.4-.9.4-.1.7.1.9.4.5 1.5 1 3 1.6 4.5.1.4 0 .7-.4.9-.1.1-.2.1-.3.1zm-2.9-9.1c-.3 0-.6-.2-.7-.5-.4-1.6-.8-3.2-1.1-4.7-.1-.4.2-.7.5-.8.4-.1.7.2.8.5.3 1.5.7 3.1 1.1 4.6.1.4-.1.7-.5.8.1.1 0 .1-.1.1zM8 93.3c-.3 0-.6-.2-.7-.6-.2-1.6-.4-3.2-.5-4.8 0-.4.3-.7.6-.7.4 0 .7.3.7.6.1 1.5.3 3.1.5 4.7.1.4-.1.7-.6.8.1 0 0 0 0 0zm-.7-9.6c-.4 0-.7-.3-.7-.7v-.3c0-1.5.1-3 .2-4.5 0-.4.4-.7.7-.6.4 0 .7.4.6.7-.1 1.4-.1 2.9-.1 4.4v.3c0 .4-.3.7-.7.7zm.7-9.5h-.1c-.4-.1-.6-.4-.6-.8.3-1.6.6-3.2 1-4.8.1-.4.5-.6.8-.5.4.1.6.5.5.8-.4 1.5-.7 3.1-1 4.6 0 .4-.3.7-.6.7zm2.4-9.3h-.2c-.4-.1-.5-.5-.4-.9.6-1.5 1.2-3 1.9-4.5.2-.3.6-.5.9-.3.3.2.5.6.3.9-.7 1.4-1.3 2.9-1.9 4.3 0 .3-.3.5-.6.5zm4.2-8.6c-.1 0-.3 0-.4-.1-.3-.2-.4-.6-.2-.9l.2-.4c.8-1.2 1.7-2.5 2.6-3.6.2-.3.7-.3 1-.1.3.2.3.7.1 1-.9 1.1-1.7 2.3-2.5 3.5l-.2.3c-.1.2-.3.3-.6.3zm5.9-7.5c-.2 0-.3-.1-.5-.2-.3-.3-.3-.7 0-1 1.1-1.1 2.3-2.3 3.5-3.3.3-.2.7-.2 1 .1.2.3.2.7-.1 1-1.2 1-2.4 2.1-3.4 3.2-.1.1-.3.2-.5.2zm7.3-6.2c-.2 0-.4-.1-.6-.3-.2-.3-.1-.7.2-1 1.3-.9 2.7-1.8 4.1-2.6.3-.2.7-.1.9.3.2.3.1.7-.3.9-1.4.8-2.7 1.6-4 2.5 0 .2-.1.2-.3.2zm8.3-4.8c-.3 0-.5-.1-.6-.4-.2-.3 0-.8.3-.9 1.4-.7 2.9-1.3 4.5-1.9.4-.1.8 0 .9.4.1.4 0 .7-.4.9-1.5.6-3 1.2-4.4 1.9h-.3zm9-3.4c-.3 0-.6-.2-.7-.5-.1-.4.1-.7.5-.9 1.5-.5 3.1-.9 4.7-1.3.4-.1.7.1.8.5.1.4-.1.7-.5.8-1.6.4-3.1.8-4.6 1.3-.1.1-.2.1-.2.1zm9.3-2.3c-.3 0-.6-.2-.7-.6-.1-.4.2-.7.5-.8 1.5-.3 3.2-.5 4.8-.8.4 0 .7.2.8.6 0 .4-.2.7-.6.8-1.6.2-3.2.5-4.7.7 0 .1-.1.1-.1.1zm33.4-.9c-1.7-.2-3.3-.3-4.8-.4-.4 0-.7-.4-.6-.7 0-.4.3-.7.7-.6 1.6.1 3.2.2 4.8.4.4 0 .7.4.6.8 0 .2-.3.5-.7.5zm-23.9-.3c-.4 0-.7-.3-.7-.6 0-.4.2-.7.6-.7l4.8-.3c.4 0 .7.3.7.7 0 .4-.3.7-.7.7-1.5-.1-3.1 0-4.7.2zm14.3-.4c-1.5-.1-3.1-.1-4.5-.1h-.2c-.4 0-.7-.3-.7-.7 0-.4.3-.7.7-.7h.2c1.5 0 3 0 4.6.1.4 0 .7.3.7.7-.1.4-.4.7-.8.7zm49.6 240.4c-.4 0-.6-.3-.7-.6 0-.4.3-.7.6-.7 1.5-.1 3-.2 4.6-.4.4 0 .7.2.7.6 0 .4-.2.7-.6.7-1.4.2-3 .4-4.6.4.1 0 0 0 0 0zm-4.6 0c-1.6-.1-3.2-.2-4.7-.4-.4-.1-.6-.4-.6-.8.1-.4.4-.6.8-.6 1.5.2 3 .4 4.6.4.4 0 .6.3.6.7-.1.4-.4.7-.7.7zm13.8-1.1c-.3 0-.6-.2-.6-.5-.1-.4.2-.7.5-.8 1.5-.3 3-.7 4.4-1.1.4-.1.7.1.8.5.1.4-.1.7-.5.8-1.5.4-3 .8-4.5 1.1h-.1zm-23-.2h-.2c-.6-.1-1.2-.3-1.8-.5-.9-.3-1.8-.5-2.7-.8-.3-.1-.5-.5-.4-.8.1-.3.5-.5.8-.4.9.3 1.7.6 2.6.8.6.2 1.2.3 1.8.5.4.1.6.4.5.8 0 .2-.3.4-.6.4zm31.9-2.4c-.3 0-.5-.2-.6-.4-.1-.3.1-.7.4-.8 1.4-.5 2.8-1.1 4.3-1.7.3-.1.7 0 .9.3.1.3 0 .7-.3.9-1.4.6-2.9 1.2-4.3 1.8-.2-.1-.3-.1-.4-.1zm-40.6-.6c-.1 0-.2 0-.3-.1-1.4-.6-2.8-1.4-4.2-2.1-.3-.2-.4-.6-.2-.9.2-.3.6-.4.9-.2 1.3.8 2.7 1.5 4.1 2.1.3.2.5.5.3.9-.2.1-.4.3-.6.3zm49.1-3.1c-.2 0-.5-.1-.6-.4-.2-.3 0-.7.3-.9 1.3-.7 2.7-1.4 4-2.2.3-.2.7-.1.9.2.2.3.1.7-.2.9-1.4.8-2.7 1.6-4.1 2.2-.1.1-.2.2-.3.2zM97.2 262c-.1 0-.3 0-.4-.1-1.3-.9-2.5-1.8-3.7-2.8-.3-.2-.3-.7-.1-.9.2-.3.7-.3.9-.1 1.2 1 2.4 1.9 3.6 2.8.3.2.4.6.2.9-.1.1-.3.2-.5.2zm65.2-3.2c-.2 0-.4-.1-.6-.3-.2-.3-.1-.7.2-.9 1.3-.8 2.5-1.7 3.8-2.6.3-.2.7-.1.9.2.2.3.1.7-.2.9-1.3.9-2.6 1.8-3.8 2.6 0 .1-.2.1-.3.1zm-72.3-2.7c-.2 0-.3-.1-.5-.2-1.1-1.1-2.2-2.2-3.2-3.4-.2-.3-.2-.7.1-.9.3-.2.7-.2.9.1 1 1.2 2.1 2.3 3.2 3.3.3.3.3.7 0 .9-.2.1-.4.2-.5.2zm79.8-2.7c-.2 0-.4-.1-.5-.3-.2-.3-.2-.7.1-.9 1.2-.9 2.4-1.9 3.6-2.9.3-.2.7-.2.9.1.2.3.2.7-.1.9l-3.6 3c-.1 0-.2.1-.4.1zm-86-4.2c-.2 0-.4-.1-.5-.3-.9-1.2-1.9-2.5-2.7-3.8-.2-.3-.1-.7.2-.9.3-.2.7-.1.9.2.9 1.3 1.8 2.5 2.7 3.7.2.3.2.7-.1.9-.2.1-.4.2-.5.2zm93.1-1.9c-.2 0-.4-.1-.5-.2-.2-.3-.2-.7 0-.9 1.1-1 2.2-2.1 3.3-3.2.3-.3.7-.3.9 0 .3.3.3.7 0 .9-1.1 1.1-2.2 2.2-3.4 3.2 0 .2-.2.2-.3.2zm-98.3-5.8c-.2 0-.4-.1-.6-.3-.8-1.3-1.5-2.7-2.3-4.1-.2-.3 0-.7.3-.9.3-.2.7 0 .9.3.7 1.4 1.5 2.7 2.3 4 .2.3.1.7-.2.9-.2.1-.3.1-.4.1zm104.9-.7c-.2 0-.3-.1-.5-.2-.3-.3-.3-.7 0-.9 1-1.1 2.1-2.2 3.1-3.4.2-.3.7-.3.9-.1.3.2.3.7.1.9-1 1.2-2.1 2.3-3.1 3.4-.2.2-.4.3-.5.3zm6.1-6.9c-.1 0-.3-.1-.4-.2-.3-.2-.3-.7-.1-.9 1-1.2 2-2.4 2.9-3.6.2-.3.6-.3.9-.1.3.2.3.6.1.9-1 1.2-1.9 2.4-2.9 3.6-.1.2-.3.3-.5.3zm-115.3-.6c-.2 0-.5-.1-.6-.4-.6-1.4-1.3-2.8-1.9-4.3-.1-.3 0-.7.4-.9.3-.1.7 0 .9.4l1.8 4.2c.2.3 0 .7-.3.9-.1.1-.2.1-.3.1zm121-6.8c-.1 0-.3 0-.4-.1-.3-.2-.4-.6-.1-.9.9-1.2 1.8-2.5 2.7-3.8.2-.3.6-.4.9-.2.3.2.4.6.2.9-.9 1.3-1.8 2.5-2.7 3.8-.2.3-.4.3-.6.3zm5.4-7.6c-.1 0-.3 0-.4-.1-.3-.2-.4-.6-.2-.9.8-1.3 1.7-2.6 2.5-3.9.2-.3.6-.4.9-.2.3.2.4.6.2.9-.8 1.3-1.7 2.6-2.5 3.9-.1.2-.3.3-.5.3zm4.9-7.8c-.1 0-.2 0-.3-.1-.3-.2-.4-.6-.2-.9.8-1.3 1.6-2.7 2.3-4 .2-.3.6-.4.9-.3.3.2.4.6.3.9-.8 1.4-1.5 2.7-2.3 4-.3.3-.5.4-.7.4zm4.5-8.1c-.1 0-.2 0-.3-.1-.3-.2-.4-.6-.3-.9.7-1.4 1.4-2.7 2.1-4.1.2-.3.6-.5.9-.3.3.2.5.6.3.9-.7 1.4-1.4 2.8-2.1 4.1-.1.3-.3.4-.6.4zm4.2-8.3c-.1 0-.2 0-.3-.1-.3-.2-.5-.6-.3-.9.7-1.4 1.3-2.8 1.9-4.2.2-.3.5-.5.9-.3.3.2.5.5.3.9-.6 1.4-1.3 2.8-2 4.2 0 .3-.3.4-.5.4zm3.8-8.5c-.1 0-.2 0-.3-.1-.3-.1-.5-.5-.3-.9.6-1.4 1.2-2.8 1.8-4.3.1-.3.5-.5.9-.4.3.1.5.5.4.9-.6 1.4-1.2 2.9-1.8 4.3-.2.4-.4.5-.7.5zm3.5-8.6h-.2c-.3-.1-.5-.5-.4-.9.5-1.4 1.1-2.9 1.6-4.3.1-.3.5-.5.8-.4.3.1.5.5.4.8-.5 1.5-1.1 2.9-1.6 4.4-.1.3-.4.4-.6.4zm3.1-8.7h-.2c-.3-.1-.5-.5-.4-.8.5-1.5 1-2.9 1.4-4.4.1-.3.5-.5.8-.4.3.1.5.5.4.8-.5 1.5-.9 3-1.4 4.4-.1.2-.4.4-.6.4zm2.7-8.9h-.2c-.4-.1-.6-.5-.5-.8.2-.6.4-1.2.5-1.8.2-.9.5-1.7.7-2.6.1-.4.5-.6.8-.5.4.1.6.5.5.8-.2.9-.5 1.8-.7 2.6-.2.6-.3 1.2-.5 1.8 0 .3-.3.5-.6.5zm2.4-8.9h-.2c-.4-.1-.6-.4-.5-.8.4-1.5.7-3 1.1-4.5.1-.4.4-.6.8-.5.4.1.6.4.5.8-.3 1.5-.7 3-1.1 4.5 0 .3-.3.5-.6.5zm2.1-9.1h-.1c-.4-.1-.6-.4-.5-.8l.9-4.5c.1-.4.4-.6.8-.5.4.1.6.4.5.8-.3 1.5-.6 3-.9 4.6-.1.2-.4.4-.7.4zm1.7-9.1h-.1c-.4-.1-.6-.4-.5-.8.3-1.5.5-3.1.7-4.6.1-.4.4-.6.8-.6.4.1.6.4.6.8-.2 1.5-.5 3.1-.7 4.6-.2.4-.5.6-.8.6zm1.3-9.2s-.1 0 0 0c-.4 0-.7-.4-.7-.7.2-1.5.4-3.1.5-4.6 0-.4.4-.6.7-.6.4 0 .6.4.6.7-.2 1.5-.3 3.1-.5 4.6 0 .4-.3.6-.6.6zm.9-9.2c-.4 0-.7-.3-.7-.7.1-1.5.2-3.1.3-4.6 0-.4.4-.6.7-.6.4 0 .6.3.6.7-.1 1.5-.2 3.1-.3 4.6 0 .3-.3.6-.6.6zm.5-9.3c-.4 0-.7-.3-.7-.7 0-1.5.1-3.1.1-4.6 0-.4.3-.7.7-.7.4 0 .7.3.7.7 0 1.5 0 3.1-.1 4.6 0 .5-.3.7-.7.7zm.1-9.2c-.4 0-.7-.3-.7-.7 0-1.6-.1-3.1-.1-4.6 0-.4.3-.7.6-.7.4 0 .7.3.7.6.1 1.5.1 3.1.1 4.7.1.4-.2.7-.6.7zm-.4-9.3c-.3 0-.6-.3-.7-.6-.1-1.5-.2-3.1-.4-4.6 0-.4.2-.7.6-.7.4 0 .7.2.7.6.1 1.5.3 3.1.4 4.6.1.4-.2.7-.6.7zm-.9-9.2c-.3 0-.6-.2-.7-.6-.2-1.5-.4-3.1-.6-4.6-.1-.4.2-.7.6-.8.4-.1.7.2.8.6.2 1.5.4 3.1.6 4.6.1.4-.2.7-.7.8.1 0 .1 0 0 0zm-1.3-9.2c-.3 0-.6-.2-.7-.5l-.9-4.5c-.1-.4.1-.7.5-.8.4-.1.7.1.8.5.3 1.5.6 3 .9 4.6.1.4-.2.7-.5.8l-.1-.1zm-2-9.1c-.3 0-.6-.2-.6-.5l-1.2-4.5c-.1-.4.1-.7.5-.8.4-.1.7.1.8.5l1.2 4.5c.1.4-.1.7-.5.8h-.2zm-2.6-8.9c-.3 0-.5-.2-.6-.5-.5-1.5-1-2.9-1.5-4.3-.1-.3 0-.7.4-.9.3-.1.7 0 .9.4.5 1.4 1.1 2.9 1.6 4.4.1.3-.1.7-.4.8-.3.1-.3.1-.4.1zm-3.3-8.6c-.3 0-.5-.2-.6-.4-.6-1.4-1.3-2.8-1.9-4.2-.2-.3 0-.7.3-.9.3-.2.7 0 .9.3.7 1.4 1.3 2.8 1.9 4.2.1.3 0 .7-.3.9-.1 0-.2.1-.3.1zm-4.1-8.4c-.2 0-.5-.1-.6-.3-.8-1.4-1.5-2.7-2.3-4-.2-.3-.1-.7.2-.9.3-.2.7-.1.9.2.8 1.3 1.6 2.6 2.4 4 .2.3.1.7-.3.9 0 .1-.1.1-.3.1zm-4.9-7.8c-.2 0-.4-.1-.5-.3-.9-1.3-1.8-2.5-2.8-3.7-.2-.3-.2-.7.1-.9.3-.2.7-.2.9.1 1 1.2 1.9 2.4 2.8 3.7.2.3.1.7-.2.9 0 .1-.1.2-.3.2zm-5.8-7.2c-.2 0-.4-.1-.5-.2-1.1-1.1-2.1-2.2-3.3-3.2-.3-.2-.3-.7 0-.9.2-.3.7-.3.9 0 1.1 1 2.3 2.1 3.3 3.3.3.3.2.7 0 .9-.1 0-.3.1-.4.1zm-79.6-1.2c-.2 0-.4-.1-.5-.3-.2-.3-.2-.7.1-.9 1.3-.9 2.5-1.8 3.8-2.7.3-.2.7-.1.9.2.2.3.1.7-.2.9-1.3.9-2.5 1.8-3.8 2.7-.1.1-.2.1-.3.1zm72.7-5.1c-.1 0-.3 0-.4-.1-1.2-.9-2.5-1.8-3.7-2.7-.3-.2-.4-.6-.2-.9.2-.3.6-.4.9-.2 1.3.8 2.6 1.8 3.8 2.7.3.2.3.6.1.9-.1.2-.3.3-.5.3zm-65-.1c-.2 0-.4-.1-.6-.3-.2-.3-.1-.7.2-.9 1.3-.8 2.7-1.6 4.1-2.3.3-.2.7-.1.9.3.2.3.1.7-.3.9-1.3.7-2.7 1.5-4 2.3h-.3zm8.1-4.4c-.2 0-.5-.1-.6-.4-.2-.3 0-.7.3-.9 1.4-.7 2.9-1.3 4.3-1.9.3-.1.7 0 .9.4.1.3 0 .7-.4.9-1.4.5-2.8 1.2-4.2 1.8-.1.1-.2.1-.3.1zm49.2-.5c-.1 0-.2 0-.3-.1-1.3-.7-2.7-1.4-4.1-1.9-.3-.1-.5-.5-.4-.9.1-.3.5-.5.9-.4 1.4.6 2.9 1.3 4.3 2 .3.2.4.6.3.9-.3.3-.5.4-.7.4zM156 4.2c-.3 0-.5-.2-.6-.5-.1-.3.1-.7.4-.8 1.5-.5 3-.9 4.5-1.3.4-.1.7.1.8.5.1.4-.1.7-.5.8-1.5.4-3 .8-4.4 1.2 0 0-.1.1-.2.1zm32-.7h-.2c-.3-.1-.7-.2-1-.3-1.1-.3-2.3-.6-3.4-.8-.4-.1-.6-.4-.5-.8.1-.4.4-.6.8-.5 1.2.2 2.3.5 3.5.8.4.1.7.2 1.1.3.3.1.5.5.4.8-.1.3-.4.5-.7.5zM165.1 2c-.3 0-.6-.2-.7-.6-.1-.4.2-.7.6-.8 1.6-.2 3.1-.4 4.7-.5.4 0 .7.2.7.6 0 .4-.2.7-.6.7-1.5.1-3 .3-4.6.5l-.1.1zm13.8-.4c-1.6-.2-3.1-.3-4.6-.3-.4 0-.7-.3-.7-.7 0-.4.3-.7.7-.7 1.6 0 3.1.1 4.7.3.4 0 .6.4.6.7 0 .5-.3.7-.7.7z"
     fill="#eda033"
     id="path12"
     style="fill:#0000ff" />
  <path
     d="M78.2 230.5c-1.7 0-3.3-.1-4.9-.1-.4 0-.7-.3-.7-.7 0-.4.3-.7.7-.7 1.6.1 3.3.1 4.9.1.4 0 .7.3.7.7 0 .4-.3.7-.7.7zm4.9 0c-.4 0-.7-.3-.7-.7 0-.4.3-.7.7-.7 1.6 0 3.2-.1 4.9-.2.4-.1.7.3.7.7 0 .4-.3.7-.7.7-1.6.1-3.3.1-4.9.2zm-14.8-.4c-1.7-.1-3.4-.3-5-.4-.4 0-.7-.4-.6-.8 0-.4.4-.7.8-.6 1.6.2 3.2.3 4.9.4.4 0 .7.4.6.8 0 .3-.3.6-.7.6zm24.6-.1c-.4 0-.7-.3-.7-.7 0-.4.3-.7.7-.8 1.6-.1 3.2-.2 4.9-.4.4 0 .7.2.8.6 0 .4-.2.7-.6.8-1.8.3-3.4.4-5.1.5zm9.8-.9c-.4 0-.7-.3-.7-.6 0-.4.2-.7.6-.8 1.6-.2 3.2-.4 4.9-.6.4 0 .7.2.8.6.1.4-.2.7-.6.8-1.7.2-3.3.4-5 .6zm-44.1-.1h-.1c-1.6-.2-3.3-.5-4.9-.8-.4-.1-.6-.4-.6-.8.1-.4.4-.6.8-.6 1.6.3 3.2.6 4.8.8.4.1.7.4.6.8 0 .4-.3.6-.6.6zm53.8-1.3c-.3 0-.6-.2-.7-.6-.1-.4.2-.7.6-.8 1.6-.3 3.2-.5 4.8-.8.4-.1.7.2.8.6.1.4-.2.7-.6.8-1.6.3-3.2.6-4.9.8.1 0 .1 0 0 0zm-63.5-.5h-.2l-4.8-1.2c-.4-.1-.6-.5-.5-.9.1-.4.5-.6.9-.5 1.5.4 3.1.8 4.7 1.2.4.1.6.5.5.8 0 .4-.3.6-.6.6zm73.2-1.2c-.3 0-.6-.2-.7-.6-.1-.4.2-.8.5-.8 1.6-.3 3.2-.7 4.8-1 .4-.1.8.2.8.5.1.4-.2.8-.5.8-1.6.4-3.2.7-4.8 1l-.1.1zm-82.6-1.4h-.2c-1.6-.5-3.1-1.1-4.6-1.7-.4-.1-.5-.6-.4-.9.1-.4.6-.5.9-.4 1.5.6 3 1.2 4.6 1.7.4.1.6.5.4.9-.2.2-.5.4-.7.4zm92.2-.8c-.3 0-.6-.2-.7-.5-.1-.4.1-.8.5-.8 1.6-.4 3.2-.8 4.7-1.2.4-.1.8.1.9.5.1.4-.1.8-.5.9l-4.8 1.2c0-.1-.1-.1-.1-.1zm9.5-2.5c-.3 0-.6-.2-.7-.5-.1-.4.1-.8.5-.9 1.6-.4 3.1-.9 4.7-1.4.4-.1.8.1.9.5.1.4-.1.8-.5.9-1.6.5-3.2.9-4.7 1.4h-.2zm-110.9-.4c-.1 0-.2 0-.3-.1-1.5-.7-3-1.5-4.4-2.3-.3-.2-.5-.6-.3-1s.6-.5 1-.3c1.4.8 2.8 1.5 4.3 2.3.4.2.5.6.3.9 0 .4-.3.5-.6.5zm120.3-2.5c-.3 0-.6-.2-.7-.5-.1-.4.1-.8.5-.9 1.5-.5 3.1-1 4.7-1.6.4-.1.8.1.9.4.1.4-.1.8-.4.9-1.6.5-3.1 1.1-4.7 1.6-.2.1-.2.1-.3.1zM21.8 216c-.1 0-.3 0-.4-.1-1.4-.9-2.7-1.9-4-3-.3-.2-.3-.7-.1-1 .2-.3.7-.3 1-.1 1.2 1 2.5 2 3.9 2.9.3.2.4.7.2 1-.1.2-.4.3-.6.3zm138.1-.8c-.3 0-.6-.2-.7-.5-.1-.4.1-.8.4-.9 1.5-.6 3.1-1.1 4.6-1.7.4-.1.8 0 .9.4.1.4 0 .8-.4.9-1.5.6-3.1 1.2-4.6 1.7-.1.1-.1.1-.2.1zm9.2-3.5c-.3 0-.5-.2-.7-.4-.1-.4 0-.8.4-.9 1.5-.6 3-1.2 4.5-1.9.4-.1.8 0 .9.4.2.4 0 .8-.4.9-1.5.6-3 1.3-4.6 1.9h-.1zm-154.9-1.9c-.2 0-.4-.1-.5-.2-1.2-1.2-2.3-2.4-3.4-3.7-.2-.3-.2-.7.1-1 .3-.2.7-.2 1 .1 1 1.2 2.1 2.4 3.3 3.6.3.3.3.7 0 1-.1.2-.3.2-.5.2zm163.9-1.9c-.3 0-.5-.2-.6-.4-.2-.4 0-.8.4-.9l1.2-.5c1.1-.5 2.2-1 3.2-1.5.4-.2.8 0 .9.3.2.4 0 .8-.3.9l-3.3 1.5-1.2.5c-.1.1-.2.1-.3.1zm9-4.1c-.3 0-.5-.1-.6-.4-.2-.3 0-.8.3-.9 1.5-.7 2.9-1.4 4.4-2.2.3-.2.8 0 .9.3.2.3 0 .8-.3.9-1.5.7-2.9 1.5-4.4 2.2-.1 0-.2.1-.3.1zM8 202.3c-.2 0-.5-.1-.6-.3-.9-1.4-1.8-2.8-2.5-4.3-.2-.3 0-.8.3-.9.3-.2.8 0 .9.3.7 1.4 1.5 2.8 2.4 4.2.2.3.1.8-.2 1-.1-.1-.2 0-.3 0zm187.8-2.9c-.3 0-.5-.1-.6-.4-.2-.3 0-.8.3-.9 1.5-.8 2.9-1.5 4.3-2.3.3-.2.8-.1 1 .3.2.3.1.8-.3 1-1.4.8-2.9 1.6-4.3 2.3-.1-.1-.2 0-.4 0zm8.7-4.7c-.2 0-.5-.1-.6-.4-.2-.3-.1-.8.3-1 1.4-.8 2.8-1.6 4.2-2.5.3-.2.8-.1 1 .2.2.3.1.8-.2 1-1.4.8-2.8 1.7-4.3 2.5-.2.1-.3.2-.4.2zm-201-1.2c-.3 0-.6-.2-.7-.5-.6-1.6-1.1-3.2-1.5-4.8-.1-.4.1-.8.5-.9.4-.1.8.1.9.5.4 1.6.9 3.1 1.4 4.6.1.4 0 .8-.4.9 0 .2-.1.2-.2.2zm209.4-3.8c-.2 0-.5-.1-.6-.3-.2-.3-.1-.8.2-1 1.4-.9 2.8-1.7 4.2-2.6.3-.2.8-.1 1 .2.2.3.1.8-.2 1-1.4.9-2.8 1.8-4.2 2.6-.1 0-.2.1-.4.1zm8.3-5.3c-.2 0-.5-.1-.6-.3-.2-.3-.1-.8.2-1 1.4-.9 2.7-1.8 4.1-2.8.3-.2.8-.1 1 .2.2.3.1.8-.2 1-1.3.9-2.7 1.9-4.1 2.8-.1 0-.2.1-.4.1zM1.1 184c-.3 0-.6-.3-.7-.6-.2-1.6-.4-3.3-.4-5 0-.4.3-.7.7-.7.4 0 .7.3.7.7.1 1.6.2 3.3.4 4.8.1.4-.2.8-.7.8.1 0 .1 0 0 0zm228.2-5.2c-.2 0-.4-.1-.6-.3-.2-.3-.2-.8.2-1 1.3-1 2.6-1.9 3.9-2.9.3-.2.8-.2 1 .1.2.3.2.8-.1 1-1.3 1-2.6 2-4 2.9-.1.1-.2.2-.4.2zM.8 174.2c-.1 0-.1 0 0 0-.4 0-.7-.4-.7-.7.1-1.6.3-3.3.5-4.9.1-.4.4-.7.8-.6.4.1.7.4.6.8-.2 1.6-.4 3.2-.5 4.8-.1.3-.4.6-.7.6zm236.4-1.3c-.2 0-.4-.1-.6-.3-.2-.3-.2-.7.1-1 1.3-1 2.6-2 3.8-3.1.3-.2.7-.2 1 .1.2.3.2.7-.1 1-1.3 1-2.5 2.1-3.8 3.1-.1.1-.3.2-.4.2zm7.6-6.3c-.2 0-.4-.1-.5-.2-.3-.3-.2-.7.1-1 1.3-1.1 2.5-2.1 3.7-3.2.3-.3.7-.2 1 .1.3.3.2.7-.1 1-1.2 1.1-2.5 2.2-3.7 3.3h-.5zM2.2 164.5H2c-.4-.1-.6-.5-.5-.8.4-1.6.8-3.2 1.3-4.8.1-.4.5-.6.9-.5.4.1.6.5.5.9-.5 1.6-.9 3.2-1.2 4.7-.2.3-.5.5-.8.5zm249.9-4.4c-.2 0-.4-.1-.5-.2-.3-.3-.3-.7 0-1 1.2-1.1 2.4-2.3 3.5-3.4.3-.3.7-.3 1 0 .3.3.3.7 0 1-1.2 1.1-2.3 2.3-3.6 3.4-.1.1-.2.2-.4.2zM5 155.1h-.2c-.4-.1-.5-.5-.4-.9.6-1.5 1.2-3.1 1.9-4.6.2-.4.6-.5.9-.4.4.2.5.6.4.9-.7 1.5-1.3 3-1.8 4.5-.3.3-.5.5-.8.5zm254.1-2c-.2 0-.4-.1-.5-.2-.3-.3-.3-.7 0-1 1.1-1.2 2.3-2.4 3.3-3.6.3-.3.7-.3 1 0 .3.3.3.7 0 1-1.1 1.2-2.2 2.4-3.4 3.6-.1.2-.2.2-.4.2zm-250.2-7c-.1 0-.2 0-.3-.1-.3-.2-.5-.6-.3-.9.7-1.5 1.5-2.9 2.3-4.4.2-.3.6-.5 1-.3.3.2.5.6.3 1-.8 1.4-1.6 2.9-2.3 4.3-.2.3-.5.4-.7.4zm256.8-.2c-.2 0-.3-.1-.5-.2-.3-.3-.3-.7-.1-1 1.1-1.2 2.1-2.5 3.1-3.8.2-.3.7-.3 1-.1.3.2.3.7.1 1-1 1.3-2.1 2.6-3.2 3.8 0 .2-.2.3-.4.3zm6.1-7.7c-.1 0-.3 0-.4-.1-.3-.2-.4-.7-.1-1 1-1.3 2-2.6 2.9-4 .2-.3.7-.4 1-.2.3.2.4.7.2 1-.9 1.3-1.9 2.7-2.9 4-.2.2-.4.3-.7.3zm-258.1-.7c-.1 0-.3 0-.4-.1-.3-.2-.4-.6-.2-1 .8-1.4 1.8-2.8 2.7-4.2.2-.3.7-.4 1-.2.3.2.4.7.2 1-.9 1.4-1.8 2.7-2.6 4.1-.3.3-.5.4-.7.4zm263.8-7.4c-.1 0-.3 0-.4-.1-.3-.2-.4-.6-.2-1 .9-1.4 1.8-2.8 2.6-4.2.2-.3.6-.4 1-.3.3.2.4.6.3 1-.8 1.4-1.7 2.8-2.6 4.2-.3.3-.5.4-.7.4zm-258.3-.7c-.1 0-.3 0-.4-.1-.3-.2-.4-.7-.2-1l3-3.9c.2-.3.7-.4 1-.1.3.2.4.7.1 1-1 1.3-2 2.6-2.9 3.9-.2.1-.4.2-.6.2zm263.2-7.7c-.1 0-.2 0-.3-.1-.3-.2-.5-.6-.3-.9.8-1.5 1.5-2.9 2.2-4.4.2-.4.6-.5.9-.3.4.2.5.6.3.9-.7 1.5-1.4 3-2.2 4.4-.1.2-.3.4-.6.4zm-257.2-.1c-.2 0-.3-.1-.4-.2-.3-.2-.3-.7-.1-1 1-1.2 2.1-2.5 3.2-3.7.3-.3.7-.3 1-.1.3.3.3.7.1 1-1.1 1.2-2.2 2.5-3.2 3.7-.2.2-.4.3-.6.3zm6.5-7.4c-.2 0-.3-.1-.5-.2-.3-.3-.3-.7 0-1 1.1-1.2 2.3-2.4 3.4-3.6.3-.3.7-.3 1 0 .3.3.3.7 0 1-1.2 1.2-2.3 2.3-3.4 3.5-.1.3-.3.3-.5.3zm254.9-1.4c-.1 0-.2 0-.3-.1-.4-.1-.5-.6-.4-.9.6-1.5 1.2-3.1 1.7-4.6.1-.4.5-.6.9-.4.4.1.6.5.4.9-.5 1.5-1.1 3.1-1.7 4.7-.1.2-.4.4-.6.4zm-248-5.5c-.2 0-.4-.1-.5-.2-.3-.3-.3-.7 0-1 1.2-1.1 2.4-2.3 3.6-3.4.3-.3.7-.2 1 0 .3.3.2.7 0 1-1.2 1.1-2.4 2.2-3.6 3.4-.1.1-.3.2-.5.2zm251.1-3.9h-.2c-.4-.1-.6-.5-.5-.9.4-1.6.8-3.2 1.1-4.7.1-.4.4-.6.8-.6.4.1.6.4.6.8-.3 1.6-.7 3.2-1.1 4.8-.1.4-.4.6-.7.6zm-243.8-2.8c-.2 0-.4-.1-.5-.2-.3-.3-.2-.7.1-1 1.2-1.1 2.5-2.1 3.7-3.2.3-.2.7-.2 1 .1.2.3.2.7-.1 1-1.3 1.1-2.5 2.1-3.7 3.2-.2 0-.4.1-.5.1zm7.5-6.3c-.2 0-.4-.1-.5-.3-.2-.3-.2-.7.1-1l3.9-3c.3-.2.7-.2 1 .1.2.3.2.7-.1 1l-3.9 3c-.2.1-.3.2-.5.2zm238-.5c-.5 0-.7-.4-.7-.8.2-1.6.2-3.3.3-4.8 0-.4.3-.7.7-.7.4 0 .7.3.7.7 0 1.6-.1 3.3-.3 5 0 .3-.3.6-.7.6zM61.2 88.3c-.2 0-.4-.1-.6-.3-.2-.3-.2-.8.1-1 1.3-1 2.6-1.9 4-2.9.3-.2.8-.1 1 .2.2.3.1.8-.2 1-1.3 1-2.7 1.9-4 2.9 0 .1-.1.1-.3.1zM291.5 84c-.4 0-.7-.3-.7-.6-.1-1.6-.4-3.2-.7-4.8-.1-.4.2-.8.6-.8.4-.1.8.2.8.6.3 1.6.6 3.3.7 4.9 0 .3-.3.6-.7.7zM69.3 82.6c-.2 0-.4-.1-.6-.3-.2-.3-.1-.8.2-1 1.4-.9 2.7-1.8 4.1-2.7.3-.2.8-.1 1 .2.2.3.1.8-.2 1-1.4.9-2.7 1.8-4.1 2.7-.2.1-.3.1-.4.1zm8.2-5.3c-.2 0-.5-.1-.6-.3-.2-.3-.1-.8.2-1 1.4-.9 2.8-1.7 4.2-2.6.3-.2.8-.1 1 .2.2.3.1.8-.2 1-1.4.8-2.8 1.7-4.2 2.6-.2 0-.3.1-.4.1zm212-3c-.3 0-.6-.2-.7-.5-.5-1.5-1.1-3.1-1.7-4.5-.6-1.3-1.3-2.7-2-3.9-.2-.3-.1-.8.3-1 .3-.2.8-.1 1 .3.8 1.3 1.4 2.7 2.1 4.1.7 1.5 1.3 3.1 1.8 4.7.1.4-.1.8-.5.9-.1-.1-.2-.1-.3-.1zM85.9 72.2c-.2 0-.5-.1-.6-.4-.2-.3-.1-.8.3-1 1.4-.8 2.8-1.6 4.3-2.4.3-.2.8-.1 1 .3.2.3.1.8-.3 1-1.4.8-2.9 1.6-4.3 2.4-.1.1-.3.1-.4.1zm8.6-4.7c-.3 0-.5-.1-.6-.4-.2-.3-.1-.8.3-.9 1.4-.8 2.9-1.5 4.4-2.3.3-.2.8 0 .9.3.2.3 0 .8-.3.9-1.5.7-2.9 1.5-4.4 2.3-.1 0-.2.1-.3.1zm8.8-4.5c-.3 0-.5-.1-.6-.4-.2-.3 0-.8.3-.9 1.5-.7 3-1.4 4.4-2.1.3-.2.8 0 .9.3.2.4 0 .8-.3.9-1.5.7-3 1.4-4.4 2.1-.1.1-.2.1-.3.1zm179.8-1.3c-.2 0-.4-.1-.6-.3-.9-1.3-2-2.5-3.1-3.7-.3-.3-.2-.7 0-1 .3-.3.7-.2 1 0 1.1 1.2 2.2 2.5 3.2 3.9.2.3.2.8-.2 1 0 0-.2.1-.3.1zm-170.9-2.9c-.3 0-.5-.2-.6-.4-.2-.4 0-.8.4-.9l.8-.4c1.2-.5 2.5-1.1 3.7-1.6.4-.2.8 0 .9.4.2.4 0 .8-.4.9-1.2.5-2.4 1.1-3.7 1.6l-.8.4h-.3zm9-3.9c-.3 0-.5-.2-.6-.4-.1-.4 0-.8.4-.9 1.5-.6 3-1.2 4.6-1.8.4-.1.8 0 .9.4.1.4 0 .8-.4.9-1.5.6-3 1.2-4.6 1.8h-.3zm155.3-.5c-.2 0-.3-.1-.5-.2-1.2-1.1-2.4-2.1-3.7-3.1-.3-.2-.4-.7-.1-1 .2-.3.7-.4 1-.1 1.3 1 2.6 2.1 3.8 3.2.3.3.3.7.1 1-.2.1-.4.2-.6.2zm-146.1-3.1c-.3 0-.6-.2-.7-.5-.1-.4 0-.8.4-.9 1.5-.6 3.1-1.1 4.6-1.7.4-.1.8.1.9.4.1.4-.1.8-.4.9-1.5.5-3.1 1.1-4.6 1.7-.1.1-.2.1-.2.1zm138.2-2.8c-.1 0-.3 0-.4-.1-1.3-.8-2.8-1.7-4.2-2.4-.3-.2-.5-.6-.3-.9.2-.3.6-.5.9-.3 1.5.8 2.9 1.6 4.3 2.5.3.2.4.6.2 1 0 .1-.2.2-.5.2zm-129-.4c-.3 0-.6-.2-.7-.5-.1-.4.1-.8.4-.9 1.6-.5 3.1-1 4.7-1.5.4-.1.8.1.9.5.1.4-.1.8-.5.9-1.6.5-3.1 1-4.7 1.5h-.1zm9.4-3c-.3 0-.6-.2-.7-.5-.1-.4.1-.8.5-.9 1.6-.5 3.2-.9 4.7-1.3.4-.1.8.1.9.5.1.4-.1.8-.5.9-1.6.4-3.1.9-4.7 1.3h-.2zm111-1.2c-.1 0-.2 0-.3-.1-1.4-.6-3-1.3-4.5-1.8-.4-.1-.5-.5-.4-.9.1-.4.5-.6.9-.4 1.6.6 3.1 1.2 4.6 1.9.4.2.5.6.4.9-.2.3-.5.4-.7.4zm-101.5-1.4c-.3 0-.6-.2-.7-.5-.1-.4.1-.8.5-.9l4.8-1.2c.4-.1.8.1.8.5.1.4-.1.8-.5.8l-4.8 1.2c0 .1-.1.1-.1.1zm92.3-2h-.2c-1.5-.5-3.1-.9-4.7-1.3-.4-.1-.6-.5-.5-.9.1-.4.5-.6.9-.5 1.6.4 3.2.9 4.8 1.3.4.1.6.5.5.9-.3.3-.5.5-.8.5zm-82.7-.2c-.3 0-.6-.2-.7-.6-.1-.4.2-.8.5-.8 1.6-.3 3.2-.7 4.8-1 .4-.1.7.2.8.6.1.4-.2.7-.6.8-1.6.3-3.2.6-4.8 1 .1 0 0 0 0 0zm9.6-1.9c-.3 0-.6-.2-.7-.6-.1-.4.2-.7.6-.8 1.6-.3 3.3-.5 4.9-.8.4-.1.7.2.8.6.1.4-.2.7-.6.8-1.6.2-3.2.5-4.8.8h-.2zm63.5-.4h-.1l-4.8-.9c-.4-.1-.6-.4-.6-.8.1-.4.4-.6.8-.6 1.7.3 3.3.6 4.9.9.4.1.6.5.5.8 0 .4-.3.6-.7.6zm-53.8-1.1c-.3 0-.6-.3-.7-.6 0-.4.2-.7.6-.8 1.6-.2 3.3-.4 4.9-.6.4 0 .7.2.8.6 0 .4-.2.7-.6.8-1.6.2-3.3.4-5 .6.1 0 .1 0 0 0zm44.1-.5c-1.7-.2-3.3-.4-5-.5-.4 0-.7-.4-.6-.8 0-.4.4-.7.8-.6 1.7.1 3.3.3 4.9.5.4 0 .7.4.6.8 0 .4-.3.6-.7.6zm-34.3-.5c-.4 0-.7-.3-.7-.6 0-.4.3-.7.6-.8 1.7-.1 3.3-.2 4.9-.3.3 0 .7.3.7.7 0 .4-.3.7-.7.7-1.5.1-3.1.2-4.8.3zm24.6-.4c-.1 0-.1 0 0 0-1.6-.1-3.3-.2-4.9-.2-.4 0-.7-.3-.7-.7 0-.4.3-.7.7-.7 1.7 0 3.3.1 4.9.2.4 0 .7.4.7.7-.1.5-.4.7-.7.7zm-14.8-.1c-.4 0-.7-.3-.7-.7 0-.4.3-.7.7-.7 1.7 0 3.3-.1 4.9-.1.4 0 .7.3.7.7s-.3.7-.7.7c-1.6 0-3.2 0-4.9.1z"
     fill="#eda033"
     id="path14"
     style="fill:#0000ff" />
</svg>
