<?xml version="1.0" encoding="UTF-8" standalone="no"?>
<!-- Generator: Adobe Illustrator 16.0.0, SVG Export Plug-In . SVG Version: 6.00 Build 0)  -->

<svg
   xmlns:dc="http://purl.org/dc/elements/1.1/"
   xmlns:cc="http://creativecommons.org/ns#"
   xmlns:rdf="http://www.w3.org/1999/02/22-rdf-syntax-ns#"
   xmlns:svg="http://www.w3.org/2000/svg"
   xmlns="http://www.w3.org/2000/svg"
   xmlns:sodipodi="http://sodipodi.sourceforge.net/DTD/sodipodi-0.dtd"
   xmlns:inkscape="http://www.inkscape.org/namespaces/inkscape"
   version="1.1"
   id="Layer_1"
   x="0px"
   y="0px"
   width="175px"
   height="175px"
   viewBox="0 0 175 175"
   enable-background="new 0 0 175 175"
   xml:space="preserve"
   sodipodi:docname="fork.svg"
   inkscape:version="0.92.0 r15299"><metadata
     id="metadata31"><rdf:RDF><cc:Work
         rdf:about=""><dc:format>image/svg+xml</dc:format><dc:type
           rdf:resource="http://purl.org/dc/dcmitype/StillImage" /><dc:title></dc:title></cc:Work></rdf:RDF></metadata><defs
     id="defs29" /><sodipodi:namedview
     pagecolor="#ffffff"
     bordercolor="#666666"
     borderopacity="1"
     objecttolerance="10"
     gridtolerance="10"
     guidetolerance="10"
     inkscape:pageopacity="0"
     inkscape:pageshadow="2"
     inkscape:window-width="1600"
     inkscape:window-height="837"
     id="namedview27"
     showgrid="false"
     inkscape:zoom="1.907168"
     inkscape:cx="55.638085"
     inkscape:cy="101.47203"
     inkscape:window-x="1912"
     inkscape:window-y="-8"
     inkscape:window-maximized="1"
     inkscape:current-layer="Layer_1" /><g
     id="Ñëîé_1" /><g
     id="_xB9_Ï_xBC_h_x5F_1" /><g
     id="Layer_1_1_" /><style
     id="style4495"
     type="text/css">
	.st0{fill:#C9C9C9;}
</style><style
     type="text/css"
     id="style4495-8">
	.st0{fill:#C9C9C9;}
</style><path
     id="path8310"
     d="m 147.16297,30.851969 c 0,-10.417677 -8.44354,-18.861214 -18.86122,-18.861214 -10.41767,0 -18.86121,8.443537 -18.86121,18.861214 0,8.317795 5.41317,15.296443 12.8885,17.804985 1.05622,27.002971 -12.70617,29.951611 -31.422786,33.893597 C 80.16165,84.813902 68.008742,87.423036 59.143971,95.659097 V 48.556361 c 7.311864,-2.596561 12.574142,-9.499765 12.574142,-17.704392 0,-10.417677 -8.443537,-18.861214 -18.861213,-18.861214 -10.417677,0 -18.861213,8.443537 -18.861213,18.861214 0,8.204627 5.262278,15.107831 12.574142,17.704392 v 77.752199 c -7.311864,2.60285 -12.574142,9.50605 -12.574142,17.71068 0,10.41768 8.443536,18.86121 18.861213,18.86121 10.417676,0 18.861213,-8.44353 18.861213,-18.86121 0,-8.14175 -5.180546,-15.01352 -12.40439,-17.65409 1.697509,-24.6579 16.157771,-27.713406 34.182805,-31.510794 19.100122,-4.023733 42.588622,-9.065965 41.362642,-46.379727 7.17355,-2.672005 12.3038,-9.518625 12.3038,-17.62266 z m -105.622798,0 c 0,-6.243062 5.073666,-11.316729 11.316728,-11.316729 6.243062,0 11.316728,5.073667 11.316728,11.316729 0,6.243061 -5.073666,11.316728 -11.316728,11.316728 -6.243062,0 -11.316728,-5.073667 -11.316728,-11.316728 z M 64.173628,144.01924 c 0,6.24306 -5.073666,11.31672 -11.316728,11.31672 -6.243062,0 -11.316728,-5.07366 -11.316728,-11.31672 0,-6.24306 5.073666,-11.31672 11.316728,-11.31672 6.243062,0 11.316728,5.07366 11.316728,11.31672 z M 128.30175,42.168697 c -6.24306,0 -11.31672,-5.073667 -11.31672,-11.316728 0,-6.243062 5.07366,-11.316729 11.31672,-11.316729 6.24306,0 11.31674,5.073667 11.31674,11.316729 0,6.243061 -5.07368,11.316728 -11.31674,11.316728 z"
     inkscape:connector-curvature="0"
     style="fill:#0000ff;stroke-width:1" /></svg>