<?xml version="1.0" encoding="utf-8"?>
<!-- Generator: Adobe Illustrator 19.2.1, SVG Export Plug-In . SVG Version: 6.00 Build 0)  -->
<svg version="1.1" xmlns="http://www.w3.org/2000/svg" xmlns:xlink="http://www.w3.org/1999/xlink" x="0px" y="0px"
	 viewBox="0 0 144 144" enable-background="new 0 0 144 144" xml:space="preserve">
<g id="Layer_1" display="none">
	<g display="inline">
		<g id="XMLID_20_">
			<path fill="#FF4833" d="M72,11.1c33.3,0,60.5,27.1,60.5,60.5c0,16.2-6.3,31.3-17.7,42.8S88.2,132.1,72,132.1
				c-33.3,0-60.5-27.1-60.5-60.5S38.7,11.1,72,11.1 M72,7.1C36.4,7.1,7.5,36,7.5,71.6s28.9,64.5,64.5,64.5s64.5-28.9,64.5-64.5
				C136.5,36,107.6,7.1,72,7.1L72,7.1z"/>
		</g>
		
			<line fill="none" stroke="#FF4833" stroke-width="4" stroke-linecap="round" stroke-miterlimit="10" stroke-dasharray="0,10.1335,30.4006,10.1335" x1="100.6" y1="42.9" x2="78.8" y2="64.8"/>
		
			<line fill="none" stroke="#FF4833" stroke-width="4" stroke-linecap="round" stroke-miterlimit="10" stroke-dasharray="0,50.6677,30.4006,10.1335" x1="72" y1="31.1" x2="72" y2="71.6"/>
		
			<line fill="none" stroke="#FF4833" stroke-width="4" stroke-linecap="round" stroke-miterlimit="10" stroke-dasharray="0,50.6677,30.4006,10.1335" x1="43.4" y1="42.9" x2="72" y2="71.6"/>
		
			<line fill="none" stroke="#FF4833" stroke-width="4" stroke-linecap="round" stroke-miterlimit="10" stroke-dasharray="0,50.6677,30.4006,10.1335" x1="31.5" y1="71.6" x2="72" y2="71.6"/>
		
			<line fill="none" stroke="#FF4833" stroke-width="4" stroke-linecap="round" stroke-miterlimit="10" stroke-dasharray="0,50.6677,30.4006,10.1335" x1="112.5" y1="71.6" x2="72" y2="71.6"/>
		<g id="XMLID_317_">
			<path fill="#FF4833" d="M72,64.3c4,0,7.3,3.3,7.3,7.3S76,78.9,72,78.9s-7.3-3.3-7.3-7.3S68,64.3,72,64.3 M72,60.3
				c-6.2,0-11.3,5-11.3,11.3c0,6.2,5,11.3,11.3,11.3s11.3-5,11.3-11.3C83.3,65.4,78.2,60.3,72,60.3L72,60.3z"/>
		</g>
		
			<line fill="none" stroke="#FF4833" stroke-width="4" stroke-linecap="round" stroke-miterlimit="10" x1="82.6" y1="109.7" x2="61.4" y2="109.7"/>
		
			<line fill="none" stroke="#FF4833" stroke-width="4" stroke-linecap="round" stroke-miterlimit="10" x1="82.6" y1="99.1" x2="61.4" y2="99.1"/>
	</g>
</g>
<g id="Red_Outline">
	<g>
		<path id="XMLID_114_" fill="#FF4833" d="M72,11.1c33.3,0,60.5,27.1,60.5,60.5c0,16.2-6.3,31.3-17.7,42.8S88.2,132.1,72,132.1
			c-33.3,0-60.5-27.1-60.5-60.5S38.7,11.1,72,11.1 M72,7.1C36.4,7.1,7.5,36,7.5,71.6s28.9,64.5,64.5,64.5s64.5-28.9,64.5-64.5
			C136.5,36,107.6,7.1,72,7.1L72,7.1z"/>
		<path fill="#FF4833" d="M78.8,66.8c-0.5,0-1-0.2-1.4-0.6c-0.4-0.4-0.6-0.9-0.6-1.4c0-0.5,0.2-1,0.6-1.4l14.7-14.7
			c0.8-0.8,2.1-0.8,2.8,0c0.4,0.4,0.6,0.9,0.6,1.4c0,0.5-0.2,1-0.6,1.4L80.2,66.2C79.8,66.6,79.3,66.8,78.8,66.8z M100.6,44.9
			c-0.5,0-1-0.2-1.4-0.6c-0.4-0.4-0.6-0.9-0.6-1.4c0-0.5,0.2-1,0.6-1.4c0.8-0.8,2.1-0.8,2.8,0c0.4,0.4,0.6,0.9,0.6,1.4
			c0,0.5-0.2,1-0.6,1.4C101.7,44.7,101.2,44.9,100.6,44.9z"/>
		<path fill="#FF4833" d="M72,33.1c-1.1,0-2-0.9-2-2c0-1.1,0.9-2,2-2c1.1,0,2,0.9,2,2C74,32.2,73.1,33.1,72,33.1z"/>
		<path fill="#FF4833" d="M43.3,44.9c-0.5,0-1-0.2-1.4-0.6c-0.4-0.4-0.6-0.9-0.6-1.4c0-0.5,0.2-1,0.6-1.4c0.8-0.8,2.1-0.8,2.8,0
			c0.4,0.4,0.6,0.9,0.6,1.4c0,0.5-0.2,1-0.6,1.4C44.4,44.7,43.9,44.9,43.3,44.9z"/>
		<path fill="#FF4833" d="M31.5,73.6c-1.1,0-2-0.9-2-2s0.9-2,2-2c1.1,0,2,0.9,2,2S32.6,73.6,31.5,73.6z"/>
		<path fill="#FF4833" d="M112.5,73.6c-1.1,0-2-0.9-2-2s0.9-2,2-2c1.1,0,2,0.9,2,2S113.6,73.6,112.5,73.6z"/>
		<path id="XMLID_112_" fill="#FF4833" d="M72,64.3c4,0,7.3,3.3,7.3,7.3S76,78.9,72,78.9s-7.3-3.3-7.3-7.3S68,64.3,72,64.3 M72,60.3
			c-6.2,0-11.3,5-11.3,11.3c0,6.2,5,11.3,11.3,11.3s11.3-5,11.3-11.3C83.3,65.4,78.2,60.3,72,60.3L72,60.3z"/>
		<path fill="#FF4833" d="M82.6,111.7H61.4c-1.1,0-2-0.9-2-2s0.9-2,2-2h21.2c1.1,0,2,0.9,2,2S83.7,111.7,82.6,111.7z"/>
		<path fill="#FF4833" d="M82.6,101.1H61.4c-1.1,0-2-0.9-2-2s0.9-2,2-2h21.2c1.1,0,2,0.9,2,2S83.7,101.1,82.6,101.1z"/>
	</g>
</g>
<g id="Blue_Outline" display="none">
	<g display="inline">
		<path id="XMLID_33_" fill="#272727" d="M72,11.1c33.3,0,60.5,27.1,60.5,60.5c0,16.2-6.3,31.3-17.7,42.8S88.2,132.1,72,132.1
			c-33.3,0-60.5-27.1-60.5-60.5S38.7,11.1,72,11.1 M72,7.1C36.4,7.1,7.5,36,7.5,71.6s28.9,64.5,64.5,64.5s64.5-28.9,64.5-64.5
			C136.5,36,107.6,7.1,72,7.1L72,7.1z"/>
		<path fill="#272727" d="M78.8,66.8c-0.5,0-1-0.2-1.4-0.6c-0.4-0.4-0.6-0.9-0.6-1.4c0-0.5,0.2-1,0.6-1.4l14.7-14.7
			c0.8-0.8,2.1-0.8,2.8,0c0.4,0.4,0.6,0.9,0.6,1.4c0,0.5-0.2,1-0.6,1.4L80.2,66.2C79.8,66.6,79.3,66.8,78.8,66.8z M100.6,44.9
			c-0.5,0-1-0.2-1.4-0.6c-0.4-0.4-0.6-0.9-0.6-1.4c0-0.5,0.2-1,0.6-1.4c0.8-0.8,2.1-0.8,2.8,0c0.4,0.4,0.6,0.9,0.6,1.4
			c0,0.5-0.2,1-0.6,1.4C101.7,44.7,101.2,44.9,100.6,44.9z"/>
		<path fill="#272727" d="M72,33.1c-1.1,0-2-0.9-2-2c0-1.1,0.9-2,2-2c1.1,0,2,0.9,2,2C74,32.2,73.1,33.1,72,33.1z"/>
		<path fill="#272727" d="M43.3,44.9c-0.5,0-1-0.2-1.4-0.6c-0.4-0.4-0.6-0.9-0.6-1.4c0-0.5,0.2-1,0.6-1.4c0.8-0.8,2.1-0.8,2.8,0
			c0.4,0.4,0.6,0.9,0.6,1.4c0,0.5-0.2,1-0.6,1.4C44.4,44.7,43.9,44.9,43.3,44.9z"/>
		<path fill="#272727" d="M31.5,73.6c-1.1,0-2-0.9-2-2s0.9-2,2-2c1.1,0,2,0.9,2,2S32.6,73.6,31.5,73.6z"/>
		<path fill="#272727" d="M112.5,73.6c-1.1,0-2-0.9-2-2s0.9-2,2-2c1.1,0,2,0.9,2,2S113.6,73.6,112.5,73.6z"/>
		<path id="XMLID_30_" fill="#272727" d="M72,64.3c4,0,7.3,3.3,7.3,7.3S76,78.9,72,78.9s-7.3-3.3-7.3-7.3S68,64.3,72,64.3 M72,60.3
			c-6.2,0-11.3,5-11.3,11.3c0,6.2,5,11.3,11.3,11.3s11.3-5,11.3-11.3C83.3,65.4,78.2,60.3,72,60.3L72,60.3z"/>
		<path fill="#272727" d="M82.6,111.7H61.4c-1.1,0-2-0.9-2-2s0.9-2,2-2h21.2c1.1,0,2,0.9,2,2S83.7,111.7,82.6,111.7z"/>
		<path fill="#272727" d="M82.6,101.1H61.4c-1.1,0-2-0.9-2-2s0.9-2,2-2h21.2c1.1,0,2,0.9,2,2S83.7,101.1,82.6,101.1z"/>
	</g>
</g>
<g id="White_Outline" display="none">
	<g display="inline">
		<path id="XMLID_51_" fill="#FFFFFF" d="M72,11.1c33.3,0,60.5,27.1,60.5,60.5c0,16.2-6.3,31.3-17.7,42.8S88.2,132.1,72,132.1
			c-33.3,0-60.5-27.1-60.5-60.5S38.7,11.1,72,11.1 M72,7.1C36.4,7.1,7.5,36,7.5,71.6s28.9,64.5,64.5,64.5s64.5-28.9,64.5-64.5
			C136.5,36,107.6,7.1,72,7.1L72,7.1z"/>
		<path fill="#FFFFFF" d="M78.8,66.8c-0.5,0-1-0.2-1.4-0.6c-0.4-0.4-0.6-0.9-0.6-1.4c0-0.5,0.2-1,0.6-1.4l14.7-14.7
			c0.8-0.8,2.1-0.8,2.8,0c0.4,0.4,0.6,0.9,0.6,1.4c0,0.5-0.2,1-0.6,1.4L80.2,66.2C79.8,66.6,79.3,66.8,78.8,66.8z M100.6,44.9
			c-0.5,0-1-0.2-1.4-0.6c-0.4-0.4-0.6-0.9-0.6-1.4c0-0.5,0.2-1,0.6-1.4c0.8-0.8,2.1-0.8,2.8,0c0.4,0.4,0.6,0.9,0.6,1.4
			c0,0.5-0.2,1-0.6,1.4C101.7,44.7,101.2,44.9,100.6,44.9z"/>
		<path fill="#FFFFFF" d="M72,33.1c-1.1,0-2-0.9-2-2c0-1.1,0.9-2,2-2c1.1,0,2,0.9,2,2C74,32.2,73.1,33.1,72,33.1z"/>
		<path fill="#FFFFFF" d="M43.3,44.9c-0.5,0-1-0.2-1.4-0.6c-0.4-0.4-0.6-0.9-0.6-1.4c0-0.5,0.2-1,0.6-1.4c0.8-0.8,2.1-0.8,2.8,0
			c0.4,0.4,0.6,0.9,0.6,1.4c0,0.5-0.2,1-0.6,1.4C44.4,44.7,43.9,44.9,43.3,44.9z"/>
		<path fill="#FFFFFF" d="M31.5,73.6c-1.1,0-2-0.9-2-2s0.9-2,2-2c1.1,0,2,0.9,2,2S32.6,73.6,31.5,73.6z"/>
		<path fill="#FFFFFF" d="M112.5,73.6c-1.1,0-2-0.9-2-2s0.9-2,2-2c1.1,0,2,0.9,2,2S113.6,73.6,112.5,73.6z"/>
		<path id="XMLID_49_" fill="#FFFFFF" d="M72,64.3c4,0,7.3,3.3,7.3,7.3S76,78.9,72,78.9s-7.3-3.3-7.3-7.3S68,64.3,72,64.3 M72,60.3
			c-6.2,0-11.3,5-11.3,11.3c0,6.2,5,11.3,11.3,11.3s11.3-5,11.3-11.3C83.3,65.4,78.2,60.3,72,60.3L72,60.3z"/>
		<path fill="#FFFFFF" d="M82.6,111.7H61.4c-1.1,0-2-0.9-2-2s0.9-2,2-2h21.2c1.1,0,2,0.9,2,2S83.7,111.7,82.6,111.7z"/>
		<path fill="#FFFFFF" d="M82.6,101.1H61.4c-1.1,0-2-0.9-2-2s0.9-2,2-2h21.2c1.1,0,2,0.9,2,2S83.7,101.1,82.6,101.1z"/>
	</g>
</g>
</svg>
