<?xml version="1.0" encoding="utf-8"?>
<!-- Generator: Adobe Illustrator 19.2.1, SVG Export Plug-In . SVG Version: 6.00 Build 0)  -->
<svg version="1.1" xmlns="http://www.w3.org/2000/svg" xmlns:xlink="http://www.w3.org/1999/xlink" x="0px" y="0px"
	 viewBox="0 0 144 144" enable-background="new 0 0 144 144" xml:space="preserve">
<g id="Layer_1" display="none">
	<g display="inline">
		<g>
			<g>
				<g>
					<g>
						<g>
							<g>
								<g>
									<g>
										
											<ellipse transform="matrix(0.7071 -0.7071 0.7071 0.7071 -24.6997 65.4292)" fill="none" stroke="#FF4833" stroke-width="4" stroke-linecap="round" stroke-linejoin="round" stroke-miterlimit="10" stroke-dasharray="86.0709,8,44.265,8" cx="66.6" cy="62.5" rx="39.8" ry="39.8"/>
									</g>
								</g>
							</g>
						</g>
					</g>
				</g>
				<g>
					<g>
						
							<line fill="none" stroke="#FF4833" stroke-width="4" stroke-linecap="round" stroke-linejoin="round" x1="10.7" y1="63.7" x2="10.7" y2="63.7"/>
						
							<line fill="none" stroke="#FF4833" stroke-width="4" stroke-linecap="round" stroke-linejoin="round" stroke-dasharray="0,8.0901" x1="18.8" y1="63.7" x2="22.8" y2="63.7"/>
						
							<line fill="none" stroke="#FF4833" stroke-width="4" stroke-linecap="round" stroke-linejoin="round" x1="26.8" y1="63.7" x2="26.8" y2="63.7"/>
					</g>
				</g>
			</g>
			
				<polyline fill="none" stroke="#FF4833" stroke-width="4" stroke-linecap="round" stroke-linejoin="round" stroke-miterlimit="10" stroke-dasharray="86.0709,8,44.265,8" points="
				119.8,50.2 133.3,63.7 119.8,77.3 119.8,63.7 90.5,63.7 74.6,38.4 58.7,89.1 42.7,63.7 37.2,63.7 			"/>
		</g>
		<g>
			<g>
				<g>
					<g>
						<g>
							<g>
								<g>
									
										<path fill="none" stroke="#FF4833" stroke-width="4" stroke-linecap="round" stroke-linejoin="round" stroke-miterlimit="10" stroke-dasharray="51.6425,8,44.265,8" d="
										M98.1,87.1l21.7,21.7c1.9,1.9,1.9,5,0,7c-1.9,1.9-5,1.9-7,0L91.2,94.1"/>
								</g>
							</g>
						</g>
					</g>
				</g>
			</g>
		</g>
	</g>
</g>
<g id="Red_Outline">
	<g>
		<g>
			<g>
				<g>
					<g>
						<g>
							<g>
								<g>
									<g>
										<path fill="#FF4833" d="M66.6,104.3c-4.8,0-9.4-0.8-13.9-2.4c-1-0.4-1.6-1.5-1.2-2.6s1.5-1.6,2.6-1.2
											c4,1.4,8.3,2.1,12.6,2.1c10.1,0,19.6-3.9,26.7-11.1c7.1-7.1,11.1-16.6,11.1-26.7c0-3.2-0.4-6.3-1.2-9.4
											c-0.3-1.1,0.4-2.2,1.4-2.4c1.1-0.3,2.2,0.4,2.4,1.4c0.9,3.4,1.3,6.9,1.3,10.4c0,11.2-4.3,21.7-12.2,29.6
											C88.3,100,77.8,104.3,66.6,104.3z M46.2,98.7c-0.4,0-0.7-0.1-1-0.3c-2.9-1.8-5.6-3.9-8.1-6.3
											c-7.9-7.9-12.2-18.4-12.2-29.6c0-11.2,4.3-21.7,12.2-29.6c5.9-5.9,13.3-9.9,21.5-11.5c1.1-0.2,2.1,0.5,2.3,1.6
											c0.2,1.1-0.5,2.1-1.6,2.3c-7.4,1.4-14.1,5-19.4,10.4c-7.1,7.1-11.1,16.6-11.1,26.7c0,10.1,3.9,19.6,11.1,26.7
											c2.2,2.2,4.7,4.1,7.3,5.7c0.9,0.6,1.3,1.8,0.7,2.7C47.5,98.3,46.8,98.7,46.2,98.7z M102.4,47.1c-0.7,0-1.5-0.4-1.8-1.1
											c-1.8-3.8-4.3-7.2-7.3-10.2c-7.1-7.1-16.5-11-26.5-11.1c-1.1,0-2-0.9-2-2c0-1.1,0.9-1.9,2-2C78,20.8,88.4,25.1,96.2,33
											c3.3,3.3,6,7.1,8,11.3c0.5,1,0.1,2.2-0.9,2.7C103,47,102.7,47.1,102.4,47.1z"/>
									</g>
								</g>
							</g>
						</g>
					</g>
				</g>
				<g>
					<path fill="#FF4833" d="M10.7,65.7c-0.5,0-1.1-0.2-1.4-0.6c-0.4-0.4-0.6-0.9-0.6-1.4c0-0.5,0.2-1,0.6-1.4
						c0.8-0.7,2.1-0.7,2.8,0c0.4,0.4,0.6,0.9,0.6,1.4c0,0.5-0.2,1-0.6,1.4C11.7,65.5,11.2,65.7,10.7,65.7z"/>
					<path fill="#FF4833" d="M16.8,63.7c0-1.1,0.9-2,2-2l0,0c1.1,0,2,0.9,2,2l0,0c0,1.1-0.9,2-2,2l0,0
						C17.6,65.7,16.8,64.8,16.8,63.7z"/>
					<path fill="#FF4833" d="M26.8,65.7c-0.5,0-1-0.2-1.4-0.6c-0.4-0.4-0.6-0.9-0.6-1.4c0-0.5,0.2-1,0.6-1.4c0.8-0.7,2.1-0.7,2.8,0
						c0.4,0.4,0.6,0.9,0.6,1.4c0,0.5-0.2,1-0.6,1.4C27.9,65.5,27.4,65.7,26.8,65.7z"/>
				</g>
			</g>
			<path fill="#FF4833" d="M58.7,91.1c-0.7,0-1.3-0.3-1.7-0.9L41.6,65.7h-4.5c-1.1,0-2-0.9-2-2s0.9-2,2-2h5.6c0.7,0,1.3,0.4,1.7,0.9
				l13.6,21.7l4-12.9c0.3-1.1,1.5-1.6,2.5-1.3c1.1,0.3,1.6,1.5,1.3,2.5l-5.3,17c-0.2,0.7-0.9,1.3-1.7,1.4
				C58.8,91.1,58.8,91.1,58.7,91.1z M119.8,79.3c-0.3,0-0.5,0-0.8-0.2c-0.7-0.3-1.2-1-1.2-1.8V65.7H90.5c-0.7,0-1.3-0.4-1.7-0.9
				l-2.7-4.2c-0.6-0.9-0.3-2.2,0.6-2.8c0.9-0.6,2.2-0.3,2.8,0.6l2.1,3.3h28.2c1.1,0,2,0.9,2,2v8.7l8.7-8.7l-12.1-12.1
				c-0.8-0.8-0.8-2,0-2.8c0.8-0.8,2-0.8,2.8,0l13.5,13.5c0.8,0.8,0.8,2,0,2.8l-13.5,13.5C120.8,79.1,120.3,79.3,119.8,79.3z
				 M66.4,66.5c-0.2,0-0.4,0-0.6-0.1c-1.1-0.3-1.6-1.5-1.3-2.5l8.2-26.1c0.2-0.7,0.9-1.3,1.7-1.4c0.8-0.1,1.5,0.3,1.9,0.9l9,14.3
				c0.6,0.9,0.3,2.2-0.6,2.8c-0.9,0.6-2.2,0.3-2.8-0.6l-6.7-10.7l-6.9,21.9C68,65.9,67.3,66.5,66.4,66.5z"/>
		</g>
		<g>
			<g>
				<g>
					<g>
						<g>
							<g>
								<g>
									<path fill="#FF4833" d="M116.3,119.1c-1.8,0-3.6-0.7-4.9-2l-3.9-3.9c-0.8-0.8-0.8-2,0-2.8c0.8-0.8,2-0.8,2.8,0l3.9,3.9
										c1.1,1.1,3,1.1,4.1,0c0.6-0.6,0.9-1.3,0.9-2.1c0-0.8-0.3-1.5-0.9-2.1L96.7,88.5c-0.8-0.8-0.8-2,0-2.8c0.8-0.8,2-0.8,2.8,0
										l21.7,21.7c1.3,1.3,2,3,2,4.9c0,1.8-0.7,3.6-2,4.9C119.9,118.4,118.1,119.1,116.3,119.1z M103.2,108.1
										c-0.5,0-1-0.2-1.4-0.6L89.8,95.5c-0.8-0.8-0.8-2,0-2.8c0.8-0.8,2-0.8,2.8,0l12.1,12.1c0.8,0.8,0.8,2,0,2.8
										C104.2,107.9,103.7,108.1,103.2,108.1z"/>
								</g>
							</g>
						</g>
					</g>
				</g>
			</g>
		</g>
	</g>
</g>
<g id="Blue_Outline" display="none">
	<g display="inline">
		<g>
			<g>
				<g>
					<g>
						<g>
							<g>
								<g>
									<g>
										<path fill="#272727" d="M66.6,104.3c-4.8,0-9.4-0.8-13.9-2.4c-1-0.4-1.6-1.5-1.2-2.6s1.5-1.6,2.6-1.2
											c4,1.4,8.3,2.1,12.6,2.1c10.1,0,19.6-3.9,26.7-11.1c7.1-7.1,11.1-16.6,11.1-26.7c0-3.2-0.4-6.3-1.2-9.4
											c-0.3-1.1,0.4-2.2,1.4-2.4c1.1-0.3,2.2,0.4,2.4,1.4c0.9,3.4,1.3,6.9,1.3,10.4c0,11.2-4.3,21.7-12.2,29.6
											C88.3,100,77.8,104.3,66.6,104.3z M46.2,98.7c-0.4,0-0.7-0.1-1-0.3c-2.9-1.8-5.6-3.9-8.1-6.3
											c-7.9-7.9-12.2-18.4-12.2-29.6c0-11.2,4.3-21.7,12.2-29.6c5.9-5.9,13.3-9.9,21.5-11.5c1.1-0.2,2.1,0.5,2.3,1.6
											c0.2,1.1-0.5,2.1-1.6,2.3c-7.4,1.4-14.1,5-19.4,10.4c-7.1,7.1-11.1,16.6-11.1,26.7c0,10.1,3.9,19.6,11.1,26.7
											c2.2,2.2,4.7,4.1,7.3,5.7c0.9,0.6,1.3,1.8,0.7,2.7C47.5,98.3,46.8,98.7,46.2,98.7z M102.4,47.1c-0.7,0-1.5-0.4-1.8-1.1
											c-1.8-3.8-4.3-7.2-7.3-10.2c-7.1-7.1-16.5-11-26.5-11.1c-1.1,0-2-0.9-2-2c0-1.1,0.9-1.9,2-2C78,20.8,88.4,25.1,96.2,33
											c3.3,3.3,6,7.1,8,11.3c0.5,1,0.1,2.2-0.9,2.7C103,47,102.7,47.1,102.4,47.1z"/>
									</g>
								</g>
							</g>
						</g>
					</g>
				</g>
				<g>
					<path fill="#272727" d="M10.7,65.7c-0.5,0-1.1-0.2-1.4-0.6c-0.4-0.4-0.6-0.9-0.6-1.4c0-0.5,0.2-1,0.6-1.4
						c0.8-0.7,2.1-0.7,2.8,0c0.4,0.4,0.6,0.9,0.6,1.4c0,0.5-0.2,1-0.6,1.4C11.7,65.5,11.2,65.7,10.7,65.7z"/>
					<path fill="#272727" d="M16.8,63.7c0-1.1,0.9-2,2-2l0,0c1.1,0,2,0.9,2,2l0,0c0,1.1-0.9,2-2,2l0,0
						C17.6,65.7,16.8,64.8,16.8,63.7z"/>
					<path fill="#272727" d="M26.8,65.7c-0.5,0-1-0.2-1.4-0.6c-0.4-0.4-0.6-0.9-0.6-1.4c0-0.5,0.2-1,0.6-1.4c0.8-0.7,2.1-0.7,2.8,0
						c0.4,0.4,0.6,0.9,0.6,1.4c0,0.5-0.2,1-0.6,1.4C27.9,65.5,27.4,65.7,26.8,65.7z"/>
				</g>
			</g>
			<path fill="#272727" d="M58.7,91.1c-0.7,0-1.3-0.3-1.7-0.9L41.6,65.7h-4.5c-1.1,0-2-0.9-2-2s0.9-2,2-2h5.6c0.7,0,1.3,0.4,1.7,0.9
				l13.6,21.7l4-12.9c0.3-1.1,1.5-1.6,2.5-1.3c1.1,0.3,1.6,1.5,1.3,2.5l-5.3,17c-0.2,0.7-0.9,1.3-1.7,1.4
				C58.8,91.1,58.8,91.1,58.7,91.1z M119.8,79.3c-0.3,0-0.5,0-0.8-0.2c-0.7-0.3-1.2-1-1.2-1.8V65.7H90.5c-0.7,0-1.3-0.4-1.7-0.9
				l-2.7-4.2c-0.6-0.9-0.3-2.2,0.6-2.8c0.9-0.6,2.2-0.3,2.8,0.6l2.1,3.3h28.2c1.1,0,2,0.9,2,2v8.7l8.7-8.7l-12.1-12.1
				c-0.8-0.8-0.8-2,0-2.8c0.8-0.8,2-0.8,2.8,0l13.5,13.5c0.8,0.8,0.8,2,0,2.8l-13.5,13.5C120.8,79.1,120.3,79.3,119.8,79.3z
				 M66.4,66.5c-0.2,0-0.4,0-0.6-0.1c-1.1-0.3-1.6-1.5-1.3-2.5l8.2-26.1c0.2-0.7,0.9-1.3,1.7-1.4c0.8-0.1,1.5,0.3,1.9,0.9l9,14.3
				c0.6,0.9,0.3,2.2-0.6,2.8c-0.9,0.6-2.2,0.3-2.8-0.6l-6.7-10.7l-6.9,21.9C68,65.9,67.3,66.5,66.4,66.5z"/>
		</g>
		<g>
			<g>
				<g>
					<g>
						<g>
							<g>
								<g>
									<path fill="#272727" d="M116.3,119.1c-1.8,0-3.6-0.7-4.9-2l-3.9-3.9c-0.8-0.8-0.8-2,0-2.8c0.8-0.8,2-0.8,2.8,0l3.9,3.9
										c1.1,1.1,3,1.1,4.1,0c0.6-0.6,0.9-1.3,0.9-2.1c0-0.8-0.3-1.5-0.9-2.1L96.7,88.5c-0.8-0.8-0.8-2,0-2.8c0.8-0.8,2-0.8,2.8,0
										l21.7,21.7c1.3,1.3,2,3,2,4.9c0,1.8-0.7,3.6-2,4.9C119.9,118.4,118.1,119.1,116.3,119.1z M103.2,108.1
										c-0.5,0-1-0.2-1.4-0.6L89.8,95.5c-0.8-0.8-0.8-2,0-2.8c0.8-0.8,2-0.8,2.8,0l12.1,12.1c0.8,0.8,0.8,2,0,2.8
										C104.2,107.9,103.7,108.1,103.2,108.1z"/>
								</g>
							</g>
						</g>
					</g>
				</g>
			</g>
		</g>
	</g>
</g>
<g id="White_Outline" display="none">
	<g display="inline">
		<g>
			<g>
				<g>
					<g>
						<g>
							<g>
								<g>
									<g>
										<path fill="#FFFFFF" d="M66.6,104.3c-4.8,0-9.4-0.8-13.9-2.4c-1-0.4-1.6-1.5-1.2-2.6s1.5-1.6,2.6-1.2
											c4,1.4,8.3,2.1,12.6,2.1c10.1,0,19.6-3.9,26.7-11.1c7.1-7.1,11.1-16.6,11.1-26.7c0-3.2-0.4-6.3-1.2-9.4
											c-0.3-1.1,0.4-2.2,1.4-2.4c1.1-0.3,2.2,0.4,2.4,1.4c0.9,3.4,1.3,6.9,1.3,10.4c0,11.2-4.3,21.7-12.2,29.6
											C88.3,100,77.8,104.3,66.6,104.3z M46.2,98.7c-0.4,0-0.7-0.1-1-0.3c-2.9-1.8-5.6-3.9-8.1-6.3
											c-7.9-7.9-12.2-18.4-12.2-29.6c0-11.2,4.3-21.7,12.2-29.6c5.9-5.9,13.3-9.9,21.5-11.5c1.1-0.2,2.1,0.5,2.3,1.6
											c0.2,1.1-0.5,2.1-1.6,2.3c-7.4,1.4-14.1,5-19.4,10.4c-7.1,7.1-11.1,16.6-11.1,26.7c0,10.1,3.9,19.6,11.1,26.7
											c2.2,2.2,4.7,4.1,7.3,5.7c0.9,0.6,1.3,1.8,0.7,2.7C47.5,98.3,46.8,98.7,46.2,98.7z M102.4,47.1c-0.7,0-1.5-0.4-1.8-1.1
											c-1.8-3.8-4.3-7.2-7.3-10.2c-7.1-7.1-16.5-11-26.5-11.1c-1.1,0-2-0.9-2-2c0-1.1,0.9-1.9,2-2C78,20.8,88.4,25.1,96.2,33
											c3.3,3.3,6,7.1,8,11.3c0.5,1,0.1,2.2-0.9,2.7C103,47,102.7,47.1,102.4,47.1z"/>
									</g>
								</g>
							</g>
						</g>
					</g>
				</g>
				<g>
					<path fill="#FFFFFF" d="M10.7,65.7c-0.5,0-1.1-0.2-1.4-0.6c-0.4-0.4-0.6-0.9-0.6-1.4c0-0.5,0.2-1,0.6-1.4
						c0.8-0.7,2.1-0.7,2.8,0c0.4,0.4,0.6,0.9,0.6,1.4c0,0.5-0.2,1-0.6,1.4C11.7,65.5,11.2,65.7,10.7,65.7z"/>
					<path fill="#FFFFFF" d="M16.8,63.7c0-1.1,0.9-2,2-2l0,0c1.1,0,2,0.9,2,2l0,0c0,1.1-0.9,2-2,2l0,0
						C17.6,65.7,16.8,64.8,16.8,63.7z"/>
					<path fill="#FFFFFF" d="M26.8,65.7c-0.5,0-1-0.2-1.4-0.6c-0.4-0.4-0.6-0.9-0.6-1.4c0-0.5,0.2-1,0.6-1.4c0.8-0.7,2.1-0.7,2.8,0
						c0.4,0.4,0.6,0.9,0.6,1.4c0,0.5-0.2,1-0.6,1.4C27.9,65.5,27.4,65.7,26.8,65.7z"/>
				</g>
			</g>
			<path fill="#FFFFFF" d="M58.7,91.1c-0.7,0-1.3-0.3-1.7-0.9L41.6,65.7h-4.5c-1.1,0-2-0.9-2-2s0.9-2,2-2h5.6c0.7,0,1.3,0.4,1.7,0.9
				l13.6,21.7l4-12.9c0.3-1.1,1.5-1.6,2.5-1.3c1.1,0.3,1.6,1.5,1.3,2.5l-5.3,17c-0.2,0.7-0.9,1.3-1.7,1.4
				C58.8,91.1,58.8,91.1,58.7,91.1z M119.8,79.3c-0.3,0-0.5,0-0.8-0.2c-0.7-0.3-1.2-1-1.2-1.8V65.7H90.5c-0.7,0-1.3-0.4-1.7-0.9
				l-2.7-4.2c-0.6-0.9-0.3-2.2,0.6-2.8c0.9-0.6,2.2-0.3,2.8,0.6l2.1,3.3h28.2c1.1,0,2,0.9,2,2v8.7l8.7-8.7l-12.1-12.1
				c-0.8-0.8-0.8-2,0-2.8c0.8-0.8,2-0.8,2.8,0l13.5,13.5c0.8,0.8,0.8,2,0,2.8l-13.5,13.5C120.8,79.1,120.3,79.3,119.8,79.3z
				 M66.4,66.5c-0.2,0-0.4,0-0.6-0.1c-1.1-0.3-1.6-1.5-1.3-2.5l8.2-26.1c0.2-0.7,0.9-1.3,1.7-1.4c0.8-0.1,1.5,0.3,1.9,0.9l9,14.3
				c0.6,0.9,0.3,2.2-0.6,2.8c-0.9,0.6-2.2,0.3-2.8-0.6l-6.7-10.7l-6.9,21.9C68,65.9,67.3,66.5,66.4,66.5z"/>
		</g>
		<g>
			<g>
				<g>
					<g>
						<g>
							<g>
								<g>
									<path fill="#FFFFFF" d="M116.3,119.1c-1.8,0-3.6-0.7-4.9-2l-3.9-3.9c-0.8-0.8-0.8-2,0-2.8c0.8-0.8,2-0.8,2.8,0l3.9,3.9
										c1.1,1.1,3,1.1,4.1,0c0.6-0.6,0.9-1.3,0.9-2.1c0-0.8-0.3-1.5-0.9-2.1L96.7,88.5c-0.8-0.8-0.8-2,0-2.8c0.8-0.8,2-0.8,2.8,0
										l21.7,21.7c1.3,1.3,2,3,2,4.9c0,1.8-0.7,3.6-2,4.9C119.9,118.4,118.1,119.1,116.3,119.1z M103.2,108.1
										c-0.5,0-1-0.2-1.4-0.6L89.8,95.5c-0.8-0.8-0.8-2,0-2.8c0.8-0.8,2-0.8,2.8,0l12.1,12.1c0.8,0.8,0.8,2,0,2.8
										C104.2,107.9,103.7,108.1,103.2,108.1z"/>
								</g>
							</g>
						</g>
					</g>
				</g>
			</g>
		</g>
	</g>
</g>
</svg>
