<?xml version="1.0" encoding="utf-8"?>
<!-- Generator: Adobe Illustrator 19.2.1, SVG Export Plug-In . SVG Version: 6.00 Build 0)  -->
<svg version="1.1" id="Layer_1" xmlns="http://www.w3.org/2000/svg" xmlns:xlink="http://www.w3.org/1999/xlink" x="0px" y="0px"
	 viewBox="0 0 306 272.6" style="enable-background:new 0 0 306 272.6;" xml:space="preserve">
<style type="text/css">
	.st0{fill:#D3E5F7;}
	.st1{fill:#BCD4F0;}
	.st2{fill:#16262D;}
	.st3{fill:#354B54;}
	.st4{fill:#8EC9A8;}
	.st5{fill:#FFFFFF;}
	.st6{fill:#FCC200;}
	.st7{fill:#94A5B0;}
	.st8{fill:#C8D2D8;}
	.st9{fill:#14252C;}
	.st10{fill:#F29100;}
	.st11{fill:#E74249;}
	.st12{fill:#EE787C;}
	.st13{fill:#4B606A;}
	.st14{fill:#657A83;}
	.st15{enable-background:new    ;}
	.st16{fill:none;}
	.st17{fill:#4CAF5B;}
	.st18{fill:#C6C19C;}
</style>
<g>
	<path class="st0" d="M163.4,62.2c0-7.6,4.9-15.1,14.9-20.9c19.9-11.6,52.3-11.6,72.3,0v39.9c-20-11.6-52.4-11.6-72.3,0
		c-9.9,5.8-14.9,13.3-14.9,20.9V62.2z"/>
	<g>
		<path class="st1" d="M178.5,83.2c-10-5.8-15.1-13.4-15.1-21v33.2l18.1-10.5L178.5,83.2z"/>
		<path class="st1" d="M244.8,121.4l-2-1.1l-34.4,20l36.4,21c13.4,7.7,20.1,17.8,20.2,28v-39.9C264.9,139.3,258.2,129.2,244.8,121.4
			z"/>
		<path class="st1" d="M199,95l-31.7,18.4c2.5,3.5,6.2,6.8,11.1,9.6l0.5,0.3l34.4-20L199,95z"/>
		<path class="st0" d="M181.5,84.9l-18.1,10.5v6.7c0,3.9,1.3,7.7,3.9,11.3L199,95L181.5,84.9z"/>
		<polygon class="st0" points="213.4,103.3 179,123.3 208.4,140.3 242.9,120.3 		"/>
	</g>
	<g>
		<g>
			<polygon class="st2" points="195,132.7 194.9,156.3 188.9,153.1 188.9,129.5 			"/>
		</g>
		<g>
			<polygon class="st3" points="205.1,124.5 205,161.6 198.9,158.4 199,121.3 			"/>
		</g>
		<g>
			<polygon class="st2" points="215.1,136 215,167 209,163.8 209,132.8 			"/>
		</g>
		<g>
			<polygon class="st3" points="225.1,152.1 225.1,172.3 225.1,172.3 219,169.1 219,169.1 219.1,148.9 			"/>
		</g>
		<g>
			<polygon class="st2" points="235.2,146.6 235.2,177.6 229.1,174.4 229.2,143.4 			"/>
		</g>
		<g>
			<path class="st4" d="M236.4,130.2c2.3,1.2,4.1,4.1,4.1,6.5l-0.1,43.6l-5.2-2.8l0.1-31l-6.1-3.2l-0.1,31l-4-2.1l0-20.2l-6.1-3.2
				l0,20.2l-4-2.1l0.1-31l-6.1-3.2l-0.1,31l-4-2.1l0.1-37.1l-6.1-3.2l-0.1,37.1l-4-2.1l0-23.6l-6.1-3.2l0,23.6l-5.2-2.8l0.1-43.6
				c0-2.4,1.9-3.4,4.1-2.2L236.4,130.2z"/>
		</g>
		<g>
			<path class="st5" d="M240.4,180.4l0,1.4c0,2.4-1.9,3.4-4.1,2.2l-18.8-10l-5.5,7l-5.4-12.8l-18.8-9.9c-2.3-1.2-4.1-4.1-4.1-6.5
				l0-1.4l5.2,2.8l6.1,3.2l4,2.1l6.1,3.2l4,2.1l6.1,3.2l4,2.1l6.1,3.2l4,2.1l6.1,3.2L240.4,180.4z"/>
		</g>
	</g>
	<polygon class="st6" points="275.2,120.1 306,137.9 306,106.8 275.2,89 	"/>
	<g>
		<g>
			<polygon class="st2" points="278.7,102.1 278.7,102.1 278.7,102.2 			"/>
		</g>
		<g>
			<path class="st2" d="M283.6,100.5l4.2,2.4l-0.1,18.3l-5-2.9l0-11.4c-1,0.2-1.8,0-1.9,0l-2.2-4.7
				C279.2,102.4,282.8,101.9,283.6,100.5z"/>
		</g>
		<g>
			<path class="st2" d="M295,106.5c4,2.3,6.5,7.4,6.1,10.9c-0.5,3.8-4.7,2.9-5.5,3.1l5.3,2.9l0,5.3l-11.8-6.8l0-2.9
				c0.5-3.9,4.3-3,6.5-4.1c0.9-0.5,0.7-2.1-0.6-2.8c-0.8-0.5-1.1,0-1.1,0.8l-4.9-2.8C289.1,106.1,291.5,104.4,295,106.5z"/>
		</g>
	</g>
	<path class="st5" d="M42.8,125.7l51.9-30.2c5.3-3.1,11.8-3.1,17,0l64.4,37.2l-60.4,35.1L42.8,125.7z"/>
	<path class="st7" d="M105.7,185.3l0,87.3l62.1-36.1c5.2-3,8.5-8.6,8.5-14.7v-89.2l-60.4,35.1L105.7,185.3z"/>
	<g>
		<path class="st8" d="M41.2,235.4l64.4,37.2v-87.3l-72.9-42.1l0,77.5C32.7,226.8,36,232.4,41.2,235.4z"/>
		<g>
			<polygon class="st9" points="105.7,185.3 115.8,167.8 84.5,149.7 64.3,161.4 			"/>
			<polygon class="st9" points="73.6,143.4 53.5,155.1 58.8,158.3 79,146.5 			"/>
			<polygon class="st9" points="42.8,125.7 32.7,143.2 35.9,145 56.1,133.3 			"/>
			<polygon class="st3" points="56.1,133.3 35.9,145 53.5,155.1 73.6,143.4 			"/>
		</g>
		<polygon class="st7" points="55.2,226.7 105.7,255.8 105.7,195.4 55.2,166.3 		"/>
	</g>
	<g>
		<path class="st8" d="M135.6,132.6c0,1.9,1.2,3.8,3.7,5.2c5,2.9,13,2.8,18,0c2.5-1.4,3.7-3.3,3.8-5.2c0-1.9-1.3-3.7-3.8-5.2
			c-5-2.9-13-2.9-18,0C136.8,128.9,135.6,130.7,135.6,132.6z"/>
		<path class="st10" d="M148.3,106.1c-5.8,0-10.4,4.7-10.4,10.4v13.1c0,1.5,1,3.1,3,4.3c4.1,2.3,10.7,2.3,14.8,0
			c2-1.2,3.1-2.7,3.1-4.2v-13.1C158.7,110.7,154,106.1,148.3,106.1z"/>
		<path class="st6" d="M148.3,116.5c0-2.6,1.4-4.9,3.6-6.1c-1.1-0.6-2.3-1-3.6-1c-3.9,0-7.1,3.2-7.1,7.1c0,3.9,3.2,7.1,7.1,7.1
			V116.5z"/>
	</g>
	<g>
		<polygon class="st3" points="71.8,150.9 77.2,154 84.5,149.7 79,146.5 58.8,158.3 64.3,161.4 69.5,158.4 67.9,157.5 		"/>
		<polygon class="st11" points="107.3,171.4 77.2,154 69.5,158.4 103.5,178 		"/>
		<polygon class="st12" points="71.8,150.9 67.9,157.5 69.5,158.4 77.2,154 		"/>
	</g>
	<path class="st13" d="M67,182.7l6.7,3.9c1.7,1,2.7,2.7,2.7,4.7v23.4c0,1.7-1.8,2.7-3.2,1.9l-6.7-3.9c-1.7-1-2.7-2.7-2.7-4.7v-23.4
		C63.8,182.9,65.6,181.9,67,182.7z"/>
	<polygon class="st14" points="130.9,180.9 105.7,195.4 105.7,255.8 130.9,241.3 	"/>
	<g>
		<g>
			<g>
				<path class="st8" d="M0,66.7L0,78c0,4.3,3,9.6,6.8,11.7l88.3,51c3.8,2.2,6.8,0.4,6.8-3.9l0-11.3L0,66.7z"/>
			</g>
			<path class="st2" d="M95.4,54.7c3.8,2.2,6.8,7.4,6.8,11.7l-0.2,59.1L0,66.7L0.2,7.6c0-4.3,3.1-6.1,6.8-3.9L95.4,54.7z"/>
		</g>
		<g>
			<path class="st7" d="M105.4,58c0.9,1.9,1.5,3.9,1.5,5.7l-0.2,59.1l0,11.3c0,2.1-0.8,3.7-2,4.4l-4.8,2.8c1.2-0.7,2-2.2,2-4.4
				l0-11.3l0.2-59.1c0-1.8-0.6-3.9-1.5-5.7L105.4,58z"/>
			<path class="st5" d="M95.4,54.7L7,3.7C5.1,2.6,3.4,2.5,2.2,3.2l4.8-2.8c1.2-0.7,2.9-0.6,4.8,0.5l88.3,51c2.2,1.2,4,3.5,5.3,6
				l-4.8,2.8C99.4,58.2,97.5,55.9,95.4,54.7z"/>
		</g>
	</g>
	<g>
		<g class="st15">
			<g>
				<path class="st5" d="M120.6,191.3c-1.3,0.7-2.3,2.5-2.3,3.9s1,2,2.3,1.3s2.3-2.5,2.3-3.9S121.8,190.6,120.6,191.3z"/>
			</g>
		</g>
	</g>
	<g>
		<g class="st15">
			<g>
				<path class="st5" d="M111.9,196.3c-1.3,0.7-2.3,2.5-2.3,3.9c0,1.4,1,2,2.3,1.3c1.3-0.7,2.3-2.5,2.3-3.9S113.1,195.6,111.9,196.3
					z"/>
			</g>
		</g>
	</g>
	<g>
		<g class="st15">
			<g>
				<path class="st5" d="M120.6,201.5c-1.3,0.7-2.3,2.5-2.3,3.9s1,2,2.3,1.3s2.3-2.5,2.3-3.9S121.8,200.8,120.6,201.5z"/>
			</g>
		</g>
	</g>
	<g>
		<g class="st15">
			<g>
				<path class="st5" d="M111.9,206.5c-1.3,0.7-2.3,2.5-2.3,3.9c0,1.4,1,2,2.3,1.3c1.3-0.7,2.3-2.5,2.3-3.9S113.1,205.7,111.9,206.5
					z"/>
			</g>
		</g>
	</g>
	<g>
		<g class="st15">
			<g>
				<path class="st5" d="M120.6,211.6c-1.3,0.7-2.3,2.5-2.3,3.9s1,2,2.3,1.3s2.3-2.5,2.3-3.9S121.8,210.9,120.6,211.6z"/>
			</g>
		</g>
	</g>
	<g>
		<g class="st15">
			<g>
				<path class="st5" d="M111.9,216.6c-1.3,0.7-2.3,2.5-2.3,3.9c0,1.4,1,2,2.3,1.3c1.3-0.7,2.3-2.5,2.3-3.9S113.1,215.9,111.9,216.6
					z"/>
			</g>
		</g>
	</g>
	<g>
		<polygon class="st9" points="148.6,171.8 148.6,220.1 159,226.1 159,165.7 		"/>
		<polygon class="st3" points="148.6,232.2 159,226.1 148.6,220.1 		"/>
	</g>
	<g>
		<path class="st0" d="M245.1,177.4c-24.9,14.5-64.5,15.4-91.3,2.7V220c26.9,12.7,66.4,11.8,91.3-2.7c13.3-7.7,19.9-17.8,19.8-28
			v-39.9C265,159.5,258.4,169.7,245.1,177.4z"/>
		<path class="st1" d="M148.6,177.4v39.9c1.7,1,3.4,1.9,5.2,2.7v-39.9C152,179.3,150.2,178.3,148.6,177.4z"/>
	</g>
	<g>
		<path class="st16" d="M16.9,25.6c0.5,0.3,0.8,0.3,0.8-0.4s-0.3-1-0.8-1.3l-1.5-0.9l-0.1,0l0,1.5l0.1,0.1L16.9,25.6z"/>
		<path class="st16" d="M11.4,22.5c0.5,0.3,0.8,0.3,0.8-0.4c0-0.6-0.3-1-0.8-1.3L9.9,20l-0.1,0l0,1.5l0.1,0.1L11.4,22.5z"/>
		<polygon class="st16" points="32.7,33.2 32.7,34.5 32.7,34.5 33.9,33.8 32.8,33.1 		"/>
		<path class="st16" d="M22.2,31.4c1,0.6,1.6,0,1.6-1.3c0-1.3-0.6-2.5-1.6-3.1c-1-0.6-1.6,0-1.6,1.3C20.6,29.5,21.1,30.8,22.2,31.4z
			"/>
		<path class="st3" d="M41.5,29.4l-6.6,3.8l0.5,0.3l0.1,0.1l0,0.9l-0.1,0l-1.5-0.8l-1.2,0.7l0,0.1l2.5,1.4l0.1,0.1l0,0.9l-0.1,0
			l-2.5-1.4l-0.1,0l0,1.5l0.1,0.1l2.6,1.5l0.1,0.1l0,0.9L35.4,40l-3.8-2.2l-0.1-0.1l0-2.5l-1.2,0.7c-0.2,0.3-0.5,0.4-0.8,0.5
			L5.1,50.6l0,13.2l23.1,13.3l47.7-27.7L41.5,29.4z M38.6,41.9c-1.6-0.9-2.3-2.3-2.3-3.5l0.1-0.1l1,0.6l0.1,0.1
			c0,0.6,0.3,1.2,1.3,1.8c0.7,0.4,1.1,0.4,1.1-0.2c0-0.6-0.3-1-1.4-1.8c-1.1-0.8-2-1.8-2-3.1c0-0.9,0.6-1.4,2.2-0.5
			c1.5,0.9,2.2,2.1,2.2,3.2l-0.1,0l-1-0.6l-0.1-0.1c0-0.6-0.2-1-1.1-1.5c-0.7-0.4-1-0.3-1,0.1c0,0.6,0.3,0.9,1.4,1.8
			c1.1,0.8,2,1.9,2,3.2C40.9,42.4,40.3,42.9,38.6,41.9z M43.9,45c-1.6-0.9-2.3-2.3-2.3-3.5l0.1-0.1l1,0.6l0.1,0.1
			c0,0.6,0.3,1.2,1.3,1.8c0.7,0.4,1.1,0.4,1.1-0.2c0-0.6-0.3-1-1.4-1.8c-1.1-0.8-2-1.8-2-3.1c0-0.9,0.6-1.4,2.2-0.5
			c1.5,0.9,2.2,2.1,2.2,3.2l-0.1,0l-1-0.6l-0.1-0.1c0-0.6-0.2-1-1.1-1.5c-0.7-0.4-1-0.3-1,0.1c0,0.6,0.3,0.9,1.4,1.8
			c1.1,0.8,2,1.9,2,3.2C46.2,45.4,45.6,46,43.9,45z M50.4,49.8l-3.8-2.2l-0.1-0.1l0-0.9l0.1,0l3.8,2.2l0.1,0.1L50.4,49.8L50.4,49.8z
			"/>
		<path class="st17" d="M9.8,25.2L9.8,25.2l0.1-2.4l0.1,0l1.5,0.9c1.1,0.6,1.9,0.5,1.9-0.8c0-1.3-0.8-2.4-1.9-3l-2.6-1.5l-0.1,0
			l0,6.3l0.1,0.1L9.8,25.2z M9.9,20L9.9,20l1.6,0.8c0.5,0.3,0.8,0.6,0.8,1.3c0,0.6-0.3,0.6-0.8,0.4l-1.5-0.9l-0.1-0.1L9.9,20z"/>
		<path class="st17" d="M15.2,28.3L15.2,28.3l0.1-2.4l0.1,0l0.8,0.5l0.2,0.2l1.6,3.3l0.2,0.2l0.5,0.3l0.1-0.1l0-0.9l-1-2.2l0-0.1
			c0.6,0.2,1.2-0.1,1.2-1.1c0-1.3-0.8-2.4-1.9-3l-2.6-1.5l-0.1,0l0,6.3l0.1,0.1L15.2,28.3z M15.3,23.1L15.3,23.1l1.6,0.8
			c0.5,0.3,0.8,0.6,0.8,1.3s-0.3,0.6-0.8,0.4l-1.5-0.9l-0.1-0.1L15.3,23.1z"/>
		<path class="st17" d="M22.2,32.5c1.7,1,2.7,0.2,2.7-1.7c0-1.9-1-3.9-2.7-4.9c-1.7-1-2.7-0.2-2.7,1.7
			C19.5,29.5,20.5,31.5,22.2,32.5z M22.2,26.9c1,0.6,1.6,1.8,1.6,3.1c0,1.3-0.6,1.9-1.6,1.3c-1-0.6-1.6-1.8-1.6-3.1
			C20.6,26.9,21.1,26.3,22.2,26.9z"/>
		<path class="st17" d="M30.6,35.3l-0.1-0.1l-1-0.6l-0.1,0c-0.2,0.5-0.6,0.6-1.2,0.2c-1.1-0.6-1.6-1.8-1.6-3.1
			c0-1.3,0.5-1.9,1.6-1.3c0.6,0.4,1,0.9,1.2,1.5l0.1,0.1l1,0.6l0.1,0c-0.2-1.3-1-2.5-2.3-3.3c-1.8-1-2.7-0.2-2.7,1.7
			c0,1.9,1,3.9,2.7,4.9c0.5,0.3,0.9,0.4,1.3,0.4l0.8-0.5C30.5,35.7,30.6,35.5,30.6,35.3z"/>
		<path class="st17" d="M30.4,35.9l-0.8,0.5C29.9,36.3,30.2,36.2,30.4,35.9z"/>
		<polygon class="st17" points="32.7,34.5 32.7,33.2 32.8,33.1 33.9,33.8 34.9,33.3 31.6,31.4 31.6,31.4 31.6,35.2 32.7,34.5 		"/>
		<polygon class="st4" points="35.4,34.7 35.5,34.6 35.5,33.7 35.4,33.6 34.9,33.3 33.9,33.8 		"/>
		<polygon class="st4" points="31.6,37.8 35.4,40 35.5,40 35.5,39 35.4,38.9 32.8,37.4 32.7,37.2 32.7,35.8 32.8,35.7 35.2,37.1 
			35.3,37.1 35.3,36.2 35.2,36 32.8,34.6 32.7,34.5 31.6,35.2 31.5,37.7 		"/>
		<path class="st4" d="M38.9,38.2c-1.1-0.8-1.4-1.2-1.4-1.8c0-0.4,0.2-0.5,1-0.1c0.9,0.5,1.1,0.9,1.1,1.5l0.1,0.1l1,0.6l0.1,0
			c0-1.1-0.6-2.3-2.2-3.2c-1.5-0.9-2.2-0.4-2.2,0.5c0,1.3,0.9,2.3,2,3.1c1.1,0.8,1.4,1.2,1.4,1.8c0,0.6-0.4,0.6-1.1,0.2
			c-1-0.6-1.3-1.1-1.3-1.8L37.3,39l-1-0.6l-0.1,0.1c0,1.2,0.7,2.5,2.3,3.5c1.7,1,2.3,0.4,2.3-0.6C40.9,40.1,40,39,38.9,38.2z"/>
		<path class="st4" d="M44.2,41.2c-1.1-0.8-1.4-1.2-1.4-1.8c0-0.4,0.2-0.5,1-0.1c0.9,0.5,1.1,0.9,1.1,1.5l0.1,0.1l1,0.6l0.1,0
			c0-1.1-0.6-2.3-2.2-3.2c-1.5-0.9-2.2-0.4-2.2,0.5c0,1.3,0.9,2.3,2,3.1c1.1,0.8,1.4,1.2,1.4,1.8c0,0.6-0.4,0.6-1.1,0.2
			c-1-0.6-1.3-1.1-1.3-1.8L42.6,42l-1-0.6l-0.1,0.1c0,1.2,0.7,2.5,2.3,3.5c1.7,1,2.3,0.4,2.3-0.6C46.2,43.1,45.3,42.1,44.2,41.2z"/>
		<polygon class="st4" points="50.4,48.7 46.5,46.4 46.5,46.5 46.4,47.4 46.5,47.5 50.4,49.8 50.5,49.7 50.5,48.8 		"/>
	</g>
	<polygon class="st9" points="67,220 67,182.7 95.2,199 95.2,236.3 	"/>
	<g>
		<polygon class="st10" points="88.7,226 88.7,210.4 92.5,212.6 92.5,228.2 		"/>
		<polygon class="st6" points="82.4,222.5 82.4,210.4 86.2,212.6 86.2,224.7 		"/>
		<polygon class="st10" points="76.1,218.8 76.1,195 79.9,197.2 79.9,221 		"/>
		<polygon class="st6" points="69.8,215.3 69.8,199.1 73.5,201.3 73.5,217.5 		"/>
	</g>
	<polygon class="st5" points="67,214.4 67,212.8 95.2,229.1 95.2,230.7 	"/>
	<g>
		<g class="st15">
			<g>
				<path class="st3" d="M44,165.9c2.3,1.3,4.1,4.5,4.1,7.1c0,2.6-1.9,3.7-4.1,2.4c-2.3-1.3-4.1-4.5-4.1-7.1
					C39.9,165.6,41.7,164.5,44,165.9z"/>
			</g>
		</g>
	</g>
	<g>
		<path class="st18" d="M180.2,209.7C180.2,209.7,180.2,209.7,180.2,209.7c8.9,5.1,16,17.4,15.9,27.6c0,10.1-7.2,14.2-16,9.1
			c-4.1-2.4-7.8-6.3-10.6-10.9l10.7-6.2V209.7z"/>
		<g>
			<path class="st5" d="M164.2,218.8c0-10.1,7.2-14.2,15.9-9.1v19.6h-13.8C165,225.8,164.2,222.2,164.2,218.8z"/>
			<path class="st10" d="M166.4,229.3h13.8l-10.7,6.2C168.3,233.5,167.2,231.4,166.4,229.3z"/>
		</g>
	</g>
	<g>
		<g>
			<path class="st10" d="M273.3,51.8c0.3-0.9,1.2-1.1,2.2-0.5l6.4,3.7l0,9.8l-0.3-0.1c-0.7-0.4-1.3-1-1.9-1.8l-6.8-9.8L273.3,51.8z"
				/>
		</g>
		<g class="st15">
			<g>
				<path class="st2" d="M246.3,42.8c-0.8,0.8-2.1,0.9-3.5,0.1l-3.4-2l0-2.8l3.4,2c0.6,0.3,1.2,0.3,1.5,0l4.2-4.5
					c0.1-0.1,0.3-0.2,0.4-0.3c0,0,0,0.1,0,0.1c0,1.1,0.5,2.3,1.2,3.3L246.3,42.8z"/>
			</g>
			<g>
				<path class="st5" d="M251.6,33.9c1.2,0.7,2.3,2.2,2.6,3.7c0.1,0.3,0.1,0.7,0.1,1c0,0.8-0.3,1.4-0.7,1.7c-0.5,0.4-1.2,0.3-2-0.1
					c-0.5-0.3-1.1-0.8-1.5-1.4c-0.7-1-1.2-2.2-1.2-3.3c0,0,0-0.1,0-0.1C249,33.7,250.2,33,251.6,33.9z"/>
			</g>
			<g>
				<path class="st2" d="M265.4,55.3c-0.2,0.3-0.2,0.7-0.2,1.1c0,0.7,0.2,1.4,0.5,2c-0.9-0.7-1.6-1.6-2.3-2.7
					c-0.5-0.8-1.1-1.4-1.7-1.8c-0.5-0.3-1-0.4-1.4-0.2l-5.5,2.1c-0.8,0.3-1.9,0.1-3-0.5l-2.7-1.6c-0.9-0.5-1.6-0.4-2,0.3l-0.9,1.5
					c-0.8,1.3-2.4,1.5-4.2,0.5l-2.6-1.5l0-2.8l2.6,1.5c0.9,0.5,1.6,0.4,2-0.3l0.9-1.5c0.8-1.3,2.4-1.5,4.2-0.5l2.7,1.6
					c0.5,0.3,1.1,0.4,1.5,0.2l5.5-2.1c0.9-0.3,1.9-0.1,3,0.5c1.2,0.7,2.3,1.8,3.2,3.3C265.1,54.9,265.3,55.1,265.4,55.3z"/>
			</g>
			<g>
				<path class="st10" d="M278.2,64.1c1,1.4,2.1,2.5,3.3,3.2l0.3,0.1l0,13.2c0,2.1-1.5,3-3.3,1.9l-35.8-20.7
					c-1.8-1.1-3.3-3.6-3.3-5.8l0-1.6l2.6,1.5c1.8,1,3.4,0.8,4.2-0.5L247,54c0.4-0.6,1.2-0.8,2-0.3l2.7,1.6c1.1,0.6,2.2,0.8,3,0.5
					l5.5-2.1c0.4-0.2,0.9-0.1,1.4,0.2c0.6,0.3,1.2,0.9,1.7,1.8c0.6,1.1,1.4,2,2.3,2.7c0.5,1.1,1.3,2.1,2.2,2.6
					c1.5,0.9,2.7,0.2,2.7-1.6c0-0.2,0-0.4,0-0.6c0.2-0.3,0.4-0.6,0.5-0.9l1-2.8L278.2,64.1z"/>
			</g>
			<g>
				<path class="st5" d="M267.9,54.9c0.3,0.2,0.6,0.4,0.9,0.7c0.9,0.9,1.5,2.1,1.7,3.3c0,0.2,0,0.4,0,0.6c0,1.7-1.2,2.4-2.7,1.6
					c-0.9-0.5-1.7-1.5-2.2-2.6c-0.3-0.7-0.5-1.4-0.5-2c0-0.5,0.1-0.8,0.2-1.1C265.9,54.5,266.8,54.3,267.9,54.9z"/>
			</g>
			<g>
				<path class="st10" d="M243.9,53.1c-0.4,0.7-1.2,0.8-2,0.3l-2.6-1.5l0-10.9l3.4,2c1.4,0.8,2.7,0.8,3.5-0.1l3.9-4.1
					c0.4,0.6,0.9,1.1,1.5,1.4c0.8,0.5,1.5,0.5,2,0.1c0.7,1,1.5,1.7,2.3,2.2c0.9,0.5,1.7,0.7,2.5,0.5l3.1-0.8c0.3-0.1,0.7,0,1.1,0.2
					c0.4,0.2,0.8,0.6,1.1,1l6.3,9l-1.2,3.3c-0.3-0.3-0.6-0.5-0.9-0.7c-1.1-0.6-2-0.4-2.5,0.4c-0.2-0.2-0.3-0.4-0.5-0.7
					c-0.9-1.5-2.1-2.7-3.2-3.3c-1.1-0.6-2.1-0.8-3-0.5l-5.5,2.1c-0.4,0.2-0.9,0.1-1.5-0.2L249,51c-1.8-1-3.4-0.8-4.2,0.5L243.9,53.1
					z"/>
			</g>
			<g>
				<path class="st2" d="M275.4,51.2c-1-0.6-1.9-0.4-2.2,0.5l-0.4,1.2l6.8,9.8c0.5,0.8,1.2,1.4,1.9,1.8l0.3,0.1l0,2.8l-0.3-0.1
					c-1.2-0.7-2.4-1.8-3.3-3.2l-6.2-8.9l-1,2.8c-0.1,0.4-0.3,0.7-0.5,0.9c-0.2-1.2-0.8-2.4-1.7-3.3l1.2-3.3l-6.3-9
					c-0.3-0.5-0.7-0.8-1.1-1c-0.4-0.2-0.8-0.3-1.1-0.2l-3.1,0.8c-0.8,0.2-1.6,0-2.5-0.5c-0.8-0.5-1.6-1.2-2.3-2.2
					c0.4-0.3,0.7-0.9,0.7-1.7c0-0.3,0-0.6-0.1-1c0.2,0.2,0.4,0.5,0.5,0.8c0.4,0.6,0.8,1,1.2,1.3c0.4,0.2,0.7,0.3,1.1,0.2l3.1-0.8
					c0.7-0.2,1.6,0,2.5,0.5c0.9,0.5,1.8,1.3,2.5,2.4l5.7,8.1l0.2-0.5c0.6-1.8,2.4-2.3,4.5-1.1l6.4,3.7l0,2.8L275.4,51.2z"/>
			</g>
			<g>
				<path class="st10" d="M278.5,39.4c1.8,1.1,3.3,3.6,3.3,5.8l0,7l-6.4-3.7c-2-1.2-3.8-0.7-4.5,1.1l-0.2,0.5l-5.7-8.1
					c-0.7-1.1-1.6-1.9-2.5-2.4c-0.9-0.5-1.7-0.7-2.5-0.5l-3.1,0.8c-0.3,0.1-0.7,0-1.1-0.2c-0.4-0.3-0.9-0.7-1.2-1.3
					c-0.2-0.3-0.3-0.5-0.5-0.8c-0.3-1.5-1.4-3-2.6-3.7c-1.4-0.8-2.6-0.2-2.7,1.4c-0.1,0.1-0.3,0.2-0.4,0.3l-4.2,4.5
					c-0.3,0.4-0.9,0.4-1.5,0l-3.4-2l0-17.5c0-2.1,1.5-3,3.3-1.9L278.5,39.4z"/>
			</g>
		</g>
	</g>
</g>
</svg>
