<svg id="Layer_1" xmlns="http://www.w3.org/2000/svg" xmlns:xlink="http://www.w3.org/1999/xlink" viewBox="-267 359.7 76.7 75.3"><style>.st0{display:none}.st1,.st2{display:inline}.st2{clip-path:url(#SVGID_2_);fill:none;stroke:#fff;stroke-width:1.345;stroke-linejoin:bevel;stroke-miterlimit:10}.st3{fill:#fff}</style><g class="st0"><defs><path id="SVGID_1_" d="M-265.5 368.2h72.6v60.5h-72.6z"/></defs><clipPath id="SVGID_2_" class="st1"><use xlink:href="#SVGID_1_" overflow="visible"/></clipPath><circle class="st2" cx="-208.2" cy="381.3" r="6.2"/></g><path class="st3" d="M-228.6 425.6c-.2 0-.4-.1-.6-.2-.9-.7-22.5-16.3-28.7-33.3-2-5.7-1.4-11.5 1.8-16.1 3.1-4.4 8.1-7 13.4-7 3.6 0 8.9 1.2 14 6.6 5.2-5.4 10.5-6.6 14-6.6 5.3 0 10.3 2.6 13.3 7 3.2 4.6 3.9 10.4 1.8 16.1-6.1 17-27.7 32.7-28.7 33.3 0 .2-.2.2-.3.2zm-14.1-54.6c-4.7 0-9.1 2.3-11.8 6.2-2.8 4.1-3.4 9.3-1.6 14.4 5.4 15 24 29.4 27.4 32 3.5-2.6 22-17.1 27.4-32 1.8-5.1 1.2-10.3-1.6-14.4-2.7-3.9-7.1-6.2-11.8-6.2-3.4 0-8.4 1.2-13.3 6.7-.4.4-1.1.4-1.4 0-4.9-5.6-9.9-6.7-13.3-6.7z"/><path class="st3" d="M-246.5 396.4h3.1l2.5-7.3c.1-.5.8-.8 1.2-.6.3.1.6.3.6.8l2.7 11.7 2.4-9.2c.1-.5.6-.8 1.2-.8.3.1.6.3.8.8l1.6 4.4h3.9v1.9h-4.6c-.3 0-.8-.3-.8-.6l-.8-2.2-2.6 10c-.1.3-.3.6-.8.8-.5.1-1-.3-1.1-.8l-2.8-12.4-1.6 4.7c-.1.3-.5.6-.8.6h-3.8c-.3.2-.3-1.8-.3-1.8z"/><path class="st3" d="M-262.1 396.3h3.8c.3 0 .7.3.8.6l1.6 4.7 2.8-12.4c.1-.5.6-.9 1.1-.8.4.1.6.4.8.8l2.6 10 .8-2.2c.1-.3.5-.6.8-.6h4.6v1.9h-3.9l-1.6 4.4c-.1.4-.4.6-.8.8-.6.1-1.1-.3-1.2-.8l-2.4-9.2-2.7 11.7c0 .4-.3.6-.6.8-.5.1-1.1-.1-1.2-.6l-2.5-7.3h-3.1c0 .2 0-1.8.3-1.8zm67.2 1.9h-3.1l-2.5 7.3c-.1.5-.8.8-1.2.6-.3-.1-.6-.3-.6-.8l-2.7-11.7-2.4 9.2c-.1.5-.6.8-1.2.8-.3-.1-.6-.3-.8-.8l-1.6-4.4h-3.9v-1.9h4.6c.3 0 .8.3.8.6l.8 2.2 2.6-10c.1-.3.3-.6.8-.8.5-.1 1 .3 1.1.8l2.8 12.4 1.6-4.7c.1-.3.5-.6.8-.6h3.8c.3-.1.3 1.8.3 1.8z"/><path class="st3" d="M-230.6 396.3h3.8c.3 0 .7.3.8.6l1.6 4.7 2.8-12.4c.1-.5.6-.9 1.1-.8.4.1.6.4.8.8l2.6 10 .8-2.2c.1-.3.5-.6.8-.6h4.6v1.9h-3.9l-1.6 4.4c-.1.4-.4.6-.8.8-.6.1-1.1-.3-1.2-.8l-2.4-9.2-2.7 11.7c0 .4-.3.6-.6.8-.5.1-1.1-.1-1.2-.6l-2.5-7.3h-3.1c-.1.2-.1-1.8.3-1.8z"/></svg>