<?xml version="1.0" encoding="utf-8"?>
<!-- Generator: Adobe Illustrator 19.2.1, SVG Export Plug-In . SVG Version: 6.00 Build 0)  -->
<svg version="1.1" id="Layer_1" xmlns="http://www.w3.org/2000/svg" xmlns:xlink="http://www.w3.org/1999/xlink" x="0px" y="0px"
	 viewBox="0 0 432.6 426" style="enable-background:new 0 0 432.6 426;" xml:space="preserve">
<style type="text/css">
	.st0{fill:#C3DA99;}
	.st1{fill:#0061A6;}
	.st2{fill:#658AC7;}
	.st3{fill:#354B54;}
	.st4{fill:#FFFFFF;}
	.st5{fill:#FCC200;}
	.st6{fill:#14252C;}
	.st7{fill:#4B606A;}
	.st8{fill:#C6C19C;}
	.st9{fill:#E74249;}
	.st10{fill:#F3A6AF;}
	.st11{fill:#88B3E0;}
	.st12{fill:#006633;}
	.st13{fill:#4CAF5B;}
	.st14{fill:#C8D2D8;}
	.st15{fill:#657A83;}
	.st16{fill:#94A5B0;}
	.st17{enable-background:new    ;}
	.st18{fill:#4DAF5B;}
	.st19{fill:#F29100;}
</style>
<g>
	<g>
		<g>
			<polygon class="st0" points="38.2,30.2 32.4,24.4 2.8,41.5 2.8,187.2 88.7,137.6 88.7,1 			"/>
			<g>
				<path class="st1" d="M44.4,37.1l-33,19v39.1l2.1-1.2c0.6-2.4,1.8-4.9,3.5-6.9l7.3-8.7l0-0.9c-2.4,0.2-4.2-1-5-3.4
					c-0.1,0.1-0.3,0.2-0.4,0.3c-1.1,0.7-2.1,0.1-2.1-1.2c0-1.3,0.9-2.9,2-3.5l0-4.2c0-5.7,4-12.6,8.9-15.4c4.9-2.8,8.9-0.6,9,5.1
					l0,4.2c1.1-0.7,2.1-0.1,2.1,1.2c0,1.3-0.9,2.9-2,3.5c-0.1,0.1-0.3,0.2-0.4,0.2c-0.8,3.3-2.6,6.7-5,9.2l0,0.9l7.4,0.2
					c1.7,0,3,1.1,3.6,2.8l2.1-1.2V37.1z"/>
				<path class="st2" d="M38.7,74.6l-7.4-0.2l0-0.9c2.4-2.5,4.2-5.9,5-9.2c0.1,0,0.3-0.1,0.4-0.2c1.1-0.7,2-2.2,2-3.5
					c0-1.3-0.9-1.8-2.1-1.2l0-4.2c0-5.7-4-8-9-5.1c-4.9,2.8-8.9,9.8-8.9,15.4l0,4.2c-1.1,0.7-2,2.2-2,3.5c0,1.3,0.9,1.8,2.1,1.2
					c0.2-0.1,0.3-0.2,0.4-0.3c0.8,2.4,2.7,3.6,5,3.4l0,0.9L17,87.2c-1.7,2-3,4.5-3.5,6.9l28.8-16.6C41.7,75.7,40.5,74.7,38.7,74.6z"
					/>
			</g>
			<g>
				<g>
					<polygon class="st3" points="11.4,130.1 38.7,114.3 38.7,111.6 11.4,127.4 					"/>
					<polygon class="st3" points="11.4,137.2 38.7,121.5 38.7,118.8 11.4,134.5 					"/>
					<polygon class="st3" points="11.4,144.4 38.7,128.6 38.7,125.9 11.4,141.7 					"/>
					<polygon class="st3" points="11.4,122.9 38.7,107.2 38.7,104.4 11.4,120.2 					"/>
					<polygon class="st3" points="11.4,115.8 38.7,100 38.7,97.3 11.4,113.1 					"/>
					<polygon class="st3" points="11.4,151.5 26.1,143 26.1,140.3 11.4,148.8 					"/>
				</g>
			</g>
		</g>
		<g>
			<g>
				<polygon class="st4" points="51.8,57.2 79.1,41.5 79.1,38.8 51.8,54.5 				"/>
				<polygon class="st4" points="51.8,64.4 79.1,48.6 79.1,45.9 51.8,61.7 				"/>
				<polygon class="st4" points="51.8,41.5 79.1,25.7 79.1,17.3 51.8,33.1 				"/>
				<polygon class="st4" points="51.8,71.5 66.5,63 66.5,60.3 51.8,68.8 				"/>
			</g>
		</g>
	</g>
	<g>
		<g>
			<polygon class="st5" points="76.6,52.6 70.9,46.8 41.2,63.9 41.2,209.6 127.1,160 127.1,23.4 			"/>
			<g>
				<path class="st6" d="M82.8,59.5l-33,19v39.1l2.1-1.2c0.6-2.4,1.8-4.9,3.5-6.9l7.3-8.7l0-0.9c-2.4,0.2-4.2-1-5-3.4
					c-0.1,0.1-0.3,0.2-0.4,0.3c-1.1,0.7-2.1,0.1-2.1-1.2c0-1.3,0.9-2.9,2-3.5l0-4.2c0-5.7,4-12.6,8.9-15.4c4.9-2.8,8.9-0.6,9,5.1
					l0,4.2c1.1-0.7,2.1-0.1,2.1,1.2c0,1.3-0.9,2.9-2,3.5c-0.1,0.1-0.3,0.2-0.4,0.2c-0.8,3.3-2.6,6.7-5,9.2l0,0.9l7.4,0.2
					c1.7,0,3,1.1,3.6,2.8l2.1-1.2V59.5z"/>
				<path class="st7" d="M77.2,97l-7.4-0.2l0-0.9c2.4-2.5,4.2-5.9,5-9.2c0.1,0,0.3-0.1,0.4-0.2c1.1-0.7,2-2.2,2-3.5
					c0-1.3-0.9-1.8-2.1-1.2l0-4.2c0-5.7-4-8-9-5.1c-4.9,2.8-8.9,9.8-8.9,15.4l0,4.2c-1.1,0.7-2,2.2-2,3.5c0,1.3,0.9,1.8,2.1,1.2
					c0.2-0.1,0.3-0.2,0.4-0.3c0.8,2.4,2.7,3.6,5,3.4l0,0.9l-7.3,8.7c-1.7,2-3,4.5-3.5,6.9l28.8-16.6C80.1,98.1,78.9,97,77.2,97z"/>
			</g>
			<g>
				<g>
					<polygon class="st3" points="49.9,152.5 77.2,136.7 77.2,134 49.9,149.7 					"/>
					<polygon class="st3" points="49.9,159.6 77.2,143.8 77.2,141.1 49.9,156.9 					"/>
					<polygon class="st3" points="49.9,166.8 77.2,151 77.2,148.3 49.9,164 					"/>
					<polygon class="st3" points="49.9,145.3 77.2,129.5 77.2,126.8 49.9,142.6 					"/>
					<polygon class="st3" points="49.9,138.1 77.2,122.4 77.2,119.7 49.9,135.4 					"/>
					<polygon class="st3" points="49.9,173.9 64.6,165.4 64.6,162.7 49.9,171.2 					"/>
				</g>
			</g>
		</g>
		<g>
			<g>
				<polygon class="st4" points="90.2,79.6 117.5,63.8 117.5,61.1 90.2,76.9 				"/>
				<polygon class="st4" points="90.2,86.8 117.5,71 117.5,68.3 90.2,84.1 				"/>
				<polygon class="st4" points="90.2,63.8 117.5,48.1 117.5,39.7 90.2,55.4 				"/>
				<polygon class="st4" points="90.2,93.9 104.9,85.4 104.9,82.7 90.2,91.2 				"/>
			</g>
		</g>
	</g>
	<g>
		<g>
			<polygon class="st8" points="115,74.9 109.3,69.2 79.7,86.3 79.7,232 165.6,182.4 165.6,45.8 			"/>
			<g>
				<path class="st9" d="M121.3,81.9l-33,19V140l2.1-1.2c0.6-2.4,1.8-4.9,3.5-6.9l7.3-8.7l0-0.9c-2.4,0.2-4.2-1-5-3.4
					c-0.1,0.1-0.3,0.2-0.4,0.3c-1.1,0.7-2.1,0.1-2.1-1.2c0-1.3,0.9-2.9,2-3.5l0-4.2c0-5.7,4-12.6,8.9-15.4c4.9-2.8,8.9-0.6,9,5.1
					l0,4.2c1.1-0.7,2.1-0.1,2.1,1.2c0,1.3-0.9,2.9-2,3.5c-0.1,0.1-0.3,0.2-0.4,0.2c-0.8,3.3-2.6,6.7-5,9.2l0,0.9l7.4,0.2
					c1.7,0,3,1.1,3.6,2.8l2.1-1.2V81.9z"/>
				<path class="st10" d="M115.6,119.4l-7.4-0.2l0-0.9c2.4-2.5,4.2-5.9,5-9.2c0.1,0,0.3-0.1,0.4-0.2c1.1-0.7,2-2.2,2-3.5
					c0-1.3-0.9-1.8-2.1-1.2l0-4.2c0-5.7-4-8-9-5.1c-4.9,2.8-8.9,9.8-8.9,15.4l0,4.2c-1.1,0.7-2,2.2-2,3.5c0,1.3,0.9,1.8,2.1,1.2
					c0.2-0.1,0.3-0.2,0.4-0.3c0.8,2.4,2.7,3.6,5,3.4l0,0.9l-7.3,8.7c-1.7,2-3,4.5-3.5,6.9l28.8-16.6
					C118.6,120.5,117.3,119.4,115.6,119.4z"/>
			</g>
			<g>
				<g>
					<polygon class="st3" points="88.3,174.8 115.6,159.1 115.6,156.4 88.3,172.1 					"/>
					<polygon class="st3" points="88.3,182 115.6,166.2 115.6,163.5 88.3,179.3 					"/>
					<polygon class="st3" points="88.3,189.1 115.6,173.4 115.6,170.7 88.3,186.4 					"/>
					<polygon class="st3" points="88.3,167.7 115.6,151.9 115.6,149.2 88.3,165 					"/>
					<polygon class="st3" points="88.3,160.5 115.6,144.8 115.6,142.1 88.3,157.8 					"/>
					<polygon class="st3" points="88.3,196.3 103,187.8 103,185.1 88.3,193.6 					"/>
				</g>
			</g>
		</g>
		<g>
			<g>
				<polygon class="st4" points="128.6,102 155.9,86.2 155.9,83.5 128.6,99.3 				"/>
				<polygon class="st4" points="128.6,109.1 155.9,93.4 155.9,90.7 128.6,106.4 				"/>
				<polygon class="st4" points="128.6,86.2 155.9,70.5 155.9,62.1 128.6,77.8 				"/>
				<polygon class="st4" points="128.6,116.3 143.4,107.8 143.4,105.1 128.6,113.6 				"/>
			</g>
		</g>
	</g>
	<g>
		<g>
			<polygon class="st11" points="153.5,97.3 147.7,91.6 118.1,108.7 118.1,254.4 204,204.8 204,68.1 			"/>
			<g>
				<path class="st12" d="M159.7,104.2l-33,19v39.1l2.1-1.2c0.6-2.4,1.8-4.9,3.5-6.9l7.3-8.7l0-0.9c-2.4,0.2-4.2-1-5-3.4
					c-0.1,0.1-0.3,0.2-0.4,0.3c-1.1,0.7-2.1,0.1-2.1-1.2c0-1.3,0.9-2.9,2-3.5l0-4.2c0-5.7,4-12.6,8.9-15.4c4.9-2.8,8.9-0.6,9,5.1
					l0,4.2c1.1-0.7,2.1-0.1,2.1,1.2c0,1.3-0.9,2.9-2,3.5c-0.1,0.1-0.3,0.2-0.4,0.2c-0.8,3.3-2.6,6.7-5,9.2l0,0.9l7.4,0.2
					c1.7,0,3,1.1,3.6,2.8l2.1-1.2V104.2z"/>
				<path class="st13" d="M154,141.8l-7.4-0.2l0-0.9c2.4-2.5,4.2-5.9,5-9.2c0.1,0,0.3-0.1,0.4-0.2c1.1-0.7,2-2.2,2-3.5
					c0-1.3-0.9-1.8-2.1-1.2l0-4.2c0-5.7-4-8-9-5.1c-4.9,2.8-8.9,9.8-8.9,15.4l0,4.2c-1.1,0.7-2,2.2-2,3.5c0,1.3,0.9,1.8,2.1,1.2
					c0.2-0.1,0.3-0.2,0.4-0.3c0.8,2.4,2.7,3.6,5,3.4l0,0.9l-7.3,8.7c-1.7,2-3,4.5-3.5,6.9l28.8-16.6
					C157,142.9,155.7,141.8,154,141.8z"/>
			</g>
			<g>
				<g>
					<polygon class="st3" points="126.7,197.2 154,181.5 154,178.7 126.7,194.5 					"/>
					<polygon class="st3" points="126.7,204.4 154,188.6 154,185.9 126.7,201.7 					"/>
					<polygon class="st3" points="126.7,211.5 154,195.8 154,193 126.7,208.8 					"/>
					<polygon class="st3" points="126.7,190.1 154,174.3 154,171.6 126.7,187.4 					"/>
					<polygon class="st3" points="126.7,182.9 154,167.1 154,164.4 126.7,180.2 					"/>
					<polygon class="st3" points="126.7,218.7 141.4,210.2 141.4,207.5 126.7,216 					"/>
				</g>
			</g>
		</g>
		<g>
			<g>
				<polygon class="st4" points="167.1,124.4 194.4,108.6 194.4,105.9 167.1,121.7 				"/>
				<polygon class="st4" points="167.1,131.5 194.4,115.8 194.4,113.1 167.1,128.8 				"/>
				<polygon class="st4" points="167.1,108.6 194.4,92.8 194.4,84.4 167.1,100.2 				"/>
				<polygon class="st4" points="167.1,138.7 181.8,130.2 181.8,127.5 167.1,136 				"/>
			</g>
		</g>
	</g>
	<polygon class="st14" points="204.6,230.5 204.6,346.1 103.9,288 103.9,172.4 	"/>
	<polygon class="st4" points="103.9,172.4 237.7,94.7 338.3,152.8 204.6,230.5 	"/>
	<path class="st15" d="M324.3,276.5v-99.4L238.4,227L324.3,276.5z"/>
	<polygon class="st14" points="199.7,169.6 168.1,151.3 131.8,172.3 204.5,214.3 234.1,197.1 199.7,177.3 	"/>
	<path class="st14" d="M100.5,132.8c0.9-0.5,2.2-0.5,3.6,0.3l80.8,46.7c1.4,0.8,2.7,2.3,3.6,3.9l-6.1,3.5c-0.9-1.6-2.2-3.1-3.6-3.9
		l-80.8-46.7c-1.4-0.8-2.7-0.9-3.6-0.3L100.5,132.8z"/>
	<path class="st15" d="M189.8,188.5l-0.3,92.9c0,1.6-0.6,2.7-1.5,3.2l-6.1,3.5c0.9-0.5,1.5-1.6,1.5-3.2l0.3-92.9
		c0-1.5-0.5-3.2-1.4-4.7l6.1-3.5C189.3,185.3,189.9,186.9,189.8,188.5z"/>
	<g>
		<path class="st16" d="M92.6,232.4c0,3.2,2.2,7.1,5,8.7l80.8,46.7c2.8,1.6,5,0.3,5-2.9l0.1-18l-90.8-52.4L92.6,232.4z"/>
		<path class="st6" d="M178.7,183.4l-80.8-46.7c-2.8-1.6-5-0.3-5,2.9l-0.2,74.9l90.8,52.4l0.2-74.9
			C183.8,188.8,181.5,184.9,178.7,183.4z"/>
	</g>
	<g>
		<polygon class="st3" points="114.8,154.5 99.8,163.2 99.8,191.3 139,168.5 		"/>
		<polygon class="st3" points="99.7,208.6 153.9,177.1 145.3,172.1 99.7,198.6 		"/>
	</g>
	<g>
		<polygon class="st16" points="169.5,306.3 169.4,325.8 174.7,328.9 174.7,311.8 190.6,302.7 204.6,310.8 204.6,304.7 188.5,295.5 
					"/>
		<polygon class="st15" points="218.6,296.7 204.6,304.7 204.6,310.8 218.6,302.7 		"/>
	</g>
	<g>
		<g class="st17">
			<g>
				<path class="st15" d="M190.4,315c3.5,2,6.4,7,6.4,11c0,4-2.9,5.7-6.4,3.6c-3.5-2-6.4-7-6.4-11S186.9,313,190.4,315z"/>
			</g>
		</g>
	</g>
	<g>
		<g class="st17">
			<g>
				<path class="st4" d="M148.2,278.4c1.7,1,3.1,3.4,3.1,5.4c0,2-1.4,2.8-3.1,1.8s-3.1-3.4-3.1-5.4
					C145.1,278.2,146.5,277.4,148.2,278.4z"/>
			</g>
		</g>
	</g>
	<g>
		<g class="st17">
			<g>
				<path class="st4" d="M160.3,285.3c1.7,1,3.1,3.4,3.1,5.4c0,2-1.4,2.8-3.1,1.8c-1.7-1-3.1-3.4-3.1-5.4
					C157.1,285.1,158.5,284.3,160.3,285.3z"/>
			</g>
		</g>
	</g>
	<g>
		<polygon class="st16" points="310.3,169 310.3,185.2 315.9,182 315.9,165.8 		"/>
		<polygon class="st16" points="324.3,160.9 324.3,177.1 324.3,276.5 338.3,268.4 338.3,152.8 		"/>
		<polygon class="st16" points="204.6,230.5 204.6,346.1 218.6,338 218.6,238.5 301.9,190.1 301.9,173.9 		"/>
		<polygon class="st3" points="315.9,165.8 315.9,182 324.3,177.1 324.3,160.9 		"/>
		<polygon class="st3" points="301.9,173.9 301.9,190.1 310.3,185.2 310.3,169 		"/>
	</g>
	<g>
		<g>
			<polygon class="st18" points="152.5,234.2 152.5,240.7 147.1,237.6 147.1,231.1 			"/>
		</g>
		<g>
			<polygon class="st3" points="159.3,238.1 159.2,244.6 153.9,241.5 153.9,235 			"/>
		</g>
		<g>
			<polygon class="st18" points="145.7,230.3 145.7,236.8 140.3,233.7 140.4,227.2 			"/>
		</g>
		<g>
			<polygon class="st18" points="138.9,226.4 138.9,232.9 133.6,229.8 133.6,223.3 			"/>
		</g>
		<g>
			<path class="st3" d="M170,244.3c1.6,0.9,2.8,3.1,2.8,4.9c0,1.8-1.3,2.5-2.8,1.6l-2.5-1.5l0-6.5L170,244.3z"/>
		</g>
		<g>
			<path class="st18" d="M132.2,222.5l0,6.5l-2.5-1.5c-1.6-0.9-2.8-3.1-2.8-4.9c0-1.8,1.3-2.5,2.8-1.6L132.2,222.5z"/>
		</g>
		<g>
			<polygon class="st3" points="166,242 166,248.5 160.7,245.4 160.7,238.9 			"/>
		</g>
	</g>
	<polygon class="st3" points="123.9,264.9 123.9,281.1 115.5,276.3 115.5,260.1 	"/>
	<polygon class="st3" points="137.9,273.1 137.9,289.3 129.5,284.4 129.5,268.2 	"/>
	<g>
		<path class="st14" d="M280.8,148.8c0,2.6,1.7,5.2,5.1,7.2c6.8,3.9,17.9,3.9,24.8,0c3.4-2,5.1-4.6,5.2-7.1c0-2.6-1.8-5.2-5.2-7.1
			c-6.9-4-18-4-24.8,0C282.5,143.6,280.8,146.2,280.8,148.8z"/>
		<path class="st19" d="M298.4,112.2c-8,0-14.4,6.4-14.4,14.4v18.1c0,2.1,1.4,4.3,4.2,5.9c5.6,3.2,14.7,3.2,20.4,0
			c2.8-1.6,4.2-3.7,4.2-5.9v-18.1C312.8,118.6,306.3,112.2,298.4,112.2z"/>
		<path class="st5" d="M298.4,126.6c0-3.6,2-6.8,4.9-8.5c-1.4-0.8-3.1-1.4-4.9-1.4c-5.4,0-9.8,4.4-9.8,9.8c0,5.4,4.4,9.8,9.8,9.8
			V126.6z"/>
	</g>
	<g>
		<path class="st15" d="M231.1,108.7c0,1,0.6,1.9,1.9,2.7c2.5,1.5,6.7,1.5,9.2,0c1.3-0.7,1.9-1.7,1.9-2.7c0-1-0.7-1.9-1.9-2.7
			c-2.6-1.5-6.7-1.5-9.2,0C231.8,106.7,231.1,107.7,231.1,108.7z"/>
		<path class="st15" d="M216.2,117.3c0,1,0.6,1.9,1.9,2.7c2.5,1.5,6.7,1.5,9.2,0c1.3-0.7,1.9-1.7,1.9-2.7c0-1-0.7-1.9-1.9-2.7
			c-2.6-1.5-6.7-1.5-9.2,0C216.8,115.4,216.2,116.4,216.2,117.3z"/>
		<path class="st15" d="M201.3,126c0,1,0.6,1.9,1.9,2.7c2.5,1.5,6.7,1.5,9.2,0c1.3-0.7,1.9-1.7,1.9-2.7c0-1-0.7-1.9-1.9-2.7
			c-2.6-1.5-6.7-1.5-9.2,0C201.9,124.1,201.3,125.1,201.3,126z"/>
	</g>
	<g>
		<path class="st4" d="M289.9,210.5c-0.9-0.5-2.2-0.5-3.6,0.3l-50.3,29c-1.4,0.8-2.7,2.3-3.6,3.9l6.1,3.5c0.9-1.6,2.2-3.1,3.6-3.9
			l50.3-29c1.4-0.8,2.7-0.9,3.6-0.3L289.9,210.5z"/>
		<path class="st14" d="M231,248.6l0.3,92.9c0,1.6,0.6,2.7,1.5,3.2l6.1,3.5c-0.9-0.5-1.5-1.6-1.5-3.2l-0.3-92.9
			c0-1.5,0.5-3.2,1.4-4.7l-6.1-3.5C231.5,245.3,231,247,231,248.6z"/>
		<path class="st16" d="M297.4,217.3c0-3.2-2.3-4.5-5-2.9l-50.3,29c-2.8,1.6-5,5.5-5,8.7l0.3,92.9c0,3.2,2.3,4.5,5,2.9l50.3-29
			c2.8-1.6,5-5.5,5-8.7L297.4,217.3z"/>
		<path class="st6" d="M244.1,252.1c0-0.7,0.9-2.2,1.5-2.6l44.9-25.9l0.2,86.5c0,0.7-0.9,2.2-1.5,2.6l-44.9,25.9L244.1,252.1z"/>
	</g>
	<g>
		<path class="st4" d="M267.4,263.2l-7.7-10.5c-4.4,5.6-7.4,12.8-7.4,19.2c0,9.6,6.8,13.4,15.1,8.6c6.1-3.5,11.3-10.6,13.6-17.9
			L267.4,263.2z"/>
		<g>
			<path class="st19" d="M267.4,245.9v17.3l13.7-0.6c0.9-2.7,1.4-5.5,1.4-8.1C282.4,245,275.7,241.1,267.4,245.9z"/>
			<path class="st15" d="M267.4,245.9c-2.8,1.6-5.4,4-7.6,6.8l7.7,10.5L267.4,245.9C267.4,245.9,267.4,245.9,267.4,245.9z"/>
		</g>
	</g>
	<g>
		<polygon class="st4" points="252.3,308.9 272.1,297.5 272.1,295.5 252.3,306.9 		"/>
		<polygon class="st4" points="252.3,314.1 272.1,302.6 272.1,300.7 252.3,312.1 		"/>
		<polygon class="st4" points="252.3,319.3 272.1,307.8 272.1,305.9 252.3,317.3 		"/>
		<polygon class="st4" points="252.3,303.7 272.1,292.3 272.1,290.3 252.3,301.7 		"/>
		<polygon class="st4" points="252.3,298.5 272.1,287.1 272.1,285.1 252.3,296.5 		"/>
		<polygon class="st4" points="252.3,324.5 263,318.3 263,316.3 252.3,322.5 		"/>
	</g>
	<g>
		<path class="st4" d="M334.5,236.4c-0.9-0.5-2.2-0.5-3.6,0.3l-50.3,29c-1.4,0.8-2.7,2.3-3.6,3.9l6.1,3.5c0.9-1.6,2.2-3.1,3.6-3.9
			l50.3-29c1.4-0.8,2.7-0.9,3.6-0.3L334.5,236.4z"/>
		<path class="st14" d="M275.6,274.5l0.3,92.9c0,1.6,0.6,2.7,1.5,3.2l6.1,3.5c-0.9-0.5-1.5-1.6-1.5-3.2l-0.3-92.9
			c0-1.5,0.5-3.2,1.4-4.7l-6.1-3.5C276.2,271.3,275.6,272.9,275.6,274.5z"/>
		<path class="st16" d="M342.1,243.2c0-3.2-2.3-4.5-5-2.9l-50.3,29c-2.8,1.6-5,5.5-5,8.7l0.3,92.9c0,3.2,2.3,4.5,5,2.9l50.3-29
			c2.8-1.6,5-5.5,5-8.7L342.1,243.2z"/>
		<path class="st6" d="M288.7,278c0-0.7,0.9-2.2,1.5-2.6l44.9-25.9l0.2,86.5c0,0.7-0.9,2.2-1.5,2.6L289,364.5L288.7,278z"/>
	</g>
	<g>
		<path class="st4" d="M324.2,271.9L312,290.3v-18.5c0,0,0,0,0,0c-8.3,4.8-15,16.5-15,26c0,9.6,6.8,13.4,15.1,8.6
			c8.3-4.8,15-16.4,15-26C327.1,276.6,326,273.7,324.2,271.9z"/>
		<path class="st2" d="M324.2,271.9c-2.7-2.7-7.2-3-12.1-0.1v18.5L324.2,271.9z"/>
	</g>
	<g>
		<polygon class="st4" points="297,334.8 316.8,323.4 316.8,321.4 297,332.8 		"/>
		<polygon class="st4" points="297,340 316.8,328.6 316.8,326.6 297,338 		"/>
		<polygon class="st4" points="297,345.2 316.8,333.7 316.8,331.8 297,343.2 		"/>
		<polygon class="st4" points="297,329.6 316.8,318.2 316.8,316.2 297,327.6 		"/>
		<polygon class="st4" points="297,324.4 316.8,313 316.8,311 297,322.5 		"/>
		<polygon class="st4" points="297,350.4 307.6,344.2 307.6,342.2 297,348.4 		"/>
	</g>
	<g>
		<path class="st4" d="M379.1,262.3c-0.9-0.5-2.2-0.5-3.6,0.3l-50.3,29c-1.4,0.8-2.7,2.3-3.6,3.9l6.1,3.5c0.9-1.6,2.2-3.1,3.6-3.9
			l50.3-29c1.4-0.8,2.7-0.9,3.6-0.3L379.1,262.3z"/>
		<path class="st14" d="M320.3,300.4l0.3,92.9c0,1.6,0.6,2.7,1.5,3.2l6.1,3.5c-0.9-0.5-1.5-1.6-1.5-3.2l-0.3-92.9
			c0-1.5,0.5-3.2,1.4-4.7l-6.1-3.5C320.8,297.2,320.2,298.8,320.3,300.4z"/>
		<path class="st16" d="M386.7,269.1c0-3.2-2.3-4.5-5-2.9l-50.3,29c-2.8,1.6-5,5.5-5,8.7l0.3,92.9c0,3.2,2.3,4.5,5,2.9l50.3-29
			c2.8-1.6,5-5.5,5-8.7L386.7,269.1z"/>
		<path class="st6" d="M333.4,303.9c0-0.7,0.9-2.2,1.5-2.6l44.9-25.9L380,362c0,0.7-0.9,2.2-1.5,2.6l-44.9,25.9L333.4,303.9z"/>
	</g>
	<g>
		<path class="st4" d="M356.7,297.7C356.6,297.7,356.6,297.7,356.7,297.7c-8.4,4.8-15.1,16.5-15.1,26c0,9.6,6.8,13.4,15.1,8.6
			c3.9-2.2,7.4-6,10.1-10.3l-10.1-5.8V297.7z"/>
		<g>
			<path class="st8" d="M371.7,306.3c0-9.5-6.8-13.4-15.1-8.6v18.5h13C371,312.9,371.7,309.5,371.7,306.3z"/>
			<path class="st9" d="M369.7,316.2h-13l10.1,5.8C367.9,320.2,368.9,318.2,369.7,316.2z"/>
		</g>
	</g>
	<g>
		<polygon class="st4" points="341.6,360.7 361.4,349.3 361.4,347.3 341.6,358.7 		"/>
		<polygon class="st4" points="341.6,365.9 361.4,354.5 361.4,352.5 341.6,363.9 		"/>
		<polygon class="st4" points="341.6,371.1 361.4,359.7 361.4,357.7 341.6,369.1 		"/>
		<polygon class="st4" points="341.6,355.5 361.4,344.1 361.4,342.1 341.6,353.6 		"/>
		<polygon class="st4" points="341.6,350.3 361.4,338.9 361.4,336.9 341.6,348.4 		"/>
		<polygon class="st4" points="341.6,376.3 352.3,370.1 352.3,368.1 341.6,374.3 		"/>
	</g>
	<g>
		<path class="st4" d="M423.7,288.2c-0.9-0.5-2.2-0.5-3.6,0.3l-50.3,29c-1.4,0.8-2.7,2.3-3.6,3.9l6.1,3.5c0.9-1.6,2.2-3.1,3.6-3.9
			l50.3-29c1.4-0.8,2.7-0.9,3.6-0.3L423.7,288.2z"/>
		<path class="st14" d="M364.9,326.3l0.3,92.9c0,1.6,0.6,2.7,1.5,3.2l6.1,3.5c-0.9-0.5-1.5-1.6-1.5-3.2l-0.3-92.9
			c0-1.5,0.5-3.2,1.4-4.7l-6.1-3.5C365.4,323.1,364.9,324.8,364.9,326.3z"/>
		<path class="st16" d="M431.3,295c0-3.2-2.3-4.5-5-2.9l-50.3,29c-2.8,1.6-5,5.5-5,8.7l0.3,92.9c0,3.2,2.3,4.5,5,2.9l50.3-29
			c2.8-1.6,5-5.5,5-8.7L431.3,295z"/>
		<path class="st6" d="M378,329.8c0-0.7,0.9-2.2,1.5-2.6l44.9-25.9l0.2,86.5c0,0.7-0.9,2.2-1.5,2.6l-44.9,25.9L378,329.8z"/>
	</g>
	<g>
		<polygon class="st4" points="386.2,386.6 406,375.2 406,373.2 386.2,384.7 		"/>
		<polygon class="st4" points="386.2,391.8 406,380.4 406,378.4 386.2,389.8 		"/>
		<polygon class="st4" points="386.2,397 406,385.6 406,383.6 386.2,395 		"/>
		<polygon class="st4" points="386.2,381.4 406,370 406,368 386.2,379.5 		"/>
		<polygon class="st4" points="386.2,376.2 406,364.8 406,362.8 386.2,374.3 		"/>
		<polygon class="st4" points="386.2,402.2 396.9,396 396.9,394.1 386.2,400.2 		"/>
	</g>
	<path class="st9" d="M401.3,323.6v18.5l14.5-4.7c0.4-1.8,0.6-3.5,0.6-5.2C416.3,322.7,409.6,318.8,401.3,323.6z"/>
	<path class="st4" d="M401.3,323.6C401.3,323.6,401.2,323.6,401.3,323.6c-8.4,4.8-15.1,16.5-15.1,26c0,7.3,4,11.3,9.6,10.6l5.5-18.1
		V323.6z"/>
	<path class="st5" d="M415.8,337.4l-14.5,4.7l-5.5,18.1c1.7-0.2,3.6-0.8,5.5-2C408.2,354.3,413.9,345.7,415.8,337.4z"/>
</g>
</svg>
