<?xml version="1.0" encoding="UTF-8" standalone="no"?>
<!-- Created with Inkscape (http://www.inkscape.org/) -->

<svg
   xmlns:dc="http://purl.org/dc/elements/1.1/"
   xmlns:cc="http://creativecommons.org/ns#"
   xmlns:rdf="http://www.w3.org/1999/02/22-rdf-syntax-ns#"
   xmlns:svg="http://www.w3.org/2000/svg"
   xmlns="http://www.w3.org/2000/svg"
   xmlns:sodipodi="http://sodipodi.sourceforge.net/DTD/sodipodi-0.dtd"
   xmlns:inkscape="http://www.inkscape.org/namespaces/inkscape"
   width="293.39999"
   height="127.70343"
   viewBox="0 0 77.628746 33.788201"
   version="1.1"
   id="svg8"
   inkscape:version="0.92.0 r15299"
   sodipodi:docname="health dash.svg">
  <defs
     id="defs2" />
  <sodipodi:namedview
     id="base"
     pagecolor="#ffffff"
     bordercolor="#666666"
     borderopacity="1.0"
     inkscape:pageopacity="0.0"
     inkscape:pageshadow="2"
     inkscape:zoom="1.4"
     inkscape:cx="-6.6365608"
     inkscape:cy="37.769935"
     inkscape:document-units="px"
     inkscape:current-layer="layer1"
     showgrid="false"
     units="px"
     inkscape:window-width="1920"
     inkscape:window-height="1017"
     inkscape:window-x="-8"
     inkscape:window-y="-8"
     inkscape:window-maximized="1"
     fit-margin-top="0"
     fit-margin-left="0"
     fit-margin-right="0"
     fit-margin-bottom="0" />
  <metadata
     id="metadata5">
    <rdf:RDF>
      <cc:Work
         rdf:about="">
        <dc:format>image/svg+xml</dc:format>
        <dc:type
           rdf:resource="http://purl.org/dc/dcmitype/StillImage" />
        <dc:title></dc:title>
      </cc:Work>
    </rdf:RDF>
  </metadata>
  <g
     inkscape:label="Layer 1"
     inkscape:groupmode="layer"
     id="layer1"
     transform="translate(-14.669256,-223.31223)">
    <g
       id="g30"
       transform="matrix(0.42327564,0,0,0.42327564,-21.309173,217.69347)"
       style="stroke-width:0.62508523">
      <g
         id="g22"
         style="stroke-width:0.62508523">
        <path
           style="fill:#d4e5f7;stroke-width:0.62508523"
           inkscape:connector-curvature="0"
           id="path4"
           d="m 110.4,44.7 c -6.2,3.6 -11.9,7.5 -16.9,11.5 l -5.8,23 5.8,13.9 c 4.9,-4 10.4,-7.7 16.5,-11.3 l 29.8,-50.6 c -10.4,3.7 -20.3,8.2 -29.4,13.5 z"
           class="st0" />
        <path
           style="fill:#d4e5f7;stroke-width:0.62508523"
           inkscape:connector-curvature="0"
           id="path6"
           d="m 258.1,19 -21.6,35.2 c 8.5,0.3 17,1.1 25.4,2.2 l 5.8,-17.2 -5.8,-19.7 c -1.3,-0.2 -2.5,-0.3 -3.8,-0.5 z"
           class="st0" />
        <path
           style="fill:#d4e5f7;stroke-width:0.62508523"
           inkscape:connector-curvature="0"
           id="path8"
           d="m 149.4,28 -30,48.7 c 2.8,-1.4 5.6,-2.7 8.5,-4 l 27.3,-46.5 c -2,0.7 -3.9,1.2 -5.8,1.8 z"
           class="st0" />
        <path
           style="fill:#d4e5f7;stroke-width:0.62508523"
           inkscape:connector-curvature="0"
           id="path10"
           d="m 236.1,17.3 -22.7,36.9 c 2,-0.1 4.1,-0.1 6.1,-0.2 L 241,17.5 c -1.6,-0.1 -3.3,-0.1 -4.9,-0.2 z"
           class="st0" />
        <path
           style="fill:#d4e5f7;stroke-width:0.62508523"
           inkscape:connector-curvature="0"
           id="path12"
           d="m 176.5,21.4 -26.6,43.3 c 17.9,-5.5 37.2,-8.8 56.9,-10.2 l 22,-37.4 c -17.7,-0.2 -35.4,1.3 -52.3,4.3 z"
           class="st0" />
        <path
           style="fill:#eaf2fb;stroke-width:0.62508523"
           inkscape:connector-curvature="0"
           id="path14"
           d="m 155.2,26.3 -27.3,46.5 c 7,-3.1 14.4,-5.8 22,-8.1 l 26.6,-43.3 c -7.3,1.4 -14.4,3 -21.3,4.9 z"
           class="st1" />
        <path
           style="fill:#eaf2fb;stroke-width:0.62508523"
           inkscape:connector-curvature="0"
           id="path16"
           d="m 139.9,31.2 -29.8,50.6 c 0.1,-0.1 0.2,-0.1 0.3,-0.2 2.9,-1.7 5.9,-3.3 9,-4.8 l 30,-48.7 c -3.2,0.9 -6.4,1.9 -9.5,3.1 z"
           class="st1" />
        <path
           style="fill:#eaf2fb;stroke-width:0.62508523"
           inkscape:connector-curvature="0"
           id="path18"
           d="M 241,17.5 219.5,54 c 5.7,-0.1 11.3,-0.1 17,0.1 L 258.1,19 C 252.4,18.3 246.7,17.8 241,17.5 Z"
           class="st1" />
        <path
           style="fill:#eaf2fb;stroke-width:0.62508523"
           inkscape:connector-curvature="0"
           id="path20"
           d="m 228.8,17.1 -22,37.4 c 2.2,-0.1 4.5,-0.3 6.7,-0.4 l 22.7,-36.9 c -2.5,0 -5,0 -7.4,-0.1 z"
           class="st1" />
      </g>
      <polygon
         style="fill:#ffffff;stroke-width:0.62508523"
         id="polygon24"
         points="87.8,79.2 93.6,56.2 90.7,55.2 85,78.2 "
         class="st2" />
      <polygon
         style="fill:#bcd5f0;stroke-width:0.62508523"
         id="polygon26"
         points="87.8,79.2 93.6,93.1 90.7,92.1 85,78.2 "
         class="st3" />
      <polygon
         style="fill:#ffffff;stroke-width:0.62508523"
         id="polygon28"
         points="261.9,19.5 267.6,39.1 268.4,36.9 262.7,17.6 "
         class="st2" />
    </g>
    <path
       style="fill:#c4db9b;stroke-width:0.26458335"
       inkscape:connector-curvature="0"
       id="path32"
       d="m 83.874824,236.10597 c 0.169309,0 0.380948,0.0424 0.550257,0.0424 0.253966,0 0.507931,-0.16933 0.507931,-0.46561 v -3.13224 c 0,-0.2963 -0.211638,-0.55026 -0.550258,-0.59259 -3.30155,-0.25397 -6.645428,-0.38094 -9.989305,-0.33861 v 13.07921 c 3.005257,-0.0424 5.968186,0.0846 8.973444,0.25396 0.296292,0 0.507931,-0.21163 0.507931,-0.4656 z"
       class="st4" />
    <g
       id="g48"
       transform="matrix(0.42327564,0,0,0.42327564,-21.309173,217.69347)"
       style="stroke-width:0.62508523">
      <path
         style="fill:#eaf2fb;stroke-width:0.62508523"
         inkscape:connector-curvature="0"
         id="path34"
         d="m 262.7,17.6 c -1.2,-0.2 -2.5,-0.3 -3.7,-0.5 l -0.9,1.9 c 1.3,0.1 2.5,0.3 3.8,0.5 z"
         class="st1" />
      <path
         style="fill:#ffffff;stroke-width:0.62508523"
         inkscape:connector-curvature="0"
         id="path36"
         d="m 241.9,15.6 -0.9,1.9 v 0 c 5.7,0.3 11.5,0.8 17.2,1.5 l 0.9,-1.9 C 253.3,16.5 247.6,16 241.9,15.6 Z"
         class="st2" />
      <path
         style="fill:#eaf2fb;stroke-width:0.62508523"
         inkscape:connector-curvature="0"
         id="path38"
         d="m 241,17.5 0.9,-1.9 c -1.6,-0.1 -3.3,-0.2 -4.9,-0.2 l -0.8,1.9 v 0 c 1.5,0.1 3.1,0.1 4.8,0.2 z"
         class="st1" />
      <path
         style="fill:#ffffff;stroke-width:0.62508523"
         inkscape:connector-curvature="0"
         id="path40"
         d="m 237,15.4 c -2.5,-0.1 -5,-0.2 -7.4,-0.2 l -0.8,1.9 c 2.5,0 4.9,0.1 7.3,0.2 v 0 z"
         class="st2" />
      <path
         style="fill:#eaf2fb;stroke-width:0.62508523"
         inkscape:connector-curvature="0"
         id="path42"
         d="m 108.1,43.4 c -6.4,3.7 -12.2,7.7 -17.3,11.9 l 2.8,1 c 5,-4 10.6,-7.9 16.9,-11.5 9.1,-5.3 19,-9.8 29.5,-13.6 l -1.3,-1.8 c -11,3.8 -21.2,8.5 -30.6,14 z"
         class="st1" />
      <path
         style="fill:#eaf2fb;stroke-width:0.62508523"
         inkscape:connector-curvature="0"
         id="path44"
         d="m 147.9,26.3 1.4,1.7 v 0 C 174,20.4 201.4,16.8 228.7,17.1 l 0.8,-1.9 c -28,-0.4 -56.2,3.3 -81.6,11.1 z"
         class="st1" />
      <path
         style="fill:#ffffff;stroke-width:0.62508523"
         inkscape:connector-curvature="0"
         id="path46"
         d="m 147.9,26.3 c -3.2,1 -6.3,2 -9.3,3.1 l 1.3,1.8 c 3.1,-1.1 6.3,-2.2 9.5,-3.1 v 0 z"
         class="st2" />
    </g>
    <g
       id="g82"
       transform="matrix(0.42327564,0,0,0.42327564,-20.124002,217.65115)"
       style="stroke-width:0.62508523">
      <path
         style="fill:#354b54;stroke-width:0.62508523"
         inkscape:connector-curvature="0"
         id="path50"
         d="m 236,51.4 c 2.3,0.1 4.6,0.2 6.9,0.3 V 51.1 C 240.6,51 238.3,50.8 236,50.8 Z"
         class="st5" />
      <path
         style="fill:#354b54;stroke-width:0.62508523"
         inkscape:connector-curvature="0"
         id="path52"
         d="m 236,49.8 c 2.3,0.1 4.6,0.2 6.9,0.3 v -0.6 c -2.3,-0.1 -4.6,-0.3 -6.9,-0.3 z"
         class="st5" />
      <path
         style="fill:#354b54;stroke-width:0.62508523"
         inkscape:connector-curvature="0"
         id="path54"
         d="m 236,53 c 2.3,0.1 4.6,0.2 6.9,0.3 v -0.6 c -2.3,-0.1 -4.6,-0.3 -6.9,-0.3 z"
         class="st5" />
      <path
         style="fill:#354b54;stroke-width:0.62508523"
         inkscape:connector-curvature="0"
         id="path56"
         d="m 236,48.1 c 2.3,0.1 4.6,0.2 6.9,0.3 v -0.6 c -2.3,-0.1 -4.6,-0.3 -6.9,-0.3 z"
         class="st5" />
      <path
         style="fill:#354b54;stroke-width:0.62508523"
         inkscape:connector-curvature="0"
         id="path58"
         d="m 236,54.6 c 2.3,0.1 4.6,0.2 6.9,0.3 V 54.3 C 240.6,54.2 238.3,54 236,54 Z"
         class="st5" />
      <path
         style="fill:#ffffff;stroke-width:0.62508523"
         inkscape:connector-curvature="0"
         id="path60"
         d="m 236,44.9 c 2.3,0.1 4.6,0.2 6.9,0.3 v -0.6 c -2.3,-0.1 -4.6,-0.3 -6.9,-0.3 z"
         class="st2" />
      <path
         style="fill:#ffffff;stroke-width:0.62508523"
         inkscape:connector-curvature="0"
         id="path62"
         d="m 236,43.3 c 2.3,0.1 4.6,0.2 6.9,0.3 V 43 c -2.3,-0.1 -4.6,-0.3 -6.9,-0.3 z"
         class="st2" />
      <path
         style="fill:#354b54;stroke-width:0.62508523"
         inkscape:connector-curvature="0"
         id="path64"
         d="m 226.2,59.3 c 2.3,0 4.6,0 6.9,0.1 v -0.6 c -2.3,-0.1 -4.6,-0.1 -6.9,-0.1 z"
         class="st5" />
      <path
         style="fill:#354b54;stroke-width:0.62508523"
         inkscape:connector-curvature="0"
         id="path66"
         d="m 226.2,57.6 c 2.3,0 4.6,0 6.9,0.1 V 57.1 C 230.8,57 228.5,57 226.2,57 Z"
         class="st5" />
      <path
         style="fill:#354b54;stroke-width:0.62508523"
         inkscape:connector-curvature="0"
         id="path68"
         d="m 226.2,56 c 2.3,0 4.6,0 6.9,0.1 v -0.6 c -2.3,-0.1 -4.6,-0.1 -6.9,-0.1 z"
         class="st5" />
      <path
         style="fill:#354b54;stroke-width:0.62508523"
         inkscape:connector-curvature="0"
         id="path70"
         d="m 226.2,51.2 c 2.3,0 4.6,0 6.9,0.1 v -0.6 c -2.3,-0.1 -4.6,-0.1 -6.9,-0.1 z"
         class="st5" />
      <path
         style="fill:#354b54;stroke-width:0.62508523"
         inkscape:connector-curvature="0"
         id="path72"
         d="m 226.2,48 c 2.3,0 4.6,0 6.9,0.1 v -0.6 c -2.3,-0.1 -4.6,-0.1 -6.9,-0.1 z"
         class="st5" />
      <path
         style="fill:#354b54;stroke-width:0.62508523"
         inkscape:connector-curvature="0"
         id="path74"
         d="m 226.2,49.6 c 2.3,0 4.6,0 6.9,0.1 V 49.1 C 230.8,49 228.5,49 226.2,49 Z"
         class="st5" />
      <path
         style="fill:#354b54;stroke-width:0.62508523"
         inkscape:connector-curvature="0"
         id="path76"
         d="m 226.2,52.8 c 2.3,0 4.6,0 6.9,0.1 v -0.6 c -2.3,-0.1 -4.6,-0.1 -6.9,-0.1 z"
         class="st5" />
      <path
         style="fill:#354b54;stroke-width:0.62508523"
         inkscape:connector-curvature="0"
         id="path78"
         d="m 226.2,53.8 v 0.6 c 1.8,0 3.7,0 5.5,0.1 v -0.6 c -1.9,-0.1 -3.7,-0.1 -5.5,-0.1 z m 0,7.1 c 1.8,0 3.7,0 5.5,0.1 v -0.6 c -1.8,0 -3.7,-0.1 -5.5,-0.1 z"
         class="st5" />
      <path
         style="fill:#354b54;stroke-width:0.62508523"
         inkscape:connector-curvature="0"
         id="path80"
         d="m 239.4,55.8 c -1.2,-0.1 -2.3,-0.1 -3.5,-0.2 v 0.6 c 1.2,0 2.3,0.1 3.5,0.2 z"
         class="st5" />
    </g>
    <g
       id="g88"
       transform="matrix(0.42327564,0,0,0.42327564,-20.124002,217.65115)"
       style="stroke-width:0.62508523">
      <circle
         style="fill:#e84249;stroke-width:0.62508523"
         id="circle84"
         r="2.2"
         cy="38.400002"
         cx="240.7"
         class="st6" />
      <polygon
         style="fill:#ffffff;stroke-width:0.62508523"
         id="polygon86"
         points="240.2,37 240.2,37.9 239.3,37.9 239.3,38.9 240.2,38.9 240.2,39.9 241.2,39.9 241.2,38.9 242.1,38.9 242.1,37.9 241.2,37.9 241.2,37 "
         class="st2" />
    </g>
    <g
       id="g94"
       transform="matrix(0.42327564,0,0,0.42327564,-20.124002,217.65115)"
       style="stroke-width:0.62508523">
      <path
         style="fill:#0062a7;stroke-width:0.62508523"
         inkscape:connector-curvature="0"
         id="path90"
         d="m 227,44 1.8,-1 v -0.2 c 0,0 -0.1,0 -0.1,-0.1 -0.5,-0.3 -0.9,-0.7 -1.1,-1.3 h -0.1 c -0.1,0 -0.2,0 -0.2,-0.1 -0.2,-0.1 -0.3,-0.3 -0.3,-0.5 0,-0.3 0.2,-0.5 0.5,-0.5 v -0.9 c 0,-1.2 1,-2.2 2.2,-2.2 0.3,0 0.7,0.1 1,0.2 0.7,0.4 1.2,1.1 1.2,2 v 0.9 c 0.1,0 0.2,0 0.2,0.1 0.2,0.1 0.3,0.3 0.3,0.5 0,0.3 -0.2,0.5 -0.5,0.5 h -0.1 c -0.2,0.6 -0.6,1.1 -1.2,1.4 V 43 l 1.8,1 c 0.3,0.2 0.6,0.5 0.8,0.8 0,0 0.1,0 0.1,0 V 36.1 C 231,36 228.7,36 226.4,36 v 8.7 c 0,0 0.1,0 0.1,0 0,-0.3 0.2,-0.5 0.5,-0.7 z"
         class="st7" />
      <path
         style="fill:#658bc8;stroke-width:0.62508523"
         inkscape:connector-curvature="0"
         id="path92"
         d="m 232.3,44 -1.8,-1 v -0.2 c 0.6,-0.2 1,-0.8 1.2,-1.4 h 0.1 c 0.3,0 0.5,-0.2 0.5,-0.5 0,-0.2 -0.1,-0.4 -0.3,-0.5 -0.1,0 -0.1,-0.1 -0.2,-0.1 v -0.9 c 0,-0.9 -0.5,-1.6 -1.2,-2 -0.3,-0.2 -0.6,-0.2 -1,-0.2 -1.2,0 -2.2,1 -2.2,2.2 v 0.9 c -0.3,0 -0.5,0.2 -0.5,0.5 0,0.2 0.1,0.4 0.3,0.5 0.1,0 0.1,0.1 0.2,0.1 h 0.1 c 0.2,0.6 0.6,1.1 1.1,1.3 0,0 0.1,0 0.1,0.1 V 43 l -1.8,1 c -0.3,0.2 -0.6,0.4 -0.7,0.7 2.2,0 4.5,0 6.7,0.1 0,-0.3 -0.3,-0.6 -0.6,-0.8 z"
         class="st8" />
    </g>
    <path
       style="fill:#fdc300;stroke-width:0.26458335"
       inkscape:connector-curvature="0"
       id="path96"
       d="m 75.451637,227.51348 c 0.211639,0 0.423277,0 0.592587,0 0.253965,0 0.423275,-0.16932 0.423275,-0.42329 v -3.17456 c 0,-0.29629 -0.253965,-0.59259 -0.550258,-0.59259 -3.13224,-0.0424 -6.306807,0.0424 -9.439046,0.21164 -0.296294,0 -0.507931,0.25396 -0.507931,0.55026 v 12.95223 c 2.962929,-0.21163 5.968187,-0.29629 8.973443,-0.25396 0.253965,0 0.465603,-0.21164 0.465603,-0.4656 v -8.80413 z"
       class="st9" />
    <g
       id="g102"
       transform="matrix(0.42327564,0,0,0.42327564,-20.124002,217.65115)"
       style="stroke-width:0.62508523">
      <path
         style="fill:#152127;stroke-width:0.62508523"
         inkscape:connector-curvature="0"
         id="path98"
         d="m 216,17 c -2.3,0.1 -4.6,0.2 -6.9,0.3 V 26 c 0.1,0 0.3,0 0.4,0 0.1,-0.4 0.4,-0.7 0.7,-0.9 l 1.6,-1 v -0.2 c 0,0 -0.1,0 -0.1,-0.1 0,0 0,0 0,0 -0.4,-0.2 -0.8,-0.7 -0.9,-1.2 h -0.1 c -0.1,0 -0.1,0 -0.2,0 -0.1,0 -0.1,-0.1 -0.1,-0.1 0,0 0,0 0,0 0,0 0,-0.1 -0.1,-0.1 0,0 0,-0.1 0,-0.2 0,-0.3 0.2,-0.5 0.5,-0.5 v -0.9 c 0,-1.2 0.9,-2.3 2,-2.3 0.3,0 0.6,0 0.8,0.2 0,0 0,0 0,0 0.1,0 0.2,0.1 0.2,0.1 0.5,0.4 0.8,1 0.8,1.8 v 0.9 c 0,0 0.1,0 0.1,0 0,0 0.1,0 0.1,0 0.1,0.1 0.2,0.2 0.2,0.4 0,0.3 -0.2,0.5 -0.4,0.5 h -0.1 c -0.2,0.6 -0.6,1.1 -1.1,1.4 V 24 l 1.6,0.9 c 0.4,0.2 0.6,0.5 0.7,0.9 0.1,0 0.2,0 0.4,0 V 17 Z"
         class="st10" />
      <path
         style="fill:#4a606a;stroke-width:0.62508523"
         inkscape:connector-curvature="0"
         id="path100"
         d="m 214.9,24.7 -1.6,-0.9 v -0.2 c 0.5,-0.3 0.9,-0.8 1.1,-1.4 h 0.1 c 0.2,0 0.4,-0.3 0.4,-0.5 0,-0.2 -0.1,-0.4 -0.2,-0.4 0,0 -0.1,0 -0.1,0 0,0 -0.1,0 -0.1,0 v -0.9 c 0,-0.8 -0.3,-1.4 -0.8,-1.8 -0.1,-0.1 -0.1,-0.1 -0.2,-0.1 0,0 0,0 0,0 -0.2,-0.1 -0.5,-0.2 -0.8,-0.2 -1.1,0.1 -2,1.1 -2,2.3 v 0.9 c -0.2,0 -0.4,0.3 -0.5,0.5 0,0.1 0,0.1 0,0.2 0,0.1 0,0.1 0.1,0.1 0,0 0,0 0,0 0,0 0.1,0.1 0.1,0.1 0.1,0 0.1,0 0.2,0 h 0.1 c 0.2,0.5 0.5,1 0.9,1.2 0,0 0,0 0,0 0,0 0.1,0 0.1,0.1 v 0.2 l -1.6,1 c -0.3,0.2 -0.6,0.6 -0.7,0.9 2.1,-0.1 4.1,-0.2 6.2,-0.3 -0.1,-0.2 -0.4,-0.6 -0.7,-0.8 z"
         class="st11" />
    </g>
    <path
       style="fill:#c4db9b;stroke-width:0.26458335"
       inkscape:connector-curvature="0"
       id="path128"
       d="m 30.034164,231.28063 c 0.211636,-0.12702 0.423275,-0.21164 0.677239,-0.33863 0.211638,-0.12702 0.380948,-0.33861 0.380948,-0.59257 v -3.04759 c 0,-0.33862 -0.33862,-0.55026 -0.634912,-0.38095 -1.735431,0.80422 -3.386206,1.69309 -4.994652,2.62431 -1.566121,0.9312 -3.047585,1.8624 -4.402067,2.83595 -0.296293,0.21164 -0.465604,0.50793 -0.465604,0.88887 v 12.19034 c 0,0.33863 0.338621,0.50793 0.634914,0.33863 1.312155,-0.93122 2.751292,-1.82009 4.275084,-2.70898 1.354482,-0.7619 2.708963,-1.52379 4.148102,-2.20103 0.296292,-0.12702 0.465602,-0.42327 0.465602,-0.71956 v -8.88879 z"
       class="st4" />
    <path
       style="fill:#8ab5e1;stroke-width:0.26458335"
       inkscape:connector-curvature="0"
       id="path130"
       d="m 52.29846,227.89442 c 0.211638,-0.0424 0.423275,-0.0846 0.634913,-0.12702 0.211638,-0.0424 0.380948,-0.25397 0.380948,-0.4656 v -3.25924 c 0,-0.25397 -0.253965,-0.4656 -0.507931,-0.42327 -3.259223,0.59259 -6.433788,1.35449 -9.481373,2.24336 -0.296292,0.0846 -0.50793,0.33862 -0.50793,0.67725 v 12.95223 c 2.920601,-0.84655 5.925857,-1.60845 8.973442,-2.20104 0.296292,-0.0424 0.507931,-0.2963 0.507931,-0.59258 z"
       class="st12" />
    <g
       id="g164"
       transform="matrix(0.42327564,0,0,0.42327564,-21.309173,217.69347)"
       style="stroke-width:0.62508523">
      <path
         style="fill:#ffffff;stroke-width:0.62508523"
         inkscape:connector-curvature="0"
         id="path132"
         d="m 111.5,40.2 c 2.3,-1.3 4.6,-2.5 6.9,-3.7 v -0.6 c -2.4,1.2 -4.7,2.5 -6.9,3.7 z"
         class="st2" />
      <path
         style="fill:#354b54;stroke-width:0.62508523"
         inkscape:connector-curvature="0"
         id="path134"
         d="m 111.5,43.4 c 2.3,-1.3 4.6,-2.5 6.9,-3.7 V 39 c -2.4,1.2 -4.7,2.5 -6.9,3.7 z"
         class="st5" />
      <path
         style="fill:#ffffff;stroke-width:0.62508523"
         inkscape:connector-curvature="0"
         id="path136"
         d="m 111.5,38.5 c 2.3,-1.3 4.6,-2.5 6.9,-3.7 v -0.6 c -2.4,1.2 -4.7,2.5 -6.9,3.7 z"
         class="st2" />
      <path
         style="fill:#354b54;stroke-width:0.62508523"
         inkscape:connector-curvature="0"
         id="path138"
         d="m 111.5,45 c 2.3,-1.3 4.6,-2.5 6.9,-3.7 v -0.6 c -2.4,1.2 -4.7,2.5 -6.9,3.7 z"
         class="st5" />
      <path
         style="fill:#354b54;stroke-width:0.62508523"
         inkscape:connector-curvature="0"
         id="path140"
         d="m 111.5,49.9 c 2.3,-1.3 4.6,-2.5 6.9,-3.7 v -0.6 c -2.4,1.2 -4.7,2.5 -6.9,3.7 z"
         class="st5" />
      <path
         style="fill:#354b54;stroke-width:0.62508523"
         inkscape:connector-curvature="0"
         id="path142"
         d="m 111.5,48.2 c 2.3,-1.3 4.6,-2.5 6.9,-3.7 v -0.6 c -2.4,1.2 -4.7,2.5 -6.9,3.7 z"
         class="st5" />
      <path
         style="fill:#354b54;stroke-width:0.62508523"
         inkscape:connector-curvature="0"
         id="path144"
         d="m 111.5,46.6 c 2.3,-1.3 4.6,-2.5 6.9,-3.7 v -0.6 c -2.4,1.2 -4.7,2.5 -6.9,3.7 z"
         class="st5" />
      <path
         style="fill:#354b54;stroke-width:0.62508523"
         inkscape:connector-curvature="0"
         id="path146"
         d="m 101.8,60.8 c 2.2,-1.5 4.5,-3 6.9,-4.4 v -0.6 c -2.4,1.4 -4.7,2.9 -6.9,4.4 z"
         class="st5" />
      <path
         style="fill:#354b54;stroke-width:0.62508523"
         inkscape:connector-curvature="0"
         id="path148"
         d="m 101.8,59.2 c 2.2,-1.5 4.5,-3 6.9,-4.4 v -0.6 c -2.4,1.4 -4.7,2.9 -6.9,4.4 z"
         class="st5" />
      <path
         style="fill:#354b54;stroke-width:0.62508523"
         inkscape:connector-curvature="0"
         id="path150"
         d="m 101.8,57.5 c 2.2,-1.5 4.5,-3 6.9,-4.4 v -0.6 c -2.4,1.4 -4.7,2.9 -6.9,4.4 z"
         class="st5" />
      <path
         style="fill:#354b54;stroke-width:0.62508523"
         inkscape:connector-curvature="0"
         id="path152"
         d="m 101.8,54.3 c 2.2,-1.5 4.5,-3 6.9,-4.4 v -0.6 c -2.4,1.4 -4.7,2.9 -6.9,4.4 z"
         class="st5" />
      <path
         style="fill:#354b54;stroke-width:0.62508523"
         inkscape:connector-curvature="0"
         id="path154"
         d="m 101.8,52.7 c 2.2,-1.5 4.5,-3 6.9,-4.4 v -0.6 c -2.4,1.4 -4.7,2.9 -6.9,4.4 z"
         class="st5" />
      <path
         style="fill:#354b54;stroke-width:0.62508523"
         inkscape:connector-curvature="0"
         id="path156"
         d="m 101.8,51.1 c 2.2,-1.5 4.5,-3 6.9,-4.4 V 46 c -2.4,1.4 -4.7,2.9 -6.9,4.4 z"
         class="st5" />
      <path
         style="fill:#354b54;stroke-width:0.62508523"
         inkscape:connector-curvature="0"
         id="path158"
         d="m 101.8,49.5 c 2.2,-1.5 4.5,-3 6.9,-4.4 v -0.6 c -2.4,1.4 -4.7,2.9 -6.9,4.4 z"
         class="st5" />
      <path
         style="fill:#354b54;stroke-width:0.62508523"
         inkscape:connector-curvature="0"
         id="path160"
         d="m 101.8,55.3 v 0.6 c 1.8,-1.2 3.6,-2.4 5.5,-3.5 v -0.6 c -1.9,1.1 -3.8,2.3 -5.5,3.5 z m 0,7.1 c 1.8,-1.2 3.6,-2.4 5.5,-3.5 v -0.6 c -1.9,1.2 -3.7,2.3 -5.5,3.5 z"
         class="st5" />
      <path
         style="fill:#354b54;stroke-width:0.62508523"
         inkscape:connector-curvature="0"
         id="path162"
         d="m 115,48.9 c -1.2,0.6 -2.3,1.3 -3.5,1.9 v 0.6 c 1.1,-0.7 2.3,-1.3 3.5,-1.9 z"
         class="st5" />
    </g>
    <g
       id="g198"
       transform="matrix(0.42327564,0,0,0.42327564,-20.081675,217.31253)"
       style="stroke-width:0.62508523">
      <path
         style="fill:#354b54;stroke-width:0.62508523"
         inkscape:connector-curvature="0"
         id="path166"
         d="m 154.3,42.5 c 2.3,-0.6 4.6,-1.3 6.9,-1.8 V 40 c -2.3,0.6 -4.6,1.2 -6.9,1.8 z"
         class="st5" />
      <path
         style="fill:#354b54;stroke-width:0.62508523"
         inkscape:connector-curvature="0"
         id="path168"
         d="m 154.3,44.1 c 2.3,-0.6 4.6,-1.3 6.9,-1.8 v -0.6 c -2.3,0.6 -4.6,1.2 -6.9,1.8 z"
         class="st5" />
      <path
         style="fill:#354b54;stroke-width:0.62508523"
         inkscape:connector-curvature="0"
         id="path170"
         d="m 154.3,36 c 2.3,-0.6 4.6,-1.3 6.9,-1.8 v -0.6 c -2.3,0.6 -4.6,1.2 -6.9,1.8 z"
         class="st5" />
      <path
         style="fill:#354b54;stroke-width:0.62508523"
         inkscape:connector-curvature="0"
         id="path172"
         d="m 154.3,39.3 c 2.3,-0.6 4.6,-1.3 6.9,-1.8 v -0.6 c -2.3,0.6 -4.6,1.2 -6.9,1.8 z"
         class="st5" />
      <path
         style="fill:#354b54;stroke-width:0.62508523"
         inkscape:connector-curvature="0"
         id="path174"
         d="m 154.3,37.7 c 2.3,-0.6 4.6,-1.3 6.9,-1.8 v -0.6 c -2.3,0.6 -4.6,1.2 -6.9,1.8 z"
         class="st5" />
      <path
         style="fill:#354b54;stroke-width:0.62508523"
         inkscape:connector-curvature="0"
         id="path176"
         d="m 154.3,34.4 c 2.3,-0.6 4.6,-1.3 6.9,-1.8 V 32 c -2.3,0.6 -4.6,1.2 -6.9,1.8 z"
         class="st5" />
      <path
         style="fill:#354b54;stroke-width:0.62508523"
         inkscape:connector-curvature="0"
         id="path178"
         d="m 164.1,33.5 c 2.3,-0.5 4.6,-1.1 6.9,-1.5 v -0.6 c -2.3,0.5 -4.6,1 -6.9,1.5 z"
         class="st5" />
      <path
         style="fill:#354b54;stroke-width:0.62508523"
         inkscape:connector-curvature="0"
         id="path180"
         d="m 164.1,31.9 c 2.3,-0.5 4.6,-1.1 6.9,-1.5 v -0.6 c -2.3,0.5 -4.6,1 -6.9,1.5 z"
         class="st5" />
      <path
         style="fill:#354b54;stroke-width:0.62508523"
         inkscape:connector-curvature="0"
         id="path182"
         d="m 164.1,35.1 c 2.3,-0.5 4.6,-1.1 6.9,-1.5 V 33 c -2.3,0.5 -4.6,1 -6.9,1.5 z"
         class="st5" />
      <path
         style="fill:#354b54;stroke-width:0.62508523"
         inkscape:connector-curvature="0"
         id="path184"
         d="m 164.1,36.7 c 2.3,-0.5 4.6,-1.1 6.9,-1.5 v -0.6 c -2.3,0.5 -4.6,1 -6.9,1.5 z"
         class="st5" />
      <path
         style="fill:#354b54;stroke-width:0.62508523"
         inkscape:connector-curvature="0"
         id="path186"
         d="m 164.1,38.4 c 2.3,-0.5 4.6,-1.1 6.9,-1.5 v -0.6 c -2.3,0.5 -4.6,1 -6.9,1.5 z"
         class="st5" />
      <path
         style="fill:#ffffff;stroke-width:0.62508523"
         inkscape:connector-curvature="0"
         id="path188"
         d="m 164.1,28.7 c 2.3,-0.5 4.6,-1.1 6.9,-1.5 v -0.6 c -2.3,0.5 -4.6,1 -6.9,1.5 z"
         class="st2" />
      <path
         style="fill:#ffffff;stroke-width:0.62508523"
         inkscape:connector-curvature="0"
         id="path190"
         d="m 164.1,27.1 c 2.3,-0.5 4.6,-1.1 6.9,-1.5 V 25 c -2.3,0.5 -4.6,1 -6.9,1.5 z"
         class="st2" />
      <path
         style="fill:#354b54;stroke-width:0.62508523"
         inkscape:connector-curvature="0"
         id="path192"
         d="m 154.3,45.7 c 2.3,-0.6 4.6,-1.3 6.9,-1.8 v -0.6 c -2.3,0.6 -4.6,1.2 -6.9,1.8 z"
         class="st5" />
      <path
         style="fill:#354b54;stroke-width:0.62508523"
         inkscape:connector-curvature="0"
         id="path194"
         d="m 154.3,40.3 v 0.6 c 1.8,-0.5 3.6,-1 5.5,-1.5 v -0.6 c -1.8,0.5 -3.6,1 -5.5,1.5 z m 0,7 c 1.8,-0.5 3.6,-1 5.5,-1.5 v -0.6 c -1.8,0.5 -3.7,0.9 -5.5,1.5 z"
         class="st5" />
      <path
         style="fill:#354b54;stroke-width:0.62508523"
         inkscape:connector-curvature="0"
         id="path196"
         d="m 167.6,38.6 c -1.2,0.3 -2.3,0.5 -3.5,0.8 V 40 c 1.1,-0.3 2.3,-0.5 3.5,-0.8 z"
         class="st5" />
    </g>
    <g
       id="g232"
       transform="matrix(0.42327564,0,0,0.42327564,-20.124002,217.65115)"
       style="stroke-width:0.62508523">
      <path
         style="fill:#354b54;stroke-width:0.62508523"
         inkscape:connector-curvature="0"
         id="path200"
         d="m 209,30.8 c 2.3,-0.1 4.6,-0.2 6.9,-0.3 v -0.6 c -2.3,0.1 -4.6,0.2 -6.9,0.3 z"
         class="st5" />
      <path
         style="fill:#354b54;stroke-width:0.62508523"
         inkscape:connector-curvature="0"
         id="path202"
         d="m 209,32.4 c 2.3,-0.1 4.6,-0.2 6.9,-0.3 v -0.6 c -2.3,0.1 -4.6,0.2 -6.9,0.3 z"
         class="st5" />
      <path
         style="fill:#354b54;stroke-width:0.62508523"
         inkscape:connector-curvature="0"
         id="path204"
         d="m 209,34.1 c 2.3,-0.1 4.6,-0.2 6.9,-0.3 v -0.6 c -2.3,0.1 -4.6,0.2 -6.9,0.3 z"
         class="st5" />
      <path
         style="fill:#354b54;stroke-width:0.62508523"
         inkscape:connector-curvature="0"
         id="path206"
         d="m 209,38.9 c 2.3,-0.1 4.6,-0.2 6.9,-0.3 V 38 c -2.3,0.1 -4.6,0.2 -6.9,0.3 z"
         class="st5" />
      <path
         style="fill:#354b54;stroke-width:0.62508523"
         inkscape:connector-curvature="0"
         id="path208"
         d="m 209,29.2 c 2.3,-0.1 4.6,-0.2 6.9,-0.3 v -0.6 c -2.3,0.1 -4.6,0.2 -6.9,0.3 z"
         class="st5" />
      <path
         style="fill:#354b54;stroke-width:0.62508523"
         inkscape:connector-curvature="0"
         id="path210"
         d="m 209,37.3 c 2.3,-0.1 4.6,-0.2 6.9,-0.3 v -0.6 c -2.3,0.1 -4.6,0.2 -6.9,0.3 z"
         class="st5" />
      <path
         style="fill:#354b54;stroke-width:0.62508523"
         inkscape:connector-curvature="0"
         id="path212"
         d="m 209,40.5 c 2.3,-0.1 4.6,-0.2 6.9,-0.3 v -0.6 c -2.3,0.1 -4.6,0.2 -6.9,0.3 z"
         class="st5" />
      <path
         style="fill:#354b54;stroke-width:0.62508523"
         inkscape:connector-curvature="0"
         id="path214"
         d="m 218.8,32 c 2.3,-0.1 4.6,-0.1 6.9,-0.1 v -0.6 c -2.3,0 -4.6,0 -6.9,0.1 z"
         class="st5" />
      <path
         style="fill:#354b54;stroke-width:0.62508523"
         inkscape:connector-curvature="0"
         id="path216"
         d="m 218.8,30.4 c 2.3,-0.1 4.6,-0.1 6.9,-0.1 v -0.6 c -2.3,0 -4.6,0 -6.9,0.1 z"
         class="st5" />
      <path
         style="fill:#354b54;stroke-width:0.62508523"
         inkscape:connector-curvature="0"
         id="path218"
         d="m 218.8,35.3 c 2.3,-0.1 4.6,-0.1 6.9,-0.1 v -0.6 c -2.3,0 -4.6,0 -6.9,0.1 z"
         class="st5" />
      <path
         style="fill:#354b54;stroke-width:0.62508523"
         inkscape:connector-curvature="0"
         id="path220"
         d="m 218.8,33.7 c 2.3,-0.1 4.6,-0.1 6.9,-0.1 V 33 c -2.3,0 -4.6,0 -6.9,0.1 z"
         class="st5" />
      <path
         style="fill:#354b54;stroke-width:0.62508523"
         inkscape:connector-curvature="0"
         id="path222"
         d="m 218.8,28.8 c 2.3,-0.1 4.6,-0.1 6.9,-0.1 v -0.6 c -2.3,0 -4.6,0 -6.9,0.1 z"
         class="st5" />
      <path
         style="fill:#ffffff;stroke-width:0.62508523"
         inkscape:connector-curvature="0"
         id="path224"
         d="m 218.8,24 c 2.3,-0.1 4.6,-0.1 6.9,-0.1 v -0.6 c -2.3,0 -4.6,0 -6.9,0.1 z"
         class="st2" />
      <path
         style="fill:#ffffff;stroke-width:0.62508523"
         inkscape:connector-curvature="0"
         id="path226"
         d="m 218.8,25.6 c 2.3,-0.1 4.6,-0.1 6.9,-0.1 v -0.6 c -2.3,0 -4.6,0 -6.9,0.1 z"
         class="st2" />
      <path
         style="fill:#354b54;stroke-width:0.62508523"
         inkscape:connector-curvature="0"
         id="path228"
         d="m 209,35.1 v 0.6 c 1.8,-0.1 3.7,-0.2 5.5,-0.3 v -0.6 c -1.8,0.1 -3.7,0.2 -5.5,0.3 z m 0,7 c 1.8,-0.1 3.7,-0.2 5.5,-0.3 v -0.6 c -1.8,0.1 -3.7,0.2 -5.5,0.3 z"
         class="st5" />
      <path
         style="fill:#354b54;stroke-width:0.62508523"
         inkscape:connector-curvature="0"
         id="path230"
         d="m 222.3,36.2 c -1.2,0 -2.3,0 -3.5,0 v 0.6 c 1.2,0 2.3,0 3.5,0 z"
         class="st5" />
    </g>
    <path
       style="fill:#c6c19d;stroke-width:0.26458335"
       inkscape:connector-curvature="0"
       id="path234"
       d="m 43.452,238.56096 c 0.16931,-0.0424 0.380948,-0.12702 0.550258,-0.1693 0.296294,-0.0846 0.465604,-0.33863 0.465604,-0.63492 v -2.96293 c 0,-0.33862 -0.338621,-0.59259 -0.677241,-0.50793 -3.216896,0.9312 -6.306807,1.9894 -9.312065,3.17458 -0.338619,0.12702 -0.550258,0.4656 -0.550258,0.80421 v 12.275 c 0,0.29629 0.296293,0.50793 0.550258,0.38095 2.708965,-1.10052 5.502584,-2.07405 8.380858,-2.92061 0.296294,-0.0846 0.550259,-0.38094 0.550259,-0.71956 v -8.71949 z"
       class="st13" />
    <g
       id="g268"
       transform="matrix(0.42327564,0,0,0.42327564,-21.309173,217.69347)"
       style="stroke-width:0.62508523">
      <path
         style="fill:#354b54;stroke-width:0.62508523"
         inkscape:connector-curvature="0"
         id="path236"
         d="m 133.4,71.6 c 2.3,-0.9 4.6,-1.8 6.9,-2.6 v -0.6 c -2.3,0.8 -4.7,1.7 -6.9,2.6 z"
         class="st5" />
      <path
         style="fill:#ffffff;stroke-width:0.62508523"
         inkscape:connector-curvature="0"
         id="path238"
         d="m 143.2,53.4 c 2.3,-0.8 4.6,-1.5 6.9,-2.2 v -0.6 c -2.3,0.7 -4.7,1.4 -6.9,2.2 z"
         class="st2" />
      <path
         style="fill:#354b54;stroke-width:0.62508523"
         inkscape:connector-curvature="0"
         id="path240"
         d="m 133.4,61.9 c 2.3,-0.9 4.6,-1.8 6.9,-2.6 v -0.6 c -2.3,0.8 -4.7,1.7 -6.9,2.6 z"
         class="st5" />
      <path
         style="fill:#354b54;stroke-width:0.62508523"
         inkscape:connector-curvature="0"
         id="path242"
         d="m 133.4,63.5 c 2.3,-0.9 4.6,-1.8 6.9,-2.6 v -0.6 c -2.3,0.8 -4.7,1.7 -6.9,2.6 z"
         class="st5" />
      <path
         style="fill:#354b54;stroke-width:0.62508523"
         inkscape:connector-curvature="0"
         id="path244"
         d="m 133.4,66.8 c 2.3,-0.9 4.6,-1.8 6.9,-2.6 v -0.6 c -2.3,0.8 -4.7,1.7 -6.9,2.6 z"
         class="st5" />
      <path
         style="fill:#354b54;stroke-width:0.62508523"
         inkscape:connector-curvature="0"
         id="path246"
         d="m 133.4,65.1 c 2.3,-0.9 4.6,-1.8 6.9,-2.6 v -0.6 c -2.3,0.8 -4.7,1.7 -6.9,2.6 z"
         class="st5" />
      <path
         style="fill:#354b54;stroke-width:0.62508523"
         inkscape:connector-curvature="0"
         id="path248"
         d="m 143.2,64.8 c 2.3,-0.8 4.6,-1.5 6.9,-2.2 V 62 c -2.3,0.7 -4.7,1.4 -6.9,2.2 z"
         class="st5" />
      <path
         style="fill:#354b54;stroke-width:0.62508523"
         inkscape:connector-curvature="0"
         id="path250"
         d="m 143.2,59.9 c 2.3,-0.8 4.6,-1.5 6.9,-2.2 v -0.6 c -2.3,0.7 -4.7,1.4 -6.9,2.2 z"
         class="st5" />
      <path
         style="fill:#354b54;stroke-width:0.62508523"
         inkscape:connector-curvature="0"
         id="path252"
         d="m 143.2,58.3 c 2.3,-0.8 4.6,-1.5 6.9,-2.2 v -0.6 c -2.3,0.7 -4.7,1.4 -6.9,2.2 z"
         class="st5" />
      <path
         style="fill:#ffffff;stroke-width:0.62508523"
         inkscape:connector-curvature="0"
         id="path254"
         d="m 143.2,55.1 c 2.3,-0.8 4.6,-1.5 6.9,-2.2 v -0.6 c -2.3,0.7 -4.7,1.4 -6.9,2.2 z"
         class="st2" />
      <path
         style="fill:#354b54;stroke-width:0.62508523"
         inkscape:connector-curvature="0"
         id="path256"
         d="m 143.2,61.5 c 2.3,-0.8 4.6,-1.5 6.9,-2.2 v -0.6 c -2.3,0.7 -4.7,1.4 -6.9,2.2 z"
         class="st5" />
      <path
         style="fill:#354b54;stroke-width:0.62508523"
         inkscape:connector-curvature="0"
         id="path258"
         d="m 143.2,63.1 c 2.3,-0.8 4.6,-1.5 6.9,-2.2 v -0.6 c -2.3,0.7 -4.7,1.4 -6.9,2.2 z"
         class="st5" />
      <path
         style="fill:#354b54;stroke-width:0.62508523"
         inkscape:connector-curvature="0"
         id="path260"
         d="m 133.4,70 c 2.3,-0.9 4.6,-1.8 6.9,-2.6 v -0.6 c -2.3,0.8 -4.7,1.7 -6.9,2.6 z"
         class="st5" />
      <path
         style="fill:#354b54;stroke-width:0.62508523"
         inkscape:connector-curvature="0"
         id="path262"
         d="m 133.4,73.2 c 2.3,-0.9 4.6,-1.8 6.9,-2.6 V 70 c -2.3,0.8 -4.7,1.7 -6.9,2.6 z"
         class="st5" />
      <path
         style="fill:#354b54;stroke-width:0.62508523"
         inkscape:connector-curvature="0"
         id="path264"
         d="m 133.4,67.8 v 0.6 c 1.8,-0.7 3.6,-1.4 5.5,-2.1 v -0.6 c -1.8,0.6 -3.7,1.3 -5.5,2.1 z m 0,7 c 1.8,-0.7 3.6,-1.4 5.5,-2.1 v -0.6 c -1.8,0.7 -3.7,1.4 -5.5,2.1 z"
         class="st5" />
      <path
         style="fill:#354b54;stroke-width:0.62508523"
         inkscape:connector-curvature="0"
         id="path266"
         d="m 146.7,64.6 c -1.2,0.4 -2.3,0.8 -3.5,1.1 v 0.6 c 1.1,-0.4 2.3,-0.8 3.5,-1.1 z"
         class="st5" />
    </g>
    <g
       id="g274"
       transform="matrix(0.42327564,0,0,0.42327564,-20.124002,217.65115)"
       style="stroke-width:0.62508523">
      <circle
         style="fill:#e84249;stroke-width:0.62508523"
         id="circle270"
         r="2.2"
         cy="19.200001"
         cx="223.5"
         class="st6" />
      <polygon
         style="fill:#ffffff;stroke-width:0.62508523"
         id="polygon272"
         points="223,17.7 223,18.7 222.1,18.7 222.1,19.6 223,19.6 223,20.6 224,20.6 224,19.6 225,19.6 225,18.7 224,18.7 224,17.7 "
         class="st2" />
    </g>
    <g
       id="g280"
       transform="matrix(0.42327564,0,0,0.42327564,-20.081675,217.31253)"
       style="stroke-width:0.62508523">
      <circle
         style="fill:#e84249;stroke-width:0.62508523"
         id="circle276"
         r="2.2"
         cy="21.4"
         cx="168.89999"
         class="st6" />
      <polygon
         style="fill:#ffffff;stroke-width:0.62508523"
         id="polygon278"
         points="168.4,19.9 168.4,20.9 167.4,20.9 167.4,21.8 168.4,21.8 168.4,22.8 169.4,22.8 169.4,21.8 170.3,21.8 170.3,20.9 169.4,20.9 169.4,19.9 "
         class="st2" />
    </g>
    <g
       id="g290"
       transform="matrix(0.42327564,0,0,0.42327564,-21.309173,217.69347)"
       style="stroke-width:0.62508523">
      <g
         id="g284"
         style="stroke-width:0.62508523">
        <path
           style="fill:#e84249;stroke-width:0.62508523"
           inkscape:connector-curvature="0"
           id="path282"
           d="m 147.9,44.8 c 1.1,-0.2 1.9,0.6 1.9,1.8 0,1.2 -0.9,2.2 -1.9,2.4 -1,0.2 -1.9,-0.6 -1.9,-1.8 0,-1.1 0.9,-2.2 1.9,-2.4 z m 1.3,2.4 v -0.9 l -0.8,0.1 v -0.9 l -0.8,0.1 v 0.9 l -0.8,0.1 v 0.9 l 0.8,-0.1 v 0.9 l 0.8,-0.1 v -0.9 l 0.8,-0.1"
           class="st6" />
      </g>
      <g
         id="g288"
         style="stroke-width:0.62508523">
        <polygon
           style="fill:#ffffff;stroke-width:0.62508523"
           id="polygon286"
           points="149.2,46.3 149.2,47.2 148.4,47.3 148.4,48.3 147.5,48.4 147.5,47.5 146.7,47.6 146.7,46.7 147.5,46.5 147.5,45.6 148.4,45.5 148.4,46.4 "
           class="st2" />
      </g>
    </g>
    <g
       id="g300"
       transform="matrix(0.42327564,0,0,0.42327564,-21.309173,217.69347)"
       style="stroke-width:0.62508523">
      <g
         id="g294"
         style="stroke-width:0.62508523">
        <polygon
           style="fill:#ffffff;stroke-width:0.62508523"
           id="polygon292"
           points="117.4,31.2 117.4,32.1 116.6,32.3 116.6,33.2 115.9,33.4 115.9,32.5 115.2,32.6 115.2,31.7 115.9,31.5 115.9,30.6 116.6,30.4 116.6,31.3 "
           class="st2" />
      </g>
      <g
         id="g298"
         style="stroke-width:0.62508523">
        <path
           style="fill:#e84249;stroke-width:0.62508523"
           inkscape:connector-curvature="0"
           id="path296"
           d="m 116.3,29.8 c 0.9,-0.2 1.6,0.5 1.6,1.7 0,1.2 -0.7,2.3 -1.6,2.5 -0.9,0.2 -1.6,-0.5 -1.6,-1.7 -0.1,-1.2 0.7,-2.3 1.6,-2.5 z m 1.1,2.3 v -0.9 l -0.7,0.2 v -0.9 l -0.7,0.2 v 0.9 l -0.7,0.2 v 0.9 l 0.7,-0.2 v 0.9 l 0.7,-0.2 v -0.9 l 0.7,-0.2"
           class="st6" />
      </g>
    </g>
    <g
       id="g428"
       transform="matrix(0.42327564,0,0,0.42327564,-21.309173,217.69347)"
       style="stroke-width:0.62508523">
      <path
         style="fill:#0062a7;stroke-width:0.62508523"
         inkscape:connector-curvature="0"
         id="path424"
         d="m 108.7,33.1 c -2.4,1.4 -4.7,2.9 -6.9,4.4 v 8.7 c 0.3,-0.2 0.6,-0.4 0.9,-0.6 0.1,-0.4 0.3,-0.9 0.6,-1.2 l 1.4,-1.9 v -0.2 c -0.5,0 -0.8,-0.2 -1,-0.7 0,0 -0.1,0 -0.1,0.1 -0.2,0.1 -0.4,0 -0.4,-0.3 0,-0.3 0.2,-0.6 0.4,-0.8 v -0.9 c 0,-1.2 0.8,-2.8 1.7,-3.4 0.9,-0.6 1.7,-0.1 1.7,1.1 v 0.9 c 0.2,-0.1 0.4,0 0.4,0.3 0,0.3 -0.2,0.6 -0.4,0.8 0,0 -0.1,0 -0.1,0 -0.2,0.7 -0.5,1.5 -1,2 v 0.2 h 1.4 c 0.3,0 0.5,0.2 0.7,0.5 0.2,-0.1 0.4,-0.2 0.5,-0.3 v -8.7 z"
         class="st7" />
      <path
         style="fill:#658bc8;stroke-width:0.62508523"
         inkscape:connector-curvature="0"
         id="path426"
         d="m 107.5,41.6 h -1.4 v -0.2 c 0.5,-0.6 0.8,-1.3 1,-2 0,0 0.1,0 0.1,0 0.2,-0.1 0.4,-0.5 0.4,-0.8 0,-0.3 -0.2,-0.4 -0.4,-0.3 v -0.9 c 0,-1.2 -0.8,-1.7 -1.7,-1.1 -0.9,0.6 -1.7,2.1 -1.7,3.4 v 0.9 c -0.2,0.1 -0.4,0.5 -0.4,0.8 0,0.3 0.2,0.4 0.4,0.3 0,0 0.1,0 0.1,-0.1 0.2,0.5 0.5,0.8 1,0.7 v 0.2 l -1.4,1.9 c -0.3,0.4 -0.5,0.8 -0.6,1.2 1.8,-1.2 3.6,-2.3 5.5,-3.5 -0.4,-0.3 -0.6,-0.5 -0.9,-0.5 z"
         class="st8" />
    </g>
    <g
       id="g434"
       transform="matrix(0.42327564,0,0,0.42327564,-21.309173,217.69347)"
       style="stroke-width:0.62508523">
      <path
         style="fill:#e84249;stroke-width:0.62508523"
         inkscape:connector-curvature="0"
         id="path430"
         d="m 140.4,47.4 c -2.3,0.8 -4.7,1.7 -6.9,2.6 v 8.7 c 0.1,-0.1 0.3,-0.1 0.4,-0.2 0.1,-0.5 0.4,-0.9 0.7,-1.3 l 1.5,-1.7 v -0.2 c -0.5,0 -0.8,-0.2 -1,-0.7 0,0 -0.1,0 -0.1,0.1 -0.2,0.1 -0.4,0 -0.4,-0.2 0,-0.3 0.2,-0.6 0.4,-0.7 V 53 c 0,-1.1 0.8,-2.4 1.8,-3 1,-0.5 1.8,-0.1 1.8,1 v 0.8 c 0.2,-0.1 0.4,0 0.4,0.2 0,0.3 -0.2,0.6 -0.4,0.7 0,0 -0.1,0 -0.1,0 -0.2,0.6 -0.5,1.3 -1,1.8 v 0.2 h 1.5 c 0.3,0 0.6,0.2 0.7,0.5 l 0.3,0.9 c 0.1,-0.1 0.3,-0.1 0.4,-0.2 z"
         class="st6" />
      <path
         style="fill:#f4a7b0;stroke-width:0.62508523"
         inkscape:connector-curvature="0"
         id="path432"
         d="m 139,54.8 h -1.5 v -0.2 c 0.5,-0.5 0.8,-1.1 1,-1.8 0,0 0.1,0 0.1,0 0.2,-0.1 0.4,-0.4 0.4,-0.7 0,-0.2 -0.2,-0.4 -0.4,-0.2 v -0.8 c 0,-1.1 -0.8,-1.5 -1.8,-1 -1,0.5 -1.8,1.9 -1.8,3 v 0.8 c -0.2,0.1 -0.4,0.4 -0.4,0.7 0,0.3 0.2,0.3 0.4,0.2 0,0 0.1,0 0.1,-0.1 0.2,0.5 0.5,0.7 1,0.7 v 0.2 l -1.5,1.7 c -0.3,0.4 -0.6,0.9 -0.7,1.3 2,-0.8 4,-1.6 6.1,-2.3 l -0.3,-0.9 C 139.6,55 139.3,54.8 139,54.8 Z"
         class="st16" />
    </g>
    <g
       id="g440"
       transform="matrix(0.42327564,0,0,0.42327564,-20.081675,217.31253)"
       style="stroke-width:0.62508523">
      <path
         style="fill:#4db05b;stroke-width:0.62508523"
         inkscape:connector-curvature="0"
         id="path436"
         d="m 161.3,20.7 c -2.3,0.6 -4.6,1.2 -6.9,1.8 v 8.7 c 0.1,0 0.2,-0.1 0.4,-0.1 0.1,-0.4 0.4,-0.8 0.8,-1.1 l 1.7,-1.3 v -0.2 c 0,0 -0.1,0 -0.1,0 0,0 -0.1,0 -0.1,0 -0.4,-0.2 -0.8,-0.5 -0.9,-1 h -0.1 c -0.1,0 -0.1,0 -0.2,0 -0.1,0 -0.1,0 -0.1,-0.1 0,0 0,0 0,0 0,0 -0.1,-0.1 -0.1,-0.1 0,0 0,-0.1 0,-0.1 0,-0.3 0.2,-0.6 0.5,-0.6 v -0.9 c 0,-1.2 0.9,-2.4 2,-2.7 0,0 0,0 0.1,0 0.1,0 0.1,0 0.2,0 0.1,0 0.2,0 0.3,0 0.1,0 0.3,0 0.4,0.1 0,0 0.1,0 0.1,0 0.6,0.2 1,0.8 1,1.5 0,0.1 0,0.1 0,0.2 v 0.9 c 0,0 0,0 0.1,0 0.1,0 0.1,0 0.2,0 0.2,0 0.3,0.2 0.3,0.4 0,0.3 -0.2,0.5 -0.5,0.6 h -0.1 c -0.2,0.6 -0.6,1.2 -1.1,1.6 v 0.2 l 1.7,0.5 c 0.3,0.1 0.5,0.3 0.7,0.6 0,0 0.1,0 0.1,0 v -8.9 z"
         class="st15" />
      <path
         style="fill:#c4db9b;stroke-width:0.62508523"
         inkscape:connector-curvature="0"
         id="path438"
         d="m 160.5,28.8 -1.7,-0.5 v -0.2 c 0.5,-0.4 1,-1 1.1,-1.6 h 0.1 c 0.3,-0.1 0.5,-0.3 0.5,-0.6 0,-0.2 -0.1,-0.3 -0.3,-0.4 0,0 -0.1,0 -0.2,0 0,0 0,0 -0.1,0 v -0.9 c 0,-0.1 0,-0.1 0,-0.2 -0.1,-0.7 -0.4,-1.3 -1,-1.5 0,0 -0.1,0 -0.1,0 -0.1,0 -0.3,-0.1 -0.4,-0.1 -0.1,0 -0.2,0 -0.3,0 -0.1,0 -0.1,0 -0.2,0 0,0 0,0 -0.1,0 -1.1,0.3 -2.1,1.5 -2,2.7 v 0.9 c -0.3,0.1 -0.5,0.3 -0.5,0.6 0,0.1 0,0.1 0,0.1 0,0 0,0.1 0.1,0.1 0,0 0,0 0,0 0,0 0.1,0.1 0.1,0.1 0.1,0 0.1,0 0.2,0 h 0.1 c 0.2,0.5 0.5,0.8 0.9,1 0,0 0.1,0 0.1,0 0,0 0.1,0 0.1,0 v 0.2 l -1.7,1.3 c -0.4,0.3 -0.6,0.7 -0.8,1.1 2.1,-0.6 4.3,-1.2 6.5,-1.7 0.1,-0.1 -0.1,-0.3 -0.4,-0.4 z"
         class="st4" />
    </g>
  </g>
</svg>
