<?xml version="1.0" encoding="utf-8"?>
<!-- Generator: Adobe Illustrator 19.2.1, SVG Export Plug-In . SVG Version: 6.00 Build 0)  -->
<svg version="1.1" id="Layer_1" xmlns="http://www.w3.org/2000/svg" xmlns:xlink="http://www.w3.org/1999/xlink" x="0px" y="0px"
	 viewBox="0 0 757 618.2" style="enable-background:new 0 0 757 618.2;" xml:space="preserve">
<style type="text/css">
	.st0{fill:#D3E5F7;}
	.st1{fill:#E9F1FB;}
	.st2{fill:#BCD4F0;}
	.st3{fill:#658AC7;}
	.st4{fill:#88B3E0;}
	.st5{fill:#FFFFFF;}
	.st6{fill:#16262D;}
	.st7{fill:#F3A6AF;}
	.st8{fill:#E74249;}
	.st9{fill:#C8D2D8;}
	.st10{fill:#A31318;}
	.st11{fill:#14252C;}
	.st12{fill:#94A5B0;}
	.st13{fill:#354B54;}
	.st14{fill:#F29100;}
	.st15{fill:#FCC200;}
	.st16{enable-background:new    ;}
	.st17{fill:#006633;}
	.st18{fill:#8EC9A8;}
	.st19{fill:#4CAF5B;}
	.st20{fill:#FFE500;}
	.st21{fill:#C6C19C;}
	.st22{fill:#0061A6;}
</style>
<g>
	<g>
		<g>
			<path class="st0" d="M476.6,37c-35.1-20.3-91.8-20.3-126.7,0c-34.9,20.3-34.7,53.1,0.4,73.4l12.7,7.4l126.3-73.4L476.6,37z"/>
			<path class="st0" d="M540.5,242.3l0,94.7l50.2,29.1V174.2l-66.3,38.5C535,221.6,540.4,231.9,540.5,242.3z"/>
			<polygon class="st0" points="551.2,80.4 424.9,153.8 463.5,176.2 589.8,102.8 			"/>
			<polygon class="st1" points="489.3,44.4 363,117.8 424.9,153.8 551.2,80.4 			"/>
			<path class="st1" d="M589.8,102.8l-126.3,73.4l50.6,29.4c3.9,2.2,7.3,4.6,10.3,7.1l66.3-38.5v-70.9L589.8,102.8z"/>
		</g>
		<g>
			<polygon class="st2" points="590.7,366.1 606.8,356.8 606.8,165.8 590.7,175.2 			"/>
			<polygon class="st0" points="590.7,103.3 590.7,175.2 606.8,165.8 606.8,94 			"/>
		</g>
	</g>
	<path class="st3" d="M633.7,183.9l-127.3-73.5c-3.7-2.1-8.3,0.5-8.3,4.8v13.6l142.4,82.2v-15.2C640.6,191,638,186.4,633.7,183.9z"
		/>
	<g>
		<path class="st4" d="M527.3,129c-1.9-1.1-3.4-0.2-3.4,2c0,2.2,1.5,4.8,3.4,5.9c1.9,1.1,3.4,0.2,3.4-2
			C530.7,132.7,529.1,130.1,527.3,129z"/>
		<path class="st5" d="M516.9,123.1c-1.9-1.1-3.4-0.2-3.4,2c0,2.2,1.5,4.8,3.4,5.9c1.9,1.1,3.4,0.2,3.4-2
			C520.3,126.8,518.8,124.2,516.9,123.1z"/>
		<path class="st6" d="M506.5,117c-1.9-1.1-3.4-0.2-3.4,2c0,2.2,1.5,4.8,3.4,5.9c1.9,1.1,3.4,0.2,3.4-2
			C509.9,120.7,508.4,118.1,506.5,117z"/>
	</g>
	<g>
		<path class="st7" d="M528.8,177.8l2.1,6.8l7.7-6.1c4.3-3.4,10.2-4,15.1-1.4l13.9,7.5c3.3,1.8,5.7,4.8,6.7,8.3l6.5,22.7
			c0.9,3.3,3.1,6.1,6,7.9l25.8,15.8c2.4,1.5,4.3,3.7,5.5,6.3l0.1,0.2c3.5,8.2,13.8,11,20.9,5.5l1.6-1.3v-39l-142.4-82.2v27
			l24.5,14.2C525.6,171.8,527.8,174.5,528.8,177.8z"/>
		<path class="st8" d="M511.2,189.6c4.9,2.6,10.8,2.1,15.1-1.3l4.7-3.7l-2.1-6.8c-1-3.3-3.2-6-6.2-7.7l-24.5-14.2v26.7L511.2,189.6z
			"/>
		<path class="st9" d="M686.8,419.2c0-0.1,0-0.1,0-0.2C686.7,419.3,686.7,419.5,686.8,419.2z"/>
		<path class="st8" d="M618,245.8l-0.1-0.2c-1.1-2.6-3-4.8-5.5-6.3l-25.8-15.8c-2.9-1.8-5.1-4.6-6-7.9l-6.5-22.7
			c-1-3.6-3.4-6.5-6.7-8.3l-13.9-7.5c-4.8-2.6-10.8-2.1-15.1,1.4l-7.7,6.1l3.8,12c0.9,3,2.9,5.6,5.5,7.3l25.3,16.8
			c2.5,1.7,4.4,4.1,5.4,6.9l11.9,34.3c1.1,3.2,3.4,5.9,6.3,7.5l26.9,14.9c5.3,2.9,11.9,2,16.3-2.2l8.4-8.3v-23.6l-1.6,1.3
			C631.9,256.8,621.6,254,618,245.8z"/>
		<path class="st10" d="M616,284.1l-26.9-14.9c-3-1.6-5.2-4.3-6.3-7.5l-11.9-34.3c-1-2.8-2.9-5.3-5.4-6.9l-25.3-16.8
			c-2.6-1.7-4.6-4.3-5.5-7.3l-3.8-12l-4.7,3.7c-4.3,3.5-10.3,4-15.1,1.3l-13-7.1v63.3L640.6,328v-54.4l-8.4,8.3
			C627.9,286.2,621.3,287.1,616,284.1z"/>
	</g>
	<path class="st1" d="M43.3,78.8l74.3,43.2v-12.2l5.6-3.3l-63.7-37L43.3,78.8z"/>
	<polygon class="st0" points="117.6,122 43.3,78.8 0,185.1 43.3,341.7 117.6,384.8 	"/>
	<path class="st9" d="M384.1,326.6l-162.7-93.9v-62.9l-103.8-59.9v62.9l-47.5-27.4c-7-4.1-12.8-0.8-12.8,7.3l-0.7,260.6
		c0,8.1,5.7,17.9,12.7,22l314,181.3c7,4.1,12.8,0.8,12.8-7.3l0.7-260.6C396.8,340.5,391.1,330.6,384.1,326.6z"/>
	<polygon class="st4" points="713.7,359 757,383.9 757,331 713.7,306 	"/>
	<polygon class="st11" points="126.5,151.6 126.5,125.4 212.4,174.9 212.4,201.1 	"/>
	<polygon class="st5" points="165.5,81.9 117.6,109.8 221.4,169.7 269.3,141.9 	"/>
	<path class="st5" d="M400.1,332.7c-2.3-4.2-5.6-7.9-9.3-10.1l-162.7-93.9l-6.7,3.9l162.7,93.9c3.7,2.1,7,5.8,9.3,10.1L400.1,332.7z
		"/>
	<path class="st12" d="M393.4,336.6c2.1,3.8,3.4,8.1,3.4,12L396,609.2c0,4-1.4,6.8-3.7,8.2l6.7-3.9c2.3-1.3,3.7-4.2,3.7-8.2
		l0.7-260.6c0-3.9-1.3-8.1-3.4-12L393.4,336.6z"/>
	<path class="st5" d="M67.7,140.5l-6.7,3.9c2.3-1.3,5.5-1.2,9.1,0.9l47.5,27.4v-7.8l-40.8-23.5C73.2,139.4,70,139.2,67.7,140.5z"/>
	<path class="st11" d="M66.2,187.2l-0.6,226c0,4.9,4,11.8,8.2,14.2l313.3,180.9l0.7-235.5L66.2,187.2z"/>
	<path class="st13" d="M228.1,174.3v23.4l34.5,19.9v-63.4L228.1,174.3z"/>
	<polygon class="st12" points="221.4,169.7 221.4,232.6 228.1,228.7 228.1,174.3 262.6,154.2 262.6,217.7 269.3,213.8 269.3,141.9 	
		"/>
	<g>
		<path class="st9" d="M198.8,142.9c0,3.3,2.1,6.7,6.5,9.2c8.8,5.1,23,5,31.9-0.1c4.4-2.5,6.6-5.9,6.6-9.2c0-3.3-2.2-6.6-6.6-9.2
			c-8.8-5.1-23.1-5.1-31.9-0.1C201,136.2,198.8,139.5,198.8,142.9z"/>
		<path class="st14" d="M221.4,95.8c-10.2,0-18.5,8.3-18.5,18.5v23.2c0,2.7,1.8,5.5,5.4,7.6c7.2,4.2,18.9,4.1,26.2,0
			c3.6-2.1,5.4-4.8,5.5-7.5v-23.2C239.9,104.1,231.6,95.8,221.4,95.8z"/>
		<path class="st15" d="M221.4,114.3c0-4.7,2.6-8.7,6.3-10.9c-1.9-1.1-4-1.7-6.3-1.7c-7,0-12.6,5.6-12.6,12.6
			c0,7,5.6,12.6,12.6,12.6V114.3z"/>
	</g>
	<g>
		<g>
			<g class="st16">
				<g>
					<path class="st5" d="M130.6,160.7c2.2,1.3,4,4.4,4,6.9c0,2.6-1.8,3.6-4,2.3c-2.2-1.3-4-4.4-4-6.9
						C126.5,160.5,128.4,159.4,130.6,160.7z"/>
				</g>
			</g>
		</g>
		<g>
			<g class="st16">
				<g>
					<path class="st5" d="M146,169.5c2.2,1.3,4,4.4,4,6.9c0,2.6-1.8,3.6-4,2.3c-2.2-1.3-4-4.4-4-6.9
						C142,169.3,143.8,168.3,146,169.5z"/>
				</g>
			</g>
		</g>
	</g>
	<path class="st12" d="M171.6,193.6l36.3,21c2,1.2,4.5-0.3,4.5-2.6v-10.9l-44.6-25.7v11.7C167.8,189.8,169.2,192.3,171.6,193.6z"/>
	<g>
		<path class="st6" d="M382.5,341.3c-2.9-1.7-5.2-0.3-5.3,3c0,3.3,2.3,7.4,5.2,9c2.9,1.7,5.2,0.3,5.3-3
			C387.7,347.1,385.4,343,382.5,341.3z"/>
		<path class="st5" d="M366.5,332.3c-2.9-1.7-5.2-0.3-5.3,3c0,3.3,2.3,7.4,5.2,9c2.9,1.7,5.2,0.3,5.3-3
			C371.8,338.1,369.4,334,366.5,332.3z"/>
		<path class="st12" d="M350.5,323c-2.9-1.7-5.2-0.3-5.3,3c0,3.3,2.3,7.4,5.2,9c2.9,1.7,5.2,0.3,5.3-3
			C355.8,328.7,353.5,324.6,350.5,323z"/>
	</g>
	<g>
		<path class="st17" d="M295.4,526.6c-2.9-1.7-5.2-0.3-5.3,3c0,3.3,2.3,7.4,5.2,9c2.9,1.7,5.2,0.3,5.3-3
			C300.6,532.4,298.3,528.3,295.4,526.6z"/>
		<path class="st18" d="M279.4,517.7c-2.9-1.7-5.2-0.3-5.3,3c0,3.3,2.3,7.4,5.2,9c2.9,1.7,5.2,0.3,5.3-3
			C284.6,523.4,282.3,519.3,279.4,517.7z"/>
		<path class="st5" d="M263.4,508.3c-2.9-1.7-5.2-0.3-5.3,3c0,3.3,2.3,7.4,5.2,9c2.9,1.7,5.2,0.3,5.3-3
			C268.6,514,266.3,509.9,263.4,508.3z"/>
	</g>
	<polygon class="st19" points="126.5,140.3 126.5,136.7 212.4,186.2 212.4,189.8 	"/>
	<polygon class="st19" points="74.5,256.1 74.5,259.7 246.2,358.8 246.2,355.2 	"/>
	<polygon class="st19" points="74.5,310 74.5,313.6 246.2,412.7 246.2,409.1 	"/>
	<g>
		<g class="st16">
			<g>
				<path class="st18" d="M169.5,156c3.5,2,6.3,6.9,6.3,11c0,4-2.9,5.6-6.4,3.6c-3.5-2-6.3-6.9-6.3-11
					C163.1,155.6,166,153.9,169.5,156z"/>
			</g>
		</g>
	</g>
	<path class="st19" d="M108.8,332.2h3.1V227.4l-3.1-1.8V332.2z"/>
	<path class="st19" d="M158.8,361.2v102l3.1,1.8V362.2L158.8,361.2z"/>
	<path class="st5" d="M66.1,173.3l0,13.8l51.5,29.7l-7.7-20.8c-1.7-4.5-4.9-8.3-9-10.7l-27.7-16C70,167.5,66.2,169.8,66.1,173.3z"/>
	<polygon class="st5" points="258.1,312.6 374.2,379.6 374.2,516.8 258.1,449.8 	"/>
	<g>
		<path class="st17" d="M266.1,326.3l100.2,57.8v118.9l-6.3-3.6c-1.7-7.3-5.5-14.9-10.7-21l-22.3-26.3l0-2.7
			c7.2,0.6,12.8-3.1,15.2-10.3c0.4,0.4,0.9,0.7,1.3,0.9c3.4,2,6.2,0.4,6.3-3.5c0-3.9-2.8-8.8-6.2-10.8l0-12.7
			c0-17.2-12.1-38.2-27.1-46.9c-15-8.7-27.2-1.7-27.2,15.5l0,12.7c-3.4-2-6.2-0.4-6.3,3.6c0,3.9,2.8,8.7,6.2,10.7
			c0.4,0.3,0.9,0.5,1.3,0.6c2.4,10,8,20.2,15.2,27.9l0,2.7l-22.4,0.5c-5.2,0.1-9.1,3.3-10.8,8.6l-6.4-3.7V326.3z"/>
		<path class="st18" d="M283.3,440.3l22.4-0.5l0-2.7c-7.2-7.7-12.8-17.9-15.2-27.9c-0.4-0.1-0.9-0.4-1.3-0.6
			c-3.4-2-6.2-6.8-6.2-10.7c0-3.9,2.8-5.5,6.3-3.6l0-12.7c0-17.2,12.2-24.2,27.2-15.5c15,8.7,27.1,29.6,27.1,46.9l0,12.7
			c3.4,2,6.2,6.8,6.2,10.8c0,3.9-2.8,5.5-6.3,3.5c-0.5-0.3-0.9-0.6-1.3-0.9c-2.4,7.2-8.1,11-15.2,10.3l0,2.7l22.3,26.3
			c5.2,6.2,9,13.7,10.7,21l-87.5-50.5C274.2,443.6,278,440.4,283.3,440.3z"/>
	</g>
	<path class="st0" d="M514.5,279c-34.9,20.3-91.6,20.3-126.7,0l-159.7-92.8v42.5l162.7,93.9c3.7,2.1,7,5.8,9.3,10.1
		c2.1,3.8,3.4,8.1,3.4,12l-0.6,204.2c34.8,12.9,81.3,10.5,111.6-7c17.4-10.1,26.1-23.4,26-36.7V242.3
		C540.6,255.6,531.9,268.9,514.5,279z"/>
	<g>
		<polygon class="st1" points="590.7,103.3 606.8,94 567.3,71 551.2,80.4 		"/>
		<polygon class="st5" points="489.3,44.4 551.2,80.4 567.3,71 505.4,35 		"/>
	</g>
	<g>
		<path class="st0" d="M506.3,265c11.5-6.7,18-14.9,18-22.6c0-7.8-6.7-16.1-18.4-22.8l-6.7-3.9L406,269.9
			C436.4,282.1,479.6,280.5,506.3,265z"/>
		<path class="st0" d="M342.2,124.4c-22.2-12.8-34.5-30.9-34.5-50.8v140.1l35.5,20.7l94.1-54.7L342.2,124.4z"/>
		<path class="st1" d="M343.2,234.4l52.6,30.6c3.2,1.8,6.6,3.4,10.2,4.9l93.2-54.2l-61.9-36L343.2,234.4z"/>
	</g>
	<g>
		<path class="st17" d="M327.9,419.8c-2.1-1.2-3.9-0.2-3.9,2.2c0,2.5,1.7,5.4,3.8,6.7c2.1,1.2,3.9,0.2,3.9-2.2
			C331.8,424,330.1,421,327.9,419.8z"/>
		<path class="st17" d="M304.4,406.3c-2.1-1.2-3.9-0.2-3.9,2.2c0,2.5,1.7,5.4,3.8,6.7c2.1,1.2,3.9,0.2,3.9-2.2
			C308.3,410.5,306.6,407.5,304.4,406.3z"/>
	</g>
	<path class="st17" d="M309.9,423.3c0,4,2.8,8.8,6.3,10.9c3.5,2,6.3,0.4,6.3-3.6L309.9,423.3z"/>
	<g>
		<path class="st18" d="M95.1,232.7c3,1.7,5.5,6,5.4,9.5c0,8.1-11,3.5-11,6.6c0-3.1-11-11.2-10.9-19.2c0-3.5,2.5-4.9,5.5-3.1
			c3,1.7,5.5,6,5.5,9.5C89.6,232.3,92.1,230.9,95.1,232.7z"/>
	</g>
	<g>
		<path class="st18" d="M90.9,283.7l0,6.9l1.2,0.7l0-1c0-2.1,1.5-2.9,3.3-1.9c1.4,0.8,2.7,2.5,3.1,4.3l2.7,10.3
			c0.9,3.4-1,5.4-3.6,3.8l-0.1,0c-1.3-0.8-2.4-2.3-3-4c-0.3-0.9-0.8-1.8-1.4-2.6c-0.6-0.9-1.1-2-1.1-2.9l0-3.1l-5-2.9l0,3.1
			c0,0.9-0.5,1.5-1.1,1.6c-0.6,0.1-1.1,0.5-1.4,1c-0.6,1-1.7,1.3-3,0.5l-0.1,0c-2.7-1.5-4.5-5.6-3.6-8l2.8-7.1
			c0.5-1.2,1.7-1.5,3.1-0.7c1.9,1.1,3.3,3.6,3.3,5.7l0,1l1.2,0.7l0-6.9L90.9,283.7z"/>
	</g>
	<g>
		<g>
			<path class="st18" d="M125.6,238.1c4.3,2.5,7,8,6.5,11.7c-0.5,4-5.1,3.1-5.9,3.4l5.7,3.1l0,5.7l-12.7-7.4l0-3.1
				c0.5-4.2,4.6-3.2,7-4.4c1-0.5,0.7-2.2-0.6-3c-0.8-0.5-1.2,0-1.2,0.9l-5.3-3.1C119.3,237.7,121.8,235.9,125.6,238.1z"/>
		</g>
		<g>
			<path class="st18" d="M154.6,265.9c0.7,1.4,1,2.9,1,4.3c0,1.5-0.3,2.6-1.1,3.2c-0.4,0.4-1,0.5-1.6,0.4c-0.6,0-1.4-0.3-2.1-0.7
				c-0.8-0.4-1.5-1-2.1-1.7c-0.6-0.7-1.2-1.4-1.6-2.3c-0.7-1.4-1-2.9-1-4.4c0-1.4,0.4-2.5,1.1-3.1c0.4-0.3,1-0.5,1.6-0.5
				c0.6,0.1,1.3,0.3,2.1,0.7c0.7,0.4,1.5,1,2.1,1.7C153.6,264.3,154.2,265,154.6,265.9z M151.7,269.1c0.2-0.1,0.3-0.5,0.3-0.9
				c0-0.4-0.1-0.9-0.3-1.2c0-0.1-0.2-0.4-0.8-0.8c-0.6-0.4-0.8-0.3-0.9-0.2c-0.2,0.1-0.3,0.4-0.3,0.9c0,0.5,0.1,0.9,0.3,1.2
				c0,0.1,0.2,0.4,0.9,0.8C151.5,269.3,151.7,269.1,151.7,269.1"/>
		</g>
		<g>
			<path class="st18" d="M139.8,257.9c-0.6,0-1.3-0.3-2.1-0.7c-0.8-0.4-1.5-1-2.1-1.7c-0.6-0.7-1.2-1.5-1.6-2.3
				c-0.7-1.4-1-2.9-1-4.3c0-1.4,0.3-2.5,1.1-3.1c0.4-0.3,1-0.5,1.6-0.5c0.6,0,1.3,0.3,2.1,0.7c0.8,0.4,1.5,1,2.1,1.7
				c0.6,0.7,1.2,1.5,1.6,2.3c0.7,1.4,1.1,2.9,1.1,4.4c0,1.4-0.4,2.5-1.1,3.1C141,257.8,140.5,258,139.8,257.9z M136.9,252.2
				c0,0.1,0.2,0.4,0.9,0.8c0.6,0.4,0.8,0.2,0.8,0.2c0.2-0.1,0.3-0.5,0.3-0.9c0-0.5-0.1-0.9-0.3-1.2c0-0.1-0.2-0.5-0.8-0.8
				c-0.6-0.4-0.8-0.2-0.9-0.2c-0.2,0.1-0.2,0.5-0.2,0.9C136.6,251.4,136.7,251.9,136.9,252.2"/>
		</g>
		<g>
			<polygon class="st18" points="148.6,252.2 152.9,254.7 140,266.7 135.7,264.2 			"/>
		</g>
	</g>
	<g>
		<polygon class="st5" points="246.2,441.1 220.8,426.4 220.8,428.9 246.2,443.6 		"/>
		<polygon class="st5" points="246.2,447.8 220.8,433.1 220.8,435.6 246.2,450.3 		"/>
		<polygon class="st5" points="246.2,454.4 220.8,439.7 220.8,442.3 246.2,456.9 		"/>
		<polygon class="st5" points="246.2,434.4 220.8,419.7 220.8,422.3 246.2,437 		"/>
		<polygon class="st5" points="246.2,427.8 220.8,413.1 220.8,415.6 246.2,430.3 		"/>
	</g>
	<g>
		<polygon class="st5" points="104,408.9 78.6,394.2 78.6,396.7 104,411.4 		"/>
		<polygon class="st5" points="104,415.5 78.6,400.9 78.6,403.4 104,418.1 		"/>
		<polygon class="st5" points="104,422.2 78.6,407.5 78.6,410 104,424.7 		"/>
		<polygon class="st5" points="104,402.2 78.6,387.5 78.6,390.1 104,404.7 		"/>
		<polygon class="st5" points="104,395.6 78.6,380.9 78.6,383.4 104,398.1 		"/>
	</g>
	<g>
		<polygon class="st18" points="104,380.6 78.6,365.9 78.6,373.7 104,388.4 		"/>
	</g>
	<g>
		<polygon class="st5" points="374.2,544.8 348.8,530.1 348.8,532.7 374.2,547.4 		"/>
		<polygon class="st5" points="374.2,551.5 348.8,536.8 348.8,539.3 374.2,554 		"/>
		<polygon class="st5" points="374.2,558.2 348.8,543.5 348.8,546 374.2,560.7 		"/>
		<polygon class="st5" points="374.2,538.2 348.8,523.5 348.8,526 374.2,540.7 		"/>
		<polygon class="st5" points="374.2,531.5 348.8,516.8 348.8,519.3 374.2,534 		"/>
	</g>
	<g>
		<polygon class="st18" points="283.6,502.5 258.1,487.8 258.1,490.3 283.6,505 		"/>
		<polygon class="st18" points="283.6,495.8 258.1,481.2 258.1,483.7 283.6,498.4 		"/>
	</g>
	<g>
		<polygon class="st5" points="334.4,509 258.1,465 258.1,472.6 334.4,516.6 		"/>
	</g>
	<polygon class="st5" points="155.6,342.8 119.1,321.7 119.1,325.3 155.6,346.4 	"/>
	<path class="st18" d="M131.5,328.9l3.1,1.8v-31.2l-3.1-1.8V328.9z M122.5,323.7l3.1,1.8v-22.2l-3.1-1.8V323.7z M149.5,314.4v24.9
		l3.1,1.8v-24.9L149.5,314.4z M140.5,334.1l3.1,1.8v-13.2l-3.1-1.8V334.1z"/>
	<polygon class="st5" points="161.9,257 161.9,292.2 246.2,340.9 246.2,305.7 	"/>
	<polygon class="st18" points="246.2,323.7 228.2,313.3 225.2,303.9 222.8,314 219.6,291.3 216.2,306.8 214.2,295.5 210.6,303.1 
		193.4,293.2 190.5,283.8 188.1,293.9 184.8,271.2 181.4,286.7 179.4,275.4 175.8,283 161.9,275 161.9,277.6 177.2,286.4 
		178.7,283.4 181.4,298.5 184.5,284.1 187.8,306.3 191.1,292.2 192,295 212,306.5 213.5,303.4 216.2,318.5 219.3,304.1 222.5,326.3 
		225.9,312.2 226.8,315 246.2,326.2 	"/>
	<path class="st5" d="M167.8,352.4l21.4,12.4v-2.5l-21.4-12.4V352.4z M167.8,345.7l21.4,12.4v-2.5l-21.4-12.4V345.7z M222.7,377.3
		l21.4,12.4v-2.5l-21.4-12.4V377.3z M167.8,331.5l21.4,12.4v-8.3l-21.4-12.4V331.5z M222.7,370.6l21.4,12.4v-2.5l-21.4-12.4V370.6z
		 M222.7,354.8v2.5l21.4,12.4v-2.5L222.7,354.8z M222.7,364l21.4,12.4v-2.5l-21.4-12.4V364z M197.2,349.4l17.4,10v-2.5l-17.4-10
		V349.4z M197.2,342.7l17.4,10v-2.5l-17.4-10V342.7z M222.7,383.9l10.6,6.1v-2.5l-10.6-6.1V383.9z M197.2,362.7l17.4,10v-2.5
		l-17.4-10V362.7z M197.2,369.4l17.4,10v-2.5l-17.4-10V369.4z M197.2,356l17.4,10v-2.5l-17.4-10V356z"/>
	<g>
		<path class="st18" d="M90.9,337.4l0,8.3l3.1,1.8c-0.1-0.8-0.2-1.6-0.4-2.4c-0.9-3.1,0.9-4.5,2.9-3.4c0.6,0.4,1.3,1,1.9,1.9
			c0.7,1,1.3,2.1,1.8,3.3c1.9,4.4,1.9,8.9,0,11c-0.5,0.6-1.1,1-1.8,1.2c-0.6,0.2-1.3,0.1-1.9-0.3c-2-1.2-3.7-4.6-2.8-6.7
			c0.2-0.5,0.3-1.2,0.5-1.9l-3.1-1.8l0,8.3l-2.5-1.5l0-8.3l-3.1-1.8c0.1,0.8,0.2,1.6,0.5,2.4c0.9,3.1-0.9,4.5-2.9,3.4
			c-0.6-0.4-1.3-1-1.9-1.9c-0.7-1-1.3-2.1-1.8-3.3c-1.9-4.4-1.9-8.8,0-11c0.5-0.6,1.1-1,1.8-1.2c0.6-0.2,1.3-0.1,1.9,0.3
			c2,1.2,3.8,4.6,2.9,6.7c-0.2,0.5-0.4,1.2-0.5,1.8l3.1,1.8l0-8.3L90.9,337.4z"/>
	</g>
	<g>
		<path class="st18" d="M180.1,385l0,2.2c0,2-1.5,2.9-3.2,1.9l-6-3.4c-0.4-0.3-0.8,0-0.8,0.5s0.4,1.1,0.8,1.4l15.6,9
			c1.7,1,3.1,3.4,3.1,5.3c0,2-1.4,2.7-3.1,1.8l-15.6-9c-0.4-0.3-0.8,0-0.8,0.5c0,0.5,0.4,1.1,0.8,1.4l15.6,9c1.7,1,3.1,3.4,3.1,5.3
			c0,2-1.4,2.7-3.1,1.8l-5.4-3.1c-0.5-0.3-1-0.1-1,0.5l0,2.2l-2.2-1.3l0-2.2c0-2,1.5-2.9,3.2-1.9l5.4,3.1c0.5,0.3,0.8,0.1,0.8-0.5
			s-0.4-1.1-0.8-1.4l-15.6-9c-1.7-1-3.1-3.3-3-5.3c0-2,1.4-2.7,3.1-1.8l15.6,9c0.5,0.3,0.8,0.1,0.8-0.5c0-0.5-0.4-1.1-0.8-1.4
			l-15.6-9c-1.7-1-3.1-3.3-3-5.3s1.4-2.7,3.1-1.8l6,3.4c0.5,0.3,1,0.1,1-0.5l0-2.2L180.1,385z"/>
	</g>
	<g>
		<path class="st17" d="M168.4,444.8c-0.4-2.2-0.7-4.3-0.6-6.4c0-13.8,9.8-19.4,21.8-12.5v25.1L168.4,444.8z"/>
		<path class="st18" d="M189.6,450.9l-14.5,10.4c-3.2-5.2-5.6-10.9-6.7-16.5L189.6,450.9z"/>
		<path class="st5" d="M189.7,425.9C189.7,425.8,189.6,425.8,189.7,425.9l-0.1,25.1l-14.5,10.4c3.8,6.2,8.9,11.5,14.4,14.7
			c4.6,2.6,8.8,3.5,12.3,2.7c5.7-1.2,9.5-6.6,9.6-15.2C211.5,449.7,201.8,432.8,189.7,425.9z"/>
	</g>
	<g>
		<polygon class="st13" points="429.7,399.2 403.3,383.9 403.3,386.6 429.7,401.8 		"/>
		<polygon class="st13" points="429.7,406.1 403.3,390.9 403.3,393.5 429.7,408.7 		"/>
		<polygon class="st13" points="429.7,413 403.3,397.8 403.3,400.4 429.7,415.6 		"/>
		<polygon class="st13" points="429.7,392.3 403.3,377 403.3,379.6 429.7,394.9 		"/>
		<polygon class="st13" points="429.7,385.3 403.3,370.1 403.3,372.7 429.7,388 		"/>
	</g>
	<path class="st5" d="M531,180.7c-1.9-1.1-3.4-0.2-3.4,2c0,2.2,1.5,4.8,3.4,5.9c1.9,1.1,3.4,0.2,3.4-2
		C534.4,184.4,532.9,181.8,531,180.7z"/>
	<path class="st5" d="M590.7,222c-1.9-1.1-3.4-0.2-3.4,2c0,2.2,1.5,4.8,3.4,5.9c1.9,1.1,3.4,0.2,3.4-2
		C594.1,225.7,592.6,223.1,590.7,222z"/>
	<path class="st5" d="M597.5,269.7c-1.9-1.1-3.4-0.2-3.4,2c0,2.2,1.5,4.8,3.4,5.9c1.9,1.1,3.4,0.2,3.4-2
		C600.9,273.4,599.4,270.8,597.5,269.7z"/>
	<g>
		<g>
			<polygon class="st15" points="391.7,309.9 391.7,281 375.3,271.5 375.3,297.3 382.5,299.1 			"/>
			<path class="st14" d="M390.8,322.7c0.3,0.2,0.6,0.5,0.9,0.7v-13.4l-9.2-10.9l-7.2-1.8v16.5L390.8,322.7z"/>
			<polygon class="st15" points="410.7,291.9 394.3,282.4 394.3,312.9 410.7,332.3 			"/>
			<path class="st14" d="M400.1,332.7c2.1,3.8,3.4,8.1,3.4,12l0,16.3l7.2,4.2v-32.9l-16.4-19.4v12.4
				C396.5,327.4,398.5,329.9,400.1,332.7z"/>
			<polygon class="st15" points="353.7,292 353.7,259 337.3,249.5 337.3,278 348.7,290.7 			"/>
			<polygon class="st14" points="353.7,301.3 353.7,292 348.7,290.7 337.3,278 337.3,291.8 			"/>
			<polygon class="st15" points="372.7,270 356.3,260.5 356.3,292.6 372.7,296.7 			"/>
			<polygon class="st14" points="372.7,312.3 372.7,296.7 356.3,292.6 356.3,302.8 			"/>
			<polygon class="st15" points="429.7,349.3 429.7,302.9 413.2,293.4 413.2,335.3 421.5,344.9 			"/>
			<polygon class="st14" points="429.7,376.1 429.7,349.3 421.5,344.9 413.2,335.3 413.2,366.6 			"/>
		</g>
		<polygon class="st20" points="410.7,291.9 410.7,365.2 413.2,366.6 413.2,293.4 		"/>
		<path class="st20" d="M391.7,281v42.4c0.9,0.6,1.7,1.2,2.5,2v-42.9L391.7,281z"/>
		<polygon class="st20" points="372.7,270 372.7,312.3 375.3,313.7 375.3,271.5 		"/>
		<polygon class="st20" points="353.7,259 353.7,301.3 356.3,302.8 356.3,260.5 		"/>
	</g>
	<path class="st5" d="M352.1,280.5c0-2.2-1.5-4.8-3.4-5.9c-1.9-1.1-3.4-0.2-3.4,2c0,5.3,3.4,14.2,3.4,14.2S352.1,285.3,352.1,280.5z
		"/>
	<path class="st5" d="M385.9,288.8c0-2.2-1.5-4.8-3.4-5.9c-1.9-1.1-3.4-0.2-3.4,2c0,5.3,3.4,14.2,3.4,14.2S385.9,293.6,385.9,288.8z
		"/>
	<path class="st5" d="M424.9,334.7c0-2.2-1.5-4.8-3.4-5.9c-1.9-1.1-3.4-0.2-3.4,2c0,5.3,3.4,14.2,3.4,14.2S424.9,339.5,424.9,334.7z
		"/>
	<g>
		<g>
			<path class="st17" d="M145,386.6c2.5,1.4,4.5,5,4.5,7.8l0,0.1c0,2.9-2,4-4.5,2.6l-11.9-6.9c-2.5-1.4-4.5-4.9-4.5-7.8l0-0.1
				c0-2.9,2.1-4,4.5-2.6L145,386.6z"/>
		</g>
		<g>
			<path class="st17" d="M145.1,372c2.5,1.4,4.5,4.9,4.5,7.8l0,0.1c0,2.9-2,4-4.5,2.6l-11.9-6.9c-2.5-1.4-4.5-4.9-4.5-7.8l0-0.1
				c0-2.9,2.1-4,4.5-2.6L145.1,372z"/>
		</g>
		<g>
			<path class="st18" d="M145,401.2c2.5,1.4,4.5,4.9,4.5,7.8l0,0.1c0,2.9-2,4-4.5,2.6l-11.9-6.9c-2.5-1.4-4.5-4.9-4.5-7.8l0-0.1
				c0-2.9,2.1-4,4.5-2.6L145,401.2z"/>
		</g>
		<g>
			<path class="st18" d="M145,415.9c2.5,1.4,4.5,4.9,4.5,7.8l0,0.1c0,2.9-2,4-4.5,2.6l-11.9-6.9c-2.5-1.4-4.5-4.9-4.5-7.8l0-0.1
				c0-2.9,2.1-4,4.5-2.6L145,415.9z"/>
		</g>
		<g>
			<path class="st5" d="M144.9,430.5c2.5,1.4,4.5,4.9,4.5,7.8l0,0.1c0,2.9-2,4-4.5,2.6l-11.9-6.9c-2.5-1.4-4.5-4.9-4.5-7.8l0-0.1
				c0-2.9,2.1-4,4.5-2.6L144.9,430.5z"/>
		</g>
		<g>
			<path class="st5" d="M144.9,445.2c2.5,1.4,4.5,4.9,4.5,7.8l0,0.1c0,2.9-2,4-4.5,2.6l-11.9-6.9c-2.5-1.4-4.5-4.9-4.5-7.8l0-0.1
				c0-2.9,2.1-4,4.5-2.6L144.9,445.2z"/>
		</g>
	</g>
	<path class="st18" d="M222.1,495.3l-20-31.2c0-0.2,0.1-0.3,0.1-0.5c0-1.8-1.2-3.9-2.8-4.8c-1.5-0.9-2.8-0.2-2.8,1.6
		c0,1.8,1.2,3.9,2.8,4.8c0.4,0.2,0.8,0.3,1.1,0.4l20.2,31.5l25.4,14.7v-2.5L222.1,495.3z"/>
	<g>
		<g>
			<polygon class="st17" points="220.8,465.7 220.8,465.7 220.8,465.7 			"/>
		</g>
		<g>
			<path class="st17" d="M227.4,463.4l5.6,3.2l-0.1,24.6l-6.7-3.9l0-15.4c-1.4,0.3-2.5,0.1-2.5,0.1l-3-6.4
				C221.5,466.1,226.4,465.4,227.4,463.4z"/>
		</g>
		<g>
			<polygon class="st17" points="233.9,473.3 233.9,473.3 234,473.3 			"/>
		</g>
		<g>
			<path class="st17" d="M240.5,471l5.6,3.3l-0.1,24.6l-6.7-3.9l0-15.4c-1.4,0.3-2.5,0.1-2.5,0.1l-3-6.4
				C234.6,473.7,239.5,473,240.5,471z"/>
		</g>
	</g>
	<g>
		<g>
			<path class="st1" d="M350.3,110.4C315.2,90.2,315,57.3,349.9,37c34.9-20.3,91.6-20.3,126.7,0l12.7,7.4l16.1-9.4l-20.7-12
				c-40.2-23.2-103-23.2-142.9,0c-22,12.8-34.1,30.8-34.1,50.6c0,19.9,12.3,38,34.5,50.8l95.2,55.3l16.1-9.4L350.3,110.4z"/>
		</g>
		<path class="st1" d="M515.3,206.4l-16.1,9.3l6.7,3.9c11.7,6.7,18.4,15.1,18.4,22.8c0,7.7-6.6,15.9-18,22.6
			c-29.8,17.3-80.5,17.3-110.5,0l-161.9-94.1l-5.9,3.4v11.9L387.7,279c35.1,20.3,91.9,20.3,126.7,0
			C548.9,259,549.1,226.7,515.3,206.4z"/>
		<polygon class="st5" points="499.3,215.7 499.3,215.7 494.6,213 		"/>
		<path class="st5" d="M514,205.6l-60.6-35.2l-16.1,9.4l57.3,33.3l4.6,2.7l16.1-9.3C514.9,206.1,514.5,205.8,514,205.6z"/>
	</g>
	<g>
		<path class="st5" d="M391.9,82.2c-27-15.6-49-3.1-49.1,28c-0.1,31.2,21.8,68.9,48.8,84.6c10.4,6,20,7.8,28,6.1l-27.7-62.3V82.2z"
			/>
		<path class="st21" d="M435.5,138.5c-8-23-24.5-45.2-43.7-56.3v56.3H435.5z"/>
		<path class="st13" d="M440.7,166.8L440.7,166.8l-48.8-28.3l27.7,62.3C432.3,198.1,440.6,186,440.7,166.8z"/>
		<path class="st19" d="M391.9,138.5l48.8,28.3c0-9.1-1.9-18.7-5.2-28.3H391.9z"/>
	</g>
	<g>
		<path class="st15" d="M673.3,212.5l42.2,24.3c2.9,1.7,6.5-0.4,6.5-3.8v-52.4c0-3.2-1.7-6.2-4.5-7.8l-42.2-24.3
			c-2.9-1.7-6.5,0.4-6.5,3.8v52.4C668.8,207.9,670.5,210.9,673.3,212.5z"/>
		<polygon class="st5" points="716.4,225.6 674.3,201.3 674.3,205.4 716.4,229.7 		"/>
		<polygon class="st4" points="689.9,210.3 693.6,212.4 693.6,167 689.9,164.9 		"/>
		<polygon class="st22" points="683.4,206.5 687,208.6 687,179 683.4,176.9 		"/>
		<polygon class="st4" points="676.8,202.7 680.5,204.8 680.5,164.9 676.8,162.8 		"/>
		<polygon class="st22" points="709.7,184.1 709.7,221.7 713.3,223.8 713.3,186.2 		"/>
		<polygon class="st4" points="703.1,217.9 706.7,220 706.7,199.9 703.1,197.7 		"/>
		<polygon class="st22" points="696.5,214.1 700.2,216.2 700.2,180 696.5,177.9 		"/>
	</g>
	<path class="st3" d="M321.1,221.5l124.8,72v-14.2c0-4.9-2.6-9.5-6.9-12l-109.6-63.3c-3.7-2.1-8.3,0.5-8.3,4.8V221.5z"/>
	<polygon class="st5" points="321.1,221.5 321.1,282.5 337.3,291.8 337.3,249.5 429.7,302.9 429.7,376.1 403.5,361 403.4,417.7 
		445.9,442.2 445.9,293.6 	"/>
	<g>
		<path class="st4" d="M352.1,224.3c-1.9-1.1-3.4-0.2-3.4,2c0,2.2,1.5,4.8,3.4,5.9c1.9,1.1,3.4,0.2,3.4-2
			C355.5,228.1,354,225.4,352.1,224.3z"/>
		<path class="st5" d="M341.7,218.5c-1.9-1.1-3.4-0.2-3.4,2c0,2.2,1.5,4.8,3.4,5.9c1.9,1.1,3.4,0.2,3.4-2
			C345.1,222.2,343.6,219.6,341.7,218.5z"/>
		<path class="st6" d="M331.3,212.4c-1.9-1.1-3.4-0.2-3.4,2c0,2.2,1.5,4.8,3.4,5.9c1.9,1.1,3.4,0.2,3.4-2
			C334.7,216.1,333.2,213.5,331.3,212.4z"/>
	</g>
</g>
</svg>
