<?xml version="1.0" encoding="UTF-8" standalone="no"?>
<!-- Created with Inkscape (http://www.inkscape.org/) -->

<svg
   xmlns:dc="http://purl.org/dc/elements/1.1/"
   xmlns:cc="http://creativecommons.org/ns#"
   xmlns:rdf="http://www.w3.org/1999/02/22-rdf-syntax-ns#"
   xmlns:svg="http://www.w3.org/2000/svg"
   xmlns="http://www.w3.org/2000/svg"
   xmlns:sodipodi="http://sodipodi.sourceforge.net/DTD/sodipodi-0.dtd"
   xmlns:inkscape="http://www.inkscape.org/namespaces/inkscape"
   width="360.22928"
   height="290.8407"
   viewBox="0 0 95.31066 76.951606"
   version="1.1"
   id="svg8"
   inkscape:version="0.92.0 r15299"
   sodipodi:docname="helth dashboard.svg">
  <defs
     id="defs2" />
  <sodipodi:namedview
     id="base"
     pagecolor="#ffffff"
     bordercolor="#666666"
     borderopacity="1.0"
     inkscape:pageopacity="0.0"
     inkscape:pageshadow="2"
     inkscape:zoom="1.4"
     inkscape:cx="32.135225"
     inkscape:cy="138.86449"
     inkscape:document-units="px"
     inkscape:current-layer="layer1"
     showgrid="false"
     units="px"
     inkscape:window-width="1920"
     inkscape:window-height="1017"
     inkscape:window-x="-8"
     inkscape:window-y="-8"
     inkscape:window-maximized="1"
     fit-margin-top="0"
     fit-margin-left="0"
     fit-margin-right="0"
     fit-margin-bottom="0" />
  <metadata
     id="metadata5">
    <rdf:RDF>
      <cc:Work
         rdf:about="">
        <dc:format>image/svg+xml</dc:format>
        <dc:type
           rdf:resource="http://purl.org/dc/dcmitype/StillImage" />
        <dc:title></dc:title>
      </cc:Work>
    </rdf:RDF>
  </metadata>
  <g
     inkscape:label="Layer 1"
     inkscape:groupmode="layer"
     id="layer1"
     transform="translate(-4.4108878,-206.89677)">
    <g
       id="g110"
       transform="matrix(0.45491095,0,0,0.45491095,-78.649028,185.81433)"
       style="stroke-width:0.58161569">
      <path
         style="fill:#eaf2fb;stroke-width:0.58161569"
         inkscape:connector-curvature="0"
         id="path104"
         d="m 361,55.6 -2.6,1.2 c 11.1,9 19.2,18.9 24.2,29.1 h 3.4 c -5.1,-10.7 -13.4,-21 -25,-30.3 z"
         class="st1" />
      <path
         style="fill:#eaf2fb;stroke-width:0.58161569"
         inkscape:connector-curvature="0"
         id="path106"
         d="m 388.4,105.4 c 0.2,2 0.4,4 0.4,6 h 3.3 c 0,-2 -0.1,-4 -0.4,-6 z"
         class="st1" />
      <path
         style="fill:#ffffff;stroke-width:0.58161569"
         inkscape:connector-curvature="0"
         id="path108"
         d="m 386,85.9 h -3.4 c 3.1,6.4 5.1,12.9 5.8,19.5 h 3.3 C 391,98.8 389.1,92.3 386,85.9 Z"
         class="st2" />
    </g>
    <g
       id="g126"
       transform="matrix(0.45491095,0,0,0.45491095,-78.649028,185.81433)"
       style="stroke-width:0.58161569">
      <g
         id="g122"
         style="stroke-width:0.58161569">
        <path
           style="fill:#d4e5f7;stroke-width:0.58161569"
           inkscape:connector-curvature="0"
           id="path112"
           d="m 380.1,81.3 -12.6,20.5 c 1.2,1.2 2.4,2.5 3.5,3.7 l 11.6,-19.7 c -0.8,-1.4 -1.6,-3 -2.5,-4.5 z"
           class="st0" />
        <path
           style="fill:#d4e5f7;stroke-width:0.58161569"
           inkscape:connector-curvature="0"
           id="path114"
           d="m 380.3,118.5 c 5.6,9.6 8.4,19.7 8.5,29.8 v -36.9 c 0,-2 -0.1,-4 -0.4,-6 z"
           class="st0" />
        <path
           style="fill:#d4e5f7;stroke-width:0.58161569"
           inkscape:connector-curvature="0"
           id="path116"
           d="m 358.4,56.8 -5.8,15.1 5.8,21.8 c 1.7,1.3 3.2,2.7 4.8,4.1 L 376.3,75.5 C 371.6,68.9 365.7,62.7 358.4,56.8 Z"
           class="st0" />
        <path
           style="fill:#eaf2fb;stroke-width:0.58161569"
           inkscape:connector-curvature="0"
           id="path118"
           d="M 382.6,85.9 371,105.6 c 3.7,4.2 6.8,8.5 9.3,12.9 l 8.1,-13.1 c -0.8,-6.6 -2.7,-13.1 -5.8,-19.5 z"
           class="st1" />
        <path
           style="fill:#eaf2fb;stroke-width:0.58161569"
           inkscape:connector-curvature="0"
           id="path120"
           d="m 376.3,75.4 -13.1,22.3 c 1.5,1.4 3,2.8 4.3,4.2 l 12.6,-20.5 c -1.1,-2.1 -2.4,-4 -3.8,-6 z"
           class="st1" />
      </g>
      <rect
         style="fill:#ffffff;stroke-width:0.58161569"
         id="rect124"
         height="25.6"
         width="3.3"
         class="st2"
         y="111.4"
         x="388.79999" />
    </g>
    <path
       style="fill:#c4db9b;stroke-width:0.26458335"
       inkscape:connector-curvature="0"
       id="path302"
       d="m 88.894677,216.83925 c -0.136517,-0.13651 -0.272947,-0.22745 -0.454923,-0.36392 -0.136516,-0.13651 -0.227453,-0.36393 -0.227453,-0.63687 v -3.27536 c 0,-0.36394 0.227453,-0.59139 0.409429,-0.40943 1.13728,0.86433 2.229066,1.81965 3.275361,2.82045 1.000794,1.0008 2.001599,2.00161 2.865931,3.04791 0.181971,0.22745 0.272945,0.54589 0.272945,0.9553 v 13.10143 c 0,0.36394 -0.227457,0.5459 -0.409417,0.36394 -0.864333,-1.0008 -1.774152,-1.95612 -2.774957,-2.91143 -0.864332,-0.81883 -1.774159,-1.63768 -2.683971,-2.36555 -0.181975,-0.13651 -0.272945,-0.4549 -0.272945,-0.77333 z"
       class="st4" />
    <g
       id="g336"
       transform="matrix(0.45491095,0,0,0.45491095,-78.649028,185.81433)"
       style="stroke-width:0.58161569">
      <path
         style="fill:#ffffff;stroke-width:0.58161569"
         inkscape:connector-curvature="0"
         id="path304"
         d="M 374.2,75.7 C 372.8,74.4 371.4,73.2 370,72 v 0.6 c 1.4,1.2 2.8,2.5 4.2,3.7 z"
         class="st2" />
      <path
         style="fill:#354b54;stroke-width:0.58161569"
         inkscape:connector-curvature="0"
         id="path306"
         d="m 374.2,78.9 c -1.4,-1.3 -2.8,-2.5 -4.2,-3.7 v 0.6 c 1.4,1.2 2.8,2.5 4.2,3.7 z"
         class="st5" />
      <path
         style="fill:#ffffff;stroke-width:0.58161569"
         inkscape:connector-curvature="0"
         id="path308"
         d="m 374.2,74 c -1.4,-1.3 -2.8,-2.5 -4.2,-3.7 v 0.6 c 1.4,1.2 2.8,2.5 4.2,3.7 z"
         class="st2" />
      <path
         style="fill:#354b54;stroke-width:0.58161569"
         inkscape:connector-curvature="0"
         id="path310"
         d="M 374.2,80.5 C 372.8,79.2 371.4,78 370,76.8 v 0.6 c 1.4,1.2 2.8,2.5 4.2,3.7 z"
         class="st5" />
      <path
         style="fill:#354b54;stroke-width:0.58161569"
         inkscape:connector-curvature="0"
         id="path312"
         d="m 374.2,85.4 c -1.4,-1.3 -2.8,-2.5 -4.2,-3.7 v 0.6 c 1.4,1.2 2.8,2.5 4.2,3.7 z"
         class="st5" />
      <path
         style="fill:#354b54;stroke-width:0.58161569"
         inkscape:connector-curvature="0"
         id="path314"
         d="M 374.2,83.7 C 372.8,82.4 371.4,81.2 370,80 v 0.6 c 1.4,1.2 2.8,2.5 4.2,3.7 z"
         class="st5" />
      <path
         style="fill:#354b54;stroke-width:0.58161569"
         inkscape:connector-curvature="0"
         id="path316"
         d="m 374.2,82.1 c -1.4,-1.3 -2.8,-2.5 -4.2,-3.7 V 79 c 1.4,1.2 2.8,2.5 4.2,3.7 z"
         class="st5" />
      <path
         style="fill:#354b54;stroke-width:0.58161569"
         inkscape:connector-curvature="0"
         id="path318"
         d="m 380.1,96.3 c -1.3,-1.5 -2.7,-3 -4.2,-4.4 v 0.6 c 1.5,1.4 2.9,2.9 4.2,4.4 z"
         class="st5" />
      <path
         style="fill:#354b54;stroke-width:0.58161569"
         inkscape:connector-curvature="0"
         id="path320"
         d="m 380.1,94.7 c -1.3,-1.5 -2.7,-3 -4.2,-4.4 v 0.6 c 1.5,1.4 2.9,2.9 4.2,4.4 z"
         class="st5" />
      <path
         style="fill:#354b54;stroke-width:0.58161569"
         inkscape:connector-curvature="0"
         id="path322"
         d="m 380.1,93 c -1.3,-1.5 -2.7,-3 -4.2,-4.4 v 0.6 c 1.5,1.4 2.9,2.9 4.2,4.4 z"
         class="st5" />
      <path
         style="fill:#354b54;stroke-width:0.58161569"
         inkscape:connector-curvature="0"
         id="path324"
         d="m 380.1,89.8 c -1.3,-1.5 -2.7,-3 -4.2,-4.4 V 86 c 1.5,1.4 2.9,2.9 4.2,4.4 z"
         class="st5" />
      <path
         style="fill:#354b54;stroke-width:0.58161569"
         inkscape:connector-curvature="0"
         id="path326"
         d="m 380.1,88.2 c -1.3,-1.5 -2.7,-3 -4.2,-4.4 v 0.6 c 1.5,1.4 2.9,2.9 4.2,4.4 z"
         class="st5" />
      <path
         style="fill:#354b54;stroke-width:0.58161569"
         inkscape:connector-curvature="0"
         id="path328"
         d="m 380.1,86.6 c -1.3,-1.5 -2.7,-3 -4.2,-4.4 v 0.6 c 1.5,1.4 2.9,2.9 4.2,4.4 z"
         class="st5" />
      <path
         style="fill:#354b54;stroke-width:0.58161569"
         inkscape:connector-curvature="0"
         id="path330"
         d="m 380.1,85 c -1.3,-1.5 -2.7,-3 -4.2,-4.4 v 0.6 c 1.5,1.4 2.9,2.9 4.2,4.4 z"
         class="st5" />
      <path
         style="fill:#354b54;stroke-width:0.58161569"
         inkscape:connector-curvature="0"
         id="path332"
         d="m 376.8,87.9 v 0.6 c 1.1,1.2 2.3,2.3 3.3,3.5 v -0.6 c -1,-1.2 -2.2,-2.3 -3.3,-3.5 z m 3.3,10 c -1.1,-1.2 -2.2,-2.4 -3.3,-3.5 V 95 c 1.1,1.2 2.3,2.3 3.3,3.5 z"
         class="st5" />
      <path
         style="fill:#354b54;stroke-width:0.58161569"
         inkscape:connector-curvature="0"
         id="path334"
         d="m 372.1,85 c 0.7,0.6 1.4,1.3 2.1,1.9 v 0.6 c -0.7,-0.7 -1.4,-1.3 -2.1,-1.9 z"
         class="st5" />
    </g>
    <g
       id="g348"
       transform="matrix(0.45491095,0,0,0.45491095,-73.560849,205.87663)"
       style="stroke-width:0.58161569">
      <path
         style="fill:#d4e5f7;stroke-width:0.58161569"
         inkscape:connector-curvature="0"
         id="path338"
         d="m 228.8,118.4 c -2.4,-1.4 -4.4,-4.8 -4.4,-7.6 V 22.7 l -50.2,29 v 88.1 c 0,2.8 2,6.2 4.4,7.6 l 35.8,20.7 50.2,-29 z"
         class="st0" />
      <g
         id="g342"
         style="stroke-width:0.58161569">
        <path
           style="fill:#bcd5f0;stroke-width:0.58161569"
           inkscape:connector-curvature="0"
           id="path340"
           d="m 174.3,51.7 v 88.1 c 0,2.8 2,6.2 4.4,7.6 l 35.8,20.7 v 3.3 l -35.8,-20.7 c -4,-2.3 -7.2,-7.9 -7.2,-12.5 V 50.1 Z"
           class="st3" />
      </g>
      <polygon
         style="fill:#ffffff;stroke-width:0.58161569"
         id="polygon344"
         points="221.6,21.1 171.4,50.1 174.3,51.7 224.5,22.7 "
         class="st2" />
      <polygon
         style="fill:#bcd5f0;stroke-width:0.58161569"
         id="polygon346"
         points="264.7,142.4 214.5,171.4 214.5,168.1 264.7,139.1 "
         class="st3" />
    </g>
    <path
       style="fill:#ffffff;stroke-width:0.26458335"
       inkscape:connector-curvature="0"
       id="path350"
       d="m 13.281654,248.04689 v 10.37195 l 13.510856,-7.77896 v -10.37197 z"
       class="st2" />
    <polygon
       style="fill:#fdc300;stroke-width:0.58161569"
       id="polygon352"
       points="183.6,101.8 211,85.9 211,98.6 183.6,114.4 "
       class="st9"
       transform="matrix(0.45491095,0,0,0.45491095,-70.512946,203.78404)" />
    <path
       style="fill:#658bc8;stroke-width:0.26458335"
       inkscape:connector-curvature="0"
       id="path354"
       d="m 8.8690173,250.59438 v -1.0008 c 0,-0.36394 0.1819651,-0.72786 0.545893,-0.90983 l 12.2371047,-7.05112 c 0.363929,-0.18196 0.773349,0.0455 0.773349,0.45491 v 0.72787 z"
       class="st8" />
    <polygon
       style="fill:#ffffff;stroke-width:0.58161569"
       id="polygon356"
       points="199,47.3 182.4,56.9 182.4,76.5 199,67 "
       class="st2"
       transform="matrix(0.45491095,0,0,0.45491095,-74.106742,204.60288)" />
    <g
       id="g364"
       transform="matrix(0.45491095,0,0,0.45491095,-74.106742,204.60288)"
       style="stroke-width:0.58161569">
      <path
         style="fill:#152227;stroke-width:0.58161569"
         inkscape:connector-curvature="0"
         id="path358"
         d="m 184.5,97.6 c 0.3,-0.2 0.6,0 0.6,0.4 0,0.4 -0.3,0.9 -0.6,1.1 -0.3,0.2 -0.6,0 -0.6,-0.4 -0.1,-0.4 0.2,-0.9 0.6,-1.1 z"
         class="st14" />
      <path
         style="fill:#ffffff;stroke-width:0.58161569"
         inkscape:connector-curvature="0"
         id="path360"
         d="m 186.4,96.6 c 0.3,-0.2 0.6,0 0.6,0.4 0,0.4 -0.3,0.9 -0.6,1.1 -0.3,0.2 -0.6,0 -0.6,-0.4 -0.1,-0.5 0.2,-0.9 0.6,-1.1 z"
         class="st2" />
      <path
         style="fill:#8ab5e1;stroke-width:0.58161569"
         inkscape:connector-curvature="0"
         id="path362"
         d="m 188.3,95.4 c 0.3,-0.2 0.6,0 0.6,0.4 0,0.4 -0.3,0.9 -0.6,1.1 -0.3,0.2 -0.6,0 -0.6,-0.4 0,-0.4 0.2,-0.9 0.6,-1.1 z"
         class="st12" />
    </g>
    <g
       id="g382"
       transform="matrix(0.45491095,0,0,0.45491095,-74.106742,204.60288)"
       style="stroke-width:0.58161569">
      <path
         style="fill:#ffffff;stroke-width:0.58161569"
         inkscape:connector-curvature="0"
         id="path366"
         d="m 182.4,82.1 v 9.6 L 212.1,74.6 V 65 Z"
         class="st2" />
      <polygon
         style="fill:#354b54;stroke-width:0.58161569"
         id="polygon368"
         points="211,73.9 211,66.9 183.6,82.8 183.6,89.8 "
         class="st5" />
      <path
         style="fill:#ffffff;stroke-width:0.58161569"
         inkscape:connector-curvature="0"
         id="path370"
         d="m 183,86.1 -0.3,-0.4 2.4,-1.7 c 0.5,-0.3 1.1,-0.2 1.5,0.2 l 0.3,0.5 c 0.1,0.2 0.3,0.2 0.5,0.2 0.2,0 0.4,-0.1 0.4,-0.3 l 0.3,-0.7 c 0.1,-0.2 0.2,-0.4 0.4,-0.5 l 1.8,-1 c 0.1,-0.1 0.2,-0.2 0.2,-0.3 l 0.8,-2.3 c 0.1,-0.2 0.2,-0.4 0.4,-0.6 l 1,-0.7 c 0.5,-0.3 1.1,-0.2 1.4,0.3 l 1.1,1.7 c 0.2,0.2 0.5,0.3 0.7,0.2 l 1.1,-0.6 c 0.2,-0.1 0.3,-0.2 0.3,-0.4 l 0.2,-1.1 c 0,-0.3 0.2,-0.6 0.5,-0.7 l 0.9,-0.5 c 0.1,-0.1 0.2,-0.2 0.3,-0.4 l 0.2,-1.3 c 0.1,-0.4 0.4,-0.8 0.8,-0.8 0.4,-0.1 0.8,0.1 1.1,0.4 l 0.5,0.7 c 0.2,0.2 0.4,0.3 0.6,0.2 0.2,0 0.4,-0.2 0.4,-0.4 l 0.1,-0.6 c 0.1,-0.3 0.2,-0.6 0.5,-0.7 l 1,-0.6 c 0.1,-0.1 0.2,-0.2 0.2,-0.4 l 0.3,-1.5 c 0.1,-0.3 0.2,-0.5 0.5,-0.7 l 0.5,-0.3 c 0.5,-0.3 1.1,-0.2 1.4,0.3 l 1,1.5 0.2,-1.2 c 0.1,-0.3 0.2,-0.5 0.5,-0.7 l 2.4,-1.4 0.3,0.4 -2.3,1.4 c -0.1,0.1 -0.2,0.2 -0.3,0.4 l -0.3,1.2 c -0.1,0.4 -0.6,0.5 -0.9,0.2 l -1.1,-1.5 c -0.2,-0.2 -0.5,-0.3 -0.7,-0.1 l -0.5,0.3 c -0.1,0.1 -0.2,0.2 -0.2,0.4 l -0.3,1.5 c -0.1,0.3 -0.2,0.5 -0.5,0.7 l -1,0.6 c -0.1,0.1 -0.2,0.2 -0.2,0.4 l -0.1,0.6 c -0.1,0.4 -0.4,0.7 -0.8,0.8 -0.4,0.1 -0.8,-0.1 -1.1,-0.4 l -0.5,-0.7 c -0.2,-0.2 -0.4,-0.3 -0.6,-0.2 -0.2,0 -0.4,0.2 -0.4,0.4 l -0.2,1.3 c -0.1,0.3 -0.2,0.6 -0.5,0.7 l -0.9,0.5 c -0.1,0.1 -0.2,0.2 -0.3,0.4 l -0.2,1.1 c 0,0.3 -0.2,0.6 -0.5,0.8 l -1.1,0.6 c -0.5,0.3 -1.1,0.1 -1.4,-0.4 l -1.1,-1.7 C 193.5,79 193.2,78.9 192.9,79 l -1,0.7 c -0.1,0.1 -0.2,0.2 -0.2,0.3 l -0.8,2.3 c -0.1,0.2 -0.2,0.4 -0.5,0.6 l -1.8,1 c -0.1,0.1 -0.2,0.1 -0.2,0.2 l -0.3,0.7 c -0.2,0.3 -0.5,0.6 -0.8,0.6 -0.4,0 -0.7,-0.1 -1,-0.4 L 186,84.5 c -0.2,-0.2 -0.5,-0.3 -0.8,-0.1 z"
         class="st2" />
      <path
         style="fill:#e84249;stroke-width:0.58161569"
         inkscape:connector-curvature="0"
         id="path372"
         d="m 185.7,83.4 c 0.3,-0.2 0.6,0 0.6,0.4 0,0.4 -0.3,0.9 -0.6,1.1 -0.3,0.2 -0.6,0 -0.6,-0.4 0,-0.4 0.2,-0.9 0.6,-1.1 z"
         class="st6" />
      <path
         style="fill:#4db05b;stroke-width:0.58161569"
         inkscape:connector-curvature="0"
         id="path374"
         d="m 191.7,78.9 c 0.3,-0.2 0.6,0 0.6,0.4 0,0.4 -0.3,0.9 -0.6,1.1 -0.3,0.2 -0.6,0 -0.6,-0.4 -0.1,-0.4 0.2,-0.9 0.6,-1.1 z"
         class="st15" />
      <path
         style="fill:#fdc300;stroke-width:0.58161569"
         inkscape:connector-curvature="0"
         id="path376"
         d="m 197.6,79.4 c 0.3,-0.2 0.6,0 0.6,0.4 0,0.4 -0.3,0.9 -0.6,1.1 -0.3,0.2 -0.6,0 -0.6,-0.4 0,-0.4 0.2,-0.9 0.6,-1.1 z"
         class="st9" />
      <path
         style="fill:#8ab5e1;stroke-width:0.58161569"
         inkscape:connector-curvature="0"
         id="path378"
         d="m 203.4,74.2 c 0.3,-0.2 0.6,0 0.6,0.4 0,0.4 -0.3,0.9 -0.6,1.1 -0.3,0.2 -0.6,0 -0.6,-0.4 0,-0.5 0.2,-0.9 0.6,-1.1 z"
         class="st12" />
      <path
         style="fill:#c6c19d;stroke-width:0.58161569"
         inkscape:connector-curvature="0"
         id="path380"
         d="m 208.6,72.2 c 0.3,-0.2 0.6,0 0.6,0.4 0,0.4 -0.3,0.9 -0.6,1.1 -0.3,0.2 -0.6,0 -0.6,-0.4 0,-0.4 0.3,-0.9 0.6,-1.1 z"
         class="st13" />
    </g>
    <g
       id="g388"
       transform="matrix(0.45491095,0,0,0.45491095,-74.106742,204.60288)"
       style="stroke-width:0.58161569">
      <path
         style="fill:#e84249;stroke-width:0.58161569"
         inkscape:connector-curvature="0"
         id="path384"
         d="m 197.9,49.3 -14.3,8.3 v 17 l 0.9,-0.5 c 0.2,-1 0.8,-2.1 1.5,-3 l 3.2,-3.8 v -0.4 c -1,0.1 -1.8,-0.4 -2.2,-1.5 -0.1,0.1 -0.1,0.1 -0.2,0.1 -0.5,0.3 -0.9,0.1 -0.9,-0.5 0,-0.6 0.4,-1.3 0.9,-1.5 v -1.8 c 0,-2.5 1.7,-5.5 3.9,-6.7 2.1,-1.2 3.9,-0.2 3.9,2.2 V 59 c 0.5,-0.3 0.9,-0.1 0.9,0.5 0,0.6 -0.4,1.2 -0.9,1.5 -0.1,0 -0.1,0.1 -0.2,0.1 -0.3,1.4 -1.1,2.9 -2.2,4 v 0.4 l 3.2,0.1 c 0.7,0 1.3,0.5 1.5,1.2 l 0.9,-0.5 v -17 z"
         class="st6" />
      <path
         style="fill:#f4a7b0;stroke-width:0.58161569"
         inkscape:connector-curvature="0"
         id="path386"
         d="m 195.4,65.6 -3.2,-0.1 v -0.4 c 1,-1.1 1.8,-2.6 2.2,-4 0.1,0 0.1,-0.1 0.2,-0.1 0.5,-0.3 0.9,-1 0.9,-1.5 0,-0.6 -0.4,-0.8 -0.9,-0.5 v -1.8 c 0,-2.5 -1.8,-3.5 -3.9,-2.2 -2.1,1.2 -3.9,4.2 -3.9,6.7 v 1.8 c -0.5,0.3 -0.9,1 -0.9,1.5 0,0.6 0.4,0.8 0.9,0.5 0.1,0 0.1,-0.1 0.2,-0.1 0.4,1 1.2,1.6 2.2,1.5 v 0.4 L 186,71 c -0.7,0.9 -1.3,2 -1.5,3 L 197,66.8 c -0.3,-0.7 -0.8,-1.2 -1.6,-1.2 z"
         class="st16" />
    </g>
    <polygon
       style="fill:#0062a7;stroke-width:0.58161569"
       id="polygon390"
       points="209.5,45.2 203.4,48.8 203.4,50.3 209.5,46.8 "
       class="st7"
       transform="matrix(0.45491095,0,0,0.45491095,-73.245928,203.52506)" />
    <path
       style="fill:#354b54;stroke-width:0.26458335"
       inkscape:connector-curvature="0"
       id="path392"
       d="m 19.282963,230.09185 2.820446,-1.63768 v -0.27294 l -2.820446,1.63768 z m 0,0.72787 2.820446,-1.63768 v -0.27294 l -2.820446,1.63768 z m 0,0.72785 2.820446,-1.63768 v -0.27294 l -2.820446,1.63768 z m 0,-2.18357 2.820446,-1.63768 v -0.27294 l -2.820446,1.63768 z m 0,-0.72785 2.820446,-1.63768 v -0.27294 l -2.820446,1.63768 z m 0,-0.72787 2.820446,-1.63768 v -0.27294 l -2.820446,1.63768 z m 3.502813,-1.31924 2.820449,-1.63768 v -0.27294 l -2.820449,1.63768 z m 0,-1.0008 v 0.27294 l 2.820449,-1.63766 v -0.27296 z m 0,3.18437 2.820449,-1.63768 v -0.27294 l -2.820449,1.63768 z m 0,0.77335 2.820449,-1.63768 v -0.27294 l -2.820449,1.63768 z m 2.138082,-3.73026 -2.09259,1.22825 v 0.27294 l 2.09259,-1.22825 z m -2.138082,4.45813 2.092592,-1.22827 v -0.27295 l -2.092592,1.22827 z m -3.502813,2.04709 1.501206,-0.86433 v -0.27295 l -1.501206,0.86433 z"
       class="st5" />
    <path
       style="fill:#647a84;stroke-width:0.26458335"
       inkscape:connector-curvature="0"
       id="path394"
       d="m 13.827548,256.91764 2.820448,-1.63768 v -0.27294 l -2.820448,1.63768 z m 0,-0.72785 2.820448,-1.63768 v -0.27294 l -2.820448,1.63768 z m 0,-0.72787 2.820448,-1.63768 v -0.27294 l -2.820448,1.63768 z m 3.502814,-1.31924 2.820447,-1.63768 v -0.27294 l -2.820447,1.63768 z m 0,-1.00079 v 0.27294 l 2.820447,-1.63768 v -0.27294 z m 2.09259,0.27294 -2.09259,1.22826 v 0.27294 l 2.09259,-1.22825 z"
       class="st17" />
    <polygon
       style="fill:#e84249;stroke-width:0.58161569"
       id="polygon396"
       points="194.7,108 196.7,106.9 196.7,102.2 194.7,103.3 "
       class="st6"
       transform="matrix(0.45491095,0,0,0.45491095,-69.694106,202.05538)" />
    <polygon
       style="fill:#e84249;stroke-width:0.58161569"
       id="polygon398"
       points="188.3,111.7 190.2,110.6 190.2,103.9 188.3,105.1 "
       class="st6"
       transform="matrix(0.45491095,0,0,0.45491095,-69.694106,202.05538)" />
    <polygon
       style="fill:#006633;stroke-width:0.58161569"
       id="polygon400"
       points="191.5,109.8 193.5,108.7 193.5,98.1 191.5,99.2 "
       class="st18"
       transform="matrix(0.45491095,0,0,0.45491095,-69.770922,202.95114)" />
    <polygon
       style="fill:#006633;stroke-width:0.58161569"
       id="polygon402"
       points="187,109.8 185.1,110.9 185.1,113.6 187,112.5 "
       class="st18"
       transform="matrix(0.45491095,0,0,0.45491095,-68.420354,204.10249)" />
    <polygon
       style="fill:#e84249;stroke-width:0.58161569"
       id="polygon404"
       points="201.2,104.2 203.1,103.1 203.1,99.5 201.2,100.6 "
       class="st6"
       transform="matrix(0.45491095,0,0,0.45491095,-69.694106,202.05538)" />
    <polygon
       style="fill:#006633;stroke-width:0.58161569"
       id="polygon406"
       points="198,106.1 199.9,105 199.9,97.3 198,98.5 "
       class="st18"
       transform="matrix(0.45491095,0,0,0.45491095,-69.694106,202.05538)" />
    <polygon
       style="fill:#e84249;stroke-width:0.58161569"
       id="polygon408"
       points="207.7,92.9 207.7,100.5 209.6,99.4 209.6,91.8 "
       class="st6"
       transform="matrix(0.45491095,0,0,0.45491095,-74.106742,204.60288)" />
    <polygon
       style="fill:#006633;stroke-width:0.58161569"
       id="polygon410"
       points="204.4,102.4 206.4,101.3 206.4,91.6 204.4,92.7 "
       class="st18"
       transform="matrix(0.45491095,0,0,0.45491095,-69.694106,202.05538)" />
    <g
       id="g422"
       transform="matrix(0.45491095,0,0,0.45491095,-78.649028,185.81433)"
       style="stroke-width:0.58161569">
      <g
         id="g414"
         style="stroke-width:0.58161569">
        <ellipse
           style="fill:#e84249;stroke-width:0.58161569"
           id="ellipse412"
           ry="2.2"
           rx="1.3"
           cy="68"
           cx="371.29999"
           class="st6"
           transform="matrix(0.9257,-0.3783,0.3783,0.9257,1.8677,145.5318)" />
      </g>
      <g
         id="g420"
         style="stroke-width:0.58161569">
        <g
           id="g418"
           style="stroke-width:0.58161569">
          <polygon
             style="fill:#ffffff;stroke-width:0.58161569"
             id="polygon416"
             points="372.2,68 371.6,67.7 371.6,66.8 371,66.5 371,67.4 370.4,67.2 370.5,68.1 371,68.3 371,69.3 371.6,69.5 371.6,68.6 372.2,68.9 "
             class="st2" />
        </g>
      </g>
    </g>
    <g
       id="g446"
       transform="matrix(0.45491095,0,0,0.45491095,-78.649028,185.81433)"
       style="stroke-width:0.58161569">
      <path
         style="fill:#354b54;stroke-width:0.58161569"
         inkscape:connector-curvature="0"
         id="path442"
         d="m 380.1,73.7 c -1.3,-1.5 -2.7,-3 -4.2,-4.4 V 78 c 0.1,0.1 0.3,0.3 0.4,0.4 0.1,-0.3 0.2,-0.5 0.4,-0.5 h 0.9 v -0.2 c -0.3,-0.6 -0.5,-1.3 -0.6,-2.1 0,0 0,0 -0.1,0 -0.1,-0.1 -0.2,-0.5 -0.2,-0.8 0,-0.3 0.1,-0.4 0.3,-0.3 v -0.9 c 0,-1.3 0.5,-1.8 1.1,-1.2 0.6,0.6 1.1,2.2 1.1,3.5 v 0.9 c 0.1,0.1 0.2,0.5 0.2,0.8 0,0.3 -0.1,0.4 -0.3,0.3 0,0 0,0 -0.1,-0.1 -0.1,0.5 -0.3,0.8 -0.6,0.8 v 0.2 l 0.9,2 c 0.2,0.4 0.3,0.8 0.4,1.3 0.1,0.1 0.3,0.3 0.4,0.4 z"
         class="st5" />
      <path
         style="fill:#95a6b1;stroke-width:0.58161569"
         inkscape:connector-curvature="0"
         id="path444"
         d="m 378.4,78.7 v -0.2 c 0.3,0 0.5,-0.2 0.6,-0.8 0,0 0,0 0.1,0.1 0.1,0.1 0.2,0 0.3,-0.3 0,-0.3 -0.1,-0.7 -0.2,-0.8 v -0.9 c 0,-1.3 -0.5,-2.8 -1.1,-3.5 -0.6,-0.6 -1.1,-0.1 -1.1,1.2 v 0.9 c -0.1,-0.1 -0.2,0 -0.3,0.3 0,0.3 0.1,0.6 0.2,0.8 0,0 0,0 0.1,0 0.1,0.7 0.3,1.5 0.6,2.1 v 0.2 h -0.9 c -0.2,0 -0.3,0.2 -0.4,0.5 1.2,1.2 2.3,2.4 3.4,3.6 -0.1,-0.5 -0.2,-0.9 -0.4,-1.3 z"
         class="st19" />
    </g>
    <g
       id="g456"
       transform="matrix(0.45491095,0,0,0.45491095,-71.422664,206.87402)"
       style="stroke-width:0.58161569">
      <path
         style="fill:#354b54;stroke-width:0.58161569"
         inkscape:connector-curvature="0"
         id="path454"
         d="m 334.4,57.3 c 15.6,9 15.7,23.7 0.2,32.7 -15.5,9 -40.8,9 -56.4,0 -15.6,-9 -15.7,-23.7 -0.2,-32.7 15.5,-9 40.8,-9 56.4,0 z"
         class="st5" />
    </g>
    <g
       id="g502"
       transform="matrix(0.45491095,0,0,0.45491095,-71.422664,206.87402)"
       style="stroke-width:0.58161569">
      <path
         style="fill:#4a606a;stroke-width:0.58161569"
         inkscape:connector-curvature="0"
         id="path500"
         d="m 334.4,55 c 15.6,9 15.7,23.7 0.2,32.7 -15.5,9 -40.8,9 -56.4,0 C 262.6,78.7 262.5,64 278,55 c 15.5,-9.1 40.8,-9.1 56.4,0 z"
         class="st11" />
    </g>
    <polygon
       style="fill:#95a6b1;stroke-width:0.58161569"
       id="polygon504"
       points="279.6,7.7 278,6.8 278,55 279.6,55.9 "
       class="st19"
       transform="matrix(0.45491095,0,0,0.45491095,-71.422664,206.87402)" />
    <path
       style="fill:#95a6b1;stroke-width:0.26458335"
       inkscape:connector-curvature="0"
       id="path672"
       d="m 85.112197,240.90136 0.864331,-0.5004 c 0,-0.13652 0.0455,-0.22745 0.0455,-0.36391 l -1.182769,0.68235 -2.456519,-1.41022 2.456519,-1.41023 1.228259,0.68238 c 0,-0.13653 -0.0455,-0.22746 -0.0455,-0.36394 l -0.864331,-0.5004 0.636876,-0.36393 c -0.0455,-0.091 -0.09099,-0.18196 -0.09099,-0.27295 l -0.81884,0.50042 -2.456518,-1.41023 2.047099,-1.18277 c -0.0455,-0.091 -0.136465,-0.13652 -0.181964,-0.22746 l -2.183573,1.27375 -2.456519,-1.41023 2.729466,-1.59219 c -0.09099,-0.0455 -0.181964,-0.13651 -0.272947,-0.18196 l -2.774955,1.5922 -2.820449,-1.63768 2.774956,-1.5922 c -0.09099,-0.0455 -0.227454,-0.091 -0.318437,-0.13651 l -2.729466,1.5922 -2.456519,-1.41022 2.183573,-1.27376 c -0.136465,-0.0454 -0.272947,-0.091 -0.40942,-0.091 l -2.047099,1.18275 -2.45652,-1.41021 0.81884,-0.50042 c -0.181965,0 -0.318439,-0.0455 -0.500403,-0.0455 l -0.636876,0.36392 -0.86433,-0.5004 c -0.227455,0 -0.409419,0 -0.636875,-0.0455 l 1.22826,0.68237 -2.45652,1.41022 -2.456519,-1.41022 1.182769,-0.68237 c -0.227456,0 -0.40942,0 -0.636876,0.0455 l -0.86433,0.5004 -0.636876,-0.36392 c -0.181964,0 -0.318437,0.0455 -0.500401,0.0455 l 0.81884,0.50042 -2.456519,1.41021 -2.092592,-1.18275 c -0.136465,0.0455 -0.272946,0.091 -0.40942,0.091 l 2.183572,1.27376 -2.456519,1.41022 -2.820446,-1.68316 c -0.09099,0.0455 -0.227456,0.091 -0.318439,0.13651 l 2.774958,1.59218 -2.774958,1.63768 v 0 l -2.774956,-1.59218 c -0.09099,0.0455 -0.181964,0.13652 -0.272946,0.18197 l 2.774955,1.59218 -2.456519,1.41024 -2.183572,-1.27376 c -0.0455,0.091 -0.136465,0.13651 -0.181964,0.22744 l 2.09259,1.18278 -2.45652,1.41022 -0.818839,-0.50039 c -0.0455,0.091 -0.09098,0.18196 -0.09098,0.27294 l 0.636875,0.36392 -0.86433,0.50042 c 0,0.13651 -0.0455,0.22745 -0.0455,0.36392 l 1.182767,-0.68237 2.456519,1.41024 -2.456519,1.41021 -1.228258,-0.68236 c 0,0.13651 0.0455,0.22744 0.0455,0.36393 l 0.864332,0.5004 -0.636876,0.36392 c 0.0455,0.091 0.09098,0.18197 0.09098,0.27294 l 0.818839,-0.5004 2.45652,1.41023 -2.0471,1.18278 c 0.0455,0.091 0.136465,0.13651 0.181964,0.22745 l 2.138082,-1.27374 2.456518,1.4102 -2.729464,1.5922 c 0.09099,0.0455 0.181963,0.13652 0.272946,0.18196 l 2.774956,-1.59218 2.820449,1.63768 -2.774959,1.59218 c 0.09099,0.0455 0.227457,0.091 0.318439,0.13652 l 2.729466,-1.59219 2.456519,1.41023 -2.138082,1.27375 c 0.136465,0.0455 0.272946,0.091 0.40942,0.091 l 2.047099,-1.18277 2.456519,1.41022 -0.818839,0.5004 c 0.181965,0 0.318439,0.0455 0.500403,0.0455 l 0.636875,-0.36392 0.86433,0.5004 c 0.227457,0 0.409421,0 0.636876,0.0455 l -1.228259,-0.68238 2.456519,-1.41023 2.456519,1.41023 -1.182769,0.68238 c 0.227456,0 0.40942,0 0.636876,-0.0455 l 0.86433,-0.5004 0.636876,0.36392 c 0.181964,0 0.318437,-0.0455 0.500401,-0.0455 l -0.81884,-0.5004 2.456519,-1.41022 2.092592,1.18277 c 0.136464,-0.0455 0.272946,-0.091 0.40942,-0.091 l -2.183573,-1.27375 2.456519,-1.41023 2.774956,1.59219 c 0.09099,-0.0454 0.227457,-0.091 0.318438,-0.13652 l -2.774957,-1.59218 2.774957,-1.63768 2.774957,1.59218 c 0.09099,-0.0455 0.181964,-0.13651 0.272947,-0.18196 l -2.774957,-1.5922 2.456519,-1.4102 2.183571,1.27374 c 0.0455,-0.091 0.136465,-0.13652 0.181967,-0.22745 l -2.092592,-1.18278 2.456519,-1.41023 0.818839,0.5004 c 0.0455,-0.091 0.09099,-0.18196 0.09099,-0.27294 z m -3.047902,-4.64009 2.456519,1.41023 -2.456519,1.41022 -2.456519,-1.41022 z m -17.514073,3.04791 -2.456519,1.41022 -2.456519,-1.41022 2.456519,-1.41023 z m -2.183573,-1.59219 v 0 l 2.774956,-1.63768 2.456519,1.41023 -1.410223,0.81883 -1.410224,0.81885 z m 2.45652,1.77416 v 0 0 l 2.547501,1.45571 0.272947,0.13652 -2.456519,1.41022 -2.820449,-1.63768 z m 0.318436,-0.18197 2.774959,-1.63768 2.820447,1.63768 -1.956118,1.13728 -0.818839,0.5004 v 0 z m 8.324871,-1.59219 -2.456519,1.41023 -2.820447,-1.63768 2.456519,-1.41023 v 0 0 z m -4.412636,2.91143 1.956117,-1.13727 2.456519,1.41021 -2.774956,1.63768 -2.45652,-1.41021 z m 2.229064,-1.31924 2.456519,-1.41023 2.456521,1.41023 -2.456521,1.41022 z m 2.774957,-1.59219 2.456519,-1.41023 2.45652,1.41023 -2.45652,1.41023 z m -0.272946,-0.18195 -2.820449,-1.63768 2.456519,-1.41024 2.820449,1.63768 z m -3.138886,-1.77417 -2.456519,-1.41023 2.456519,-1.41021 2.45652,1.41021 z m -0.272946,0.18198 -2.456519,1.41021 -2.45652,-1.41021 2.45652,-1.41023 z m -5.231478,-0.18198 -2.456518,-1.41023 2.456518,-1.41021 2.456519,1.41021 z m -0.272946,0.18198 -2.774956,1.63768 -2.456519,-1.41023 2.774955,-1.63768 z m -3.093393,1.77414 -2.456519,1.41023 -2.456519,-1.41023 2.456519,-1.41023 z m -2.774958,1.59219 -2.45652,1.41022 -2.456519,-1.41022 2.456519,-1.41023 z m 0.318439,0.18197 2.456519,1.41021 -2.456519,1.41022 -2.456519,-1.41022 z m 2.774956,1.59219 v 0 0 l 2.547502,1.4557 0.272946,0.13652 -2.456519,1.41023 -2.820448,-1.63768 z m 3.093395,1.77414 2.456519,1.41023 -2.456519,1.41023 -2.456519,-1.41023 z m 0.272946,-0.13651 2.45652,-1.41023 2.456519,1.41023 -2.456519,1.41022 z m 5.231476,0.13651 2.456519,1.41023 -2.456519,1.41023 -2.45652,-1.41023 z m 0.318437,-0.13651 2.774958,-1.63768 2.456519,1.41022 -2.774958,1.63768 z m 3.047904,-1.81966 2.456519,-1.41021 2.45652,1.41021 -2.45652,1.41023 z m 2.774957,-1.59218 2.456518,-1.41023 2.456519,1.41023 -2.456519,1.41022 z m 2.456518,-4.6401 2.456519,1.41023 -2.456519,1.41023 -2.456518,-1.41023 z m -3.138885,-1.77414 v 0 0 l 2.820449,1.63768 -2.45652,1.41022 -2.820448,-1.63768 z m -2.729466,-1.59218 2.45652,1.41021 -2.45652,1.41022 -2.456519,-1.41022 z m -2.774956,-1.59221 2.45652,1.41023 -2.45652,1.41023 -2.456519,-1.41023 z m -2.774958,1.59221 2.456519,1.41021 -2.456519,1.41022 -2.456519,-1.41022 z m -2.774956,-1.59221 2.456519,1.41023 -2.456519,1.41023 -2.456519,-1.41023 z m -2.729466,1.59221 2.45652,1.41021 -2.45652,1.41022 -2.456519,-1.41022 z m -2.774956,1.59218 2.45652,1.41022 -2.774959,1.63768 -2.456519,-1.41022 z m -3.093395,1.77414 2.45652,1.41023 -2.45652,1.41023 -2.456519,-1.41023 z m -5.185985,3.04791 2.45652,-1.41023 2.456519,1.41023 -2.456519,1.41023 z m 2.50201,4.64009 -2.45652,-1.41022 2.45652,-1.41023 2.456519,1.41023 z m 2.774958,1.59219 -2.456519,-1.41023 2.456519,-1.41021 2.456519,1.41021 z m 3.093394,1.77415 -0.636875,-0.36393 -2.138082,-1.22825 2.456519,-1.41022 v 0 0 l 2.547502,1.4557 0.272946,0.13651 z m 2.774957,1.5922 -2.456519,-1.41024 2.456519,-1.41022 2.456519,1.41022 z m 2.774956,1.63768 -2.456518,-1.41024 2.456518,-1.41022 2.456519,1.41022 z m 2.729466,-1.63768 -2.456519,-1.41024 2.456519,-1.41022 2.456519,1.41022 z m 2.774957,1.63768 -2.45652,-1.41024 2.45652,-1.41022 2.456519,1.41022 z m 2.774957,-1.63768 -2.456519,-1.41024 2.456519,-1.41022 2.456519,1.41022 z m 4.13969,-2.41103 -1.410224,0.81883 -2.456519,-1.41022 2.774956,-1.63768 2.456519,1.41023 z m 1.683171,-0.95532 -2.456519,-1.41023 2.456519,-1.41021 2.456519,1.41021 z m 2.729466,-1.59219 -2.456519,-1.41022 2.456519,-1.41023 2.456519,1.41023 z"
       class="st19" />
    <g
       id="g684"
       transform="matrix(0.45491095,0,0,0.45491095,-71.422664,206.87402)"
       style="stroke-width:0.58161569">
      <g
         id="g676"
         style="stroke-width:0.58161569">
        <path
           style="fill:#ffffff;stroke-width:0.58161569"
           inkscape:connector-curvature="0"
           id="path674"
           d="m 332.8,7.7 v 0 l 1.6,-0.9 v 0 c -15.6,-9 -40.9,-9 -56.4,0 v 0 l 1.6,0.9 c 14.7,-8.5 38.5,-8.5 53.2,0 z"
           class="st2" />
      </g>
      <g
         id="g680"
         style="stroke-width:0.58161569">
        <path
           style="fill:#c8d3d9;stroke-width:0.58161569"
           inkscape:connector-curvature="0"
           id="path678"
           d="m 332.8,7.7 v 0 c -14.7,-8.5 -38.6,-8.5 -53.2,0 v 48.2 c 14.6,-8.5 38.5,-8.5 53.2,0 v 0 z"
           class="st21" />
      </g>
      <polygon
         style="fill:#95a6b1;stroke-width:0.58161569"
         id="polygon682"
         points="334.4,55 332.8,55.9 332.8,7.7 334.4,6.8 "
         class="st19" />
    </g>
    <g
       id="g700"
       transform="matrix(0.45491095,0,0,0.45491095,-74.106742,204.60288)"
       style="stroke-width:0.58161569">
      <path
         style="fill:#fdc300;stroke-width:0.58161569"
         inkscape:connector-curvature="0"
         id="path686"
         d="m 233.4,57.8 c 0.5,-0.3 0.9,-0.1 0.9,0.5 v 16.1 c 0,0.6 -0.4,1.2 -0.9,1.5 l -14,8.1 c -0.5,0.3 -0.9,0.1 -0.9,-0.5 V 67.4 c 0,-0.6 0.4,-1.2 0.9,-1.5 z"
         class="st9" />
      <path
         style="fill:#354b54;stroke-width:0.58161569"
         inkscape:connector-curvature="0"
         id="path688"
         d="m 232.1,69.2 c 0.1,-0.6 0.2,-1.2 0.2,-1.7 0,-3.7 -2.6,-5.1 -5.8,-3.3 v 6.7 z"
         class="st5" />
      <path
         style="fill:#e84249;stroke-width:0.58161569"
         inkscape:connector-curvature="0"
         id="path690"
         d="m 226.5,70.9 3.8,2.7 c 0.9,-1.4 1.5,-2.9 1.8,-4.4 z"
         class="st6" />
      <path
         style="fill:#ffffff;stroke-width:0.58161569"
         inkscape:connector-curvature="0"
         id="path692"
         d="m 226.5,64.2 c -0.1,0 -0.1,0 0,0 -3.2,1.9 -5.8,6.3 -5.8,10 0,2.3 1,3.7 2.5,4 l 3.3,-7.4 z"
         class="st2" />
      <path
         style="fill:#d4e5f7;stroke-width:0.58161569"
         inkscape:connector-curvature="0"
         id="path694"
         d="m 226.5,77.5 c 1.5,-0.9 2.8,-2.3 3.8,-3.9 l -3.8,-2.7 -3.3,7.4 c 0.9,0.2 2.1,-0.1 3.3,-0.8 z"
         class="st0" />
      <path
         style="fill:#ffe600;stroke-width:0.58161569"
         inkscape:connector-curvature="0"
         id="path696"
         d="m 233,57.1 c -0.2,-0.1 -0.4,-0.1 -0.6,0.1 l -14,8.1 c -0.2,0.1 -0.5,0.4 -0.6,0.7 l 1.1,0.6 c 0.2,-0.3 0.4,-0.5 0.6,-0.7 l 14,-8.1 c 0.2,-0.1 0.5,-0.2 0.6,-0.1 z"
         class="st24" />
      <path
         style="fill:#f39200;stroke-width:0.58161569"
         inkscape:connector-curvature="0"
         id="path698"
         d="m 217.5,66.8 v 16.1 c 0,0.3 0.1,0.5 0.3,0.6 l 1.1,0.6 c -0.2,-0.1 -0.3,-0.3 -0.3,-0.6 V 67.4 c 0,-0.3 0.1,-0.6 0.2,-0.8 L 217.7,66 c -0.1,0.2 -0.2,0.5 -0.2,0.8 z"
         class="st20" />
    </g>
    <path
       style="fill:#95a6b1;stroke-width:0.26458335"
       inkscape:connector-curvature="0"
       id="path1156"
       d="m 75.104157,227.34502 c -2.047101,-1.0463 -4.640093,-1.59218 -7.187593,-1.59218 v 0.4549 c 2.592992,0 5.140492,0.54589 7.187593,1.59218 l 4.867546,-3.18436 v -0.45491 z"
       class="st19" />
    <g
       id="g1160"
       transform="matrix(0.45491095,0,0,0.45491095,-71.422664,206.87402)"
       style="stroke-width:0.58161569">
      <path
         style="fill:#ffffff;stroke-width:0.58161569"
         inkscape:connector-curvature="0"
         id="path1158"
         d="m 322.1,45 10.7,-7 c -7.5,-3.9 -17,-5.9 -26.5,-5.9 v 9.3 c 5.7,0.1 11.3,1.3 15.8,3.6 z"
         class="st2" />
    </g>
    <path
       style="fill:#658bc8;stroke-width:0.26458335"
       inkscape:connector-curvature="0"
       id="path1162"
       d="m 57.544594,212.69689 v 1.09179 c 2.50201,-1.09179 5.41344,-1.77416 8.415851,-1.95612 v -1.00079 c 0,-0.27295 -0.227454,-0.5459 -0.545893,-0.50043 -2.638482,0.22748 -5.185984,0.77337 -7.460538,1.72868 -0.227457,0.091 -0.40942,0.36393 -0.40942,0.63687 z"
       class="st8" />
    <g
       id="g1174"
       transform="matrix(0.45491095,0,0,0.45491095,-71.422664,206.87402)"
       style="stroke-width:0.58161569">
      <path
         style="fill:#95a6b1;stroke-width:0.58161569"
         inkscape:connector-curvature="0"
         id="path1164"
         d="m 312.7,30.4 14.2,3.2 c 0.4,0.1 0.8,-0.2 0.8,-0.6 V 31.7 L 311.9,28 v 1.4 c 0,0.4 0.4,0.9 0.8,1 z"
         class="st19" />
      <path
         style="fill:#152227;stroke-width:0.58161569"
         inkscape:connector-curvature="0"
         id="path1166"
         d="m 311.9,28 15.8,3.5 v -8.9 c 0,-0.5 -0.3,-0.9 -0.8,-1 l -14.2,-3.2 c -0.4,-0.1 -0.8,0.2 -0.8,0.6 z"
         class="st14" />
      <polygon
         style="fill:#c8d3d9;stroke-width:0.58161569"
         id="polygon1168"
         points="312.7,37.2 314.5,34.7 323.4,36.7 321.6,39.1 "
         class="st21" />
      <polygon
         style="fill:#354b54;stroke-width:0.58161569"
         id="polygon1170"
         points="313.1,23.4 313.1,27.1 317.1,28 323.1,22 316.1,20.4 "
         class="st5" />
      <polygon
         style="fill:#95a6b1;stroke-width:0.58161569"
         id="polygon1172"
         points="323.4,37.5 323.4,36.7 321.6,39.1 "
         class="st19" />
    </g>
    <g
       id="g1182"
       transform="matrix(0.45491095,0,0,0.45491095,-71.422664,206.87402)"
       style="stroke-width:0.58161569">
      <path
         style="fill:#152227;stroke-width:0.58161569"
         inkscape:connector-curvature="0"
         id="path1176"
         d="m 285,12.3 c 0.3,-0.2 0.6,0 0.6,0.4 0,0.4 -0.3,0.9 -0.6,1.1 -0.3,0.2 -0.6,0 -0.6,-0.4 0,-0.4 0.3,-0.9 0.6,-1.1 z"
         class="st14" />
      <path
         style="fill:#ffffff;stroke-width:0.58161569"
         inkscape:connector-curvature="0"
         id="path1178"
         d="m 287,11.6 c 0.3,-0.2 0.6,0 0.6,0.4 0,0.4 -0.3,0.9 -0.6,1.1 -0.3,0.2 -0.6,0 -0.6,-0.4 -0.1,-0.4 0.2,-0.9 0.6,-1.1 z"
         class="st2" />
      <path
         style="fill:#8ab5e1;stroke-width:0.58161569"
         inkscape:connector-curvature="0"
         id="path1180"
         d="m 288.9,11 c 0.3,-0.2 0.6,0 0.6,0.4 0,0.4 -0.3,0.9 -0.6,1.1 -0.3,0.2 -0.6,0 -0.6,-0.4 -0.1,-0.4 0.2,-0.9 0.6,-1.1 z"
         class="st12" />
    </g>
    <g
       id="g1196"
       transform="matrix(0.45491095,0,0,0.45491095,-71.422664,206.87402)"
       style="stroke-width:0.58161569">
      <path
         style="fill:none;stroke-width:0.58161569"
         inkscape:connector-curvature="0"
         id="path1184"
         d="m 283.5,31 v -6.7 c -0.3,0.2 -0.5,0.4 -0.7,0.8 l -1.8,5.7 c 0.3,0.2 0.7,0.4 1.1,0.3 z"
         class="st32" />
      <path
         style="fill:#4db05b;stroke-width:0.58161569"
         inkscape:connector-curvature="0"
         id="path1186"
         d="m 288.4,20.7 h -0.6 c -0.6,0 -1.1,0.5 -1.3,1.1 l -0.3,1.2 c -0.1,0.6 -0.7,1.1 -1.4,1.1 h -0.6 c -0.3,0 -0.5,0.1 -0.7,0.2 V 31 h 0.2 c 0.5,-0.1 1,-0.4 1.2,-0.9 l 0.9,-2.3 c 0.2,-0.5 0.7,-0.8 1.2,-0.9 l 3.8,-0.3 -0.9,-4.8 c -0.2,-0.7 -0.8,-1.1 -1.5,-1.1 z"
         class="st15" />
      <path
         style="fill:#4db05b;stroke-width:0.58161569"
         inkscape:connector-curvature="0"
         id="path1188"
         d="m 296.7,24.1 -2.6,0.2 c -0.4,0 -0.7,0.2 -1,0.5 l -1.1,1.4 c -0.2,0.3 -0.6,0.5 -1,0.5 h -0.2 l 0.4,1.8 c 0.1,0.7 0.7,1.1 1.4,1.1 h 0.2 c 0.6,0 1.1,0.3 1.3,0.9 l 0.8,2 c 0.2,0.6 0.9,1 1.5,0.9 h 0.1 c 0.6,-0.1 1.1,-0.6 1.2,-1.2 l 0.5,-3.1 c 0.1,-0.6 0.6,-1.1 1.2,-1.2 h 0.3 l -1.6,-3 c -0.3,-0.6 -0.9,-0.8 -1.4,-0.8 z"
         class="st15" />
      <path
         style="fill:#4db05b;stroke-width:0.58161569"
         inkscape:connector-curvature="0"
         id="path1190"
         d="m 302,26.6 c -0.1,0.6 -0.6,1 -1.2,1.1 l -1.2,0.2 0.2,0.4 c 0.3,0.5 0.8,0.8 1.4,0.7 l 0.8,-0.1 v -2.7 z"
         class="st15" />
      <path
         style="fill:#c4db9b;stroke-width:0.58161569"
         inkscape:connector-curvature="0"
         id="path1192"
         d="m 283.5,15.3 v 9 c 0.2,-0.1 0.4,-0.2 0.7,-0.2 h 0.6 c 0.7,0 1.2,-0.5 1.4,-1.1 l 0.3,-1.2 c 0.1,-0.6 0.7,-1.1 1.3,-1.1 h 0.6 c 0.7,0 1.3,0.4 1.5,1.1 l 0.9,4.8 h 0.2 c 0.4,0 0.7,-0.2 1,-0.5 l 1.1,-1.4 c 0.2,-0.3 0.6,-0.5 1,-0.5 l 2.6,-0.2 c 0.6,0 1.1,0.3 1.3,0.7 l 1.6,3 1.2,-0.2 c 0.6,-0.1 1,-0.5 1.2,-1.1 l 0.1,-0.3 V 11 c -6.6,0.4 -13,1.8 -18.6,4.3 z"
         class="st4" />
      <path
         style="fill:#006633;stroke-width:0.58161569"
         inkscape:connector-curvature="0"
         id="path1194"
         d="m 299.9,28.3 -0.2,-0.4 h -0.3 c -0.6,0.1 -1.1,0.6 -1.2,1.2 l -0.5,3.1 c -0.1,0.6 -0.6,1.1 -1.2,1.2 h -0.1 c -0.6,0.1 -1.2,-0.3 -1.5,-0.9 l -0.8,-2 c -0.2,-0.5 -0.7,-0.9 -1.3,-0.9 h -0.2 c -0.7,0 -1.3,-0.5 -1.4,-1.1 L 290.8,26.7 287,27 c -0.5,0 -1,0.4 -1.2,0.9 l -0.9,2.3 c -0.2,0.5 -0.6,0.8 -1.2,0.9 h -0.2 V 44 C 289,41.6 295.4,40.1 302,39.7 V 28.9 l -0.8,0.1 c -0.5,0.1 -1,-0.2 -1.3,-0.7 z"
         class="st18" />
    </g>
    <g
       id="g1204"
       transform="matrix(0.45491095,0,0,0.45491095,-71.422664,206.87402)"
       style="stroke-width:0.58161569">
      <path
         style="fill:#152227;stroke-width:0.58161569"
         inkscape:connector-curvature="0"
         id="path1198"
         d="m 292.8,14.1 v 0.6 c 2.7,-0.6 5.5,-0.9 8.3,-1.1 V 13 c -2.8,0.1 -5.6,0.5 -8.3,1.1 z"
         class="st14" />
      <path
         style="fill:#152227;stroke-width:0.58161569"
         inkscape:connector-curvature="0"
         id="path1200"
         d="M 292.8,17.4 V 18 c 2.7,-0.6 5.5,-0.9 8.3,-1.1 v -0.6 c -2.8,0.2 -5.6,0.5 -8.3,1.1 z"
         class="st14" />
      <path
         style="fill:#152227;stroke-width:0.58161569"
         inkscape:connector-curvature="0"
         id="path1202"
         d="m 292.8,15.7 v 0.6 c 2.7,-0.6 5.5,-0.9 8.3,-1.1 v -0.6 c -2.8,0.2 -5.6,0.6 -8.3,1.1 z"
         class="st14" />
    </g>
    <g
       id="g1208"
       transform="matrix(0.45491095,0,0,0.45491095,-71.422664,206.87402)"
       style="stroke-width:0.58161569">
      <path
         style="fill:#152227;stroke-width:0.58161569"
         inkscape:connector-curvature="0"
         id="path1206"
         d="m 292.8,19.1 v 0.6 c 1.8,-0.4 3.7,-0.7 5.5,-0.9 v -0.6 c -1.8,0.2 -3.7,0.5 -5.5,0.9 z"
         class="st14" />
    </g>
    <g
       id="g1250"
       transform="matrix(0.45491095,0,0,0.45491095,-71.422664,206.87402)"
       style="stroke-width:0.58161569">
      <path
         style="fill:#fdd5a5;stroke-width:0.58161569"
         inkscape:connector-curvature="0"
         id="path1210"
         d="m 289.7,37.9 0.9,1.3 0.9,0.3 -1.2,-2 c -0.1,-0.1 -0.3,-0.2 -0.4,-0.1 v 0 c -0.3,0.2 -0.3,0.4 -0.2,0.5 z"
         class="st27" />
      <circle
         style="fill:#fdd5a5;stroke-width:0.58161569"
         id="circle1212"
         r="1.2"
         cy="50.599998"
         cx="304.60001"
         class="st27" />
      <path
         style="fill:#ffffff;stroke-width:0.58161569"
         inkscape:connector-curvature="0"
         id="path1214"
         d="m 304,50.7 c 0.4,0.2 1.2,0.3 1.7,0 0.2,-0.2 0.4,-0.3 0.3,-0.5 v 0 -6.3 l -2.9,-1.3 -0.3,7.6 h 0.8 c 0,0.2 0.1,0.4 0.4,0.5"
         class="st2" />
      <path
         style="fill:#152127;stroke-width:0.58161569"
         inkscape:connector-curvature="0"
         id="path1216"
         d="m 301.2,64.2 -1.9,-1.1 c -0.6,-0.4 -1.7,-0.4 -2.3,0 v 0 c -0.3,0.2 -0.5,0.4 -0.5,0.7 v 0 0.8 c 0,0.2 0.2,0.5 0.5,0.7 l 1.9,1.1 c 0.6,0.4 1.7,0.4 2.3,0 v 0 c 0.3,-0.2 0.5,-0.4 0.5,-0.7 v -1.3 c 0,0 0,0 0,0 0,-0.3 -0.2,0 -0.5,-0.2 z"
         class="st10" />
      <path
         style="fill:#152127;stroke-width:0.58161569"
         inkscape:connector-curvature="0"
         id="path1218"
         d="m 305.4,61.4 c 0,-0.2 -0.1,-0.4 -0.3,-0.6 l -1.5,-1.3 c -0.1,-0.1 -0.1,-0.1 -0.2,-0.1 -0.5,-0.3 -1.4,-0.4 -2,-0.1 v 0 c -0.5,0.2 -0.7,0.5 -0.7,0.8 0,0 0,0 0,0 v 0.8 c 0,0.2 0.1,0.4 0.3,0.5 l 1.5,1.3 c 0.1,0.1 0.1,0.1 0.2,0.1 0.5,0.3 1.4,0.4 2,0.1 v 0 c 0.5,-0.2 0.7,-0.5 0.7,-0.8 v -0.7 c 0,0 0,0 0,0 z"
         class="st10" />
      <path
         style="fill:#f6af95;stroke-width:0.58161569"
         inkscape:connector-curvature="0"
         id="path1220"
         d="m 297.4,35.2 0.9,1.8 v 0.5 l -1.5,-0.8 c -0.2,-0.1 -0.2,-0.3 -0.1,-0.5 z"
         class="st28" />
      <g
         id="g1224"
         style="stroke-width:0.58161569">
        <path
           style="fill:#fdd5a5;stroke-width:0.58161569"
           inkscape:connector-curvature="0"
           id="path1222"
           d="m 296.8,36.9 0.3,-1.5 c 0.2,-0.9 1.1,-1.5 2.1,-1.4 l 1.7,0.4 -0.5,2 0.7,0.2 0.6,1.1 0.4,1.9 -3.1,1.3 -1.7,-2.3 c -0.4,-0.5 -0.6,-1.1 -0.5,-1.7 z"
           class="st27" />
      </g>
      <path
         style="fill:#152227;stroke-width:0.58161569"
         inkscape:connector-curvature="0"
         id="path1226"
         d="m 302.3,38.3 0.7,-1.8 c 0.6,-1.6 -0.6,-3.3 -2.3,-3.3 v 0 l -0.4,-0.3 c -2.1,-1.5 -4.5,1.3 -2.7,3.1 l 1.2,1.2 v 0.2 c 0,1.3 1.4,2.2 2.6,1.7 l 0.5,-0.2 c 0.1,-0.1 0.3,-0.4 0.4,-0.6 z"
         class="st14" />
      <circle
         style="fill:#fdd5a5;stroke-width:0.58161569"
         id="circle1228"
         r="0.60000002"
         cy="37.200001"
         cx="298.5"
         class="st27" />
      <circle
         style="fill:#f6af95;stroke-width:0.58161569"
         id="circle1230"
         r="0.30000001"
         cy="37.200001"
         cx="298.5"
         class="st28" />
      <path
         style="fill:#c8d3d9;stroke-width:0.58161569"
         inkscape:connector-curvature="0"
         id="path1232"
         d="m 303.6,50.2 c 0,0.2 0.1,0.4 0.4,0.5 0.2,0.1 0.3,0.1 0.5,0.2 l -0.6,-2.3 v -5.4 l -0.7,-0.5 -0.3,7.6 h 0.7 z"
         class="st21" />
      <path
         style="fill:#fdc300;stroke-width:0.58161569"
         inkscape:connector-curvature="0"
         id="path1234"
         d="m 296.9,58.2 1.7,6.7 c 0.1,0.2 0.3,0.4 0.6,0.5 0.7,0.2 1.7,-0.1 2.2,-0.6 0.3,-0.3 0.3,-0.5 0.3,-0.8 l -1.6,-6.3 v -0.5 c -1.2,0 -2.3,-0.3 -3.2,-0.8 z"
         class="st9" />
      <path
         style="fill:#fdc300;stroke-width:0.58161569"
         inkscape:connector-curvature="0"
         id="path1236"
         d="m 301.2,57.2 1.1,4.5 c 0.1,0.2 0.3,0.4 0.6,0.5 0.7,0.2 1.7,-0.1 2.2,-0.6 0.3,-0.3 0.3,-0.5 0.3,-0.8 L 304.2,56 c -0.2,0.1 -0.3,0.2 -0.5,0.3 -0.7,0.6 -1.6,0.8 -2.5,0.9 z"
         class="st9" />
      <path
         style="fill:#f39200;stroke-width:0.58161569"
         inkscape:connector-curvature="0"
         id="path1238"
         d="m 298.5,51.7 c -0.9,0 -1.6,0.7 -1.6,1.6 v 3.2 c 0.9,0.5 2,0.8 3.2,0.8 v -4 c 0,-0.9 -0.7,-1.6 -1.6,-1.6 z"
         class="st20" />
      <path
         style="fill:#f39200;stroke-width:0.58161569"
         inkscape:connector-curvature="0"
         id="path1240"
         d="m 301.8,53.2 c -0.9,0.2 -1.4,1.1 -1.2,1.9 l 0.5,2.1 c 0.9,-0.1 1.8,-0.4 2.5,-0.8 0.2,-0.1 0.3,-0.2 0.5,-0.3 l -0.4,-1.7 c -0.1,-0.9 -1,-1.4 -1.9,-1.2 z"
         class="st20" />
      <circle
         style="fill:#fdd5a5;stroke-width:0.58161569"
         id="circle1242"
         r="1.2"
         cy="39.599998"
         cx="290"
         class="st27" />
      <path
         style="fill:#ffffff;stroke-width:0.58161569"
         inkscape:connector-curvature="0"
         id="path1244"
         d="m 291.4,39.6 c -0.1,-0.1 -0.3,-0.2 -0.6,-0.2 -0.5,0 -1.2,0.5 -1.4,1 -0.1,0.2 -0.1,0.5 0,0.6 l 2.2,3.2 c 0.8,1.2 2.5,1.5 3.7,0.7 l 1.5,-1 -1,10.4 c 0,0.7 0.4,1.3 1.3,1.8 1.8,1 4.6,1 6.4,0 0.9,-0.5 1.3,-1.2 1.3,-1.8 l -1.4,-5.5 0.5,-5.5 2.1,0.8 c 0,-1.5 -0.8,-2.8 -2.1,-3.4 l -1.2,-0.6 c -0.6,-0.3 -1.3,-0.4 -2,-0.3 l -3.2,0.7 c -0.5,0.1 -1.1,0.3 -1.5,0.6 l -2.5,1.8 z"
         class="st2" />
      <path
         style="fill:#c8d3d9;stroke-width:0.58161569"
         inkscape:connector-curvature="0"
         id="path1246"
         d="m 297.4,52.2 v -0.9 c -0.7,-0.4 -1.1,-0.8 -1.2,-1.3 l -0.1,0.6 c 0.1,0.6 0.5,1.1 1.3,1.6 z"
         class="st21" />
      <path
         style="fill:#fdd5a5;stroke-width:0.58161569"
         inkscape:connector-curvature="0"
         id="path1248"
         d="m 289.3,39 0.1,-0.5 c 0,-0.2 0.2,-0.4 0.3,-0.5 l 0.1,-0.1 0.5,0.8 z"
         class="st27" />
    </g>
    <g
       id="g1264"
       transform="matrix(0.45491095,0,0,0.45491095,-71.422664,206.87402)"
       style="stroke-width:0.58161569">
      <path
         style="fill:#ffffff;stroke-width:0.58161569"
         inkscape:connector-curvature="0"
         id="path1252"
         d="m 323.9,81.9 c 0,0.9 -0.6,1.8 -1.8,2.5 -2.4,1.4 -6.3,1.4 -8.7,0 -1.2,-0.7 -1.8,-1.6 -1.8,-2.5 v -10 h 12.3 z"
         class="st2" />
      <path
         style="fill:#95a6b1;stroke-width:0.58161569"
         inkscape:connector-curvature="0"
         id="path1254"
         d="m 323.9,74.5 c 0,0.9 -0.6,1.8 -1.8,2.5 -2.4,1.4 -6.3,1.4 -8.7,0 -1.2,-0.7 -1.8,-1.6 -1.8,-2.5 v -10 h 12.3 z"
         class="st19" />
      <path
         style="fill:#c8d3d9;stroke-width:0.58161569"
         inkscape:connector-curvature="0"
         id="path1256"
         d="m 332.4,67.3 c 0,2.2 -1.4,4.4 -4.3,6 -5.7,3.3 -15,3.3 -20.8,0 -2.9,-1.7 -4.3,-3.8 -4.3,-6 v -1.2 h 29.3 v 1.2 z"
         class="st21" />
      <g
         id="g1260"
         style="stroke-width:0.58161569">
        <path
           style="fill:#ffffff;stroke-width:0.58161569"
           inkscape:connector-curvature="0"
           id="path1258"
           d="m 328.1,60 c 5.8,3.3 5.8,8.7 0.1,12 -5.7,3.3 -15,3.3 -20.8,0 -5.7,-3.3 -5.8,-8.7 -0.1,-12 5.7,-3.3 15,-3.3 20.8,0 z"
           class="st2" />
      </g>
      <polygon
         style="fill:#c8d3d9;stroke-width:0.58161569"
         id="polygon1262"
         points="310.3,62.6 306.8,64.7 311.1,67.2 314.7,65.2 "
         class="st21" />
    </g>
    <path
       style="fill:#c8d3d9;stroke-width:0.26458335"
       inkscape:connector-curvature="0"
       id="path1266"
       d="m 40.735822,268.40695 c 0,0.36394 -0.227456,0.72787 -0.727859,1.0008 -0.955313,0.54591 -2.502009,0.54591 -3.502813,0 -0.500402,-0.27293 -0.727858,-0.63686 -0.727858,-1.0008 v -0.18196 h 4.913038 v 0.18196 z"
       class="st21" />
    <g
       id="g1270"
       transform="matrix(0.45491095,0,0,0.45491095,-111.47739,231.65015)"
       style="stroke-width:0.58161569">
      <path
         style="fill:#ffffff;stroke-width:0.58161569"
         inkscape:connector-curvature="0"
         id="path1268"
         d="m 333,78.1 c 2.1,1.2 2.1,3.2 0,4.4 -2.1,1.2 -5.5,1.2 -7.7,0 -2.1,-1.2 -2.1,-3.2 0,-4.4 2.2,-1.2 5.6,-1.2 7.7,0 z"
         class="st2" />
    </g>
    <g
       id="g1316"
       transform="matrix(0.45491095,0,0,0.45491095,-71.422664,206.87402)"
       style="stroke-width:0.58161569">
      <g
         id="g1282"
         style="stroke-width:0.58161569">
        <g
           id="g1278"
           style="stroke-width:0.58161569">
          <path
             style="fill:#f39200;stroke-width:0.58161569"
             inkscape:connector-curvature="0"
             id="path1272"
             d="m 317.4,63.7 c -0.2,0.1 -0.5,0.1 -0.8,0 -0.1,-0.1 -0.2,-0.1 -0.2,-0.2 v 1.8 c 0,0.3 0.2,0.5 0.5,0.5 0.3,0 0.5,-0.2 0.5,-0.5 v 0 -1.8 c 0.2,0 0.1,0.1 0,0.2 z"
             class="st20" />
          <path
             style="fill:#d4e5f7;stroke-width:0.58161569"
             inkscape:connector-curvature="0"
             id="path1274"
             d="m 316.5,62.3 v 1.2 c 0,-0.1 0.1,-0.2 0.2,-0.2 0.2,-0.1 0.5,-0.1 0.8,0 0.1,0.1 0.2,0.1 0.2,0.2 v -1.2 z"
             class="st0" />
          <path
             style="fill:#fdc300;stroke-width:0.58161569"
             inkscape:connector-curvature="0"
             id="path1276"
             d="m 317.4,63.2 c -0.2,-0.1 -0.5,-0.1 -0.8,0 -0.1,0.1 -0.2,0.1 -0.2,0.2 0,0.1 0.1,0.2 0.2,0.2 0.2,0.1 0.5,0.1 0.8,0 0.1,-0.1 0.2,-0.1 0.2,-0.2 0,0 -0.1,-0.1 -0.2,-0.2 z"
             class="st9" />
        </g>
        <path
           style="fill:#8ab5e1;stroke-width:0.58161569"
           inkscape:connector-curvature="0"
           id="path1280"
           d="m 317.5,62.1 c 0.3,0.2 0.3,0.4 0,0.6 -0.3,0.2 -0.7,0.2 -1,0 -0.3,-0.2 -0.3,-0.4 0,-0.6 0.3,-0.2 0.8,-0.2 1,0 z"
           class="st12" />
      </g>
      <g
         id="g1314"
         style="stroke-width:0.58161569">
        <path
           style="fill:#e84249;stroke-width:0.58161569"
           inkscape:connector-curvature="0"
           id="path1284"
           d="m 324.3,86.4 -1.9,-1.1 c -0.6,-0.4 -1.7,-0.4 -2.3,0 v 0 c -0.3,0.2 -0.5,0.4 -0.5,0.7 v 0 0.8 c 0,0.2 0.2,0.5 0.5,0.7 l 1.9,1.1 c 0.6,0.4 1.7,0.4 2.3,0 v 0 c 0.3,-0.2 0.5,-0.4 0.5,-0.7 v -1.3 c 0,0 0,0 0,0 0,-0.2 -0.1,0 -0.5,-0.2 z"
           class="st6" />
        <path
           style="fill:#e84249;stroke-width:0.58161569"
           inkscape:connector-curvature="0"
           id="path1286"
           d="m 328.5,83.7 c 0,-0.2 -0.1,-0.4 -0.3,-0.6 l -1.5,-1.3 c -0.1,-0.1 -0.1,-0.1 -0.2,-0.1 -0.5,-0.3 -1.4,-0.4 -2,-0.1 v 0 c -0.5,0.2 -0.7,0.5 -0.7,0.8 0,0 0,0 0,0 v 0.8 c 0,0.2 0.1,0.4 0.3,0.5 l 1.5,1.3 c 0.1,0.1 0.1,0.1 0.2,0.1 0.5,0.3 1.4,0.4 2,0.1 v 0 c 0.5,-0.2 0.7,-0.5 0.7,-0.8 v -0.7 c 0,-0.1 0,-0.1 0,0 z"
           class="st6" />
        <path
           style="fill:#354b54;stroke-width:0.58161569"
           inkscape:connector-curvature="0"
           id="path1288"
           d="m 320.1,80.5 1.7,6.7 c 0.1,0.2 0.3,0.4 0.6,0.5 0.7,0.2 1.7,-0.1 2.2,-0.6 0.3,-0.3 0.3,-0.5 0.3,-0.8 L 323.3,80 Z"
           class="st5" />
        <path
           style="fill:#152227;stroke-width:0.58161569"
           inkscape:connector-curvature="0"
           id="path1290"
           d="m 324.4,79.5 1.1,4.5 c 0.1,0.2 0.3,0.4 0.6,0.5 0.7,0.2 1.7,-0.1 2.2,-0.6 0.3,-0.3 0.3,-0.5 0.3,-0.8 l -1.2,-4.8 c -0.2,0.1 -0.3,0.2 -0.5,0.3 -0.7,0.5 -1.6,0.8 -2.5,0.9 z"
           class="st14" />
        <path
           style="fill:#7d4e24;stroke-width:0.58161569"
           inkscape:connector-curvature="0"
           id="path1292"
           d="m 323.7,61.2 0.9,1.8 v 0.5 l -1.5,-0.8 c -0.2,-0.1 -0.2,-0.3 -0.1,-0.5 z"
           class="st26" />
        <path
           style="fill:#c28348;stroke-width:0.58161569"
           inkscape:connector-curvature="0"
           id="path1294"
           d="m 323.1,62.9 0.3,-1.5 c 0.2,-0.9 1.1,-1.5 2.1,-1.4 l 1.7,0.4 -0.5,2 0.7,0.2 0.6,1.1 0.4,1.9 -3.1,1.3 -1.7,-2.3 C 323.1,64 323,63.4 323.1,62.9 Z"
           class="st25" />
        <circle
           style="fill:#c28348;stroke-width:0.58161569"
           id="circle1296"
           r="1.2"
           cy="65.599998"
           cx="316.79999"
           class="st25" />
        <path
           style="fill:#8ab5e1;stroke-width:0.58161569"
           inkscape:connector-curvature="0"
           id="path1298"
           d="m 318.5,70.1 -2.2,-3.2 c -0.1,-0.1 -0.1,-0.4 0,-0.6 0.2,-0.5 0.9,-0.9 1.4,-1 0.3,0 0.5,0.1 0.6,0.2 l 2.1,3 2.5,-1.8 c 0.5,-0.3 1,-0.5 1.5,-0.6 l 4.5,-0.9 c 0.9,-0.2 1.7,0.3 2.1,1.1 l 1.6,3.3 c 0.5,1 0.2,2.2 -0.7,2.9 v 0 l -0.6,-3.7 -4.6,1.3 c -0.8,0.2 -1.7,0.1 -2.5,-0.3 l -0.3,-0.2 -1.7,1.2 c -1.3,0.8 -2.9,0.5 -3.7,-0.7 z"
           class="st12" />
        <path
           style="fill:#152227;stroke-width:0.58161569"
           inkscape:connector-curvature="0"
           id="path1300"
           d="m 324.9,63.2 c 0.5,0.5 1,-0.9 1.6,-1.2 l 1.2,-0.4 c 0.1,0 1.4,1.1 1.4,1.1 l -0.6,1.6 c -0.1,0.3 -0.3,0.5 -0.6,0.6 l -0.5,0.2 c -1.2,0.5 -2.6,-0.4 -2.6,-1.7 z"
           class="st14" />
        <path
           style="fill:#152227;stroke-width:0.58161569"
           inkscape:connector-curvature="0"
           id="path1302"
           d="m 325.7,58.5 0.4,0.2 h 0.2 c 0.7,-0.1 1.3,0.1 1.8,0.6 l 0.6,0.7 c 0,0 0,0 0,0 v 0.1 0 c 0.6,0.6 0.8,1.6 0.5,2.5 l -0.1,0.2 C 329,62.9 329,63 328.9,63 l -2.2,0.8 c -0.7,0.2 -1.4,0.1 -1.9,-0.4 v 0 0 l -1.1,-1.2 c -1.5,-1.8 0.2,-4.2 2,-3.7 z"
           class="st14" />
        <circle
           style="fill:#c28348;stroke-width:0.58161569"
           id="circle1304"
           r="0.60000002"
           cy="63.200001"
           cx="324.70001"
           class="st25" />
        <circle
           style="fill:#7d4e24;stroke-width:0.58161569"
           id="circle1306"
           r="0.30000001"
           cy="63.200001"
           cx="324.70001"
           class="st26" />
        <path
           style="fill:#c8d3d9;stroke-width:0.58161569"
           inkscape:connector-curvature="0"
           id="path1308"
           d="m 334.3,80.6 c 0,0.8 -0.5,1.6 -1.6,2.2 -2.1,1.2 -5.5,1.2 -7.7,0 -1.1,-0.6 -1.6,-1.4 -1.6,-2.2 v -1.1 h 10.8 v 1.1 z"
           class="st21" />
        <path
           style="fill:#ffffff;stroke-width:0.58161569"
           inkscape:connector-curvature="0"
           id="path1310"
           d="m 332.7,77.3 c 2.1,1.2 2.1,3.2 0,4.4 -2.1,1.2 -5.5,1.2 -7.7,0 -2.1,-1.2 -2.1,-3.2 0,-4.4 2.2,-1.2 5.6,-1.2 7.7,0 z"
           class="st2" />
        <path
           style="fill:#8ab5e1;stroke-width:0.58161569"
           inkscape:connector-curvature="0"
           id="path1312"
           d="m 326.6,70.1 4.6,-1.3 0.6,3.7 0.5,2.9 c 0.2,1.4 -0.4,2.9 -1.6,3.6 l -1.9,1.2 c -1.2,0.8 -2.7,0.9 -4,0.4 l -1.6,-0.6 -3.2,0.4 -0.1,-0.3 c -0.4,-1.6 0.7,-3.2 2.3,-3.4 l 0.7,-0.1 c 0.1,-0.9 0.7,-1.7 1.5,-2.1 l -0.8,-4.9 0.3,0.2 c 1,0.4 1.9,0.5 2.7,0.3 z"
           class="st12" />
      </g>
    </g>
  </g>
</svg>
