<?xml version="1.0" encoding="UTF-8" standalone="no"?>
<!-- Created with Inkscape (http://www.inkscape.org/) -->

<svg
   xmlns:dc="http://purl.org/dc/elements/1.1/"
   xmlns:cc="http://creativecommons.org/ns#"
   xmlns:rdf="http://www.w3.org/1999/02/22-rdf-syntax-ns#"
   xmlns:svg="http://www.w3.org/2000/svg"
   xmlns="http://www.w3.org/2000/svg"
   xmlns:sodipodi="http://sodipodi.sourceforge.net/DTD/sodipodi-0.dtd"
   xmlns:inkscape="http://www.inkscape.org/namespaces/inkscape"
   width="174.4176"
   height="228.8107"
   viewBox="0 0 46.147989 60.539501"
   version="1.1"
   id="svg8"
   inkscape:version="0.92.0 r15299"
   sodipodi:docname="hospital-2.svg">
  <defs
     id="defs2" />
  <sodipodi:namedview
     id="base"
     pagecolor="#ffffff"
     bordercolor="#666666"
     borderopacity="1.0"
     inkscape:pageopacity="0.0"
     inkscape:pageshadow="2"
     inkscape:zoom="1.4"
     inkscape:cx="-40.400843"
     inkscape:cy="94.405334"
     inkscape:document-units="px"
     inkscape:current-layer="layer1"
     showgrid="false"
     units="px"
     inkscape:window-width="1920"
     inkscape:window-height="1017"
     inkscape:window-x="-8"
     inkscape:window-y="-8"
     inkscape:window-maximized="1"
     fit-margin-top="0"
     fit-margin-left="0"
     fit-margin-right="0"
     fit-margin-bottom="0" />
  <metadata
     id="metadata5">
    <rdf:RDF>
      <cc:Work
         rdf:about="">
        <dc:format>image/svg+xml</dc:format>
        <dc:type
           rdf:resource="http://purl.org/dc/dcmitype/StillImage" />
        <dc:title></dc:title>
      </cc:Work>
    </rdf:RDF>
  </metadata>
  <g
     inkscape:label="Layer 1"
     inkscape:groupmode="layer"
     id="layer1"
     transform="translate(-23.602723,-211.54572)">
    <path
       style="fill:#f39200;stroke-width:0.26458335"
       inkscape:connector-curvature="0"
       id="path458"
       d="m 69.750716,258.69806 c 0,3.43601 -2.220178,6.81913 -6.713399,9.46221 -8.986442,5.23326 -23.576183,5.23326 -32.615476,0 -4.546079,-2.64308 -6.819118,-6.07907 -6.819118,-9.46221 v -1.21581 h 46.147993 z"
       class="st20" />
    <path
       style="fill:#fdc300;stroke-width:0.26458335"
       inkscape:connector-curvature="0"
       id="path460"
       d="m 62.931587,248.02007 c 9.039307,5.23329 9.092171,13.6911 0.10569,18.92437 -8.986442,5.23328 -23.576183,5.23328 -32.61547,0 -9.039296,-5.23327 -9.092159,-13.69108 -0.105729,-18.87151 8.986436,-5.28613 23.576177,-5.28613 32.615463,-0.0529 z"
       class="st9" />
    <path
       style="fill:#ffffff;stroke-width:0.26458335"
       inkscape:connector-curvature="0"
       id="path462"
       d="m 63.777383,234.17039 c 0.89864,0.52861 0.89864,1.37439 0,1.90301 l -15.382672,8.93358 c -0.898641,0.52861 -2.378753,0.52861 -3.277413,0 l -15.54124,-8.93358 c -0.898642,-0.52862 -0.898642,-1.3744 0,-1.90301 l 15.382666,-8.93357 c 0.89864,-0.52861 2.378752,-0.52861 3.277412,0 z"
       class="st2" />
    <path
       style="fill:#c8d3d9;stroke-width:0.26458335"
       inkscape:connector-curvature="0"
       id="path464"
       d="M 45.064454,245.00698 29.576058,236.0734 c -0.475752,-0.2643 -0.687197,-0.63433 -0.687197,-0.9515 v 20.82738 c 0,0.37003 0.211445,0.6872 0.687197,0.9515 l 15.488396,8.93358 c 0.422877,0.2643 1.004349,0.37003 1.585841,0.37003 v -20.77453 c -0.528627,0 -1.110099,-0.15864 -1.585841,-0.42288 z"
       class="st21" />
    <path
       style="fill:#95a6b1;stroke-width:0.26458335"
       inkscape:connector-curvature="0"
       id="path466"
       d="m 48.394711,265.83436 15.382672,-8.93358 c 0.475742,-0.2643 0.687181,-0.58147 0.687181,-0.9515 V 235.1219 c 0,0.37003 -0.211439,0.6872 -0.687181,0.9515 l -15.382672,8.93358 c -0.475743,0.2643 -1.110079,0.42288 -1.691571,0.37001 v 20.8274 c 0.581492,0.053 1.215828,-0.0529 1.691571,-0.37003 z"
       class="st19" />
    <polygon
       style="fill:#ffffff;stroke-width:0.50052291"
       id="polygon468"
       points="57.2,101.9 79.4,89 72.1,84.7 49.8,97.6 "
       class="st2"
       transform="matrix(0.52861385,0,0,0.52861385,23.602724,201.34347)" />
    <polygon
       style="fill:#95a6b1;stroke-width:0.50052291"
       id="polygon470"
       points="60,103.5 76.6,93.9 76.6,113.3 79.4,111.7 79.4,89 57.2,101.9 57.2,124.6 60,122.9 "
       class="st19"
       transform="matrix(0.52861385,0,0,0.52861385,23.602724,201.34347)" />
    <polygon
       style="fill:#c8d3d9;stroke-width:0.50052291"
       id="polygon472"
       points="60,103.5 60,122.9 76.6,113.3 76.6,93.9 "
       class="st21"
       transform="matrix(0.52861385,0,0,0.52861385,23.602724,201.34347)" />
    <polygon
       style="fill:#c8d3d9;stroke-width:0.50052291"
       id="polygon474"
       points="57.2,124.6 49.8,120.3 49.8,97.6 57.2,101.9 "
       class="st21"
       transform="matrix(0.52861385,0,0,0.52861385,23.602724,201.34347)" />
    <polygon
       style="fill:#647a84;stroke-width:0.50052291"
       id="polygon476"
       points="57.2,124.6 49.8,120.3 49.8,118.6 57.2,122.8 "
       class="st17"
       transform="matrix(0.52861385,0,0,0.52861385,23.602724,201.34347)" />
    <polygon
       style="fill:#647a84;stroke-width:0.50052291"
       id="polygon478"
       points="57.2,120.6 49.8,116.3 49.8,114.6 57.2,118.8 "
       class="st17"
       transform="matrix(0.52861385,0,0,0.52861385,23.602724,201.34347)" />
    <polygon
       style="fill:#647a84;stroke-width:0.50052291"
       id="polygon480"
       points="57.2,116.6 49.8,112.3 49.8,110.6 57.2,114.8 "
       class="st17"
       transform="matrix(0.52861385,0,0,0.52861385,23.602724,201.34347)" />
    <polygon
       style="fill:#ef787c;stroke-width:0.50052291"
       id="polygon482"
       points="66.6,71.2 66.6,91 67.9,91.8 67.9,72 "
       class="st22"
       transform="matrix(0.52861385,0,0,0.52861385,23.602724,201.34347)" />
    <polygon
       style="fill:#e84249;stroke-width:0.50052291"
       id="polygon484"
       points="67.9,72 67.9,80 62.1,83.4 62.1,75.4 57.6,77.9 57.6,97.7 62.1,95.1 62.1,88.2 67.9,84.8 67.9,91.8 72.4,89.2 72.4,69.4 "
       class="st6"
       transform="matrix(0.52861385,0,0,0.52861385,23.602724,201.34347)" />
    <polygon
       style="fill:#a41319;stroke-width:0.50052291"
       id="polygon486"
       points="59.1,78.8 60.7,77.8 60.7,85.9 69.3,80.8 69.3,72.8 71,71.8 71,88.3 69.3,89.3 69.3,82.4 60.7,87.4 60.7,94.3 59.1,95.3 "
       class="st23"
       transform="matrix(0.52861385,0,0,0.52861385,23.602724,201.34347)" />
    <polygon
       style="fill:#ef787c;stroke-width:0.50052291"
       id="polygon488"
       points="56.3,77.2 56.3,96.9 57.6,97.7 57.6,77.9 "
       class="st22"
       transform="matrix(0.52861385,0,0,0.52861385,23.602724,201.34347)" />
    <polygon
       style="fill:#f4a7b0;stroke-width:0.50052291"
       id="polygon490"
       points="56.3,77.2 60.8,74.6 62.1,75.4 57.6,77.9 "
       class="st16"
       transform="matrix(0.52861385,0,0,0.52861385,23.602724,201.34347)" />
    <polygon
       style="fill:#f4a7b0;stroke-width:0.50052291"
       id="polygon492"
       points="66.6,71.2 71,68.6 72.4,69.4 67.9,72 "
       class="st16"
       transform="matrix(0.52861385,0,0,0.52861385,23.602724,201.34347)" />
    <polygon
       style="fill:#f4a7b0;stroke-width:0.50052291"
       id="polygon494"
       points="62.1,81.8 66.6,79.2 67.9,80 62.1,83.4 "
       class="st16"
       transform="matrix(0.52861385,0,0,0.52861385,23.602724,201.34347)" />
    <path
       style="fill:#152127;stroke-width:0.26458335"
       inkscape:connector-curvature="0"
       id="path496"
       d="m 55.90102,265.30575 3.488851,-2.00874 v -8.88071 l -3.488851,2.00874 z m 4.070343,-11.25948 v 8.88071 l 3.488851,-2.00874 v -8.88071 z"
       class="st10" />
    <path
       style="fill:#354b54;stroke-width:0.26458335"
       inkscape:connector-curvature="0"
       id="path498"
       d="m 56.535357,262.97984 2.273043,-2.74878 v -3.01311 l -2.273043,2.74878 z m 5.074692,-9.19788 -1.004349,1.21581 v 3.01311 l 2.273023,-2.74881 v -2.22017 z"
       class="st5" />
    <g
       id="g1352"
       transform="matrix(0.52861385,0,0,0.52861385,23.602724,201.34347)"
       style="stroke-width:0.50052291">
      <path
         style="fill:#ffffff;stroke-width:0.50052291"
         inkscape:connector-curvature="0"
         id="path1318"
         d="m 67.5,33.5 c 1.3,0.7 1.3,1.9 0,2.7 L 46,48.6 c -1.3,0.7 -3.3,0.7 -4.6,0 L 19.8,36.1 c -1.3,-0.7 -1.3,-1.9 0,-2.7 L 41.3,20.9 c 1.3,-0.7 3.3,-0.7 4.6,0 z"
         class="st2" />
      <path
         style="fill:#c8d3d9;stroke-width:0.50052291"
         inkscape:connector-curvature="0"
         id="path1320"
         d="m 43.7,47.1 c 0.6,0 1,-0.1 1.3,-0.3 L 63.5,36.1 44.8,25.4 c -0.3,-0.2 -0.8,-0.3 -1.3,-0.3 -0.6,0 -1,0.1 -1.3,0.3 L 23.8,36.1 42.4,46.8 c 0.4,0.2 0.8,0.3 1.3,0.3 z"
         class="st21" />
      <path
         style="fill:#c8d3d9;stroke-width:0.50052291"
         inkscape:connector-curvature="0"
         id="path1322"
         d="M 41.4,48.6 19.8,36.1 c -0.6,-0.4 -1,-0.9 -1,-1.3 v 29.1 c 0,0.5 0.3,1 1,1.3 l 21.7,12.5 c 0.6,0.4 1.4,0.5 2.2,0.5 v -29 C 42.8,49.2 42,49 41.4,48.6 Z"
         class="st21" />
      <path
         style="fill:#95a6b1;stroke-width:0.50052291"
         inkscape:connector-curvature="0"
         id="path1324"
         d="M 46,77.7 67.5,65.2 c 0.6,-0.4 0.9,-0.8 0.9,-1.3 V 34.8 c 0,0.5 -0.3,1 -0.9,1.3 L 46,48.6 c -0.7,0.4 -1.5,0.6 -2.4,0.5 v 29.1 c 0.9,0.1 1.8,-0.1 2.4,-0.5 z"
         class="st19" />
      <path
         style="fill:#647a84;stroke-width:0.50052291"
         inkscape:connector-curvature="0"
         id="path1326"
         d="m 43.6,22.5 c -0.6,0 -1,0.1 -1.3,0.3 l -20.7,12 2.2,1.3 18.5,-10.7 c 0.2,-0.1 0.7,-0.3 1.3,-0.3 0,0 0.1,0 0.1,0 l -0.1,-2.6 c 0,0 0,0 0,0 z"
         class="st17" />
      <path
         style="fill:#95a6b1;stroke-width:0.50052291"
         inkscape:connector-curvature="0"
         id="path1328"
         d="m 63.4,36.1 2.2,-1.3 -20.9,-12 C 44.4,22.6 44,22.5 43.5,22.5 v 2.6 c 0.5,0 0.9,0.1 1.2,0.3 z"
         class="st19" />
      <polygon
         style="fill:#c8d3d9;stroke-width:0.50052291"
         id="polygon1330"
         points="36.9,23.3 43.6,19.3 56.2,26.7 49.4,30.6 "
         class="st21" />
      <polygon
         style="fill:#95a6b1;stroke-width:0.50052291"
         id="polygon1332"
         points="36.9,28.5 36.9,23.3 49.4,30.6 49.4,35.8 "
         class="st19" />
      <polygon
         style="fill:#647a84;stroke-width:0.50052291"
         id="polygon1334"
         points="56.2,31.9 56.2,26.7 49.4,30.6 49.4,35.8 "
         class="st17" />
      <polygon
         style="fill:#ffffff;stroke-width:0.50052291"
         id="polygon1336"
         points="19.5,45.3 21.5,44.2 39.5,54.7 37.5,55.8 "
         class="st2" />
      <polygon
         style="fill:#c8d3d9;stroke-width:0.50052291"
         id="polygon1338"
         points="37.5,55.8 37.5,77.9 19.5,67.4 19.5,45.3 "
         class="st21" />
      <polygon
         style="fill:#95a6b1;stroke-width:0.50052291"
         id="polygon1340"
         points="39.5,76.8 39.5,54.7 37.5,55.8 37.5,77.9 "
         class="st19" />
      <polygon
         style="fill:#ffffff;stroke-width:0.50052291"
         id="polygon1342"
         points="67.8,45.3 65.8,44.2 47.8,54.7 49.8,55.8 "
         class="st2" />
      <polygon
         style="fill:#95a6b1;stroke-width:0.50052291"
         id="polygon1344"
         points="49.8,55.8 49.8,77.9 67.8,67.4 67.8,45.3 "
         class="st19" />
      <polygon
         style="fill:#c8d3d9;stroke-width:0.50052291"
         id="polygon1346"
         points="47.8,76.8 47.8,54.7 49.8,55.8 49.8,77.9 "
         class="st21" />
      <path
         style="fill:#0062a7;stroke-width:0.50052291"
         inkscape:connector-curvature="0"
         id="path1348"
         d="m 51.5,68.2 14.6,-8.4 v -1.4 l -14.6,8.4 z m 0,3.1 14.6,-8.4 v -1.4 l -14.6,8.4 z m 0,3.1 L 66.1,66 V 64.6 L 51.5,73 Z m 0,-12.4 14.6,-8.4 v -1.4 l -14.6,8.4 z m 0,3.1 14.6,-8.4 v -1.4 l -14.6,8.4 z m 0,-7.6 v 1.4 L 66.1,50.5 V 49 Z"
         class="st7" />
      <path
         style="fill:#0062a7;stroke-width:0.50052291"
         inkscape:connector-curvature="0"
         id="path1350"
         d="m 57.3,49.2 2.3,-1.3 v -4 l -2.3,1.3 z m -6.5,3.7 2.3,-1.3 v -4 l -2.3,1.3 z m 3.3,-1.9 2.3,-1.3 v -4 L 54.1,47 Z m 6.4,-3.7 2.3,-1.3 v -4 l -2.3,1.3 z m 3.5,-6.1 -0.3,0.2 v 4 l 2.1,-1.2 v -1.9 c 0,-1 -1,-1.6 -1.8,-1.1 z M 47.8,52.3 v 2.4 l 2.1,-1.2 v -4 l -0.7,0.4 c -0.9,0.4 -1.4,1.4 -1.4,2.4 z"
         class="st7" />
    </g>
    <g
       id="g1360"
       transform="matrix(0.52861385,0,0,0.52861385,23.602724,201.34347)"
       style="stroke-width:0.50052291">
      <polygon
         style="fill:#c8d3d9;stroke-width:0.50052291"
         id="polygon1354"
         points="35.7,92.3 35.7,122.2 11.2,108 11.2,78.1 "
         class="st21" />
      <polygon
         style="fill:#95a6b1;stroke-width:0.50052291"
         id="polygon1356"
         points="38.4,120.7 38.4,90.8 35.7,92.3 35.7,122.2 "
         class="st19" />
      <polygon
         style="fill:#ffffff;stroke-width:0.50052291"
         id="polygon1358"
         points="35.7,92.3 11.2,78.1 13.9,76.6 38.4,90.8 "
         class="st2" />
    </g>
    <path
       style="fill:#354b54;stroke-width:0.26458335"
       inkscape:connector-curvature="0"
       id="path1362"
       d="m 53.839436,267.20876 1.480112,-0.84579 v -0.95151 l -1.480112,0.8458 z m 0,-5.18042 v 0.9515 l 1.480112,-0.84577 v -0.95151 z m 0,3.06595 1.480112,-0.84577 v -0.95151 l -1.480112,0.84578 z"
       class="st5" />
    <path
       style="fill:#354b54;stroke-width:0.26458335"
       inkscape:connector-curvature="0"
       id="path1364"
       d="m 64.094551,261.23541 1.480112,-0.84578 v -0.9515 l -1.480112,0.84577 z m 0,-5.12754 v 0.95151 l 1.480112,-0.8458 v -0.95151 z m 0,3.01309 1.480112,-0.84578 v -0.9515 l -1.480112,0.84577 z"
       class="st5" />
    <g
       id="g1412"
       transform="matrix(0.52861385,0,0,0.52861385,23.602724,201.34347)"
       style="stroke-width:0.50052291">
      <polygon
         style="fill:#658bc8;stroke-width:0.50052291"
         id="polygon1366"
         points="21.2,56.7 23.9,58.2 24.8,57.4 21.2,55.3 "
         class="st8" />
      <polygon
         style="fill:#658bc8;stroke-width:0.50052291"
         id="polygon1368"
         points="35.8,66.8 31.1,64.1 30.2,64.9 35.8,68.2 "
         class="st8" />
      <polygon
         style="fill:#658bc8;stroke-width:0.50052291"
         id="polygon1370"
         points="35.8,69.9 29,66 28.1,66.8 35.8,71.3 "
         class="st8" />
      <polygon
         style="fill:#658bc8;stroke-width:0.50052291"
         id="polygon1372"
         points="21.2,53.5 26,56.3 26.9,55.4 21.2,52.2 "
         class="st8" />
      <polygon
         style="fill:#658bc8;stroke-width:0.50052291"
         id="polygon1374"
         points="35.8,73.1 26.9,67.9 26,68.8 35.8,74.4 "
         class="st8" />
      <polygon
         style="fill:#658bc8;stroke-width:0.50052291"
         id="polygon1376"
         points="21.2,59.8 21.9,60.2 22.8,59.3 21.2,58.4 "
         class="st8" />
      <polygon
         style="fill:#658bc8;stroke-width:0.50052291"
         id="polygon1378"
         points="21.2,50.4 28,54.4 28.9,53.5 21.2,49 "
         class="st8" />
      <polygon
         style="fill:#658bc8;stroke-width:0.50052291"
         id="polygon1380"
         points="35.8,62 35.8,60.6 35.3,60.3 34.3,61.1 "
         class="st8" />
      <polygon
         style="fill:#658bc8;stroke-width:0.50052291"
         id="polygon1382"
         points="35.8,63.7 33.2,62.2 32.2,63 35.8,65.1 "
         class="st8" />
      <path
         style="fill:#658bc8;stroke-width:0.50052291"
         inkscape:connector-curvature="0"
         id="path1384"
         d="m 23.6,41.4 -0.3,-0.2 c -0.8,-0.5 -1.8,0.1 -1.8,1.1 v 1.9 l 2.1,1.2 z"
         class="st8" />
      <polygon
         style="fill:#658bc8;stroke-width:0.50052291"
         id="polygon1386"
         points="32.2,50.4 33.2,49.4 33.2,47 30.9,45.7 30.9,49.7 "
         class="st8" />
      <polygon
         style="fill:#658bc8;stroke-width:0.50052291"
         id="polygon1388"
         points="27.7,43.8 27.7,47.8 30,49.2 30,45.1 "
         class="st8" />
      <polygon
         style="fill:#658bc8;stroke-width:0.50052291"
         id="polygon1390"
         points="34.2,48.6 34.8,47.9 34.2,47.5 "
         class="st8" />
      <polygon
         style="fill:#658bc8;stroke-width:0.50052291"
         id="polygon1392"
         points="24.5,41.9 24.5,46 26.8,47.3 26.8,43.3 "
         class="st8" />
      <polygon
         style="fill:#8ab5e1;stroke-width:0.50052291"
         id="polygon1394"
         points="26,68.8 26.9,67.9 21.2,64.6 21.2,66 "
         class="st12" />
      <polygon
         style="fill:#8ab5e1;stroke-width:0.50052291"
         id="polygon1396"
         points="28.9,53.5 28,54.4 35.8,58.8 35.8,57.5 "
         class="st12" />
      <polygon
         style="fill:#8ab5e1;stroke-width:0.50052291"
         id="polygon1398"
         points="28.1,66.8 29,66 21.2,61.5 21.2,62.9 "
         class="st12" />
      <polygon
         style="fill:#8ab5e1;stroke-width:0.50052291"
         id="polygon1400"
         points="26,56.3 34.3,61.1 35.3,60.3 26.9,55.4 "
         class="st12" />
      <polygon
         style="fill:#8ab5e1;stroke-width:0.50052291"
         id="polygon1402"
         points="32.2,63 33.2,62.2 24.8,57.4 23.9,58.2 "
         class="st12" />
      <polygon
         style="fill:#8ab5e1;stroke-width:0.50052291"
         id="polygon1404"
         points="30.2,64.9 31.1,64.1 22.8,59.3 21.9,60.2 "
         class="st12" />
      <path
         style="fill:#8ab5e1;stroke-width:0.50052291"
         inkscape:connector-curvature="0"
         id="path1406"
         d="m 39.5,52.3 c 0,-1 -0.5,-2 -1.4,-2.5 l -0.7,-0.4 v 4 l 2.1,1.2 z"
         class="st12" />
      <polygon
         style="fill:#8ab5e1;stroke-width:0.50052291"
         id="polygon1408"
         points="32.2,50.4 33.2,51 33.2,49.4 "
         class="st12" />
      <polygon
         style="fill:#8ab5e1;stroke-width:0.50052291"
         id="polygon1410"
         points="34.2,48.6 34.2,51.6 36.4,52.9 36.4,48.9 34.8,47.9 "
         class="st12" />
    </g>
    <g
       id="g1458"
       transform="matrix(0.52861385,0,0,0.52861385,23.602724,201.34347)"
       style="stroke-width:0.50052291">
      <polygon
         style="fill:#658bc8;stroke-width:0.50052291"
         id="polygon1414"
         points="13.6,93.5 14.7,94.1 15.9,93 13.6,91.6 "
         class="st8" />
      <polygon
         style="fill:#658bc8;stroke-width:0.50052291"
         id="polygon1416"
         points="13.6,89.3 17.5,91.5 18.7,90.4 13.6,87.4 "
         class="st8" />
      <polygon
         style="fill:#658bc8;stroke-width:0.50052291"
         id="polygon1418"
         points="33.3,115.7 20.9,108.5 19.6,109.6 33.3,117.6 "
         class="st8" />
      <polygon
         style="fill:#658bc8;stroke-width:0.50052291"
         id="polygon1420"
         points="33.3,111.5 23.7,105.9 22.4,107 33.3,113.3 "
         class="st8" />
      <polygon
         style="fill:#658bc8;stroke-width:0.50052291"
         id="polygon1422"
         points="33.3,103 29.4,100.7 28.1,101.9 33.3,104.9 "
         class="st8" />
      <polygon
         style="fill:#658bc8;stroke-width:0.50052291"
         id="polygon1424"
         points="13.6,85.1 20.2,88.9 21.5,87.7 13.6,83.2 "
         class="st8" />
      <polygon
         style="fill:#658bc8;stroke-width:0.50052291"
         id="polygon1426"
         points="33.3,107.3 26.5,103.3 25.3,104.5 33.3,109.1 "
         class="st8" />
      <polygon
         style="fill:#658bc8;stroke-width:0.50052291"
         id="polygon1428"
         points="33.3,100.7 33.3,98.8 32.2,98.2 31,99.3 "
         class="st8" />
      <polygon
         style="fill:#658bc8;stroke-width:0.50052291"
         id="polygon1430"
         points="18.1,73.6 18.1,79 21.2,80.8 21.2,75.4 "
         class="st8" />
      <path
         style="fill:#658bc8;stroke-width:0.50052291"
         inkscape:connector-curvature="0"
         id="path1432"
         d="M 16.8,72.8 16.4,72.6 C 15.3,72 13.9,72.8 13.9,74 v 2.6 l 2.9,1.7 z"
         class="st8" />
      <polygon
         style="fill:#658bc8;stroke-width:0.50052291"
         id="polygon1434"
         points="26.8,82.7 29.5,80.2 26.8,78.6 "
         class="st8" />
      <polygon
         style="fill:#658bc8;stroke-width:0.50052291"
         id="polygon1436"
         points="22.4,76.1 22.4,81.5 25.5,83.3 25.5,77.9 "
         class="st8" />
      <path
         style="fill:#8ab5e1;stroke-width:0.50052291"
         inkscape:connector-curvature="0"
         id="path1438"
         d="m 35.5,83.7 0.9,0.5 c 1.2,0.7 2,2 2,3.4 v 3.2 l -2.9,-1.7 z m -4.4,2.9 v -5.5 l 3.1,1.8 v 5.5 z"
         class="st12" />
      <polygon
         style="fill:#8ab5e1;stroke-width:0.50052291"
         id="polygon1440"
         points="17.5,91.5 31,99.3 32.2,98.2 18.7,90.4 "
         class="st12" />
      <polygon
         style="fill:#8ab5e1;stroke-width:0.50052291"
         id="polygon1442"
         points="28.1,101.9 29.4,100.7 15.9,93 14.7,94.1 "
         class="st12" />
      <polygon
         style="fill:#8ab5e1;stroke-width:0.50052291"
         id="polygon1444"
         points="21.5,87.7 20.2,88.9 33.3,96.5 33.3,94.6 "
         class="st12" />
      <polygon
         style="fill:#8ab5e1;stroke-width:0.50052291"
         id="polygon1446"
         points="22.4,107 23.7,105.9 13.6,100.1 13.6,101.9 "
         class="st12" />
      <polygon
         style="fill:#8ab5e1;stroke-width:0.50052291"
         id="polygon1448"
         points="19.6,109.6 20.9,108.5 13.6,104.3 13.6,106.2 "
         class="st12" />
      <polygon
         style="fill:#8ab5e1;stroke-width:0.50052291"
         id="polygon1450"
         points="25.3,104.5 26.5,103.3 13.6,95.8 13.6,97.7 "
         class="st12" />
      <polygon
         style="fill:#8ab5e1;stroke-width:0.50052291"
         id="polygon1452"
         points="26.8,82.7 26.8,84.1 29.9,85.9 29.9,80.4 29.5,80.2 "
         class="st12" />
      <polygon
         style="fill:#8ab5e1;stroke-width:0.50052291"
         id="polygon1454"
         points="31.1,81.1 31.1,86.6 34.2,88.4 34.2,82.9 "
         class="st12" />
      <path
         style="fill:#8ab5e1;stroke-width:0.50052291"
         inkscape:connector-curvature="0"
         id="path1456"
         d="m 38.4,87.6 c 0,-1.4 -0.7,-2.7 -2,-3.4 l -0.9,-0.5 v 5.5 l 2.9,1.7 z"
         class="st12" />
    </g>
    <g
       id="g1472"
       transform="matrix(0.52861385,0,0,0.52861385,23.602724,201.34347)"
       style="stroke-width:0.50052291">
      <path
         style="fill:#006633;stroke-width:0.50052291"
         inkscape:connector-curvature="0"
         id="path1460"
         d="m 6.5,95.2 v -0.3 c 0,-1.9 1.5,-3.6 3.4,-3.6 2,-0.1 3.6,1.5 3.6,3.5 v 0.4 c 0,2.1 0.6,4.1 2,5.7 1,1.2 1.6,2.7 1.6,4.4 0,3.8 -3,7 -6.7,7.1 -4.1,0.2 -7.4,-3 -7.4,-7.1 0,-1.6 0.6,-3.2 1.5,-4.4 1.2,-1.7 2,-3.6 2,-5.7 z"
         class="st18" />
      <path
         style="fill:#ef787c;stroke-width:0.50052291"
         inkscape:connector-curvature="0"
         id="path1462"
         d="m 10,113.7 c 0.1,0 0.3,0 0.4,0 0.1,0 0.2,0 0.4,0 v 2.5 c 0,0.2 -0.4,0.4 -0.9,0.4 -0.5,0 -0.9,-0.2 -0.9,-0.4 v -2.5 c 0.3,0 0.6,0 1,0 0,0 0,0 0,0 z"
         class="st22" />
      <path
         style="fill:#e84249;stroke-width:0.50052291"
         inkscape:connector-curvature="0"
         id="path1464"
         d="m 10.3,112.3 c 0.1,0 0.3,0 0.4,0 v 1.4 c -0.1,0 -0.2,0 -0.4,0 -0.1,0 -0.3,0 -0.4,0 0,0 0,0 0,0 -0.4,0 -0.7,0 -1.1,-0.1 v -1.4 c 0.6,0.1 1,0.1 1.5,0.1 z"
         class="st6" />
      <path
         style="fill:#4db05b;stroke-width:0.50052291"
         inkscape:connector-curvature="0"
         id="path1466"
         d="m 16.5,100.8 v -0.3 c 0,-1.9 1.5,-3.6 3.4,-3.6 2,-0.1 3.6,1.5 3.6,3.5 v 0.4 c 0,2.1 0.6,4.1 2,5.7 1,1.2 1.6,2.7 1.6,4.4 0,3.8 -3,7 -6.7,7.1 -4.1,0.2 -7.4,-3 -7.4,-7.1 0,-1.6 0.6,-3.2 1.5,-4.4 1.2,-1.7 2,-3.6 2,-5.7 z"
         class="st15" />
      <path
         style="fill:#ef787c;stroke-width:0.50052291"
         inkscape:connector-curvature="0"
         id="path1468"
         d="m 20,119.3 c 0.1,0 0.3,0 0.4,0 0.1,0 0.2,0 0.4,0 v 2.5 c 0,0.2 -0.4,0.4 -0.9,0.4 -0.5,0 -0.9,-0.2 -0.9,-0.4 v -2.5 c 0.2,0 0.6,0 1,0 z"
         class="st22" />
      <path
         style="fill:#e84249;stroke-width:0.50052291"
         inkscape:connector-curvature="0"
         id="path1470"
         d="m 20.3,117.9 c 0.1,0 0.3,0 0.4,0 v 1.4 c -0.1,0 -0.2,0 -0.4,0 -0.1,0 -0.3,0 -0.4,0 v 0 c -0.4,0 -0.7,0 -1.1,-0.1 v -1.4 c 0.5,0.1 1,0.1 1.5,0.1 z"
         class="st6" />
    </g>
  </g>
</svg>
