<?xml version="1.0" encoding="UTF-8" standalone="no"?>
<svg
   xmlns:dc="http://purl.org/dc/elements/1.1/"
   xmlns:cc="http://creativecommons.org/ns#"
   xmlns:rdf="http://www.w3.org/1999/02/22-rdf-syntax-ns#"
   xmlns:svg="http://www.w3.org/2000/svg"
   xmlns="http://www.w3.org/2000/svg"
   xmlns:sodipodi="http://sodipodi.sourceforge.net/DTD/sodipodi-0.dtd"
   xmlns:inkscape="http://www.inkscape.org/namespaces/inkscape"
   viewBox="0 0 556.03922 320.10853"
   version="1.1"
   id="svg322"
   sodipodi:docname="illustration19-dlb-corps-en.svg"
   width="5.7920752in"
   height="3.3344638in"
   inkscape:version="0.92.0 r15299">
  <metadata
     id="metadata326">
    <rdf:RDF>
      <cc:Work
         rdf:about="">
        <dc:format>image/svg+xml</dc:format>
        <dc:type
           rdf:resource="http://purl.org/dc/dcmitype/StillImage" />
        <dc:title>EN</dc:title>
      </cc:Work>
    </rdf:RDF>
  </metadata>
  <sodipodi:namedview
     pagecolor="#ffffff"
     bordercolor="#666666"
     borderopacity="1"
     objecttolerance="10"
     gridtolerance="10"
     guidetolerance="10"
     inkscape:pageopacity="0"
     inkscape:pageshadow="2"
     inkscape:window-width="1600"
     inkscape:window-height="837"
     id="namedview324"
     showgrid="false"
     units="in"
     inkscape:zoom="1.7264562"
     inkscape:cx="274.24189"
     inkscape:cy="124.44923"
     inkscape:window-x="1912"
     inkscape:window-y="-8"
     inkscape:window-maximized="1"
     inkscape:current-layer="Laag_2"
     fit-margin-top="0"
     fit-margin-left="0"
     fit-margin-right="0"
     fit-margin-bottom="0" />
  <defs
     id="defs4">
    <style
       id="style2">.cls-1,.cls-10,.cls-11,.cls-2,.cls-8,.cls-9{fill:none;}.cls-1{stroke:#60b5bf;}.cls-1,.cls-10,.cls-13,.cls-2,.cls-8{stroke-linecap:round;}.cls-1,.cls-10,.cls-13,.cls-8{stroke-linejoin:round;}.cls-1,.cls-10,.cls-11,.cls-13,.cls-2,.cls-8{stroke-width:1.03px;}.cls-1,.cls-10,.cls-11,.cls-13,.cls-8{stroke-dasharray:1.91 1.91 1.91 1.91;}.cls-2{stroke:#878787;}.cls-11,.cls-12,.cls-2{stroke-miterlimit:10;}.cls-14,.cls-3{fill:#878787;}.cls-4{fill:#60b5bf;}.cls-5{fill:#231f20;}.cls-12,.cls-13,.cls-6{fill:#fff;}.cls-7{fill:#e3702a;}.cls-8{stroke:#6dc1ca;}.cls-10,.cls-12,.cls-13{stroke:#e3702a;}.cls-11{stroke:#231f20;}.cls-12{stroke-width:0.72px;}.cls-14{font-size:11.42px;font-family:HelveticaNeue-Bold, Helvetica Neue;font-weight:700;}</style>
  </defs>
  <title
     id="title6">EN</title>
  <g
     id="Laag_2"
     data-name="Laag 2"
     transform="translate(-7.5431168,46.576183)">
    <line
       style="fill:none;stroke:#60b5bf;stroke-width:1.02999997px;stroke-linecap:round;stroke-linejoin:round;stroke-dasharray:1.91, 1.91, 1.91, 1.91"
       id="line8"
       y2="273.01001"
       x2="84.169998"
       y1="263.38"
       x1="84.169998"
       class="cls-1" />
    <path
       style="fill:none;stroke:#878787;stroke-width:1.02999997px;stroke-linecap:round;stroke-miterlimit:10"
       inkscape:connector-curvature="0"
       id="path10"
       d="m 21.42,193.6 h 5.5 v 6.69 h -5.5 z m 0,11.18 h 5.5 v 6.68 h -5.5 z m 0,11 h 5.5 v 6.68 h -5.5 z m 0,11.17 h 5.5 v 6.68 h -5.5 z m 19.32,8.09 h -5.5 v -6.68 h 5.49 z m 0,-11.17 h -5.5 v -6.68 h 5.49 z m 0,-11.33 h -5.5 v -6.68 h 5.49 z m 0,-11.17 h -5.5 v -6.68 h 5.49 z m 0,-11 h -5.5 v -6.68 h 5.49 z m 0,-11.17 h -5.5 v -6.68 h 5.49 z m 10,55.88 h -5.47 v -6.68 h 5.48 z m 0,-11.17 h -5.47 v -6.68 h 5.48 z m 0,-11.33 h -5.47 v -6.68 h 5.48 z m 0,-11.17 h -5.47 v -6.68 h 5.48 z m 0,-11 h -5.47 v -6.68 h 5.48 z m 0,-11.17 h -5.47 v -6.68 h 5.48 z m 10,55.88 H 55.3 v -6.68 h 5.49 z m 0,-11.17 H 55.3 v -6.68 h 5.49 z m 0,-11.33 H 55.3 v -6.68 h 5.49 z m 0,-11.17 H 55.3 v -6.68 h 5.49 z m 0,-11 H 55.3 v -6.68 h 5.49 z m 0,-11.17 H 55.3 v -6.68 h 5.49 z"
       class="cls-2" />
    <polyline
       style="fill:none;stroke:#60b5bf;stroke-width:1.02999997px;stroke-linecap:round;stroke-linejoin:round;stroke-dasharray:1.91, 1.91, 1.91, 1.91"
       id="polyline12"
       points="563.06 273.01 51.35 273.01 51.35 254.81"
       class="cls-1" />
    <path
       style="fill:none;stroke:#878787;stroke-width:1.02999997px;stroke-linecap:round;stroke-miterlimit:10"
       inkscape:connector-curvature="0"
       id="path14"
       d="m 71.12,263.42 v -6.92 h -4.05 v -87.1 h 1 v -4.52 H 54.18 V 161.3 H 33.89 v 3.58 h -6.45 v 4.52 h 1.68 v 13 h -21"
       class="cls-2" />
    <rect
       style="fill:#878787"
       id="rect16"
       height="25.91"
       width="2.5"
       y="237.14999"
       x="82.919998"
       class="cls-3" />
    <path
       style="fill:#60b5bf"
       inkscape:connector-curvature="0"
       id="path18"
       d="M 85.28,201.31 H 83.06 A 6.48,6.48 0 0 0 76.82,208 v 23.59 a 6.48,6.48 0 0 0 6.24,6.69 h 2.22 a 6.48,6.48 0 0 0 6.25,-6.69 V 208 a 6.48,6.48 0 0 0 -6.25,-6.69 z m 1.64,3.23 a 0.88,0.88 0 1 1 -0.88,0.88 0.88,0.88 0 0 1 0.88,-0.88 z m -2.69,10 a 4,4 0 1 1 4,-4 4,4 0 0 1 -3.99,3.99 z"
       class="cls-4" />
    <path
       style="fill:#231f20"
       inkscape:connector-curvature="0"
       id="path20"
       d="m 111.16,240.41 c -1.88,0 -3.21,0.52 -4,1.53 a 4.12,4.12 0 0 0 -0.48,3.37 c 0,0.07 1.71,6.74 -1,10.27 a 6.17,6.17 0 0 1 -5.18,2.18 c -2.92,0 -5.05,-1 -6.36,-2.86 -4.11,-6 1,-19.38 1.05,-19.56 1.2,-4.07 1,-7.41 -0.46,-9.93 a 8.2,8.2 0 0 0 -4.91,-3.68 6.42,6.42 0 0 1 -5.11,-6.18 h 0.83 l 0.5,-2.58 a 3,3 0 1 0 -3.57,0 l 0.5,2.58 h 0.73 a 7.44,7.44 0 0 0 5.87,7.18 7.29,7.29 0 0 1 4.31,3.27 c 1.34,2.26 1.46,5.32 0.36,9.06 -0.22,0.57 -5.34,14 -0.93,20.47 1.5,2.19 3.93,3.3 7.2,3.3 a 7.14,7.14 0 0 0 6,-2.58 c 3,-3.93 1.28,-10.86 1.2,-11.17 a 3.09,3.09 0 0 1 0.32,-2.48 c 0.55,-0.74 1.6,-1.12 3.14,-1.12 v 0 -1 z"
       class="cls-5" />
    <path
       style="fill:none;stroke:#878787;stroke-width:1.02999997px;stroke-linecap:round;stroke-miterlimit:10"
       inkscape:connector-curvature="0"
       id="path22"
       d="m 184.41,226.74 a 2.15,2.15 0 0 0 -2.14,-2.16 h -7.12 l -3.83,-7.77 c -3.34,-6.9 -17.13,-7.84 -22.21,-7.94 v 0 c -1,0 -1.7,0 -1.84,0 h -1.87 c -3,0 -19.89,0.22 -23.63,8 l -3.84,7.77 h -7.13 a 2.16,2.16 0 0 0 -2.16,2.16 2.34,2.34 0 0 0 0.06,0.47 v 0 l 1.16,4.89 a 3.09,3.09 0 0 0 0.08,0.3 v 0 a 2.16,2.16 0 0 0 2,1.49 h 2.08 a 12.71,12.71 0 0 0 0.68,18 c 0,0 0,0 0,0.06 v 8 a 3,3 0 0 0 3,3 h 6.88 a 3,3 0 0 0 3,-3 v -3.39 h 37.77 v 3.39 a 3,3 0 0 0 3,3 h 6.88 a 3,3 0 0 0 3,-3 v -7.82 a 13.13,13.13 0 0 0 4.3,-9.56 12.93,12.93 0 0 0 -3.53,-8.73 h 2.07 a 2.16,2.16 0 0 0 2,-1.49 v 0 a 1.39,1.39 0 0 0 0.07,-0.3 l 1.17,-4.89 v 0 a 2.08,2.08 0 0 0 0.1,-0.48 z m -61.92,0.84 3.39,-6.49 c 1.65,-3.24 6.25,-4.89 10.73,-5.73 7.45,-1.39 18.43,-0.25 18.43,-0.25 4.89,0.75 10.32,2.39 12.15,6 l 3.39,6.4 v 0.12 h -48.09 z m 7.51,14.84 a 3.19,3.19 0 0 1 -0.63,-0.06 13.5,13.5 0 0 1 -4.5,-0.36 c -4,-1 -6.87,-3.29 -6.42,-5.21 a 1.79,1.79 0 0 1 0.29,-0.61 c 0.81,-1.27 3.79,-2.08 7.28,-1.87 a 13.51,13.51 0 0 1 5.61,1.41 4.51,4.51 0 0 1 0.52,0.33 2.63,2.63 0 0 1 0.93,1.06 3.47,3.47 0 0 1 0.47,1.76 3.55,3.55 0 0 1 -3.55,3.55 z M 168.45,242 a 13.51,13.51 0 0 1 -4.5,0.36 3.13,3.13 0 0 1 -0.62,0.06 3.55,3.55 0 0 1 -3.55,-3.55 3.46,3.46 0 0 1 0.47,-1.76 2.68,2.68 0 0 1 0.93,-1.06 4.42,4.42 0 0 1 0.52,-0.33 13.51,13.51 0 0 1 5.61,-1.41 c 3.5,-0.21 6.47,0.61 7.29,1.88 a 2.1,2.1 0 0 1 0.29,0.61 c 0.48,1.92 -2.39,4.2 -6.4,5.2 z"
       class="cls-2" />
    <rect
       style="fill:#878787"
       id="rect24"
       height="25.76"
       width="2.5"
       y="237.14999"
       x="196.67999"
       class="cls-3" />
    <path
       style="fill:#60b5bf"
       inkscape:connector-curvature="0"
       id="path26"
       d="m 199,201.31 h -2.22 a 6.48,6.48 0 0 0 -6.25,6.69 v 23.59 a 6.48,6.48 0 0 0 6.25,6.69 H 199 a 6.48,6.48 0 0 0 6.25,-6.69 V 208 A 6.48,6.48 0 0 0 199,201.31 Z m 1.64,3.23 a 0.88,0.88 0 1 1 -0.88,0.88 0.88,0.88 0 0 1 0.92,-0.88 z m -2.69,10 a 4,4 0 1 1 4,-4 4,4 0 0 1 -3.95,3.99 z"
       class="cls-4" />
    <rect
       style="fill:#878787"
       id="rect28"
       height="25.76"
       width="2.5"
       y="237.14999"
       x="310.42999"
       class="cls-3" />
    <path
       style="fill:#60b5bf"
       inkscape:connector-curvature="0"
       id="path30"
       d="m 312.8,201.31 h -2.22 a 6.48,6.48 0 0 0 -6.25,6.69 v 23.59 a 6.48,6.48 0 0 0 6.25,6.69 h 2.22 a 6.48,6.48 0 0 0 6.25,-6.69 V 208 a 6.48,6.48 0 0 0 -6.25,-6.69 z m 1.64,3.23 a 0.88,0.88 0 1 1 -0.88,0.88 0.88,0.88 0 0 1 0.88,-0.88 z m -2.69,10 a 4,4 0 1 1 4,-4 4,4 0 0 1 -4,3.99 z"
       class="cls-4" />
    <rect
       style="fill:#878787"
       id="rect32"
       height="25.76"
       width="2.5"
       y="237.14999"
       x="424.19"
       class="cls-3" />
    <path
       style="fill:#60b5bf"
       inkscape:connector-curvature="0"
       id="path34"
       d="m 426.55,201.31 h -2.22 a 6.48,6.48 0 0 0 -6.24,6.69 v 23.59 a 6.48,6.48 0 0 0 6.24,6.69 h 2.22 a 6.48,6.48 0 0 0 6.25,-6.69 V 208 a 6.48,6.48 0 0 0 -6.25,-6.69 z m 1.64,3.23 a 0.88,0.88 0 1 1 -0.88,0.88 0.88,0.88 0 0 1 0.89,-0.88 z m -2.69,10 a 4,4 0 1 1 4,-4 4,4 0 0 1 -3.99,3.99 z"
       class="cls-4" />
    <polyline
       style="fill:#878787"
       id="polyline36"
       points="535.66 262.9 535.66 237.15 538.17 237.15 538.17 262.9"
       class="cls-3" />
    <path
       style="fill:#60b5bf"
       inkscape:connector-curvature="0"
       id="path38"
       d="m 538,201.31 h -2.22 a 6.48,6.48 0 0 0 -6.25,6.69 v 23.59 a 6.48,6.48 0 0 0 6.25,6.69 H 538 a 6.48,6.48 0 0 0 6.25,-6.69 V 208 A 6.48,6.48 0 0 0 538,201.31 Z m 1.64,3.23 a 0.88,0.88 0 1 1 -0.88,0.88 0.88,0.88 0 0 1 0.91,-0.88 z m -2.69,10 a 4,4 0 1 1 4,-4 4,4 0 0 1 -3.95,3.99 z"
       class="cls-4" />
    <path
       style="fill:#60b5bf"
       inkscape:connector-curvature="0"
       id="path40"
       d="m 536.92,175.58 a 10,10 0 1 0 10,10 10.06,10.06 0 0 0 -10,-10 z"
       class="cls-4" />
    <path
       style="fill:#ffffff"
       inkscape:connector-curvature="0"
       id="path42"
       d="M 536.92,174.5 A 11.12,11.12 0 1 0 548,185.62 11.14,11.14 0 0 0 536.92,174.5 Z m 0,21.16 a 10,10 0 1 1 10,-10 10.06,10.06 0 0 1 -10,10 z"
       class="cls-6" />
    <path
       style="fill:#ffffff"
       inkscape:connector-curvature="0"
       id="path44"
       d="m 535.16,186.29 -2.4,-2.41 -2.29,2.3 4.7,4.71 8.21,-8.24 -2.29,-2.3 -5.92,5.94"
       class="cls-6" />
    <path
       style="fill:#60b5bf"
       inkscape:connector-curvature="0"
       id="path46"
       d="m 536.29,210.79 -0.87,-0.87 -0.83,0.83 1.69,1.7 3,-3 -0.83,-0.83 -2.14,2.14"
       class="cls-4" />
    <path
       style="fill:#e3702a"
       inkscape:connector-curvature="0"
       id="path48"
       d="m 198.72,183.56 -1.54,-3.26 -0.18,3.6 a 2,2 0 1 0 1.71,-0.34 z"
       class="cls-7" />
    <path
       style="fill:#e3702a"
       inkscape:connector-curvature="0"
       id="path50"
       d="m 311.46,183.56 -1.54,-3.26 -0.18,3.6 a 2,2 0 1 0 1.72,-0.34 z"
       class="cls-7" />
    <line
       style="fill:none;stroke:#6dc1ca;stroke-width:1.02999997px;stroke-linecap:round;stroke-linejoin:round;stroke-dasharray:1.91, 1.91, 1.91, 1.91"
       id="line52"
       y2="273.01001"
       x2="536.91998"
       y1="263.38"
       x1="536.91998"
       class="cls-8" />
    <line
       style="fill:none;stroke:#60b5bf;stroke-width:1.02999997px;stroke-linecap:round;stroke-linejoin:round;stroke-dasharray:1.91, 1.91, 1.91, 1.91"
       id="line54"
       y2="273.01001"
       x2="425.54999"
       y1="263.38"
       x1="425.54999"
       class="cls-1" />
    <line
       style="fill:none;stroke:#60b5bf;stroke-width:1.02999997px;stroke-linecap:round;stroke-linejoin:round;stroke-dasharray:1.91, 1.91, 1.91, 1.91"
       id="line56"
       y2="273.01001"
       x2="311.69"
       y1="263.38"
       x1="311.69"
       class="cls-1" />
    <line
       style="fill:none;stroke:#60b5bf;stroke-width:1.02999997px;stroke-linecap:round;stroke-linejoin:round;stroke-dasharray:1.91, 1.91, 1.91, 1.91"
       id="line58"
       y2="273.01001"
       x2="197.92999"
       y1="263.38"
       x1="197.92999"
       class="cls-1" />
    <line
       style="fill:none;stroke:#878787;stroke-width:1.02999997px;stroke-linecap:round;stroke-miterlimit:10"
       id="line60"
       y2="263.42001"
       x2="563.06"
       y1="263.42001"
       x1="72.980003"
       class="cls-2" />
    <path
       style="fill:#231f20"
       inkscape:connector-curvature="0"
       id="path62"
       d="m 93.72,205.46 a 0.5,0.5 0 0 1 -0.5,-0.5 5.56,5.56 0 0 0 -5.55,-5.56 v 0 a 0.5,0.5 0 1 1 0,-1 v 0 a 6.55,6.55 0 0 1 6.55,6.6 0.5,0.5 0 0 1 -0.5,0.5 z"
       class="cls-5" />
    <path
       style="fill:#231f20"
       inkscape:connector-curvature="0"
       id="path64"
       d="m 96.09,205.46 a 0.5,0.5 0 0 1 -0.5,-0.5 7.94,7.94 0 0 0 -7.92,-7.96 0.5,0.5 0 1 1 0,-1 8.93,8.93 0 0 1 8.92,9 0.5,0.5 0 0 1 -0.5,0.46 z"
       class="cls-5" />
    <path
       style="fill:#231f20"
       inkscape:connector-curvature="0"
       id="path66"
       d="m 98.47,205.46 a 0.5,0.5 0 0 1 -0.5,-0.5 10.3,10.3 0 0 0 -10.3,-10.3 0.52,0.52 0 0 1 -0.5,-0.49 0.49,0.49 0 0 1 0.5,-0.5 v 0 A 11.29,11.29 0 0 1 99,205 a 0.5,0.5 0 0 1 -0.53,0.46 z"
       class="cls-5" />
    <path
       style="fill:#231f20"
       inkscape:connector-curvature="0"
       id="path68"
       d="m 207.22,205.46 a 0.5,0.5 0 0 1 -0.5,-0.5 5.56,5.56 0 0 0 -5.55,-5.56 v 0 a 0.5,0.5 0 0 1 0,-1 v 0 a 6.55,6.55 0 0 1 6.54,6.55 0.5,0.5 0 0 1 -0.5,0.5 z"
       class="cls-5" />
    <path
       style="fill:#231f20"
       inkscape:connector-curvature="0"
       id="path70"
       d="m 209.59,205.46 a 0.5,0.5 0 0 1 -0.49,-0.5 7.94,7.94 0 0 0 -7.93,-7.93 0.5,0.5 0 1 1 0,-1 8.93,8.93 0 0 1 8.92,8.92 0.5,0.5 0 0 1 -0.5,0.51 z"
       class="cls-5" />
    <path
       style="fill:#231f20"
       inkscape:connector-curvature="0"
       id="path72"
       d="m 212,205.46 a 0.5,0.5 0 0 1 -0.5,-0.5 10.3,10.3 0 0 0 -10.3,-10.3 0.52,0.52 0 0 1 -0.5,-0.49 0.5,0.5 0 0 1 0.5,-0.5 v 0 A 11.29,11.29 0 0 1 212.46,205 0.5,0.5 0 0 1 212,205.46 Z"
       class="cls-5" />
    <path
       style="fill:#231f20"
       inkscape:connector-curvature="0"
       id="path74"
       d="m 320.91,205.46 a 0.5,0.5 0 0 1 -0.5,-0.5 5.56,5.56 0 0 0 -5.55,-5.56 v 0 a 0.5,0.5 0 0 1 0,-1 v 0 a 6.55,6.55 0 0 1 6.54,6.6 0.5,0.5 0 0 1 -0.5,0.5 z"
       class="cls-5" />
    <path
       style="fill:#231f20"
       inkscape:connector-curvature="0"
       id="path76"
       d="m 323.28,205.46 a 0.5,0.5 0 0 1 -0.5,-0.5 7.94,7.94 0 0 0 -7.93,-7.93 0.5,0.5 0 1 1 0,-1 8.93,8.93 0 0 1 8.92,8.92 0.5,0.5 0 0 1 -0.49,0.51 z"
       class="cls-5" />
    <path
       style="fill:#231f20"
       inkscape:connector-curvature="0"
       id="path78"
       d="m 325.65,205.46 a 0.5,0.5 0 0 1 -0.5,-0.5 10.3,10.3 0 0 0 -10.3,-10.3 0.52,0.52 0 0 1 -0.5,-0.49 0.5,0.5 0 0 1 0.5,-0.5 v 0 a 11.29,11.29 0 0 1 11.3,11.33 0.49,0.49 0 0 1 -0.5,0.46 z"
       class="cls-5" />
    <path
       style="fill:#231f20"
       inkscape:connector-curvature="0"
       id="path80"
       d="m 434.55,205.46 a 0.5,0.5 0 0 1 -0.5,-0.5 5.56,5.56 0 0 0 -5.55,-5.56 v 0 a 0.5,0.5 0 0 1 0,-1 v 0 a 6.55,6.55 0 0 1 6.5,6.6 0.5,0.5 0 0 1 -0.49,0.5 z"
       class="cls-5" />
    <path
       style="fill:#231f20"
       inkscape:connector-curvature="0"
       id="path82"
       d="m 436.93,205.46 a 0.5,0.5 0 0 1 -0.5,-0.5 7.94,7.94 0 0 0 -7.93,-7.96 0.5,0.5 0 1 1 0,-1 8.93,8.93 0 0 1 8.92,8.92 0.5,0.5 0 0 1 -0.49,0.54 z"
       class="cls-5" />
    <path
       style="fill:#231f20"
       inkscape:connector-curvature="0"
       id="path84"
       d="m 439.3,205.46 a 0.5,0.5 0 0 1 -0.5,-0.5 10.3,10.3 0 0 0 -10.3,-10.3 0.52,0.52 0 0 1 -0.5,-0.49 0.49,0.49 0 0 1 0.49,-0.5 v 0 a 11.29,11.29 0 0 1 11.3,11.33 0.49,0.49 0 0 1 -0.49,0.46 z"
       class="cls-5" />
    <path
       style="fill:#ffffff"
       inkscape:connector-curvature="0"
       id="path86"
       d="m 55.75,240 h -1.22 v -0.25 a 1.36,1.36 0 0 0 -1.36,-1.36 h -3.63 a 1.36,1.36 0 0 0 -1.36,1.36 V 240 H 47 a 1.36,1.36 0 0 0 -1.36,1.36 v 12.44 a 1.36,1.36 0 0 0 1.36,1.37 h 8.79 a 1.36,1.36 0 0 0 1.36,-1.36 V 241.38 A 1.36,1.36 0 0 0 55.75,240 Z"
       class="cls-6" />
    <path
       style="fill:#231f20"
       inkscape:connector-curvature="0"
       id="path88"
       d="m 55.75,240.73 h -1.93 v -1 a 0.65,0.65 0 0 0 -0.65,-0.65 h -3.63 a 0.65,0.65 0 0 0 -0.65,0.65 v 1 H 47 a 0.65,0.65 0 0 0 -0.65,0.65 v 12.44 a 0.65,0.65 0 0 0 0.65,0.65 h 8.79 a 0.65,0.65 0 0 0 0.65,-0.65 v -12.44 a 0.65,0.65 0 0 0 -0.69,-0.65 z m -0.38,12.11 a 0.65,0.65 0 0 1 -0.65,0.65 H 48 a 0.65,0.65 0 0 1 -0.65,-0.65 V 242.41 A 0.65,0.65 0 0 1 48,241.76 h 6.72 a 0.65,0.65 0 0 1 0.65,0.65 z"
       class="cls-5" />
    <rect
       style="fill:#60b5bf"
       id="rect90"
       ry="0.56999999"
       rx="0.56999999"
       height="10.41"
       width="7.04"
       y="242.41"
       x="47.84"
       class="cls-4" />
    <path
       style="fill:#ffffff"
       inkscape:connector-curvature="0"
       id="path92"
       d="m 49.58,250.49 c 0,0 3,-3.09 3,-3.09 h -1.1 l 1.18,-2.64 -3.08,3.24 h 1 z"
       class="cls-6" />
    <path
       style="fill:#231f20"
       inkscape:connector-curvature="0"
       id="path130"
       d="m 211.46,185.77 -1.62,-1.61 h 1 a 11.53,11.53 0 0 0 -11,-10.93 v 1 l -1.62,-1.61 1.62,-1.61 v 1 a 12.7,12.7 0 0 1 12.2,12.1 h 1 z"
       class="cls-5" />
    <path
       style="fill:#231f20"
       inkscape:connector-curvature="0"
       id="path132"
       d="m 198.22,175.39 a 10.13,10.13 0 1 0 10.13,10.14 10.15,10.15 0 0 0 -10.13,-10.14 z"
       class="cls-5" />
    <path
       style="fill:#ffffff"
       inkscape:connector-curvature="0"
       id="path134"
       d="m 198.22,174.31 a 11.22,11.22 0 1 0 11.21,11.22 11.23,11.23 0 0 0 -11.21,-11.22 z m 0,21.35 a 10.13,10.13 0 1 1 10.13,-10.13 10.14,10.14 0 0 1 -10.13,10.13 z"
       class="cls-6" />
    <path
       style="fill:#ffffff"
       inkscape:connector-curvature="0"
       id="path136"
       d="m 200.11,185.12 a 2,2 0 0 1 0,0.41 l 5.93,-3.62 c -0.09,-0.19 -0.18,-0.38 -0.28,-0.57 l -5.76,3.54 a 2,2 0 0 1 0.11,0.24 z"
       class="cls-6" />
    <polygon
       style="fill:none"
       id="polygon138"
       points="200.67,185.96 200.14,185.84 "
       class="cls-9" />
    <polygon
       style="fill:none"
       id="polygon140"
       points="202.43,186.38 202,186.28 "
       class="cls-9" />
    <polygon
       style="fill:none"
       id="polygon142"
       points="204.19,186.79 203.31,186.59 "
       class="cls-9" />
    <path
       style="fill:#ffffff"
       inkscape:connector-curvature="0"
       id="path144"
       d="m 206.88,185.9 c 0,-0.23 0,-0.45 0,-0.67 0,0 0,0 0,-0.07 v 0 c 0,-0.24 0,-0.48 -0.06,-0.71 v 0 c 0,-0.07 0,-0.14 0,-0.22 V 184 c 0,-0.08 0,-0.15 0,-0.23 v 0 c 0,-0.22 -0.1,-0.44 -0.16,-0.65 v 0 l -0.08,-0.25 c 0,-0.1 -0.06,-0.2 -0.09,-0.29 v -0.08 0 a 8.23,8.23 0 0 0 -1.21,-2.24 l -5.93,3.62 a 1.92,1.92 0 0 1 0.5,0.44 2.23,2.23 0 0 1 0.45,1.51 2.06,2.06 0 0 1 -0.21,0.62 l -0.08,0.13 a 2,2 0 0 1 -2.45,0.76 v 0 A 2,2 0 0 1 197,184 l 0.15,-3.51 1.5,3.16 v 0 l 0.05,-0.23 v 0 l 6,-3.66 c -0.14,-0.16 -0.29,-0.32 -0.44,-0.47 l -5.35,3.26 0.21,-0.87 v 0 l 4.65,-2.84 c -0.17,-0.15 -0.35,-0.29 -0.53,-0.42 l -3.91,2.38 v 0 l 0.21,-0.87 v 0 l 3.12,-1.9 q -0.31,-0.19 -0.63,-0.36 l -2.28,1.39 v 0 l 0.06,-0.25 v 0 l -0.67,-2.07 a 8.33,8.33 0 0 0 -9.08,5.68 l 1.58,1.46 -2,0.66 a 8.88,8.88 0 0 0 5.61,9.13 l 1.4,-1.51 0.69,2 c 0.24,0 0.48,0 0.73,0.05 h 1.28 a 8.87,8.87 0 0 0 1.69,-0.33 l 0.24,-0.1 2.68,-1.64 a 8.8,8.8 0 0 0 1.31,-1.46 v 0 -0.06 l 0.06,-0.08 v 0 l 0.7,-1.17 c 0.13,-0.28 0.25,-0.56 0.36,-0.86 l -1.3,-1.55 z"
       class="cls-6" />
    <path
       style="fill:#231f20"
       inkscape:connector-curvature="0"
       id="path146"
       d="m 97.76,185.71 -1.62,-1.62 h 1 a 11.58,11.58 0 0 0 -11.08,-11 v 1 l -1.62,-1.62 1.62,-1.62 v 1 a 12.77,12.77 0 0 1 12.26,12.16 h 1.05 z"
       class="cls-5" />
    <path
       style="fill:#231f20"
       inkscape:connector-curvature="0"
       id="path148"
       d="M 84.46,175.29 A 10.18,10.18 0 1 0 94.64,185.47 10.2,10.2 0 0 0 84.46,175.29 Z"
       class="cls-5" />
    <path
       style="fill:#ffffff"
       inkscape:connector-curvature="0"
       id="path150"
       d="M 84.46,174.2 A 11.27,11.27 0 1 0 95.73,185.47 11.29,11.29 0 0 0 84.46,174.2 Z m 0,21.45 a 10.18,10.18 0 1 1 10.18,-10.18 10.2,10.2 0 0 1 -10.18,10.18 z"
       class="cls-6" />
    <path
       style="fill:#ffffff"
       inkscape:connector-curvature="0"
       id="path152"
       d="m 93.15,185.85 c 0,-0.25 0,-0.5 0,-0.75 l -2.69,1.64 -0.89,-0.21 3.52,-2.14 q 0,-0.34 -0.12,-0.68 l -4.29,2.62 -0.88,-0.21 5,-3.05 c -0.06,-0.21 -0.13,-0.42 -0.2,-0.62 l -5.69,3.47 -0.54,-0.13 a 2,2 0 0 1 -0.21,0.62 l -0.08,0.13 a 2,2 0 0 1 -1.68,0.93 2,2 0 0 1 -0.79,-0.16 v 0 a 2,2 0 0 1 -0.4,-3.37 l 0.15,-3.52 1.5,3.18 v 0 l 0.05,-0.23 v 0 l 6,-3.68 q -0.21,-0.25 -0.45,-0.48 l -5.38,3.28 0.21,-0.88 v 0 l 4.68,-2.85 c -0.17,-0.15 -0.35,-0.29 -0.53,-0.42 l -3.93,2.4 v 0 l 0.21,-0.88 v 0 l 3.13,-1.91 c -0.21,-0.13 -0.42,-0.25 -0.64,-0.36 L 86,179 v 0 l 0.06,-0.25 v 0 l -0.67,-2.08 a 8.37,8.37 0 0 0 -9.13,5.71 l 1.58,1.47 -2.06,0.66 a 8.92,8.92 0 0 0 5.64,9.17 l 1.4,-1.51 0.7,2 c 0.24,0 0.49,0 0.73,0.05 h 1.29 a 9,9 0 0 0 1.7,-0.34 l 0.24,-0.1 2.69,-1.64 a 8.84,8.84 0 0 0 1.31,-1.47 v 0 -0.06 l 0.06,-0.08 v 0 l 0.71,-1.18 a 9,9 0 0 0 0.36,-0.86 L 91.34,187 Z"
       class="cls-6" />
    <path
       style="fill:#ffffff"
       inkscape:connector-curvature="0"
       id="path154"
       d="m 85.93,184.26 5.82,-3.55 c -0.12,-0.18 -0.23,-0.36 -0.36,-0.53 l -6,3.63 a 2,2 0 0 1 0.54,0.45 z"
       class="cls-6" />
    <path
       style="fill:#ffffff"
       inkscape:connector-curvature="0"
       id="path156"
       d="m 86.35,185.07 a 2.07,2.07 0 0 1 0,0.41 l 6,-3.64 c -0.09,-0.2 -0.18,-0.39 -0.29,-0.57 l -5.82,3.55 a 2.1,2.1 0 0 1 0.11,0.25 z"
       class="cls-6" />
    <path
       style="fill:#e3702a"
       inkscape:connector-curvature="0"
       id="path158"
       d="m 84.9,183.56 -1.54,-3.26 -0.18,3.6 a 2,2 0 1 0 1.72,-0.34 z"
       class="cls-7" />
    <path
       style="fill:#e3702a"
       inkscape:connector-curvature="0"
       id="path160"
       d="m 198.54,183.56 -1.54,-3.26 -0.18,3.6 a 2,2 0 1 0 1.72,-0.34 z"
       class="cls-7" />
    <path
       style="fill:#231f20"
       inkscape:connector-curvature="0"
       id="path162"
       d="m 311.12,175.29 a 10.18,10.18 0 1 0 10.18,10.18 10.19,10.19 0 0 0 -10.18,-10.18 z"
       class="cls-5" />
    <path
       style="fill:#231f20"
       inkscape:connector-curvature="0"
       id="path164"
       d="m 324.42,185.71 -1.62,-1.62 h 1 a 11.58,11.58 0 0 0 -11.08,-11 v 1 l -1.62,-1.62 1.62,-1.62 v 1 A 12.76,12.76 0 0 1 325,184.09 h 1 z"
       class="cls-5" />
    <path
       style="fill:#ffffff"
       inkscape:connector-curvature="0"
       id="path166"
       d="m 322.38,185.48 a 11.27,11.27 0 1 0 -11.27,11.27 11.29,11.29 0 0 0 11.27,-11.27 z m -21.45,0 a 10.18,10.18 0 1 1 10.18,10.18 10.19,10.19 0 0 1 -10.18,-10.18 z"
       class="cls-6" />
    <path
       style="fill:#ffffff"
       inkscape:connector-curvature="0"
       id="path168"
       d="m 319.59,182.68 a 8.86,8.86 0 0 0 -5.39,-5.41 l -1.47,1.58 -0.66,-2.06 a 8.92,8.92 0 0 0 -9.17,5.64 l 1.51,1.4 v 0 l 5.05,8.29 v -0.05 l 0.09,0.28 1.11,1.81 c 0.25,0 0.5,0 0.75,0 l -6.16,-10.11 0.88,0.21 v 0 l 6,9.83 0.68,-0.11 -5.8,-9.51 v 0 l 0.88,0.21 v 0 l 5.57,9.13 0.62,-0.2 -3.9,-6.4 a 1.92,1.92 0 0 1 -1.13,-1.86 l -0.28,-0.46 0.33,0.08 a 2,2 0 0 1 1.48,-1.48 l 1.69,0.88 0.67,1.5 v 0 l 0.23,0.06 v 0 l 3.68,6 c 0.16,-0.14 0.32,-0.29 0.48,-0.44 l -3.28,-5.38 0.88,0.21 v 0 l 2.85,4.68 c 0.15,-0.17 0.29,-0.35 0.42,-0.53 l -2.4,-3.93 v 0 l 0.88,0.21 v 0 l 1.91,3.13 c 0.13,-0.21 0.25,-0.42 0.36,-0.64 L 317.61,187 v 0 l 0.25,0.06 v 0 l 2.08,-0.67 a 8.87,8.87 0 0 0 -0.35,-3.71 z"
       class="cls-6" />
    <path
       style="fill:#ffffff"
       inkscape:connector-curvature="0"
       id="path170"
       d="m 308.14,193.59 -5.57,-9.13 -0.21,0.07 c 0,0.24 0,0.49 -0.06,0.73 l 4.9,8 a 9.21,9.21 0 0 0 0.86,0.36 z"
       class="cls-6" />
    <path
       style="fill:#ffffff"
       inkscape:connector-curvature="0"
       id="path172"
       d="m 312.32,187 3.55,5.82 0.53,-0.36 -3.63,-6 a 2,2 0 0 1 -0.45,0.54 z"
       class="cls-6" />
    <path
       style="fill:#ffffff"
       inkscape:connector-curvature="0"
       id="path174"
       d="m 302.69,188.25 c 0,0.08 0.07,0.16 0.1,0.24 l 1.64,2.69 a 8.82,8.82 0 0 0 1.62,1.43 l -3.7,-6.06 a 8.84,8.84 0 0 0 0.34,1.7 z"
       class="cls-6" />
    <polygon
       style="fill:#ffffff"
       id="polygon176"
       points="303.2,184.27 308.59,193.1 309.04,192.62 303.83,184.06 "
       class="cls-6" />
    <path
       style="fill:#ffffff"
       inkscape:connector-curvature="0"
       id="path178"
       d="m 311.52,187.37 a 2.06,2.06 0 0 1 -0.41,0 l 3.64,6 0.57,-0.29 -3.55,-5.82 a 2.35,2.35 0 0 1 -0.25,0.11 z"
       class="cls-6" />
    <path
       style="fill:#231f20"
       inkscape:connector-curvature="0"
       id="path180"
       d="m 438.17,185.71 -1.62,-1.62 h 1 a 11.59,11.59 0 0 0 -11.08,-11 v 1 l -1.62,-1.62 1.62,-1.62 v 1 a 12.77,12.77 0 0 1 12.26,12.16 h 1.05 z"
       class="cls-5" />
    <path
       style="fill:#231f20"
       inkscape:connector-curvature="0"
       id="path182"
       d="m 424.87,175.29 a 10.18,10.18 0 1 0 10.18,10.18 10.19,10.19 0 0 0 -10.18,-10.18 z"
       class="cls-5" />
    <path
       style="fill:#ffffff"
       inkscape:connector-curvature="0"
       id="path184"
       d="m 424.87,174.2 a 11.27,11.27 0 1 0 11.27,11.27 11.29,11.29 0 0 0 -11.27,-11.27 z m 0,21.45 a 10.18,10.18 0 1 1 10.18,-10.18 10.19,10.19 0 0 1 -10.18,10.18 z"
       class="cls-6" />
    <path
       style="fill:#ffffff"
       inkscape:connector-curvature="0"
       id="path186"
       d="m 433.57,185.85 c 0,-0.25 0,-0.5 0,-0.75 l -2.69,1.64 -0.89,-0.21 3.52,-2.14 c 0,-0.23 -0.07,-0.45 -0.11,-0.68 l -4.29,2.62 -0.88,-0.21 5,-3.05 c -0.06,-0.21 -0.13,-0.42 -0.2,-0.62 l -5.69,3.47 -0.53,-0.13 a 2,2 0 0 1 -0.21,0.62 l -0.08,0.13 a 2,2 0 0 1 -1.68,0.93 2,2 0 0 1 -0.79,-0.16 v 0 a 2,2 0 0 1 -0.4,-3.37 l 0.15,-3.52 1.5,3.18 v 0 l 0.06,-0.23 v 0 l 6,-3.68 c -0.14,-0.16 -0.29,-0.32 -0.44,-0.48 l -5.38,3.28 0.21,-0.88 v 0 l 4.68,-2.85 c -0.17,-0.15 -0.35,-0.29 -0.53,-0.42 l -3.93,2.4 v 0 l 0.21,-0.88 v 0 l 3.14,-1.91 c -0.21,-0.13 -0.42,-0.25 -0.64,-0.36 l -2.25,1.41 v 0 l 0.06,-0.25 v 0 l -0.67,-2.08 a 8.37,8.37 0 0 0 -9.13,5.71 l 1.58,1.47 -2.06,0.66 a 8.92,8.92 0 0 0 5.64,9.17 l 1.4,-1.51 0.69,2 c 0.24,0 0.49,0 0.73,0.05 h 1.28 a 9,9 0 0 0 1.7,-0.34 l 0.24,-0.1 2.69,-1.64 a 8.81,8.81 0 0 0 1.31,-1.47 v 0 -0.06 l 0.06,-0.08 v 0 l 0.7,-1.18 a 9,9 0 0 0 0.36,-0.86 l -1.3,-1.55 z"
       class="cls-6" />
    <path
       style="fill:#ffffff"
       inkscape:connector-curvature="0"
       id="path188"
       d="m 426.35,184.26 5.82,-3.55 q -0.17,-0.27 -0.36,-0.53 l -6,3.63 a 2,2 0 0 1 0.54,0.45 z"
       class="cls-6" />
    <path
       style="fill:#ffffff"
       inkscape:connector-curvature="0"
       id="path190"
       d="m 426.77,185.07 a 1.82,1.82 0 0 1 0,0.41 l 6,-3.64 c -0.09,-0.2 -0.18,-0.39 -0.29,-0.57 l -5.82,3.55 a 1.8,1.8 0 0 1 0.11,0.25 z"
       class="cls-6" />
    <path
       style="fill:#e3702a"
       inkscape:connector-curvature="0"
       id="path192"
       d="m 425.31,183.56 -1.54,-3.26 -0.18,3.6 a 2,2 0 1 0 1.72,-0.34 z"
       class="cls-7" />
    <path
       style="fill:#e3702a"
       inkscape:connector-curvature="0"
       id="path194"
       d="m 311.62,183.56 -1.54,-3.26 -0.18,3.6 a 2,2 0 1 0 1.71,-0.34 z"
       class="cls-7" />
    <path
       style="fill:#231f20"
       inkscape:connector-curvature="0"
       id="path196"
       d="m 224.87,240.41 c -1.88,0 -3.21,0.52 -4,1.53 a 4.12,4.12 0 0 0 -0.48,3.37 c 0,0.07 1.71,6.74 -1,10.27 a 6.17,6.17 0 0 1 -5.18,2.18 c -2.92,0 -5.06,-1 -6.36,-2.86 -4.11,-6 1,-19.38 1,-19.56 1.2,-4.07 1,-7.41 -0.45,-9.93 a 8.2,8.2 0 0 0 -4.91,-3.68 6.42,6.42 0 0 1 -5.11,-6.18 h 0.83 l 0.5,-2.58 a 3,3 0 1 0 -3.57,0 l 0.5,2.58 h 0.73 a 7.44,7.44 0 0 0 5.87,7.18 7.29,7.29 0 0 1 4.28,3.23 c 1.34,2.26 1.45,5.32 0.36,9.06 -0.22,0.57 -5.34,14 -0.93,20.47 1.5,2.19 3.93,3.3 7.2,3.3 a 7.14,7.14 0 0 0 6,-2.58 c 3,-3.93 1.28,-10.86 1.2,-11.17 a 3.09,3.09 0 0 1 0.32,-2.48 c 0.55,-0.74 1.6,-1.12 3.14,-1.12 v 0 -1 z"
       class="cls-5" />
    <path
       style="fill:#231f20"
       inkscape:connector-curvature="0"
       id="path198"
       d="m 338.73,240.41 c -1.88,0 -3.21,0.52 -4,1.53 a 4.11,4.11 0 0 0 -0.48,3.37 c 0,0.07 1.71,6.74 -1,10.27 a 6.17,6.17 0 0 1 -5.18,2.18 c -2.92,0 -5.06,-1 -6.36,-2.86 -4.11,-6 1,-19.38 1.05,-19.56 1.2,-4.07 1,-7.41 -0.45,-9.93 a 8.2,8.2 0 0 0 -4.91,-3.68 6.42,6.42 0 0 1 -5.11,-6.18 h 0.83 l 0.5,-2.58 a 3,3 0 1 0 -3.57,0 l 0.5,2.58 h 0.73 a 7.44,7.44 0 0 0 5.87,7.18 7.29,7.29 0 0 1 4.28,3.23 c 1.34,2.26 1.45,5.32 0.35,9.06 -0.22,0.57 -5.34,14 -0.93,20.47 1.5,2.19 3.93,3.3 7.21,3.3 a 7.14,7.14 0 0 0 6,-2.58 c 3,-3.93 1.28,-10.86 1.2,-11.17 a 3.1,3.1 0 0 1 0.32,-2.48 c 0.55,-0.74 1.6,-1.12 3.14,-1.12 v 0 -1 z"
       class="cls-5" />
    <path
       style="fill:#231f20"
       inkscape:connector-curvature="0"
       id="path200"
       d="m 452.37,240.41 c -1.88,0 -3.21,0.52 -4,1.53 a 4.12,4.12 0 0 0 -0.48,3.37 c 0,0.07 1.71,6.74 -1,10.27 a 6.17,6.17 0 0 1 -5.18,2.18 c -2.92,0 -5.06,-1 -6.36,-2.86 -4.11,-6 1,-19.38 1,-19.56 1.2,-4.07 1,-7.41 -0.45,-9.93 a 8.2,8.2 0 0 0 -4.91,-3.68 6.42,6.42 0 0 1 -5.1,-6.18 h 0.83 l 0.5,-2.58 a 3,3 0 1 0 -3.57,0 l 0.5,2.58 h 0.73 a 7.44,7.44 0 0 0 5.87,7.18 7.29,7.29 0 0 1 4.28,3.23 c 1.34,2.26 1.45,5.32 0.36,9.06 -0.22,0.57 -5.34,14 -0.93,20.47 1.5,2.19 3.93,3.3 7.2,3.3 a 7.14,7.14 0 0 0 6,-2.58 c 3,-3.93 1.28,-10.86 1.2,-11.17 a 3.09,3.09 0 0 1 0.32,-2.48 c 0.55,-0.74 1.6,-1.12 3.14,-1.12 v 0 -1 z"
       class="cls-5" />
    <path
       style="fill:none;stroke:#878787;stroke-width:1.02999997px;stroke-linecap:round;stroke-miterlimit:10"
       inkscape:connector-curvature="0"
       id="path202"
       d="m 298.17,226.74 a 2.15,2.15 0 0 0 -2.14,-2.16 h -7.13 l -3.83,-7.77 c -3.34,-6.9 -17.13,-7.84 -22.21,-7.94 v 0 c -1,0 -1.7,0 -1.84,0 h -1.84 c -3,0 -19.89,0.22 -23.63,8 l -3.85,7.77 h -7.12 a 2.16,2.16 0 0 0 -2.16,2.16 2.41,2.41 0 0 0 0.06,0.47 v 0 l 1.16,4.89 a 2.8,2.8 0 0 0 0.08,0.3 v 0 a 2.16,2.16 0 0 0 2,1.49 h 2.08 a 12.71,12.71 0 0 0 0.68,18 c 0,0 0,0 0,0.06 v 8 a 3,3 0 0 0 3,3 h 6.88 a 3,3 0 0 0 3,-3 v -3.39 h 37.77 v 3.39 a 3,3 0 0 0 3,3 h 6.88 a 3,3 0 0 0 3,-3 v -7.82 a 13.13,13.13 0 0 0 4.3,-9.56 12.93,12.93 0 0 0 -3.42,-8.66 h 2.07 a 2.16,2.16 0 0 0 2,-1.49 v 0 a 1.46,1.46 0 0 0 0.07,-0.3 l 1.17,-4.89 v 0 a 2.14,2.14 0 0 0 -0.03,-0.55 z m -61.92,0.84 3.39,-6.49 c 1.66,-3.24 6.25,-4.89 10.73,-5.73 7.45,-1.39 18.43,-0.25 18.43,-0.25 4.89,0.75 10.32,2.39 12.15,6 l 3.39,6.4 v 0.12 h -48.09 z m 7.55,14.84 a 3.18,3.18 0 0 1 -0.63,-0.06 13.5,13.5 0 0 1 -4.5,-0.36 c -4,-1 -6.87,-3.29 -6.42,-5.21 a 1.79,1.79 0 0 1 0.29,-0.61 c 0.81,-1.27 3.79,-2.08 7.28,-1.87 a 13.51,13.51 0 0 1 5.61,1.41 4.41,4.41 0 0 1 0.52,0.33 2.63,2.63 0 0 1 0.93,1.06 3.48,3.48 0 0 1 0.47,1.76 3.55,3.55 0 0 1 -3.55,3.55 z M 282.25,242 a 13.51,13.51 0 0 1 -4.5,0.36 3.13,3.13 0 0 1 -0.62,0.06 3.55,3.55 0 0 1 -3.55,-3.55 3.47,3.47 0 0 1 0.47,-1.76 2.68,2.68 0 0 1 0.93,-1.06 4.42,4.42 0 0 1 0.52,-0.33 13.51,13.51 0 0 1 5.61,-1.41 c 3.5,-0.21 6.47,0.61 7.29,1.88 a 2,2 0 0 1 0.29,0.61 c 0.44,1.92 -2.43,4.2 -6.44,5.2 z"
       class="cls-2" />
    <path
       style="fill:none;stroke:#878787;stroke-width:1.02999997px;stroke-linecap:round;stroke-miterlimit:10"
       inkscape:connector-curvature="0"
       id="path204"
       d="m 411.93,226.74 a 2.15,2.15 0 0 0 -2.14,-2.16 h -7.12 l -3.83,-7.77 c -3.34,-6.9 -17.13,-7.84 -22.21,-7.94 v 0 c -1,0 -1.7,0 -1.84,0 h -1.84 c -3,0 -19.89,0.22 -23.63,8 l -3.85,7.77 h -7.12 a 2.16,2.16 0 0 0 -2.16,2.16 2.41,2.41 0 0 0 0.06,0.47 v 0 l 1.16,4.89 a 2.8,2.8 0 0 0 0.08,0.3 v 0 a 2.16,2.16 0 0 0 2,1.49 h 2.08 a 12.71,12.71 0 0 0 0.68,18 c 0,0 0,0 0,0.06 v 8 a 3,3 0 0 0 3,3 h 6.88 a 3,3 0 0 0 3,-3 v -3.39 h 37.77 v 3.39 a 3,3 0 0 0 3,3 h 6.88 a 3,3 0 0 0 3,-3 v -7.82 a 13.13,13.13 0 0 0 4.3,-9.56 12.93,12.93 0 0 0 -3.42,-8.66 h 2.07 a 2.16,2.16 0 0 0 2,-1.49 v 0 a 1.46,1.46 0 0 0 0.07,-0.3 l 1.17,-4.89 v 0 a 2.14,2.14 0 0 0 -0.04,-0.55 z m -61.92,0.84 3.39,-6.49 c 1.66,-3.24 6.25,-4.89 10.73,-5.73 7.45,-1.39 18.43,-0.25 18.43,-0.25 4.89,0.75 10.32,2.39 12.15,6 l 3.39,6.4 v 0.12 H 350 Z m 7.55,14.84 a 3.18,3.18 0 0 1 -0.63,-0.06 13.5,13.5 0 0 1 -4.5,-0.36 c -4,-1 -6.87,-3.29 -6.42,-5.21 a 1.77,1.77 0 0 1 0.29,-0.61 c 0.81,-1.27 3.79,-2.08 7.28,-1.87 a 13.51,13.51 0 0 1 5.61,1.41 4.52,4.52 0 0 1 0.52,0.33 2.63,2.63 0 0 1 0.93,1.06 3.48,3.48 0 0 1 0.47,1.76 3.55,3.55 0 0 1 -3.55,3.55 z M 396,242 a 13.5,13.5 0 0 1 -4.5,0.36 3.13,3.13 0 0 1 -0.62,0.06 3.55,3.55 0 0 1 -3.55,-3.55 3.47,3.47 0 0 1 0.47,-1.76 2.68,2.68 0 0 1 0.93,-1.06 4.43,4.43 0 0 1 0.52,-0.33 13.51,13.51 0 0 1 5.61,-1.41 c 3.5,-0.21 6.47,0.61 7.29,1.88 a 2.05,2.05 0 0 1 0.29,0.61 c 0.44,1.92 -2.44,4.2 -6.44,5.2 z"
       class="cls-2" />
    <path
       style="fill:none;stroke:#878787;stroke-width:1.02999997px;stroke-linecap:round;stroke-miterlimit:10"
       inkscape:connector-curvature="0"
       id="path206"
       d="m 525.69,226.74 a 2.15,2.15 0 0 0 -2.14,-2.16 h -7.13 l -3.83,-7.77 c -3.34,-6.9 -17.13,-7.84 -22.21,-7.94 v 0 c -1,0 -1.7,0 -1.84,0 h -1.84 c -3,0 -19.89,0.22 -23.63,8 l -3.85,7.77 h -7.12 a 2.16,2.16 0 0 0 -2.16,2.16 2.34,2.34 0 0 0 0.06,0.47 v 0 l 1.16,4.89 a 2.83,2.83 0 0 0 0.08,0.3 v 0 a 2.16,2.16 0 0 0 2,1.49 h 2.08 a 12.71,12.71 0 0 0 0.68,18 c 0,0 0,0 0,0.06 v 8 a 3,3 0 0 0 3,3 h 6.88 a 3,3 0 0 0 3,-3 v -3.39 h 37.72 v 3.39 a 3,3 0 0 0 3,3 h 6.88 a 3,3 0 0 0 3,-3 v -7.82 a 13.13,13.13 0 0 0 4.3,-9.56 12.93,12.93 0 0 0 -3.42,-8.66 h 2.07 a 2.16,2.16 0 0 0 2,-1.49 v 0 a 1.45,1.45 0 0 0 0.07,-0.3 l 1.17,-4.89 v 0 a 2.14,2.14 0 0 0 0.02,-0.55 z m -61.92,0.84 3.39,-6.49 c 1.66,-3.24 6.25,-4.89 10.73,-5.73 7.45,-1.39 18.43,-0.25 18.43,-0.25 4.89,0.75 10.32,2.39 12.15,6 l 3.39,6.4 v 0.12 h -48.09 z m 7.55,14.84 a 3.18,3.18 0 0 1 -0.63,-0.06 13.5,13.5 0 0 1 -4.5,-0.36 c -4,-1 -6.87,-3.29 -6.42,-5.21 a 1.79,1.79 0 0 1 0.29,-0.61 c 0.81,-1.27 3.79,-2.08 7.28,-1.87 a 13.51,13.51 0 0 1 5.61,1.41 4.52,4.52 0 0 1 0.52,0.33 2.63,2.63 0 0 1 0.93,1.06 3.48,3.48 0 0 1 0.47,1.76 3.55,3.55 0 0 1 -3.55,3.55 z M 509.77,242 a 13.5,13.5 0 0 1 -4.5,0.36 3.13,3.13 0 0 1 -0.62,0.06 3.55,3.55 0 0 1 -3.55,-3.55 3.47,3.47 0 0 1 0.47,-1.76 2.68,2.68 0 0 1 0.93,-1.06 4.42,4.42 0 0 1 0.52,-0.33 13.51,13.51 0 0 1 5.61,-1.41 c 3.5,-0.21 6.47,0.61 7.29,1.88 a 2.05,2.05 0 0 1 0.29,0.61 c 0.43,1.92 -2.44,4.2 -6.44,5.2 z"
       class="cls-2" />
    <line
       class="cls-1"
       x1="84.115448"
       y1="56.018822"
       x2="84.115448"
       y2="65.648827"
       id="line5067"
       style="fill:none;stroke:#60b5bf;stroke-width:1.02999997px;stroke-linecap:round;stroke-linejoin:round;stroke-dasharray:1.91, 1.91, 1.91, 1.91" />
    <path
       class="cls-2"
       d="m 21.365452,-13.761183 h 5.5 v 6.6899997 h -5.5 z m 0,11.1799997 h 5.5 v 6.68 h -5.5 z m 0,11 h 5.5 v 6.6800003 h -5.5 z m 0,11.1700003 h 5.5 v 6.68 h -5.5 z m 19.32,8.090003 h -5.5 v -6.680003 h 5.49 z m 0,-11.170003 h -5.5 V 9.8288167 h 5.49 z m 0,-11.3300003 h -5.5 v -6.68 h 5.49 z m 0,-11.17 h -5.5 v -6.6799997 h 5.49 z m 0,-10.9999997 h -5.5 v -6.68 h 5.49 z m 0,-11.17 h -5.5 v -6.68 h 5.49 z m 10,55.880003 h -5.47 v -6.680003 h 5.48 z m 0,-11.170003 h -5.47 V 9.8688167 h 5.48 z m 0,-11.3300003 h -5.47 v -6.68 h 5.48 z m 0,-11.17 h -5.47 v -6.6799997 h 5.48 z m 0,-10.9999997 h -5.47 v -6.68 h 5.48 z m 0,-11.17 h -5.47 v -6.68 h 5.48 z m 10,55.880003 h -5.44 v -6.680003 h 5.49 z m 0,-11.170003 h -5.44 V 9.9088167 h 5.49 z m 0,-11.3300003 h -5.44 v -6.68 h 5.49 z m 0,-11.17 h -5.44 v -6.6799997 h 5.49 z m 0,-10.9999997 h -5.44 v -6.68 h 5.49 z m 0,-11.17 h -5.44 v -6.68 h 5.49 z"
       id="path5069"
       inkscape:connector-curvature="0"
       style="fill:none;stroke:#878787;stroke-width:1.02999997px;stroke-linecap:round;stroke-miterlimit:10" />
    <polyline
       class="cls-1"
       points="563.06 273.01 51.35 273.01 51.35 254.81"
       id="polyline5071"
       style="fill:none;stroke:#60b5bf;stroke-width:1.02999997px;stroke-linecap:round;stroke-linejoin:round;stroke-dasharray:1.91, 1.91, 1.91, 1.91"
       transform="translate(-0.0545483,-207.36118)" />
    <path
       class="cls-2"
       d="m 71.065452,56.05882 v -6.92 h -4.05 v -87.100003 h 1 v -4.52 h -13.89 v -3.58 h -20.29 v 3.58 h -6.45 v 4.52 h 1.68 v 13 H 8.0654517"
       id="path5073"
       inkscape:connector-curvature="0"
       style="fill:none;stroke:#878787;stroke-width:1.02999997px;stroke-linecap:round;stroke-miterlimit:10" />
    <rect
       class="cls-3"
       x="82.865448"
       y="29.788809"
       width="2.5"
       height="25.91"
       id="rect5075"
       style="fill:#878787" />
    <path
       class="cls-4"
       d="m 85.225452,-6.0511833 h -2.22 a 6.48,6.48 0 0 0 -6.24,6.69000001 V 24.228817 a 6.48,6.48 0 0 0 6.24,6.690003 h 2.22 a 6.48,6.48 0 0 0 6.25,-6.690003 V 0.63881671 a 6.48,6.48 0 0 0 -6.25,-6.69000001 z m 1.64,3.23 a 0.88,0.88 0 1 1 -0.88,0.88 0.88,0.88 0 0 1 0.88,-0.88 z m -2.69,10 a 4,4 0 1 1 4,-4 4,4 0 0 1 -3.99,3.99 z"
       id="path5077"
       inkscape:connector-curvature="0"
       style="fill:#60b5bf" />
    <path
       class="cls-5"
       d="m 111.10545,33.04882 c -1.88,0 -3.21,0.52 -4,1.53 a 4.12,4.12 0 0 0 -0.48,3.37 c 0,0.07 1.71,6.74 -1,10.27 a 6.17,6.17 0 0 1 -5.18,2.18 c -2.919998,0 -5.049998,-1 -6.359998,-2.86 -4.11,-6 1,-19.38 1.05,-19.56 1.2,-4.070003 1,-7.410003 -0.46,-9.930003 a 8.2,8.2 0 0 0 -4.91,-3.68 6.42,6.42 0 0 1 -5.11,-6.1800003 h 0.83 l 0.5,-2.58 a 3,3 0 1 0 -3.57,0 l 0.5,2.58 h 0.73 a 7.44,7.44 0 0 0 5.87,7.1800003 7.29,7.29 0 0 1 4.31,3.27 c 1.34,2.26 1.46,5.32 0.36,9.060003 -0.22,0.57 -5.34,14 -0.93,20.47 1.5,2.19 3.93,3.3 7.199998,3.3 a 7.14,7.14 0 0 0 6,-2.58 c 3,-3.93 1.28,-10.86 1.2,-11.17 a 3.09,3.09 0 0 1 0.32,-2.48 c 0.55,-0.74 1.6,-1.12 3.14,-1.12 v 0 -1 z"
       id="path5079"
       inkscape:connector-curvature="0"
       style="fill:#231f20" />
    <path
       class="cls-2"
       d="m 184.35545,19.378817 a 2.15,2.15 0 0 0 -2.14,-2.16 h -7.12 l -3.83,-7.7700003 c -3.34,-6.9 -17.13,-7.84 -22.21,-7.94 v 0 c -1,0 -1.7,0 -1.84,0 h -1.87 c -3,0 -19.89,0.22 -23.63,8 l -3.84,7.7700003 h -7.13 a 2.16,2.16 0 0 0 -2.16,2.16 2.34,2.34 0 0 0 0.06,0.47 v 0 l 1.16,4.89 a 3.09,3.09 0 0 0 0.08,0.3 v 0 a 2.16,2.16 0 0 0 2,1.490003 h 2.08 a 12.71,12.71 0 0 0 0.68,18 c 0,0 0,0 0,0.06 v 8 a 3,3 0 0 0 3,3 h 6.88 a 3,3 0 0 0 3,-3 v -3.39 h 37.77 v 3.39 a 3,3 0 0 0 3,3 h 6.88 a 3,3 0 0 0 3,-3 v -7.82 a 13.13,13.13 0 0 0 4.3,-9.56 12.93,12.93 0 0 0 -3.53,-8.73 h 2.07 a 2.16,2.16 0 0 0 2,-1.490003 v 0 a 1.39,1.39 0 0 0 0.07,-0.3 l 1.17,-4.89 v 0 a 2.08,2.08 0 0 0 0.1,-0.48 z m -61.92,0.84 3.39,-6.49 c 1.65,-3.24 6.25,-4.8900003 10.73,-5.7300003 7.45,-1.39 18.43,-0.25 18.43,-0.25 4.89,0.75 10.32,2.3900003 12.15,6.0000003 l 3.39,6.4 v 0.12 h -48.09 z m 7.51,14.840003 a 3.19,3.19 0 0 1 -0.63,-0.06 13.5,13.5 0 0 1 -4.5,-0.36 c -4,-1 -6.87,-3.29 -6.42,-5.21 a 1.79,1.79 0 0 1 0.29,-0.61 c 0.81,-1.27 3.79,-2.08 7.28,-1.87 a 13.51,13.51 0 0 1 5.61,1.41 4.51,4.51 0 0 1 0.52,0.33 2.63,2.63 0 0 1 0.93,1.06 3.47,3.47 0 0 1 0.47,1.76 3.55,3.55 0 0 1 -3.55,3.55 z m 38.45,-0.42 a 13.51,13.51 0 0 1 -4.5,0.36 3.13,3.13 0 0 1 -0.62,0.06 3.55,3.55 0 0 1 -3.55,-3.55 3.46,3.46 0 0 1 0.47,-1.76 2.68,2.68 0 0 1 0.93,-1.06 4.42,4.42 0 0 1 0.52,-0.33 13.51,13.51 0 0 1 5.61,-1.41 c 3.5,-0.21 6.47,0.61 7.29,1.88 a 2.1,2.1 0 0 1 0.29,0.61 c 0.48,1.92 -2.39,4.2 -6.4,5.2 z"
       id="path5081"
       inkscape:connector-curvature="0"
       style="fill:none;stroke:#878787;stroke-width:1.02999997px;stroke-linecap:round;stroke-miterlimit:10" />
    <rect
       class="cls-3"
       x="196.62544"
       y="29.788809"
       width="2.5"
       height="25.76"
       id="rect5083"
       style="fill:#878787" />
    <path
       class="cls-4"
       d="m 198.94545,-6.0511833 h -2.22 a 6.48,6.48 0 0 0 -6.25,6.69000001 V 24.228817 a 6.48,6.48 0 0 0 6.25,6.690003 h 2.22 a 6.48,6.48 0 0 0 6.25,-6.690003 V 0.63881671 a 6.48,6.48 0 0 0 -6.25,-6.69000001 z m 1.64,3.23 a 0.88,0.88 0 1 1 -0.88,0.88 0.88,0.88 0 0 1 0.92,-0.88 z m -2.69,10 a 4,4 0 1 1 4,-4 4,4 0 0 1 -3.95,3.99 z"
       id="path5085"
       inkscape:connector-curvature="0"
       style="fill:#60b5bf" />
    <rect
       class="cls-3"
       x="310.37546"
       y="29.788809"
       width="2.5"
       height="25.76"
       id="rect5087"
       style="fill:#878787" />
    <path
       class="cls-4"
       d="m 312.74545,-6.0511833 h -2.22 a 6.48,6.48 0 0 0 -6.25,6.69000001 V 24.228817 a 6.48,6.48 0 0 0 6.25,6.690003 h 2.22 a 6.48,6.48 0 0 0 6.25,-6.690003 V 0.63881671 a 6.48,6.48 0 0 0 -6.25,-6.69000001 z m 1.64,3.23 a 0.88,0.88 0 1 1 -0.88,0.88 0.88,0.88 0 0 1 0.88,-0.88 z m -2.69,10 a 4,4 0 1 1 4,-4 4,4 0 0 1 -4,3.99 z"
       id="path5089"
       inkscape:connector-curvature="0"
       style="fill:#60b5bf" />
    <rect
       class="cls-3"
       x="424.13547"
       y="29.788809"
       width="2.5"
       height="25.76"
       id="rect5091"
       style="fill:#878787" />
    <path
       class="cls-4"
       d="m 426.49545,-6.0511833 h -2.22 a 6.48,6.48 0 0 0 -6.24,6.69000001 V 24.228817 a 6.48,6.48 0 0 0 6.24,6.690003 h 2.22 a 6.48,6.48 0 0 0 6.25,-6.690003 V 0.63881671 a 6.48,6.48 0 0 0 -6.25,-6.69000001 z m 1.64,3.23 a 0.88,0.88 0 1 1 -0.88,0.88 0.88,0.88 0 0 1 0.89,-0.88 z m -2.69,10 a 4,4 0 1 1 4,-4 4,4 0 0 1 -3.99,3.99 z"
       id="path5093"
       inkscape:connector-curvature="0"
       style="fill:#60b5bf" />
    <polyline
       class="cls-3"
       points="535.66 262.9 535.66 237.15 538.17 237.15 538.17 262.9"
       id="polyline5095"
       style="fill:#878787"
       transform="translate(-0.0545483,-207.36118)" />
    <path
       class="cls-4"
       d="m 537.94545,-6.0511833 h -2.22 a 6.48,6.48 0 0 0 -6.25,6.69000001 V 24.228817 a 6.48,6.48 0 0 0 6.25,6.690003 h 2.22 a 6.48,6.48 0 0 0 6.25,-6.690003 V 0.63881671 a 6.48,6.48 0 0 0 -6.25,-6.69000001 z m 1.64,3.23 a 0.88,0.88 0 1 1 -0.88,0.88 0.88,0.88 0 0 1 0.91,-0.88 z m -2.69,10 a 4,4 0 1 1 4,-4 4,4 0 0 1 -3.95,3.99 z"
       id="path5097"
       inkscape:connector-curvature="0"
       style="fill:#60b5bf" />
    <path
       class="cls-4"
       d="m 536.86545,-31.781183 a 10,10 0 1 0 10,10 10.06,10.06 0 0 0 -10,-10 z"
       id="path5099"
       inkscape:connector-curvature="0"
       style="fill:#60b5bf" />
    <path
       class="cls-6"
       d="m 536.86545,-32.861183 a 11.12,11.12 0 1 0 11.08,11.12 11.14,11.14 0 0 0 -11.08,-11.12 z m 0,21.16 a 10,10 0 1 1 10,-10 10.06,10.06 0 0 1 -10,10 z"
       id="path5101"
       inkscape:connector-curvature="0"
       style="fill:#ffffff" />
    <path
       class="cls-6"
       d="m 535.10545,-21.071183 -2.4,-2.41 -2.29,2.3 4.7,4.71 8.21,-8.24 -2.29,-2.3 -5.92,5.94"
       id="path5103"
       inkscape:connector-curvature="0"
       style="fill:#ffffff" />
    <path
       class="cls-4"
       d="m 536.23545,3.4288167 -0.87,-0.87 -0.83,0.83 1.69,1.7 3,-3 -0.83,-0.83 -2.14,2.14"
       id="path5105"
       inkscape:connector-curvature="0"
       style="fill:#60b5bf" />
    <path
       class="cls-7"
       d="m 198.66545,-23.801183 -1.54,-3.26 -0.18,3.6 a 2,2 0 1 0 1.71,-0.34 z"
       id="path5107"
       inkscape:connector-curvature="0"
       style="fill:#e3702a" />
    <path
       class="cls-7"
       d="m 311.40545,-23.801183 -1.54,-3.26 -0.18,3.6 a 2,2 0 1 0 1.72,-0.34 z"
       id="path5109"
       inkscape:connector-curvature="0"
       style="fill:#e3702a" />
    <line
       class="cls-8"
       x1="536.86542"
       y1="56.018822"
       x2="536.86542"
       y2="65.648827"
       id="line5111"
       style="fill:none;stroke:#6dc1ca;stroke-width:1.02999997px;stroke-linecap:round;stroke-linejoin:round;stroke-dasharray:1.91, 1.91, 1.91, 1.91" />
    <line
       class="cls-1"
       x1="425.49545"
       y1="56.018822"
       x2="425.49545"
       y2="65.648827"
       id="line5113"
       style="fill:none;stroke:#60b5bf;stroke-width:1.02999997px;stroke-linecap:round;stroke-linejoin:round;stroke-dasharray:1.91, 1.91, 1.91, 1.91" />
    <line
       class="cls-1"
       x1="311.63547"
       y1="56.018822"
       x2="311.63547"
       y2="65.648827"
       id="line5115"
       style="fill:none;stroke:#60b5bf;stroke-width:1.02999997px;stroke-linecap:round;stroke-linejoin:round;stroke-dasharray:1.91, 1.91, 1.91, 1.91" />
    <line
       class="cls-1"
       x1="197.87544"
       y1="56.018822"
       x2="197.87544"
       y2="65.648827"
       id="line5117"
       style="fill:none;stroke:#60b5bf;stroke-width:1.02999997px;stroke-linecap:round;stroke-linejoin:round;stroke-dasharray:1.91, 1.91, 1.91, 1.91" />
    <line
       class="cls-2"
       x1="72.925453"
       y1="56.05883"
       x2="563.00543"
       y2="56.05883"
       id="line5119"
       style="fill:none;stroke:#878787;stroke-width:1.02999997px;stroke-linecap:round;stroke-miterlimit:10" />
    <path
       class="cls-5"
       d="m 93.665452,-1.9011833 a 0.5,0.5 0 0 1 -0.5,-0.5 5.56,5.56 0 0 0 -5.55,-5.56 v 0 a 0.5,0.5 0 1 1 0,-1 v 0 a 6.55,6.55 0 0 1 6.55,6.6 0.5,0.5 0 0 1 -0.5,0.5 z"
       id="path5121"
       inkscape:connector-curvature="0"
       style="fill:#231f20" />
    <path
       class="cls-5"
       d="m 96.035452,-1.9011833 a 0.5,0.5 0 0 1 -0.5,-0.5 7.94,7.94 0 0 0 -7.92,-7.9599997 0.5,0.5 0 1 1 0,-1 8.93,8.93 0 0 1 8.92,8.9999997 0.5,0.5 0 0 1 -0.5,0.46 z"
       id="path5123"
       inkscape:connector-curvature="0"
       style="fill:#231f20" />
    <path
       class="cls-5"
       d="m 98.415452,-1.9011833 a 0.5,0.5 0 0 1 -0.5,-0.5 10.3,10.3 0 0 0 -10.3,-10.2999997 0.52,0.52 0 0 1 -0.5,-0.49 0.49,0.49 0 0 1 0.5,-0.5 v 0 a 11.29,11.29 0 0 1 11.33,11.3299997 0.5,0.5 0 0 1 -0.53,0.46 z"
       id="path5125"
       inkscape:connector-curvature="0"
       style="fill:#231f20" />
    <path
       class="cls-5"
       d="m 207.16545,-1.9011833 a 0.5,0.5 0 0 1 -0.5,-0.5 5.56,5.56 0 0 0 -5.55,-5.56 v 0 a 0.5,0.5 0 0 1 0,-1 v 0 a 6.55,6.55 0 0 1 6.54,6.55 0.5,0.5 0 0 1 -0.5,0.5 z"
       id="path5127"
       inkscape:connector-curvature="0"
       style="fill:#231f20" />
    <path
       class="cls-5"
       d="m 209.53545,-1.9011833 a 0.5,0.5 0 0 1 -0.49,-0.5 7.94,7.94 0 0 0 -7.93,-7.9299997 0.5,0.5 0 1 1 0,-1 8.93,8.93 0 0 1 8.92,8.9199997 0.5,0.5 0 0 1 -0.5,0.51 z"
       id="path5129"
       inkscape:connector-curvature="0"
       style="fill:#231f20" />
    <path
       class="cls-5"
       d="m 211.94545,-1.9011833 a 0.5,0.5 0 0 1 -0.5,-0.5 10.3,10.3 0 0 0 -10.3,-10.2999997 0.52,0.52 0 0 1 -0.5,-0.49 0.5,0.5 0 0 1 0.5,-0.5 v 0 a 11.29,11.29 0 0 1 11.26,11.3299997 0.5,0.5 0 0 1 -0.46,0.46 z"
       id="path5131"
       inkscape:connector-curvature="0"
       style="fill:#231f20" />
    <path
       class="cls-5"
       d="m 320.85545,-1.9011833 a 0.5,0.5 0 0 1 -0.5,-0.5 5.56,5.56 0 0 0 -5.55,-5.56 v 0 a 0.5,0.5 0 0 1 0,-1 v 0 a 6.55,6.55 0 0 1 6.54,6.6 0.5,0.5 0 0 1 -0.5,0.5 z"
       id="path5133"
       inkscape:connector-curvature="0"
       style="fill:#231f20" />
    <path
       class="cls-5"
       d="m 323.22545,-1.9011833 a 0.5,0.5 0 0 1 -0.5,-0.5 7.94,7.94 0 0 0 -7.93,-7.9299997 0.5,0.5 0 1 1 0,-1 8.93,8.93 0 0 1 8.92,8.9199997 0.5,0.5 0 0 1 -0.49,0.51 z"
       id="path5135"
       inkscape:connector-curvature="0"
       style="fill:#231f20" />
    <path
       class="cls-5"
       d="m 325.59545,-1.9011833 a 0.5,0.5 0 0 1 -0.5,-0.5 10.3,10.3 0 0 0 -10.3,-10.2999997 0.52,0.52 0 0 1 -0.5,-0.49 0.5,0.5 0 0 1 0.5,-0.5 v 0 a 11.29,11.29 0 0 1 11.3,11.3299997 0.49,0.49 0 0 1 -0.5,0.46 z"
       id="path5137"
       inkscape:connector-curvature="0"
       style="fill:#231f20" />
    <path
       class="cls-5"
       d="m 434.49545,-1.9011833 a 0.5,0.5 0 0 1 -0.5,-0.5 5.56,5.56 0 0 0 -5.55,-5.56 v 0 a 0.5,0.5 0 0 1 0,-1 v 0 a 6.55,6.55 0 0 1 6.5,6.6 0.5,0.5 0 0 1 -0.49,0.5 z"
       id="path5139"
       inkscape:connector-curvature="0"
       style="fill:#231f20" />
    <path
       class="cls-5"
       d="m 436.87545,-1.9011833 a 0.5,0.5 0 0 1 -0.5,-0.5 7.94,7.94 0 0 0 -7.93,-7.9599997 0.5,0.5 0 1 1 0,-1 8.93,8.93 0 0 1 8.92,8.9199997 0.5,0.5 0 0 1 -0.49,0.54 z"
       id="path5141"
       inkscape:connector-curvature="0"
       style="fill:#231f20" />
    <path
       class="cls-5"
       d="m 439.24545,-1.9011833 a 0.5,0.5 0 0 1 -0.5,-0.5 10.3,10.3 0 0 0 -10.3,-10.2999997 0.52,0.52 0 0 1 -0.5,-0.49 0.49,0.49 0 0 1 0.49,-0.5 v 0 a 11.29,11.29 0 0 1 11.3,11.3299997 0.49,0.49 0 0 1 -0.49,0.46 z"
       id="path5143"
       inkscape:connector-curvature="0"
       style="fill:#231f20" />
    <path
       class="cls-6"
       d="m 55.695452,32.63882 h -1.22 v -0.25 a 1.36,1.36 0 0 0 -1.36,-1.36 h -3.63 a 1.36,1.36 0 0 0 -1.36,1.36 v 0.25 h -1.18 a 1.36,1.36 0 0 0 -1.36,1.36 v 12.44 a 1.36,1.36 0 0 0 1.36,1.37 h 8.79 a 1.36,1.36 0 0 0 1.36,-1.36 v -12.43 a 1.36,1.36 0 0 0 -1.4,-1.38 z"
       id="path5145"
       inkscape:connector-curvature="0"
       style="fill:#ffffff" />
    <path
       class="cls-5"
       d="m 55.695452,33.36882 h -1.93 v -1 a 0.65,0.65 0 0 0 -0.65,-0.65 h -3.63 a 0.65,0.65 0 0 0 -0.65,0.65 v 1 h -1.89 a 0.65,0.65 0 0 0 -0.65,0.65 v 12.44 a 0.65,0.65 0 0 0 0.65,0.65 h 8.79 a 0.65,0.65 0 0 0 0.65,-0.65 v -12.44 a 0.65,0.65 0 0 0 -0.69,-0.65 z m -0.38,12.11 a 0.65,0.65 0 0 1 -0.65,0.65 h -6.72 a 0.65,0.65 0 0 1 -0.65,-0.65 v -10.43 a 0.65,0.65 0 0 1 0.65,-0.65 h 6.72 a 0.65,0.65 0 0 1 0.65,0.65 z"
       id="path5147"
       inkscape:connector-curvature="0"
       style="fill:#231f20" />
    <rect
       class="cls-4"
       x="47.78545"
       y="35.04882"
       width="7.04"
       height="10.41"
       rx="0.56999999"
       ry="0.56999999"
       id="rect5149"
       style="fill:#60b5bf" />
    <path
       class="cls-5"
       d="m 211.40545,-21.591183 -1.62,-1.61 h 1 a 11.53,11.53 0 0 0 -11,-10.93 v 1 l -1.62,-1.61 1.62,-1.61 v 1 a 12.7,12.7 0 0 1 12.2,12.1 h 1 z"
       id="path5189"
       inkscape:connector-curvature="0"
       style="fill:#231f20" />
    <path
       class="cls-5"
       d="m 198.16545,-31.971183 a 10.13,10.13 0 1 0 10.13,10.14 10.15,10.15 0 0 0 -10.13,-10.14 z"
       id="path5191"
       inkscape:connector-curvature="0"
       style="fill:#231f20" />
    <path
       class="cls-6"
       d="m 198.16545,-33.051183 a 11.22,11.22 0 1 0 11.21,11.22 11.23,11.23 0 0 0 -11.21,-11.22 z m 0,21.35 a 10.13,10.13 0 1 1 10.13,-10.13 10.14,10.14 0 0 1 -10.13,10.13 z"
       id="path5193"
       inkscape:connector-curvature="0"
       style="fill:#ffffff" />
    <path
       class="cls-6"
       d="m 200.05545,-22.241183 a 2,2 0 0 1 0,0.41 l 5.93,-3.62 c -0.09,-0.19 -0.18,-0.38 -0.28,-0.57 l -5.76,3.54 a 2,2 0 0 1 0.11,0.24 z"
       id="path5195"
       inkscape:connector-curvature="0"
       style="fill:#ffffff" />
    <polygon
       class="cls-9"
       points="200.67,185.96 200.14,185.84 "
       id="polygon5197"
       style="fill:none"
       transform="translate(-0.0545483,-207.36118)" />
    <polygon
       class="cls-9"
       points="202.43,186.38 202,186.28 "
       id="polygon5199"
       style="fill:none"
       transform="translate(-0.0545483,-207.36118)" />
    <polygon
       class="cls-9"
       points="204.19,186.79 203.31,186.59 "
       id="polygon5201"
       style="fill:none"
       transform="translate(-0.0545483,-207.36118)" />
    <path
       class="cls-6"
       d="m 206.82545,-21.461183 c 0,-0.23 0,-0.45 0,-0.67 0,0 0,0 0,-0.07 v 0 c 0,-0.24 0,-0.48 -0.06,-0.71 v 0 c 0,-0.07 0,-0.14 0,-0.22 v -0.23 c 0,-0.08 0,-0.15 0,-0.23 v 0 c 0,-0.22 -0.1,-0.44 -0.16,-0.65 v 0 l -0.08,-0.25 c 0,-0.1 -0.06,-0.2 -0.09,-0.29 v -0.08 0 a 8.23,8.23 0 0 0 -1.21,-2.24 l -5.93,3.62 a 1.92,1.92 0 0 1 0.5,0.44 2.23,2.23 0 0 1 0.45,1.51 2.06,2.06 0 0 1 -0.21,0.62 l -0.08,0.13 a 2,2 0 0 1 -2.45,0.76 v 0 a 2,2 0 0 1 -0.56,-3.34 l 0.15,-3.51 1.5,3.16 v 0 l 0.05,-0.23 v 0 l 6,-3.66 c -0.14,-0.16 -0.29,-0.32 -0.44,-0.47 l -5.35,3.26 0.21,-0.87 v 0 l 4.65,-2.84 c -0.17,-0.15 -0.35,-0.29 -0.53,-0.42 l -3.91,2.38 v 0 l 0.21,-0.87 v 0 l 3.12,-1.9 q -0.31,-0.19 -0.63,-0.36 l -2.28,1.39 v 0 l 0.06,-0.25 v 0 l -0.67,-2.07 a 8.33,8.33 0 0 0 -9.08,5.68 l 1.58,1.46 -2,0.66 a 8.88,8.88 0 0 0 5.61,9.13 l 1.4,-1.51 0.69,2 c 0.24,0 0.48,0 0.73,0.05 h 1.28 a 8.87,8.87 0 0 0 1.69,-0.33 l 0.24,-0.1 2.68,-1.64 a 8.8,8.8 0 0 0 1.31,-1.46 v 0 -0.06 l 0.06,-0.08 v 0 l 0.7,-1.17 c 0.13,-0.28 0.25,-0.56 0.36,-0.86 l -1.3,-1.55 z"
       id="path5203"
       inkscape:connector-curvature="0"
       style="fill:#ffffff" />
    <path
       class="cls-5"
       d="m 97.705452,-21.651183 -1.62,-1.62 h 1 a 11.58,11.58 0 0 0 -11.08,-11 v 1 l -1.62,-1.62 1.62,-1.62 v 1 a 12.77,12.77 0 0 1 12.26,12.16 h 1.05 z"
       id="path5205"
       inkscape:connector-curvature="0"
       style="fill:#231f20" />
    <path
       class="cls-5"
       d="m 84.405452,-32.071183 a 10.18,10.18 0 1 0 10.18,10.18 10.2,10.2 0 0 0 -10.18,-10.18 z"
       id="path5207"
       inkscape:connector-curvature="0"
       style="fill:#231f20" />
    <path
       class="cls-6"
       d="m 84.405452,-33.161183 a 11.27,11.27 0 1 0 11.27,11.27 11.29,11.29 0 0 0 -11.27,-11.27 z m 0,21.45 a 10.18,10.18 0 1 1 10.18,-10.18 10.2,10.2 0 0 1 -10.18,10.18 z"
       id="path5209"
       inkscape:connector-curvature="0"
       style="fill:#ffffff" />
    <path
       class="cls-6"
       d="m 93.095452,-21.511183 c 0,-0.25 0,-0.5 0,-0.75 l -2.69,1.64 -0.89,-0.21 3.52,-2.14 q 0,-0.34 -0.12,-0.68 l -4.29,2.62 -0.88,-0.21 5,-3.05 c -0.06,-0.21 -0.13,-0.42 -0.2,-0.62 l -5.69,3.47 -0.54,-0.13 a 2,2 0 0 1 -0.21,0.62 l -0.08,0.13 a 2,2 0 0 1 -1.68,0.93 2,2 0 0 1 -0.79,-0.16 v 0 a 2,2 0 0 1 -0.4,-3.37 l 0.15,-3.52 1.5,3.18 v 0 l 0.05,-0.23 v 0 l 6,-3.68 q -0.21,-0.25 -0.45,-0.48 l -5.38,3.28 0.21,-0.88 v 0 l 4.68,-2.85 c -0.17,-0.15 -0.35,-0.29 -0.53,-0.42 l -3.93,2.4 v 0 l 0.21,-0.88 v 0 l 3.13,-1.91 c -0.21,-0.13 -0.42,-0.25 -0.64,-0.36 l -2.21,1.41 v 0 l 0.06,-0.25 v 0 l -0.67,-2.08 a 8.37,8.37 0 0 0 -9.13,5.71 l 1.58,1.47 -2.06,0.66 a 8.92,8.92 0 0 0 5.64,9.17 l 1.4,-1.51 0.7,2 c 0.24,0 0.49,0 0.73,0.05 h 1.29 a 9,9 0 0 0 1.7,-0.34 l 0.24,-0.1 2.69,-1.64 a 8.84,8.84 0 0 0 1.31,-1.47 v 0 -0.06 l 0.06,-0.08 v 0 l 0.71,-1.18 a 9,9 0 0 0 0.36,-0.86 l -1.27,-1.49 z"
       id="path5211"
       inkscape:connector-curvature="0"
       style="fill:#ffffff" />
    <path
       class="cls-6"
       d="m 85.875452,-23.101183 5.82,-3.55 c -0.12,-0.18 -0.23,-0.36 -0.36,-0.53 l -6,3.63 a 2,2 0 0 1 0.54,0.45 z"
       id="path5213"
       inkscape:connector-curvature="0"
       style="fill:#ffffff" />
    <path
       class="cls-6"
       d="m 86.295452,-22.291183 a 2.07,2.07 0 0 1 0,0.41 l 6,-3.64 c -0.09,-0.2 -0.18,-0.39 -0.29,-0.57 l -5.82,3.55 a 2.1,2.1 0 0 1 0.11,0.25 z"
       id="path5215"
       inkscape:connector-curvature="0"
       style="fill:#ffffff" />
    <path
       class="cls-7"
       d="m 84.845452,-23.801183 -1.54,-3.26 -0.18,3.6 a 2,2 0 1 0 1.72,-0.34 z"
       id="path5217"
       inkscape:connector-curvature="0"
       style="fill:#e3702a" />
    <path
       class="cls-7"
       d="m 198.48545,-23.801183 -1.54,-3.26 -0.18,3.6 a 2,2 0 1 0 1.72,-0.34 z"
       id="path5219"
       inkscape:connector-curvature="0"
       style="fill:#e3702a" />
    <path
       class="cls-5"
       d="m 311.06545,-32.071183 a 10.18,10.18 0 1 0 10.18,10.18 10.19,10.19 0 0 0 -10.18,-10.18 z"
       id="path5221"
       inkscape:connector-curvature="0"
       style="fill:#231f20" />
    <path
       class="cls-5"
       d="m 324.36545,-21.651183 -1.62,-1.62 h 1 a 11.58,11.58 0 0 0 -11.08,-11 v 1 l -1.62,-1.62 1.62,-1.62 v 1 a 12.76,12.76 0 0 1 12.28,12.24 h 1 z"
       id="path5223"
       inkscape:connector-curvature="0"
       style="fill:#231f20" />
    <path
       class="cls-6"
       d="m 322.32545,-21.881183 a 11.27,11.27 0 1 0 -11.27,11.27 11.29,11.29 0 0 0 11.27,-11.27 z m -21.45,0 a 10.18,10.18 0 1 1 10.18,10.18 10.19,10.19 0 0 1 -10.18,-10.18 z"
       id="path5225"
       inkscape:connector-curvature="0"
       style="fill:#ffffff" />
    <path
       class="cls-6"
       d="m 319.53545,-24.681183 a 8.86,8.86 0 0 0 -5.39,-5.41 l -1.47,1.58 -0.66,-2.06 a 8.92,8.92 0 0 0 -9.17,5.64 l 1.51,1.4 v 0 l 5.05,8.29 v -0.05 l 0.09,0.28 1.11,1.81 c 0.25,0 0.5,0 0.75,0 l -6.16,-10.11 0.88,0.21 v 0 l 6,9.83 0.68,-0.11 -5.8,-9.51 v 0 l 0.88,0.21 v 0 l 5.57,9.13 0.62,-0.2 -3.9,-6.4 a 1.92,1.92 0 0 1 -1.13,-1.86 l -0.28,-0.46 0.33,0.08 a 2,2 0 0 1 1.48,-1.48 l 1.69,0.88 0.67,1.5 v 0 l 0.23,0.06 v 0 l 3.68,6 c 0.16,-0.14 0.32,-0.29 0.48,-0.44 l -3.28,-5.38 0.88,0.21 v 0 l 2.85,4.68 c 0.15,-0.17 0.29,-0.35 0.42,-0.53 l -2.4,-3.93 v 0 l 0.88,0.21 v 0 l 1.91,3.13 c 0.13,-0.21 0.25,-0.42 0.36,-0.64 l -1.34,-2.24 v 0 l 0.25,0.06 v 0 l 2.08,-0.67 a 8.87,8.87 0 0 0 -0.35,-3.71 z"
       id="path5227"
       inkscape:connector-curvature="0"
       style="fill:#ffffff" />
    <path
       class="cls-6"
       d="m 308.08545,-13.771183 -5.57,-9.13 -0.21,0.07 c 0,0.24 0,0.49 -0.06,0.73 l 4.9,8 a 9.21,9.21 0 0 0 0.86,0.36 z"
       id="path5229"
       inkscape:connector-curvature="0"
       style="fill:#ffffff" />
    <path
       class="cls-6"
       d="m 312.26545,-20.361183 3.55,5.82 0.53,-0.36 -3.63,-6 a 2,2 0 0 1 -0.45,0.54 z"
       id="path5231"
       inkscape:connector-curvature="0"
       style="fill:#ffffff" />
    <path
       class="cls-6"
       d="m 302.63545,-19.111183 c 0,0.08 0.07,0.16 0.1,0.24 l 1.64,2.69 a 8.82,8.82 0 0 0 1.62,1.43 l -3.7,-6.06 a 8.84,8.84 0 0 0 0.34,1.7 z"
       id="path5233"
       inkscape:connector-curvature="0"
       style="fill:#ffffff" />
    <polygon
       class="cls-6"
       points="303.2,184.27 308.59,193.1 309.04,192.62 303.83,184.06 "
       id="polygon5235"
       style="fill:#ffffff"
       transform="translate(-0.0545483,-207.36118)" />
    <path
       class="cls-6"
       d="m 311.46545,-19.991183 a 2.06,2.06 0 0 1 -0.41,0 l 3.64,6 0.57,-0.29 -3.55,-5.82 a 2.35,2.35 0 0 1 -0.25,0.11 z"
       id="path5237"
       inkscape:connector-curvature="0"
       style="fill:#ffffff" />
    <path
       class="cls-5"
       d="m 438.11545,-21.651183 -1.62,-1.62 h 1 a 11.59,11.59 0 0 0 -11.08,-11 v 1 l -1.62,-1.62 1.62,-1.62 v 1 a 12.77,12.77 0 0 1 12.26,12.16 h 1.05 z"
       id="path5239"
       inkscape:connector-curvature="0"
       style="fill:#231f20" />
    <path
       class="cls-5"
       d="m 424.81545,-32.071183 a 10.18,10.18 0 1 0 10.18,10.18 10.19,10.19 0 0 0 -10.18,-10.18 z"
       id="path5241"
       inkscape:connector-curvature="0"
       style="fill:#231f20" />
    <path
       class="cls-6"
       d="m 424.81545,-33.161183 a 11.27,11.27 0 1 0 11.27,11.27 11.29,11.29 0 0 0 -11.27,-11.27 z m 0,21.45 a 10.18,10.18 0 1 1 10.18,-10.18 10.19,10.19 0 0 1 -10.18,10.18 z"
       id="path5243"
       inkscape:connector-curvature="0"
       style="fill:#ffffff" />
    <path
       class="cls-6"
       d="m 433.51545,-21.511183 c 0,-0.25 0,-0.5 0,-0.75 l -2.69,1.64 -0.89,-0.21 3.52,-2.14 c 0,-0.23 -0.07,-0.45 -0.11,-0.68 l -4.29,2.62 -0.88,-0.21 5,-3.05 c -0.06,-0.21 -0.13,-0.42 -0.2,-0.62 l -5.69,3.47 -0.53,-0.13 a 2,2 0 0 1 -0.21,0.62 l -0.08,0.13 a 2,2 0 0 1 -1.68,0.93 2,2 0 0 1 -0.79,-0.16 v 0 a 2,2 0 0 1 -0.4,-3.37 l 0.15,-3.52 1.5,3.18 v 0 l 0.06,-0.23 v 0 l 6,-3.68 c -0.14,-0.16 -0.29,-0.32 -0.44,-0.48 l -5.38,3.28 0.21,-0.88 v 0 l 4.68,-2.85 c -0.17,-0.15 -0.35,-0.29 -0.53,-0.42 l -3.93,2.4 v 0 l 0.21,-0.88 v 0 l 3.14,-1.91 c -0.21,-0.13 -0.42,-0.25 -0.64,-0.36 l -2.25,1.41 v 0 l 0.06,-0.25 v 0 l -0.67,-2.08 a 8.37,8.37 0 0 0 -9.13,5.71 l 1.58,1.47 -2.06,0.66 a 8.92,8.92 0 0 0 5.64,9.17 l 1.4,-1.51 0.69,2 c 0.24,0 0.49,0 0.73,0.05 h 1.28 a 9,9 0 0 0 1.7,-0.34 l 0.24,-0.1 2.69,-1.64 a 8.81,8.81 0 0 0 1.31,-1.47 v 0 -0.06 l 0.06,-0.08 v 0 l 0.7,-1.18 a 9,9 0 0 0 0.36,-0.86 l -1.3,-1.55 z"
       id="path5245"
       inkscape:connector-curvature="0"
       style="fill:#ffffff" />
    <path
       class="cls-6"
       d="m 426.29545,-23.101183 5.82,-3.55 q -0.17,-0.27 -0.36,-0.53 l -6,3.63 a 2,2 0 0 1 0.54,0.45 z"
       id="path5247"
       inkscape:connector-curvature="0"
       style="fill:#ffffff" />
    <path
       class="cls-6"
       d="m 426.71545,-22.291183 a 1.82,1.82 0 0 1 0,0.41 l 6,-3.64 c -0.09,-0.2 -0.18,-0.39 -0.29,-0.57 l -5.82,3.55 a 1.8,1.8 0 0 1 0.11,0.25 z"
       id="path5249"
       inkscape:connector-curvature="0"
       style="fill:#ffffff" />
    <path
       class="cls-7"
       d="m 425.25545,-23.801183 -1.54,-3.26 -0.18,3.6 a 2,2 0 1 0 1.72,-0.34 z"
       id="path5251"
       inkscape:connector-curvature="0"
       style="fill:#e3702a" />
    <path
       class="cls-7"
       d="m 311.56545,-23.801183 -1.54,-3.26 -0.18,3.6 a 2,2 0 1 0 1.71,-0.34 z"
       id="path5253"
       inkscape:connector-curvature="0"
       style="fill:#e3702a" />
    <path
       class="cls-5"
       d="m 224.81545,33.04882 c -1.88,0 -3.21,0.52 -4,1.53 a 4.12,4.12 0 0 0 -0.48,3.37 c 0,0.07 1.71,6.74 -1,10.27 a 6.17,6.17 0 0 1 -5.18,2.18 c -2.92,0 -5.06,-1 -6.36,-2.86 -4.11,-6 1,-19.38 1,-19.56 1.2,-4.070003 1,-7.410003 -0.45,-9.930003 a 8.2,8.2 0 0 0 -4.91,-3.68 6.42,6.42 0 0 1 -5.11,-6.1800003 h 0.83 l 0.5,-2.58 a 3,3 0 1 0 -3.57,0 l 0.5,2.58 h 0.73 a 7.44,7.44 0 0 0 5.87,7.1800003 7.29,7.29 0 0 1 4.28,3.23 c 1.34,2.26 1.45,5.32 0.36,9.060003 -0.22,0.57 -5.34,14 -0.93,20.47 1.5,2.19 3.93,3.3 7.2,3.3 a 7.14,7.14 0 0 0 6,-2.58 c 3,-3.93 1.28,-10.86 1.2,-11.17 a 3.09,3.09 0 0 1 0.32,-2.48 c 0.55,-0.74 1.6,-1.12 3.14,-1.12 v 0 -1 z"
       id="path5255"
       inkscape:connector-curvature="0"
       style="fill:#231f20" />
    <path
       class="cls-5"
       d="m 338.67545,33.04882 c -1.88,0 -3.21,0.52 -4,1.53 a 4.11,4.11 0 0 0 -0.48,3.37 c 0,0.07 1.71,6.74 -1,10.27 a 6.17,6.17 0 0 1 -5.18,2.18 c -2.92,0 -5.06,-1 -6.36,-2.86 -4.11,-6 1,-19.38 1.05,-19.56 1.2,-4.070003 1,-7.410003 -0.45,-9.930003 a 8.2,8.2 0 0 0 -4.91,-3.68 6.42,6.42 0 0 1 -5.11,-6.1800003 h 0.83 l 0.5,-2.58 a 3,3 0 1 0 -3.57,0 l 0.5,2.58 h 0.73 a 7.44,7.44 0 0 0 5.87,7.1800003 7.29,7.29 0 0 1 4.28,3.23 c 1.34,2.26 1.45,5.32 0.35,9.060003 -0.22,0.57 -5.34,14 -0.93,20.47 1.5,2.19 3.93,3.3 7.21,3.3 a 7.14,7.14 0 0 0 6,-2.58 c 3,-3.93 1.28,-10.86 1.2,-11.17 a 3.1,3.1 0 0 1 0.32,-2.48 c 0.55,-0.74 1.6,-1.12 3.14,-1.12 v 0 -1 z"
       id="path5257"
       inkscape:connector-curvature="0"
       style="fill:#231f20" />
    <path
       class="cls-5"
       d="m 452.31545,33.04882 c -1.88,0 -3.21,0.52 -4,1.53 a 4.12,4.12 0 0 0 -0.48,3.37 c 0,0.07 1.71,6.74 -1,10.27 a 6.17,6.17 0 0 1 -5.18,2.18 c -2.92,0 -5.06,-1 -6.36,-2.86 -4.11,-6 1,-19.38 1,-19.56 1.2,-4.070003 1,-7.410003 -0.45,-9.930003 a 8.2,8.2 0 0 0 -4.91,-3.68 6.42,6.42 0 0 1 -5.1,-6.1800003 h 0.83 l 0.5,-2.58 a 3,3 0 1 0 -3.57,0 l 0.5,2.58 h 0.73 a 7.44,7.44 0 0 0 5.87,7.1800003 7.29,7.29 0 0 1 4.28,3.23 c 1.34,2.26 1.45,5.32 0.36,9.060003 -0.22,0.57 -5.34,14 -0.93,20.47 1.5,2.19 3.93,3.3 7.2,3.3 a 7.14,7.14 0 0 0 6,-2.58 c 3,-3.93 1.28,-10.86 1.2,-11.17 a 3.09,3.09 0 0 1 0.32,-2.48 c 0.55,-0.74 1.6,-1.12 3.14,-1.12 v 0 -1 z"
       id="path5259"
       inkscape:connector-curvature="0"
       style="fill:#231f20" />
    <path
       class="cls-2"
       d="m 298.11545,19.378817 a 2.15,2.15 0 0 0 -2.14,-2.16 h -7.13 l -3.83,-7.7700003 c -3.34,-6.9 -17.13,-7.84 -22.21,-7.94 v 0 c -1,0 -1.7,0 -1.84,0 h -1.84 c -3,0 -19.89,0.22 -23.63,8 l -3.85,7.7700003 h -7.12 a 2.16,2.16 0 0 0 -2.16,2.16 2.41,2.41 0 0 0 0.06,0.47 v 0 l 1.16,4.89 a 2.8,2.8 0 0 0 0.08,0.3 v 0 a 2.16,2.16 0 0 0 2,1.490003 h 2.08 a 12.71,12.71 0 0 0 0.68,18 c 0,0 0,0 0,0.06 v 8 a 3,3 0 0 0 3,3 h 6.88 a 3,3 0 0 0 3,-3 v -3.39 h 37.77 v 3.39 a 3,3 0 0 0 3,3 h 6.88 a 3,3 0 0 0 3,-3 v -7.82 a 13.13,13.13 0 0 0 4.3,-9.56 12.93,12.93 0 0 0 -3.42,-8.66 h 2.07 a 2.16,2.16 0 0 0 2,-1.490003 v 0 a 1.46,1.46 0 0 0 0.07,-0.3 l 1.17,-4.89 v 0 a 2.14,2.14 0 0 0 -0.03,-0.55 z m -61.92,0.84 3.39,-6.49 c 1.66,-3.24 6.25,-4.8900003 10.73,-5.7300003 7.45,-1.39 18.43,-0.25 18.43,-0.25 4.89,0.75 10.32,2.3900003 12.15,6.0000003 l 3.39,6.4 v 0.12 h -48.09 z m 7.55,14.840003 a 3.18,3.18 0 0 1 -0.63,-0.06 13.5,13.5 0 0 1 -4.5,-0.36 c -4,-1 -6.87,-3.29 -6.42,-5.21 a 1.79,1.79 0 0 1 0.29,-0.61 c 0.81,-1.27 3.79,-2.08 7.28,-1.87 a 13.51,13.51 0 0 1 5.61,1.41 4.41,4.41 0 0 1 0.52,0.33 2.63,2.63 0 0 1 0.93,1.06 3.48,3.48 0 0 1 0.47,1.76 3.55,3.55 0 0 1 -3.55,3.55 z m 38.45,-0.42 a 13.51,13.51 0 0 1 -4.5,0.36 3.13,3.13 0 0 1 -0.62,0.06 3.55,3.55 0 0 1 -3.55,-3.55 3.47,3.47 0 0 1 0.47,-1.76 2.68,2.68 0 0 1 0.93,-1.06 4.42,4.42 0 0 1 0.52,-0.33 13.51,13.51 0 0 1 5.61,-1.41 c 3.5,-0.21 6.47,0.61 7.29,1.88 a 2,2 0 0 1 0.29,0.61 c 0.44,1.92 -2.43,4.2 -6.44,5.2 z"
       id="path5261"
       inkscape:connector-curvature="0"
       style="fill:none;stroke:#878787;stroke-width:1.02999997px;stroke-linecap:round;stroke-miterlimit:10" />
    <path
       class="cls-2"
       d="m 411.87545,19.378817 a 2.15,2.15 0 0 0 -2.14,-2.16 h -7.12 l -3.83,-7.7700003 c -3.34,-6.9 -17.13,-7.84 -22.21,-7.94 v 0 c -1,0 -1.7,0 -1.84,0 h -1.84 c -3,0 -19.89,0.22 -23.63,8 l -3.85,7.7700003 h -7.12 a 2.16,2.16 0 0 0 -2.16,2.16 2.41,2.41 0 0 0 0.06,0.47 v 0 l 1.16,4.89 a 2.8,2.8 0 0 0 0.08,0.3 v 0 a 2.16,2.16 0 0 0 2,1.490003 h 2.08 a 12.71,12.71 0 0 0 0.68,18 c 0,0 0,0 0,0.06 v 8 a 3,3 0 0 0 3,3 h 6.88 a 3,3 0 0 0 3,-3 v -3.39 h 37.77 v 3.39 a 3,3 0 0 0 3,3 h 6.88 a 3,3 0 0 0 3,-3 v -7.82 a 13.13,13.13 0 0 0 4.3,-9.56 12.93,12.93 0 0 0 -3.42,-8.66 h 2.07 a 2.16,2.16 0 0 0 2,-1.490003 v 0 a 1.46,1.46 0 0 0 0.07,-0.3 l 1.17,-4.89 v 0 a 2.14,2.14 0 0 0 -0.04,-0.55 z m -61.92,0.84 3.39,-6.49 c 1.66,-3.24 6.25,-4.8900003 10.73,-5.7300003 7.45,-1.39 18.43,-0.25 18.43,-0.25 4.89,0.75 10.32,2.3900003 12.15,6.0000003 l 3.39,6.4 v 0.12 h -48.1 z m 7.55,14.840003 a 3.18,3.18 0 0 1 -0.63,-0.06 13.5,13.5 0 0 1 -4.5,-0.36 c -4,-1 -6.87,-3.29 -6.42,-5.21 a 1.77,1.77 0 0 1 0.29,-0.61 c 0.81,-1.27 3.79,-2.08 7.28,-1.87 a 13.51,13.51 0 0 1 5.61,1.41 4.52,4.52 0 0 1 0.52,0.33 2.63,2.63 0 0 1 0.93,1.06 3.48,3.48 0 0 1 0.47,1.76 3.55,3.55 0 0 1 -3.55,3.55 z m 38.44,-0.42 a 13.5,13.5 0 0 1 -4.5,0.36 3.13,3.13 0 0 1 -0.62,0.06 3.55,3.55 0 0 1 -3.55,-3.55 3.47,3.47 0 0 1 0.47,-1.76 2.68,2.68 0 0 1 0.93,-1.06 4.43,4.43 0 0 1 0.52,-0.33 13.51,13.51 0 0 1 5.61,-1.41 c 3.5,-0.21 6.47,0.61 7.29,1.88 a 2.05,2.05 0 0 1 0.29,0.61 c 0.44,1.92 -2.44,4.2 -6.44,5.2 z"
       id="path5263"
       inkscape:connector-curvature="0"
       style="fill:none;stroke:#878787;stroke-width:1.02999997px;stroke-linecap:round;stroke-miterlimit:10" />
    <path
       class="cls-2"
       d="m 525.63545,19.378817 a 2.15,2.15 0 0 0 -2.14,-2.16 h -7.13 l -3.83,-7.7700003 c -3.34,-6.9 -17.13,-7.84 -22.21,-7.94 v 0 c -1,0 -1.7,0 -1.84,0 h -1.84 c -3,0 -19.89,0.22 -23.63,8 l -3.85,7.7700003 h -7.12 a 2.16,2.16 0 0 0 -2.16,2.16 2.34,2.34 0 0 0 0.06,0.47 v 0 l 1.16,4.89 a 2.83,2.83 0 0 0 0.08,0.3 v 0 a 2.16,2.16 0 0 0 2,1.490003 h 2.08 a 12.71,12.71 0 0 0 0.68,18 c 0,0 0,0 0,0.06 v 8 a 3,3 0 0 0 3,3 h 6.88 a 3,3 0 0 0 3,-3 v -3.39 h 37.72 v 3.39 a 3,3 0 0 0 3,3 h 6.88 a 3,3 0 0 0 3,-3 v -7.82 a 13.13,13.13 0 0 0 4.3,-9.56 12.93,12.93 0 0 0 -3.42,-8.66 h 2.07 a 2.16,2.16 0 0 0 2,-1.490003 v 0 a 1.45,1.45 0 0 0 0.07,-0.3 l 1.17,-4.89 v 0 a 2.14,2.14 0 0 0 0.02,-0.55 z m -61.92,0.84 3.39,-6.49 c 1.66,-3.24 6.25,-4.8900003 10.73,-5.7300003 7.45,-1.39 18.43,-0.25 18.43,-0.25 4.89,0.75 10.32,2.3900003 12.15,6.0000003 l 3.39,6.4 v 0.12 h -48.09 z m 7.55,14.840003 a 3.18,3.18 0 0 1 -0.63,-0.06 13.5,13.5 0 0 1 -4.5,-0.36 c -4,-1 -6.87,-3.29 -6.42,-5.21 a 1.79,1.79 0 0 1 0.29,-0.61 c 0.81,-1.27 3.79,-2.08 7.28,-1.87 a 13.51,13.51 0 0 1 5.61,1.41 4.52,4.52 0 0 1 0.52,0.33 2.63,2.63 0 0 1 0.93,1.06 3.48,3.48 0 0 1 0.47,1.76 3.55,3.55 0 0 1 -3.55,3.55 z m 38.45,-0.42 a 13.5,13.5 0 0 1 -4.5,0.36 3.13,3.13 0 0 1 -0.62,0.06 3.55,3.55 0 0 1 -3.55,-3.55 3.47,3.47 0 0 1 0.47,-1.76 2.68,2.68 0 0 1 0.93,-1.06 4.42,4.42 0 0 1 0.52,-0.33 13.51,13.51 0 0 1 5.61,-1.41 c 3.5,-0.21 6.47,0.61 7.29,1.88 a 2.05,2.05 0 0 1 0.29,0.61 c 0.43,1.92 -2.44,4.2 -6.44,5.2 z"
       id="path5265"
       inkscape:connector-curvature="0"
       style="fill:none;stroke:#878787;stroke-width:1.02999997px;stroke-linecap:round;stroke-miterlimit:10" />
  </g>
</svg>
