<?xml version="1.0" encoding="UTF-8" standalone="no"?>
<svg
   xmlns:dc="http://purl.org/dc/elements/1.1/"
   xmlns:cc="http://creativecommons.org/ns#"
   xmlns:rdf="http://www.w3.org/1999/02/22-rdf-syntax-ns#"
   xmlns:svg="http://www.w3.org/2000/svg"
   xmlns="http://www.w3.org/2000/svg"
   xmlns:sodipodi="http://sodipodi.sourceforge.net/DTD/sodipodi-0.dtd"
   xmlns:inkscape="http://www.inkscape.org/namespaces/inkscape"
   width="24"
   height="24"
   viewBox="0 0 24 24"
   version="1.1"
   id="svg4519"
   sodipodi:docname="im-building-36-white.svg"
   inkscape:version="0.92.0 r15299">
  <metadata
     id="metadata4525">
    <rdf:RDF>
      <cc:Work
         rdf:about="">
        <dc:format>image/svg+xml</dc:format>
        <dc:type
           rdf:resource="http://purl.org/dc/dcmitype/StillImage" />
        <dc:title></dc:title>
      </cc:Work>
    </rdf:RDF>
  </metadata>
  <defs
     id="defs4523" />
  <sodipodi:namedview
     pagecolor="#ffffff"
     bordercolor="#666666"
     borderopacity="1"
     objecttolerance="10"
     gridtolerance="10"
     guidetolerance="10"
     inkscape:pageopacity="0"
     inkscape:pageshadow="2"
     inkscape:window-width="1600"
     inkscape:window-height="837"
     id="namedview4521"
     showgrid="false"
     inkscape:zoom="9.8333333"
     inkscape:cx="-5.8474577"
     inkscape:cy="12"
     inkscape:window-x="1912"
     inkscape:window-y="-8"
     inkscape:window-maximized="1"
     inkscape:current-layer="svg4519" />
  <g
     style="clip-rule:evenodd;fill-rule:evenodd;fill:#ffffff"
     id="g4504">
    <path
       id="path4493"
       d="M 24,24 H 0 V 22 H 0.998 L 1.007,16 H 23 v 6 h 1 z M 21,18 H 3 v 4 h 2 v -2 c 0,-0.552 0.448,-1 1,-1 0.552,0 1,0.448 1,1 v 2 h 2 v -2 c 0,-0.552 0.448,-1 1,-1 0.552,0 1,0.448 1,1 v 2 h 2 v -2 c 0,-0.552 0.448,-1 1,-1 0.552,0 1,0.448 1,1 v 2 h 2 v -2 c 0,-0.552 0.448,-1 1,-1 0.552,0 1,0.448 1,1 v 2 h 2 z m 2,-3 H 1.009 L 1.012,13 H 5 v -3 h 2 v 3 h 2 v -3 h 2 v 3 h 2 v -3 h 2 v 3 h 2 v -3 h 2 v 3 h 4 z M 15,2 h -3 v 1 c 2.966,0 6.158,1.979 7,6 H 5 C 5.547,5.22 8.638,3.173 11,3 V 0 h 4 z m 0.954,5 C 15.074,5.9 13.725,5 12,5 10.04,5 8.736,5.837 7.914,7 Z"
       inkscape:connector-curvature="0"
       style="fill:#ffffff" />
  </g>
</svg>
