<?xml version="1.0" encoding="UTF-8" standalone="no"?>
<svg
   xmlns:dc="http://purl.org/dc/elements/1.1/"
   xmlns:cc="http://creativecommons.org/ns#"
   xmlns:rdf="http://www.w3.org/1999/02/22-rdf-syntax-ns#"
   xmlns:svg="http://www.w3.org/2000/svg"
   xmlns="http://www.w3.org/2000/svg"
   xmlns:sodipodi="http://sodipodi.sourceforge.net/DTD/sodipodi-0.dtd"
   xmlns:inkscape="http://www.inkscape.org/namespaces/inkscape"
   width="24"
   height="24"
   viewBox="0 0 24 24"
   version="1.1"
   id="svg4519"
   sodipodi:docname="im-coin-white.svg"
   inkscape:version="0.92.0 r15299">
  <metadata
     id="metadata4525">
    <rdf:RDF>
      <cc:Work
         rdf:about="">
        <dc:format>image/svg+xml</dc:format>
        <dc:type
           rdf:resource="http://purl.org/dc/dcmitype/StillImage" />
        <dc:title></dc:title>
      </cc:Work>
    </rdf:RDF>
  </metadata>
  <defs
     id="defs4523" />
  <sodipodi:namedview
     pagecolor="#ffffff"
     bordercolor="#666666"
     borderopacity="1"
     objecttolerance="10"
     gridtolerance="10"
     guidetolerance="10"
     inkscape:pageopacity="0"
     inkscape:pageshadow="2"
     inkscape:window-width="1600"
     inkscape:window-height="837"
     id="namedview4521"
     showgrid="false"
     inkscape:zoom="9.8333333"
     inkscape:cx="-5.8474577"
     inkscape:cy="12"
     inkscape:window-x="1912"
     inkscape:window-y="-8"
     inkscape:window-maximized="1"
     inkscape:current-layer="svg4519" />
  <path
     id="path4561"
     d="m 10.553,4.1229997 c 0.47,-0.079 0.953,-0.123 1.447,-0.123 4.971,0 9,4.0290003 9,9.0000003 0,1.742 -0.5,3.363 -1.359,4.738 C 19.867,16.861 20,15.947 20,15 20,9.463 15.884,4.8809997 10.553,4.1229997 Z M 23,13 c 0,0.947 -0.133,1.861 -0.359,2.738 C 23.5,14.363 24,12.742 24,11 24,6.029 19.971,1.9999997 15,1.9999997 c -0.494,0 -0.977,0.044 -1.447,0.123 C 18.884,2.8809997 23,7.463 23,13 Z M 9,8 c 3.859,0 7,3.14 7,7 0,3.86 -3.141,7 -7,7 C 5.141,22 2,18.86 2,15 2,11.14 5.141,8 9,8 Z M 9,6 c -4.971,0 -9,4.029 -9,9 0,4.971 4.029,9 9,9 4.971,0 9,-4.029 9,-9 0,-4.971 -4.029,-9 -9,-9 z m 3.416,10.736 c 0,-1.787 -1.86,-2.285 -3.286,-2.955 -0.864,-0.449 -0.757,-1.525 0.483,-1.597 0.691,-0.042 1.396,0.162 2.036,0.387 l 0.302,-1.372 c -0.756,-0.23 -1.43,-0.335 -2.035,-0.352 V 10 H 9.084 v 0.889 c -1.621,0.223 -2.488,1.24 -2.488,2.375 0,2.032 2.373,2.342 3.148,2.703 1.061,0.474 0.863,1.458 -0.094,1.675 -0.83,0.188 -1.893,-0.14 -2.688,-0.45 l -0.378,1.37 c 0.744,0.385 1.637,0.591 2.5,0.605 V 20 h 0.832 v -0.877 c 1.381,-0.194 2.503,-0.956 2.5,-2.387 z"
     inkscape:connector-curvature="0"
     style="fill:#ffffff" />
</svg>
