<svg xmlns="http://www.w3.org/2000/svg" xmlns:xlink="http://www.w3.org/1999/xlink" viewBox="0 0 113.9 75.6"><defs><path id="a" d="M0 3h113.5v70.1H0z"/></defs><clipPath id="b"><use xlink:href="#a" overflow="visible"/></clipPath><path d="M46.1 19.2c0 5.8-3.3 11-8.1 13.5.2.8.2 1.6.2 2.1l5.4.4 15.2 20.1L71 44.5c2.5-2.5 6.4-2.1 8.9.4 2.1 2.5 1.9 6.6-.6 8.7l-17 15.2c-1.2 1-2.7 1.6-4.2 1.6h-.4c-1.7-.2-3.3-.8-4.4-2.3l-6.8-8.3v12.4H15.4v-9.3c-1 2.5-1.5 5.8-1.9 9.3H1.1c2.3-22.8 10.6-33.8 16.8-38l6.2.2c0-.4.2-.8.2-1.2-5.2-2.5-8.9-7.7-8.9-13.9C15.4 10.8 22.3 4 30.8 4s15.3 6.8 15.3 15.2z" clip-path="url(#b)" fill="none" stroke="#f7ad41" stroke-width="2" stroke-miterlimit="10"/><path d="M112.5 52.2H88.3c-1.7 0-3.3 1.4-3.3 3.3v2.1h8.5l3.9 5.8H73.9l7.7-6.9c2.9-2.5 4.1-6.2 3.3-9.5h22.4V14.2H51.7v26.4l-5.2-6.4V9l66-.2c.2 14.5-.2 29 0 43.4z" clip-path="url(#b)" fill="none" stroke="#f7ad41" stroke-width="2" stroke-linecap="round" stroke-linejoin="round" stroke-miterlimit="10"/><path clip-path="url(#b)" fill-rule="evenodd" clip-rule="evenodd" fill="#f7ad41" d="M69 25.4h2v12h-2zm19.9 1h2v11h-2zm-4 2.9h1.9v8.1h-1.9zM81 26h1.9v11.4H81zm-4 2.7h1.9v8.7H77zM73.1 31h1.7v6.4h-1.7z"/></svg>