<?xml version="1.0" encoding="utf-8"?>
<!-- Generator: Adobe Illustrator 19.2.1, SVG Export Plug-In . SVG Version: 6.00 Build 0)  -->
<svg version="1.1" id="Layer_1" xmlns="http://www.w3.org/2000/svg" xmlns:xlink="http://www.w3.org/1999/xlink" x="0px" y="0px"
	 viewBox="0 0 725 400" style="enable-background:new 0 0 725 400;" xml:space="preserve">
<path style="opacity:0.7;fill:#ACADAE;enable-background:new    ;" d="M525,225H200c-3.3,0-6-2.7-6-6l0,0c0-3.3,2.7-6,6-6H525
	c3.3,0,6,2.7,6,6l0,0C531,222.3,528.4,225,525,225z"/>
<g>
	<path style="fill:#757778;" d="M510.5,25h-296c-3.3,0-6,2.7-6,6v180c0,3.3,2.7,6,6,6h296c3.3,0,6-2.7,6-6V31
		C516.5,27.7,513.8,25,510.5,25z"/>
</g>
<g>
	<rect x="230" y="43.5" style="fill:#FFFFFF;" width="265" height="155"/>
</g>
<g>
	<circle style="fill:#FF8100;" cx="362.5" cy="35" r="6"/>
</g>
<path style="opacity:0.5;fill:#FFFFFF;" d="M214.5,25c-3.3,0-6,2.7-6,6v180c0,3.3,2.7,6,6,6h30l192-192H214.5z"/>
<path style="fill:#3F4041;" d="M210.5,141.8V31c0-2.2,1.8-4,4-4h146h1v2.1v2.1c0.3-0.1,0.7-0.1,1-0.1c2.2,0,4,1.8,4,4s-1.8,4-4,4
	s-4-1.8-4-4c0-1.5,0.8-2.7,2-3.4v-2.2c-2.3,0.8-4,3-4,5.6c0,3.3,2.7,6,6,6s6-2.7,6-6c0-3-2.2-5.4-5-5.9V28v-1v-2h-2h-147
	c-3.3,0-6,2.7-6,6v110.8H210.5z"/>
<path style="fill:#3F4041;" d="M214.5,215c-2.2,0-4-1.8-4-4v-65.2h-2V211c0,3.3,2.7,6,6,6H285v-2H214.5z"/>
<g>
	<path style="fill:#3F4041;" d="M514.5,31v104.1c0.7,0,1.3,0,2,0V31c0-3.3-2.7-6-6-6h-146v2h146C512.7,27,514.5,28.8,514.5,31z"/>
	<path style="fill:#3F4041;" d="M510.5,217c3.3,0,6-2.7,6-6v-71.9c-0.7,0-1.3,0-2,0V211c0,2.2-1.8,4-4,4h-96.6c0,0.8,0,1.5,0,2
		H510.5z"/>
	<path style="fill:#3F4041;" d="M409.9,215H289v2h120.9C409.9,216.5,409.9,215.8,409.9,215z"/>
</g>
<polygon style="fill:#3F4041;" points="230,145.8 230,198.5 285,198.5 285,196.5 232,196.5 232,145.8 "/>
<g>
	<path style="fill:#3F4041;" d="M495,198.5v-59.2c-0.7,0-1.3,0-2,0v57.1h-79c0,0.7,0,1.3,0,2H495z"/>
	<path style="fill:#3F4041;" d="M410,196.5H289v2h121C410,197.8,410,197.2,410,196.5z"/>
	<path style="fill:#3F4041;" d="M493,135.4c0.7,0,1.3,0,2,0V43.5H230v98.3h2V45.5h261V135.4z"/>
</g>
<path style="opacity:0.7;fill:#ACADAE;enable-background:new    ;" d="M296.6,306.4H23.4c-3.3,0-6-2.7-6-6v0c0-3.3,2.7-6,6-6h273.3
	c3.3,0,6,2.7,6,6v0C302.6,303.7,299.9,306.4,296.6,306.4z"/>
<g>
	<path style="fill:#3F4041;" d="M286,144.8v153.5H34.5V144.8H286 M288,142.8H32.5v157.5H288V142.8L288,142.8z"/>
</g>
<g>
	<rect x="32.5" y="142.8" style="fill:#757778;" width="255.5" height="157.5"/>
</g>
<g>
	<rect x="42.5" y="152.8" style="fill:#FFFFFF;" width="235.5" height="137.5"/>
</g>
<g style="opacity:0.5;">
	<polygon style="fill:#FFFFFF;" points="216.3,142.8 32.5,142.8 32.5,300.3 58.7,300.3 	"/>
</g>
<polygon style="fill:#3F4041;" points="35.5,142.8 35.5,144.8 286,144.8 286,298.3 34.5,298.3 34.5,170.2 34.5,144.8 34.5,142.8 
	32.5,142.8 32.5,300.3 288,300.3 288,142.8 "/>
<path style="fill:#3F4041;" d="M276,154.8v133.5H44.5V154.8H276 M278,152.8H42.5v137.5H278V152.8L278,152.8z"/>
<path style="opacity:0.7;fill:#ACADAE;enable-background:new    ;" d="M674.4,306.4H413.2c-3.3,0-6-2.7-6-6v0c0-3.3,2.7-6,6-6h261.2
	c3.3,0,6,2.7,6,6v0C680.4,303.7,677.7,306.4,674.4,306.4z"/>
<g>
	<path style="fill:#757778;" d="M672.9,156.2c-2.3-11-10.6-16.5-21.4-17.5c-6-0.5-14.3-1.1-25.9-1.5c-0.6-1.4-1.9-2.4-3.5-2.4h-12.8
		c-1.3,0-2.5,0.7-3.2,1.8c-16.1-0.4-36.5-0.6-62.3-0.6c-61.4,0-92.2,1.4-107.6,2.8c-10.8,1-19.1,6.4-21.4,17.5
		c-4.9,23.1-3.8,61.9-3.8,61.9s-1,38.9,3.8,61.9c2.3,11,10.6,16.5,21.4,17.5c15.4,1.4,46.2,2.8,107.6,2.8s92.2-1.4,107.6-2.8
		c10.8-1,19.1-6.4,21.4-17.5c4.9-23.1,3.8-61.9,3.8-61.9S677.7,179.3,672.9,156.2z"/>
</g>
<rect x="435.1" y="152.5" style="fill:#FFFFFF;" width="217.5" height="131.2"/>
<path style="fill:#DEDFDF;" d="M662.2,276.5c-2.6,0-4.7-2.1-4.7-4.7V162.2c0-2.6,2.1-4.7,4.7-4.7s4.7,2.1,4.7,4.7v109.7
	C666.8,274.4,664.7,276.5,662.2,276.5z"/>
<path style="fill:#FF8100;" d="M662.2,165.8L662.2,165.8c-2,0-3.7-1.6-3.7-3.7v0c0-2,1.6-3.7,3.7-3.7l0,0c2,0,3.7,1.6,3.7,3.7v0
	C665.8,164.2,664.2,165.8,662.2,165.8z"/>
<path style="fill:#3F4041;" d="M664.8,167.2v104.7c0,1.5-1.2,2.7-2.7,2.7c-1.5,0-2.7-1.2-2.7-2.7V167.2c-0.8-0.4-1.5-1-2-1.8v106.5
	c0,2.6,2.1,4.7,4.7,4.7s4.7-2.1,4.7-4.7V165.4C666.3,166.1,665.6,166.7,664.8,167.2z"/>
<path style="fill:#3F4041;" d="M662.2,166.8c-2.6,0-4.7-2.1-4.7-4.7s2.1-4.7,4.7-4.7s4.7,2.1,4.7,4.7S664.7,166.8,662.2,166.8z
	 M662.2,159.5c-1.5,0-2.7,1.2-2.7,2.7c0,1.5,1.2,2.7,2.7,2.7c1.5,0,2.7-1.2,2.7-2.7C664.8,160.7,663.6,159.5,662.2,159.5z"/>
<path style="fill:#FF8100;" d="M602.3,318.5L602.3,318.5c0,2-1.6,3.7-3.7,3.7H489c-2,0-3.7-1.6-3.7-3.7l0,0c0-2,1.6-3.7,3.7-3.7
	h109.7C600.7,314.8,602.3,316.5,602.3,318.5z"/>
<path style="fill:#FFFFFF;" d="M570.5,323.2v-9.3h28.1c2.6,0,4.7,2.1,4.7,4.7s-2.1,4.7-4.7,4.7H570.5z"/>
<path style="fill:#FFFFFF;" d="M598.6,314.8h-27.1v7.3h27.1c2,0,3.7-1.6,3.7-3.7C602.3,316.5,600.7,314.8,598.6,314.8z"/>
<path style="fill:#FFFFFF;" d="M490.3,314.8H489c-2,0-3.7,1.6-3.7,3.7c0,2,1.6,3.7,3.7,3.7h1.4V314.8z"/>
<path style="fill:#3F4041;" d="M572.5,315.8h4.1h22c0.7,0,1.3,0.3,1.7,0.7h2.5c-0.8-1.6-2.3-2.7-4.2-2.7h-28.1v2H572.5z"/>
<g>
	<rect x="570.5" y="316.9" style="fill:#3F4041;" width="2" height="3.1"/>
	<path style="fill:#3F4041;" d="M603.2,317.5h-2.1c0.1,0.3,0.2,0.6,0.2,1c0,1.5-1.2,2.7-2.7,2.7h-22h-4.1h-2v2h28.1
		c2.6,0,4.7-2.1,4.7-4.7C603.3,318.2,603.3,317.8,603.2,317.5z"/>
</g>
<path style="fill:#3F4041;" d="M662.2,163.2c3.2,0,6.3,0.6,9.1,1.6c-0.1-0.8-0.2-1.5-0.3-2.2c-2.8-0.9-5.7-1.4-8.8-1.4h0
	c-0.6,0-1,0.4-1,1S661.6,163.2,662.2,163.2z"/>
<rect x="489.3" y="316.9" style="fill:#3F4041;" width="2" height="3.1"/>
<polygon style="fill:#757778;" points="385.7,310.3 385.7,360.3 335.7,360.3 335.7,372.3 397.7,372.3 397.7,310.3 "/>
<rect x="325.7" y="300.3" transform="matrix(-1.836970e-16 1 -1 -1.836970e-16 687.9479 -25.3914)" style="fill:#DFE0E0;" width="62" height="62"/>
<polygon style="fill:#FF8100;" points="350.8,323.8 356.7,311.9 362.5,323.8 375.7,325.7 366.2,334.9 368.4,348 356.7,341.8 
	344.9,348 347.2,334.9 337.7,325.7 "/>
<polygon style="opacity:0.5;fill:#FFFFFF;" points="387.7,300.3 325.7,300.3 325.7,362.3 326.2,362.3 387.7,300.8 "/>
<polygon style="fill:#3F4041;" points="397.7,372.3 335.7,372.3 335.7,363.3 337.7,363.3 337.7,370.3 395.7,370.3 395.7,312.3 
	387.7,312.3 387.7,362.3 325.7,362.3 325.7,300.3 387.7,300.3 387.7,309.3 385.7,309.3 385.7,302.3 327.7,302.3 327.7,360.3 
	385.7,360.3 385.7,310.3 397.7,310.3 "/>
<path style="fill:#3F4041;" d="M356.7,316.4l4.1,8.3l0.5,0.9l1,0.2l9.1,1.3l-6.6,6.4l-0.8,0.7l0.2,1l1.6,9.1l-8.2-4.3l-0.9-0.5
	l-0.9,0.5l-8.2,4.3l1.6-9.1l0.2-1l-0.8-0.7l-6.6-6.4l9.1-1.3l1-0.2l0.5-0.9L356.7,316.4 M356.7,311.9l-5.9,11.9l-13.1,1.9l9.5,9.3
	l-2.2,13.1l11.7-6.2l11.7,6.2l-2.2-13.1l9.5-9.3l-13.1-1.9L356.7,311.9L356.7,311.9z"/>
<g>
	<path style="fill:#FF8100;" d="M357.7,293.4h-2v-6h2V293.4z M357.7,281.4h-2v-6h2V281.4z M357.7,269.4h-2v-6h2V269.4z M357.7,257.4
		h-2v-6h2V257.4z M357.7,245.4h-2v-6h2V245.4z M357.7,233.4h-2V229h2V233.4z"/>
</g>
<path style="fill:#FF8100;" d="M316.5,342.3h-3.9v-2h3.9V342.3z M306.6,342.3h-6v-2h6V342.3z M294.6,342.3h-6v-2h6V342.3z
	 M282.6,342.3h-6v-2h6V342.3z M270.6,342.3h-6v-2h6V342.3z M258.6,342.3h-6v-2h6V342.3z M246.6,342.3h-6v-2h6V342.3z M234.6,342.3
	h-6v-2h6V342.3z M222.6,342.3h-6v-2h6V342.3z M210.6,342.3h-6v-2h6V342.3z M198.6,342.3h-6v-2h6V342.3z M186.5,342.3
	c-2.1-0.1-4.1-0.4-6.1-0.9l0.5-1.9c1.9,0.5,3.8,0.8,5.7,0.9L186.5,342.3z M174.6,339.1c-1.8-1-3.6-2.1-5.2-3.4l1.3-1.5
	c1.5,1.2,3.1,2.3,4.8,3.2L174.6,339.1z M165.1,331.2c-1.3-1.6-2.4-3.4-3.2-5.3l1.8-0.8c0.8,1.7,1.8,3.4,3,4.9L165.1,331.2z
	 M159.9,320c-0.4-2-0.7-4.1-0.7-6.2h2c0,1.9,0.2,3.9,0.6,5.7L159.9,320z"/>
<path style="fill:#FF8100;" d="M529.9,342.3h-6v-2h6V342.3z M517.9,342.3h-6v-2h6V342.3z M505.9,342.3h-6v-2h6V342.3z M493.9,342.3
	h-6v-2h6V342.3z M481.9,342.3h-6v-2h6V342.3z M469.9,342.3h-6v-2h6V342.3z M457.9,342.3h-6v-2h6V342.3z M445.9,342.3h-6v-2h6V342.3z
	 M433.9,342.3h-6v-2h6V342.3z M421.9,342.3h-6v-2h6V342.3z M409.9,342.3H406v-2h3.9V342.3z M535.9,342.3l-0.1-2
	c1.9-0.1,3.8-0.4,5.7-0.9l0.5,1.9C540.1,341.9,538,342.2,535.9,342.3z M547.9,339.1l-0.9-1.8c1.7-0.9,3.3-2,4.8-3.2l1.3,1.5
	C551.4,337,549.7,338.1,547.9,339.1z"/>
<g>
	<rect x="139.2" y="189.2" style="fill:#757778;" width="4" height="7"/>
	<rect x="175.2" y="189.2" style="fill:#757778;" width="4" height="7"/>
	<polygon style="fill:#FF8100;" points="203.1,194.2 197.2,194.2 197.2,191.2 188.2,191.2 188.2,196.2 130.2,196.2 130.2,191.2 
		121.2,191.2 121.2,194.2 115.4,194.2 107.2,202.3 107.2,260.5 115.4,269.2 203.1,269.2 211.2,260.5 211.2,202.3 	"/>
	<rect x="120.2" y="196.2" style="fill:#DFE0E0;" width="11" height="71"/>
	<rect x="187.2" y="196.2" style="fill:#DFE0E0;" width="11" height="71"/>
	<polygon style="fill:#757778;" points="146.2,190.2 146.2,187.2 172.2,187.2 172.2,190.2 182.2,190.2 182.2,180.3 177.1,175.2 
		141.4,175.2 136.2,180.3 136.2,190.2 	"/>
	<rect x="146.2" y="177.2" style="fill:#DFE0E0;" width="26" height="8"/>
	<rect x="123.2" y="193.2" style="fill:#DFE0E0;" width="5" height="3"/>
	<rect x="190.2" y="193.2" style="fill:#DFE0E0;" width="5" height="3"/>
	<path style="opacity:0.5;fill:#FFFFFF;" d="M180.2,196.2h-1v-6h3v-9.5l-5.2-5.5h-35.7l-5.2,5.5v9.5h3v6h-9v-5h-9v3h-5.8l-8.2,8.5
		v58.2l4.2,4.3L180.2,196.2z M143.2,190.2h3v-3h26v3h3v6h-32V190.2z"/>
	<path style="fill:#3F4041;" d="M203.1,269.2h-87.7l-8.2-8.7v-58.2l8.2-8.1h5.8v-3h9v3h8v-2h-1l-1-1v-10.9l5.2-5.1h35.7l5.2,5.1
		v10.9l-1,1h-1v2h8v-3h9v3h5.8l8.2,8.1v58.2L203.1,269.2z M116.3,267.2h85.9l7-7.5v-56.6l-7-6.9h-7v-3h-5v3h-12v-6h2v-9.1l-4-3.9
		h-34l-4,3.9v9.1h2v6h-12v-3h-5v3h-7l-7,6.9v56.6L116.3,267.2z M176.2,196.2h-34v-6h2v-5h30v5h2V196.2z M144.2,194.2h30v-2h-1l-1-1
		v-4h-26v4l-1,1h-1V194.2z"/>
	<g>
		<rect x="129.2" y="197.2" style="fill:#3F4041;" width="2" height="69"/>
		<rect x="120.2" y="197.2" style="fill:#3F4041;" width="2" height="69"/>
		<rect x="196.2" y="197.2" style="fill:#3F4041;" width="2" height="69"/>
		<rect x="187.2" y="197.2" style="fill:#3F4041;" width="2" height="69"/>
		<rect x="170.2" y="178.2" style="fill:#3F4041;" width="2" height="6"/>
		<rect x="146.2" y="178.2" style="fill:#3F4041;" width="2" height="6"/>
	</g>
</g>
<g>
	<path style="fill:#FF8300;" d="M361.3,66.4l-56.3,30.7v10l16.7,9.1v15.7v5l39.7,21.6l39.7-21.6v-5v-15.7l16.7-9.1v-1.2v-6.6v-1.1
		v-1.1L361.3,66.4z"/>
	<polygon style="fill:#DFE0E0;" points="400.9,131.8 400.9,116.2 409.7,111.4 408.5,109.9 361.3,135.6 314,109.9 312.7,111.3 
		321.6,116.2 321.6,131.8 321.6,136.8 361.3,158.4 400.9,136.8 	"/>
	<polygon style="opacity:0.5;fill:#FFFFFF;" points="321.6,131.8 321.6,136.8 338.2,145.9 397.7,86.3 361.3,66.4 304.9,97.1 
		304.9,107.1 321.6,116.2 	"/>
	<g>
		<polygon style="fill:#FF8300;" points="333.1,153.1 328.2,153.1 328.2,177.2 333.1,171.2 338,177.2 338,153.1 		"/>
	</g>
	<polygon style="fill:#3F4041;" points="397.9,117.9 397.9,115.7 361.3,135.6 324.6,115.7 324.6,117.9 361.3,137.9 	"/>
	<polygon style="fill:#3F4041;" points="415.6,100.5 415.6,105.9 400,114.4 398.9,115 398.9,116.2 398.9,131.8 398.9,135.7 
		361.3,156.2 323.6,135.7 323.6,131.8 323.6,116.2 323.6,115 322.5,114.4 306.9,105.9 306.9,98.3 361.3,68.7 414.5,97.7 413.4,98.2 
		361.3,126.6 309.1,98.2 307.9,98.9 307.9,99.9 361.3,128.9 406.3,104.4 409.2,102.8 411.5,101.6 411.5,101.6 415.6,99.3 
		417.6,98.2 417.6,97.1 361.3,66.4 304.9,97.1 304.9,107.1 321.6,116.2 321.6,131.8 321.6,136.8 361.3,158.4 400.9,136.8 
		400.9,131.8 400.9,116.2 417.6,107.1 417.6,99.4 	"/>
	<line style="fill:#3F4041;" x1="411.7" y1="101.4" x2="420.4" y2="96.7"/>
	<polygon style="fill:#3F4041;" points="334.1,110.7 336.2,111.9 361.7,98 359.6,96.8 	"/>
	<polygon style="fill:#3F4041;" points="335.1,153.1 335.1,155.1 336,155.1 336,171.6 334.6,169.9 333.1,168 331.5,169.9 
		330.2,171.6 330.2,155.1 333.1,155.1 334.1,155.1 334.1,153.1 334.1,153.1 334.1,152.8 334.1,147.6 334.1,144.8 332.1,143.7 
		332.1,152.8 332.1,153.1 332.1,153.1 328.2,153.1 328.2,177.2 333.1,171.2 338,177.2 338,153.1 	"/>
	<polygon style="fill:#3F4041;" points="334.1,119.7 334.1,115.3 332.1,114.2 332.1,118.6 	"/>
	<polygon style="fill:#3F4041;" points="332.1,123.2 332.1,139.1 334.1,140.2 334.1,124.3 	"/>
</g>
<path style="fill:#FF8300;" d="M587.8,165.7h-89.6v95.6h89.6V165.7L587.8,165.7z"/>
<g>
	<circle style="fill:#FFFFFF;" cx="543" cy="191.3" r="12.7"/>
</g>
<g>
	<g>
		<circle style="fill:#DFE0E0;" cx="514.8" cy="223.1" r="6.8"/>
	</g>
	<g>
		<circle style="fill:#DFE0E0;" cx="571.2" cy="223.1" r="6.8"/>
	</g>
</g>
<path style="fill:#3F4041;" d="M543,180.6c5.9,0,10.7,4.8,10.7,10.7S548.9,202,543,202s-10.7-4.8-10.7-10.7S537.1,180.6,543,180.6
	 M543,178.6c-7,0-12.7,5.7-12.7,12.7S536,204,543,204s12.7-5.7,12.7-12.7S550,178.6,543,178.6L543,178.6z"/>
<path style="fill:#3F4041;" d="M571.2,218.3c2.7,0,4.8,2.2,4.8,4.8s-2.2,4.8-4.8,4.8s-4.8-2.2-4.8-4.8S568.5,218.3,571.2,218.3
	 M571.2,216.3c-3.8,0-6.8,3.1-6.8,6.8s3.1,6.8,6.8,6.8c3.8,0,6.8-3.1,6.8-6.8S574.9,216.3,571.2,216.3L571.2,216.3z"/>
<path style="fill:#3F4041;" d="M571.2,218.3c2.7,0,4.8,2.2,4.8,4.8s-2.2,4.8-4.8,4.8s-4.8-2.2-4.8-4.8S568.5,218.3,571.2,218.3
	 M571.2,216.3c-3.8,0-6.8,3.1-6.8,6.8s3.1,6.8,6.8,6.8c3.8,0,6.8-3.1,6.8-6.8S574.9,216.3,571.2,216.3L571.2,216.3z"/>
<path style="fill:#DFE0E0;" d="M538.6,272.3h54.9c2.9,0,5.3-2.4,5.3-5.3v-54.9L538.6,272.3z M587.8,261.3h-22.7l22.7-22.7V261.3z"/>
<path style="fill:#3F4041;" d="M587.8,261.3l0-22.7l-22.7,22.7H587.8z M585.8,259.3h-15.9l15.9-15.9L585.8,259.3z"/>
<rect x="571" y="243.8" transform="matrix(0.7071 -0.7071 0.7071 0.7071 -6.0559 476.3524)" style="fill:#3F4041;" width="2" height="3.3"/>
<rect x="583.7" y="231.1" transform="matrix(0.7071 -0.7071 0.7071 0.7071 6.6717 481.6243)" style="fill:#3F4041;" width="2" height="3.3"/>
<rect x="590.1" y="224.7" transform="matrix(0.7071 -0.7071 0.7071 0.7071 13.0393 484.2679)" style="fill:#3F4041;" width="2" height="3.3"/>
<rect x="577.3" y="237.4" transform="matrix(0.7072 -0.707 0.707 0.7072 0.2801 478.9216)" style="fill:#3F4041;" width="2" height="3.3"/>
<rect x="551.9" y="262.9" transform="matrix(0.7071 -0.7071 0.7071 0.7071 -25.1482 468.4445)" style="fill:#3F4041;" width="2" height="3.3"/>
<rect x="558.3" y="256.5" transform="matrix(0.707 -0.7072 0.7072 0.707 -18.7622 471.1402)" style="fill:#3F4041;" width="2" height="3.3"/>
<rect x="564.6" y="250.2" transform="matrix(0.7071 -0.7071 0.7071 0.7071 -12.4173 473.7238)" style="fill:#3F4041;" width="2" height="3.3"/>
<path style="fill:#3F4041;" d="M552.6,258.3h2.8l41.4-41.4V267c0,1.8-1.5,3.3-3.3,3.3h-50.1l11-11h-2.8l-13,13h54.9
	c2.9,0,5.3-2.4,5.3-5.3v-54.9L552.6,258.3z"/>
<path style="opacity:0.5;fill:#FFFFFF;" d="M609.2,134.8c-1.3,0-2.5,0.7-3.2,1.8c-16.1-0.4-36.5-0.6-62.3-0.6
	c-61.4,0-92.2,1.4-107.6,2.8c-10.8,1-19.1,6.4-21.4,17.5c-4.9,23.1-3.8,61.9-3.8,61.9s-1,38.9,3.8,61.9c2.3,11,10.6,16.5,21.4,17.5
	c3.4,0.3,7.7,0.6,12.8,0.9l163.6-163.6H609.2z"/>
<path style="fill:#3F4041;" d="M653.6,284.7H434.1V151.5h219.5V284.7z M436.1,282.7h215.5V153.5H436.1V282.7z"/>
<path style="fill:#3F4041;" d="M674.2,163.8c-0.4-2.7-0.8-5.3-1.3-7.7c-2.3-11-10.6-16.5-21.4-17.5c-6-0.5-14.3-1.1-25.9-1.5
	c-0.6-1.4-1.9-2.4-3.5-2.4h-12.8c-1.3,0-2.5,0.7-3.2,1.8c-16.1-0.4-36.5-0.6-62.3-0.6c-61.4,0-92.2,1.4-107.6,2.8
	c-10.8,1-19.1,6.4-21.4,17.5c-4.9,23.1-3.8,61.9-3.8,61.9s-1,38.9,3.8,61.9c2.3,11,10.6,16.5,21.4,17.5c15.4,1.4,46.2,2.8,107.6,2.8
	s92.2-1.4,107.6-2.8c10.8-1,19.1-6.4,21.4-17.5c4.9-23.1,3.8-61.9,3.8-61.9s0.8-28.1-2-50.7c-0.7-0.4-1.4-0.8-2.2-1.1
	c2.9,22.4,2.2,51.4,2.2,51.7l0,0.1l0,0.1c0,0.4,1,38.9-3.8,61.5c-2.5,11.9-12.1,15.2-19.6,15.9c-14.2,1.3-44.4,2.8-107.4,2.8
	c-63,0-93.2-1.5-107.4-2.8c-13.7-1.2-18.3-9.3-19.6-15.9c-4.8-22.6-3.8-61.1-3.8-61.5l0-0.1l0-0.1c0-0.4-1-38.9,3.8-61.5
	c2.5-11.9,12.1-15.2,19.6-15.9c14.2-1.3,44.4-2.8,107.4-2.8c23.8,0,44.7,0.2,62.2,0.6l1.1,0l0.6-1c0.3-0.5,0.9-0.8,1.5-0.8h12.8
	c0.7,0,1.4,0.4,1.6,1.1l0.5,1.2l1.3,0.1c10.4,0.4,19,0.9,25.8,1.5c13.7,1.2,18.3,9.3,19.6,15.9c0.5,2.4,0.9,4.9,1.3,7.6
	c0,0.3,0.1,0.7,0.1,1c9,3.8,15.3,12.4,15.3,22.5v103.1c0,14.7-12.5,26.7-27.8,26.7h-56.7h-0.9h-1.2c0.1,0.3,0.2,0.6,0.2,1
	c0,1.5-1.2,2.7-2.7,2.7H491.3h-2H489c-1.5,0-2.7-1.2-2.7-2.7s1.2-2.7,2.7-2.7h0.4h2h107.3c0.7,0,1.3,0.3,1.7,0.7h2.5
	c-0.8-1.6-2.3-2.7-4.2-2.7H491.3H489c-2.6,0-4.7,2.1-4.7,4.7s2.1,4.7,4.7,4.7h2.4h107.3c2.2,0,4.1-1.6,4.6-3.7h56.7
	c16.4,0,29.8-12.9,29.8-28.7V187.7C689.7,177.2,683.3,168.2,674.2,163.8z"/>
<g>
	<path style="fill:#DEDFDF;" d="M423.2,233.5h-3.7c-0.6,0-1.2-0.5-1.2-1.2v-28.5c0-0.6,0.5-1.2,1.2-1.2h3.7c0.6,0,1.2,0.5,1.2,1.2
		v28.5C424.3,233,423.8,233.5,423.2,233.5z"/>
</g>
<path style="fill:#3F4041;" d="M422.3,204.7v26.8h-2v-26.8H422.3 M423.2,202.7h-3.7c-0.6,0-1.2,0.5-1.2,1.2v28.5
	c0,0.6,0.5,1.2,1.2,1.2h3.7c0.6,0,1.2-0.5,1.2-1.2v-28.5C424.3,203.2,423.8,202.7,423.2,202.7L423.2,202.7z"/>
<path style="fill:#3F4041;" d="M543,180.6c5.9,0,10.7,4.8,10.7,10.7S548.9,202,543,202s-10.7-4.8-10.7-10.7S537.1,180.6,543,180.6
	 M543,178.6c-7,0-12.7,5.7-12.7,12.7S536,204,543,204s12.7-5.7,12.7-12.7S550,178.6,543,178.6L543,178.6z"/>
<path style="fill:#3F4041;" d="M542,229.1c0,0.6,0.4,1,1,1s1-0.4,1-1v-5h13.6l9,18.8l1.5-1.5l-8.3-17.3h3.6c0-0.3-0.1-0.7-0.1-1
	s0-0.7,0.1-1h-4.6l-9.1-18.9c-0.6,0.3-1.2,0.6-1.8,0.9l8.6,18H544v-5.3c0-0.6-0.4-1-1-1s-1,0.4-1,1v5.3h-12.6l8.6-18
	c-0.6-0.2-1.2-0.5-1.8-0.9l-9.1,18.9h-4.6c0,0.3,0.1,0.7,0.1,1s0,0.7-0.1,1h3.6l-10.8,22.5c-0.2,0.5,0,1.1,0.5,1.3
	c0.1,0.1,0.3,0.1,0.4,0.1c0.4,0,0.7-0.2,0.9-0.6l11.2-23.4H542V229.1z"/>
<polygon style="fill:#3F4041;" points="552.2,259.3 500.2,259.3 500.2,255.3 500.2,255.3 500.2,253.3 500.2,221 500.2,173.7 
	500.2,171.7 500.2,167.7 585.8,167.7 585.8,171.7 585.8,171.7 585.8,173.7 585.8,200.6 585.8,223.6 587.8,221.6 587.8,165.7 
	498.2,165.7 498.2,171.7 498.2,171.7 498.2,261.3 552.2,261.3 "/>
<path style="fill:#3F4041;" d="M514.8,218.3c2.7,0,4.8,2.2,4.8,4.8s-2.2,4.8-4.8,4.8s-4.8-2.2-4.8-4.8S512.2,218.3,514.8,218.3
	 M514.8,216.3c-3.8,0-6.8,3.1-6.8,6.8s3.1,6.8,6.8,6.8c3.8,0,6.8-3.1,6.8-6.8S518.6,216.3,514.8,216.3L514.8,216.3z"/>
<path style="fill:#3F4041;" d="M514.8,218.3c2.7,0,4.8,2.2,4.8,4.8s-2.2,4.8-4.8,4.8s-4.8-2.2-4.8-4.8S512.2,218.3,514.8,218.3
	 M514.8,216.3c-3.8,0-6.8,3.1-6.8,6.8s3.1,6.8,6.8,6.8c3.8,0,6.8-3.1,6.8-6.8S518.6,216.3,514.8,216.3L514.8,216.3z"/>
<path style="fill:#3F4041;" d="M543,177.6c0.3,0,0.7,0,1,0.1v-3.9c0-0.6-0.4-1-1-1s-1,0.4-1,1v3.9
	C542.3,177.6,542.7,177.6,543,177.6z"/>
</svg>
