<?xml version="1.0" encoding="utf-8"?>
<!-- Generator: Adobe Illustrator 19.2.1, SVG Export Plug-In . SVG Version: 6.00 Build 0)  -->
<svg version="1.1" id="Layer_1" xmlns="http://www.w3.org/2000/svg" xmlns:xlink="http://www.w3.org/1999/xlink" x="0px" y="0px"
	 viewBox="0 0 725 400" style="enable-background:new 0 0 725 400;" xml:space="preserve">
<path style="opacity:0.7;fill:#ACADAE;enable-background:new    ;" d="M564,375H158c-3.3,0-6-2.7-6-6l0,0c0-3.3,2.7-6,6-6h406
	c3.3,0,6,2.7,6,6l0,0C570,372.3,567.3,375,564,375z"/>
<g>
	<path style="fill:#757778;" d="M509,175H213c-3.3,0-6,2.7-6,6v180c0,3.3,2.7,6,6,6h296c3.3,0,6-2.7,6-6V181
		C515,177.7,512.3,175,509,175z"/>
</g>
<g>
	<rect x="228.5" y="193.5" style="fill:#FFFFFF;" width="265" height="155"/>
</g>
<g>
	<g>
		<polygon style="fill:#DEDFDF;" points="291.9,330.3 331.8,324.2 283.3,274.1 		"/>
	</g>
	<g>
		<polygon style="fill:#DEDFDF;" points="228.5,261.6 265.6,255.9 228.5,217.5 		"/>
	</g>
	<g>
		<polygon style="fill:#DEDFDF;" points="278,332.4 268.5,269.6 228.5,275.7 228.5,339.9 		"/>
	</g>
	<g>
		<polygon style="fill:#DEDFDF;" points="355.7,242.2 418.4,232.6 412.4,193.5 348.3,193.5 		"/>
	</g>
	<g>
		
			<rect x="362.2" y="250.9" transform="matrix(0.9886 -0.1506 0.1506 0.9886 -38.0773 62.5679)" style="fill:#DEDFDF;" width="63.5" height="63.5"/>
	</g>
	<g>
		<polygon style="fill:#DEDFDF;" points="353.5,320.9 343.9,258.1 294.6,265.6 348.8,321.6 		"/>
	</g>
	<g>
		<polygon style="fill:#DEDFDF;" points="279.7,250.3 282.6,253.3 341.8,244.3 334.1,193.5 271,193.5 		"/>
	</g>
	<g>
		<polygon style="fill:#DEDFDF;" points="432.3,230.5 493.5,221.2 493.5,193.5 426.6,193.5 		"/>
	</g>
	<g>
		<polygon style="fill:#DEDFDF;" points="262.9,232.9 256.9,193.5 228.5,193.5 228.5,197.4 		"/>
	</g>
	<g>
		<polygon style="fill:#DEDFDF;" points="446,320.9 450.2,348.5 493.5,348.5 493.5,313.7 		"/>
	</g>
	<g>
		<polygon style="fill:#DEDFDF;" points="280.1,346.2 265.1,348.5 280.5,348.5 		"/>
	</g>
	<g>
		<polygon style="fill:#DEDFDF;" points="493.5,235.3 434.4,244.3 443.9,307.1 493.5,299.5 		"/>
	</g>
	<g>
		<polygon style="fill:#DEDFDF;" points="343.7,336.5 294,344.1 294.6,348.5 355.3,348.5 		"/>
	</g>
	<g>
		<polygon style="fill:#DEDFDF;" points="432.2,323 369.5,332.6 371.3,344.9 374.8,348.5 436.1,348.5 		"/>
	</g>
</g>
<circle style="fill:#FF8100;" cx="277.4" cy="278.4" r="18"/>
<g>
	<circle style="fill:#FF8100;" cx="361" cy="185" r="6"/>
</g>
<path style="opacity:0.5;fill:#FFFFFF;" d="M213,175c-3.3,0-6,2.7-6,6v180c0,3.3,2.7,6,6,6h30l192-192H213z"/>
<path style="fill:#3F4041;" d="M491.5,195.5v151h-261v-151H491.5 M493.5,193.5h-265v155h265V193.5L493.5,193.5z"/>
<path style="fill:#3F4041;" d="M509,175H363v2h146c2.2,0,4,1.8,4,4v180c0,2.2-1.8,4-4,4H213c-2.2,0-4-1.8-4-4V181c0-2.2,1.8-4,4-4
	h146h1v2.1v2.1c0.3-0.1,0.7-0.1,1-0.1c2.2,0,4,1.8,4,4s-1.8,4-4,4s-4-1.8-4-4c0-1.5,0.8-2.7,2-3.4v-2.2c-2.3,0.8-4,3-4,5.6
	c0,3.3,2.7,6,6,6s6-2.7,6-6c0-3-2.2-5.4-5-5.9V178v-1v-2h-2H213c-3.3,0-6,2.7-6,6v180c0,3.3,2.7,6,6,6h296c3.3,0,6-2.7,6-6V181
	C515,177.7,512.3,175,509,175z"/>
<circle style="fill:#FF8100;" cx="438.7" cy="321.2" r="18"/>
<path style="fill:#3F4041;" d="M438.7,305.2c8.8,0,16,7.2,16,16s-7.2,16-16,16s-16-7.2-16-16S429.8,305.2,438.7,305.2 M438.7,303.2
	c-9.9,0-18,8.1-18,18s8.1,18,18,18c9.9,0,18-8.1,18-18S448.6,303.2,438.7,303.2L438.7,303.2z"/>
<path style="fill:#3F4041;" d="M277.4,262.4c8.8,0,16,7.2,16,16s-7.2,16-16,16s-16-7.2-16-16S268.6,262.4,277.4,262.4 M277.4,260.4
	c-9.9,0-18,8.1-18,18s8.1,18,18,18c9.9,0,18-8.1,18-18S287.3,260.4,277.4,260.4L277.4,260.4z"/>
<g>
	<path style="fill:#FFFFFF;" d="M250.5,64.5c-52.7-52.7-138.2-52.7-190.9,0c-52.7,52.7-52.7,138.2,0,190.9
		c45.6,45.6,115.8,51.8,168,18.4h41.3v-41.3C302.2,180.3,296.1,110.2,250.5,64.5z"/>
	<path style="fill:#757778;" d="M49.8,169v34.9c0,7.3,5.9,13.2,13.2,13.2h3.7c0,13.3,10.8,24.1,24.1,24.1s24.1-10.8,24.1-24.1h10.5
		h31c0-15.3,12.4-27.7,27.7-27.7h29.7c7.8,0,14.5-5.8,15.5-13.6l9.7-74.7h-131v20.2v4.8h-1h-6.2c-6.3,0-12.3,2.6-16.7,7.1L49.8,169z
		"/>
	<path style="fill:#FF8100;" d="M90.8,193.1c-13.3,0-24.1,10.8-24.1,24.1s10.8,24.1,24.1,24.1s24.1-10.8,24.1-24.1
		S104.1,193.1,90.8,193.1L90.8,193.1z"/>
	<path style="fill:#FF8100;" d="M184.1,193.1c-13.3,0-24.1,10.8-24.1,24.1s10.8,24.1,24.1,24.1c13.3,0,24.1-10.8,24.1-24.1
		S197.3,193.1,184.1,193.1L184.1,193.1z"/>
	<path style="fill:#DEDFDF;" d="M90.8,205.3c-6.6,0-11.9,5.3-11.9,11.9s5.3,11.9,11.9,11.9s11.9-5.3,11.9-11.9
		S97.4,205.3,90.8,205.3L90.8,205.3z"/>
	<path style="fill:#DEDFDF;" d="M184.1,205.3c-6.6,0-11.9,5.3-11.9,11.9s5.3,11.9,11.9,11.9c6.6,0,11.9-5.3,11.9-11.9
		S190.6,205.3,184.1,205.3L184.1,205.3z"/>
	<path style="opacity:0.5;fill:#FFFFFF;" d="M250.5,64.5c-52.7-52.7-138.2-52.7-190.9,0c-52.7,52.7-52.7,138.2,0,190.9L250.5,64.5z"
		/>
	<path style="fill:#3F4041;" d="M90.8,207.3c5.5,0,9.9,4.4,9.9,9.9s-4.4,9.9-9.9,9.9s-9.9-4.4-9.9-9.9S85.4,207.3,90.8,207.3
		 M90.8,205.3c-6.6,0-11.9,5.3-11.9,11.9s5.3,11.9,11.9,11.9s11.9-5.3,11.9-11.9S97.4,205.3,90.8,205.3L90.8,205.3z"/>
	<path style="fill:#3F4041;" d="M184.1,195.1c12.2,0,22.1,9.9,22.1,22.1s-9.9,22.1-22.1,22.1c-12.2,0-22.1-9.9-22.1-22.1
		S171.9,195.1,184.1,195.1 M184.1,193.1c-13.3,0-24.1,10.8-24.1,24.1s10.8,24.1,24.1,24.1c13.3,0,24.1-10.8,24.1-24.1
		S197.3,193.1,184.1,193.1L184.1,193.1z"/>
	<path style="fill:#3F4041;" d="M184.1,207.3c5.5,0,9.9,4.4,9.9,9.9s-4.4,9.9-9.9,9.9s-9.9-4.4-9.9-9.9S178.6,207.3,184.1,207.3
		 M184.1,205.3c-6.6,0-11.9,5.3-11.9,11.9s5.3,11.9,11.9,11.9c6.6,0,11.9-5.3,11.9-11.9S190.6,205.3,184.1,205.3L184.1,205.3z"/>
	<polygon style="fill:#3F4041;" points="239.9,101.2 263.3,101.2 263.3,103.2 239.6,103.2 	"/>
	<polygon style="fill:#3F4041;" points="238.3,113.2 269.3,113.2 269.3,115.2 238,115.2 	"/>
	<polygon style="fill:#3F4041;" points="236.7,125.2 257.3,125.2 257.3,127.2 236.5,127.2 	"/>
	<polygon style="fill:#3F4041;" points="235.2,137.2 260.3,137.2 260.3,139.2 234.9,139.2 	"/>
	<polygon style="fill:#3F4041;" points="233.6,149.2 245.3,149.2 245.3,151.2 233.4,151.2 	"/>
	<path style="fill:#3F4041;" d="M114.7,214.2h-2c-1.5-10.7-10.7-19.1-21.8-19.1s-20.4,8.3-21.8,19.1h-2
		c1.5-11.9,11.6-21.1,23.9-21.1S113.2,202.3,114.7,214.2z"/>
	<path style="fill:#3F4041;" d="M84,133.3c4.4-4.6,10.4-7.1,16.7-7.1h6.2v2h-6.2c-5.7,0-11.3,2.4-15.3,6.5l-33.6,35.2v34.1
		c0,6.2,5,11.2,11.2,11.2h3.8h2c-0.1,0.7-0.1,1.3-0.1,2c0,12.2,9.9,22.1,22.1,22.1s22.1-9.9,22.1-22.1c0-0.7,0-1.3-0.1-2h2h10.6H136
		h18.4c1-15.5,13.9-27.7,29.6-27.7h29.7c6.8,0,12.6-5.1,13.5-11.9l9.4-72.4H109.8v18.2v4.8v2v4v7.8V171h-36c-6.2,0-9.4-7.4-5.1-11.9
		l20.1-21.1c3.6-3.8,8.6-5.9,13.8-5.9h4.2v2h-4.2c-4.6,0-9.1,1.9-12.4,5.3l-20.1,21.1c-1.7,1.8-1.6,4-1,5.5c0.6,1.5,2.2,3.1,4.6,3.1
		h34v-29.1v-5.8v-2v-4v-2v-4.8v-20.2h131l-9.7,74.7c-1,7.8-7.6,13.6-15.5,13.6h-29.7c-15.3,0-27.7,12.4-27.7,27.7h-31h-10.5
		c0,13.3-10.8,24.1-24.1,24.1s-24.1-10.8-24.1-24.1h-3.7c-7.3,0-13.2-5.9-13.2-13.2V169L84,133.3z"/>
	<path style="fill:#FFFFFF;" d="M107.8,134.2v5.8V169h-34c-2.5,0-4-1.6-4.6-3.1c-0.6-1.5-0.7-3.7,1-5.5l20.1-21.1
		c3.2-3.4,7.7-5.3,12.4-5.3h4.2H107.8z"/>
	<path style="fill:#3F4041;" d="M61,66c25.1-25.1,58.5-39,94-39c35.5,0,68.9,13.8,94,39c11,11,19.9,23.6,26.4,37.6
		c6.3,13.5,10.3,27.9,11.8,42.7c3.1,29.8-4.1,60.1-20.1,85.2l-0.3,0.5l0,0.6l0,39.3l-39.3,0l-0.6,0l-0.5,0.3
		c-25.1,16-55.4,23.2-85.2,20.1c-14.9-1.5-29.3-5.5-42.7-11.8C84.6,273.9,71.9,265,61,254c-25.1-25.1-39-58.5-39-94
		C22,124.5,35.8,91.1,61,66 M59.5,64.5c-52.7,52.7-52.7,138.2,0,190.9c45.6,45.6,115.8,51.8,168,18.4h41.3v-41.3
		c33.3-52.2,27.2-122.4-18.4-168C197.7,11.8,112.3,11.8,59.5,64.5L59.5,64.5z"/>
</g>
<path style="fill:#FFFFFF;" d="M474.5,101.7c52.7-52.7,138.2-52.7,190.9,0c52.7,52.7,52.7,138.2,0,190.9
	c-45.6,45.6-115.8,51.8-168,18.4h-41.3v-41.3C422.8,217.5,428.9,147.3,474.5,101.7z"/>
<g>
	<path style="fill:#FF8100;" d="M665.1,240.1H510.8c-8.9,0-17.7-2.4-25.4-7l-12.2-7.2c-3.2-1.9-5.2-5.4-5.2-9.1l-0.1-16.2
		c0-2.2,1-4.2,2.6-5.6l0.6-0.5c1.9-1.5,3-3.8,3-6.3l0-13c0-2.6-1.4-4.9-3.6-6.2h0c-1.5-0.9-2.4-2.5-2.4-4.2v-4.7l92.1-8.3
		c12-1.1,24,1.6,34.4,7.6l32.3,18.7c3.5,2,7.1,3.7,11,4.9l27.7,9c7.5,2.4,12.5,9.4,12.5,17.3v17.8
		C678.1,234.3,672.3,240.1,665.1,240.1z"/>
</g>
<path style="fill:#DEDFDF;" d="M624.9,181.6l-32.3-18.7c-8.2-4.8-17.6-7.3-27.1-7.3c-1.6,0-3.3,0.1-4.9,0.2l-71.2,6.4
	c1.9,5.6,5.8,16,11,24.4c2.3,3.7,5.9,6.2,10,7.3c1.3,0.3,2.6,0.4,4,0.3l110-9.7C625.8,184.4,626.2,182.4,624.9,181.6
	C624.9,181.6,624.9,181.6,624.9,181.6z"/>
<g>
	<circle style="fill:#757778;" cx="510.1" cy="228.1" r="22"/>
</g>
<g>
	<circle style="fill:#757778;" cx="633.1" cy="228.1" r="22"/>
</g>
<g>
	<circle style="fill:#DEDFDF;" cx="510.1" cy="228.1" r="11.6"/>
</g>
<g>
	<circle style="fill:#DEDFDF;" cx="633.1" cy="228.1" r="11.6"/>
</g>
<path style="opacity:0.5;fill:#FFFFFF;" d="M665.5,101.7c-52.7-52.7-138.2-52.7-190.9,0c-52.7,52.7-52.7,138.2,0,190.9L665.5,101.7z
	"/>
<path style="fill:#3F4041;" d="M664,103.1c25.1,25.1,39,58.5,39,94c0,35.5-13.8,68.9-39,94c-11,11-23.6,19.9-37.6,26.4
	c-13.5,6.3-27.9,10.3-42.7,11.8c-29.8,3.1-60.1-4.1-85.2-20.1L498,309l-0.6,0h-39.3v-39.3l0-0.6l-0.3-0.5
	c-16-25.1-23.2-55.4-20.1-85.2c1.5-14.9,5.5-29.3,11.8-42.7c6.5-13.9,15.4-26.6,26.4-37.6c25.1-25.1,58.5-39,94-39
	C605.5,64.1,638.9,78,664,103.1 M665.5,101.7c-52.7-52.7-138.2-52.7-190.9,0c-45.6,45.6-51.8,115.8-18.4,168V311h41.3
	c52.2,33.3,122.4,27.2,168-18.4C718.2,239.9,718.2,154.4,665.5,101.7L665.5,101.7z"/>
<g>
	<polygon style="fill:#3F4041;" points="349.6,250.4 343.9,251.2 344.2,253.2 349.9,252.4 	"/>
	
		<rect x="332.2" y="252.5" transform="matrix(0.9899 -0.1416 0.1416 0.9899 -32.5085 49.9962)" style="fill:#3F4041;" width="6" height="2"/>
	
		<rect x="350.2" y="257.5" transform="matrix(0.9891 -0.1474 0.1474 0.9891 -34.5691 54.6184)" style="fill:#3F4041;" width="2" height="6"/>
	
		<rect x="351.9" y="269.4" transform="matrix(0.9891 -0.1474 0.1474 0.9891 -36.2996 55.0092)" style="fill:#3F4041;" width="2" height="6"/>
	
		<rect x="296.5" y="257.6" transform="matrix(0.9899 -0.1416 0.1416 0.9899 -33.5899 45.003)" style="fill:#3F4041;" width="6" height="2"/>
	
		<rect x="320.3" y="254.2" transform="matrix(0.9899 -0.1416 0.1416 0.9899 -32.869 48.3317)" style="fill:#3F4041;" width="6" height="2"/>
	
		<rect x="353.7" y="281.2" transform="matrix(0.9891 -0.1474 0.1474 0.9891 -38.03 55.4)" style="fill:#3F4041;" width="2" height="6"/>
	
		<rect x="308.4" y="255.9" transform="matrix(0.9899 -0.1416 0.1416 0.9899 -33.2295 46.6674)" style="fill:#3F4041;" width="6" height="2"/>
	
		<rect x="387" y="321.3" transform="matrix(0.9896 -0.1436 0.1436 0.9896 -42.242 59.3435)" style="fill:#3F4041;" width="6" height="2"/>
	
		<rect x="398.8" y="319.6" transform="matrix(0.9896 -0.1436 0.1436 0.9896 -41.8712 61.0311)" style="fill:#3F4041;" width="6" height="2"/>
	
		<rect x="375.1" y="323" transform="matrix(0.9896 -0.1436 0.1436 0.9896 -42.6128 57.656)" style="fill:#3F4041;" width="6" height="2"/>
	
		<rect x="410.7" y="317.8" transform="matrix(0.9896 -0.1437 0.1437 0.9896 -41.5296 62.7706)" style="fill:#3F4041;" width="6" height="2"/>
	
		<rect x="359" y="316.8" transform="matrix(0.9891 -0.1475 0.1475 0.9891 -43.2278 56.5819)" style="fill:#3F4041;" width="2" height="6"/>
	
		<rect x="357.2" y="305" transform="matrix(0.9891 -0.1474 0.1474 0.9891 -41.491 56.1814)" style="fill:#3F4041;" width="2" height="6"/>
	
		<rect x="355.5" y="293.1" transform="matrix(0.9891 -0.1474 0.1474 0.9891 -39.7606 55.7907)" style="fill:#3F4041;" width="2" height="6"/>
	
		<rect x="363.2" y="324.7" transform="matrix(0.9896 -0.1436 0.1436 0.9896 -42.9837 55.9685)" style="fill:#3F4041;" width="6" height="2"/>
</g>
<circle style="fill:#DEDFDF;" cx="95.7" cy="308" r="50"/>
<path style="fill:#FFFFFF;" d="M75.6,328.1c-5.2-5.2-8.3-12.3-8.3-20.1c0-15.7,12.7-28.5,28.5-28.5s28.5,12.7,28.5,28.5
	c0,7.9-3.2,15-8.3,20.1l7,7c6.9-6.9,11.2-16.5,11.2-27.1c0-21.2-17.2-38.3-38.3-38.3S57.4,286.8,57.4,308c0,10.6,4.3,20.2,11.2,27.1
	L75.6,328.1z"/>
<circle style="fill:#DEDFDF;" cx="646.1" cy="74" r="50"/>
<path style="fill:#FFFFFF;" d="M650.1,87V41.5c0-2.2-1.8-4-4-4s-4,1.8-4,4V87c-4.6,1.6-7.9,6-7.9,11.2c0,6.5,5.3,11.9,11.9,11.9
	s11.9-5.3,11.9-11.9C658,93,654.7,88.6,650.1,87z"/>
<path style="fill:#FF8100;" d="M642.1,57.5V87c-4.6,1.6-7.9,6-7.9,11.2c0,6.5,5.3,11.9,11.9,11.9s11.9-5.3,11.9-11.9
	c0-5.1-3.3-9.5-7.9-11.2V57.5H642.1z"/>
<path style="opacity:0.5;fill:#FFFFFF;" d="M646.1,24c-27.6,0-50,22.4-50,50c0,13.8,5.6,26.3,14.6,35.4l70.7-70.7
	C672.4,29.6,659.9,24,646.1,24z"/>
<path style="fill:#3F4041;" d="M646.1,26c26.5,0,48,21.5,48,48s-21.5,48-48,48s-48-21.5-48-48S619.6,26,646.1,26 M646.1,24
	c-27.6,0-50,22.4-50,50s22.4,50,50,50s50-22.4,50-50S673.7,24,646.1,24L646.1,24z"/>
<path style="fill:#3F4041;" d="M652.1,85.6V41.5c0-3.3-2.7-6-6-6s-6,2.7-6,6v44.1c-4.7,2.2-7.9,7-7.9,12.5c0,7.7,6.2,13.9,13.9,13.9
	s13.9-6.2,13.9-13.9C660,92.6,656.7,87.9,652.1,85.6z M646.1,110c-6.5,0-11.9-5.3-11.9-11.9c0-5.1,3.3-9.5,7.9-11.2V41.5
	c0-2.2,1.8-4,4-4s4,1.8,4,4V87c4.6,1.6,7.9,6,7.9,11.2C658,104.7,652.6,110,646.1,110z"/>
<rect x="658.2" y="56.5" style="fill:#3F4041;" width="7.8" height="2"/>
<rect x="658.2" y="70.5" style="fill:#3F4041;" width="7.8" height="2"/>
<rect x="658.2" y="84.5" style="fill:#3F4041;" width="7.8" height="2"/>
<rect x="658.2" y="42.5" style="fill:#3F4041;" width="7.8" height="2"/>
<path style="fill:#FF8100;" d="M57.4,308c0,10.6,4.3,20.2,11.2,27.1l7-7c-5.2-5.2-8.3-12.3-8.3-20.1c0-15.7,12.7-28.5,28.5-28.5
	v-9.9C74.5,269.6,57.4,286.8,57.4,308z"/>
<path style="fill:#FF8100;" d="M108.8,335.8H82.6v-35.3c0-2.2,1.8-4,4-4h18.2c2.2,0,4,1.8,4,4V335.8z"/>
<g>
	<path style="fill:#FFFFFF;" d="M103.7,311.1h-16v-5.7c0-2.2,1.8-4,4-4h8c2.2,0,4,1.8,4,4V311.1z"/>
</g>
<path style="fill:#FFFFFF;" d="M117.5,296.4h-2.2l-4.3,9.9h2.2h4.3V296.4L117.5,296.4z"/>
<path style="fill:#3F4041;" d="M115.3,296.4l-4.3,9.9h4.5v13.2c0,0.6-0.5,1-1,1c-0.9,0-1.6-0.7-1.6-1.6v-4.2c0-2.2-1.8-4-4-4v2
	c1.1,0,2,0.9,2,2v4.2c0,2,1.6,3.6,3.6,3.6c1.7,0,3-1.4,3-3v-13.2v-9.9H115.3z M114.1,304.3l1.4-3.3v3.3H114.1z"/>
<path style="opacity:0.5;fill:#FFFFFF;" d="M95.7,258c-27.6,0-50,22.4-50,50c0,13.8,5.6,26.3,14.6,35.4l70.7-70.7
	C122,263.6,109.5,258,95.7,258z"/>
<path style="fill:#3F4041;" d="M95.7,260c26.5,0,48,21.5,48,48s-21.5,48-48,48s-48-21.5-48-48S69.2,260,95.7,260 M95.7,258
	c-27.6,0-50,22.4-50,50s22.4,50,50,50s50-22.4,50-50S123.3,258,95.7,258L95.7,258z"/>
<path style="fill:#3F4041;" d="M99.7,303.4c1.1,0,2,0.9,2,2v3.7h-12v-3.7c0-1.1,0.9-2,2-2H99.7 M99.7,301.4h-8c-2.2,0-4,1.8-4,4v5.7
	h16v-5.7C103.7,303.2,101.9,301.4,99.7,301.4L99.7,301.4z"/>
<path style="fill:#3F4041;" d="M108.8,333.8v-33.3c0-2.2-1.8-4-4-4H86.6c-2.2,0-4,1.8-4,4v33.3h-2v2h2h26.2h2v-2H108.8z
	 M106.8,333.8H84.6v-33.3c0-1.1,0.9-2,2-2h18.2c1.1,0,2,0.9,2,2V333.8z"/>
<path style="fill:#3F4041;" d="M633.1,206.1c-12.2,0-22,9.8-22,22c0,3.2,0.7,6.3,1.9,9h2.2c-1.4-2.7-2.2-5.8-2.2-9c0-11,9-20,20-20
	c11,0,20,9,20,20c0,3.2-0.8,6.3-2.2,9h2.2c1.2-2.7,1.9-5.8,1.9-9C655.1,216,645.3,206.1,633.1,206.1z"/>
<path style="fill:#FFFFFF;" d="M532.7,220.1c0.2,0.7,0.4,1.3,0.6,2h76.5c0.2-0.7,0.4-1.3,0.6-2H532.7z"/>
<path style="fill:#FFFFFF;" d="M487.5,220.1h-14.6c0.5,0.8,1.1,1.5,1.8,2h12.2C487,221.5,487.2,220.8,487.5,220.1z"/>
<path style="fill:#3F4041;" d="M510.1,206.1c-12.2,0-22,9.8-22,22c0,1.1,0.1,2.2,0.2,3.3c0.7,0.4,1.4,0.7,2.2,1.1l0,0
	c-0.3-1.4-0.5-2.9-0.5-4.4c0-11,9-20,20-20c11,0,20,9,20,20c0,3.2-0.8,6.3-2.2,9h2.2c1.2-2.7,1.9-5.8,1.9-9
	C532.1,216,522.3,206.1,510.1,206.1z"/>
<path style="fill:#3F4041;" d="M565.4,153.6c9.9,0,19.6,2.6,28.1,7.6l32.3,18.7c3.6,2.1,7.4,3.8,11.3,5.1l27.7,9
	c6.7,2.2,11.1,8.3,11.1,15.3v17.8c0,6.1-4.9,11-11,11h-13.5h-1.1l-0.6,0.9c-3.7,5.7-10,9.1-16.8,9.1s-13-3.4-16.8-9.1l-0.6-0.9h-1.1
	h-86.1h-1.1l-0.6,0.9c-3.7,5.7-10,9.1-16.8,9.1c-8.6,0-16.2-5.4-18.9-13.5l-0.3-0.8l-0.8-0.4c-1.5-0.7-2.7-1.3-3.8-2l-12.2-7.2
	c-2.6-1.5-4.2-4.4-4.3-7.4l-0.1-16.2c0-1.6,0.7-3,1.9-4l0.6-0.5c2.4-1.9,3.7-4.8,3.7-7.8l0-13c0-3.3-1.7-6.3-4.6-8
	c-0.9-0.5-1.4-1.5-1.4-2.5V162l90.3-8.2C562.1,153.6,563.8,153.6,565.4,153.6 M565.4,151.6c-1.7,0-3.5,0.1-5.2,0.2l-92.1,8.3v4.7
	c0,1.7,0.9,3.3,2.4,4.2c2.2,1.3,3.6,3.7,3.6,6.2l0,13c0,2.4-1.1,4.7-3,6.3l-0.6,0.5c-1.7,1.4-2.6,3.4-2.6,5.6l0.1,16.2
	c0,3.8,2,7.2,5.2,9.1l12.2,7.2c1.3,0.8,2.6,1.4,3.9,2.1c3,8.7,11.2,14.9,20.8,14.9c7.7,0,14.5-4,18.4-10h86.1c3.9,6,10.7,10,18.4,10
	s14.5-4,18.4-10h13.5c7.2,0,13-5.8,13-13v-17.8c0-7.9-5.1-14.8-12.5-17.2l-27.7-9c-3.8-1.2-7.5-2.9-11-4.9l-32.3-18.7
	C585.7,154.2,575.6,151.6,565.4,151.6L565.4,151.6z"/>
</svg>
