<?xml version="1.0" encoding="utf-8"?>
<!-- Generator: Adobe Illustrator 16.0.3, SVG Export Plug-In . SVG Version: 6.00 Build 0)  -->
<!DOCTYPE svg PUBLIC "-//W3C//DTD SVG 1.1//EN" "http://www.w3.org/Graphics/SVG/1.1/DTD/svg11.dtd">
<svg version="1.1" id="Layer_1" xmlns="http://www.w3.org/2000/svg" xmlns:xlink="http://www.w3.org/1999/xlink" x="0px" y="0px"
	 width="500px" height="500px" viewBox="0 0 500 500" enable-background="new 0 0 500 500" xml:space="preserve">
<g>
	<g>
		<g>
			<path fill="#FFFFFF" d="M25.104,142.3V167.5c0,0.9,0.2,1.7,0.7,2.301c0.2,0.3,0.5,0.5,0.8,0.6c0.2,0.1,16,7.3,16.4,7.9
				c-1.8,4.6-4,9.899-6.6,15.899c-0.4,1.2-0.7,2.2-0.7,3.101c0,1.1,0.2,1.8,0.7,2.199c1.4,1.9,4,4.4,7.7,7.601
				c2.1,1.8,3.8,2.899,5,3.5c0.2,0.1,38.1,18.3,39.5,18.5c0.5,0.1,0.8,0,1.1-0.2c0.7-0.4,1.3-1.1,2-2.1l3.5-6.101
				c0.3,0.4,17.2,8.7,17.7,9s1.1,0.2,1.8-0.2l17.5-10.399c0.7-0.4,1.3-1.101,1.9-2.101c0.6-1,0.9-2,0.9-2.899l2.2-22.101
				c2.1-2.199,4.5-5,7-8.399l11.1,5.5c0.4,0.399,1.1,0.3,1.9-0.2c0.7-0.4,1.3-1.2,2-2.3c9-17.4,13.5-27.4,13.5-29.8
				c0-0.801-0.2-1.5-0.7-2.2c-0.6-0.9-1.9-2.5-3.8-4.9c-1.9-2.399-3.4-4.3-4.4-5.7c1.4-4.8,2.5-9.199,3.3-13.1l14.3-11.8
				c0.6-0.5,1.2-1.2,1.6-2.2c0.4-1,0.7-2,0.7-3V88.7c0-0.9-0.2-1.7-0.7-2.3c-0.2-0.3-0.5-0.5-0.7-0.6c-0.3-0.1-16.1-7.3-16.5-7.9
				c1.8-4.6,4-9.9,6.6-15.9c0.4-1.3,0.7-2.3,0.7-3.1c0-1.1-0.2-1.9-0.7-2.3c-1.4-1.9-3.9-4.4-7.7-7.5c-1.6-1.3-3-2.3-4.1-3
				c-0.8-0.4-38.4-18.3-39.7-18.8c-0.8-0.3-1.4-0.3-1.8,0c-0.7,0.4-1.3,1.1-2,2.1l-3.5,6.1c-20.6-9.5,0.4,0,0,0
				c-0.4,0-17.4-9-18-9.1c-0.4-0.1-0.9,0-1.4,0.4l-17.5,10.4c-0.7,0.4-1.3,1.1-1.9,2.1s-0.9,2-0.9,2.9l-2.2,22.1
				c-2.1,2.2-4.5,5-7,8.4l-11.1-5.5c-0.5-0.3-1.1-0.3-1.9,0.2c-0.7,0.4-1.3,1.2-2,2.3c-9,17.4-13.5,27.4-13.5,29.8
				c0,0.801,0.2,1.5,0.7,2.2c0.8,1,2.1,2.7,3.9,5c1.9,2.3,3.3,4.2,4.2,5.601c-1.4,5.199-2.5,9.6-3.2,13.1l-14.3,11.6
				c-0.6,0.601-1.2,1.301-1.6,2.4C25.304,140.3,25.104,141.3,25.104,142.3z M101.804,165.3c-1.6-3.7-2.4-8.301-2.4-14
				c0-9.601,2.3-19.2,7-28.801c4.7-9.6,10.4-16.399,17-20.3c1.5-0.899,2.9-1.6,4.4-2.1c1.6,3.7,2.4,8.3,2.4,14
				c0,9.6-2.3,19.2-7,28.8c-4.7,9.6-10.4,16.4-17,20.3C104.704,164.2,103.204,164.8,101.804,165.3z"/>
		</g>
	</g>
	<path fill="#EEEEEE" d="M102.004,162.9c0,0,14.9-8.3,21.5-26.5c6.6-18.2,3-35.7,3-35.7s10.9-6.4,17.4,5.7
		c6.5,12.1,1.4,42.7-4.6,47.9c-5.9,5.199-12.9,23.8-26.6,20.8C99.004,172.1,102.004,162.9,102.004,162.9z"/>
	<polygon fill="#EEEEEE" points="94.104,222.6 102.504,208 109.704,207.9 112.704,232.8 	"/>
	<polygon fill="#EEEEEE" points="36.704,101.6 74.304,117.5 83.104,130.3 79.904,143.4 64.104,157.3 25.804,139.3 41.604,125.3 
		44.804,112.2 	"/>
	<polygon fill="#EEEEEE" points="81.504,195.6 83.104,191.6 80.104,183 66.504,188.9 64.204,187.9 39.904,177.9 36.204,187.1 
		78.204,203.8 80.904,197.2 80.904,197.2 81.304,196.3 	"/>
	<path fill="#EEEEEE" d="M137.104,66h7.2l10.8-18.7c0,0,1.1-4.4,5.3-1.5l-39.7-18.8c0,0-5.6-0.1-7.3,8.2l18.8,9.4c0,0,3.9,1.5,3.4,8
		C135.204,59.3,137.104,66,137.104,66z"/>
	<path fill="#EEEEEE" d="M75.404,38.2l38.3,18.1l-3.1,25l-7,8.4l-38.3-18.1l7-8.4C72.304,63.3,68.704,43.2,75.404,38.2z"/>
	<g>
		<path fill="#BAB9B8" d="M95.104,26.3c0.1,0,0.2,0,0.3,0c0.6,0.1,17.4,8.8,17.8,8.8s0,0,0.3,0.3l3.5-6.1c0.6-1,1.3-1.7,2-2.1
			c0.2-0.1,0.5-0.2,0.8-0.2s0.6,0.1,1,0.2c1.3,0.4,39,18.4,39.7,18.8c1.1,0.6,2.5,1.6,4.1,3c3.8,3.1,6.3,5.6,7.7,7.5
			c0.4,0.5,0.7,1.2,0.7,2.3c0,0.8-0.2,1.9-0.7,3.1c-2.6,6-4.8,11.3-6.6,15.9c0.4,0.6,16.2,7.8,16.5,7.9c0.3,0.1,0.5,0.3,0.7,0.6
			c0.4,0.6,0.7,1.4,0.7,2.3v25.2c0,1-0.2,2-0.7,3c-0.4,1-1,1.8-1.6,2.199l-14.3,11.801c-0.8,3.899-1.8,8.3-3.3,13.1
			c1,1.4,2.5,3.3,4.4,5.7c1.9,2.399,3.2,4,3.8,4.899c0.4,0.601,0.7,1.4,0.7,2.2c0,2.4-4.5,12.4-13.5,29.8
			c-0.6,1.101-1.3,1.9-2,2.301c-0.5,0.3-0.9,0.399-1.2,0.399c-0.3,0-0.5-0.1-0.7-0.2l-11.1-5.5c-2.6,3.4-4.9,6.2-7,8.4l-2.2,22.1
			c-0.1,0.9-0.4,1.9-0.9,2.9c-0.6,1-1.2,1.7-1.9,2.1l-17.5,10.4c-0.4,0.3-0.8,0.4-1.2,0.4c-0.2,0-0.4-0.101-0.6-0.2
			c-0.5-0.3-17.4-8.601-17.7-9l-3.5,6.1c-0.6,1-1.3,1.7-2,2.101c-0.2,0.1-0.5,0.199-0.8,0.199c-0.1,0-0.2,0-0.4,0
			c-1.4-0.199-39.3-18.399-39.5-18.5c-1.3-0.6-3-1.699-5-3.5c-3.7-3.199-6.3-5.699-7.7-7.6c-0.4-0.4-0.7-1.1-0.7-2.2
			c0-0.899,0.2-1.899,0.7-3.1c2.6-6,4.8-11.3,6.6-15.9c-0.4-0.6-16.2-7.8-16.4-7.899c-0.3-0.101-0.5-0.301-0.8-0.601
			c-0.4-0.6-0.7-1.399-0.7-2.3v-25.2c0-1,0.2-2,0.7-3c0.4-1,1-1.8,1.6-2.399l14.3-11.601c0.7-3.5,1.8-7.8,3.2-13.1
			c-0.9-1.4-2.3-3.3-4.2-5.601c-1.9-2.3-3.2-4-3.9-5c-0.4-0.6-0.7-1.399-0.7-2.199c0-2.4,4.5-12.4,13.5-29.8c0.6-1.1,1.3-1.9,2-2.3
			c0.4-0.3,0.8-0.4,1.2-0.4c0.3,0,0.5,0.1,0.7,0.2l11.1,5.5c2.6-3.4,4.9-6.2,7-8.4l2.2-22.1c0.1-0.9,0.4-1.9,0.9-2.9
			c0.6-1,1.2-1.7,1.9-2.1l17.5-10.4C94.404,26.4,94.804,26.3,95.104,26.3 M101.804,165.3c1.4-0.5,2.9-1.2,4.4-2.101
			c6.6-3.899,12.3-10.7,17-20.3c4.7-9.6,7-19.2,7-28.8c0-5.601-0.8-10.3-2.4-14c-1.4,0.5-2.9,1.2-4.4,2.1
			c-6.6,3.9-12.3,10.7-17,20.3c-4.7,9.601-7,19.2-7,28.801C99.404,157,100.204,161.6,101.804,165.3 M95.104,22L95.104,22L95.104,22
			c-1.1,0-2.3,0.3-3.4,1l-17.5,10.4c-1.3,0.8-2.5,2.1-3.4,3.7c-0.9,1.5-1.3,3.1-1.5,4.7l-2,20.6c-1.3,1.4-2.7,3.1-4.2,4.9l-7.8-3.9
			c-0.8-0.5-1.8-0.7-2.8-0.7c-1.1,0-2.3,0.3-3.3,1c-1.3,0.8-2.5,2-3.5,3.8v0.1v0.1c-14,27.1-14,30-14,31.8c0,1.7,0.5,3.2,1.4,4.601
			l0.1,0.1l0.1,0.101c0.8,1.1,2.1,2.699,4,5.1c1.2,1.4,2.1,2.7,2.9,3.8c-1,3.8-1.8,7.101-2.4,9.9l-13.1,10.7l-0.1,0.1l-0.1,0.1
			c-1.1,1-2,2.301-2.7,3.9s-1,3.1-1,4.7v25.2c0,1.8,0.5,3.399,1.5,4.8c0.9,1.2,1.9,1.8,2.7,2.1c1.4,0.601,8.4,3.8,12.5,5.9
			c-1.5,3.7-3.2,7.8-5.1,12.2v0.1v0.1c-0.6,1.701-0.9,3.201-0.9,4.601c0,2.101,0.6,3.8,1.7,5.101c1.7,2.1,4.3,4.699,8.2,8
			c2.4,2,4.4,3.399,6,4.1c0.1,0.1,0.6,0.3,1.3,0.6c37.4,17.9,38.3,18.1,39.3,18.2c0.3,0,0.7,0.101,1,0.101c1.1,0,2.1-0.301,3-0.801
			c1.3-0.8,2.4-1.9,3.4-3.5v-0.1v-0.1l1.5-2.5c2.3,1.199,5.7,2.899,10.9,5.5c1.5,0.699,2.9,1.399,3.1,1.6
			c0.8,0.4,1.7,0.699,2.6,0.699c1.1,0,2.3-0.299,3.4-1l17.5-10.399c1.3-0.8,2.5-2.101,3.4-3.7c0.9-1.5,1.3-3.1,1.5-4.699l2-20.601
			c1.3-1.399,2.7-3.101,4.2-4.899l7.6,3.799c0.9,0.601,1.8,0.801,2.9,0.801c1.1,0,2.3-0.301,3.4-1c1.3-0.801,2.5-2,3.5-3.801v-0.1
			v-0.1c14-27.1,14-30,14-31.801c0-1.699-0.5-3.199-1.4-4.6l0,0l0,0c-0.7-1-2-2.699-4-5.199c-1.2-1.5-2.2-2.701-3-3.801
			c1-3.6,1.8-6.9,2.5-9.9l13-10.699c1.2-0.9,2.2-2.2,2.9-3.9c0.7-1.6,1-3.1,1-4.699V89c0-1.8-0.5-3.4-1.5-4.8c-0.7-1-1.6-1.6-2.6-2
			c-1.2-0.5-8.5-3.9-12.7-5.9c1.5-3.7,3.2-7.8,5.1-12.2l0.1-0.1v-0.1c0.6-1.7,0.9-3.2,0.9-4.5c0-2.1-0.5-3.7-1.6-5
			c-1.6-2.2-4.3-4.8-8.3-8.1c-1.8-1.5-3.4-2.6-4.8-3.4c-0.3-0.1-38.5-18.5-40.5-19.1c-0.8-0.3-1.6-0.4-2.4-0.4c-1.1,0-2.1,0.3-3,0.8
			c-1.3,0.8-2.4,1.9-3.4,3.5v0.1v0.1l-1.5,2.5c-1.5-0.7-3.3-1.7-4.9-2.5c-9.7-4.9-9.8-4.9-10.6-5.1C95.904,22,95.504,22,95.104,22
			L95.104,22z M104.404,159.3c-0.5-2.301-0.7-5-0.7-8c0-8.9,2.2-18,6.6-26.9c4.2-8.6,9.2-14.7,14.9-18.3c0.5,2.3,0.7,5,0.7,8
			c0,8.899-2.2,18-6.6,26.899C115.104,149.6,110.104,155.8,104.404,159.3L104.404,159.3z"/>
	</g>
	<path fill="none" stroke="#BAB9B8" stroke-width="2.562" stroke-miterlimit="10" d="M74.604,217.5c1.4,1.9,4,4.4,7.7,7.601
		s6.2,4.399,7.4,3.7c0.7-0.4,1.3-1.101,2-2.101l10.8-18.7c2.3,0.301,4.7,0.301,7.2-0.1c0.7,9.4,1.4,16,2.2,19.8
		c0.4,1.9,1.4,2.4,2.8,1.601l17.5-10.4c0.7-0.4,1.3-1.1,1.9-2.1c0.6-1,0.9-2,0.9-2.9l2.2-22.1c2.1-2.2,4.5-5,7-8.4l11.1,5.5
		c0.4,0.4,1.1,0.3,1.9-0.2c0.7-0.399,1.3-1.2,2-2.3c9-17.4,13.5-27.4,13.5-29.8c0-0.8-0.2-1.5-0.7-2.2c-0.6-0.9-1.9-2.5-3.9-4.9
		c-1.9-2.399-3.4-4.3-4.4-5.699c1.4-4.801,2.5-9.2,3.3-13.101l14.2-11.8c0.6-0.5,1.1-1.2,1.5-2.2s0.5-2,0.5-3V88.5
		c0-0.9-0.1-1.7-0.5-2.3c-0.4-0.6-0.8-0.8-1.4-0.5l-14.5,5.4c-0.7-2.8-1.7-5.6-3-8.6c2.1-5.6,4.9-12.5,8.4-20.7
		c0.4-1.3,0.7-2.3,0.7-3.1c0-1.1-0.2-1.9-0.7-2.3c-1.4-1.9-3.9-4.4-7.7-7.5c-3.8-3.1-6.2-4.3-7.4-3.6c-0.7,0.4-1.3,1.1-2,2.1
		l-10.8,18.7c-2.1-0.4-4.5-0.4-7.2,0c-0.7-9.4-1.4-15.9-2.2-19.7c-0.4-1.9-1.4-2.4-2.8-1.6l-17.5,10.4c-0.7,0.4-1.3,1.1-1.9,2.1
		s-0.9,2-0.9,2.9l-2.2,22.1c-2.1,2.2-4.5,5-7,8.4l-11.1-5.5c-0.5-0.3-1.1-0.3-1.9,0.2c-0.7,0.4-1.3,1.2-2,2.3
		c-9,17.4-13.5,27.4-13.5,29.8c0,0.801,0.2,1.5,0.7,2.2c0.8,1,2.1,2.7,3.9,5c1.9,2.3,3.3,4.2,4.2,5.601c-1.4,5.199-2.5,9.5-3.2,13
		l-14.2,11.6c-0.6,0.6-1.1,1.3-1.6,2.3c-0.4,1-0.6,2-0.6,2.9h0.2v25.5c0,0.899,0,1.7,0.5,2.3c0.4,0.6,0.8,0.8,1.3,0.5l14.5-5.4
		c0.7,2.801,1.7,5.601,3,8.601c-2.1,5.6-4.9,12.5-8.4,20.7c-0.4,1.199-0.7,2.199-0.7,3.1C74.004,216.4,74.204,217.2,74.604,217.5z
		 M99.404,151.4c0-9.6,2.3-19.2,7-28.8c4.7-9.601,10.4-16.4,17-20.3c6.6-3.9,12.3-3.9,17,0.1c4.7,4,7,10.8,7,20.4
		c0,9.6-2.3,19.199-7,28.8c-4.7,9.6-10.4,16.399-17,20.3s-12.3,3.9-17-0.1C101.804,167.8,99.404,161,99.404,151.4z"/>
</g>
<radialGradient id="XMLID_3_" cx="162.064" cy="-37.9375" r="0" gradientTransform="matrix(1 0 0 -0.5804 -47.6602 335.481)" gradientUnits="userSpaceOnUse">
	<stop  offset="0" style="stop-color:#FFFFFF;stop-opacity:0"/>
	<stop  offset="1" style="stop-color:#FFFFFF"/>
</radialGradient>
<path id="XMLID_1_" fill="url(#XMLID_3_)" d="M114.404,357.5"/>
<g>
	
		<path fill="#FFFFFF" stroke="#B9B9B8" stroke-width="5" stroke-linecap="round" stroke-linejoin="round" stroke-miterlimit="10" d="
		M183.304,136.2v-18.5c0-4.2-2.3-5.8-6.6-3.2l-66.2,40.301c-4.2,2.6-8.2,8.199-8.2,12.399v18.4v21.5v172.599l253-154.399v-194
		L183.304,136.2z"/>
	<polygon opacity="0.5" fill="#BAB9B8" enable-background="new    " points="342.804,216.9 115.804,353.5 115.804,196.5 
		342.804,63.9 	"/>
	<path id="XMLID_5982_" fill="#00C3DC" d="M122.604,162.9c3.5-2,6.4-0.8,6.4,2.8c0,3.5-2.9,8-6.4,10s-6.4,0.8-6.4-2.8
		C116.204,169.5,119.104,165,122.604,162.9z"/>
	<path id="XMLID_5983_" fill="#F8BD30" d="M140.104,152c3.5-2,6.4-0.8,6.4,2.801c0,3.5-2.9,8-6.4,10s-6.4,0.8-6.4-2.801
		C133.704,158.5,136.604,154,140.104,152z"/>
	<g>
		<path fill="#FFFFFF" d="M140.304,204.1v1.7c1.9-0.7,3.4-0.7,4.4,0.1v5.4c-1.2-1.301-2.7-1.7-4.4-1.301v9.5
			c1.8-0.199,3.1,0.2,4,1.2c0.9,1.101,1.4,2.601,1.4,4.7s-0.5,4.3-1.4,6.5c-0.4,1.1-1,2.1-1.6,3s-1.4,1.8-2.5,2.7v5.2l-2.4,1.5v-5.2
			c-1.6,0.8-3.5,0.8-5.6,0.101v-5.9c0.9,0.8,1.8,1.3,2.7,1.6c0.9,0.301,1.8,0.2,2.9-0.1V224.5c-1.6,0.101-2.8-0.1-3.4-0.399
			c-0.7-0.399-1.2-1-1.6-1.899c-0.4-0.9-0.6-1.9-0.6-3c0-2.201,0.5-4.4,1.5-6.601s2.4-4,4-5.399V205.5L140.304,204.1z
			 M137.804,219.8V211.5c-0.8,0.7-1.4,1.5-1.9,2.601c-0.5,1-0.7,2.1-0.7,3.1c0,0.9,0.2,1.601,0.5,1.9c0.3,0.399,0.9,0.6,1.8,0.7
			C137.604,219.8,137.704,219.8,137.804,219.8z M140.704,224.7l-0.5-0.1v8.7c1.7-1.601,2.5-3.5,2.5-5.7c0-0.9-0.1-1.601-0.4-2
			C142.004,225.2,141.504,224.9,140.704,224.7z"/>
		<path fill="#FFFFFF" d="M167.904,204.6v15.7l-2.7,1.6v-12c0-2.4-0.2-3.9-0.6-4.6c-0.4-0.7-1.1-0.7-2.1-0.101
			c-0.6,0.3-1.1,0.9-1.5,1.5c-0.5,0.7-1,1.7-1.6,3.101V225.5l-2.6,1.601V205.5l2.6-1.6v2.8c1.3-3,2.7-4.899,4-5.7
			c1.7-1,3-0.6,3.9,1.5c1.4-3.5,2.9-5.699,4.4-6.699c1.3-0.801,2.4-0.7,3.2,0.3c0.8,1,1.3,3.1,1.3,6.2V215l-2.6,1.601v-12.7
			c0-1.8-0.2-3-0.7-3.7s-1.1-0.7-2-0.2C169.904,200.7,168.904,202.2,167.904,204.6z"/>
		<path fill="#FFFFFF" d="M179.804,180.2l2.6-1.6v12.7c1.1-2,2.4-3.5,3.7-4.301c1.7-1,3.1-0.899,4.2,0.5c1.1,1.4,1.6,3.7,1.6,7
			c0,3.5-0.6,6.601-1.9,9.5c-1.3,2.801-3,4.9-5.2,6.2c-0.9,0.5-1.8,0.9-2.7,1.2c-1,0.3-1.7,0.4-2.3,0.3V180.2z M182.504,195.4v11.7
			c0.9-0.101,1.8-0.5,2.8-1.101c1.2-0.699,2.1-2,2.9-3.8c0.7-1.8,1.1-3.8,1.1-5.899c0-2.101-0.3-3.7-1-4.601
			c-0.7-0.899-1.6-1-2.7-0.3C184.504,192,183.504,193.3,182.504,195.4z"/>
		<path fill="#FFFFFF" d="M206.204,186.3l-9.4,5.8c0.1,2,0.5,3.399,1.3,4.1c0.8,0.7,1.8,0.7,3.1-0.1c1.7-1.101,3.4-2.9,4.8-5.601
			v4.2c-0.8,1.4-1.6,2.5-2.4,3.4c-0.8,0.899-1.7,1.6-2.8,2.3c-1.5,0.9-2.7,1.1-3.6,0.7c-0.9-0.4-1.6-1.3-2.2-2.601
			c-0.5-1.3-0.8-3.1-0.8-5.3c0-3.3,0.6-6.3,1.7-9.1c1.2-2.8,2.6-4.7,4.5-5.8c1.8-1.101,3.2-1,4.2,0.399c1.1,1.4,1.6,3.7,1.6,7.101
			V186.3z M196.904,189.5l6.7-4.1c-0.1-1.7-0.4-2.8-0.9-3.4c-0.6-0.6-1.3-0.6-2.3,0c-1,0.601-1.7,1.5-2.3,2.801
			C197.504,186.1,197.004,187.7,196.904,189.5z"/>
		<path fill="#FFFFFF" d="M218.004,156.7l2.7-1.6v32.7l-5.7,3.5c-2,1.199-3.6,1.199-4.7-0.101c-1.2-1.3-1.8-3.6-1.8-7
			c0-3.2,0.6-6.2,1.9-9c1.2-2.8,2.8-4.8,4.7-6c0.9-0.5,1.9-0.8,2.9-0.899V156.7z M218.004,185.8v-13.7c-0.8-0.2-1.7,0-2.5,0.5
			c-1.3,0.8-2.4,2.2-3.1,4c-0.7,1.8-1.2,4-1.2,6.3c0,2.2,0.3,3.7,1,4.5c0.4,0.5,0.8,0.7,1.3,0.7s1.3-0.4,2.5-1.101L218.004,185.8z"
			/>
		<path fill="#FFFFFF" d="M250.404,162v5.2c-2.1,3.2-4.6,5.601-7.4,7.4c-2.3,1.399-4.2,1.8-5.8,1.3s-2.8-1.8-3.7-3.8
			c-0.9-2-1.4-4.5-1.4-7.5c0-4.8,1.1-9.4,3.2-14c2.1-4.601,4.7-7.8,7.8-9.7c2.1-1.3,4.5-1.9,7.1-1.7v5c-2.4-0.7-4.7-0.399-7,1
			c-2.3,1.4-4.3,3.8-5.8,7.101c-1.5,3.3-2.3,6.699-2.3,10.3c0,3.6,0.8,6.1,2.3,7.5c1.5,1.399,3.4,1.399,5.8-0.101
			S248.004,165.8,250.404,162z"/>
		<path fill="#FFFFFF" d="M253.904,134.6l2.899-1.8v28.5l9.101-5.601v4.3l-12,7.4V134.6z"/>
		<path fill="#FFFFFF" d="M268.604,125.6l2.9-1.8V156.5l-2.9,1.801V125.6z"/>
	</g>
</g>
<g id="Keyboard">
	<g>
		<path fill="#FFFFFF" d="M258.604,430.801c-4,0-7.9-1-10.9-2.701l-64.7-40.1c-4-2.301-6-6-5.3-9.6l-0.4-7.301
			c-1.2-3.699,0.6-7.5,4.7-9.9c6.7-4.1,166-100.398,173.1-104.1c2.5-1.299,5.301-1.9,8.4-1.9c5.4,0,10,1.9,10.1,2
			c0.1,0,0.2,0.102,0.301,0.201l66.6,38c3.8,2.199,5.8,5.4,5.5,8.699c0,0.1,0,0.201,0,0.201l0.5,9c0.6,3.5-1.2,6.799-4.9,9
			l-172.8,106C266.104,429.9,262.404,430.801,258.604,430.801L258.604,430.801z"/>
		<path fill="#B2B5B5" d="M363.404,258.301c4.799,0,8.899,1.799,8.899,1.799l66.601,38c3.1,1.801,4.399,4.201,3.799,6.5h0.101
			l0.5,9.201c0.5,2.1-0.601,4.398-3.399,6L267.203,425.699c-2.299,1.4-5.5,2.102-8.6,2.102c-3.4,0-6.8-0.801-9.4-2.301l-64.6-40
			c-3.2-1.801-4.5-4.4-3.8-6.699l-0.4-8.201c-0.9-2.4,0.1-4.9,3.2-6.6c0,0,165.9-100.301,172.9-104
			C358.703,258.699,361.104,258.301,363.404,258.301 M363.404,252.1L363.404,252.1c-3.601,0-6.9,0.801-9.801,2.301
			c-7.1,3.699-166,99.799-173.3,104.199c-5.2,3.1-7.5,8.1-6.1,13.1l0.4,6.602c-0.8,4.799,1.7,9.5,6.8,12.5l64.6,40
			c0.1,0,0.1,0.1,0.2,0.1c3.5,2,7.9,3.1,12.5,3.1c4.4,0,8.601-1,11.801-2.9c0,0,0.1,0,0.1-0.1l172.7-106
			c4.7-2.801,7.101-7.301,6.3-12l-0.5-8.801v-0.1c0.2-4.4-2.3-8.6-7-11.299l-66.6-38.102c-0.2-0.1-0.4-0.199-0.6-0.299
			C374.203,254.199,369.304,252.1,363.404,252.1L363.404,252.1z"/>
	</g>
	<g>
		<polygon fill="#B9B9B8" points="421.104,306.301 397.203,320.801 386.703,314.801 410.703,300.301 		"/>
		<polygon fill="#B9B9B8" points="342.004,315.699 331.804,321.9 321.304,315.9 331.604,309.801 		"/>
		<polygon fill="#B9B9B8" points="335.904,307.1 346.104,300.9 356.604,306.9 346.304,313 		"/>
		<polygon fill="#B9B9B8" points="270.504,327.5 280.703,321.301 291.203,327.199 281.004,333.4 		"/>
		<polygon fill="#B9B9B8" points="276.404,336.1 266.203,342.301 255.804,336.4 266.004,330.199 		"/>
		<polygon fill="#B9B9B8" points="305.904,318.301 295.703,324.5 285.304,318.6 295.504,312.4 		"/>
		<polygon fill="#B9B9B8" points="300.004,309.699 310.203,303.5 320.703,309.4 310.404,315.6 		"/>
		<polygon fill="#B9B9B8" points="287.804,336.199 298.203,342.1 288.004,348.301 277.604,342.4 		"/>
		<polygon fill="#B9B9B8" points="292.203,333.6 302.404,327.4 312.804,333.301 302.604,339.5 		"/>
		<polygon fill="#B9B9B8" points="306.804,324.699 317.004,318.6 327.404,324.5 317.203,330.699 		"/>
		<polygon fill="#B9B9B8" points="325.203,306.699 314.804,300.699 325.004,294.6 335.404,300.5 		"/>
		<polygon fill="#B9B9B8" points="251.203,339.1 261.703,345.1 251.404,351.199 241.004,345.301 		"/>
		<polygon fill="#B9B9B8" points="258.703,353.801 269.104,359.699 258.904,365.9 248.404,360 		"/>
		<polygon fill="#B9B9B8" points="263.004,351.199 273.203,345 283.703,350.9 273.404,357.1 		"/>
		<polygon fill="#B9B9B8" points="283.304,358.1 293.703,364 283.504,370.199 273.004,364.301 		"/>
		<polygon fill="#B9B9B8" points="287.504,355.6 297.703,349.4 308.104,355.301 297.904,361.5 		"/>
		<polygon fill="#B9B9B8" points="302.004,346.801 312.304,340.6 322.703,346.5 312.504,352.699 		"/>
		<polygon fill="#B9B9B8" points="316.504,338 326.703,331.9 337.104,337.801 326.904,344 		"/>
		<polygon fill="#B9B9B8" points="331.504,328.9 341.703,322.801 352.203,328.699 341.904,334.9 		"/>
		<polygon fill="#B9B9B8" points="345.904,320.199 356.203,314 366.604,320 356.404,326.1 		"/>
		<polygon fill="#B9B9B8" points="360.504,311.4 370.703,305.199 381.203,311.199 371.004,317.301 		"/>
		<polygon fill="#B9B9B8" points="360.904,304.199 350.504,298.301 360.703,292.1 371.104,298.1 		"/>
		<polygon fill="#B9B9B8" points="339.904,297.699 329.504,291.801 339.804,285.6 350.203,291.6 		"/>
		<polygon fill="#B9B9B8" points="235.804,348.4 246.304,354.4 217.104,372 206.704,366.1 		"/>
		<polygon fill="#B9B9B8" points="244.004,362.699 254.404,368.6 233.404,381.301 223.004,375.4 		"/>
		<polygon fill="#B9B9B8" points="268.504,367 278.904,372.9 249.804,390.6 239.304,384.699 		"/>
		<polygon fill="#B9B9B8" points="280.504,379 290.904,385 266.203,399.9 255.804,394 		"/>
		<polygon fill="#B9B9B8" points="284.804,376.4 302.404,365.801 312.804,371.801 295.304,382.301 		"/>
		<polygon fill="#B9B9B8" points="306.904,363.1 361.104,330.301 371.604,336.199 317.404,369 		"/>
		<polygon fill="#B9B9B8" points="375.604,333.801 365.203,327.801 382.703,317.301 393.104,323.199 		"/>
		<polygon fill="#B9B9B8" points="404.703,296.9 385.604,308.5 375.203,302.6 381.904,298.5 366.404,289.699 378.804,282.199 		"/>
		<polygon fill="#B9B9B8" points="361.604,272.4 372.004,278.301 354.703,288.801 344.304,282.9 		"/>
	</g>
	<path fill="none" stroke="#B2B5B5" stroke-width="2.0565" stroke-miterlimit="10" d="M183.504,363.801c-4.8,2.799-4.6,7.5,0.5,10.5
		l64.6,40c5.1,2.898,13.2,3,18,0.199l172.801-106c4.799-2.801,4.6-7.5-0.5-10.5l-66.601-38c0,0-8.899-3.801-15.899-0.199
		C349.404,263.4,183.504,363.801,183.504,363.801z"/>
</g>
<path id="XMLID_31476_" fill="#00C3DC" d="M225.304,246c0,0.101-0.1,0.101-0.1,0.2c-0.1,0.3-0.1,0.5-0.2,0.8l2.3,21.901
	c0.2,2.1,1.7,3.699,3.8,3.5c2.1-0.201,3.5-2,3.4-4.1l-1.1-13.701l91.299,55.301c1.801,1.1,4.201,0.5,5.301-1.301
	c1.1-1.799,0.5-4.199-1.301-5.299L243.404,251.6l18.299,0.301c2.101,0,3.9-1.701,3.9-3.8c0-2.101-1.699-4-3.8-4l-32.7-0.601
	c0,0,0,0-0.1,0l0,0l0,0c-0.3,0-0.6,0.101-0.9,0.2c-0.1,0-0.2,0.101-0.3,0.101c-0.2,0.1-0.4,0.199-0.6,0.3c-0.1,0-0.2,0.1-0.3,0.2
	c-0.2,0.1-0.3,0.199-0.5,0.399c-0.1,0.101-0.1,0.101-0.2,0.2c0,0-0.1,0-0.1,0.1c-0.2,0.2-0.4,0.4-0.5,0.7l0,0
	C225.504,245.6,225.404,245.8,225.304,246z"/>
<path fill="#B9B9B8" d="M291.804,168.4l33.899-21.2c4.301-2.6,5.601-0.1,5.601,5.5v26.7c0,5.7-1.899,12.9-6.2,15.5l-0.5,0.9V210.5
	l-10.8-8L291.404,216c-4.301,2.601-7.101-1.199-7.101-6.8v-26.7C284.304,176.9,287.504,170.9,291.804,168.4z"/>
<path fill="#F8BD30" d="M325.203,244.9L325.203,244.9c0-18,4.5-36.2,13.601-54.7s19.8-31.5,32.2-38.8c12.4-7.4,23.1-7.2,32.199,0.5
	c9.101,7.7,13.601,20.6,13.601,38.5c0,18.3-4.5,36.6-13.399,54.9c-8.9,18.299-19.701,31.2-32.301,38.7s-23.4,7.5-32.3-0.199
	C329.703,276.199,325.203,263.199,325.203,244.9z"/>
<path fill="#FFFFFF" d="M355.804,202.9l33.899-21.2c4.301-2.6,5.601-0.1,5.601,5.5v26.7c0,5.7-1.899,12.9-6.2,15.5l-0.5,0.9V245
	l-10.8-8l-22.399,13.5c-4.301,2.6-7.101-1.199-7.101-6.8V217C348.404,211.5,351.504,205.5,355.804,202.9z"/>
<g id="Female_4_">
	<g id="XMLID_77_">
		<g>
			<path fill="#FFFFFF" d="M373.604,427.199c-2.6,0-4.9-0.299-6.199-0.5l-1-0.199c-3.701-0.699-9.201-1.699-11.801-5.199
				c-1.1-1.5-0.8-2.801-0.5-3.4c1.6-3.6,10-4.201,11-4.301l2.5-0.199c0.9-10.301,2.5-28.4,2.301-31c0-0.1-0.801-11.9,0.299-17.201
				c0.301-1.799,2.201-14.799,3.201-23.398c-0.201-0.5-0.4-0.9-0.4-1.4c-0.2-1.4,0.5-2.201,1-2.701c1.1-9.799,2.199-15.199,2.9-18.1
				l-0.101-6.1c0-1,0.101-1.9,0.101-2.6l-1-0.5c-2.201-1.102-4.701-2.4-5.9-3.102l-0.801-0.398V306.6c-2.699-1.9-5-4.4-6.699-6.199
				c-0.9-0.9-1.6-1.701-2.2-2.201c-2.8-2.4-6.8-8.9-8.899-12.6c-0.201-0.301-4.4-7.801-5.301-10.699c-1.1-0.801-3.4-2.5-4.9-5.5
				c-1.6-3.301,0-5.4,1.101-6.9c0.399-0.6,0.8-1.1,1-1.6c0.2-0.701-0.399-2.1-0.8-3.1c-0.7-1.701-1.7-4.102,0.4-5.201l0.299-0.199
				h0.101c0.2-0.1,0.399-0.1,0.601-0.1c1.799,0,2.899,2,4.5,5c0.199,0.299,0.399,0.699,0.5,1c0.1,0,0.299,0,0.399,0
				c2,0,3,2.199,3.7,4.199c0.9,2.5,2.199,7.199,2.5,7.9c3.4,5.1,10.3,14.6,12.6,17.5c0.801,1,4.2,2.898,7.7,4.299
				c0.3-0.199,0.5-0.299,0.601-0.299l0.699-0.301l0.7,0.301c1.8,0.898,4.3,1.898,6.3,2.699c0.7,0.301,1.301,0.5,1.801,0.801
				l1.399-1.201l1.101,0.801c0.1-0.1,0.199-0.201,0.399-0.201c0,0,0.101,0,0.101-0.1c-1.301-0.6-2.301-1.199-2.5-1.299
				c-4.5-2.5-5.301-6.701-5.301-6.9l-0.3-1.6l1.399-0.301c0.101,0,3.9-0.9,4.4-5.4c0.2-1.299,0.1-2.699,0-4.199
				c-0.1-3.1-0.3-6.699,1.6-9.801c2.601-4.299,7.5-6.898,12.9-6.898c3.9,0,7.7,1.398,10.4,3.898c6.4,6,4.8,13.4,3.6,18.801
				c-0.5,2.301-1,4.5-0.699,5.801c0.6,2.398,0.299,4.5-0.701,6.1c-0.899,1.299-2.299,2.299-4.1,2.9c4.6,6.898,5.7,14.5,5.7,14.799
				c0.101,0.9-0.399,1.5-1,2.301c0.101,0.299,0.2,0.6,0.3,1c0.301,0.9,0.6,1.9,0.9,3.299c0.199,0.801,0.5,1.602,0.8,2.301
				c0.7,2,1.899,5.1-0.899,6.699c-0.201,0.102-0.801,0.9-1.201,1.4c-1.399,1.801-3.399,4.5-6.899,5.5c0.2,2.1,0.5,4.1,0.8,6.201
				l0.1,0.799c0,0.1,0,0.1,0.101,0.201c0.101,0.299,2.101,6.5,0.101,15.699c-1.201,5.199-1,10.5-0.9,11.301
				c0.1,0.699,0.9,6.898,2.3,14.898c0.8,4.701,0.399,11.9,0,18.301c-0.3,4.301-0.601,10.1-0.101,11.199c0.201,0.5,0.201,1,0.101,1.5
				c0.7,1.602,1.7,4.4,1.399,7.201c-0.299,2.6-2.399,4.299-5.299,4.299l0,0c-2.201,0-4.701-0.898-7.101-2.6
				c-3.399-2.299-4.8-2.9-6.3-3.4c-0.6-0.199-1.2-0.398-1.9-0.699c-2-0.9-4.3-4.4-4.3-7.301c0-1.699,0.8-3,2.3-3.699
				c0.9-0.4,2-0.6,3.4-0.6c0.8,0,1.6,0.1,2.5,0.199c-1.5-14.699-2.801-25.6-3.301-26.799c-0.5-1.102-1.399-4-1.799-7.4l-1.4,2.299
				c-0.5,1.4-1.301,4.201-1.1,6.102v0.398c0.299,3.301,1.1,13.301-1.801,27.102c0,0.1-1.4,5.398-1.9,7.1c0,0.1,0,0.1-0.1,0.199
				c0.7,2.201,1.301,5.6-0.1,8.301C381.703,426.199,378.604,427.199,373.604,427.199z"/>
			<g>
				<path fill="#BAB9B8" d="M344.004,253.801c1.5,0,3.699,5.6,4.3,6c0.101,0.1,0.2,0.1,0.2,0.1c0.3,0,0.6-0.201,1-0.201
					c0.6,0,1.4,0.5,2.3,3.102c1,2.699,2.5,8,2.5,8l-1.5-2.301c1.899,3.199,11.399,16.6,14.3,20.199c1.2,1.5,5.7,3.801,9.1,5.102
					c0.601-0.4,1.101-0.602,1.101-0.602c2.8,1.4,7.101,3,9.101,3.9l1.199-1.1c0.301,0.301,0.7,0.5,1,0.801
					c0.4-0.301,0.7-0.602,1.1-0.801c1-0.6,1.9-1.1,2.601-1.699c-2.7-0.701-5.101-2.201-5.101-2.201c-4-2.1-4.6-5.799-4.6-5.799
					s5-1,5.6-6.701c0.5-4.199-1.1-9.299,1.4-13.4c2.6-4.199,7.1-6.199,11.6-6.199c3.5,0,6.9,1.199,9.4,3.5
					c8.6,8,1.2,18.6,2.4,23.801c1.199,5-1.7,7.1-5.9,7.799c5.6,7.1,6.801,15.9,6.801,15.9c0,0.4-0.801,1.301-1.201,1.801
					c0.4,1.398,0.9,2.699,1.4,4.898c0.2,0.9,0.5,1.701,0.801,2.5c0.699,2,1.399,3.9-0.301,4.9c-0.5,0.301-1,1-1.699,1.9
					c-1.5,2-3.5,4.6-7.301,5.299c0.301,2.602,0.7,5.201,1,7.602c0.1,0.398,0.1,0.699,0.2,1.1l0.101,0.1c0.1,0.201,2,6.1,0,14.9
					c-1.301,5.699-1,11.4-1,11.799c0,0.4,0.899,6.701,2.299,15c0.801,4.602,0.4,11.602,0,17.9c-0.299,5.4-0.699,10.5,0,12
					c0.101,0.201,0.101,0.4-0.1,0.5c0,0-0.1,0.1-0.199,0.301c0.5,0.9,2,4,1.6,7.1c-0.2,1.9-1.7,3-3.801,3
					c-1.799,0-4-0.699-6.299-2.301c-4.9-3.398-6.201-3.199-8.301-4.199c-2.199-1-5.199-6.801-2-8.301c0.801-0.299,1.7-0.5,2.801-0.5
					c1.399,0,2.899,0.201,4.199,0.5c-1-9.699-2.9-27.6-3.6-29.199c-0.801-1.801-2.301-7-1.9-12l-4,6.9c0,0-1.5,4.1-1.199,6.9v0.4
					c0.299,3.199,1.1,13.1-1.801,26.699c0,0-1.4,5.301-1.9,7c0,0.199-0.1,0.301-0.199,0.5c0.5,1.4,1.6,5.199,0.199,7.699
					c-1,1.801-4.6,2.4-8.1,2.4c-2.4,0-4.6-0.299-5.9-0.5c-3.1-0.6-9.399-1.5-11.899-4.799c-2.5-3.301,5.101-5,9.399-5.301
					c2.201-0.1,3.301-0.199,3.801-0.301c0,0,0,0,0-0.1c0-0.299,2.6-28.9,2.4-32.4c-0.201-3.299-0.601-12.699,0.299-16.799
					c0-0.201,2.201-14.701,3.301-24c-0.301-0.4-0.4-0.801-0.5-1.301c-0.1-1.1,0.6-1.5,1-1.699c0-0.301,1.199-11.801,3-18.701
					l-0.1-6.299c0-1.301,0.1-2.5,0.199-3.4c-2.3-1.199-6.3-3.199-7.8-4.1c0,0,0-0.1,0-0.201c-4.3-2.799-7.5-7.199-9.399-8.699
					c-4.601-3.9-14.301-22.4-13.701-23.1c0,0-3.1-1.6-5-5.301c-1.799-3.699,1.601-5.199,2.201-7.4c0.6-2.398-2.801-6.5-1.201-7.299
					C343.804,253.9,343.904,253.801,344.004,253.801 M344.004,250.8c-0.301,0-0.6,0-0.801,0.1h-0.299l-0.701,0.401
					c-3.199,1.699-1.799,5.299-1.1,7.1c0.301,0.6,0.7,1.699,0.7,2.199c-0.101,0.201-0.399,0.701-0.7,1c-1.1,1.5-3.3,4.4-1.199,8.5
					c1.5,3,3.699,4.9,5,5.801c1.899,5.4,10.1,19.9,14.399,23.5c0.5,0.4,1.2,1.199,2,2.1c1.601,1.699,3.7,4,6.3,5.9v0.4l1.5,0.898
					c1.2,0.701,3.7,2,5.9,3.102c0.1,0,0.1,0.1,0.199,0.1c0,0.5-0.1,1.1-0.1,1.699l0,0l0,0l0.1,5.9
					c-0.699,2.9-1.699,8.199-2.799,17.6c-0.9,1-1.201,2.201-1.101,3.5c0.101,0.5,0.2,1,0.399,1.5c-1,8.6-2.899,21.201-3.1,22.9
					c-1.1,5.4-0.3,17.4-0.3,17.5c0.2,2.301-1.3,19.5-2.2,29.5l-1.199,0.1c-2.4,0.201-10.4,1-12.301,5.201
					c-0.699,1.6-0.5,3.398,0.7,5c3,3.898,9.101,5.1,12.7,5.799c0.3,0.1,0.699,0.1,1,0.201c1.4,0.299,3.8,0.6,6.5,0.6
					c5.699,0,9.199-1.301,10.699-3.9c1.601-2.9,1.101-6.6,0.4-9c0.2-0.5,0.4-1.301,0.6-2.1c0.801,2.5,2.701,4.9,4.601,5.799
					c0.8,0.4,1.399,0.602,2,0.801c1.3,0.5,2.7,1,5.899,3.199c2.701,1.801,5.5,2.801,8,2.801c3.701,0,6.4-2.199,6.801-5.6
					c0.4-2.9-0.5-5.701-1.301-7.5c0.101-0.6,0-1.301-0.299-1.9c-0.4-1.301,0-6.9,0.199-10.6c0.4-6.4,0.9-13.701,0-18.6
					c-1.4-7.801-2.199-13.801-2.3-14.701c0-0.799-0.2-5.9,0.899-10.9c2.101-9.5,0.101-15.898-0.1-16.5v-0.1l-0.1-0.6
					c-0.2-1.699-0.5-3.4-0.7-5c3.2-1.4,5.2-4,6.399-5.6c0.301-0.4,0.701-0.9,0.9-1.1c3.7-2.301,2.2-6.5,1.4-8.5
					c-0.301-0.801-0.5-1.5-0.7-2.201c-0.3-1.4-0.7-2.4-1-3.4c0-0.1-0.101-0.199-0.101-0.199c0.5-0.699,1-1.6,0.801-2.699
					c0-0.4-1-7.201-5-14c1.4-0.701,2.4-1.602,3.199-2.801c1.301-2,1.601-4.4,0.9-7.301c-0.199-1,0.2-3.1,0.7-5.1
					c1.2-5.4,3.101-13.6-4-20.199c-2.899-2.701-7.101-4.301-11.399-4.301c-5.9,0-11.201,2.9-14.101,7.701
					c-2.101,3.5-1.899,7.299-1.8,10.6c0.1,1.4,0.1,2.799,0,4c-0.4,3.5-3.2,4.1-3.2,4.1l-2.899,0.6l0.5,2.9
					c0.1,0.4,0.6,3.199,3.1,5.699c-1.5-0.6-3-1.299-4.1-1.799l-1.301-0.701l-1.3,0.701c-3.3-1.4-5.899-3-6.5-3.6l0,0l0,0
					c-2.2-2.701-8.899-12.102-12.399-17.102c-0.4-1.199-1.601-5.398-2.4-7.799c-0.5-1.4-1.6-4.801-4.7-5.1
					c0-0.102-0.101-0.102-0.101-0.201C348.304,253.801,346.804,250.8,344.004,250.8L344.004,250.8z M387.004,406.301
					c2.4-12.801,1.6-21.9,1.4-25.102v-0.398c-0.101-0.9,0.1-2.201,0.399-3.4c0.3,1.299,0.7,2.299,1,3c0.399,1.6,1.601,11.4,3,24.699
					c-0.3,0-0.601,0-0.8,0c-1.6,0-2.9,0.201-4,0.701C387.604,405.9,387.304,406.1,387.004,406.301L387.004,406.301z"/>
			</g>
		</g>
		<path id="XMLID_234_" fill="none" stroke="#BAB9B8" stroke-width="1.0708" stroke-miterlimit="10" d="M413.804,310.801
			c-1,1.299-2.101,2.299-5,3.299"/>
		<path id="XMLID_223_" fill="#B9B9B8" d="M387.104,292c0,0,0.6,2,6.5,2.301c8.6,0.5,21.801,4,19.9-7.602
			c-0.9-5.398,6.3-16.299-2.5-24.6c-5.801-5.4-16.9-4.9-21.6,2.801c-2.601,4.199-0.9,9.5-1.4,13.799c-0.7,5.9-5.7,5.201-5.801,6.9
			C382.004,287.1,383.004,289.801,387.104,292z"/>
		<path id="XMLID_222_" fill="none" stroke="#B9B9B8" stroke-width="1.0708" stroke-miterlimit="10" d="M395.904,358.4
			c0,0-1.5,2.5-4.301,2.799c-0.199,2.102-3.1,12.602-4.9,15"/>
		<path id="XMLID_218_" fill="none" stroke="#B9B9B8" stroke-width="1.0708" stroke-miterlimit="10" d="M409.203,303.801
			c0.9,15-4.699,23.299-4.199,29.299c0.5,5.201,1.9,8.301,2.3,12.301c0,0-7.5,7.4-22.101,2c-14.6-5.4-9.6-8.6-9.6-8.6"/>
		<path fill="none" stroke="#B9B9B8" stroke-width="1.0708" stroke-miterlimit="10" d="M375.703,292.801c0,0-6.1,1-6.6,13.6"/>
		<path fill="none" stroke="#B9B9B8" stroke-width="1.0708" stroke-miterlimit="10" d="M367.604,414.1c0,0,4.6,8.4,15.801,1.701"/>
		<path fill="none" stroke="#B9B9B8" stroke-width="1.0708" stroke-miterlimit="10" d="M394.604,406.9c0,0-1.9,5.199,4.2,7.799
			c6.101,2.602,11.3-2.6,11.3-2.6"/>
	</g>
	<path fill="none" stroke="#BAB9B8" stroke-width="1.0708" stroke-miterlimit="10" d="M408.203,413c0,0-4.5,4.5-8.799,1.9
		c-4.301-2.6-5.101-1.4-4.601-8.1"/>
	<path fill="none" stroke="#BAB9B8" stroke-width="1.0708" stroke-miterlimit="10" d="M383.604,415.801c0,0,1.301,4.699-5.4,3.799
		c-6.699-0.9-11-0.6-10.699-5.5"/>
</g>
</svg>
