<?xml version="1.0" encoding="utf-8"?>
<!-- Generator: Adobe Illustrator 16.0.3, SVG Export Plug-In . SVG Version: 6.00 Build 0)  -->
<!DOCTYPE svg PUBLIC "-//W3C//DTD SVG 1.1//EN" "http://www.w3.org/Graphics/SVG/1.1/DTD/svg11.dtd">
<svg version="1.1" id="Layer_1" xmlns="http://www.w3.org/2000/svg" xmlns:xlink="http://www.w3.org/1999/xlink" x="0px" y="0px"
	 width="500px" height="500px" viewBox="0 0 500 500" enable-background="new 0 0 500 500" xml:space="preserve">
<g id="XMLID_2975_">
	<g id="XMLID_3491_">
		<g id="XMLID_3500_">
			<path fill="#FFFFFF" d="M95.417,335v4l0,0c-5.8,0-11.1-1.4-15.7-4.199l-46-24.9c-0.1,0-0.1-0.1-0.2-0.1
				c-11.5-6-17.6-19-17.2-36.6c0.7-32.901,25.1-73.702,54.2-90.901c1.2-0.7,2.5-1.4,3.8-2.1c-0.3-2.9-0.4-6-0.4-9.201
				c0.8-36.399,27.7-81.399,59.9-100.3c9.8-5.8,19.6-8.8,28.4-8.8c5.1,0,9.9,1,14.2,3c0.2,0.1,0.4,0.2,0.7,0.3l0,0
				c0.9,0.4,1.8,0.9,2.6,1.5l9.6,5.4c6.1-6.5,12.5-11.8,19.2-15.7c8.2-4.8,16.2-7.3,23.6-7.3c4.4,0,8.5,0.9,12.3,2.7l0.2,0.1
				c0.6,0.3,1.2,0.6,1.7,0.9l46.8,25.3h0.1l0.2,0.1c0.2,0.1,0.399,0.2,0.601,0.3c4.699,2.8,8.399,6.9,10.899,12.4l23.5,12.5
				c11.5,6,17.5,19,17.101,36.6c-0.701,32.9-25.101,73.7-54.201,90.9l-170,100.1c-8.9,5.199-17.9,8-25.9,8V335L95.417,335z"/>
			<path fill="#B9B9B8" d="M232.117,53c3.8,0,7.3,0.8,10.5,2.3h0.1c0.5,0.3,1.1,0.6,1.5,0.8l47,25.4l0,0l0.2,0.1
				c0.101,0.1,0.3,0.1,0.399,0.2c4.4,2.6,7.701,6.6,9.9,11.8l24.301,12.9l0,0c10.299,5.2,15.799,17,15.399,33.201
				c-0.7,31.699-24.2,70.899-52.3,87.5L119.317,327.5c-8.4,4.9-16.6,7.4-23.9,7.4l0,0c-5.1,0-9.8-1.201-13.8-3.701h-0.1
				l-45.8-24.799c0,0-0.1,0-0.1-0.1c-10.2-5.301-15.6-17-15.2-33.1c0.7-31.702,24.2-71,52.3-87.5c2-1.201,4-2.201,6.1-3.201
				c-0.6-3.6-0.8-7.399-0.7-11.399c0.8-35.101,26.8-78.6,57.9-97c9.3-5.5,18.3-8.3,26.4-8.3c4.5,0,8.8,0.9,12.6,2.7
				c0.1,0,0.2,0.1,0.3,0.1h0.1c0.9,0.4,1.7,0.9,2.5,1.4l12.5,7c6.4-7.3,13.3-13.1,20.4-17.3C218.117,55.3,225.517,53,232.117,53
				 M232.117,45L232.117,45c-8.1,0-16.8,2.6-25.6,7.9c-6.2,3.7-12.2,8.4-17.9,14.2l-6.8-3.8c-0.9-0.5-1.8-1.1-2.8-1.6
				c-0.3-0.2-0.6-0.3-0.9-0.5c-4.8-2.2-10.1-3.3-15.8-3.3c-9.6,0-19.9,3.2-30.4,9.4c-16.2,9.5-31.5,25.5-43.1,45
				c-11.6,19.5-18.3,40.401-18.7,58.7c-0.1,2.4,0,4.701,0.2,7c-0.5,0.301-1.1,0.601-1.6,0.9c-14.7,8.7-28.7,23.2-39.2,40.9
				c-10.6,17.699-16.6,36.7-17,53.401c-0.2,9.199,1.3,17.299,4.4,24.1c3.3,7.1,8.4,12.699,14.9,16.1c0.1,0.1,0.2,0.1,0.3,0.199
				l45.6,24.6h0.1c5.2,3.102,11.1,4.701,17.6,4.701c8.8,0,18.5-3,28-8.6l169.899-100.1c14.701-8.701,28.701-23.201,39.201-40.9
				c10.6-17.7,16.6-36.7,17-53.4c0.399-18.8-6.101-32.8-18.4-39.8l0,0l-0.301-0.2c-0.199-0.1-0.399-0.2-0.6-0.3l-0.3-0.2
				l-21.899-11.7c-2.9-5.6-6.9-9.9-12-12.9c-0.301-0.2-0.5-0.3-0.801-0.4h-0.1l-0.2-0.1h-0.101l-46.6-25.1c-0.6-0.3-1.2-0.7-1.8-1
				l-0.1-0.1l-0.2-0.1C241.817,46.1,237.117,45,232.117,45L232.117,45L232.117,45z"/>
		</g>
		<path id="XMLID_3496_" fill="none" stroke="#B9B9B8" stroke-width="2" stroke-miterlimit="10" d="M116.217,216.5
			c2.5-1.5,4.9-2.699,7.3-3.699c-0.7-3.9-1.1-8.2-0.9-12.801c0.8-36,27.4-80.5,59.3-99.299c23.8-14,43.9-9.8,52.2,8.1
			c7.4-9.5,16.1-17.6,25.3-23c12.899-7.6,24.399-8.6,32.7-4.1c0.199,0.1,0.4,0.2,0.5,0.3c0,0,0,0,0.1,0
			c4.301,2.5,7.7,6.6,9.801,12.1c1.5,3.7,2.299,8,2.6,13c8.9-2.8,16.8-2.4,23.1,0.7c9.7,4.8,15.6,16.3,15.2,33
			c-0.7,32.5-24.7,72.5-53.5,89.5L113.617,334c-15,8.9-28.4,9.6-37.7,3.801c-8.5-5.4-13.5-16.301-13.1-31.801
			C63.517,273.5,87.417,233.4,116.217,216.5z"/>
		
			<path id="XMLID_3495_" fill="#035F8A" stroke="#CCCCCC" stroke-width="0.4244" stroke-linecap="round" stroke-linejoin="round" stroke-miterlimit="10" d="
			M289.518,81.8C289.518,81.8,289.417,81.7,289.518,81.8L289.518,81.8L289.518,81.8z"/>
		<g id="XMLID_3494_" opacity="0.2">
			<path id="XMLID_3544_" fill="#B9B9B8" d="M20.317,273.301c0.1-4.4,0.6-8.9,1.5-13.4l45.3,21.6c-2.6,8.301-4.2,16.6-4.4,24.5
				c-0.1,6.1,0.6,11.6,2,16.199l-29.2-15.799c0,0-0.1,0-0.1-0.1C25.317,301.1,19.917,289.4,20.317,273.301z"/>
		</g>
	</g>
	<g id="XMLID_2908_">
		<g id="XMLID_2913_">
			<path id="XMLID_3481_" fill="#2EB3C5" d="M290.316,122.1l-1.1-11.3c-0.1-0.9,0.2-1.7,0.801-2.4c0.6-0.6,1.399-1,2.299-0.9l15,0.7
				c1.701,0.1,2.9,1.5,2.9,3.1c0,0.5-0.199,1-0.4,1.4c-0.5,0.9-1.6,1.5-2.699,1.4l-4.1-0.2l56.699,34.2c1.4,0.899,1.9,2.7,1,4.101
				c-0.9,1.399-2.699,1.899-4.1,1l-60.7-36.701l0.5,4.9c0.2,1.6-1,3.1-2.7,3.301C291.917,125,290.518,123.8,290.316,122.1z"/>
			<g id="XMLID_3105_">
				<g id="XMLID_3121_">
					<path id="XMLID_3525_" fill="#FFFFFF" d="M287.917,396.301c-3.101,0-6-1.701-7.601-4.4c-1.199-2-1.5-4.4-0.899-6.6
						c0.601-2.301,2-4.102,4.101-5.301l101.899-55.1c0.8-1.5,2.3-4.4,2.399-6.6l0.101-1.5l30.7-12.701l0.6,16.9l-28.8,21.801
						l-1.3-2.9c-0.2-0.5-0.5-1-0.801-1.4l-96.1,56.6C291.018,395.9,289.518,396.301,287.917,396.301z"/>
					<path id="XMLID_3522_" fill="#B9B9B8" d="M416.417,307.699l0.5,12l-25.3,19.102c0,0-1.4-3.201-3-3.201c-0.2,0-0.4,0-0.6,0.201
						l-97,57.1c-1,0.6-2.101,0.799-3.101,0.799c-2.2,0-4.2-1.1-5.399-3.1c-1.701-3-0.701-6.799,2.299-8.5l102.5-55.4
						c0,0,2.801-4.6,3.101-8.199L416.417,307.699 M421.117,300.4l-6.6,2.699l-26,10.801l-2.801,1.199l-0.3,3
						c-0.101,1.301-1,3.4-1.8,5l-101.2,54.701h-0.101h-0.1c-5.4,3.1-7.199,10-4.1,15.398c2,3.5,5.699,5.602,9.699,5.602
						c2,0,3.9-0.5,5.601-1.5L387.316,342l2.101,4.699l5-3.799l25.3-19.1l2.1-1.602l-0.1-2.6l-0.5-12L421.117,300.4L421.117,300.4z"
						/>
				</g>
				<g id="XMLID_3120_">
					<path id="XMLID_3521_" fill="#FFFFFF" d="M214.517,452.4c-7.9,0-15.2-4.201-19.2-11c-6.1-10.4-2.6-23.9,7.7-30.1
						c0.6-0.602,1.2-1.102,2-1.5l62.7-36.5c1.301-0.701,2.7-1.201,4.2-1.301c0.899-1.199,1.899-2.199,3.2-3l9-5.199
						c1.6-0.9,3.3-1.4,5.199-1.4c6.5,0,13.801,5.299,18.601,13.5c6.3,10.9,5.8,22.6-1.2,26.699l-9,5.201
						c-1.3,0.699-2.699,1.199-4.199,1.299c-0.9,1.201-1.9,2.201-3.201,3l-62.699,36.5c-0.7,0.4-1.5,0.701-2.3,1
						C222.017,451.4,218.317,452.4,214.517,452.4L214.517,452.4z"/>
					<path id="XMLID_3518_" fill="#B9B9B8" d="M289.316,365c5.4,0,12,4.699,16.4,12.301c5.5,9.5,5.4,19.898-0.3,23.199l-9,5.199
						c-1.2,0.701-2.5,1-4,1c-0.101,0-0.3,0-0.399,0c-0.701,1.4-1.701,2.5-3,3.301l-62.701,36.5c-0.6,0.4-1.3,0.6-2,0.801
						c-3.1,1.799-6.5,2.6-9.8,2.6c-6.8,0-13.4-3.5-17-9.801c-5.4-9.4-2.3-21.4,7.1-26.799c0.5-0.5,1-1,1.7-1.301l62.701-36.5
						c1.199-0.699,2.5-1,4-1c0.1,0,0.299,0,0.399,0c0.7-1.4,1.7-2.5,3-3.301l9-5.199C286.518,365.301,287.917,365,289.316,365
						 M289.316,360L289.316,360c-2.399,0-4.5,0.6-6.5,1.699l-9,5.201c-1.299,0.699-2.399,1.699-3.299,2.799
						c-1.4,0.301-2.801,0.801-4.101,1.5l-62.7,36.5c-0.8,0.5-1.5,1-2.2,1.701c-11.3,7-15,21.799-8.3,33.299
						c4.4,7.602,12.6,12.201,21.3,12.201c4.1,0,8.1-1,11.7-3c0.9-0.301,1.8-0.701,2.6-1.1l62.701-36.5
						c1.299-0.701,2.399-1.701,3.299-2.801c1.4-0.301,2.801-0.801,4.101-1.5l9-5.199c8.2-4.801,9.101-18,2.101-30.102
						C304.816,365.699,296.717,360,289.316,360L289.316,360L289.316,360z"/>
				</g>
				<path id="XMLID_3119_" fill="none" stroke="#B9B9B8" stroke-width="2" stroke-miterlimit="10" d="M276.316,371.199
					c5.701-3.299,14.801,1.701,20.301,11.201s5.4,19.9-0.301,23.199"/>
				<path id="XMLID_3118_" fill="none" stroke="#B9B9B7" stroke-width="3" stroke-miterlimit="10" d="M267.518,376.4
					c5.699-3.301,14.799,1.699,20.299,11.199s5.4,19.9-0.299,23.201"/>
				<path id="XMLID_3117_" fill="none" stroke="#B9B9B8" stroke-width="2" stroke-miterlimit="10" d="M230.717,441.5
					c-2.4,1.4-4.1,0.9-3.9-1.1c0.2-2,2.4-4.701,4.8-6.1l49.8-28.9c2.399-1.4,4.101-0.9,3.899,1.1c-0.199,2-2.399,4.699-4.799,6.1
					L230.717,441.5z"/>
				<path id="XMLID_3116_" fill="none" stroke="#B9B9B8" stroke-width="2" stroke-miterlimit="10" d="M218.617,414.301
					c-2.4,1.398-6.5,1.199-9.2-0.5c-2.7-1.701-2.9-4.102-0.5-5.5l49.8-28.9c2.4-1.4,6.5-1.201,9.2,0.5c2.7,1.699,2.899,4.1,0.5,5.5
					L218.617,414.301z"/>
				<path id="XMLID_3115_" fill="none" stroke="#B9B9B8" stroke-width="2" stroke-miterlimit="10" d="M228.517,427.9
					c-2.4,1.4-5.3,0.5-6.4-2.1c-1.1-2.602-0.1-5.801,2.3-7.102l49.8-28.898c2.4-1.4,5.301-0.5,6.4,2.1s0.1,5.799-2.301,7.1
					L228.517,427.9z"/>
			</g>
			<g id="XMLID_3122_">
				<g id="XMLID_3209_">
					<path fill="#FFFFFF" d="M292.117,314.199c-1.5,0-3.1-0.398-4.7-1.199c-5.5-2.801-9.8-9.6-9.899-15.4
						c0-3.299,1.299-5.9,3.699-7.299l73.7-41.201c1-0.601,2.2-0.899,3.5-0.899c1.5,0,3.101,0.399,4.7,1.199
						c0.1,0.1,0.199,0.1,0.3,0.2l5.2-2.601c1.6-26.799,24.3-62.899,48.199-76.1c6.701-3.699,13.801-5.699,20.5-5.699
						c4.4,0,8.601,0.799,12.5,2.5l0.201,0.1l11.199,5.699c11.6,5.801,17.801,16,17.9,29.4c0.199,26.9-23.4,65.401-48.5,79.2
						c-6.5,3.602-13.5,5.5-20.1,5.5l0,0c-5.601,0-11-1.398-15.601-4l-9.899-5c-5.301-2.699-9.5-6.699-12.301-11.898
						c-0.3,1.5-0.9,2.799-1.9,3.799l-0.299,0.301l-73.5,41.5C295.717,313.6,294.018,314.199,292.117,314.199z M397.816,268.4
						c1.301,0.199,2.601,0.301,4,0.301c4.9,0,10-1.4,14.9-4.102c19.9-11,39.2-42.399,39-63.5c-0.1-6.7-2.199-12.5-6.199-16.601
						c-1.201-0.199-2.5-0.299-3.801-0.299c-4.9,0-10.199,1.5-15.199,4.299c-19.701,11-39,42.5-38.801,63.702
						C391.717,258.701,393.816,264.301,397.816,268.4z"/>
					<path fill="#B9B9B8" d="M437.217,167.701c4.1,0,8,0.799,11.5,2.299l11.2,5.701c9.899,5,16.5,13.899,16.601,27.199
						c0.199,25.7-23.101,63.7-47.201,77c-6.399,3.5-12.899,5.199-18.899,5.199c-5.3,0-10.2-1.299-14.399-3.699l-10-5
						c-6-3-10.701-8.199-13.101-15.1l-2.601,1.4l-0.399-0.602c0.2,0.9,0.399,1.801,0.399,2.701c0,1.799-0.5,3.299-1.399,4.199
						l-73.5,41.4c-0.8,0.9-2,1.4-3.3,1.4c-1.1,0-2.301-0.301-3.6-1c-4.601-2.4-8.4-8.301-8.5-13.201c0-2.5,0.899-4.199,2.399-5.1
						l73.7-41.199c0.699-0.4,1.4-0.6,2.3-0.6c1.101,0,2.3,0.299,3.601,1c0.6,0.299,1.1,0.6,1.699,1l-0.199-0.301l7.899-4l-0.2-0.6
						c1.1-25.6,23.6-61.801,46.9-74.801C424.617,169.4,431.217,167.701,437.217,167.701 M401.816,271.201
						c5.101,0,10.601-1.4,16.101-4.4c20.601-11.4,40.5-43.801,40.3-65.701c-0.1-8-2.9-14.5-7.5-18.899c-1.6-0.301-3.3-0.5-5-0.5
						c-5.199,0-10.8,1.399-16.4,4.6c-20.5,11.4-40.199,43.9-40.1,65.901c0.1,7.898,2.9,14.299,7.4,18.6
						C398.217,271,400.018,271.201,401.816,271.201 M437.217,162.701c-7.1,0-14.6,2.1-21.699,6c-24,13.399-47,49.399-49.301,76.699
						l-2.8,1.4c-1.7-0.7-3.399-1.1-5-1.1c-1.7,0-3.3,0.399-4.7,1.199l-73.699,41.2c-3.201,1.801-5,5.201-5,9.5
						c0.1,6.801,4.899,14.4,11.199,17.6c2,1,4,1.5,5.9,1.5c2.4,0,4.6-0.799,6.3-2.299l73-41.1l0.7-0.4l0.5-0.6
						c0.1-0.1,0.3-0.301,0.4-0.4c2.899,3.801,6.5,6.801,10.799,9l9.9,5c5,2.801,10.801,4.299,16.801,4.299
						c7,0,14.399-1.998,21.299-5.799c25.801-14.199,50-53.8,49.801-81.401c-0.1-14.199-7-25.399-19.301-31.699l-11.199-5.7
						l-0.2-0.101l-0.2-0.1C446.518,163.6,442.018,162.701,437.217,162.701L437.217,162.701z M399.018,266
						c-3.101-3.5-4.801-8.299-4.9-14c-0.1-9.6,4.1-22,11.5-34.2c7.5-12.301,16.9-22.2,26-27.2c4.6-2.601,9.5-4,14-4
						c0.9,0,1.8,0.101,2.6,0.2c3.2,3.6,4.9,8.5,4.9,14.199c0.199,20-18.9,50.901-37.7,61.301c-4.5,2.5-9.2,3.799-13.7,3.799
						C400.816,266.201,399.917,266.1,399.018,266L399.018,266z"/>
				</g>
				<path id="XMLID_3180_" fill="none" stroke="#B9B9B8" stroke-linejoin="round" stroke-miterlimit="10" d="M429.417,272.5
					c-19.7,10.9-40,0.9-40.2-20.5c-0.199-21.9,19.5-54.4,40.1-65.9c20.201-11.3,40.201-0.8,40.4,20.601
					C469.816,228.701,449.917,261.1,429.417,272.5z"/>
				<path id="XMLID_3168_" fill="none" stroke="#B9B9B8" stroke-linejoin="round" stroke-miterlimit="10" d="M429.316,279.9
					c-23,12.699-46.899,1.1-47.1-24c-0.199-25.7,22.9-63.8,47-77.2c23.7-13.201,47.1-0.9,47.301,24.1
					C476.816,228.6,453.518,266.6,429.316,279.9z"/>
				<path id="XMLID_3148_" fill="none" stroke="#B9B9B8" stroke-linejoin="round" stroke-miterlimit="10" d="M370.417,262.6
					l9.601-5.1c0.5-0.5,0.799-1.299,0.799-2.299c0-2.701-2.1-5.901-4.6-7.202c-1.3-0.6-2.4-0.699-3.199-0.199l-9.4,4.7"/>
				<path id="XMLID_3146_" fill="none" stroke="#B9B9B8" stroke-linejoin="round" stroke-miterlimit="10" d="M288.518,310.699
					c-4.601-2.398-8.4-8.299-8.5-13.199c0-2.5,0.899-4.199,2.399-5.1c1.5-0.801,3.601-0.801,5.899,0.4
					c4.601,2.398,8.4,8.299,8.5,13.199c0,1.9-0.5,3.301-1.399,4.301C293.917,312,291.417,312.199,288.518,310.699z"/>
				<path id="XMLID_3123_" fill="none" stroke="#B9B9B8" stroke-linejoin="round" stroke-miterlimit="10" d="M295.417,310.301
					l73.5-41.4c0.899-1,1.399-2.4,1.399-4.199c0-4.9-3.799-10.701-8.399-13c-2.3-1.201-4.3-1.201-5.8-0.4l-73.7,41.199"/>
			</g>
			<g id="XMLID_3470_">
				<g id="XMLID_3477_">
					<path fill="#FFFFFF" d="M327.518,204.3l-0.301-0.9c-0.199-0.6-1.699-6.3-2-8.199c-1.1-8.101-1.699-15.601-1.6-22.301v-0.1
						c0.1-1.4,0.4-8.4,0.5-9.4c1-8.8,3-12.6,3.199-13l0.301-0.6l37.699-22l6.201,3.4l8.899-4.9l0.3-0.1
						c3.4-1.601,6.801-2.5,10.2-2.5c3.3,0,6.5,0.799,9.2,2.399c5.5,3.3,8.9,9.399,9.4,16.899c0.399,6.101-1.601,12.801-5.801,20
						c-3.8,6.5-9.199,11.601-15.1,14.5l-10,5.101c-1.2,3.8-2.4,5.399-2.7,5.7l-0.3,0.3l-37.9,22.101L327.518,204.3z M378.518,143
						c1.6,8.9,2.299,16.9,2.199,23.801l2.5-1.301c4.1-1.899,7.6-5.1,9.7-8.699c2.399-4.1,3.7-8.7,3.399-12.5
						c-0.199-3.2-1.799-5.6-3.1-6.4c-0.6-0.4-1.4-0.6-2.3-0.6c-1.2,0-2.601,0.4-4.101,1L378.518,143z"/>
					<path fill="#B9B9B8" d="M391.117,126.201c2.9,0,5.6,0.699,7.9,2.1c4.799,2.8,7.799,8.3,8.199,14.9c0.4,6.1-1.9,12.5-5.5,18.6
						c-3.5,6.1-8.6,10.9-14.1,13.5l-11,5.6c-1.2,4.301-2.5,5.9-2.5,5.9l-36.2,21.1l-8.3-5.1c0,0-1.7-6.1-1.9-7.801
						c-1.199-8.799-1.6-16.1-1.6-22c0,0,0.4-8.199,0.5-9.199c1-8.6,2.9-12,2.9-12l35.899-21l6.2,3.4l10.1-5.601l0.2-0.101
						C385.117,126.9,388.217,126.201,391.117,126.201 M378.117,170.9l6.199-3.1h0.101c3.899-1.9,8.101-5.2,10.8-9.7
						c2.7-4.5,4-9.601,3.801-14c-0.201-3.8-2-7-4.301-8.399c-1-0.601-2.199-0.9-3.6-0.9c-1.6,0-3.4,0.4-5.2,1.3l-10.101,5.5
						C378.217,154.6,378.617,164.1,378.117,170.9 M391.117,121.201c-3.7,0-7.5,0.899-11.2,2.699h-0.101h-0.1l-0.199,0.1h-0.101
						h-0.101l-7.699,4.201l-3.801-2l-2.5-1.4l-2.399,1.4l-35.899,21l-1.201,0.699l-0.699,1.2c-0.4,0.7-2.5,4.8-3.5,13.899
						c-0.1,1-0.4,7-0.6,9.5v0.101v0.101c-0.101,6.799,0.5,14.5,1.6,22.699c0.3,1.9,1.6,7,2.1,8.5l0.5,1.9l1.7,1l8.3,5.1l2.6,1.6
						l2.601-1.5l36.2-21.1l0.8-0.4l0.601-0.699c0.399-0.5,1.6-2.1,2.799-5.6l9.101-4.601c6.399-3.101,12.101-8.601,16.2-15.5
						c4.5-7.601,6.6-14.8,6.199-21.399c-0.5-8.301-4.399-15.201-10.6-18.9C398.518,122.1,394.816,121.201,391.117,121.201
						L391.117,121.201z M388.117,140.6c1.4-0.601,2.4-0.8,3-0.8c0.4,0,0.8,0.1,1,0.199c0.699,0.4,1.8,2.101,1.9,4.4
						c0.199,3.301-1,7.5-3.101,11.1c-1.7,2.9-4.5,5.5-7.601,7.201c-0.199-5.601-0.799-11.801-1.899-18.4L388.117,140.6
						L388.117,140.6z"/>
				</g>
				<path id="XMLID_3474_" fill="none" stroke="#B9B9B8" stroke-width="2" stroke-miterlimit="10" d="M326.117,172.9
					c-0.1,5.9,0.3,13.1,1.6,22c0.2,1.801,1.9,7.801,1.9,7.801l8.3,5.1l36.2-21.1c0,0,9.1-10.9,0.5-51.101l-9-4.899l-35.9,21
					c0,0-2,3.5-2.9,12C326.617,164.701,326.117,172.9,326.117,172.9z"/>
				<path id="XMLID_3473_" fill="none" stroke="#B9B9B8" stroke-width="3" stroke-miterlimit="10" d="M338.316,207.6
					c0,0,9.101-10.899,0.5-51.101l-9-4.899"/>
				
					<line id="XMLID_3472_" fill="none" stroke="#B9B9B8" stroke-width="3" stroke-miterlimit="10" x1="338.717" y1="156.5" x2="374.518" y2="135.6"/>
				<polygon id="XMLID_3471_" opacity="0.2" fill="#B9B9B8" enable-background="new    " points="329.316,151.3 365.117,130.9 
					374.518,135.6 338.717,156.5 				"/>
			</g>
			<g id="XMLID_3385_">
				<path id="XMLID_3447_" fill="#FFFFFF" stroke="#B9B9B8" stroke-width="10" stroke-miterlimit="10" d="M245.917,303.801
					l6.8-11.602l5.301-0.1l15,9l22.799-10.9l-0.6-9.799l17.6-17.199l8.201,4.799l15-25.5l-8.201-4.699l6.5-24.6l10.301-5
					l-1.5-25.201l-19.2-11.6l6.399-10.9l-36.299-22.1l-7.101,11.4h-2.899l-16-9.801l-22.801,11l0.6,9.701l-18.5,17.5l-7.4-4.4
					l-15,25.6l7.2,4.301l-6.7,24.1l-9.9,4.699l1.5,25.202l17.9,10.898l1,1.9l-6.7,11.5l19.5,11.9L245.917,303.801z M247.017,243.1
					c-0.6-10.101,2.6-21.101,8.1-30.5c5.6-9.5,13.6-17.5,22.699-21.899c4.4-2.101,8.701-3.201,12.701-3.301
					c1.699,3.4,2.699,7.5,3,12.2c0.6,10.101-2.5,21-8.101,30.5s-13.601,17.601-22.7,21.9c-4.4,2.1-8.699,3.201-12.699,3.201
					C248.317,251.801,247.317,247.8,247.017,243.1z"/>
				<path id="XMLID_3444_" fill="#FFFFFF" d="M245.917,303.801l6.8-11.602l5.301-0.1l14.899,9.1l0,0v0.102l22.8-11l-0.6-9.801
					l17.6-17.199l8.2,4.799l15-25.5l-8.2-4.7l6.5-24.6l10.301-5l-1.5-25.2h-0.101l-19.2-11.601l6.4-10.899l0.4-0.3l-36.601-22.2
					v0.399l-0.3-0.199l-6.801,11.6h-2.899l-16-9.7l0,0l-22.8,11l0.6,9.7l-18.4,17.3l-7.4-4.399l-15,25.6l7.2,4.3l-6.7,24.101
					l-9.9,4.699l1.5,25.202l0,0l17.9,10.898l1,1.9l-6.7,11.5l19.5,11.9L245.917,303.801z M247.017,243.1
					c-0.6-10.101,2.6-21.101,8.1-30.5c5.6-9.5,13.6-17.5,22.699-21.899c4.4-2.101,8.701-3.201,12.701-3.301
					c1.699,3.4,2.699,7.5,3,12.2c0.6,10.101-2.5,21-8.101,30.5s-13.601,17.601-22.7,21.9c-4.4,2.1-8.699,3.201-12.699,3.201
					C248.317,251.801,247.317,247.8,247.017,243.1z"/>
				<path id="XMLID_3437_" opacity="0.2" fill="#B9B9B8" enable-background="new    " d="M245.917,303.801l6.8-11.602l5.301-0.1
					l14.899,9.1l0,0v0.102l22.8-11l-0.6-9.801l17.6-17.199l8.2,4.799l15-25.5l-8.2-4.7l6.5-24.6l10.301-5l-1.5-25.2h-0.101
					l-19.2-11.601l6.4-10.899l0.4-0.3l-36.601-22.2v0.399l-0.3-0.199l-6.801,11.6h-2.899l-16-9.7l0,0l-22.8,11l0.6,9.7l-18.4,17.3
					l-7.4-4.399l-15,25.6l7.2,4.3l-6.7,24.101l-9.9,4.699l1.5,25.202l0,0l17.9,10.898l1,1.9l-6.7,11.5l19.5,11.9L245.917,303.801z
					 M247.017,243.1c-0.6-10.101,2.6-21.101,8.1-30.5c5.6-9.5,13.6-17.5,22.699-21.899c4.4-2.101,8.701-3.201,12.701-3.301
					c1.699,3.4,2.699,7.5,3,12.2c0.6,10.101-2.5,21-8.101,30.5s-13.601,17.601-22.7,21.9c-4.4,2.1-8.699,3.201-12.699,3.201
					C248.317,251.801,247.317,247.8,247.017,243.1z"/>
				<g id="XMLID_3415_">
					<path fill="#FFFFFF" d="M227.417,294.199l7-11.799l-8.5-16.1l-10.2,4.9l-1.6-27.301l10.1-4.8l6.4-22.899l-7.4-4.4l16-27.4
						l7.6,4.5l17.5-16.5l-0.6-9.8l24-13.2l0.5,11.9L306.018,161l7.1-12l18.9,11l-7,11.9l8.199,15l11-5.3l1.6,27.3l-10.5,5.1
						l-6.199,23.4l8.4,4.9L321.417,269.6l-8.399-5L296.316,280.9l0.601,10l-24.7,11.9l-0.6-10l-18.1,0.5l-7.101,12L227.417,294.199z
						 M291.117,188.4c-4.1,0-8.5,1.1-12.9,3.2c-8.6,4.101-16.6,11.8-22.3,21.5s-8.6,20.399-8,30c0.6,9.4,4.399,16.601,10.7,20.4
						c3,1.801,6.5,2.701,10.3,2.701c4.101,0,8.399-1.102,12.8-3.201c8.6-4.1,16.6-11.799,22.301-21.5
						c5.699-9.699,8.6-20.299,8-29.899c-0.601-9.399-4.4-16.7-10.701-20.5C298.316,189.3,294.917,188.4,291.117,188.4z"/>
					<path fill="#B9B9B8" d="M313.217,150.201l17.2,10l-6.7,11.6l8.9,16.4l10.5-5l1.5,25.199l-10.301,5l-6.5,24.6l8.201,4.701
						l-15,25.5l-8.201-4.801l-17.6,17.199l0.6,9.801l-22.799,11l-0.601-9.5l-19.7,0.5l-6.8,11.6l-17.2-10l6.7-11.5l-9.2-17.4
						l-9.7,4.701l-1.5-25.201l9.9-4.7l6.7-24.1l-7.2-4.301l15-25.6l7.4,4.4l18.4-17.4l-0.6-9.699l22-12.201l0.4,11.301L306.316,162
						L313.217,150.201 M269.018,267.1c4.1,0,8.6-1,13.199-3.299c9.1-4.4,17.2-12.5,22.7-21.901c5.601-9.5,8.7-20.4,8.101-30.5
						c-0.601-10.1-4.9-17.5-11.201-21.3c-3.1-1.8-6.699-2.8-10.699-2.8c-4.1,0-8.7,1.1-13.301,3.3
						c-9.1,4.399-17.1,12.399-22.699,21.899c-5.6,9.5-8.7,20.4-8.1,30.5c0.6,10.1,4.9,17.401,11.2,21.202
						C261.316,266.201,265.018,267.1,269.018,267.1 M312.518,147.5l-1,1.701l-6.301,10.6l-16.199,0.3l-0.4-9.3l-0.1-3.2
						l-2.801,1.601l-22,12.199l-1.1,0.6l0.1,1.301l0.5,8.699l-16.6,15.701l-6.1-3.601l-1.7-1l-1,1.7l-15,25.6l-1,1.7l1.7,1l5.9,3.5
						l-6,21.7l-9.1,4.3l-1.2,0.601l0.1,1.299l1.5,25.202l0.2,3l2.7-1.301l8-3.801l7.7,14.701l-6.2,10.5l-1,1.699l1.7,1l17.2,10
						l1.7,1l1-1.699l6.301-10.602l16.6-0.398l0.4,7.5l0.199,3l2.7-1.301l22.8-11l1.2-0.6l-0.101-1.301l-0.5-8.898l15.9-15.5l6.9,4.1
						l1.699,1l1-1.701l15-25.5l1-1.7l-1.699-1l-6.9-4l5.9-22.199l9.5-4.601l1.199-0.601l-0.1-1.299l-1.5-25.201l-0.199-3
						l-2.701,1.301l-8.799,4.199l-7.4-13.699l6.199-10.6l1-1.701l-1.699-1l-17.2-10L312.518,147.5L312.518,147.5z M269.018,265.1
						c-3.601,0-6.9-0.898-9.701-2.5c-6.1-3.6-9.699-10.5-10.199-19.6c-0.6-9.399,2.199-19.799,7.9-29.399
						c5.6-9.5,13.399-17,21.899-21.101c4.3-2.1,8.5-3.1,12.5-3.1c3.601,0,6.8,0.801,9.7,2.5c6.1,3.6,9.699,10.5,10.199,19.7
						c0.601,9.399-2.199,19.8-7.899,29.3c-5.601,9.6-13.399,17.1-21.899,21.1C277.117,264.1,272.917,265.1,269.018,265.1
						L269.018,265.1z"/>
				</g>
				
					<line id="XMLID_3402_" fill="none" stroke="#B9B9B8" stroke-width="2" stroke-miterlimit="10" x1="238.917" y1="183.6" x2="219.717" y2="172"/>
				
					<line id="XMLID_3401_" fill="none" stroke="#B9B9B8" stroke-width="2" stroke-miterlimit="10" x1="204.017" y1="200.1" x2="222.917" y2="212"/>
				
					<line id="XMLID_3400_" fill="none" stroke="#B9B9B8" stroke-width="2" stroke-miterlimit="10" x1="264.717" y1="163" x2="244.717" y2="150.9"/>
				
					<line id="XMLID_3399_" fill="none" stroke="#B9B9B8" stroke-width="2" stroke-miterlimit="10" x1="242.817" y1="158.9" x2="263.518" y2="171.6"/>
				
					<line id="XMLID_3398_" fill="none" stroke="#B9B9B8" stroke-width="2" stroke-miterlimit="10" x1="283.417" y1="147" x2="305.816" y2="160.701"/>
				
					<line id="XMLID_3397_" fill="none" stroke="#B9B9B8" stroke-width="2" stroke-miterlimit="10" x1="204.617" y1="227.1" x2="224.117" y2="239"/>
				
					<line id="XMLID_3396_" fill="none" stroke="#B9B9B8" stroke-width="2" stroke-miterlimit="10" x1="215.117" y1="244.4" x2="195.517" y2="232.5"/>
				
					<line id="XMLID_3390_" fill="none" stroke="#B9B9B8" stroke-width="2" stroke-miterlimit="10" x1="214.417" y1="270.301" x2="233.917" y2="282.201"/>
			</g>
			<g id="XMLID_3513_">
				<path id="XMLID_3384_" fill="#F8BD30" d="M120.017,304.301l-1.8-18.4c-0.1-1.199,0.3-2.301,1.1-3.1
					c0.8-0.801,1.9-1.301,3.1-1.201l24.4,1.102c2.2,0.1,3.9,2,3.8,4.199c0,0.699-0.2,1.301-0.6,1.9c-0.7,1.199-2.1,2-3.6,1.898
					l-10-0.398l95.2,57.5c1.9,1.1,2.5,3.6,1.4,5.5c-1.1,1.898-3.6,2.5-5.5,1.398l-100.4-60.799l0.9,9.6c0.2,2.199-1.4,4.199-3.6,4.4
					C122.217,308.1,120.317,306.5,120.017,304.301z"/>
			</g>
			<g id="XMLID_2930_">
				<g id="XMLID_2984_" opacity="0.7">
					<path id="XMLID_3546_" fill="#FFFFFF" d="M393.018,259.6l3.5,35.701c0.199,2.199-0.5,4.5-2.101,6.1s-3.7,2.5-6,2.4l-47.3-2.102
						c-4.301-0.199-7.6-3.799-7.4-8.1c0.1-1.299,0.5-2.6,1.1-3.699c1.4-2.4,4.101-3.9,7-3.801l19.5,0.9l-105.6-63.799
						c1-2.201,2-4.301,3.301-6.4c1.399-2.4,3-4.7,4.799-6.9l115.601,69.901l-1.8-18.701c-0.4-4.299,2.699-8.1,7-8.5
						C388.816,252.201,392.617,255.301,393.018,259.6z"/>
				</g>
				<path id="XMLID_2980_" fill="none" stroke="#F8BD30" stroke-width="2" stroke-miterlimit="10" d="M263.717,209.9l115.6,69.901
					l-1.799-18.701c-0.4-4.299,2.699-8.1,7-8.5c4.299-0.398,8.1,2.701,8.5,7l3.5,35.701c0.199,2.199-0.5,4.5-2.101,6.1
					s-3.7,2.5-6,2.4l-47.3-2.102c-4.301-0.199-7.6-3.799-7.4-8.1c0.1-1.299,0.5-2.6,1.1-3.699c1.4-2.4,4.101-3.9,7-3.801l19.5,0.9
					l-105.6-63.799"/>
			</g>
			<g id="XMLID_3249_">
				<g id="XMLID_3254_">
					<path id="XMLID_3380_" fill="#FFFFFF" stroke="#B9B9B8" stroke-width="8" stroke-miterlimit="10" d="M215.117,397.199l3.8-6.5
						l2.9-0.1l8.4,5.1l12.8-6.1l-0.3-5.5l9.9-9.6l4.6,2.699l8.4-14.299l-4.6-2.701l3.699-13.799l5.801-2.801l-0.801-14.1l-10.8-6.5
						l3.601-6.1l-20.4-12.4l-4,6.4h-1.6l-9-5.5l-12.8,6.1l0.3,5.4l-10.3,9.699l-4.2-2.5l-8.4,14.4l4.1,2.4l-3.7,13.5l-5.6,2.699
						l0.8,14.1l10,6.102l0.5,1l-3.8,6.398l11,6.701L215.117,397.199z M215.717,363.199c-0.3-5.699,1.4-11.799,4.6-17.1
						c3.1-5.299,7.6-9.799,12.7-12.299c2.5-1.201,4.9-1.801,7.1-1.801c0.9,1.9,1.5,4.199,1.7,6.801c0.3,5.699-1.4,11.799-4.6,17.1
						c-3.1,5.299-7.6,9.799-12.7,12.299c-2.5,1.201-4.9,1.801-7.1,1.801C216.517,368.1,215.917,365.801,215.717,363.199z"/>
					<path id="XMLID_3377_" fill="#FFFFFF" d="M215.117,397.199l3.8-6.5l2.9-0.1l8.4,5.1l0,0l0,0l12.8-6.1l-0.3-5.5l9.9-9.6
						l4.6,2.699l8.4-14.299l-4.6-2.701l3.699-13.799l5.801-2.801l-0.801-14.1l0,0l-10.699-6.5l3.6-6.1l0.199-0.201l-20.699-12.398
						v0.199l-0.2-0.1l-3.8,6.5h-1.6l-9-5.5l0,0l-12.8,6.1l0.3,5.4l-10.3,9.699l-4.2-2.5l-8.4,14.4l4.1,2.4l-3.7,13.5l-5.6,2.699
						l0.8,14.1l0,0l10,6.102l0.5,1l-3.8,6.398l11,6.701L215.117,397.199z M215.717,363.199c-0.3-5.699,1.4-11.799,4.6-17.1
						c3.1-5.299,7.6-9.799,12.7-12.299c2.5-1.201,4.9-1.801,7.1-1.801c0.9,1.9,1.5,4.199,1.7,6.801c0.3,5.699-1.4,11.799-4.6,17.1
						c-3.1,5.299-7.6,9.799-12.7,12.299c-2.5,1.201-4.9,1.801-7.1,1.801C216.517,368.1,215.917,365.801,215.717,363.199z"/>
					<path id="XMLID_3371_" opacity="0.2" fill="#B9B9B8" enable-background="new    " d="M215.117,397.199l3.8-6.5l2.9-0.1l8.4,5.1
						l0,0l0,0l12.8-6.1l-0.3-5.5l9.9-9.6l4.6,2.699l8.4-14.299l-4.6-2.701l3.699-13.799l5.801-2.801l-0.801-14.1l0,0l-10.699-6.5
						l3.6-6.1l0.199-0.201l-20.699-12.398v0.199l-0.2-0.1l-3.8,6.5h-1.6l-9-5.5l0,0l-12.8,6.1l0.3,5.4l-10.3,9.699l-4.2-2.5
						l-8.4,14.4l4.1,2.4l-3.7,13.5l-5.6,2.699l0.8,14.1l0,0l10,6.102l0.5,1l-3.8,6.398l11,6.701L215.117,397.199z M215.717,363.199
						c-0.3-5.699,1.4-11.799,4.6-17.1c3.1-5.299,7.6-9.799,12.7-12.299c2.5-1.201,4.9-1.801,7.1-1.801c0.9,1.9,1.5,4.199,1.7,6.801
						c0.3,5.699-1.4,11.799-4.6,17.1c-3.1,5.299-7.6,9.799-12.7,12.299c-2.5,1.201-4.9,1.801-7.1,1.801
						C216.517,368.1,215.917,365.801,215.717,363.199z"/>
					<g id="XMLID_3365_">
						<path fill="#FFFFFF" d="M204.117,391.9l4-6.801l-4.4-8.4l-5.9,2.801l-1-16.301l5.7-2.799l3.4-12.301l-4.3-2.5l9.4-16.1
							l4.4,2.6l9.4-8.9l-0.3-5.6l14.3-7.9l0.3,7l9.3-0.199l4-6.9l11.399,6.6l-4,6.9l4.301,7.801l6.4-3.1l1,16.299l-6,2.9
							l-3.301,12.6l4.801,2.801l-9.4,16l-4.801-2.801l-9,8.801l0.3,5.699l-14.7,7.1l-0.3-5.799l-9.5,0.299l-4.1,6.9L204.117,391.9z
							 M240.517,333c-2.2,0-4.6,0.6-7,1.699c-4.8,2.301-9.1,6.5-12.3,11.9c-3.2,5.4-4.7,11.301-4.4,16.5c0.3,5.1,2.4,9.1,5.8,11.1
							c1.6,1,3.5,1.4,5.5,1.4c2.2,0,4.6-0.6,7-1.699c4.8-2.301,9.1-6.5,12.3-11.9s4.7-11.199,4.399-16.5
							c-0.299-5.1-2.399-9.1-5.799-11.1C244.417,333.4,242.517,333,240.517,333z"/>
						<path fill="#B9B9B8" d="M252.917,311.1l9.601,5.6l-3.801,6.5l5,9.201l5.9-2.801l0.8,14.1l-5.8,2.801l-3.7,13.801l4.601,2.699
							l-8.4,14.301l-4.6-2.701l-9.9,9.6l0.3,5.5l-12.8,6.102l-0.3-5.301l-11,0.301l-3.7,6.398l-9.6-5.6l3.8-6.4l-5.1-9.799l-5.5,2.6
							l-0.8-14.1l5.6-2.701l3.7-13.5l-4.1-2.398l8.4-14.4l4.2,2.5l10.3-9.701l-0.3-5.398l12.3-6.801l0.2,6.301l10.8-0.201
							L252.917,311.1 M228.117,376.6c2.3,0,4.8-0.6,7.4-1.799c5.1-2.4,9.6-7,12.7-12.301s4.9-11.4,4.6-17.1
							c-0.299-5.701-2.699-9.801-6.299-11.9c-1.7-1-3.8-1.6-6-1.6c-2.3,0-4.9,0.6-7.5,1.799c-5.1,2.4-9.6,7-12.7,12.301
							s-4.9,11.5-4.6,17.1c0.3,5.701,2.7,9.801,6.3,11.9C223.817,376.1,225.817,376.6,228.117,376.6 M239.917,308.1l-2.8,1.6
							l-12.3,6.801l-1.1,0.6l0.1,1.301l0.3,4.5l-8.5,8.1l-2.9-1.699l-1.7-1l-1,1.699l-8.4,14.4l-1,1.699l1.7,1l2.7,1.6l-3.1,11.102
							l-4.7,2.299l-1.2,0.6l0.1,1.301l0.8,14.1l0.2,3l2.7-1.299l3.7-1.801l3.7,7.1l-3.2,5.5l-1,1.701l1.7,1l9.6,5.6l1.7,1l1-1.701
							l3.3-5.5l8-0.199l0.2,3.4l0.2,3l2.7-1.301l12.8-6.1l1.2-0.6l-0.1-1.301l-0.3-4.6l8.1-7.9l3.3,1.9l1.7,1l1-1.699l8.4-14.301
							l1-1.699l-1.701-1l-3.299-1.9l3-11.4l4.899-2.4l1.2-0.6l-0.1-1.301l-0.801-14.1l-0.199-3l-2.701,1.301l-4.199,2l-3.5-6.5
							l3.199-5.5l1-1.701l-1.699-1l-9.6-5.6l-1.701-1l-1,1.701l-3.299,5.5l-7.7,0.1l-0.2-4.4L239.917,308.1L239.917,308.1z
							 M228.117,374.6c-1.9,0-3.5-0.4-5-1.299c-3.1-1.801-5-5.5-5.3-10.301c-0.3-5.1,1.2-10.801,4.3-16
							c3.1-5.199,7.3-9.301,11.9-11.5c2.3-1.1,4.5-1.6,6.6-1.6c1.8,0,3.5,0.4,5,1.299c3.1,1.801,5,5.5,5.3,10.301
							c0.3,5.1-1.2,10.699-4.3,15.9c-3.1,5.199-7.3,9.299-11.9,11.5C232.317,374.1,230.117,374.6,228.117,374.6L228.117,374.6z"/>
					</g>
					
						<line id="XMLID_3361_" fill="none" stroke="#B9B9B8" stroke-width="2" stroke-miterlimit="10" x1="211.217" y1="329.801" x2="200.417" y2="323.301"/>
					
						<line id="XMLID_3269_" fill="none" stroke="#B9B9B8" stroke-width="2" stroke-miterlimit="10" x1="191.717" y1="339.1" x2="202.317" y2="345.699"/>
					
						<line id="XMLID_3268_" fill="none" stroke="#B9B9B8" stroke-width="2" stroke-miterlimit="10" x1="225.717" y1="318.301" x2="214.517" y2="311.5"/>
					
						<line id="XMLID_3267_" fill="none" stroke="#B9B9B8" stroke-width="2" stroke-miterlimit="10" x1="213.417" y1="316" x2="225.017" y2="323.1"/>
					
						<line id="XMLID_3266_" fill="none" stroke="#B9B9B8" stroke-width="2" stroke-miterlimit="10" x1="236.117" y1="309.301" x2="248.717" y2="317"/>
					
						<line id="XMLID_3265_" fill="none" stroke="#B9B9B8" stroke-width="2" stroke-miterlimit="10" x1="192.017" y1="354.199" x2="202.917" y2="360.9"/>
					
						<line id="XMLID_3264_" fill="none" stroke="#B9B9B8" stroke-width="2" stroke-miterlimit="10" x1="197.917" y1="363.9" x2="186.917" y2="357.199"/>
					
						<line id="XMLID_3255_" fill="none" stroke="#B9B9B8" stroke-width="2" stroke-miterlimit="10" x1="197.517" y1="378.4" x2="208.417" y2="385.1"/>
				</g>
			</g>
		</g>
		<g id="XMLID_3250_">
			<g id="XMLID_3253_">
				<path id="XMLID_3414_" fill="#2EB3C5" d="M416.417,221.1c0.5,0,1.101,0.101,1.5,0.399l60.7,36.702l-0.5-4.9
					c-0.2-1.6,1-3.1,2.699-3.301c0.101,0,0.201,0,0.301,0c1.5,0,2.8,1.202,3,2.702l1.1,11.299c0.1,0.9-0.199,1.701-0.8,2.4
					c-0.601,0.6-1.399,0.9-2.2,0.9h-0.1l-15-0.701c-1.7-0.1-2.9-1.5-2.9-3.1c0-0.5,0.2-1,0.4-1.4c0.5-0.898,1.5-1.398,2.6-1.398h0.1
					l4.101,0.199l-56.7-34.2c-1.4-0.9-1.9-2.701-1-4.101C414.417,221.6,415.417,221.1,416.417,221.1 M416.417,219.1
					c-1.7,0-3.399,0.899-4.3,2.399c-1.4,2.4-0.7,5.4,1.699,6.9l51.201,30.901c-0.801,0.4-1.5,1-2,1.799
					c-0.4,0.701-0.701,1.5-0.701,2.4c-0.1,1.301,0.4,2.6,1.301,3.6s2.1,1.602,3.5,1.602l15,0.699c0.1,0,0.1,0,0.199,0
					c1.4,0,2.701-0.6,3.601-1.6c1-1.1,1.5-2.5,1.3-3.9l-1.1-11.301c-0.2-2.6-2.4-4.5-5-4.5c-0.2,0-0.301,0-0.5,0
					c-1.301,0.101-2.5,0.8-3.4,1.8c-0.8,1-1.199,2.301-1.1,3.7l0.1,0.9l-57.3-34.6C418.217,219.4,417.316,219.1,416.417,219.1
					L416.417,219.1z"/>
			</g>
			<g id="XMLID_3251_" opacity="0.7">
				<path id="XMLID_3545_" fill="#FFFFFF" d="M484.217,252.801l1.1,11.299c0.101,0.9-0.199,1.701-0.799,2.4
					c-0.601,0.6-1.4,1-2.301,0.9l-15-0.699c-1.699-0.102-2.9-1.5-2.9-3.102c0-0.5,0.201-1,0.4-1.398c0.5-0.9,1.6-1.5,2.7-1.4
					l4.101,0.199l-56.701-34.2c-1.399-0.9-1.899-2.7-1-4.1c0.9-1.4,2.701-1.9,4.101-1l60.7,36.7l-0.5-4.9
					c-0.2-1.6,1-3.1,2.699-3.299C482.518,250,484.018,251.201,484.217,252.801z"/>
			</g>
		</g>
		<path id="XMLID_3245_" fill="#F8BD30" d="M338.917,397.699l1.8,18.4c0.1,1.201-0.3,2.301-1.1,3.1
			c-0.801,0.801-1.9,1.301-3.1,1.201l-24.4-1.1c-2.2-0.102-3.9-2-3.801-4.201c0-0.699,0.201-1.299,0.601-1.9
			c0.7-1.199,2.101-2,3.601-1.898l10,0.398l-95.201-57.5c-1.9-1.1-2.5-3.6-1.4-5.5c1.1-1.898,3.6-2.5,5.5-1.398l100.399,60.6
			l-0.899-9.6c-0.2-2.201,1.399-4.201,3.601-4.4C336.717,393.9,338.717,395.5,338.917,397.699z"/>
	</g>
</g>
</svg>
