<?xml version="1.0" encoding="UTF-8" standalone="no"?>
<!-- Generator: Adobe Illustrator 18.0.0, SVG Export Plug-In . SVG Version: 6.00 Build 0)  -->

<svg
   xmlns:dc="http://purl.org/dc/elements/1.1/"
   xmlns:cc="http://creativecommons.org/ns#"
   xmlns:rdf="http://www.w3.org/1999/02/22-rdf-syntax-ns#"
   xmlns:svg="http://www.w3.org/2000/svg"
   xmlns="http://www.w3.org/2000/svg"
   xmlns:sodipodi="http://sodipodi.sourceforge.net/DTD/sodipodi-0.dtd"
   xmlns:inkscape="http://www.inkscape.org/namespaces/inkscape"
   version="1.1"
   x="0px"
   y="0px"
   width="150"
   height="150"
   viewBox="0 0 150 149.99999"
   enable-background="new 0 0 100 80.3"
   xml:space="preserve"
   id="svg59"
   sodipodi:docname="new_icon.svg"
   inkscape:version="0.92.0 r15299"><metadata
     id="metadata65"><rdf:RDF><cc:Work
         rdf:about=""><dc:format>image/svg+xml</dc:format><dc:type
           rdf:resource="http://purl.org/dc/dcmitype/StillImage" /><dc:title></dc:title></cc:Work></rdf:RDF></metadata><defs
     id="defs63"><pattern
       y="0"
       x="0"
       height="6"
       width="6"
       patternUnits="userSpaceOnUse"
       id="EMFhbasepattern" /></defs><sodipodi:namedview
     pagecolor="#ffffff"
     bordercolor="#666666"
     borderopacity="1"
     objecttolerance="10"
     gridtolerance="10"
     guidetolerance="10"
     inkscape:pageopacity="0"
     inkscape:pageshadow="2"
     inkscape:window-width="1600"
     inkscape:window-height="837"
     id="namedview61"
     showgrid="false"
     inkscape:zoom="1"
     inkscape:cx="93.094864"
     inkscape:cy="50.917536"
     inkscape:window-x="-8"
     inkscape:window-y="-8"
     inkscape:window-maximized="1"
     inkscape:current-layer="g56"
     inkscape:showpageshadow="true" /><g
     id="Layer_1"
     transform="translate(0,69.699997)"><g
       id="Слой_1" /></g><g
     id="Isolation_Mode"
     transform="translate(0,69.699997)"><g
       id="g56"><g
         id="g4583"
         transform="matrix(0.56910727,0,0,0.56829263,-190.24036,-38.221721)"
         style="stroke-width:1.75839698"><path
           inkscape:connector-curvature="0"
           style="fill:#444342;fill-opacity:1;fill-rule:nonzero;stroke:none;stroke-width:1.75839698"
           d="M 16.180336,169.65546 H 117.29959 c 11.91991,0 21.67984,-10.31993 21.67984,-23.19983 V -49.062919 c 0,-12.879905 -9.75993,-23.279828 -21.67984,-23.279828 H 16.180336 c -11.8399119,0 -21.4398408,10.399923 -21.4398408,23.279828 V 146.61563 c 0,12.7199 9.5999289,23.03983 21.4398408,23.03983 z"
           id="path4569" /><path
           inkscape:connector-curvature="0"
           style="fill:#cccbcb;fill-opacity:1;fill-rule:nonzero;stroke:none;stroke-width:1.75839698"
           d="m 67.699955,161.97551 c -5.839957,0 -10.399923,-4.63996 -10.399923,-10.39992 0,-5.83996 4.559966,-10.39992 10.399923,-10.39992 5.759957,0 10.319923,4.55996 10.319923,10.39992 0,5.59996 -4.559966,10.39992 -10.319923,10.39992 z"
           id="path4571" /><path
           inkscape:connector-curvature="0"
           style="fill:#f2f2f2;fill-opacity:1;fill-rule:nonzero;stroke:none;stroke-width:1.75839698"
           d="M 6.8204062,-56.982861 H 127.05952 V 130.93574 H 6.8204062 Z"
           id="path4573" /><path
           inkscape:connector-curvature="0"
           style="fill:#cecece;fill-opacity:1;fill-rule:evenodd;stroke:none;stroke-width:1.75839698"
           d="m 17.300328,102.77595 h 77.519427 v 9.03994 H 17.300328 Z"
           id="path4575" /><path
           inkscape:connector-curvature="0"
           style="fill:#cecece;fill-opacity:1;fill-rule:evenodd;stroke:none;stroke-width:1.75839698"
           d="m 17.300328,89.896053 h 77.519427 v 9.03993 H 17.300328 Z"
           id="path4577" /><path
           inkscape:connector-curvature="0"
           style="fill:#cecece;fill-opacity:1;fill-rule:evenodd;stroke:none;stroke-width:1.75839698"
           d="m 17.300328,76.856143 h 77.519427 v 9.11994 H 17.300328 Z"
           id="path4579" /><path
           inkscape:connector-curvature="0"
           style="fill:#f7ad41;fill-opacity:1;fill-rule:evenodd;stroke:none;stroke-width:1.75839698"
           d="M 98.099725,102.77595 H 116.4196 v 9.03994 H 98.099725 Z"
           id="path4581" /><path
           inkscape:connector-curvature="0"
           style="fill:#f7ad41;fill-opacity:1;fill-rule:evenodd;stroke:none;stroke-width:1.75839698"
           d="M 98.099725,89.896053 H 116.4196 v 9.03993 H 98.099725 Z"
           id="path4583" /><path
           inkscape:connector-curvature="0"
           style="fill:#f7ad41;fill-opacity:1;fill-rule:evenodd;stroke:none;stroke-width:1.75839698"
           d="M 98.099725,76.856143 H 116.4196 v 9.11994 H 98.099725 Z"
           id="path4585" /><path
           inkscape:connector-curvature="0"
           style="fill:#5a8f4b;fill-opacity:1;fill-rule:nonzero;stroke:none;stroke-width:1.75839698"
           d="m 102.8197,12.216627 c 0,0 0.71999,3.679972 -1.51999,6.159954 -2.319985,2.559981 -6.799954,3.039977 -6.799954,3.039977 0,0 -0.719995,-3.679972 1.599989,-6.159954 2.23998,-2.479982 6.719955,-3.039977 6.719955,-3.039977 z"
           id="path4587" /><path
           inkscape:connector-curvature="0"
           style="fill:#5a8f4b;fill-opacity:1;fill-rule:nonzero;stroke:none;stroke-width:1.75839698"
           d="m 102.8197,20.376566 c 0,0 0.71999,3.679973 -1.51999,6.159955 -2.319985,2.559982 -6.799954,3.039982 -6.799954,3.039982 0,0 -0.719995,-3.679978 1.599989,-6.159959 2.23998,-2.559981 6.719955,-3.039978 6.719955,-3.039978 z"
           id="path4589" /><path
           inkscape:connector-curvature="0"
           style="fill:#5a8f4b;fill-opacity:1;fill-rule:nonzero;stroke:none;stroke-width:1.75839698"
           d="m 92.419771,29.576503 c 0,0 0.719995,-3.679978 -1.519988,-6.159959 -2.319983,-2.559981 -6.79995,-3.039978 -6.79995,-3.039978 0,0 -0.719995,3.679973 1.519989,6.159955 2.319983,2.559982 6.799949,3.039982 6.799949,3.039982 z"
           id="path4591" /><path
           inkscape:connector-curvature="0"
           style="fill:#5a8f4b;fill-opacity:1;fill-rule:nonzero;stroke:none;stroke-width:1.75839698"
           d="m 92.419771,21.416558 c 0,0 0.719995,-3.679972 -1.519988,-6.159954 -2.319983,-2.479982 -6.79995,-3.039977 -6.79995,-3.039977 0,0 -0.719995,3.679972 1.519989,6.159954 2.319983,2.559981 6.799949,3.039977 6.799949,3.039977 z"
           id="path4593" /><path
           inkscape:connector-curvature="0"
           style="fill:#5a8f4b;fill-opacity:1;fill-rule:nonzero;stroke:none;stroke-width:1.75839698"
           d="m 93.379764,15.416603 c 0,0 3.279981,-2.559981 3.279981,-5.6799582 0.08,-3.119977 -3.119982,-5.759957 -3.119982,-5.759957 0,0 -3.279976,2.559981 -3.279976,5.679958 -0.08,3.1199762 3.119977,5.7599572 3.119977,5.7599572 z"
           id="path4595" /><path
           inkscape:connector-curvature="0"
           style="fill:#5a8f4b;fill-opacity:1;fill-rule:nonzero;stroke:none;stroke-width:1.75839698"
           d="m 102.8197,28.536503 c 0,0 -4.399975,0.4 -6.719955,2.95998 -0.79999,0.87999 -1.19999,1.83999 -1.43999,2.79998 -0.159999,0.32 -0.479997,1.35999 -1.119992,1.43999 h -0.08 c -0.719995,0 -1.199991,-1.43999 -1.199991,-1.43999 v 0 c -0.239999,-0.95999 -0.639996,-1.91999 -1.43999,-2.79998 -2.239983,-2.47998 -6.71995,-2.95998 -6.71995,-2.95998 0,0 -0.719995,3.59998 1.519989,6.15996 1.839986,1.99998 5.119962,2.71998 6.319953,2.87998 v 3.99997 c 0,0.87999 0.719995,1.51998 1.519989,1.51998 0.799994,0 1.519991,-0.63999 1.519991,-1.51998 v -3.99997 c 1.19999,-0.16 4.39996,-0.88 6.319946,-2.87998 2.23998,-2.47998 1.51999,-6.15996 1.52,-6.15996 z"
           id="path4597" /><path
           inkscape:connector-curvature="0"
           style="fill:#0000ff;fill-opacity:1;fill-rule:nonzero;stroke:none;stroke-width:1.75839698"
           d="M 53.620059,-15.783166 H 29.14024 v -24.479819 h 24.479819 z m -6.079955,-30.639773 h -3.039978 v 3.119977 h 3.039978 z m -12.239909,3.119977 h 3.039977 v -3.119977 h -3.039977 z m 21.439841,9.119932 v 3.039978 h 3.039977 v -3.039978 z m -7.679943,-9.119932 h 6.159954 c 0.799994,0 1.519989,0.639995 1.519989,1.519989 v 6.079955 h 3.039977 v -6.079955 c 0,-2.559981 -2.079984,-4.639966 -4.559966,-4.639966 H 49.060093 Z M 38.340172,-9.7032112 v -3.0399768 h -3.039977 v 3.0399768 z M 56.740036,-29.543064 v 3.039977 h 3.039977 v -3.039977 z m 3.039977,4.559966 h -3.039977 v 3.039978 h 3.039977 z M 39.860161,-43.302962 h 3.119977 v -3.119977 h -3.119977 z m 3.119977,30.559774 h -3.119977 v 3.0399768 h 3.119977 z m -9.199932,0 h -6.159955 c -0.799994,0 -1.519988,-0.719995 -1.519988,-1.519989 v -6.159955 h -3.039978 v 6.159955 c 0,2.479981 2.079985,4.5599658 4.559966,4.5599658 h 6.159955 z M 23.060285,-26.503087 h 3.039978 v -3.039977 h -3.039978 z m 33.679751,6.079955 v 6.159955 c 0,0.799994 -0.719995,1.519989 -1.519989,1.519989 h -6.159954 v 3.0399768 h 6.159954 c 2.479982,0 4.559966,-2.0799848 4.559966,-4.5599658 v -6.159955 z m -33.679751,-10.71992 h 3.039978 v -3.039978 h -3.039978 z m 24.479819,18.399864 h -3.039978 v 3.0399768 h 3.039978 z m -21.439841,-22.95983 v -6.079955 c 0,-0.879994 0.719994,-1.519989 1.519988,-1.519989 h 6.159955 v -3.119977 h -6.159955 c -2.479981,0 -4.559966,2.079985 -4.559966,4.639966 v 6.079955 z m -3.039978,13.759898 h 3.039978 v -3.039978 h -3.039978 z"
           id="path4599" /><path
           inkscape:connector-curvature="0"
           style="fill:#0000ff;fill-opacity:1;fill-rule:nonzero;stroke:none;stroke-width:1.75839698"
           d="M 53.620059,36.296453 H 29.14024 V 11.81663 H 53.620059 Z M 47.540104,5.7366748 h -3.039978 v 3.039977 h 3.039978 z m -12.239909,3.039977 h 3.039977 v -3.039977 h -3.039977 z m 21.439841,9.1999322 v 3.039977 h 3.039977 V 17.976584 Z M 49.060093,8.7766518 h 6.159954 c 0.799994,0 1.519989,0.719995 1.519989,1.5199892 v 6.159954 h 3.039977 v -6.159954 c 0,-2.5599812 -2.079984,-4.5599662 -4.559966,-4.5599662 H 49.060093 Z M 38.340172,42.456403 v -3.11998 h -3.039977 v 3.11998 z M 56.740036,22.53655 v 3.039978 h 3.039977 V 22.53655 Z m 3.039977,4.559966 h -3.039977 v 3.119977 h 3.039977 z M 39.860161,8.7766518 h 3.119977 v -3.039977 h -3.119977 z m 3.119977,30.5597712 h -3.119977 v 3.11998 h 3.119977 z m -9.199932,0 h -6.159955 c -0.799994,0 -1.519988,-0.63999 -1.519988,-1.51999 v -6.07995 h -3.039978 v 6.07995 c 0,2.55999 2.079985,4.63997 4.559966,4.63997 h 6.159955 z M 23.060285,25.576528 h 3.039978 V 22.53655 h -3.039978 z m 33.679751,6.159955 v 6.07995 c 0,0.88 -0.719995,1.51999 -1.519989,1.51999 h -6.159954 v 3.11998 h 6.159954 c 2.479982,0 4.559966,-2.07998 4.559966,-4.63997 v -6.07995 z M 23.060285,21.016561 h 3.039978 v -3.039977 h -3.039978 z m 24.479819,18.319862 h -3.039978 v 3.11998 h 3.039978 z M 26.100263,16.456595 v -6.159954 c 0,-0.7999942 0.719994,-1.5199892 1.519988,-1.5199892 h 6.159955 v -3.039977 h -6.159955 c -2.479981,0 -4.559966,1.999985 -4.559966,4.5599662 v 6.159954 z m -3.039978,13.759898 h 3.039978 v -3.119977 h -3.039978 z"
           id="path4601" /><path
           inkscape:connector-curvature="0"
           style="fill:#0000ff;fill-opacity:1;fill-rule:nonzero;stroke:none;stroke-width:1.75839698"
           d="M 107.69966,-15.783166 H 83.21984 v -24.479819 h 24.47982 z m -6.15995,-30.639773 h -3.039985 v 3.119977 h 3.039985 z m -12.239915,3.119977 h 3.119976 v -3.119977 h -3.119976 z m 21.439845,9.119932 v 3.039978 h 3.03998 v -3.039978 z m -7.67994,-9.119932 h 6.15995 c 0.8,0 1.51999,0.639995 1.51999,1.519989 v 6.079955 h 3.03998 v -6.079955 c 0,-2.559981 -1.99999,-4.639966 -4.55997,-4.639966 H 103.0597 Z M 92.419771,-9.7032112 v -3.0399768 h -3.119976 v 3.0399768 z M 110.73964,-29.543064 v 3.039977 h 3.03998 v -3.039977 z m 3.03998,4.559966 h -3.03998 v 3.039978 h 3.03998 z M 93.93976,-43.302962 h 3.039975 v -3.119977 H 93.93976 Z m 3.039975,30.559774 H 93.93976 v 3.0399768 h 3.039975 z m -9.199929,0 h -6.079955 c -0.879994,0 -1.519989,-0.719995 -1.519989,-1.519989 v -6.159955 h -3.119977 v 6.159955 c 0,2.479981 2.079985,4.5599658 4.639966,4.5599658 h 6.079955 z M 77.059885,-26.503087 h 3.119977 v -3.039977 h -3.119977 z m 33.679755,6.079955 v 6.159955 c 0,0.799994 -0.71999,1.519989 -1.51999,1.519989 h -6.15995 v 3.0399768 h 6.15995 c 2.55998,0 4.55997,-2.0799848 4.55997,-4.5599658 v -6.159955 z m -33.679755,-10.71992 h 3.119977 v -3.039978 h -3.119977 z m 24.479825,18.399864 h -3.039985 v 3.0399768 h 3.039985 z m -21.359848,-22.95983 v -6.079955 c 0,-0.879994 0.639995,-1.519989 1.519989,-1.519989 h 6.079955 v -3.119977 h -6.079955 c -2.559981,0 -4.639966,2.079985 -4.639966,4.639966 v 6.079955 z m -3.119977,13.759898 h 3.119977 v -3.039978 h -3.119977 z"
           id="path4603" /></g><g
         id="g4680"
         transform="translate(23.9,-35.2)"><g
           id="Layer_1-9"><g
             id="Слой_1-3" /></g><g
           id="Isolation_Mode-0"><g
             id="g4639"><path
               id="path4587-0"
               d="m 89.2,8.8 c -0.1,0 -0.2,0 -0.4,0 H 6.4 C 4,8.8 2.2,11.2 2.2,14.2 v 59.5 1.2 c 0,2.9 1.9,5.4 4.2,5.4 h 82.5 c 2.4,0 4.2,-2.4 4.2,-5.4 V 14.2 c 0,-2.8 -1.8,-5.1 -3.9,-5.4 z"
               inkscape:connector-curvature="0"
               style="fill:#414042" /><path
               id="path4589-5"
               d="m 85.7,13.3 c -0.1,0 -0.2,0 -0.3,0 H 9.8 c -2.2,0 -3.8,2 -3.8,4.3 v 52.9 0.9 c 0,2.4 1.8,4.3 3.8,4.3 h 75.5 c 2.2,0 3.8,-2 3.8,-4.3 V 17.6 c 0.2,-2.3 -1.4,-4.2 -3.4,-4.3 z"
               inkscape:connector-curvature="0"
               style="fill:#f2f2f2" /><g
               id="g4599"><rect
                 id="rect4591"
                 height="5"
                 width="18.1"
                 y="47.900002"
                 x="9.6000004"
                 style="fill:#f5ab41" /><rect
                 id="rect4593"
                 height="5"
                 width="17"
                 y="47.900002"
                 x="30.200001"
                 style="fill:#f5ab41" /><rect
                 id="rect4595"
                 height="5"
                 width="17"
                 y="47.900002"
                 x="49.299999"
                 style="fill:#f5ab41" /><rect
                 id="rect4597"
                 height="5"
                 width="17"
                 y="47.900002"
                 x="68.300003"
                 style="fill:#f5ab41" /></g><g
               id="g4605"><path
                 id="path4601-1"
                 d="m 30,58.1 c 12.8,0 42.7,0 55.5,0 0,-0.7 0,-1.4 0,-2 -12.9,0 -42.9,0 -55.5,0 0,0.6 0,1.3 0,2 z m 0,3.7 c 12.8,0 42.7,0 55.5,0 0,-0.6 0,-1.3 0,-2 -12.9,0 -42.9,0 -55.5,0 0,0.6 0,1.3 0,2 z m 0,3.8 c 7.6,0 15.1,0 22.6,0 0,-0.6 0,-1.3 0,-2 -7.6,0 -15.1,0 -22.6,0 0,0.7 0,1.4 0,2 z"
                 inkscape:connector-curvature="0"
                 style="fill:#cecece" /><path
                 id="path4603-7"
                 d="m 30,69.9 c 12.8,0 42.7,0 55.5,0 0,-0.7 0,-1.4 0,-2 -12.9,0 -42.9,0 -55.5,0 0,0.6 0,1.3 0,2 z"
                 inkscape:connector-curvature="0"
                 style="fill:#cecece" /></g><rect
               id="rect4607"
               height="14.3"
               width="18.1"
               y="55.700001"
               x="9.6000004"
               style="fill:#414042" /><g
               id="g4613"><path
                 id="path4609"
                 d="m 21.4,31 v 0 0 L 19.6,19.6 c -6.3,1 -10.6,6.9 -9.6,13.2 0.6,3.7 2.9,6.7 5.9,8.4 2.2,1.2 4.7,1.7 7.3,1.3 6.3,-1 10.6,-6.9 9.6,-13.2 z"
                 inkscape:connector-curvature="0"
                 style="fill:#cbcac9" /><path
                 id="path4611"
                 d="m 29,18.4 c -2.2,-1.1 -4.6,-1.6 -7.2,-1.2 l 1.8,11.3 v 0.1 L 35,26.8 C 34.4,23.1 32.2,20 29,18.4 Z"
                 inkscape:connector-curvature="0"
                 style="fill:#414042" /></g><rect
               id="rect4615"
               height="19.4"
               width="8.1999998"
               y="22.5"
               x="44.200001"
               style="fill:#cbcac9" /><rect
               id="rect4617"
               height="16.5"
               width="8.1999998"
               y="25.299999"
               x="55.200001"
               style="fill:#cbcac9" /><rect
               id="rect4619"
               height="22.9"
               width="8.1999998"
               y="18.9"
               x="66.300003"
               style="fill:#cbcac9" /><rect
               id="rect4621"
               height="22.9"
               width="8.1999998"
               y="18.9"
               x="77.300003"
               style="fill:#f7ad41" /><g
               id="g4629"><path
                 id="path4623"
                 d="m 82.8,35.1 c -9.5,0 -17.2,-7.7 -17.2,-17.2 0,-9.5 7.7,-17.2 17.2,-17.2 9.5,0 17.2,7.7 17.2,17.2 0,9.5 -7.7,17.2 -17.2,17.2 z"
                 inkscape:connector-curvature="0"
                 style="fill:#3f3f3f" /><path
                 id="path4625"
                 d="m 82.8,2.3 c -8.6,0 -15.6,7 -15.6,15.6 0,8.6 7,15.6 15.6,15.6 8.6,0 15.6,-7 15.6,-15.6 0,-8.6 -7,-15.6 -15.6,-15.6 z"
                 inkscape:connector-curvature="0"
                 style="fill:#3f3f3f" /><circle
                 id="circle4627"
                 r="14.7"
                 cy="17.9"
                 cx="82.800003"
                 style="fill:#ffffff" /></g><g
               id="g4637"><path
                 id="path4631"
                 d="M 80.7,20.1 C 79.1,18.5 77,17.7 75,17.7 v 2.4 c 1.4,0 2.9,0.5 4,1.6 1.1,1.1 1.6,2.5 1.6,4 H 83 c 0,-2 -0.8,-4 -2.3,-5.6 z"
                 inkscape:connector-curvature="0"
                 style="fill:#414042" /><path
                 id="path4633"
                 d="M 84.1,16.7 C 81.6,14.2 78.3,12.9 75,12.9 v 2.4 c 2.7,0 5.4,1 7.4,3.1 2,2 3.1,4.7 3.1,7.4 h 2.4 c -0.1,-3.3 -1.3,-6.6 -3.8,-9.1 z"
                 inkscape:connector-curvature="0"
                 style="fill:#414042" /><path
                 id="path4635"
                 d="M 87.5,13.2 C 84.1,9.8 79.5,8 74.9,8 v 2.4 c 3.9,0 7.8,1.5 10.8,4.5 3,3 4.5,6.9 4.5,10.8 h 2.4 c 0.1,-4.5 -1.6,-9 -5.1,-12.5 z"
                 inkscape:connector-curvature="0"
                 style="fill:#414042" /></g></g></g></g></g></g></svg>