<?xml version="1.0" encoding="UTF-8" standalone="no"?>
<!-- Generator: Adobe Illustrator 21.1.0, SVG Export Plug-In . SVG Version: 6.00 Build 0)  -->

<svg
   xmlns:dc="http://purl.org/dc/elements/1.1/"
   xmlns:cc="http://creativecommons.org/ns#"
   xmlns:rdf="http://www.w3.org/1999/02/22-rdf-syntax-ns#"
   xmlns:svg="http://www.w3.org/2000/svg"
   xmlns="http://www.w3.org/2000/svg"
   xmlns:sodipodi="http://sodipodi.sourceforge.net/DTD/sodipodi-0.dtd"
   xmlns:inkscape="http://www.inkscape.org/namespaces/inkscape"
   version="1.1"
   x="0px"
   y="0px"
   width="750.22205"
   height="541.42047"
   viewBox="0 0 750.22203 541.42048"
   xml:space="preserve"
   id="svg352"
   sodipodi:docname="regalgrid_infografica_08_eng.svg"
   inkscape:version="0.92.0 r15299"><metadata
     id="metadata358"><rdf:RDF><cc:Work
         rdf:about=""><dc:format>image/svg+xml</dc:format><dc:type
           rdf:resource="http://purl.org/dc/dcmitype/StillImage" /><dc:title></dc:title></cc:Work></rdf:RDF></metadata><defs
     id="defs356" /><sodipodi:namedview
     pagecolor="#ffffff"
     bordercolor="#666666"
     borderopacity="1"
     objecttolerance="10"
     gridtolerance="10"
     guidetolerance="10"
     inkscape:pageopacity="0"
     inkscape:pageshadow="2"
     inkscape:window-width="1600"
     inkscape:window-height="837"
     id="namedview354"
     showgrid="false"
     fit-margin-top="0"
     fit-margin-left="0"
     fit-margin-right="0"
     fit-margin-bottom="0"
     inkscape:zoom="0.76377966"
     inkscape:cx="572.56026"
     inkscape:cy="270.76026"
     inkscape:window-x="1912"
     inkscape:window-y="-8"
     inkscape:window-maximized="1"
     inkscape:current-layer="svg352" /><style
     type="text/css"
     id="style2">
	.st0{fill:#3C3C3B;}
	.st1{fill:none;stroke:#3C3C3B;stroke-width:0.5;stroke-linejoin:bevel;stroke-miterlimit:10;}
	.st2{opacity:0.6;fill:none;stroke:#009FE3;stroke-width:5;stroke-linejoin:bevel;stroke-miterlimit:10;}
	.st3{opacity:0.8;fill:none;stroke:#B42673;stroke-width:4;stroke-miterlimit:10;}
	.st4{fill:#FFFFFF;stroke:#3C3C3B;stroke-width:0.4205;stroke-linejoin:bevel;stroke-miterlimit:10;}
	.st5{fill:none;stroke:#3C3C3B;stroke-width:0.4205;stroke-linejoin:bevel;stroke-miterlimit:10;}
	.st6{opacity:0.9;fill:#FFFFFF;stroke:#3C3C3B;stroke-width:1.5;stroke-linejoin:bevel;stroke-miterlimit:10;}
	.st7{opacity:0.6;fill:none;stroke:#009FE3;stroke-width:10;stroke-linejoin:bevel;stroke-miterlimit:10;stroke-dasharray:6;}
	.st8{opacity:0.6;fill:none;stroke:#009FE3;stroke-width:10;stroke-linecap:round;stroke-linejoin:bevel;stroke-miterlimit:10;}
</style><g
     id="Livello_4"
     transform="translate(-64.38975,-26.98975)" /><g
     id="Livello_1"
     transform="translate(-64.38975,-26.98975)" /><g
     id="Livello_2"
     transform="translate(-64.38975,-26.98975)" /><g
     id="Livello_3"
     transform="translate(-64.38975,-26.98975)"><line
       class="st2"
       x1="642.79999"
       y1="413.79999"
       x2="742.20001"
       y2="515.20001"
       id="line251"
       style="opacity:0.6;fill:none;stroke:#009fe3;stroke-width:5;stroke-linejoin:bevel;stroke-miterlimit:10" /><polyline
       class="st2"
       points="100.8,457.8 250.1,423.8 170.8,334.1  "
       id="polyline253"
       style="opacity:0.6;fill:none;stroke:#009fe3;stroke-width:5;stroke-linejoin:bevel;stroke-miterlimit:10" /><polyline
       class="st2"
       points="238.5,527.9 250.1,423.8 395.4,455.8  "
       id="polyline255"
       style="opacity:0.6;fill:none;stroke:#009fe3;stroke-width:5;stroke-linejoin:bevel;stroke-miterlimit:10" /><path
       class="st3"
       d="M 170.8,336.2"
       id="path257"
       inkscape:connector-curvature="0"
       style="opacity:0.8;fill:none;stroke:#b42673;stroke-width:4;stroke-miterlimit:10" /><polyline
       class="st2"
       points="320.4,61.1 297.3,176.8 184.7,109.1  "
       id="polyline259"
       style="opacity:0.6;fill:none;stroke:#009fe3;stroke-width:5;stroke-linejoin:bevel;stroke-miterlimit:10" /><polyline
       class="st2"
       points="592.2,534.2 642.8,413.8 778.3,388.4  "
       id="polyline261"
       style="opacity:0.6;fill:none;stroke:#009fe3;stroke-width:5;stroke-linejoin:bevel;stroke-miterlimit:10" /><g
       id="g269"><path
         class="st4"
         d="m 210.5,75.2 h -51.6 c -5.7,0 -10.4,4.7 -10.4,10.4 v 51.3 c 0,5.7 4.7,10.4 10.4,10.4 h 59.4 c 1.4,0 2.5,-1.1 2.5,-2.5 V 85.6 c 0.1,-5.8 -4.6,-10.4 -10.3,-10.4 z"
         id="path263"
         inkscape:connector-curvature="0"
         style="fill:#ffffff;stroke:#3c3c3b;stroke-width:0.42050001;stroke-linejoin:bevel;stroke-miterlimit:10" /><path
         class="st5"
         d="m 158.9,138.7 c -1,0 -1.9,-0.8 -1.9,-1.9 V 85.6 c 0,-1 0.8,-1.9 1.9,-1.9 h 51.6 c 1,0 1.9,0.8 1.9,1.9 v 53.1 z"
         id="path265"
         inkscape:connector-curvature="0"
         style="fill:none;stroke:#3c3c3b;stroke-width:0.42050001;stroke-linejoin:bevel;stroke-miterlimit:10" /><path
         class="st0"
         d="m 184.7,113.3 c -2.5,0 -4.4,2 -4.4,4.6 0,2.6 1.9,4.5 4.4,4.5 2.5,0 4.4,-2 4.4,-4.5 0,-2.7 -1.9,-4.6 -4.4,-4.6 z m -12.3,0 c -2.5,0 -4.4,2 -4.4,4.6 0,2.6 1.9,4.5 4.4,4.5 2.5,0 4.4,-2 4.4,-4.5 0,-2.7 -1.9,-4.6 -4.4,-4.6 z m 0,-13.3 c -2.5,0 -4.4,2 -4.4,4.6 0,2.6 1.9,4.5 4.4,4.5 2.5,0 4.4,-2 4.4,-4.5 0,-2.6 -1.9,-4.6 -4.4,-4.6 z m 12.3,0 c -2.5,0 -4.4,2 -4.4,4.6 0,2.6 1.9,4.5 4.4,4.5 2.5,0 4.4,-2 4.4,-4.5 0,-2.6 -1.9,-4.6 -4.4,-4.6 z m 12.4,13.3 c -2.5,0 -4.4,2 -4.4,4.6 0,2.6 1.9,4.5 4.4,4.5 2.5,0 4.4,-2 4.4,-4.5 0,-2.7 -1.9,-4.6 -4.4,-4.6 z m 0,-4.2 c 2.5,0 4.4,-2 4.4,-4.5 0,-2.6 -1.9,-4.6 -4.4,-4.6 -2.5,0 -4.4,2 -4.4,4.6 0,2.6 1.9,4.5 4.4,4.5 z"
         id="path267"
         inkscape:connector-curvature="0"
         style="fill:#3c3c3b" /></g><g
       id="g277"><path
         class="st4"
         d="m 346.2,27.2 h -51.6 c -5.7,0 -10.4,4.7 -10.4,10.4 v 51.3 c 0,5.7 4.7,10.4 10.4,10.4 H 354 c 1.4,0 2.5,-1.1 2.5,-2.5 V 37.6 c 0.1,-5.8 -4.6,-10.4 -10.3,-10.4 z"
         id="path271"
         inkscape:connector-curvature="0"
         style="fill:#ffffff;stroke:#3c3c3b;stroke-width:0.42050001;stroke-linejoin:bevel;stroke-miterlimit:10" /><path
         class="st5"
         d="m 294.6,90.7 c -1,0 -1.9,-0.8 -1.9,-1.9 V 37.6 c 0,-1 0.8,-1.9 1.9,-1.9 h 51.6 c 1,0 1.9,0.8 1.9,1.9 v 53.1 z"
         id="path273"
         inkscape:connector-curvature="0"
         style="fill:none;stroke:#3c3c3b;stroke-width:0.42050001;stroke-linejoin:bevel;stroke-miterlimit:10" /><path
         class="st0"
         d="m 320.4,65.2 c -2.5,0 -4.4,2 -4.4,4.6 0,2.6 1.9,4.5 4.4,4.5 2.5,0 4.4,-2 4.4,-4.5 0,-2.6 -1.9,-4.6 -4.4,-4.6 z m -12.4,0 c -2.5,0 -4.4,2 -4.4,4.6 0,2.6 1.9,4.5 4.4,4.5 2.5,0 4.4,-2 4.4,-4.5 0,-2.6 -1.8,-4.6 -4.4,-4.6 z M 308,52 c -2.5,0 -4.4,2 -4.4,4.6 0,2.6 1.9,4.5 4.4,4.5 2.5,0 4.4,-2 4.4,-4.5 0,-2.6 -1.8,-4.6 -4.4,-4.6 z m 12.4,0 c -2.5,0 -4.4,2 -4.4,4.6 0,2.6 1.9,4.5 4.4,4.5 2.5,0 4.4,-2 4.4,-4.5 0,-2.6 -1.9,-4.6 -4.4,-4.6 z m 12.3,13.2 c -2.5,0 -4.4,2 -4.4,4.6 0,2.6 1.9,4.5 4.4,4.5 2.5,0 4.4,-2 4.4,-4.5 0,-2.6 -1.8,-4.6 -4.4,-4.6 z m 0,-4.1 c 2.5,0 4.4,-2 4.4,-4.5 0,-2.6 -1.9,-4.6 -4.4,-4.6 -2.5,0 -4.4,2 -4.4,4.6 0,2.6 1.9,4.5 4.4,4.5 z"
         id="path275"
         inkscape:connector-curvature="0"
         style="fill:#3c3c3b" /></g><g
       id="g285"><path
         class="st4"
         d="M 196.6,300.1 H 145 c -5.7,0 -10.4,4.7 -10.4,10.4 v 51.3 c 0,5.7 4.7,10.4 10.4,10.4 h 59.4 c 1.4,0 2.5,-1.1 2.5,-2.5 v -59.1 c 0.1,-5.8 -4.6,-10.5 -10.3,-10.5 z"
         id="path279"
         inkscape:connector-curvature="0"
         style="fill:#ffffff;stroke:#3c3c3b;stroke-width:0.42050001;stroke-linejoin:bevel;stroke-miterlimit:10" /><path
         class="st5"
         d="m 145,363.6 c -1,0 -1.9,-0.8 -1.9,-1.9 v -51.3 c 0,-1 0.8,-1.9 1.9,-1.9 h 51.6 c 1,0 1.9,0.8 1.9,1.9 v 53.1 H 145 Z"
         id="path281"
         inkscape:connector-curvature="0"
         style="fill:none;stroke:#3c3c3b;stroke-width:0.42050001;stroke-linejoin:bevel;stroke-miterlimit:10" /><path
         class="st0"
         d="m 170.8,338.2 c -2.5,0 -4.4,2 -4.4,4.6 0,2.6 1.9,4.5 4.4,4.5 2.5,0 4.4,-2 4.4,-4.5 0,-2.6 -1.8,-4.6 -4.4,-4.6 z m -12.3,0 c -2.5,0 -4.4,2 -4.4,4.6 0,2.6 1.9,4.5 4.4,4.5 2.5,0 4.4,-2 4.4,-4.5 0,-2.6 -1.9,-4.6 -4.4,-4.6 z m 0,-13.2 c -2.5,0 -4.4,2 -4.4,4.6 0,2.6 1.9,4.5 4.4,4.5 2.5,0 4.4,-2 4.4,-4.5 0,-2.7 -1.9,-4.6 -4.4,-4.6 z m 12.3,0 c -2.5,0 -4.4,2 -4.4,4.6 0,2.6 1.9,4.5 4.4,4.5 2.5,0 4.4,-2 4.4,-4.5 0,-2.7 -1.8,-4.6 -4.4,-4.6 z m 12.4,13.2 c -2.5,0 -4.4,2 -4.4,4.6 0,2.6 1.9,4.5 4.4,4.5 2.5,0 4.4,-2 4.4,-4.5 0,-2.6 -1.9,-4.6 -4.4,-4.6 z m 0,-4.1 c 2.5,0 4.4,-2 4.4,-4.5 0,-2.6 -1.9,-4.6 -4.4,-4.6 -2.5,0 -4.4,2 -4.4,4.6 0,2.5 1.9,4.5 4.4,4.5 z"
         id="path283"
         inkscape:connector-curvature="0"
         style="fill:#3c3c3b" /></g><g
       id="g293"><path
         class="st4"
         d="m 264.3,493.9 h -51.6 c -5.7,0 -10.4,4.7 -10.4,10.4 v 51.3 c 0,5.7 4.7,10.4 10.4,10.4 h 59.4 c 1.4,0 2.5,-1.1 2.5,-2.5 v -59.1 c 0.1,-5.8 -4.6,-10.5 -10.3,-10.5 z"
         id="path287"
         inkscape:connector-curvature="0"
         style="fill:#ffffff;stroke:#3c3c3b;stroke-width:0.42050001;stroke-linejoin:bevel;stroke-miterlimit:10" /><path
         class="st5"
         d="m 212.7,557.4 c -1,0 -1.9,-0.8 -1.9,-1.9 v -51.3 c 0,-1 0.8,-1.9 1.9,-1.9 h 51.6 c 1,0 1.9,0.8 1.9,1.9 v 53.1 h -53.5 z"
         id="path289"
         inkscape:connector-curvature="0"
         style="fill:none;stroke:#3c3c3b;stroke-width:0.42050001;stroke-linejoin:bevel;stroke-miterlimit:10" /><path
         class="st0"
         d="m 238.5,532 c -2.5,0 -4.4,2 -4.4,4.6 0,2.6 1.9,4.5 4.4,4.5 2.5,0 4.4,-2 4.4,-4.5 0,-2.6 -1.9,-4.6 -4.4,-4.6 z m -12.3,0 c -2.5,0 -4.4,2 -4.4,4.6 0,2.6 1.9,4.5 4.4,4.5 2.5,0 4.4,-2 4.4,-4.5 0,-2.6 -1.9,-4.6 -4.4,-4.6 z m 0,-13.3 c -2.5,0 -4.4,2 -4.4,4.6 0,2.6 1.9,4.5 4.4,4.5 2.5,0 4.4,-2 4.4,-4.5 0,-2.6 -1.9,-4.6 -4.4,-4.6 z m 12.3,0 c -2.5,0 -4.4,2 -4.4,4.6 0,2.6 1.9,4.5 4.4,4.5 2.5,0 4.4,-2 4.4,-4.5 0,-2.6 -1.9,-4.6 -4.4,-4.6 z m 12.4,13.3 c -2.5,0 -4.4,2 -4.4,4.6 0,2.6 1.9,4.5 4.4,4.5 2.5,0 4.4,-2 4.4,-4.5 0,-2.6 -1.9,-4.6 -4.4,-4.6 z m 0,-4.1 c 2.5,0 4.4,-2 4.4,-4.5 0,-2.6 -1.9,-4.6 -4.4,-4.6 -2.5,0 -4.4,2 -4.4,4.6 0,2.5 1.8,4.5 4.4,4.5 z"
         id="path291"
         inkscape:connector-curvature="0"
         style="fill:#3c3c3b" /></g><g
       id="g301"><path
         class="st4"
         d="M 126.6,423.8 H 75 c -5.7,0 -10.4,4.7 -10.4,10.4 v 51.3 c 0,5.7 4.7,10.4 10.4,10.4 h 59.4 c 1.4,0 2.5,-1.1 2.5,-2.5 v -59.1 c 0.1,-5.8 -4.6,-10.5 -10.3,-10.5 z"
         id="path295"
         inkscape:connector-curvature="0"
         style="fill:#ffffff;stroke:#3c3c3b;stroke-width:0.42050001;stroke-linejoin:bevel;stroke-miterlimit:10" /><path
         class="st5"
         d="m 75,487.3 c -1,0 -1.9,-0.8 -1.9,-1.9 v -51.3 c 0,-1 0.8,-1.9 1.9,-1.9 h 51.6 c 1,0 1.9,0.8 1.9,1.9 v 53.1 H 75 Z"
         id="path297"
         inkscape:connector-curvature="0"
         style="fill:none;stroke:#3c3c3b;stroke-width:0.42050001;stroke-linejoin:bevel;stroke-miterlimit:10" /><path
         class="st0"
         d="m 100.8,461.9 c -2.5,0 -4.4,2 -4.4,4.6 0,2.6 1.9,4.5 4.4,4.5 2.5,0 4.4,-2 4.4,-4.5 0,-2.6 -1.9,-4.6 -4.4,-4.6 z m -12.3,0 c -2.5,0 -4.4,2 -4.4,4.6 0,2.6 1.9,4.5 4.4,4.5 2.5,0 4.4,-2 4.4,-4.5 0,-2.6 -1.9,-4.6 -4.4,-4.6 z m 0,-13.3 c -2.5,0 -4.4,2 -4.4,4.6 0,2.6 1.9,4.5 4.4,4.5 2.5,0 4.4,-2 4.4,-4.5 0,-2.6 -1.9,-4.6 -4.4,-4.6 z m 12.3,0 c -2.5,0 -4.4,2 -4.4,4.6 0,2.6 1.9,4.5 4.4,4.5 2.5,0 4.4,-2 4.4,-4.5 0,-2.6 -1.9,-4.6 -4.4,-4.6 z m 12.4,13.3 c -2.5,0 -4.4,2 -4.4,4.6 0,2.6 1.9,4.5 4.4,4.5 2.5,0 4.4,-2 4.4,-4.5 0,-2.6 -1.9,-4.6 -4.4,-4.6 z m 0,-4.1 c 2.5,0 4.4,-2 4.4,-4.5 0,-2.6 -1.9,-4.6 -4.4,-4.6 -2.5,0 -4.4,2 -4.4,4.6 0,2.5 1.9,4.5 4.4,4.5 z"
         id="path299"
         inkscape:connector-curvature="0"
         style="fill:#3c3c3b" /></g><g
       id="g309"><path
         class="st4"
         d="m 421.2,417.7 h -51.6 c -5.7,0 -10.4,4.7 -10.4,10.4 v 51.3 c 0,5.7 4.7,10.4 10.4,10.4 H 429 c 1.4,0 2.5,-1.1 2.5,-2.5 v -59.1 c 0.1,-5.8 -4.6,-10.5 -10.3,-10.5 z"
         id="path303"
         inkscape:connector-curvature="0"
         style="fill:#ffffff;stroke:#3c3c3b;stroke-width:0.42050001;stroke-linejoin:bevel;stroke-miterlimit:10" /><path
         class="st5"
         d="m 369.7,481.2 c -1,0 -1.9,-0.8 -1.9,-1.9 V 428 c 0,-1 0.8,-1.9 1.9,-1.9 h 51.6 c 1,0 1.9,0.8 1.9,1.9 v 53.1 h -53.5 z"
         id="path305"
         inkscape:connector-curvature="0"
         style="fill:none;stroke:#3c3c3b;stroke-width:0.42050001;stroke-linejoin:bevel;stroke-miterlimit:10" /><path
         class="st0"
         d="m 395.4,455.8 c -2.5,0 -4.4,2 -4.4,4.6 0,2.6 1.9,4.5 4.4,4.5 2.5,0 4.4,-2 4.4,-4.5 0,-2.6 -1.8,-4.6 -4.4,-4.6 z m -12.3,0 c -2.5,0 -4.4,2 -4.4,4.6 0,2.6 1.9,4.5 4.4,4.5 2.5,0 4.4,-2 4.4,-4.5 0,-2.6 -1.9,-4.6 -4.4,-4.6 z m 0,-13.3 c -2.5,0 -4.4,2 -4.4,4.6 0,2.6 1.9,4.5 4.4,4.5 2.5,0 4.4,-2 4.4,-4.5 0,-2.6 -1.9,-4.6 -4.4,-4.6 z m 12.3,0 c -2.5,0 -4.4,2 -4.4,4.6 0,2.6 1.9,4.5 4.4,4.5 2.5,0 4.4,-2 4.4,-4.5 0,-2.6 -1.8,-4.6 -4.4,-4.6 z m 12.4,13.3 c -2.5,0 -4.4,2 -4.4,4.6 0,2.6 1.9,4.5 4.4,4.5 2.5,0 4.4,-2 4.4,-4.5 0,-2.6 -1.9,-4.6 -4.4,-4.6 z m 0,-4.1 c 2.5,0 4.4,-2 4.4,-4.5 0,-2.6 -1.9,-4.6 -4.4,-4.6 -2.5,0 -4.4,2 -4.4,4.6 0,2.5 1.9,4.5 4.4,4.5 z"
         id="path307"
         inkscape:connector-curvature="0"
         style="fill:#3c3c3b" /></g><g
       id="g317"><path
         class="st4"
         d="m 804.1,350.3 h -51.6 c -5.7,0 -10.4,4.7 -10.4,10.4 V 412 c 0,5.7 4.7,10.4 10.4,10.4 h 59.4 c 1.4,0 2.5,-1.1 2.5,-2.5 v -59.1 c 0.1,-5.8 -4.6,-10.5 -10.3,-10.5 z"
         id="path311"
         inkscape:connector-curvature="0"
         style="fill:#ffffff;stroke:#3c3c3b;stroke-width:0.42050001;stroke-linejoin:bevel;stroke-miterlimit:10" /><path
         class="st5"
         d="m 752.5,413.8 c -1,0 -1.9,-0.8 -1.9,-1.9 v -51.3 c 0,-1 0.8,-1.9 1.9,-1.9 h 51.6 c 1,0 1.9,0.8 1.9,1.9 v 53.1 h -53.5 z"
         id="path313"
         inkscape:connector-curvature="0"
         style="fill:none;stroke:#3c3c3b;stroke-width:0.42050001;stroke-linejoin:bevel;stroke-miterlimit:10" /><path
         class="st0"
         d="m 778.3,388.4 c -2.5,0 -4.4,2 -4.4,4.6 0,2.6 1.9,4.5 4.4,4.5 2.5,0 4.4,-2 4.4,-4.5 0,-2.6 -1.9,-4.6 -4.4,-4.6 z m -12.3,0 c -2.5,0 -4.4,2 -4.4,4.6 0,2.6 1.9,4.5 4.4,4.5 2.5,0 4.4,-2 4.4,-4.5 0,-2.6 -1.9,-4.6 -4.4,-4.6 z m 0,-13.3 c -2.5,0 -4.4,2 -4.4,4.6 0,2.6 1.9,4.5 4.4,4.5 2.5,0 4.4,-2 4.4,-4.5 0,-2.6 -1.9,-4.6 -4.4,-4.6 z m 12.3,0 c -2.5,0 -4.4,2 -4.4,4.6 0,2.6 1.9,4.5 4.4,4.5 2.5,0 4.4,-2 4.4,-4.5 0,-2.6 -1.9,-4.6 -4.4,-4.6 z m 12.4,13.3 c -2.5,0 -4.4,2 -4.4,4.6 0,2.6 1.9,4.5 4.4,4.5 2.5,0 4.4,-2 4.4,-4.5 0,-2.6 -1.9,-4.6 -4.4,-4.6 z m 0,-4.1 c 2.5,0 4.4,-2 4.4,-4.5 0,-2.6 -1.9,-4.6 -4.4,-4.6 -2.5,0 -4.4,2 -4.4,4.6 0,2.5 1.9,4.5 4.4,4.5 z"
         id="path315"
         inkscape:connector-curvature="0"
         style="fill:#3c3c3b" /></g><g
       id="g325"><path
         class="st4"
         d="m 617.9,496.1 h -51.6 c -5.7,0 -10.4,4.7 -10.4,10.4 v 51.3 c 0,5.7 4.7,10.4 10.4,10.4 h 59.4 c 1.4,0 2.5,-1.1 2.5,-2.5 v -59.1 c 0.1,-5.8 -4.5,-10.5 -10.3,-10.5 z"
         id="path319"
         inkscape:connector-curvature="0"
         style="fill:#ffffff;stroke:#3c3c3b;stroke-width:0.42050001;stroke-linejoin:bevel;stroke-miterlimit:10" /><path
         class="st5"
         d="m 566.4,559.6 c -1,0 -1.9,-0.8 -1.9,-1.9 v -51.3 c 0,-1 0.8,-1.9 1.9,-1.9 H 618 c 1,0 1.9,0.8 1.9,1.9 v 53.1 h -53.5 z"
         id="path321"
         inkscape:connector-curvature="0"
         style="fill:none;stroke:#3c3c3b;stroke-width:0.42050001;stroke-linejoin:bevel;stroke-miterlimit:10" /><path
         class="st0"
         d="m 592.2,534.2 c -2.5,0 -4.4,2 -4.4,4.6 0,2.6 1.9,4.5 4.4,4.5 2.5,0 4.4,-2 4.4,-4.5 0,-2.6 -1.9,-4.6 -4.4,-4.6 z m -12.4,0 c -2.5,0 -4.4,2 -4.4,4.6 0,2.6 1.9,4.5 4.4,4.5 2.5,0 4.4,-2 4.4,-4.5 0,-2.6 -1.9,-4.6 -4.4,-4.6 z m 0,-13.3 c -2.5,0 -4.4,2 -4.4,4.6 0,2.6 1.9,4.5 4.4,4.5 2.5,0 4.4,-2 4.4,-4.5 0,-2.6 -1.9,-4.6 -4.4,-4.6 z m 12.4,0 c -2.5,0 -4.4,2 -4.4,4.6 0,2.6 1.9,4.5 4.4,4.5 2.5,0 4.4,-2 4.4,-4.5 0,-2.6 -1.9,-4.6 -4.4,-4.6 z m 12.3,13.3 c -2.5,0 -4.4,2 -4.4,4.6 0,2.6 1.9,4.5 4.4,4.5 2.5,0 4.4,-2 4.4,-4.5 0,-2.6 -1.9,-4.6 -4.4,-4.6 z m 0,-4.1 c 2.5,0 4.4,-2 4.4,-4.5 0,-2.6 -1.9,-4.6 -4.4,-4.6 -2.5,0 -4.4,2 -4.4,4.6 0,2.5 1.9,4.5 4.4,4.5 z"
         id="path323"
         inkscape:connector-curvature="0"
         style="fill:#3c3c3b" /></g><path
       class="st6"
       d="m 339.3,185.5 c -0.2,1 -0.4,1.9 -0.7,2.9 -2.4,7.5 -7.4,11.9 -15.2,13.2 -0.7,0.1 -1.4,0.2 -2.1,0.2 -15,0 -30.1,0 -45.1,0 -8.9,0 -17.7,-6 -20.2,-15.6 -0.3,-1 -0.5,-2.1 -0.7,-3.2 0,-1.5 0,-3.1 0,-4.6 0.1,-0.2 0.1,-0.3 0.2,-0.5 0.7,-5 2.9,-9.3 6.7,-12.7 1.2,-1.1 2.5,-2 3.6,-2.8 0.2,-2.3 0.1,-4.5 0.5,-6.7 1.7,-9.9 10.9,-18.1 22.7,-17.1 5.8,0.5 10.6,3.2 14.3,7.7 0.4,0.5 0.7,0.5 1.3,0.4 2.2,-0.5 4.4,-0.5 6.5,-0.1 9.5,1.7 15.4,9.9 15.3,18.1 0,0.6 0.1,0.8 0.7,1 5.4,1.9 9.2,5.5 11.3,10.8 0.6,1.4 0.8,3 1.2,4.5 -0.3,1.6 -0.3,3.1 -0.3,4.5 z"
       id="path327"
       inkscape:connector-curvature="0"
       style="opacity:0.9;fill:#ffffff;stroke:#3c3c3b;stroke-width:1.5;stroke-linejoin:bevel;stroke-miterlimit:10" /><path
       class="st6"
       d="m 292.1,433 c -0.2,1 -0.4,1.9 -0.7,2.9 -2.4,7.5 -7.4,11.9 -15.2,13.2 -0.7,0.1 -1.4,0.2 -2.1,0.2 -15,0 -30.1,0 -45.1,0 -8.9,0 -17.7,-6 -20.2,-15.6 -0.3,-1 -0.5,-2.1 -0.7,-3.2 0,-1.5 0,-3.1 0,-4.6 0.1,-0.2 0.1,-0.3 0.2,-0.5 0.7,-5 2.9,-9.3 6.7,-12.7 1.2,-1.1 2.5,-2 3.6,-2.8 0.2,-2.3 0.1,-4.5 0.5,-6.7 1.7,-9.9 10.9,-18.1 22.7,-17.1 5.8,0.5 10.6,3.2 14.3,7.7 0.4,0.5 0.7,0.5 1.3,0.4 2.2,-0.5 4.4,-0.5 6.5,-0.1 9.5,1.7 15.4,9.9 15.3,18.1 0,0.6 0.1,0.8 0.7,1 5.4,1.9 9.2,5.5 11.3,10.8 0.6,1.4 0.8,3 1.2,4.5 -0.3,1.7 -0.3,3.1 -0.3,4.5 z"
       id="path329"
       inkscape:connector-curvature="0"
       style="opacity:0.9;fill:#ffffff;stroke:#3c3c3b;stroke-width:1.5;stroke-linejoin:bevel;stroke-miterlimit:10" /><path
       class="st6"
       d="m 684.8,425 c -0.2,1 -0.4,1.9 -0.7,2.9 -2.4,7.5 -7.4,11.9 -15.2,13.2 -0.7,0.1 -1.4,0.2 -2.1,0.2 -15,0 -30.1,0 -45.1,0 -8.9,0 -17.7,-6 -20.2,-15.6 -0.3,-1 -0.5,-2.1 -0.7,-3.2 0,-1.5 0,-3.1 0,-4.6 0.1,-0.2 0.1,-0.3 0.2,-0.5 0.7,-5 2.9,-9.3 6.7,-12.7 1.2,-1.1 2.5,-2 3.6,-2.8 0.2,-2.3 0.1,-4.5 0.5,-6.7 1.7,-9.9 10.9,-18.1 22.7,-17.1 5.8,0.5 10.6,3.2 14.3,7.7 0.4,0.5 0.7,0.5 1.3,0.4 2.2,-0.5 4.4,-0.5 6.5,-0.1 9.5,1.7 15.4,9.9 15.3,18.1 0,0.6 0.1,0.8 0.7,1 5.4,1.9 9.2,5.5 11.3,10.8 0.6,1.4 0.8,3 1.2,4.5 -0.3,1.6 -0.3,3.1 -0.3,4.5 z"
       id="path331"
       inkscape:connector-curvature="0"
       style="opacity:0.9;fill:#ffffff;stroke:#3c3c3b;stroke-width:1.5;stroke-linejoin:bevel;stroke-miterlimit:10" /><g
       id="g339"><path
         class="st4"
         d="m 767.9,477.1 h -51.6 c -5.7,0 -10.4,4.7 -10.4,10.4 v 51.3 c 0,5.7 4.7,10.4 10.4,10.4 h 59.4 c 1.4,0 2.5,-1.1 2.5,-2.5 v -59.1 c 0.1,-5.8 -4.5,-10.5 -10.3,-10.5 z"
         id="path333"
         inkscape:connector-curvature="0"
         style="fill:#ffffff;stroke:#3c3c3b;stroke-width:0.42050001;stroke-linejoin:bevel;stroke-miterlimit:10" /><path
         class="st5"
         d="m 716.4,540.6 c -1,0 -1.9,-0.8 -1.9,-1.9 v -51.3 c 0,-1 0.8,-1.9 1.9,-1.9 H 768 c 1,0 1.9,0.8 1.9,1.9 v 53.1 h -53.5 z"
         id="path335"
         inkscape:connector-curvature="0"
         style="fill:none;stroke:#3c3c3b;stroke-width:0.42050001;stroke-linejoin:bevel;stroke-miterlimit:10" /><path
         class="st0"
         d="m 742.2,515.2 c -2.5,0 -4.4,2 -4.4,4.6 0,2.6 1.9,4.5 4.4,4.5 2.5,0 4.4,-2 4.4,-4.5 0,-2.6 -1.9,-4.6 -4.4,-4.6 z m -12.4,0 c -2.5,0 -4.4,2 -4.4,4.6 0,2.6 1.9,4.5 4.4,4.5 2.5,0 4.4,-2 4.4,-4.5 0,-2.6 -1.9,-4.6 -4.4,-4.6 z m 0,-13.3 c -2.5,0 -4.4,2 -4.4,4.6 0,2.6 1.9,4.5 4.4,4.5 2.5,0 4.4,-2 4.4,-4.5 0,-2.6 -1.9,-4.6 -4.4,-4.6 z m 12.4,0 c -2.5,0 -4.4,2 -4.4,4.6 0,2.6 1.9,4.5 4.4,4.5 2.5,0 4.4,-2 4.4,-4.5 0,-2.6 -1.9,-4.6 -4.4,-4.6 z m 12.3,13.3 c -2.5,0 -4.4,2 -4.4,4.6 0,2.6 1.9,4.5 4.4,4.5 2.5,0 4.4,-2 4.4,-4.5 0,-2.6 -1.9,-4.6 -4.4,-4.6 z m 0,-4.1 c 2.5,0 4.4,-2 4.4,-4.5 0,-2.6 -1.9,-4.6 -4.4,-4.6 -2.5,0 -4.4,2 -4.4,4.6 0,2.5 1.9,4.5 4.4,4.5 z"
         id="path337"
         inkscape:connector-curvature="0"
         style="fill:#3c3c3b" /></g><line
       class="st7"
       x1="631.20001"
       y1="124.2"
       x2="578.5"
       y2="170.2"
       id="line341"
       style="opacity:0.6;fill:none;stroke:#009fe3;stroke-width:10;stroke-linejoin:bevel;stroke-miterlimit:10;stroke-dasharray:6" /><polyline
       class="st2"
       points="250.1,423.8 424.7,300.8 297.3,176.8  "
       id="polyline343"
       style="opacity:0.6;fill:none;stroke:#009fe3;stroke-width:5;stroke-linejoin:bevel;stroke-miterlimit:10" /><line
       class="st2"
       x1="642.79999"
       y1="413.79999"
       x2="424.70001"
       y2="300.79999"
       id="line345"
       style="opacity:0.6;fill:none;stroke:#009fe3;stroke-width:5;stroke-linejoin:bevel;stroke-miterlimit:10" /><path
       class="st6"
       d="m 512.9,323.8 c -0.4,1.9 -0.7,3.8 -1.3,5.7 -4.8,14.9 -14.8,23.8 -30.3,26.4 -1.4,0.2 -2.8,0.3 -4.2,0.3 -30,0 -59.9,-0.1 -89.9,0.1 -17.8,0.1 -35.2,-12 -40.3,-31 -0.6,-2.1 -0.9,-4.2 -1.4,-6.3 0,-3.1 0,-6.1 0,-9.2 0.1,-0.3 0.3,-0.6 0.3,-0.9 1.4,-10 5.8,-18.5 13.3,-25.3 2.4,-2.1 5,-3.9 7.1,-5.5 0.3,-4.6 0.2,-9 1,-13.3 3.4,-19.8 21.8,-36.1 45.2,-34 11.6,1.1 21.1,6.3 28.5,15.3 0.8,0.9 1.5,1 2.5,0.8 4.3,-0.9 8.7,-0.9 13,-0.2 18.9,3.4 30.7,19.8 30.4,36.1 0,1.1 0.3,1.6 1.3,2 10.8,3.7 18.2,11 22.4,21.5 1.1,2.8 1.6,5.9 2.4,8.9 0,2.9 0,5.7 0,8.6 z"
       id="path347"
       inkscape:connector-curvature="0"
       style="opacity:0.9;fill:#ffffff;stroke:#3c3c3b;stroke-width:1.5;stroke-linejoin:bevel;stroke-miterlimit:10" /><line
       class="st8"
       x1="571.59998"
       y1="176.8"
       x2="424.70001"
       y2="300.79999"
       id="line349"
       style="opacity:0.6;fill:none;stroke:#009fe3;stroke-width:10;stroke-linecap:round;stroke-linejoin:bevel;stroke-miterlimit:10" /></g></svg>