<?xml version="1.0" encoding="utf-8"?>
<!-- Generator: Adobe Illustrator 21.1.0, SVG Export Plug-In . SVG Version: 6.00 Build 0)  -->
<svg version="1.1" xmlns="http://www.w3.org/2000/svg" xmlns:xlink="http://www.w3.org/1999/xlink" x="0px" y="0px"
	 viewBox="0 0 1249.4 468" style="enable-background:new 0 0 1249.4 468;" xml:space="preserve">
<style type="text/css">
	.st0{fill:none;stroke:#D6D6D5;stroke-width:2;stroke-miterlimit:10;}
	.st1{fill:#EBE722;stroke:#D6D6D5;stroke-width:2;stroke-miterlimit:10;}
	.st2{fill:none;stroke:#231F20;stroke-width:2;stroke-miterlimit:10;}
	.st3{fill:#EBE722;stroke:#231F20;stroke-width:2;stroke-miterlimit:10;}
	.st4{fill:#F7F7F7;stroke:#231F20;stroke-width:2;stroke-miterlimit:10;}
	.st5{fill:#231F20;}
	.st6{fill:#D6D6D5;}
</style>
<g id="Layer_4">
	<polyline class="st0" points="542.7,458.5 542.7,109.5 633.7,109.5 633.7,457.5 	"/>
	<polygon class="st0" points="559,146.4 559,120.4 581.3,120.4 581.3,146.5 	"/>
	<polygon class="st0" points="596,146.4 596,120.4 618.3,120.4 618.3,146.5 	"/>
	<polygon class="st0" points="559,182.8 559,156.8 581.3,156.8 581.3,182.8 	"/>
	<polygon class="st0" points="596,182.8 596,156.8 618.3,156.8 618.3,182.8 	"/>
	<polygon class="st0" points="559,219.5 559,193.5 581.3,193.5 581.3,219.5 	"/>
	<polygon class="st1" points="596,219.5 596,193.5 618.3,193.5 618.3,219.5 	"/>
	<polygon class="st0" points="559,255.9 559,229.9 581.3,229.9 581.3,255.9 	"/>
	<polygon class="st0" points="596,255.9 596,229.9 618.3,229.9 618.3,255.9 	"/>
	<polygon class="st0" points="559,292.5 559,266.5 581.3,266.5 581.3,292.5 	"/>
	<polygon class="st0" points="596,292.5 596,266.5 618.3,266.5 618.3,292.5 	"/>
	<polygon class="st0" points="559,328.9 559,302.9 581.3,302.9 581.3,328.9 	"/>
	<polygon class="st0" points="596,328.9 596,302.9 618.3,302.9 618.3,328.9 	"/>
	<polygon class="st0" points="559,365.6 559,339.6 581.3,339.6 581.3,365.6 	"/>
	<polygon class="st0" points="596,365.6 596,339.6 618.3,339.6 618.3,365.6 	"/>
	<polygon class="st0" points="559,402 559,376 581.3,376 581.3,402 	"/>
	<polygon class="st0" points="596,402 596,376 618.3,376 618.3,402 	"/>
	<polygon class="st0" points="559,438.3 559,412.3 581.3,412.3 581.3,438.3 	"/>
	<polygon class="st0" points="596,438.3 596,412.3 618.3,412.3 618.3,438.3 	"/>
</g>
<g id="Слой_31">
	<polyline class="st0" points="713.4,458.5 713.4,216.2 804.4,216.2 804.4,457.9 	"/>
	<polygon class="st0" points="729.6,253.1 729.6,227.1 752,227.1 752,253.1 	"/>
	<polygon class="st1" points="766.6,253.1 766.6,227.1 789,227.1 789,253.1 	"/>
	<polygon class="st0" points="729.6,289.5 729.6,263.5 752,263.5 752,289.5 	"/>
	<polygon class="st0" points="766.6,289.5 766.6,263.5 789,263.5 789,289.5 	"/>
	<polygon class="st1" points="729.6,326.2 729.6,300.2 752,300.2 752,326.2 	"/>
	<polygon class="st0" points="766.6,326.2 766.6,300.2 789,300.2 789,326.2 	"/>
	<polygon class="st0" points="729.6,362.6 729.6,336.6 752,336.6 752,362.6 	"/>
	<polygon class="st0" points="766.6,362.6 766.6,336.6 789,336.6 789,362.6 	"/>
	<polygon class="st0" points="729.6,399.2 729.6,373.2 752,373.2 752,399.2 	"/>
	<polygon class="st0" points="729.6,435.6 729.6,409.6 752,409.6 752,435.6 	"/>
	<polygon class="st0" points="766.6,399.2 766.6,373.2 789,373.2 789,399.2 	"/>
	<polygon class="st0" points="766.6,435.6 766.6,409.6 789,409.6 789,435.6 	"/>
</g>
<g id="Слой_33">
	<polyline class="st0" points="1016.8,458 1016.8,278.5 1114.8,278.5 1114.8,458 	"/>
	<polygon class="st0" points="1024.8,303.7 1024.8,285.1 1041.1,285.1 1041.1,303.8 	"/>
	<polygon class="st0" points="1046.4,303.7 1046.4,285.1 1062.8,285.1 1062.8,303.8 	"/>
	<polygon class="st0" points="1068.1,303.7 1068.1,285.1 1084.5,285.1 1084.5,303.7 	"/>
	<polygon class="st0" points="1089.9,303.6 1089.9,285 1106.3,285 1106.3,303.7 	"/>
	<polygon class="st0" points="1024.8,327.8 1024.8,309.3 1041.1,309.3 1041.1,327.9 	"/>
	<polygon class="st1" points="1046.5,327.8 1046.5,309.2 1062.8,309.2 1062.8,327.9 	"/>
	<polygon class="st0" points="1068.2,327.8 1068.2,309.2 1084.5,309.2 1084.5,327.9 	"/>
	<polygon class="st0" points="1090,327.8 1090,309.2 1106.3,309.2 1106.3,327.8 	"/>
	<polygon class="st0" points="1024.8,352 1024.8,333.4 1041.1,333.4 1041.1,352.1 	"/>
	<polygon class="st1" points="1046.5,352 1046.5,333.4 1062.8,333.4 1062.8,352.1 	"/>
	<polygon class="st1" points="1068.2,352 1068.2,333.4 1084.5,333.4 1084.5,352 	"/>
	<polygon class="st0" points="1090,351.9 1090,333.3 1106.3,333.3 1106.3,352 	"/>
	<polygon class="st0" points="1068.2,376.1 1068.2,357.5 1084.6,357.5 1084.6,376.2 	"/>
	<polygon class="st0" points="1090,376 1090,357.5 1106.3,357.5 1106.3,376.1 	"/>
	<polygon class="st0" points="1068.2,400.2 1068.2,381.7 1084.6,381.7 1084.6,400.3 	"/>
	<polygon class="st0" points="1090,400.2 1090,381.6 1106.4,381.6 1106.4,400.3 	"/>
	<polygon class="st1" points="1068.2,424.4 1068.2,405.8 1084.6,405.8 1084.6,424.5 	"/>
	<polygon class="st0" points="1090,424.4 1090,405.8 1106.3,405.8 1106.3,424.5 	"/>
	<polygon class="st0" points="1068.3,448.5 1068.3,429.9 1084.6,429.9 1084.6,448.6 	"/>
	<polygon class="st0" points="1090.1,448.5 1090.1,429.9 1106.4,429.9 1106.4,448.6 	"/>
	<polygon class="st0" points="1024.8,376.1 1024.8,357.5 1041.1,357.5 1041.1,376.2 	"/>
	<polygon class="st0" points="1046.6,376.1 1046.6,357.5 1062.9,357.5 1062.9,376.2 	"/>
	<polygon class="st0" points="1024.8,400.3 1024.8,381.7 1041.1,381.7 1041.1,400.4 	"/>
	<polygon class="st0" points="1046.6,400.2 1046.6,381.7 1062.9,381.7 1062.9,400.3 	"/>
	<polygon class="st0" points="1024.8,424.4 1024.8,405.9 1041.1,405.9 1041.1,424.5 	"/>
	<polygon class="st0" points="1046.6,424.4 1046.6,405.8 1062.9,405.8 1062.9,424.5 	"/>
	<polygon class="st0" points="1024.9,448.6 1024.9,430 1041.2,430 1041.2,448.6 	"/>
	<polygon class="st0" points="1046.6,448.5 1046.6,429.9 1063,429.9 1063,448.6 	"/>
</g>
<g id="Слой_34">
	<polyline class="st0" points="134.8,458.5 134.8,352.3 219.9,352.3 219.9,458.5 	"/>
	<rect x="146.6" y="363.4" class="st0" width="24.5" height="20.2"/>
	<rect x="181.6" y="363.4" class="st0" width="24.5" height="20.2"/>
	<rect x="146.6" y="395.7" class="st0" width="24.5" height="20.2"/>
	<rect x="181.6" y="395.7" class="st0" width="24.5" height="20.2"/>
	<rect x="146.6" y="427.4" class="st0" width="24.5" height="20.2"/>
	<rect x="181.6" y="427.4" class="st0" width="24.5" height="20.2"/>
</g>
<g id="Layer_10">
	<g id="Layer_7">
		<rect x="348.5" y="446.1" class="st2" width="72.5" height="12.4"/>
	</g>
	<g id="Layer_8">
		<line class="st2" x1="352.1" y1="446.1" x2="374.6" y2="426.8"/>
		<line class="st2" x1="417.3" y1="446.1" x2="394.8" y2="426.8"/>
	</g>
	<g id="Layer_5">
		<rect x="290.5" y="283.3" class="st2" width="190.2" height="143.5"/>
	</g>
	<g id="Layer_9">
		<g id="Layer_6">
			<rect x="304.5" y="305.3" class="st3" width="162.2" height="97.8"/>
		</g>
	</g>
</g>
<g id="Layer_2">
	<line class="st2" x1="51" y1="458.5" x2="1200.5" y2="458.5"/>
</g>
<g id="Layer_3">
	<path class="st4" d="M731.3,371H625.8v71.5h154.8V413C780.5,413,783.7,371,731.3,371z"/>
	<line class="st2" x1="625.8" y1="399.3" x2="778.8" y2="399.3"/>
	<line class="st2" x1="729.8" y1="371.5" x2="729.8" y2="398.8"/>
	<circle class="st5" cx="654.6" cy="442.7" r="14.9"/>
	<circle class="st5" cx="744.8" cy="442.7" r="14.9"/>
</g>
<g id="Layer_15">
	<g id="Layer_12">
		<g>
			<path class="st2" d="M328.9,91.7c-7.4,0-13.3-6-13.3-13.4c0-7.4,6-13.4,13.4-13.4h0.6h110.2c7.4,0,13.4,6,13.4,13.4
				c0,7.4-6,13.4-13.4,13.4L328.9,91.7z"/>
		</g>
	</g>
	<g id="Layer_11">
		<polyline class="st2" points="329.8,78.3 329.8,40.5 339.6,40.5 349.4,74.3 		"/>
	</g>
	<g id="Layer_11_copy">
		<polyline class="st2" points="388.9,78.4 388.9,10.5 398.7,10.5 413.9,73.6 		"/>
	</g>
	<g id="Layer_11_copy_2">
		<polyline class="st2" points="388.9,91.7 388.9,146.3 398.7,146.3 411.9,91.7 		"/>
	</g>
	<g id="Layer_16">
		<line class="st0" x1="275.1" y1="78.3" x2="190.5" y2="78.3"/>
		<line class="st0" x1="232.8" y1="109.4" x2="123.6" y2="109.4"/>
	</g>
</g>
<g id="Слой_27">
	<g id="Layer_17">
		<circle class="st2" cx="913.3" cy="309.8" r="15.5"/>
	</g>
	<g id="Layer_18">
		<line class="st2" x1="888.5" y1="458.5" x2="910.1" y2="325.3"/>
	</g>
	<g id="Layer_18_copy">
		<line class="st2" x1="937.3" y1="458.5" x2="915.7" y2="325.3"/>
	</g>
	<g id="Слой_20">
		<line class="st2" x1="919.8" y1="350.7" x2="903.2" y2="367.9"/>
	</g>
	<g id="Слой_20__x28_копия_x29_">
		<line class="st2" x1="922.7" y1="368.6" x2="900.2" y2="391.9"/>
	</g>
	<g id="Слой_20__x28_копия2_x29_">
		<line class="st2" x1="926.5" y1="390.4" x2="896" y2="422.1"/>
	</g>
	<g id="Слой_20__x28_копия3_x29_">
		<line class="st2" x1="931" y1="421.8" x2="896" y2="458"/>
	</g>
	<g id="Слой_24">
		<line class="st2" x1="903.2" y1="367.9" x2="922.6" y2="367.9"/>
	</g>
	<g id="Слой_25">
		<line class="st2" x1="899.3" y1="391.6" x2="926.2" y2="391.6"/>
	</g>
	<g id="Слой_26">
		<line class="st2" x1="894.7" y1="422.1" x2="931" y2="422.1"/>
	</g>
	<g id="Слой_28">
		<path class="st0" d="M886.8,265.7c6.8-13.2,46.5-13.2,53.9,0.2"/>
	</g>
	<g id="Слой_28__x28_копия_x29_">
		<path class="st0" d="M875.2,239.8c9.8-18.9,66.5-18.9,77,0.3"/>
	</g>
	<g id="Слой_28__x28_копия2_x29_">
		<path class="st0" d="M866.4,212.4c12-23.2,81.7-23.2,94.6,0.4"/>
	</g>
</g>
<g id="Слой_32">
	<g>
		<g>
			<path class="st6" d="M1209.4,74.4c11.8-5,25.8-0.7,27.8,13.2c0.7,4.8-0.7,10.1-4.8,13c-5.9,4.1-14,2.1-20.2-0.1
				c-0.4-0.1-1,0.1-1.1,0.5c-9.7,21-46,6.6-55.3-8c-0.3-0.5-0.9-0.6-1.4-0.4c-10.6,6.2-24,5.9-35.3,1.6
				c-9.9-3.8-20.9-12.6-17.9-24.5c3.9-15.1,21.2-22.6,35.3-23.8c13.7-1.1,29.3,1.1,41.9,6.9c3.4,1.5,30.7,17.2,27.8,21
				c-0.7,0.9,0.1,2.1,1.2,1.6C1208.1,75,1208.8,74.7,1209.4,74.4c1.2-0.5,0.1-2.3-1-1.7c-0.7,0.3-1.3,0.6-2,0.9
				c0.4,0.5,0.8,1,1.2,1.6c4.9-6.2-18.1-18.5-21.6-20.5c-12.9-7.6-28.4-10.9-43.4-10.9c-16.3-0.1-34.4,5.8-41.9,21.6
				c-5.3,11.1,1.1,21.6,10.8,27.4c12.8,7.7,30.7,9.3,43.9,1.6c-0.5-0.1-0.9-0.2-1.4-0.4c6.3,10.1,19.4,16.1,30.7,18.3
				c5.7,1.1,12,1.4,17.5-0.6c2.2-0.8,4.2-1.9,5.9-3.4c1-0.9,1.9-1.8,2.6-2.9c1.4-1.9,0.8-2.3,3-2.2c5.4,0.4,9.7,2.7,15.2,1.1
				c3.4-1,6.3-3,8.1-6.1c3.8-6.3,2.2-14.8-2-20.5c-6.5-8.8-17.4-9.1-26.8-5.1C1207.2,73.2,1208.2,74.9,1209.4,74.4z"/>
		</g>
	</g>
</g>
<g id="Слой_35">
	<g>
		<g>
			<path class="st6" d="M773.1,34.7c9.1-3.8,19.9-1.1,21.8,9.7c0.6,3.7-0.2,7.8-3.2,10.2c-4.5,3.7-11.3,2-16.2,0.2
				c-0.4-0.1-1,0.1-1.1,0.5c-7.7,16.4-36,5.1-43.3-6.3c-0.3-0.5-0.9-0.6-1.4-0.4c-10.4,6.1-24.9,4.5-34.5-2.3
				c-4.6-3.3-8.3-8.4-7.4-14.3c1.1-6.9,7.5-13,13.4-16c13.3-6.9,31.2-4.3,44.8,0.5c3.3,1.2,27,14,24.4,17.5
				c-0.7,0.9,0.6,1.7,1.4,1.4c0.5-0.2,1-0.5,1.6-0.7c1.2-0.5,0.1-2.3-1-1.7c-0.5,0.2-1,0.5-1.6,0.7c0.5,0.5,0.9,0.9,1.4,1.4
				c3.7-4.9-14-14.4-16.7-16c-10.5-6.2-23.1-9-35.2-9c-12.9,0-27,4.7-33,17.2c-4.2,8.8,0.8,17.2,8.5,21.9
				c10.2,6.2,24.4,7.4,34.9,1.3c-0.5-0.1-0.9-0.2-1.4-0.4c5.2,8.1,15.6,12.9,24.7,14.6c4.4,0.8,9.2,1,13.5-0.5
				c1.7-0.6,3.4-1.5,4.8-2.7c1.5-1.3,2.6-3.9,4.3-4.1c1.9-0.1,4.6,1.2,6.6,1.4c1.9,0.1,3.8,0,5.6-0.5c2.7-0.8,5-2.4,6.5-4.8
				c3-4.9,1.9-11.6-1.3-16.1c-5.1-7.2-13.9-7.7-21.5-4.6C771.4,33.3,771.9,35.2,773.1,34.7z"/>
		</g>
	</g>
</g>
<g id="Слой_36">
	<g>
		<g>
			<path class="st6" d="M78.3,212.8c6.7-2.8,14.7-1,16.2,7.1c1.7,9.3-7.8,10.1-14.4,7.7c-0.4-0.1-0.9,0.1-1.1,0.5
				c-5.9,12.2-26.8,3.8-32.4-4.8c-0.3-0.5-0.9-0.6-1.4-0.4c-7.7,4.4-18.3,3.4-25.6-1.6c-10.5-7.2-4.3-19,5.6-23.3
				c9.9-4.4,22.6-2.6,32.5,1c2.5,0.9,20,10.3,18.3,12.9c-0.6,0.9,0.5,1.8,1.4,1.4c0.4-0.2,0.8-0.4,1.2-0.6c1.2-0.5,0.1-2.3-1-1.7
				c-0.4,0.2-0.8,0.4-1.2,0.6c0.5,0.5,0.9,0.9,1.4,1.4c2.8-4.1-10.2-10.9-12.5-12.3c-8.2-4.9-17.9-7.1-27.4-7
				c-9.8,0.1-20.6,3.8-25,13.4c-3,6.7,0.7,13,6.5,16.6c7.9,4.8,18.7,5.7,26.8,1c-0.5-0.1-0.9-0.2-1.4-0.4c5,7.6,16.3,12.3,25.3,11.6
				c2.1-0.2,4.1-0.7,5.9-1.7c1.6-0.9,2.9-3.6,4.2-4.2c1.2-0.5,4.8,1.1,6.4,1.1c1.6,0,3.2-0.2,4.6-0.8c5.5-2.3,6.4-8.9,4.2-13.8
				c-3.3-7.1-11-8.3-17.7-5.6C76.6,211.4,77.1,213.3,78.3,212.8z"/>
		</g>
	</g>
</g>
</svg>
