<?xml version="1.0" encoding="UTF-8" standalone="no"?>
<svg
   xmlns:dc="http://purl.org/dc/elements/1.1/"
   xmlns:cc="http://creativecommons.org/ns#"
   xmlns:rdf="http://www.w3.org/1999/02/22-rdf-syntax-ns#"
   xmlns:svg="http://www.w3.org/2000/svg"
   xmlns="http://www.w3.org/2000/svg"
   xmlns:xlink="http://www.w3.org/1999/xlink"
   xmlns:sodipodi="http://sodipodi.sourceforge.net/DTD/sodipodi-0.dtd"
   xmlns:inkscape="http://www.inkscape.org/namespaces/inkscape"
   id="Layer_1"
   viewBox="-267 359.7 76.7 75.3"
   version="1.1"
   sodipodi:docname="smart-city-icon.svg"
   inkscape:version="0.92.0 r15299">
  <metadata
     id="metadata5243">
    <rdf:RDF>
      <cc:Work
         rdf:about="">
        <dc:format>image/svg+xml</dc:format>
        <dc:type
           rdf:resource="http://purl.org/dc/dcmitype/StillImage" />
      </cc:Work>
    </rdf:RDF>
  </metadata>
  <defs
     id="defs5241" />
  <sodipodi:namedview
     pagecolor="#ffffff"
     bordercolor="#666666"
     borderopacity="1"
     objecttolerance="10"
     gridtolerance="10"
     guidetolerance="10"
     inkscape:pageopacity="0"
     inkscape:pageshadow="2"
     inkscape:window-width="1600"
     inkscape:window-height="837"
     id="namedview5239"
     showgrid="false"
     inkscape:zoom="3.13413"
     inkscape:cx="38.349998"
     inkscape:cy="37.650002"
     inkscape:window-x="-8"
     inkscape:window-y="-8"
     inkscape:window-maximized="1"
     inkscape:current-layer="Layer_1" />
  <style
     id="style5217">.st0{display:none}.st1{display:inline}.st2,.st3{fill:none;stroke:#fff;stroke-miterlimit:10}.st2{clip-path:url(#SVGID_2_);stroke-linejoin:bevel;stroke-width:1.345}.st3{stroke-width:1.7}</style>
  <g
     class="st0 st1"
     id="g5227">
    <defs
       id="defs5220">
      <path
         id="SVGID_1_"
         d="M-532.5 727.9h72.6v60.5h-72.6z" />
    </defs>
    <clipPath
       id="SVGID_2_">
      <use
         xlink:href="#SVGID_1_"
         overflow="visible"
         id="use5222" />
    </clipPath>
    <circle
       class="st2"
       cx="-475.2"
       cy="741"
       r="6.2"
       clip-path="url(#SVGID_2_)"
       id="circle5225" />
  </g>
  <g
     id="XMLID_1_"
     style="fill:#0000ff">
    <circle
       id="XMLID_13_"
       class="st3"
       cx="-228.3"
       cy="380"
       r="1.7"
       style="fill:#0000ff" />
    <path
       id="XMLID_12_"
       class="st3"
       d="M-233.1 375.2c1.2-1.2 2.9-2 4.7-2s3.5.7 4.7 2"
       style="fill:#0000ff" />
    <path
       id="XMLID_11_"
       class="st3"
       d="M-236.6 371.8c2.1-2.1 5-3.4 8.3-3.4 3.2 0 6.2 1.3 8.3 3.4"
       style="fill:#0000ff" />
    <path
       id="XMLID_2_"
       class="st3"
       d="M-240.3 368c3.1-3.1 7.3-5 12-5s8.9 1.9 12 5"
       style="fill:#0000ff" />
  </g>
  <path
     class="st3"
     d="M-237.2 397.2h17.7v34.3h-17.7zm14.7 0h-11.7v-5.8h11.7zm-5.8-5.8V385m24.2 12.5V390m-15.4 19.2h10.8v22.3h-10.8zm10.8-12h9.1v34.3h-9.1zm-39.5 12h10.8v22.3h-10.8zm-9.6-11.7h9.1v34.3h-9.1zm2-3.3h5.2v3.2h-5.2z"
     id="path5234"
     style="fill:#0000ff" />
  <path
     class="st3"
     d="M-254.7 402h2.8v2.8h-2.8zm21.2 2.4h1.4v1.4h-1.4zm0 4.8h1.4v1.4h-1.4zm0 5h1.4v1.4h-1.4zm0 5h1.4v1.4h-1.4zm0 4.8h1.4v1.4h-1.4zm5.8-19.6h1.4v1.4h-1.4zm0 4.8h1.4v1.4h-1.4zm0 5h1.4v1.4h-1.4zm0 5h1.4v1.4h-1.4zm0 4.8h1.4v1.4h-1.4zm11.4-9h1.4v1.4h-1.4zm0 4.9h1.4v1.4h-1.4zm0 4.9h1.4v1.4h-1.4zm-27.9-9.8h1.4v1.4h-1.4zm0 4.9h1.4v1.4h-1.4zm0 4.9h1.4v1.4h-1.4zm-10.5-17.3h2.8v2.8h-2.8zm0 5.7h2.8v2.8h-2.8zm0 5.8h2.8v2.8h-2.8zm0 5.8h2.8v2.8h-2.8zm49.1-24h2.8v26.8h-2.8z"
     id="path5236"
     style="fill:#0000ff" />
</svg>
