<?xml version="1.0" encoding="UTF-8" standalone="no"?>
<svg
   xmlns:dc="http://purl.org/dc/elements/1.1/"
   xmlns:cc="http://creativecommons.org/ns#"
   xmlns:rdf="http://www.w3.org/1999/02/22-rdf-syntax-ns#"
   xmlns:svg="http://www.w3.org/2000/svg"
   xmlns="http://www.w3.org/2000/svg"
   xmlns:xlink="http://www.w3.org/1999/xlink"
   xmlns:sodipodi="http://sodipodi.sourceforge.net/DTD/sodipodi-0.dtd"
   xmlns:inkscape="http://www.inkscape.org/namespaces/inkscape"
   viewBox="0 0 52.2 52.1"
   version="1.1"
   id="svg4495"
   sodipodi:docname="smart-energy-icon-blue.svg"
   inkscape:version="0.92.0 r15299">
  <metadata
     id="metadata4499">
    <rdf:RDF>
      <cc:Work
         rdf:about="">
        <dc:format>image/svg+xml</dc:format>
        <dc:type
           rdf:resource="http://purl.org/dc/dcmitype/StillImage" />
        <dc:title></dc:title>
      </cc:Work>
    </rdf:RDF>
  </metadata>
  <sodipodi:namedview
     pagecolor="#ffffff"
     bordercolor="#666666"
     borderopacity="1"
     objecttolerance="10"
     gridtolerance="10"
     guidetolerance="10"
     inkscape:pageopacity="0"
     inkscape:pageshadow="2"
     inkscape:window-width="1600"
     inkscape:window-height="837"
     id="namedview4497"
     showgrid="false"
     inkscape:zoom="11.669866"
     inkscape:cx="26.1"
     inkscape:cy="26.049999"
     inkscape:window-x="-8"
     inkscape:window-y="-8"
     inkscape:window-maximized="1"
     inkscape:current-layer="svg4495" />
  <defs
     id="defs4486">
    <path
       id="a"
       d="M15.5 8h22.1v43.8H15.5z" />
  </defs>
  <clipPath
     id="b">
    <use
       xlink:href="#a"
       overflow="visible"
       id="use4488" />
  </clipPath>
  <path
     d="M18 32c-1 0-2-.6-2.4-1.7-.5-1.3.2-2.8 1.5-3.3l17-6.5c1.3-.5 2.8.2 3.3 1.5.2.6.2 1.3-.1 1.9-.3.6-.8 1.1-1.4 1.3L23.2 30c-.3.1-.7 0-.8-.4-.1-.3 0-.7.4-.8L35.5 24c.7-.3 1.1-1 .8-1.7-.2-.7-1-1-1.7-.8l-17 6.5c-.7.3-1.1 1-.8 1.7.3.7 1 1 1.7.8l1.1-.4c.3-.1.7 0 .8.4.1.3 0 .7-.4.8l-1.1.4c-.3.2-.6.3-.9.3m0-7.7c-1.1 0-2-.7-2.4-1.7-.2-.6-.2-1.3.1-1.9.3-.6.8-1.1 1.4-1.3l17-6.5c.3-.1.6-.2.9-.2 1.1 0 2 .7 2.4 1.7.5 1.3-.2 2.8-1.5 3.3l-17 6.5c-.3.1-.6.1-.9.1M35.1 14c-.2 0-.3 0-.5.1l-17 6.5c-.3.1-.6.4-.8.7-.2.3-.2.7 0 1 .2.5.7.9 1.2.9.2 0 .3 0 .5-.1l17-6.5c.7-.3 1.1-1 .8-1.7-.1-.5-.6-.9-1.2-.9M18 16.6c-1.1 0-2-.7-2.4-1.7-.5-1.3.2-2.8 1.5-3.3l9.2-3.5c.4 0 .7-.1 1-.1 1.1 0 2 .7 2.4 1.7.2.6.2 1.3-.1 1.9-.3.6-.8 1.1-1.4 1.3L19 16.4c-.4.2-.7.2-1 .2m9.3-7.4c-.2 0-.3 0-.5.1l-9.2 3.5c-.7.3-1.1 1-.8 1.7.2.5.7.9 1.2.9.2 0 .3 0 .5-.1l9.2-3.5c.3-.1.6-.4.8-.7.1-.3.2-.7 0-1-.2-.5-.7-.9-1.2-.9m2.3 39.3h-6.1c-1.8 0-3.2-1.4-3.2-3.2v-8.2c0-.9.4-1.8 1.1-2.4.3-.2.6-.2.9.1.2.3.2.6-.1.9-.4.4-.7.9-.7 1.5v8.2c0 1.1.9 2 2 2h6.1c1.1 0 2-.9 2-2v-8.2c0-.8-.2-1.3-.7-1.6-.1 0-.3.2-.5.3-1 .6-2.6 1.6-5.7 1-.3-.1-.6-.4-.5-.7.1-.3.4-.6.7-.5 2.6.5 4-.4 4.9-.9.6-.3 1.1-.7 1.7-.3.9.5 1.3 1.4 1.3 2.7v8.2c0 1.7-1.4 3.1-3.2 3.1"
     clip-path="url(#b)"
     fill="#fff"
     id="path4491"
     style="fill:#0000ff" />
  <path
     d="M26.6 51.8c-2.1 0-3.9-1.7-3.9-3.9 0-.3.3-.6.6-.6s.6.3.6.6c0 1.5 1.2 2.7 2.7 2.7 1.5 0 2.7-1.2 2.7-2.7 0-.3.3-.6.6-.6s.6.3.6.6c-.1 2.2-1.8 3.9-3.9 3.9m-4.4-16.3c-.2 0-.4-.1-.5-.3l-2.4-4.1c-.2-.3-.1-.7.2-.8.3-.2.7-.1.8.2l2.4 4.1c.2.3.1.7-.2.8-.1.1-.2.1-.3.1m3.4-1.3c-.2 0-.4-.1-.5-.3l-2.5-4c-.2-.3-.1-.7.2-.8.3-.2.7-.1.8.2l2.5 4c.2.3.1.7-.2.8-.1.1-.2.1-.3.1"
     clip-path="url(#b)"
     fill="#fff"
     id="path4493"
     style="fill:#0000ff" />
</svg>
