<svg xmlns="http://www.w3.org/2000/svg" xmlns:xlink="http://www.w3.org/1999/xlink" viewBox="0 0 113.9 75.6"><defs><path id="a" d="M19.1 0h77v76h-77z"/></defs><clipPath id="b"><use xlink:href="#a" overflow="visible"/></clipPath><path d="M96.1 51v21.1c0 2.2-1.8 3.9-3.9 3.9h-12c-2.2 0-3.9-1.8-3.9-3.9V51c0-2.2 1.8-3.9 3.9-3.9h12c2.1 0 3.9 1.7 3.9 3.9m-2.6 21.1v-.3H78.9v.3c0 .7.6 1.3 1.3 1.3h12c.7 0 1.3-.6 1.3-1.3m0-2.9V51c0-.7-.6-1.3-1.3-1.3h-12c-.7 0-1.3.6-1.3 1.3v18.2h14.6zm-6-30.6v4.8c0 .7-.6 1.3-1.3 1.3-.7 0-1.3-.6-1.3-1.3v-3.5h-26v3.5c0 .7-.6 1.3-1.3 1.3-.7 0-1.3-.6-1.3-1.3v-3.5h-26v3.5c0 .7-.6 1.3-1.3 1.3-.7 0-1.3-.6-1.3-1.3v-4.8c0-.7.6-1.3 1.3-1.3h27.3v-6c0-.7.6-1.3 1.3-1.3.7 0 1.3.6 1.3 1.3v6h27.3c.7 0 1.3.6 1.3 1.3M74.3 3.9v16.5c0 2.2-1.8 3.9-3.9 3.9H58.9v1.6h8.3c.7 0 1.3.6 1.3 1.3 0 .7-.6 1.3-1.3 1.3H47.9c-.7 0-1.3-.6-1.3-1.3 0-.7.6-1.3 1.3-1.3h8.3v-1.6H44.8c-2.2 0-3.9-1.8-3.9-3.9V3.9c0-2.2 1.8-3.9 3.9-3.9h25.6c2.2 0 3.9 1.8 3.9 3.9m-2.6 16.5v-.9H43.5v.9c0 .7.6 1.3 1.3 1.3h25.6c.7 0 1.3-.5 1.3-1.3m0-3.5v-13c0-.7-.6-1.3-1.3-1.3H44.8c-.7 0-1.3.6-1.3 1.3v13h28.2zM67.5 51v21.1c0 2.2-1.8 3.9-3.9 3.9h-12c-2.2 0-3.9-1.8-3.9-3.9V51c0-2.2 1.8-3.9 3.9-3.9h12c2.1 0 3.9 1.7 3.9 3.9m-2.7 21.1v-.3H50.3v.3c0 .7.6 1.3 1.3 1.3h12c.7 0 1.2-.6 1.2-1.3m0-2.9V51c0-.7-.6-1.3-1.3-1.3h-12c-.7 0-1.3.6-1.3 1.3v18.2h14.6zM38.9 51v21.1c0 2.2-1.8 3.9-3.9 3.9H23c-2.2 0-3.9-1.8-3.9-3.9V51c0-2.2 1.8-3.9 3.9-3.9h12c2.1 0 3.9 1.7 3.9 3.9m-2.7 21.1v-.3H21.7v.3c0 .7.6 1.3 1.3 1.3h12c.7 0 1.2-.6 1.2-1.3m0-2.9V51c0-.7-.6-1.3-1.3-1.3H23c-.7 0-1.3.6-1.3 1.3v18.2h14.5z" clip-path="url(#b)" fill="#f7ad41"/></svg>