<?xml version="1.0" encoding="utf-8"?>
<!-- Generator: Adobe Illustrator 16.0.0, SVG Export Plug-In . SVG Version: 6.00 Build 0)  -->
<!DOCTYPE svg PUBLIC "-//W3C//DTD SVG 1.1//EN" "http://www.w3.org/Graphics/SVG/1.1/DTD/svg11.dtd">
<svg version="1.1" id="Layer_1" xmlns="http://www.w3.org/2000/svg" xmlns:xlink="http://www.w3.org/1999/xlink" x="0px" y="0px"
	 width="292px" height="227.108px" viewBox="0 0 292 227.108" enable-background="new 0 0 292 227.108" xml:space="preserve">
<g>
	<path fill="#BBBBBB" d="M14,227.108c-7.72,0-14-6.28-14-14v-56c0-7.72,6.28-14,14-14h88c7.72,0,14,6.28,14,14v56
		c0,7.72-6.28,14-14,14H14z M14,147.108c-5.514,0-10,4.486-10,10v56c0,5.514,4.486,10,10,10h88c5.514,0,10-4.486,10-10v-56
		c0-5.514-4.486-10-10-10H14z"/>
	<path fill="#BBBBBB" d="M0.125,191.108H116v20.25H0.125V191.108z M4.125,207.358H112v-12.25H4.125V207.358z"/>
	<rect x="19" y="159.108" fill="#BBBBBB" width="62" height="4"/>
	<rect x="19" y="175.108" fill="#BBBBBB" width="14" height="4"/>
	<path fill="#FFFFFF" d="M103.963,224.108c-0.827-0.002-20.268-0.259-20.268-19.509v-82.035c0.001-0.371,0.532-37.386,41.798-60.524
		h42.014c21.529,12.071,31.743,27.838,36.522,38.957c5.202,12.102,5.275,21.474,5.275,21.568v82.034
		c0,8.089-3.388,13.823-10.068,17.045c-5.053,2.436-10.148,2.464-10.199,2.464H103.963z"/>
	<path fill="#BBBBBB" d="M103.962,227.107c-8.047,0-23.267-4.703-23.267-22.508v-82.035c0-1.592,0.495-39.263,43.563-63.271
		l0.454-0.253h43.575l0.455,0.253c43.067,24.009,43.562,61.68,43.562,63.271v82.035c0,17.805-15.22,22.508-23.268,22.508H103.962z
		 M125.524,63.169c-40.222,22.812-40.823,57.914-40.829,59.397v82.032c0,18.299,18.48,18.508,19.267,18.508h85.071
		c0.928-0.005,5.754-0.153,10.309-2.533c4.089-2.136,8.963-6.642,8.963-15.975v-82.035c-0.006-1.487-0.608-36.583-40.829-59.395
		l-0.229-0.13h-41.493L125.524,63.169z"/>
	<path fill="#FFFFFF" d="M125.696,60.04l-22.551-26.692c3.776-0.06,12.144-1.054,16.846-8.22c3.396-5.175,7.658-6.262,10.636-6.262
		c2.749,0,5.039,0.954,6.089,1.9c1.807,1.627,6.026,3.273,10.591,3.273c3.572,0,6.669-1.027,8.954-2.97
		c2.604-2.212,5.438-3.43,7.984-3.43c2.363,0,4.314,1.02,5.641,2.95c2.449,3.56,7.47,10.86,16.582,11.273L167.239,60.04H125.696z"/>
	<path fill="#BBBBBB" d="M124.304,63.04L96.137,29.7l5.02,0.584c0.034,0.004,0.642,0.067,1.601,0.067
		c3.072,0,10.656-0.669,14.725-6.869c4.349-6.627,10.102-7.616,13.144-7.616c3.165,0,6.267,1.023,8.097,2.67
		c1.337,1.204,4.999,2.503,8.583,2.503c1.988,0,4.819-0.392,7.011-2.256c3.191-2.711,6.624-4.145,9.928-4.145
		c3.348,0,6.229,1.51,8.113,4.251c3.324,4.834,7.492,9.992,14.91,9.992c0.321,0,0.648-0.01,0.981-0.031l4.073-0.247l-23.5,34.437
		H124.304z M130.627,19.866c-2.73,0-6.647,1.008-9.8,5.811c-3.714,5.659-9.568,7.656-13.826,8.335l-1.751,0.278l20.911,24.75h40.55
		l17.936-26.281l-1.436-0.325c-7.568-1.711-11.849-7.934-14.146-11.278c-1.133-1.647-2.799-2.518-4.818-2.518
		c-2.309,0-4.914,1.134-7.337,3.194c-2.469,2.097-5.788,3.207-9.602,3.207c-4.321,0-8.951-1.451-11.261-3.529
		C135.168,20.718,133.097,19.866,130.627,19.866"/>
	<path fill="#F67107" d="M146.5,180.109c-20.421,0-37.035-16.614-37.035-37.035c0-20.422,16.614-37.036,37.035-37.036
		c20.422,0,37.036,16.614,37.036,37.036C183.536,163.495,166.922,180.109,146.5,180.109 M146.5,110.038
		c-18.216,0-33.035,14.82-33.035,33.036s14.819,33.035,33.035,33.035s33.036-14.819,33.036-33.035S164.716,110.038,146.5,110.038"/>
	<path fill="#F67107" d="M145.971,159.315v-3.49l-0.914-0.079c-3.286-0.284-6.023-1.38-8.145-3.261l1.887-2.646
		c1.709,1.483,3.801,2.493,5.998,2.88l1.174,0.207v-8.246l-0.755-0.19c-4.105-1.036-7.788-2.35-7.788-6.976
		c0-3.708,3.073-6.518,7.646-6.992l0.897-0.094v-3.596h1.775v3.67l0.89,0.099c2.608,0.288,4.894,1.193,6.805,2.692l-1.934,2.545
		c-1.309-0.991-2.826-1.701-4.522-2.118l-1.238-0.304v7.654l0.755,0.191c4.881,1.234,7.905,2.845,7.905,7.058
		c0,4.188-2.829,6.88-7.763,7.388l-0.897,0.093v3.516H145.971z M147.746,152.958l1.199-0.244c2.271-0.461,3.738-1.937,3.738-3.759
		c0-2.311-2.449-3.109-3.627-3.493l-1.311-0.428V152.958z M144.838,133.46c-2.25,0.302-3.648,1.671-3.648,3.573
		c0,2.225,2.547,2.952,3.506,3.227l1.275,0.363v-7.314L144.838,133.46z"/>
	<path fill="#BBBBBB" d="M216.125,207.108h68v20h-68V207.108z M220.125,223.108h60v-12h-60V223.108z"/>
	<rect x="232.125" y="210.108" fill="#BBBBBB" width="4" height="14"/>
	<rect x="248.125" y="210.108" fill="#BBBBBB" width="4" height="14"/>
	<rect x="264.125" y="210.108" fill="#BBBBBB" width="4" height="14"/>
	<path fill="#BBBBBB" d="M224,191.233h68v20h-68V191.233z M228,207.233h60v-12h-60V207.233z"/>
	<rect x="240" y="194.233" fill="#BBBBBB" width="4" height="14"/>
	<rect x="256" y="194.233" fill="#BBBBBB" width="4" height="14"/>
	<rect x="272" y="194.233" fill="#BBBBBB" width="4" height="14"/>
	<path fill="#BBBBBB" d="M216.125,175.108h68v20h-68V175.108z M220.125,191.108h60v-12h-60V191.108z"/>
	<rect x="232.125" y="178.108" fill="#BBBBBB" width="4" height="14"/>
	<rect x="248.125" y="178.108" fill="#BBBBBB" width="4" height="14"/>
	<rect x="264.125" y="178.108" fill="#BBBBBB" width="4" height="14"/>
	<path fill="#BBBBBB" d="M62.27,71.03l-0.78,0.68l-2.31,2.02l-38.6,33.76l-2.32,2.03l-0.78,0.68c-0.56-1.24-1.49-2.29-2.63-3.01
		l0.78-0.68l2.31-2.03l38.6-33.76l2.32-2.02l0.78-0.69C60.2,69.26,61.12,70.31,62.27,71.03"/>
	<path fill="#BBBBBB" d="M136.77,84.99l3.91,1.22c-0.73,1.09-1.16,2.41-1.18,3.82l-3.92-1.22L75.73,70.23l-2.93-0.91l-0.98-0.31
		c0.73-1.09,1.16-2.41,1.18-3.82l0.99,0.31l2.93,0.91l59.84,18.58H136.77z"/>
	<path fill="#BBBBBB" d="M210.99,37.01l-3.11,2.68l-51.89,44.86l-3.11,2.69c-0.56-1.25-1.479-2.3-2.62-3.03l3.11-2.69l51.89-44.85
		l3.11-2.69C208.93,35.23,209.85,36.28,210.99,37.01"/>
	<path fill="#BBBBBB" d="M275.16,14.87l-3.93,1.19L225.68,29.88l-3.93,1.2c-0.01-1.42-0.44-2.73-1.17-3.83l3.939-1.2l45.551-13.82
		l3.93-1.19C274.01,12.46,274.44,13.77,275.16,14.87"/>
	<path fill="#08C5FF" d="M18.26,109.52c-0.6-1.22-1.51-2.25-2.63-3.01c-1.28-0.88-2.84-1.4-4.51-1.4c-4.41,0-8,3.59-8,8
		c0,4.41,3.59,8,8,8c4.42,0,8-3.59,8-8C19.12,111.82,18.81,110.6,18.26,109.52 M11.12,120.11c-3.85,0-7-3.14-7-7c0-3.86,3.15-7,7-7
		c1.37,0,2.65,0.39,3.73,1.08c1.14,0.72,2.07,1.77,2.63,3.01c0.41,0.89,0.64,1.87,0.64,2.91C18.12,116.97,14.98,120.11,11.12,120.11
		"/>
	<path fill="#BBBBBB" d="M20.58,107.49c-0.7-1.16-1.59-2.18-2.64-3.01c-1.88-1.49-4.24-2.37-6.82-2.37c-6.06,0-11,4.93-11,11
		c0,6.061,4.94,11,11,11c6.07,0,11-4.939,11-11C22.12,111.05,21.56,109.13,20.58,107.49 M11.12,120.11c-3.85,0-7-3.14-7-7
		c0-3.86,3.15-7,7-7c1.37,0,2.65,0.39,3.73,1.08c1.14,0.72,2.07,1.77,2.63,3.01c0.41,0.89,0.64,1.87,0.64,2.91
		C18.12,116.97,14.98,120.11,11.12,120.11"/>
	<path fill="#08C5FF" d="M66,57.11c-4.41,0-8,3.59-8,8c0,1.29,0.31,2.51,0.86,3.59c0.6,1.21,1.51,2.25,2.63,3.01
		c1.28,0.88,2.84,1.4,4.51,1.4c2.86,0,5.38-1.51,6.8-3.79c0.69-1.12,1.12-2.42,1.19-3.82C74,65.37,74,65.24,74,65.11
		C74,60.7,70.41,57.11,66,57.11 M71.82,69.01c-1.27,1.87-3.4,3.1-5.82,3.1c-1.37,0-2.65-0.39-3.73-1.08
		c-1.15-0.72-2.07-1.77-2.63-3.02c-0.42-0.88-0.64-1.87-0.64-2.9c0-3.86,3.14-7,7-7s7,3.14,7,7v0.08
		C72.98,66.6,72.55,67.92,71.82,69.01"/>
	<path fill="#BBBBBB" d="M66,54.11c-6.07,0-11,4.93-11,11c0,2.05,0.56,3.96,1.54,5.61c0.69,1.16,1.59,2.18,2.64,3.01
		c1.88,1.49,4.24,2.38,6.82,2.38c4.22,0,7.89-2.39,9.73-5.88c0.62-1.17,1.03-2.45,1.19-3.82c0.05-0.42,0.08-0.86,0.08-1.3
		C77,59.04,72.07,54.11,66,54.11 M73,65.19c-0.02,1.41-0.45,2.73-1.18,3.82c-1.27,1.87-3.4,3.1-5.82,3.1
		c-1.37,0-2.65-0.39-3.73-1.08c-1.15-0.72-2.07-1.77-2.63-3.02c-0.42-0.88-0.64-1.87-0.64-2.9c0-3.86,3.14-7,7-7s7,3.14,7,7V65.19z"
		/>
	<path fill="#BBBBBB" d="M155.99,84.55c-0.681-1.17-1.57-2.19-2.62-3.03c-1.89-1.51-4.271-2.41-6.87-2.41
		c-4.22,0-7.89,2.38-9.73,5.88h-0.01c-0.61,1.17-1.02,2.46-1.18,3.82c-0.05,0.43-0.08,0.86-0.08,1.3c0,6.06,4.93,11,11,11
		c6.07,0,11-4.94,11-11C157.5,88.08,156.95,86.18,155.99,84.55 M146.5,97.11c-3.86,0-7-3.14-7-7v-0.08
		c0.02-1.41,0.45-2.73,1.18-3.82c1.27-1.87,3.4-3.1,5.82-3.1c1.38,0,2.67,0.4,3.76,1.1c1.141,0.73,2.061,1.78,2.62,3.03
		c0.4,0.88,0.62,1.85,0.62,2.87C153.5,93.97,150.36,97.11,146.5,97.11"/>
	<path fill="#BBBBBB" d="M225.68,29.88c-0.149-1.37-0.55-2.66-1.16-3.83c-1.84-3.53-5.52-5.94-9.77-5.94c-6.07,0-11,4.93-11,11
		c0,2.03,0.55,3.93,1.51,5.56c0.681,1.16,1.57,2.19,2.62,3.02c1.88,1.51,4.28,2.42,6.87,2.42c6.07,0,11-4.94,11-11
		C225.75,30.7,225.73,30.29,225.68,29.88 M221.75,31.11c0,3.86-3.14,7-7,7c-1.38,0-2.67-0.4-3.76-1.1
		c-1.141-0.73-2.061-1.78-2.62-3.03c-0.4-0.88-0.62-1.85-0.62-2.87c0-3.86,3.14-7,7-7c2.43,0,4.58,1.25,5.83,3.14
		c0.729,1.1,1.16,2.41,1.17,3.83V31.11z"/>
	<path fill="#BBBBBB" d="M281,0c-6.07,0-11,4.94-11,11c0,0.42,0.02,0.83,0.07,1.23c0.149,1.37,0.55,2.66,1.16,3.83
		c1.84,3.53,5.52,5.94,9.77,5.94c6.07,0,11-4.93,11-11C292,4.94,287.07,0,281,0 M281,18c-2.43,0-4.57-1.24-5.84-3.13
		c-0.72-1.1-1.15-2.41-1.16-3.83V11c0-3.86,3.14-7,7-7s7,3.14,7,7S284.86,18,281,18"/>
	<path fill="#BBBBBB" d="M251.052,107.171c-14.111,0-27.078,9.083-31.935,22.329c-4.919,13.414-0.668,28.833,10.336,37.909
		c10.984,9.059,26.928,10.255,39.125,2.889c12.179-7.355,18.621-21.912,15.802-35.871c-2.778-13.756-14.196-24.685-28.063-26.849
		C254.576,107.306,252.813,107.171,251.052,107.171 M281.052,141.171c0,0.391-0.012,0.783-0.027,1.174
		c-0.042-0.791-0.042-1.557,0-2.348C281.04,140.388,281.052,140.78,281.052,141.171 M280.978,139.171h-2.991h-2.323
		c-0.417,0-1.268,0.168-1.651,0c-0.305-0.133-0.027,0.16-0.226-0.167c-0.236-0.393-0.187-1.508-0.272-1.979
		c-0.234-1.285-0.582-2.549-1.037-3.773c-0.911-2.453-2.25-4.74-3.935-6.74c-0.71,0.71-1.42,1.42-2.13,2.13
		c2.402-2.403,4.807-4.807,7.21-7.21C277.94,126.347,280.547,132.642,280.978,139.171 M253.052,111.251
		c6.534,0.414,12.824,3.028,17.74,7.35c-0.964,0.964-1.928,1.928-2.893,2.893c-0.575,0.575-1.152,1.152-1.729,1.729
		c-0.071,0.071-0.313,0.4-0.413,0.413c-0.258,0.033-1.029-0.743-1.295-0.938c-2.517-1.839-5.412-3.147-8.456-3.822
		c-0.755-0.167-1.519-0.296-2.287-0.387c-0.628-0.072-0.532,0.068-0.667-0.313c-0.189-0.539,0-1.5,0-2.07V111.251z M253.052,122.441
		c7.794,0.822,14.324,6.58,16.271,14.143c1.951,7.583-1.273,15.821-7.732,20.193c-6.571,4.446-15.521,4.221-21.853-0.561
		c-6.231-4.705-8.982-13.025-6.695-20.502C235.658,127.161,244.138,121.496,253.052,122.441
		C256.752,122.832,252.392,122.372,253.052,122.441 M221.126,139.171c0.432-6.531,3.04-12.827,7.366-17.74
		c2.402,2.403,4.807,4.807,7.21,7.21c-0.713-0.713-1.428-1.427-2.141-2.14c-1.646,1.961-2.963,4.197-3.868,6.594
		c-0.464,1.222-0.819,2.484-1.064,3.767c-0.114,0.604-0.074,1.411-0.286,1.976c-0.259,0.689,0.138,0.168-0.241,0.334
		c-0.363,0.159-1.173,0-1.565,0h-2.315H221.126z M249.052,111.251v4.082v2.441c0,0.103,0.062,0.501,0,0.583
		c-0.159,0.212-1.323,0.216-1.656,0.271c-3.092,0.499-6.069,1.645-8.7,3.344c-0.624,0.403-1.229,0.836-1.811,1.298
		c-0.489,0.388-0.309,0.4-0.667,0.229c-0.516-0.247-1.061-1.062-1.464-1.464c-1.144-1.145-2.288-2.288-3.432-3.433
		C236.235,114.282,242.521,111.666,249.052,111.251 M221.126,143.171h4.09h2.448c0.102,0,0.502-0.062,0.584,0
		c0.212,0.159,0.214,1.323,0.267,1.656c0.496,3.094,1.646,6.07,3.347,8.7c0.402,0.624,0.837,1.229,1.299,1.811
		c0.388,0.49,0.398,0.309,0.228,0.667c-0.248,0.517-1.062,1.062-1.467,1.467c-1.146,1.146-2.293,2.293-3.439,3.439
		C224.163,155.996,221.557,149.701,221.126,143.171 M236.392,158.662c1.96,1.645,4.195,2.959,6.588,3.864
		c1.222,0.462,2.482,0.819,3.765,1.064c0.603,0.116,1.41,0.077,1.974,0.289c0.69,0.261,0.169-0.137,0.334,0.242
		c0.159,0.363,0,1.171,0,1.563v2.313v3.093c-3.731-0.237-7.41-1.187-10.791-2.785c-1.598-0.756-3.129-1.655-4.569-2.681
		c-0.643-0.459-1.419-1.378-2.139-1.675c-0.433-0.179-0.124-0.229-0.531,0.08c-0.152,0.116-0.283,0.284-0.42,0.421
		C232.532,162.521,234.462,160.591,236.392,158.662 M270.802,163.741c-4.921,4.316-11.215,6.937-17.75,7.351v-4.382
		c0-0.768-0.13-1.662,0-2.42c0.012-0.069-0.046-0.319,0-0.378c0.107-0.139,0.945-0.103,1.165-0.133
		c0.493-0.068,0.984-0.152,1.471-0.253c3.267-0.674,6.369-2.074,9.038-4.073c0.238-0.18,0.804-0.79,1.05-0.737
		c0.133,0.029,0.381,0.38,0.471,0.47c0.603,0.604,1.206,1.206,1.81,1.811c1.148,1.148,2.297,2.297,3.446,3.445
		C271.269,164.208,271.035,163.974,270.802,163.741 M273.622,160.901c-0.962-0.962-1.924-1.924-2.886-2.886
		c-0.576-0.576-1.151-1.151-1.728-1.727c-0.071-0.071-0.399-0.312-0.412-0.412c-0.034-0.258,0.741-1.031,0.936-1.297
		c1.835-2.52,3.146-5.411,3.819-8.455c0.167-0.754,0.295-1.519,0.383-2.286c0.073-0.628-0.068-0.532,0.313-0.667
		c0.54-0.19,1.502,0,2.072,0h4.857C280.547,149.698,277.939,155.987,273.622,160.901"/>
	<path fill="#BBBBBB" d="M243.372,136.374c0,3.523,2.424,4.826,6.611,5.883l0.755,0.19v7.383l-1.174-0.207
		c-1.871-0.329-3.652-1.175-5.125-2.417l-1.468,2.058c1.796,1.553,4.097,2.459,6.853,2.698l0.914,0.079v3h1.257v-3.021l0.896-0.092
		c4.176-0.43,6.571-2.704,6.571-6.236c0-3.544-2.569-4.904-6.713-5.952l-0.755-0.191v-6.883l1.237,0.303
		c1.436,0.353,2.725,0.945,3.842,1.768l1.504-1.977c-1.608-1.228-3.52-1.971-5.694-2.211l-0.889-0.099v-3.151h-1.257v3.088
		l-0.896,0.093C245.972,130.881,243.372,133.25,243.372,136.374 M251.995,142.67l1.309,0.426c0.965,0.315,3.225,1.051,3.225,3.146
		c0,1.64-1.31,2.965-3.335,3.376l-1.198,0.243V142.67z M249.605,132.742l1.133-0.152v6.649l-1.274-0.363
		c-0.854-0.244-3.124-0.894-3.124-2.915C246.34,134.246,247.591,133.012,249.605,132.742"/>
</g>
</svg>
