<?xml version="1.0" encoding="utf-8"?>
<!-- Generator: Adobe Illustrator 19.0.1, SVG Export Plug-In . SVG Version: 6.00 Build 0)  -->
<!DOCTYPE svg PUBLIC "-//W3C//DTD SVG 1.1//EN" "http://www.w3.org/Graphics/SVG/1.1/DTD/svg11.dtd">
<svg version="1.1" id="Layer_1" xmlns="http://www.w3.org/2000/svg" xmlns:xlink="http://www.w3.org/1999/xlink" x="0px" y="0px"
	 viewBox="-389 111 500 500" enable-background="new -389 111 500 500" xml:space="preserve">
<g>
	<g>
		<g>
			<path fill="none" stroke="#EEEEEE" stroke-width="2" stroke-miterlimit="10" d="M96.7,425.7l-289.9,176.8"/>
			<path fill="none" stroke="#EEEEEE" stroke-width="2" stroke-miterlimit="10" d="M87.9,412l-305.9,186.5"/>
			<path fill="none" stroke="#EEEEEE" stroke-width="2" stroke-miterlimit="10" d="M-240.7,593.5l318-193.9"/>
			<path fill="none" stroke="#EEEEEE" stroke-width="2" stroke-miterlimit="10" d="M-261.8,587.4L64.9,388.2"/>
			<path fill="none" stroke="#EEEEEE" stroke-width="2" stroke-miterlimit="10" d="M-281.4,580.3L50.9,377.7"/>
			<path fill="none" stroke="#EEEEEE" stroke-width="2" stroke-miterlimit="10" d="M-299.5,572.4L35.6,368.1"/>
			<path fill="none" stroke="#EEEEEE" stroke-width="2" stroke-miterlimit="10" d="M-166.2,605l269.4-164.3"/>
			<path fill="none" stroke="#EEEEEE" stroke-width="2" stroke-miterlimit="10" d="M-136.4,605.8L107,457.4"/>
			<path fill="none" stroke="#EEEEEE" stroke-width="2" stroke-miterlimit="10" d="M-102.8,604.3l209.6-127.8"/>
			<path fill="none" stroke="#EEEEEE" stroke-width="2" stroke-miterlimit="10" d="M-63,599l163.5-99.7"/>
			<path fill="none" stroke="#EEEEEE" stroke-width="2" stroke-miterlimit="10" d="M0.5,351.5l-331.8,202.3"/>
			<path fill="none" stroke="#EEEEEE" stroke-width="2" stroke-miterlimit="10" d="M-316.1,563.5L18.8,359.4"/>
			<path fill="none" stroke="#EEEEEE" stroke-width="2" stroke-miterlimit="10" d="M-8.1,584.5L79,531.4"/>
			<path fill="none" stroke="#EEEEEE" stroke-width="2" stroke-miterlimit="10" d="M-19.2,344.6L-345,543.2"/>
			<path fill="none" stroke="#EEEEEE" stroke-width="2" stroke-miterlimit="10" d="M-40.6,338.6l-316.6,193.1"/>
			<path fill="none" stroke="#EEEEEE" stroke-width="2" stroke-miterlimit="10" d="M-63.6,333.7l-304,185.4"/>
			<path fill="none" stroke="#EEEEEE" stroke-width="2" stroke-miterlimit="10" d="M-88.6,329.9l-287.5,175.3"/>
			<path fill="none" stroke="#EEEEEE" stroke-width="2" stroke-miterlimit="10" d="M-115.9,327.6l-266.4,162.4"/>
			<path fill="none" stroke="#EEEEEE" stroke-width="2" stroke-miterlimit="10" d="M-146.2,327.1l-239.4,146"/>
			<path fill="none" stroke="#EEEEEE" stroke-width="2" stroke-miterlimit="10" d="M-180.4,328.9l-204.4,124.7"/>
			<path fill="none" stroke="#EEEEEE" stroke-width="2" stroke-miterlimit="10" d="M-221.3,334.9l-156.1,95.2"/>
			<path fill="none" stroke="#EEEEEE" stroke-width="2" stroke-miterlimit="10" d="M-280.7,352.2l-70.5,43"/>
			<path fill="none" stroke="#EEEEEE" stroke-width="2" stroke-miterlimit="10" d="M-375.4,425.7l289.9,176.8"/>
			<path fill="none" stroke="#EEEEEE" stroke-width="2" stroke-miterlimit="10" d="M-366.6,412l305.9,186.5"/>
			<path fill="none" stroke="#EEEEEE" stroke-width="2" stroke-miterlimit="10" d="M-38,593.5l-318-193.9"/>
			<path fill="none" stroke="#EEEEEE" stroke-width="2" stroke-miterlimit="10" d="M-16.8,587.4l-326.8-199.2"/>
			<path fill="none" stroke="#EEEEEE" stroke-width="2" stroke-miterlimit="10" d="M2.7,580.3l-332.4-202.7"/>
			<path fill="none" stroke="#EEEEEE" stroke-width="2" stroke-miterlimit="10" d="M20.8,572.4l-335.1-204.3"/>
			<path fill="none" stroke="#EEEEEE" stroke-width="2" stroke-miterlimit="10" d="M-112.5,605l-269.4-164.3"/>
			<path fill="none" stroke="#EEEEEE" stroke-width="2" stroke-miterlimit="10" d="M-142.3,605.8l-243.3-148.4"/>
			<path fill="none" stroke="#EEEEEE" stroke-width="2" stroke-miterlimit="10" d="M-175.9,604.3l-209.6-127.8"/>
			<path fill="none" stroke="#EEEEEE" stroke-width="2" stroke-miterlimit="10" d="M-215.7,599l-163.5-99.7"/>
			<path fill="none" stroke="#EEEEEE" stroke-width="2" stroke-miterlimit="10" d="M-279.2,351.5L52.6,553.8"/>
			<path fill="none" stroke="#EEEEEE" stroke-width="2" stroke-miterlimit="10" d="M37.4,563.5l-334.9-204.2"/>
			<path fill="none" stroke="#EEEEEE" stroke-width="2" stroke-miterlimit="10" d="M-270.5,584.5l-87.1-53.1"/>
			<path fill="none" stroke="#EEEEEE" stroke-width="2" stroke-miterlimit="10" d="M-259.4,344.6L66.4,543.2"/>
			<path fill="none" stroke="#EEEEEE" stroke-width="2" stroke-miterlimit="10" d="M-238.1,338.6L78.5,531.7"/>
			<path fill="none" stroke="#EEEEEE" stroke-width="2" stroke-miterlimit="10" d="M-215.1,333.7l304,185.4"/>
			<path fill="none" stroke="#EEEEEE" stroke-width="2" stroke-miterlimit="10" d="M-190,329.9L97.5,505.3"/>
			<path fill="none" stroke="#EEEEEE" stroke-width="2" stroke-miterlimit="10" d="M-162.7,327.6l266.4,162.4"/>
			<path fill="none" stroke="#EEEEEE" stroke-width="2" stroke-miterlimit="10" d="M-132.4,327.1l239.4,146"/>
			<path fill="none" stroke="#EEEEEE" stroke-width="2" stroke-miterlimit="10" d="M-98.3,328.9l204.4,124.7"/>
			<path fill="none" stroke="#EEEEEE" stroke-width="2" stroke-miterlimit="10" d="M-57.4,334.9l156.1,95.2"/>
			<path fill="none" stroke="#EEEEEE" stroke-width="2" stroke-miterlimit="10" d="M2.1,352.2l70.5,43"/>
		</g>
		
			<radialGradient id="SVGID_1_" cx="-1279.0538" cy="1111.6348" r="139.9592" gradientTransform="matrix(7.600000e-03 -1 1.7427 1.320000e-02 -2066.5251 -827.2994)" gradientUnits="userSpaceOnUse">
			<stop  offset="0.7901" style="stop-color:#FFFFFF;stop-opacity:0"/>
			<stop  offset="1" style="stop-color:#FFFFFF"/>
		</radialGradient>
		<path fill="url(#SVGID_1_)" d="M-139,322.7c-63.9,0-127.7,14-176.2,42v0c-96.9,56-96.9,147.5,0,203.5c48.5,28,112.3,42,176.2,42
			s127.8-14,176.2-42c96.9-56,96.9-147.5,0-203.5v0C-11.2,336.7-75.1,322.7-139,322.7L-139,322.7z"/>
	</g>
</g>
<g>
	<g id="XMLID_2_">
		<path id="XMLID_46_" fill="none" stroke="#EEEEEE" stroke-width="1.5916" stroke-miterlimit="10" d="M-14.9,212.9
			c-1.1-0.6-2.1-1.1-3.2-1.5c0.3-1.7,0.4-3.5,0.3-5.5c-0.8-15.4-12.6-34-26.5-41.6c-10.3-5.7-18.8-3.7-22.2,4.1
			c-3.3-4-7.1-7.3-11.1-9.5c-5.6-3.1-10.5-3.4-14-1.4c-0.1,0-0.2,0.1-0.2,0.1c0,0,0,0,0,0c-1.8,1.1-3.2,2.9-4,5.3
			c-0.6,1.6-0.9,3.5-0.9,5.6c-3.8-1.1-7.2-0.8-9.9,0.6c-4.1,2.2-6.4,7.1-6.1,14.3c0.7,13.8,11.4,30.6,23.9,37.5l76.5,42.2
			c6.5,3.6,12.2,3.8,16.1,1.2c3.5-2.4,5.6-7.1,5.2-13.7C8.3,236.6-2.4,219.8-14.9,212.9z"/>
		<g id="XMLID_47_">
			<path fill="#B2B5B5" d="M-64.9,143.2c3,0,6.3,0.9,9.6,2.8c3,1.7,5.9,3.9,8.7,6.8l6.8-3.9c1.6-0.6,3.4-1,5.3-1
				c3.6,0,7.6,1.1,11.7,3.4c14,7.7,26.1,26.7,26.9,42.2c0.1,1.5,0,2.9-0.1,4.3c0.7,0.3,1.3,0.6,1.9,1c12.7,7,23.5,24.1,24.2,38.2
				c0.3,6.8-1.5,12.2-5.9,15L1.8,265c-1.4,0.5-2.9,0.9-4.5,0.9c-0.1,0-0.3,0-0.4,0c-3.3,0-6.9-1-10.6-3.1l-74.7-41.2
				c-12.7-7-23.6-24.1-24.3-38.2c-0.4-7.4,2.1-13.1,6.9-15.7l10.1-5.9c1-2.2,2.5-4,4.3-5.2c0,0,0.3-0.2,0.3-0.2l20-11.6
				c0.2-0.1,0.4-0.3,0.7-0.4C-68.8,143.6-66.9,143.2-64.9,143.2 M-64.9,138.2c-2.8,0-5.4,0.6-7.8,1.8l0,0l0,0
				c-0.2,0.1-0.6,0.3-1,0.5l-19.9,11.5l-0.3,0.2l-0.1,0l-0.1,0c-2.2,1.4-4.1,3.4-5.5,5.9l-8.7,5.1c-6.5,3.5-9.9,10.9-9.4,20.3
				c0.8,15.9,12.6,34.5,26.9,42.3l74.7,41.2c4.4,2.4,8.9,3.7,13,3.7c0.2,0,0.4,0,0.6,0c2.1-0.1,4.2-0.5,6.2-1.3l0.3-0.1l0.3-0.2
				l22.4-12.9l0.1,0l0.1-0.1c4.1-2.6,8.8-8.1,8.3-19.5c-0.8-15.6-12.2-33.8-26-41.9c0-0.5,0-1,0-1.5C8.2,175.9-4.8,155.6-20.4,147
				c-4.9-2.7-9.6-4-14.1-4c-2.5,0-4.9,0.4-7.1,1.3l-0.3,0.1l-0.3,0.2l-3.6,2.1c-2.3-2-4.6-3.6-7-5C-57,139.4-61,138.2-64.9,138.2
				L-64.9,138.2z"/>
		</g>
	</g>
	<g>
		<path fill-rule="evenodd" clip-rule="evenodd" fill="#B9B9B8" d="M-272.3,504.6c-17.3,10-31.4,1.9-31.4-18.1
			c0-20,14.1-44.4,31.4-54.4c17.3-10,31.4-1.9,31.4,18.1C-240.8,470.2-254.9,494.7-272.3,504.6z"/>
		
			<polyline fill="none" stroke="#F9BD31" stroke-width="5" stroke-linecap="round" stroke-linejoin="round" stroke-miterlimit="10" stroke-dasharray="0,8" points="
			-120.5,592.2 -289.4,492.5 -277.3,472.3 -85.5,584.5 		"/>
		<g>
			<defs>
				<path id="SVGID_2_" d="M-94.1,604.2c-127.5,4.3-209.5-97.6-209.5-117.7c0-20,14.1-44.4,31.4-54.4c17.3-10,251.1,56.8,251.1,76.8
					C-21.1,528.9-2.4,601-94.1,604.2z"/>
			</defs>
			<clipPath id="SVGID_3_">
				<use xlink:href="#SVGID_2_"  overflow="visible"/>
			</clipPath>
			<g clip-path="url(#SVGID_3_)">
				<g>
					<g id="Tower_Block_7_">
						<path fill="#62B3CC" stroke="#F9BD31" stroke-miterlimit="10" d="M-399.1,370.4c-0.7,0-1.4,0.2-2,0.5l-21.8,12.8
							c-1.1,0.7-2.5,1.9-2.5,3.3v23.7c0,1.3,1.4,2.6,2.5,3.3l129.8,78.4c0.6,0.4,1.4,0.5,2.1,0.5c0.7,0,1.5-0.2,2.1-0.6l21.4-12.9
							c1.1-0.7,2-1.9,2-3.3v-24c0-1.4-0.9-2.6-2.1-3.3l-129.6-77.9C-397.8,370.6-398.5,370.4-399.1,370.4L-399.1,370.4z"/>
					</g>
					<g id="Tower_Block_6_">
						<g>
							<path fill="#EEEEEE" d="M-401,362.9c-0.7,0-1.4,0.2-2,0.6l-22,13.2c-1.2,0.7-1.9,2-1.9,3.4v24.5c0,1.4,0.8,2.7,1.9,3.4
								l134.3,81.3c0.6,0.4,1.3,0.6,2,0.6c0.7,0,1.4-0.2,2.1-0.6l21.9-13.4c1.2-0.7,1.8-2,1.8-3.4v-24.9c0-1.4-0.6-2.7-1.8-3.4
								l-134.3-80.8C-399.7,363-400.4,362.9-401,362.9L-401,362.9z"/>
						</g>
					</g>
					<path fill="#EEEEEE" d="M-291.2,468.4c0.1,3.6,0.1,7.3,0.2,10.9c0.1,3-0.6,7,0.4,9.8c2.7,7.5,19.5-8.2,22.9-10.3
						c4.2-2.6,6.8-3.2,7.8-8.3c1.2-6.7,0.4-13.6-1.4-20.1c0-0.1-0.1-0.2-0.1-0.2c0-0.1,0-0.3-0.1-0.4c-1.3-2.9-0.9-5-4.6-4
						c-7,2-14.3,7.3-20.4,11.2C-291.5,460.2-291.3,462.4-291.2,468.4z"/>
					<path id="XMLID_66_" fill="none" stroke="#D4D6D6" stroke-width="1.0956" stroke-linejoin="round" stroke-miterlimit="10" d="
						M-264.4,445.2c-0.4-0.4-1.1-0.4-1.9,0.1l-22.1,12.9c-1.3,0.8-2.4,2.6-2.4,4.2l0.1,26.8c0,1.5,1.1,2.1,2.4,1.4"/>
					
						<line fill="none" stroke="#D4D6D6" stroke-width="1.0956" stroke-linejoin="round" stroke-miterlimit="10" x1="-290.8" y1="464.7" x2="-306.3" y2="455.7"/>
					<path fill="#B9B9B8" d="M-297,474.9l-5.2-3.1c-0.5-0.3-0.8-1-0.8-1.5v-7.7c0-0.5,0.3-0.7,0.8-0.4l5.3,3.1
						c0.5,0.3,0.9,1,0.9,1.5v7.7C-296,475-296.4,475.2-297,474.9z"/>
					<g>
						<path fill="none" stroke="#EEEEEE" stroke-linejoin="round" stroke-miterlimit="10" d="M-324.5,468v-23.7
							c0-1.4,0.3-2.7,1.7-1.9l16.1,9.7c1.4,0.8,0.2,2.3,0.2,3.6V480"/>
						<path fill="#B9B9B8" d="M-310.1,465.2l-3.1-1.9c-0.5-0.3-0.9-1-0.9-1.5v-7.7c0-0.5,0.3-0.7,0.8-0.4l3.2,1.9c0.5,0.3,1,1,1,1.5
							v7.7C-309,465.4-309.6,465.5-310.1,465.2z"/>
						<path fill="#B9B9B8" d="M-319.3,459.4l-3-1.9c-0.5-0.3-0.8-1-0.8-1.5v-7.7c0-0.5,0.1-0.7,0.6-0.4l3.3,1.9
							c0.5,0.3,1.1,1,1.1,1.5v7.7C-318,459.5-318.7,459.7-319.3,459.4z"/>
						<path fill="none" stroke="#EEEEEE" stroke-linejoin="round" stroke-miterlimit="10" d="M-316.5,474v-24.1c0-1.4,1-2.9,2.4-2"
							/>
					</g>
					<path fill="none" stroke="#EEEEEE" stroke-linejoin="round" stroke-miterlimit="10" d="M-302.4,429.3c-0.1,0-0.2,0-0.3,0.1
						l-7.6,4.7c-0.2,0.1-0.2,0.3-0.2,0.6v0.9c0,0.2,0,0.5,0.2,0.6l10.5,6.4c0.1,0.1,0.2,0.1,0.3,0.1c0.1,0,0.2,0,0.3-0.1l7.5-4.9
						c0.2-0.1,0.2-0.3,0.2-0.6v-0.8c0-0.2,0-0.5-0.2-0.6l-10.3-6.2C-302.2,429.3-302.3,429.3-302.4,429.3L-302.4,429.3z"/>
					<path fill="#B9B9B8" d="M-330.8,455.5l-5.3-3.1c-0.5-0.3-0.9-1-0.9-1.5v-7.7c0-0.5,0.4-0.7,0.9-0.4l5.3,3.1
						c0.5,0.3,0.8,1,0.8,1.5v7.7C-330,455.6-330.3,455.8-330.8,455.5z"/>
					
						<line fill="none" stroke="#EEEEEE" stroke-width="1.0956" stroke-linejoin="round" stroke-miterlimit="10" x1="-325.6" y1="444.9" x2="-350.8" y2="430.2"/>
					<g>
						<path fill="none" stroke="#EEEEEE" stroke-linejoin="round" stroke-miterlimit="10" d="M-369.5,442v-23.9c0-1.4,0.6-2.7,2-1.9
							l16.5,9.7c1.4,0.8,0.6,2.3,0.6,3.6V453"/>
						<path fill="#B9B9B8" d="M-354.3,439.1l-2.9-1.9c-0.5-0.3-0.7-1-0.7-1.5V428c0-0.5,0-0.7,0.6-0.4l3.3,1.9
							c0.5,0.3,1.1,1,1.1,1.5v7.7C-353,439.2-353.8,439.4-354.3,439.1z"/>
						<path fill="#B9B9B8" d="M-364,433.2l-3.1-1.9c-0.5-0.3-0.9-1-0.9-1.5v-7.7c0-0.5,0.4-0.7,0.9-0.4l3.2,1.9c0.5,0.3,1,1,1,1.5
							v7.7C-363,433.3-363.5,433.5-364,433.2z"/>
						<path fill="none" stroke="#EEEEEE" stroke-linejoin="round" stroke-miterlimit="10" d="M-360.5,447v-23.2c0-1.4,1-3.3,2.4-2.5
							"/>
					</g>
					<g>
						<path fill="none" stroke="#EEEEEE" stroke-linejoin="round" stroke-miterlimit="10" d="M-412.5,415v-23c0-1.4,0.7-2.7,2-1.9
							l16.4,9.7c1.4,0.8,0.5,2.3,0.5,3.6V427"/>
						<path fill="#B9B9B8" d="M-397.2,412.9l-3-1.9c-0.5-0.3-0.8-1-0.8-1.5v-7.7c0-0.5,0.1-0.7,0.6-0.4l3.3,1.9
							c0.5,0.3,1.1,1,1.1,1.5v7.7C-396,413.1-396.7,413.2-397.2,412.9z"/>
						<path fill="#B9B9B8" d="M-406.9,407.1l-3.1-1.9c-0.5-0.3-0.9-1-0.9-1.5V396c0-0.5,0.4-0.7,1-0.4l3.1,1.9
							c0.5,0.3,0.9,1,0.9,1.5v7.7C-406,407.2-406.4,407.4-406.9,407.1z"/>
						<path fill="none" stroke="#EEEEEE" stroke-linejoin="round" stroke-miterlimit="10" d="M-403.5,422v-24.4c0-1.4,1-2.7,2.4-1.9
							"/>
					</g>
					<path fill="#B9B9B8" d="M-340.9,449.3l-5.3-3.1c-0.5-0.3-0.8-1-0.8-1.5V437c0-0.5,0.3-0.7,0.9-0.4l5.3,3.1
						c0.5,0.3,0.8,1,0.8,1.5v7.7C-340,449.4-340.4,449.6-340.9,449.3z"/>
					<g>
						<path fill="#B9B9B8" d="M-373.8,428.1l-5.3-3.1c-0.5-0.3-0.9-1-0.9-1.5v-7.7c0-0.5,0.4-0.7,1-0.4l5.2,3.1
							c0.5,0.3,0.8,1,0.8,1.5v7.7C-373,428.2-373.3,428.4-373.8,428.1z"/>
						<path fill="#B9B9B8" d="M-383.8,421.9l-5.3-3.1c-0.5-0.3-0.9-1-0.9-1.5v-7.7c0-0.5,0.4-0.7,0.9-0.4l5.3,3.1
							c0.5,0.3,0.8,1,0.8,1.5v7.7C-383,422-383.3,422.2-383.8,421.9z"/>
					</g>
					<path fill="#B9B9B8" d="M-417,402.6l-5.7-3.1c-0.5-0.3-1.3-1-1.3-1.5v-7.7c0-0.5,0.7-0.7,1.2-0.4l5.6,3.1
						c0.5,0.3,1.2,1,1.2,1.5v7.7C-416,402.7-416.5,402.9-417,402.6z"/>
					
						<line fill="none" stroke="#EEEEEE" stroke-width="1.0956" stroke-linejoin="round" stroke-miterlimit="10" x1="-369.8" y1="418.1" x2="-393.4" y2="404.3"/>
					
						<line fill="none" stroke="#EEEEEE" stroke-width="1.0956" stroke-linejoin="round" stroke-miterlimit="10" x1="-412.7" y1="393.7" x2="-426.9" y2="384.7"/>
					<path fill="none" stroke="#EEEEEE" stroke-linejoin="round" stroke-miterlimit="10" d="M-348.6,405.2c-0.1,0-0.3,0-0.4,0.1
						l-7.4,4.7c-0.2,0.1-0.1,0.3-0.1,0.6v0.9c0,0.2-0.1,0.5,0.1,0.6l10.5,6.4c0.1,0.1,0.2,0.1,0.3,0.1c0.1,0,0.2,0,0.4-0.1l7.5-4.9
						c0.2-0.1,0.3-0.3,0.3-0.6v-0.8c0-0.2-0.1-0.5-0.3-0.6l-10.5-6.2C-348.4,405.3-348.5,405.2-348.6,405.2L-348.6,405.2z"/>
					<path fill="none" stroke="#EEEEEE" stroke-linejoin="round" stroke-miterlimit="10" d="M-391.5,378.3c-0.1,0-0.3,0-0.4,0.1
						l-7.5,4.7c-0.2,0.1-0.2,0.3-0.2,0.6v0.9c0,0.2,0,0.5,0.2,0.6l10.5,6.4c0.1,0.1,0.2,0.1,0.3,0.1c0.1,0,0.3,0,0.4-0.1l7.4-4.9
						c0.2-0.1,0.2-0.3,0.2-0.6v-0.8c0-0.2,0-0.5-0.2-0.6l-10.5-6.2C-391.4,378.4-391.4,378.3-391.5,378.3L-391.5,378.3z"/>
					<g id="Tower_Block_3_">
						<g>
							<path fill="#B2B5B5" d="M-401,362.9c0.7,0,1.4,0.2,2,0.5l134.2,80.8c1.2,0.7,1.8,2,1.8,3.4v24.9c0,1.4-0.6,2.7-1.8,3.4
								l-22,13.4c-0.6,0.4-1.3,0.6-2,0.6c-0.7,0-1.4-0.2-2-0.6L-425.1,408c-1.2-0.7-1.9-2-1.9-3.4V380c0-1.4,0.8-2.7,1.9-3.4
								l22-13.2C-402.5,363.1-401.8,362.9-401,362.9 M-401,359c-1.4,0-2.8,0.4-4.1,1.1l-22,13.2c-2.3,1.4-3.9,4-3.9,6.7v24.5
								c0,2.7,1.5,5.3,3.9,6.7l134.3,81.3c1.2,0.7,2.7,1.1,4.1,1.1c1.4,0,2.9-0.4,4.1-1.1l22-13.4c2.3-1.4,3.7-4,3.7-6.7v-24.9
								c0-2.8-1.4-5.4-3.8-6.8l-134.3-80.8l0,0l0,0C-398.3,359.3-399.7,359-401,359L-401,359z"/>
						</g>
					</g>
				</g>
				<g id="Tower_Block_4_">
					<path fill="#62B3CC" stroke="#F9BD31" stroke-miterlimit="10" d="M-254.3,458.1c-0.7,0-1.4,0.2-2,0.5l-21.2,12.8
						c-1.1,0.7-1.9,1.9-1.9,3.3v23.7c0,1.3,0.8,2.6,1.9,3.3L-148,580c0.6,0.4,1.3,0.5,2,0.5c0.7,0,1.4-0.2,2-0.6l20.9-12.9
						c1.1-0.7,1.6-1.9,1.6-3.3v-24c0-1.4-0.5-2.6-1.7-3.3l-129.4-77.9C-253.2,458.3-253.7,458.1-254.3,458.1L-254.3,458.1z"/>
				</g>
				<g id="Tower_Block_2_">
					<g>
						<path fill="#FFFFFF" d="M-256.2,450.6c-0.7,0-1.4,0.2-2,0.6l-21.9,13.2c-1.2,0.7-1.8,2-1.8,3.4v24.5c0,1.4,0.7,2.7,1.8,3.4
							l134.2,81.3c0.6,0.4,1.3,0.6,2,0.6c0.7,0,1.4-0.2,2-0.6l22-13.4c1.2-0.7,1.9-2,1.9-3.4v-24.9c0-1.4-0.7-2.7-1.9-3.4
							l-134.3-80.8C-254.9,450.7-255.6,450.6-256.2,450.6L-256.2,450.6z"/>
					</g>
				</g>
				<path id="XMLID_219_" fill="none" stroke="#EEEEEE" stroke-width="1.0956" stroke-linejoin="round" stroke-miterlimit="10" d="
					M-119.6,532.9c-0.4-0.4-1.1-0.4-1.9,0.1l-22.1,12.9c-1.3,0.8-2.4,2.6-2.4,4.2l0.1,26.8c0,1.5,1.1,2.1,2.4,1.4"/>
				<path id="XMLID_202_" fill="#F9BD31" d="M-120.4,557.1c-0.4,1.1-1.4,2-2.2,2s-1.2-0.9-0.8-2.1c0.4-1.1,1.4-2,2.2-2
					S-120,555.9-120.4,557.1z"/>
				
					<line fill="none" stroke="#EEEEEE" stroke-width="1.0956" stroke-linejoin="round" stroke-miterlimit="10" x1="-146" y1="552.4" x2="-161.5" y2="543.4"/>
				<polygon fill="#F9BD31" points="-138,547.2 -128,541.3 -128,538.6 -138,544.6 				"/>
				<g>
					<path fill="#B9B9B8" d="M-133.2,556.3l3.2-1.8c0.5-0.3,1-1,1-1.5v-7.7c0-0.5-0.5-0.7-1.1-0.4l-3.1,1.8c-0.5,0.3-0.9,1-0.9,1.5
						v7.7C-134,556.4-133.7,556.6-133.2,556.3z"/>
					<path fill="#B9B9B8" d="M-142.2,561.4l5.3-3c0.5-0.3,0.9-1,0.9-1.5v-7.7c0-0.5-0.4-0.7-1-0.4l-5.2,3c-0.5,0.3-0.8,1-0.8,1.5
						v7.7C-143,561.5-142.7,561.7-142.2,561.4z"/>
					<path fill="#B9B9B8" d="M-126.3,552.5l5.4-3c0.5-0.3,0.9-1,0.9-1.5v-7.7c0-0.5-0.5-0.7-1.1-0.4l-5.2,3c-0.5,0.3-0.7,1-0.7,1.5
						v7.7C-127,552.6-126.8,552.8-126.3,552.5z"/>
				</g>
				<path id="XMLID_181_" fill="#F9BD31" d="M-138.1,567.8c-0.4,1.1-1.4,2-2.2,2s-1.2-0.9-0.8-2.1c0.4-1.1,1.4-2,2.2-2
					S-137.8,566.7-138.1,567.8z"/>
				<path fill="#B9B9B8" d="M-152.1,562.6l-5.7-3.1c-0.5-0.3-1.2-1-1.2-1.5v-7.7c0-0.5,0.7-0.7,1.2-0.4l5.6,3.1
					c0.5,0.3,1.2,1,1.2,1.5v7.7C-151,562.7-151.5,562.9-152.1,562.6z"/>
				<g>
					<path fill="none" stroke="#EEEEEE" stroke-linejoin="round" stroke-miterlimit="10" d="M-180.5,556v-24c0-1.4,0.7-2.7,2.1-1.9
						l16.4,9.7c1.4,0.8,0.5,2.3,0.5,3.6V567"/>
					<path fill="#B9B9B8" d="M-165.2,552.9l-3.5-1.9c-0.5-0.3-1.3-1-1.3-1.5v-7.7c0-0.5,0.7-0.7,1.2-0.4l3.5,1.9
						c0.5,0.3,1.3,1,1.3,1.5v7.7C-164,553.1-164.7,553.2-165.2,552.9z"/>
					<path fill="#B9B9B8" d="M-174.9,547.1l-3.2-1.9c-0.5-0.3-1-1-1-1.5V536c0-0.5,0.5-0.7,1-0.4l3.1,1.9c0.5,0.3,0.9,1,0.9,1.5v7.7
						C-174,547.2-174.3,547.4-174.9,547.1z"/>
					<path fill="none" stroke="#EEEEEE" stroke-linejoin="round" stroke-miterlimit="10" d="M-171.5,562v-24.4c0-1.4,1-2.7,2.4-1.9"
						/>
				</g>
				<path fill="none" stroke="#EEEEEE" stroke-linejoin="round" stroke-miterlimit="10" d="M-157.6,517c-0.1,0-0.2,0-0.3,0.1
					l-7.5,4.7c-0.2,0.1-0.1,0.3-0.1,0.6v0.9c0,0.2-0.1,0.5,0.1,0.6l10.4,6.4c0.1,0.1,0.2,0.1,0.3,0.1c0.1,0,0.2,0,0.3-0.1l7.1-4.9
					c0.2-0.1-0.2-0.3-0.2-0.6v-0.8c0-0.2,0.4-0.5,0.2-0.6l-10.1-6.2C-157.6,517-157.5,517-157.6,517L-157.6,517z"/>
				<path fill="#B9B9B8" d="M-185.9,543.2l-5.8-3.1c-0.5-0.3-1.3-1-1.3-1.5v-7.7c0-0.5,0.8-0.7,1.3-0.4l5.6,3.1
					c0.5,0.3,1.1,1,1.1,1.5v7.7C-185,543.3-185.4,543.5-185.9,543.2z"/>
				
					<line fill="none" stroke="#EEEEEE" stroke-width="1.0956" stroke-linejoin="round" stroke-miterlimit="10" x1="-180.8" y1="532.6" x2="-206" y2="517.9"/>
				<g>
					<path fill="none" stroke="#EEEEEE" stroke-linejoin="round" stroke-miterlimit="10" d="M-224.5,529v-23.2
						c0-1.4,0.5-2.7,1.9-1.9l16.5,9.7c1.4,0.8,0.6,2.3,0.6,3.6V540"/>
					<path fill="#B9B9B8" d="M-209.9,526.8l-3.1-1.9c-0.5-0.3-0.9-1-0.9-1.5v-7.7c0-0.5,0.4-0.7,1-0.4l3.1,1.9
						c0.5,0.3,0.9,1,0.9,1.5v7.7C-209,526.9-209.4,527.1-209.9,526.8z"/>
					<path fill="#B9B9B8" d="M-219.1,520.9l-3.1-1.9c-0.5-0.3-0.9-1-0.9-1.5v-7.7c0-0.5,0.3-0.7,0.8-0.4l3.2,1.9c0.5,0.3,1,1,1,1.5
						v7.7C-218,521-218.6,521.2-219.1,520.9z"/>
					<path fill="none" stroke="#EEEEEE" stroke-linejoin="round" stroke-miterlimit="10" d="M-215.5,535v-23.5c0-1.4,1-3.1,2.4-2.3"
						/>
				</g>
				<g>
					<path fill="none" stroke="#EEEEEE" stroke-linejoin="round" stroke-miterlimit="10" d="M-267.5,503v-23.3
						c0-1.4,0.6-2.7,1.9-1.9l16.5,9.7c1.4,0.8,0.6,2.3,0.6,3.6V515"/>
					<path fill="#B9B9B8" d="M-252.8,500.6l-3.2-1.9c-0.5-0.3-1-1-1-1.5v-7.7c0-0.5,0.5-0.7,1-0.4l3.1,1.9c0.5,0.3,0.9,1,0.9,1.5
						v7.7C-252,500.8-252.3,500.9-252.8,500.6z"/>
					<path fill="#B9B9B8" d="M-262,494.8l-3.1-1.9c-0.5-0.3-0.9-1-0.9-1.5v-7.7c0-0.5,0.3-0.7,0.9-0.4l3.2,1.9c0.5,0.3,1,1,1,1.5
						v7.7C-261,494.9-261.5,495.1-262,494.8z"/>
					<path fill="none" stroke="#EEEEEE" stroke-linejoin="round" stroke-miterlimit="10" d="M-258.5,508v-22.7c0-1.4,1-3.6,2.4-2.7"
						/>
				</g>
				<path fill="#B9B9B8" d="M-196.5,537l-5-3.1c-0.5-0.3-0.5-1-0.5-1.5v-7.7c0-0.5,0.2-0.7,0.8-0.4l4.8,3.1c0.5,0.3,0.4,1,0.4,1.5
					v7.7C-196,537.1-196,537.3-196.5,537z"/>
				<g>
					<path fill="#B9B9B8" d="M-228.9,515.8l-5.3-3.1c-0.5-0.3-0.8-1-0.8-1.5v-7.7c0-0.5,0.3-0.7,0.9-0.4l5.3,3.1
						c0.5,0.3,0.8,1,0.8,1.5v7.7C-228,515.9-228.4,516.1-228.9,515.8z"/>
					<path fill="#B9B9B8" d="M-239.4,509.6l-5.5-3.1c-0.5-0.3-1.1-1-1.1-1.5v-7.7c0-0.5,0.8-0.7,1.3-0.4l5.1,3.1
						c0.5,0.3,0.6,1,0.6,1.5v7.7C-239,509.7-238.9,509.9-239.4,509.6z"/>
				</g>
				<path fill="#B9B9B8" d="M-272.1,490.3l-5.2-3.1c-0.5-0.3-0.7-1-0.7-1.5V478c0-0.5,0.1-0.7,0.6-0.4l5.4,3.1c0.5,0.3,1,1,1,1.5
					v7.7C-271,490.4-271.6,490.6-272.1,490.3z"/>
				
					<line fill="none" stroke="#EEEEEE" stroke-width="1.0956" stroke-linejoin="round" stroke-miterlimit="10" x1="-225" y1="505.8" x2="-248.6" y2="492"/>
				
					<line fill="none" stroke="#EEEEEE" stroke-width="1.0956" stroke-linejoin="round" stroke-miterlimit="10" x1="-267.9" y1="481.4" x2="-282.1" y2="472.4"/>
				<path fill="none" stroke="#EEEEEE" stroke-linejoin="round" stroke-miterlimit="10" d="M-203.8,492.9c-0.1,0-0.3,0-0.4,0.1
					l-7.8,4.7c-0.2,0.1-0.5,0.3-0.5,0.6v0.9c0,0.2,0.3,0.5,0.5,0.6l10.7,6.4c0.1,0.1,0.3,0.1,0.4,0.1c0.1,0,0.3,0,0.4-0.1l7.6-4.9
					c0.2-0.1,0.4-0.3,0.4-0.6v-0.8c0-0.2-0.2-0.5-0.4-0.6l-10.5-6.2C-203.6,493-203.7,492.9-203.8,492.9L-203.8,492.9z"/>
				<path fill="none" stroke="#EEEEEE" stroke-linejoin="round" stroke-miterlimit="10" d="M-246.7,466c-0.1,0-0.3,0-0.4,0.1
					l-7.9,4.7c-0.2,0.1-0.6,0.3-0.6,0.6v0.9c0,0.2,0.4,0.5,0.6,0.6l10.7,6.4c0.1,0.1,0.3,0.1,0.4,0.1c0.1,0,0.3,0,0.4-0.1l8-4.9
					c0.2-0.1,0.8-0.3,0.8-0.6v-0.8c0-0.2-0.6-0.5-0.8-0.6l-10.8-6.2C-246.3,466.1-246.6,466-246.7,466L-246.7,466z"/>
				<g id="Tower_Block_5_">
					<g>
						<path fill="#B2B5B5" d="M-256.2,450.6c0.7,0,1.4,0.2,2,0.5l134.3,80.8c1.2,0.7,1.9,2,1.9,3.4v24.9c0,1.4-0.7,2.7-1.9,3.4
							l-22,13.4c-0.6,0.4-1.3,0.6-2,0.6c-0.7,0-1.4-0.2-2-0.6l-134.2-81.3c-1.2-0.7-1.8-2-1.8-3.4v-24.5c0-1.4,0.7-2.7,1.8-3.4
							l21.9-13.2C-257.6,450.8-257,450.6-256.2,450.6 M-256.2,446.7c-1.4,0-2.8,0.4-4,1.1l-21.9,13.2c-2.3,1.4-3.8,4-3.8,6.7v24.5
							c0,2.7,1.4,5.3,3.8,6.7l134.2,81.3c1.2,0.7,2.6,1.1,4.1,1.1c1.4,0,2.8-0.4,4.1-1.1l22.1-13.4c2.3-1.4,3.8-4,3.8-6.7v-24.9
							c0-2.8-1.5-5.4-3.9-6.8l-134.3-80.8l0,0l0,0C-253.5,447-254.9,446.7-256.2,446.7L-256.2,446.7z"/>
					</g>
				</g>
			</g>
		</g>
	</g>
	<g>
		<path fill="#FFFFFF" d="M50.4,394.7C46.3,386,37.6,379,31.1,372c-5.9-6.3-11.9-13.3-21-14.4c-1.3-0.1-1.3,1.9,0,2
			c0.3,0,0.5,0.1,0.8,0.1c-12.9,6.4-34,2.2-41.7,17.1c-6.9,13.6,6.3,30.5,15.7,39.2c5.5,5.1,12.8,10.9,20.2,12.6
			c7.7,1.7,16.5-3.5,23.5-6.1C40.4,418.4,58,410.3,50.4,394.7z"/>
		<g>
			<path id="XMLID_214_" fill="#B2B5B5" d="M-64.8,412.4c-2.5-7.5-8.8-13.7-14.3-14c-1.2-0.1-2.3,0.1-3.3,0.6l-6.3,3.3
				c-0.3,0.1-0.6,0.3-0.9,0.4l-0.3,0.2l0,0c-0.5,0.4-1.1,0.8-1.5,1.4c-1.9,2.5-2.1,6.7-0.7,11.2c2.4,7.5,8.7,13.6,14.2,14
				c0,0,0.1,0,0.1,0c1.3,0.1,2.5-0.2,3.5-0.8l0,0l7.1-3.6C-63.8,423-63,418-64.8,412.4z M-79.8,423.6c-3.2-0.2-6.9-3.9-8.3-8.3
				c-1.4-4.4,0-7.8,3.1-7.6c3.2,0.2,6.9,3.9,8.3,8.3C-75.3,420.3-76.7,423.7-79.8,423.6z"/>
			<path id="XMLID_32_" fill="#B2B5B5" d="M17.6,461.4c-2.5-7.5-8.8-13.7-14.3-14C2.1,447.4,1,447.6,0,448l-6.3,3.3
				c-0.3,0.1-0.6,0.3-0.9,0.4l-0.3,0.2l0,0c-0.5,0.4-1.1,0.8-1.5,1.4c-1.9,2.5-2.1,6.7-0.7,11.2c2.4,7.5,8.7,13.6,14.2,14
				c0,0,0.1,0,0.1,0c1.3,0.1,2.5-0.2,3.5-0.8l0,0l7.1-3.6C18.6,472,19.5,467,17.6,461.4z M2.6,472.6c-3.2-0.2-6.9-3.9-8.3-8.3
				c-1.4-4.4,0-7.8,3.1-7.6c3.2,0.2,6.9,3.9,8.3,8.3C7.2,469.3,5.8,472.8,2.6,472.6z"/>
			<path fill="#FFFFFF" d="M74.9,430.1c0,0-0.8-8.2-5-12.9c-4.3-4.7-16.4-18.4-16.4-18.4s-13.1,17.1-45,28.6c0,0-2.4,1-3.5-1.1
				s-20.6-32.2-21.7-33.8s-3.7-5.6-3.7-5.6s-0.4-1.2,1.2-1.9c1.6-0.7,34.4-21.2,35-21.2s1.4-1-2.3-2.8s-24.4-15.8-45.9-24.7
				c0,0-16-8.3-25.4-2.1c0,0-16,9.3-19.7,12.7c-3.7,3.4-5,3.3-4.6,8c0.4,4.8,5.9,26.4,2,25c-3.9-1.4-12-9.1-11.8-11.5
				c0,0-2.1,2-2.2,4.2c0,2.2,0,14.7,0,14.7s-2.9,3.1-2.5,5c0.4,2,1.8,4.2,1.5,5.7c-0.2,1.5,1,3,1.9,3.5c0,0,2.7-7.2,9.9-2.6
				c7.2,4.6,12,13.6,12.9,16.7c0.9,3,1.8,6.4,1.8,6.4s0,1.9,2,3s56.7,33.5,56.7,33.5s1.2,1.1,1.4-1.4c0.2-2.5,1.3-14.3,13.4-8.3
				s14.3,21.1,14.5,21.9c0.1,0.8,1.2,1.2,2.6,1.9c1.4,0.7,4.8,1.9,10.4-1.4s30.5-17.1,33.5-19.4c3-2.3,9.5-6.7,9.4-11.5
				C75.2,435.2,76,431.4,74.9,430.1z M-5.5,428.1c-10.5-5-46.1-31.6-55.5-39.7c-9.4-8.1-11.1-18.2-12.8-23.9
				c-1.8-5.7,3.9-2.6,3.9-2.6c29.1,12.7,42.5,25.6,45.3,28.6s16.9,26.3,16.9,26.3S5.1,433.1-5.5,428.1z"/>
			
				<path fill="#FFFFFF" stroke="#B2B5B5" stroke-width="3" stroke-linecap="round" stroke-linejoin="round" stroke-miterlimit="10" d="
				M-2.4,429.1c4.3,0-5.2-12.3-5.2-12.3s-14-23.3-16.9-26.3s-16.2-15.9-45.3-28.6c0,0-1.5-0.8-2.8-0.8c-1.1,0-2,0.7-1.2,3.5
				c1.8,5.7,3.4,15.8,12.8,23.9c9.4,8.1,45,34.7,55.5,39.7C-4.1,428.8-3.1,429.1-2.4,429.1"/>
			<g>
				<path fill="#FFFFFF" d="M25.5,477.2c-1.8,0-3.6-0.4-5.2-1.1l-0.3-0.1c-1.8-0.8-4.2-1.9-4.7-4.9c-0.1-0.6-2.1-13.7-12.2-18.8
					c-3.4-1.7-7.6-3.6-8.5-3.7c-1.8,0-2.9,2.1-3.3,6.2c-0.3,4-2.9,5.4-5,5.4c-1.3,0-2.2-0.5-2.9-0.9c-19-11.2-48.9-28.5-50.5-29.3
					c-3.2-1.8-3.9-4.6-4-5.9c-0.2-0.9-0.9-3.6-1.6-6c-0.1-0.4-0.2-0.9-0.3-1.4c-0.7-3.6-2.3-11-12.1-14.3c-0.1,0-0.2-0.1-0.3-0.2
					c-1.3-0.8-2-0.9-2.3-0.9c-0.9,0-1.5,1.5-1.5,1.5c-0.4,1.1-1.3,2-2.4,2.4c-0.5,0.2-1,0.3-1.5,0.3c-0.7,0-1.3-0.2-1.9-0.5
					c-2.4-1.2-4.5-4.2-4.2-7.5c-0.1-0.4-0.4-1.2-0.5-1.6c-0.3-0.9-0.7-1.8-0.9-2.9c-0.6-2.8,0.9-5.5,2.3-7.4c0-3.8,0-11.5,0-13.2
					c0.1-3.7,2.9-6.6,3.5-7.1c0.8-0.7,1.8-1.1,2.8-1.1c0.6,0,1.2,0.1,1.8,0.4c1.3,0.6,2.2,1.9,2.3,3.3c0.4,0.8,2.4,3,4.6,5
					c-0.5-3.7-1.4-8.2-1.8-10.7c-0.6-3.1-1.1-5.5-1.2-7c-0.5-5.6,1.2-7.5,4.2-10c0.5-0.4,1.1-0.9,1.7-1.5
					c3.8-3.5,17.6-11.6,20.3-13.1c2.9-1.9,6.6-2.9,10.8-2.9c8.6,0,17.2,4.2,18.4,4.8c16.6,6.9,32.5,16.6,41,21.8
					c2.3,1.4,4.3,2.6,5,3c4,2,5.7,4.4,5,7.1c-0.4,1.6-1.6,2.9-3.2,3.4c-2,1.1-10.4,6.3-17.1,10.4c-8.2,5-12.7,7.8-15.1,9.3l1.8,2.7
					c0.2,0.2,17.4,26.7,21.2,33c29.4-10.8,42.1-26.7,42.3-26.9c0.7-1,1.9-1.6,3.1-1.6c0,0,0.1,0,0.1,0c1.2,0,2.3,0.5,3.1,1.4
					c0.1,0.1,12.2,13.7,16.4,18.4c4.3,4.7,5.6,11.9,6,14.4c0.9,1.9,0.8,4.1,0.7,6.9c-0.1,1.3-0.1,2.8-0.1,4.3
					c0.1,6.4-6.2,11.2-10,14.1c-0.4,0.3-0.7,0.5-1,0.8c-2.1,1.6-11.4,6.9-24.2,14.2l-0.3,0.2c-4.1,2.3-7.7,4.3-9.4,5.3
					C31.4,476.3,28.4,477.2,25.5,477.2z"/>
				<path fill="#B2B5B5" d="M-49.1,329.2c8.4,0,16.7,4.1,17.8,4.6c16.5,6.8,32.3,16.5,40.8,21.7c2.4,1.5,4.3,2.6,5.1,3
					c1.2,0.6,4.9,2.5,4.2,5.4c-0.3,1.2-1.2,2-2.3,2.3c-1.8,0.9-10.4,6.3-17.4,10.6c-10.1,6.2-14.6,9-16.5,10l2.7,4.1
					c0.2,0.3,20,30.8,21.8,34c0.1,0,0.2,0,0.3,0c0,0,0,0,0.1,0c30.6-11.1,43.7-27.5,43.8-27.7c0.5-0.6,1.2-1,2-1c0,0,0.1,0,0.1,0
					c0.7,0,1.5,0.3,2,0.9c0.1,0.1,12.2,13.7,16.4,18.4c4.1,4.5,5.3,11.6,5.6,13.8c0.8,1.6,0.7,3.7,0.6,6.4c-0.1,1.3-0.1,2.8-0.1,4.4
					c0.1,5.7-5.8,10.2-9.4,12.9c-0.4,0.3-0.7,0.5-1,0.8c-2,1.6-11.7,7-24.1,14c-4.3,2.4-8,4.5-9.7,5.5c-2.9,1.7-5.7,2.6-8.2,2.6
					c-1.6,0-3.1-0.3-4.6-1l-0.3-0.2c-1.6-0.7-3.5-1.6-3.8-3.7c-0.1-0.6-2.2-14.5-13-19.9c-1.9-0.9-7.9-3.8-9.2-3.8
					c-2.7,0-4.3,2.6-4.8,7.6c-0.3,3.8-2.7,4.1-3.5,4.1c-0.9,0-1.6-0.4-2-0.7c-19-11.2-49-28.5-50.5-29.4c-2.6-1.5-3.2-3.8-3.3-4.8
					c-0.2-0.8-0.9-3.6-1.7-6.1C-72,415-72.5,405-84.6,401c-1.2-0.7-2.2-1.1-3.1-1.1c-2,0-2.9,2.3-2.9,2.4c-0.3,0.7-0.8,1.3-1.5,1.5
					c-0.3,0.1-0.6,0.2-1,0.2c-0.4,0-0.8-0.1-1.2-0.3c-1.9-1-3.7-3.5-3.3-6.2c0-0.4-0.4-1.4-0.6-2.1c-0.3-0.8-0.6-1.7-0.9-2.7
					c-0.6-2.5,1.2-5.1,2.4-6.6c0-3,0-11.9,0-13.7c0.1-3.2,2.7-5.8,3-6.1c0.5-0.5,1.1-0.7,1.8-0.7c0.4,0,0.8,0.1,1.1,0.3
					c0.9,0.4,1.5,1.3,1.5,2.3c0.6,1.5,4.7,5.8,8,8c-0.2-3.7-1.6-10.9-2.2-14.3c-0.6-3-1-5.4-1.2-6.8c-0.5-5,0.9-6.4,3.7-8.7
					c0.5-0.4,1.1-0.9,1.8-1.5c3.8-3.4,18.2-11.8,20.1-13C-56.4,330.1-53,329.2-49.1,329.2 M-49.1,326.2c-4.5,0-8.4,1.1-11.6,3.1
					c-2.9,1.7-16.6,9.7-20.5,13.3c-0.6,0.6-1.2,1-1.7,1.4c-3.1,2.6-5.3,5-4.7,11.3c0.1,1.5,0.6,4,1.2,7.1c0.3,1.5,0.7,3.8,1.1,6.2
					c-0.5-0.5-0.8-1-1-1.3c-0.3-1.8-1.4-3.3-3.1-4.1c-0.8-0.4-1.6-0.6-2.4-0.6c-1.4,0-2.8,0.5-3.9,1.5c-0.6,0.6-3.9,3.8-3.9,8.2
					c0,1.7,0,8.8,0,12.8c-1.6,2.2-3,5.1-2.3,8.3c0.3,1.1,0.7,2.2,1,3.1c0.1,0.3,0.3,0.8,0.4,1.2c-0.3,3.9,2.2,7.3,5,8.7
					c0.8,0.4,1.7,0.6,2.6,0.6c0.7,0,1.4-0.1,2-0.4c1.5-0.6,2.7-1.8,3.2-3.2c0.1-0.1,0.2-0.4,0.3-0.5c0.2,0.1,0.7,0.2,1.3,0.6
					c0.2,0.1,0.4,0.2,0.7,0.3c9,3,10.4,9.6,11.1,13.2c0.1,0.6,0.2,1.1,0.4,1.5c0.7,2.3,1.4,4.9,1.6,5.9c0.2,1.6,1.1,4.9,4.8,6.9
					c1.5,0.8,31.4,18.1,50.4,29.3c0.8,0.6,2.1,1.2,3.7,1.2c2.7,0,6-1.8,6.5-6.8c0.2-2.8,0.9-4.7,1.7-4.9c1.1,0.3,4.7,1.8,7.9,3.5
					c9.4,4.7,11.4,17.5,11.4,17.7c0.5,3.7,3.7,5.2,5.5,6l0.3,0.2c1.9,0.9,3.8,1.3,5.8,1.3c3.1,0,6.4-1,9.8-3c1.7-1,5.4-3.1,9.6-5.5
					c15-8.5,22.5-12.8,24.5-14.3c0.3-0.2,0.6-0.5,0.9-0.7l0.1,0c4-3,10.8-8.1,10.6-15.3c0-1.5,0-2.9,0.1-4.2
					c0.1-2.8,0.2-5.2-0.7-7.4c-0.5-3.2-2-10.1-6.3-14.9c-4.1-4.5-15.9-17.8-16.4-18.3c-1.1-1.2-2.6-1.9-4.2-1.9c-0.1,0-0.1,0-0.2,0
					c-1.7,0.1-3.2,0.9-4.3,2.2c0,0-3.2,4.1-10.1,9.4c-6,4.6-16,11.2-30.3,16.6c-4.9-7.8-20.4-31.8-20.6-32l-1-1.4
					c2.7-1.6,6.9-4.2,13.8-8.5c6.3-3.9,14.7-9.1,16.9-10.3c2-0.7,3.6-2.3,4.1-4.4c0.6-2.4,0-5.9-5.8-8.8c-0.7-0.3-2.7-1.6-4.9-2.9
					C2.6,347.7-13.3,338-30,331.1C-31.9,330.2-40.4,326.2-49.1,326.2L-49.1,326.2z"/>
			</g>
			<g>
				<path fill="#FFFFFF" d="M-5,426.9c-0.2,0-0.5-0.1-0.7-0.2c-11.4-5.9-45.7-31.6-54.5-39.2c-7.9-6.8-10.1-14.9-11.7-20.8
					c-0.2-0.8-0.4-1.5-0.6-2.2c-0.2-0.6,0-1.2,0.5-1.6c0.3-0.2,0.6-0.4,1-0.4c0.2,0,0.5,0.1,0.7,0.2c0,0,0.1,0,0.1,0
					c28.3,12.4,41.6,24.8,45,28.4c2.3,2.3,12.8,19.6,16.7,26.1c0,0,0,0.1,0.1,0.1c1.9,2.4,3.7,5.1,4.9,7.3c0.3,0.6,0.2,1.3-0.2,1.8
					C-4.2,426.7-4.6,426.9-5,426.9z"/>
				<path fill="#B2B5B5" d="M-71.1,364.1C-71.1,364.1-71.1,364.2-71.1,364.1c0.1,0.1,0.2,0.1,0.2,0.1c28,12.2,41.1,24.5,44.5,28
					c1.9,2,11.1,16.9,16.5,25.8c0.1,0.1,0.1,0.2,0.2,0.3c1.9,2.4,3.6,5.1,4.7,7.1c-11.2-5.7-45.4-31.4-54.2-39
					c-7.5-6.5-9.7-14.3-11.3-20C-70.7,365.6-70.9,364.8-71.1,364.1 M-71.1,361.1c-0.7,0-1.4,0.2-1.9,0.7c-0.9,0.8-1.3,2-1,3.2
					c0.2,0.7,0.4,1.4,0.6,2.1c1.6,5.7,4,14.4,12.2,21.5c8.8,7.6,43.3,33.5,54.8,39.4c0.4,0.2,0.9,0.3,1.4,0.3c0.8,0,1.6-0.3,2.2-0.9
					c0.9-0.9,1.1-2.4,0.5-3.5c-1.2-2.2-3.1-5-5-7.5c-0.5-0.9-14-23.4-16.9-26.3c-3.5-3.6-16.9-16.2-45.4-28.7l-0.1,0
					C-70.2,361.2-70.7,361.1-71.1,361.1L-71.1,361.1z"/>
			</g>
			<path fill="none" stroke="#B2B5B5" stroke-width="2" stroke-linejoin="round" stroke-miterlimit="10" d="M19.7,361
				c0,0,10.1,5,36.5,35.4"/>
			<path fill="none" stroke="#B2B5B5" stroke-width="2" stroke-linejoin="round" stroke-miterlimit="10" d="M-93.5,364.5
				c0,0,1.5-8,8.2-15.1"/>
			<path fill="none" stroke="#B2B5B5" stroke-width="2" stroke-linejoin="round" stroke-miterlimit="10" d="M-43.4,375.7
				c0,0-12.9,23.5-3.5,65.3"/>
			<path fill="none" stroke="#B2B5B5" stroke-width="2" stroke-linejoin="round" stroke-miterlimit="10" d="M-7,427.3
				c0,0-5.2,21.8-9.9,29.9"/>
			<g>
				<g>
					<path fill="#B2B5B5" d="M27.8,445.6c6.4,0,9.8,7.2,9.6,7.9c-0.2,0.7-4.8,3.1-9.2,3.1c-1.8,0-3.5-0.4-4.8-1.5
						c-4.7-3.7-3.5-6.2-3.5-6.2C22.9,446.5,25.5,445.6,27.8,445.6 M27.8,444.6c-2.8,0-5.7,1.2-8.6,3.6l-0.2,0.1l-0.1,0.2
						c-0.2,0.3-1.4,3.3,3.8,7.4c1.4,1.1,3.3,1.7,5.5,1.7c3.6,0,9.6-2.1,10.1-3.9c0.3-1.1-1.1-3.4-1.9-4.4
						C35.1,447.6,32.2,444.6,27.8,444.6L27.8,444.6z"/>
				</g>
			</g>
			<g>
				<g>
					<path fill="#B2B5B5" d="M69.9,420.7c0.9,0,1.7,1.1,2.5,3.9c2.7,10.1-7.2,10.3-7.2,10.3C65.4,428.5,67.6,420.7,69.9,420.7
						 M69.9,419.7c-3.6,0-5.5,10.1-5.7,15.2l0,1.1l1.1,0c0.2,0,4.7-0.1,7.2-3.4c1.5-2,1.8-4.8,0.9-8.2
						C72.8,422.4,71.8,419.7,69.9,419.7L69.9,419.7z"/>
				</g>
			</g>
			<path fill="none" stroke="#B2B5B5" stroke-width="2" stroke-linejoin="round" stroke-miterlimit="10" d="M-63.1,366.2
				c-1.8,1.4-5.2,4.8-5.6,10.6"/>
			<path fill="#B2B5B5" d="M15.3,464.6c0,0,5.1,6.2,17.8,0c12.7-6.2,42.2-22.3,45.1-31.8l0.9-4.6c0,0,0.4,10.2,0,13.4
				c-0.4,3.2-6.4,11.7-15.6,17s-33.1,17.5-33.1,17.5s-9.6,1.9-11.7-0.3s-3.4-7.7-3.4-7.7V464.6z"/>
		</g>
		<path fill="#B2B5B5" d="M-9.5,451.1l-64-37.1c0,0-1.2,13.6,7.6,16.8c8.8,3.2,38.3,22.2,38.3,22.2s9.8,8.5,15,6.6
			C-7.4,457.7-9.5,451.1-9.5,451.1z"/>
		<path fill="#B2B5B5" d="M-88.1,399.8c0,0-12.7-4.6-8.7-13.7l-4,5c0,0,1.5,5.3,1.6,7.3s3,7.9,4.7,8.1c1.7,0.3,6.3-2.7,6.3-2.7
			V399.8z"/>
	</g>
	<g>
		<ellipse opacity="0.7" fill="#FFFFFF" cx="-261.2" cy="410.3" rx="55.9" ry="35.8"/>
		
			<ellipse fill="none" stroke="#00C3DC" stroke-width="5" stroke-linejoin="round" stroke-miterlimit="10" cx="-261.2" cy="410.3" rx="55.9" ry="35.8"/>
	</g>
	<g>
		<polygon fill="#FFFFFF" points="-260.6,440.8 -216.8,414.4 -216.8,216.2 -262.1,190.1 -305.8,216.2 -305.8,413.7 		"/>
		
			<line fill="none" stroke="#EEEEEE" stroke-width="1.5916" stroke-miterlimit="10" x1="-261.4" y1="242.6" x2="-305.6" y2="216.2"/>
		<polyline fill="none" stroke="#EEEEEE" stroke-miterlimit="10" points="-261.7,440.7 -261.7,242.6 -217.5,216.4 		"/>
		<path fill="#EEEEEE" enable-background="new    " d="M-296.9,235.6v11.6l8.2,5.2v-11.6L-296.9,235.6L-296.9,235.6z"/>
		<path fill="#EEEEEE" enable-background="new    " d="M-288,242.1v11.6l8.9,5.2v-11.6L-288,242.1L-288,242.1z"/>
		<path fill="#EEEEEE" enable-background="new    " d="M-276.9,248.5v11.6l8.9,5.2v-11.6L-276.9,248.5L-276.9,248.5z"/>
		<path fill="#EEEEEE" enable-background="new    " d="M-296.9,250.9v11.6l8.2,5.2v-11.6L-296.9,250.9L-296.9,250.9z"/>
		<path fill="#EEEEEE" enable-background="new    " d="M-288,257.4V269l8.9,5.2v-11.6L-288,257.4L-288,257.4z"/>
		<path fill="#EEEEEE" enable-background="new    " d="M-276.9,263.9v11.6l8.9,5.2V269L-276.9,263.9L-276.9,263.9z"/>
		<path fill="#EEEEEE" enable-background="new    " d="M-296.9,266v11.6l8.2,5.2v-11.6L-296.9,266L-296.9,266z"/>
		<path fill="#EEEEEE" enable-background="new    " d="M-288,272.5v11.6l8.9,5.2v-11.6L-288,272.5L-288,272.5z"/>
		<path fill="#EEEEEE" enable-background="new    " d="M-276.9,279v11.6l8.9,5.2v-11.6L-276.9,279L-276.9,279z"/>
		<path fill="#EEEEEE" enable-background="new    " d="M-296.9,281.1v11.6l8.2,5.2v-11.6L-296.9,281.1L-296.9,281.1z"/>
		<path fill="#EEEEEE" enable-background="new    " d="M-288,287.6v11.6l8.9,5.2v-11.6L-288,287.6L-288,287.6z"/>
		<path fill="#EEEEEE" enable-background="new    " d="M-276.9,294.1v11.6l8.9,5.2v-11.6L-276.9,294.1L-276.9,294.1z"/>
		<path fill="#EEEEEE" enable-background="new    " d="M-296.9,297v11.6l8.2,5.2v-11.6L-296.9,297L-296.9,297z"/>
		<path fill="#EEEEEE" enable-background="new    " d="M-288,303.4v11.6l8.9,5.2v-11.6L-288,303.4L-288,303.4z"/>
		<path fill="#EEEEEE" enable-background="new    " d="M-276.9,309.9v11.6l8.9,5.2v-11.6L-276.9,309.9L-276.9,309.9z"/>
		<path fill="#EEEEEE" enable-background="new    " d="M-296.9,312.3v11.6l8.2,5.2v-11.6L-296.9,312.3L-296.9,312.3z"/>
		<path fill="#EEEEEE" enable-background="new    " d="M-288,318.8v11.6l8.9,5.2v-11.6L-288,318.8L-288,318.8z"/>
		<path fill="#EEEEEE" enable-background="new    " d="M-276.9,325.3v11.6l8.9,5.2v-11.6L-276.9,325.3L-276.9,325.3z"/>
		<path fill="#EEEEEE" enable-background="new    " d="M-296.9,327.4V339l8.2,5.2v-11.6L-296.9,327.4L-296.9,327.4z"/>
		<path fill="#EEEEEE" enable-background="new    " d="M-288,333.9v11.6l8.9,5.2V339L-288,333.9L-288,333.9z"/>
		<path fill="#EEEEEE" enable-background="new    " d="M-276.9,340.3v11.6l8.9,5.2v-11.6L-276.9,340.3L-276.9,340.3z"/>
		<path fill="#EEEEEE" enable-background="new    " d="M-296.9,342.5v11.6l8.2,5.2v-11.6L-296.9,342.5L-296.9,342.5z"/>
		<path fill="#EEEEEE" enable-background="new    " d="M-288,349v11.6l8.9,5.2v-11.6L-288,349L-288,349z"/>
		<path fill="#EEEEEE" enable-background="new    " d="M-276.9,355.4V367l8.9,5.2v-11.6L-276.9,355.4L-276.9,355.4z"/>
		<path fill="#EEEEEE" enable-background="new    " d="M-296.9,357.5v11.6l8.2,5.2v-11.6L-296.9,357.5L-296.9,357.5z"/>
		<path fill="#EEEEEE" enable-background="new    " d="M-288,363.9v11.6l8.9,5.2v-11.6L-288,363.9L-288,363.9z"/>
		<path fill="#EEEEEE" enable-background="new    " d="M-276.9,370.4V382l8.9,5.2v-11.6L-276.9,370.4L-276.9,370.4z"/>
		<path fill="#EEEEEE" enable-background="new    " d="M-296.9,372.8v11.6l8.2,5.2V378L-296.9,372.8L-296.9,372.8z"/>
		<path fill="#EEEEEE" enable-background="new    " d="M-288,379.3v11.6l8.9,5.2v-11.6L-288,379.3L-288,379.3z"/>
		<path fill="#EEEEEE" enable-background="new    " d="M-276.9,385.7v11.6l8.9,5.2v-11.6L-276.9,385.7L-276.9,385.7z"/>
		<path fill="#EEEEEE" enable-background="new    " d="M-296.9,394.4v24.5l8.2,5.2v-24.5L-296.9,394.4L-296.9,394.4z"/>
		<path fill="#EEEEEE" enable-background="new    " d="M-288,400.8v24.5l8.9,5.2V406L-288,400.8L-288,400.8z"/>
		<path fill="#EEEEEE" enable-background="new    " d="M-276.9,407.3v24.5l8.9,5.2v-24.5L-276.9,407.3L-276.9,407.3z"/>
		<path fill="#EEEEEE" enable-background="new    " d="M-225,235.6l-8.2,5.2v11.6l8.2-5.2V235.6L-225,235.6z"/>
		<path fill="#EEEEEE" enable-background="new    " d="M-234.6,242.1l-8.2,5.2v11.6l8.2-5.2V242.1L-234.6,242.1z"/>
		<path fill="#EEEEEE" enable-background="new    " d="M-245,248.5l-8.9,5.2v11.6l8.9-5.2V248.5L-245,248.5z"/>
		<path fill="#EEEEEE" enable-background="new    " d="M-225,250.9l-8.2,5.2v11.6l8.2-5.2V250.9L-225,250.9z"/>
		<path fill="#EEEEEE" enable-background="new    " d="M-234.6,257.4l-8.2,5.2v11.6l8.2-5.2V257.4L-234.6,257.4z"/>
		<path fill="#EEEEEE" enable-background="new    " d="M-245,263.9l-8.9,5.2v11.6l8.9-5.2V263.9L-245,263.9z"/>
		<path fill="#EEEEEE" enable-background="new    " d="M-225,266l-8.2,5.2v11.6l8.2-5.2V266L-225,266z"/>
		<path fill="#EEEEEE" enable-background="new    " d="M-234.6,272.5l-8.2,5.2v11.6l8.2-5.2V272.5L-234.6,272.5z"/>
		<path fill="#EEEEEE" enable-background="new    " d="M-245,279l-8.9,5.2v11.6l8.9-5.2V279L-245,279z"/>
		<path fill="#EEEEEE" enable-background="new    " d="M-225,281.1l-8.2,5.2v11.6l8.2-5.2V281.1L-225,281.1z"/>
		<path fill="#EEEEEE" enable-background="new    " d="M-234.6,287.6l-8.2,5.2v11.6l8.2-5.2V287.6L-234.6,287.6z"/>
		<path fill="#EEEEEE" enable-background="new    " d="M-245,294.1l-8.9,5.2v11.6l8.9-5.2V294.1L-245,294.1z"/>
		<path fill="#EEEEEE" enable-background="new    " d="M-225,297l-8.2,5.2v11.6l8.2-5.2V297L-225,297z"/>
		<path fill="#EEEEEE" enable-background="new    " d="M-234.6,303.4l-8.2,5.2v11.6l8.2-5.2V303.4L-234.6,303.4z"/>
		<path fill="#EEEEEE" enable-background="new    " d="M-245,309.9l-8.9,5.2v11.6l8.9-5.2V309.9L-245,309.9z"/>
		<path fill="#EEEEEE" enable-background="new    " d="M-225,312.3l-8.2,5.2v11.6l8.2-5.2V312.3L-225,312.3z"/>
		<path fill="#EEEEEE" enable-background="new    " d="M-234.6,318.8l-8.2,5.2v11.6l8.2-5.2V318.8L-234.6,318.8z"/>
		<path fill="#EEEEEE" enable-background="new    " d="M-245,325.3l-8.9,5.2V342l8.9-5.2V325.3L-245,325.3z"/>
		<path fill="#EEEEEE" enable-background="new    " d="M-225,327.4l-8.2,5.2v11.6l8.2-5.2V327.4L-225,327.4z"/>
		<path fill="#EEEEEE" enable-background="new    " d="M-234.6,333.9l-8.2,5.2v11.6l8.2-5.2V333.9L-234.6,333.9z"/>
		<path fill="#EEEEEE" enable-background="new    " d="M-245,340.3l-8.9,5.2v11.6l8.9-5.2V340.3L-245,340.3z"/>
		<path fill="#EEEEEE" enable-background="new    " d="M-225,342.5l-8.2,5.2v11.6l8.2-5.2V342.5L-225,342.5z"/>
		<path fill="#EEEEEE" enable-background="new    " d="M-234.6,349l-8.2,5.2v11.6l8.2-5.2V349L-234.6,349z"/>
		<path fill="#EEEEEE" enable-background="new    " d="M-245,355.4l-8.9,5.2v11.6l8.9-5.2V355.4L-245,355.4z"/>
		<path fill="#EEEEEE" enable-background="new    " d="M-225,357.5l-8.2,5.2v11.6l8.2-5.2V357.5L-225,357.5z"/>
		<path fill="#EEEEEE" enable-background="new    " d="M-234.6,363.9l-8.2,5.2v11.6l8.2-5.2V363.9L-234.6,363.9z"/>
		<path fill="#EEEEEE" enable-background="new    " d="M-245,370.4l-8.9,5.2v11.6l8.9-5.2V370.4L-245,370.4z"/>
		<path fill="#EEEEEE" enable-background="new    " d="M-225,372.8l-8.2,5.2v11.6l8.2-5.2V372.8L-225,372.8z"/>
		<path fill="#EEEEEE" enable-background="new    " d="M-234.6,379.3l-8.2,5.2V396l8.2-5.2V379.3L-234.6,379.3z"/>
		<path fill="#EEEEEE" enable-background="new    " d="M-245,385.7l-8.9,5.2v11.6l8.9-5.2V385.7L-245,385.7z"/>
		<path fill="#EEEEEE" enable-background="new    " d="M-225,394.4l-8.2,5.2v24.5l8.2-5.2V394.4L-225,394.4z"/>
		<path fill="#EEEEEE" enable-background="new    " d="M-234.6,400.8l-8.2,5.2v24.5l8.2-5.2V400.8L-234.6,400.8z"/>
		<path fill="#EEEEEE" enable-background="new    " d="M-245,407.3l-8.9,5.2V437l8.9-5.2V407.3L-245,407.3z"/>
		<polygon fill="none" stroke="#B2B5B5" stroke-width="5" stroke-miterlimit="10" points="-260.6,440.8 -216.5,414.4 -216.5,216.2 
			-262.1,190.1 -306.1,216.2 -306.1,413.7 		"/>
	</g>
	<g>
		<g>
			
				<line fill="none" stroke="#00C3DC" stroke-width="5" stroke-linecap="round" stroke-linejoin="round" x1="-128.4" y1="393.8" x2="-128.4" y2="393.8"/>
			
				<line fill="none" stroke="#00C3DC" stroke-width="5" stroke-linecap="round" stroke-linejoin="round" stroke-dasharray="0,8.4592" x1="-128.4" y1="402.3" x2="-128.4" y2="457.3"/>
			
				<line fill="none" stroke="#00C3DC" stroke-width="5" stroke-linecap="round" stroke-linejoin="round" x1="-128.4" y1="461.5" x2="-128.4" y2="461.5"/>
			
				<line fill="none" stroke="#00C3DC" stroke-width="5" stroke-linecap="round" stroke-linejoin="round" stroke-dasharray="0,8.1876" x1="-121.4" y1="465.7" x2="-103.7" y2="476.1"/>
			
				<line fill="none" stroke="#00C3DC" stroke-width="5" stroke-linecap="round" stroke-linejoin="round" x1="-100.2" y1="478.2" x2="-100.2" y2="478.2"/>
			
				<line fill="none" stroke="#00C3DC" stroke-width="5" stroke-linecap="round" stroke-linejoin="round" stroke-dasharray="0,7.5746" x1="-93.7" y1="474.4" x2="-44.6" y2="445.8"/>
			
				<line fill="none" stroke="#00C3DC" stroke-width="5" stroke-linecap="round" stroke-linejoin="round" x1="-41.3" y1="443.9" x2="-41.3" y2="443.9"/>
		</g>
	</g>
	<g>
		<g>
			
				<line fill="none" stroke="#00C3DC" stroke-width="5" stroke-linecap="round" stroke-linejoin="round" x1="-142.1" y1="408" x2="-142.1" y2="408"/>
			
				<line fill="none" stroke="#00C3DC" stroke-width="5" stroke-linecap="round" stroke-linejoin="round" stroke-dasharray="0,8.4592" x1="-142.1" y1="416.4" x2="-142.1" y2="471.4"/>
			
				<line fill="none" stroke="#00C3DC" stroke-width="5" stroke-linecap="round" stroke-linejoin="round" x1="-142.1" y1="475.6" x2="-142.1" y2="475.6"/>
			
				<line fill="none" stroke="#00C3DC" stroke-width="5" stroke-linecap="round" stroke-linejoin="round" stroke-dasharray="0,7.7277" x1="-135.5" y1="479.7" x2="-66.3" y2="522"/>
			
				<line fill="none" stroke="#00C3DC" stroke-width="5" stroke-linecap="round" stroke-linejoin="round" x1="-63" y1="524.1" x2="-63" y2="524.1"/>
		</g>
	</g>
	<g>
		<g>
			
				<line fill="none" stroke="#00C3DC" stroke-width="5" stroke-linecap="round" stroke-linejoin="round" x1="-167.9" y1="396.8" x2="-167.9" y2="396.8"/>
			
				<line fill="none" stroke="#00C3DC" stroke-width="5" stroke-linecap="round" stroke-linejoin="round" stroke-dasharray="0,8.4592" x1="-167.9" y1="405.2" x2="-167.9" y2="460.2"/>
			
				<line fill="none" stroke="#00C3DC" stroke-width="5" stroke-linecap="round" stroke-linejoin="round" x1="-167.9" y1="464.4" x2="-167.9" y2="464.4"/>
			
				<line fill="none" stroke="#00C3DC" stroke-width="5" stroke-linecap="round" stroke-linejoin="round" stroke-dasharray="0,8.1988" x1="-174.9" y1="460.2" x2="-213.4" y2="436.7"/>
			
				<line fill="none" stroke="#00C3DC" stroke-width="5" stroke-linecap="round" stroke-linejoin="round" x1="-216.9" y1="434.5" x2="-216.9" y2="434.5"/>
		</g>
	</g>
	<g>
		<g>
			
				<line fill="none" stroke="#00C3DC" stroke-width="5" stroke-linecap="round" stroke-linejoin="round" x1="-155.6" y1="380.8" x2="-155.6" y2="380.8"/>
			
				<line fill="none" stroke="#00C3DC" stroke-width="5" stroke-linecap="round" stroke-linejoin="round" stroke-dasharray="0,7.8225" x1="-155.6" y1="388.6" x2="-155.6" y2="517.7"/>
			
				<line fill="none" stroke="#00C3DC" stroke-width="5" stroke-linecap="round" stroke-linejoin="round" x1="-155.6" y1="521.6" x2="-155.6" y2="521.6"/>
		</g>
	</g>
	<g id="Laptop">
		<g id="XMLID_34251_">
			<path fill="#FFFFFF" d="M-260,368.3c0,1.5,0.5,3,2.4,4.1l125.1,72.3c3.4,2,8.9,2,12.3,0l71.9-41.8c2.1-1.2,3.2-2.9,2.2-4.5v-5.6
				c1-1.1,0.2-2.3-0.7-3.3c1.3,0.4,2.5,0.2,3.3-0.4l4.2-2.6c0.9-0.7,1.5-2,1.5-3.8l0.2-83.3c0-3.9-2.8-8.7-6.2-10.7l-125.2-72.3
				c-1.7-1-3.2-1.1-4.4-0.4l-3.8,2.4c-0.4,0.1-0.7,0.4-1,0.7l0,0c0,0-1.7,0.5-1.5,6.5c0.2,6,0,80.3,0,80.3s-0.5,5,2.8,7.5
				c1.2,1,2.3,1.8,3.3,2.6c-3.4-2-8.9-2-12.3,0l-72,41.8c-2,1.2-2.7,2.8-2.3,4.4l0,0V368.3z"/>
		</g>
		<g id="XMLID_34253_">
			<g id="XMLID_34254_">
				<polygon id="XMLID_135_" fill="#B9B9B8" points="-228.2,356.7 -211.1,366.6 -204.2,362.6 -221.2,352.7 				"/>
				<polygon id="XMLID_134_" fill="#B9B9B8" points="-93.6,376.3 -100.9,372 -107.8,376.1 -100.5,380.3 				"/>
				<polygon id="XMLID_133_" fill="#B9B9B8" points="-96.8,382.4 -89.6,386.6 -82.6,382.6 -89.9,378.4 				"/>
				<polygon id="XMLID_132_" fill="#B9B9B8" points="-173.4,363.2 -166.1,367.4 -159.2,363.4 -166.4,359.2 				"/>
				<polygon id="XMLID_131_" fill="#B9B9B8" points="-169.5,357.4 -176.8,353.2 -183.7,357.2 -176.5,361.4 				"/>
				<polygon id="XMLID_130_" fill="#B9B9B8" points="-123.8,371.4 -131,367.1 -138,371.2 -130.7,375.4 				"/>
				<polygon id="XMLID_129_" fill="#B9B9B8" points="-127.5,377.2 -120.2,381.4 -113.3,377.4 -120.5,373.2 				"/>
				<polygon id="XMLID_128_" fill="#B9B9B8" points="-148.5,365.1 -141.2,369.3 -134.3,365.3 -141.5,361.1 				"/>
				<polygon id="XMLID_127_" fill="#B9B9B8" points="-144.7,359.2 -152,355 -158.9,359 -151.7,363.2 				"/>
				<polygon id="XMLID_126_" fill="#B9B9B8" points="-135.3,377.2 -142.3,381.3 -135,385.5 -128.1,381.5 				"/>
				<polygon id="XMLID_125_" fill="#B9B9B8" points="-138.4,375.5 -145.7,371.2 -152.6,375.3 -145.4,379.5 				"/>
				<polygon id="XMLID_124_" fill="#B9B9B8" points="-148.8,369.4 -156.1,365.2 -163,369.2 -155.7,373.5 				"/>
				<polygon id="XMLID_123_" fill="#B9B9B8" points="-162.2,357.1 -155.2,353.1 -162.5,348.9 -169.4,352.9 				"/>
				<polygon id="XMLID_122_" fill="#B9B9B8" points="-155.4,348.4 -148.4,344.4 -155.7,340.2 -162.6,344.2 				"/>
				<polygon id="XMLID_121_" fill="#B9B9B8" points="-151.7,350.6 -144.4,354.8 -137.5,350.8 -144.7,346.6 				"/>
				<polygon id="XMLID_120_" fill="#B9B9B8" points="-140.7,357 -133.4,361.2 -126.5,357.2 -133.8,352.9 				"/>
				<polygon id="XMLID_119_" fill="#B9B9B8" points="-129.7,363.3 -122.5,367.5 -115.5,363.5 -122.8,359.3 				"/>
				<polygon id="XMLID_118_" fill="#B9B9B8" points="-118.8,369.7 -111.5,373.9 -104.6,369.9 -111.8,365.7 				"/>
				<polygon id="XMLID_117_" fill="#B9B9B8" points="-110.1,379.3 -117,383.3 -109.7,387.5 -102.8,383.5 				"/>
				<polygon id="XMLID_116_" fill="#B9B9B8" points="-114.6,389.3 -121.6,393.3 -114.3,397.5 -107.3,393.5 				"/>
				<polygon id="XMLID_115_" fill="#B9B9B8" points="-117.7,387.5 -125,383.3 -131.9,387.3 -124.6,391.5 				"/>
				<polygon id="XMLID_114_" fill="#B9B9B8" points="-131.4,392.2 -138.3,396.2 -131,400.4 -124.1,396.4 				"/>
				<polygon id="XMLID_113_" fill="#B9B9B8" points="-134.4,390.4 -141.6,386.2 -148.6,390.2 -141.3,394.4 				"/>
				<polygon id="XMLID_112_" fill="#B9B9B8" points="-144.7,384.4 -152,380.2 -158.9,384.2 -151.7,388.4 				"/>
				<polygon id="XMLID_111_" fill="#B9B9B8" points="-155,378.5 -162.2,374.3 -169.2,378.3 -161.9,382.5 				"/>
				<polygon id="XMLID_110_" fill="#B9B9B8" points="-165.7,372.3 -172.9,368 -179.9,372.1 -172.6,376.3 				"/>
				<polygon id="XMLID_109_" fill="#B9B9B8" points="-175.9,366.3 -183.2,362.1 -190.1,366.1 -182.9,370.3 				"/>
				<polygon id="XMLID_108_" fill="#B9B9B8" points="-186.3,360.3 -193.5,356.1 -200.5,360.1 -193.2,364.3 				"/>
				<polygon id="XMLID_107_" fill="#B9B9B8" points="-186.8,355.4 -179.9,351.4 -187.1,347.2 -194.1,351.2 				"/>
				<polygon id="XMLID_106_" fill="#B9B9B8" points="-172.6,351 -165.7,347 -173,342.8 -179.9,346.8 				"/>
				<polygon id="XMLID_105_" fill="#B9B9B8" points="-166.3,342.1 -159.4,338.1 -166.7,333.9 -173.6,337.9 				"/>
				<polygon id="XMLID_104_" fill="#B9B9B8" points="-74.8,387.2 -81.7,391.2 -74.4,395.4 -67.5,391.4 				"/>
				<polygon id="XMLID_102_" fill="#B9B9B8" points="-99.1,385.7 -106.1,389.7 -85.3,401.7 -78.4,397.7 				"/>
				<polygon id="XMLID_101_" fill="#B9B9B8" points="-104.2,395.3 -111.2,399.3 -96.2,408 -89.3,404 				"/>
				<polygon id="XMLID_100_" fill="#B9B9B8" points="-120.9,398.2 -127.8,402.3 -107.1,414.3 -100.2,410.3 				"/>
				<polygon id="XMLID_99_" fill="#B9B9B8" points="-128.7,406.4 -135.6,410.4 -118,420.6 -111.1,416.6 				"/>
				<polygon id="XMLID_98_" fill="#B9B9B8" points="-131.8,404.6 -144.2,397.4 -151.1,401.4 -138.7,408.6 				"/>
				<polygon id="XMLID_34635_" fill="#B9B9B8" points="-147.5,395.5 -186,373.1 -192.9,377.2 -154.4,399.5 				"/>
				<polygon id="XMLID_97_" fill="#B9B9B8" points="-192.8,382.1 -204,388.6 -172.8,406.6 -161.6,400.1 				"/>
				<polygon id="XMLID_34518_" fill="#B9B9B8" points="-195.8,375.5 -188.9,371.5 -201.3,364.2 -208.3,368.3 				"/>
				<polygon id="XMLID_96_" fill="#B9B9B8" points="-217.2,350.4 -203.6,358.3 -196.7,354.3 -201.5,351.5 -191.2,345.5 -200,340.4 
									"/>
				<polygon id="XMLID_95_" fill="#B9B9B8" points="-188.5,333.8 -195.4,337.8 -183.1,344.9 -176.2,340.9 				"/>
				<polygon id="XMLID_94_" fill="#B9B9B8" points="-177.3,335.7 -170.4,331.7 -177.6,327.5 -184.6,331.5 				"/>
			</g>
			<path id="XMLID_93_" fill="none" stroke="#EEEEEE" stroke-miterlimit="10" d="M-257.3,357.7l72-41.8c3.4-2,8.9-2,12.3,0
				l125.2,72.3c3.4,2,3.4,5.2,0,7.1l-72,41.8c-3.4,2-8.9,2-12.3,0l-125.2-72.3C-260.6,362.9-260.6,359.7-257.3,357.7z"/>
		</g>
		<path id="XMLID_34372_" fill="none" stroke="#EEEEEE" stroke-width="1.5916" stroke-miterlimit="10" d="M-179.7,222.5
			c0-3.9,2.8-5.5,6.2-3.5l125.2,72.3c3.4,2,6.2,6.8,6.2,10.7l-0.2,83.3c0,3.9-2.8,5.5-6.2,3.5"/>
		<g id="XMLID_34255_">
			<path id="XMLID_34217_" fill="none" stroke="#D4D6D6" stroke-miterlimit="10" d="M-174.7,304.4l0.2-76.3c0-2.3,1.7-3.3,3.7-2.1
				l120.2,69.4c2,1.2,3.7,4.1,3.7,6.4l-0.2,76.3c0,2.3-1.7,3.3-3.7,2.1L-171,310.8C-173,309.6-174.7,306.8-174.7,304.4L-174.7,304.4
				z"/>
		</g>
		<g id="XMLID_3_">
			<path fill="#B2B5B5" d="M-171.5,215.5c0.8,0,1.8,0.3,2.8,0.8l125.2,72.3c3.4,2,6.2,6.8,6.2,10.7l-0.2,83.3c0,1.8-0.6,3.1-1.5,3.8
				l-4.2,2.6c-0.5,0.4-1.2,0.6-2,0.6c-0.4,0-1-0.1-1.5-0.2c0.9,1,1.7,2.2,0.7,3.3v5.6c1,1.6-0.1,3.3-2.2,4.5l-72,41.8
				c-1.7,1-3.9,1.5-6.1,1.5c-2.2,0-4.5-0.5-6.2-1.5l-125.1-72.3c-1.9-1.1-2.4-2.6-2.4-4.1v-6.3l0,0c-0.4-1.5,0.3-3.2,2.3-4.4
				l72-41.8c1.7-1,3.9-1.5,6.1-1.5c2.2,0,4.5,0.5,6.2,1.5c-0.9-0.7-2-1.6-3.3-2.6c-3.3-2.6-2.8-7.5-2.8-7.5s0.2-74.3,0-80.3
				c-0.2-6,1.5-6.5,1.5-6.5l0,0c0.3-0.3,0.6-0.5,1-0.7l3.8-2.4C-172.6,215.7-172.1,215.5-171.5,215.5 M-171.5,210.5
				C-171.5,210.5-171.5,210.5-171.5,210.5c-1.4,0-2.9,0.4-4.1,1.1c-0.1,0-0.1,0.1-0.2,0.1l-3.4,2.2c-0.5,0.3-1.1,0.6-1.5,0.9
				c-2,1.3-3.9,4.2-3.6,10.9c0.2,5.7,0,75.7,0,79.9c0,0.7-0.1,2.4,0.3,4.3c-1.5,0.4-2.9,0.9-4.1,1.6l-71.9,41.8
				c-3.4,2-5.9,5.3-4.9,8.6c0,0,0,0,0,0.1v5.9c-1,3.4,1.4,6.7,4.9,8.7l125.2,72.3c2.4,1.4,5.4,2.1,8.6,2.1c3.2,0,6.3-0.8,8.7-2.2
				l71.9-41.8c3.8-2.2,5.7-5.9,4.7-9.5v-4.3c0,0,0.1-0.1,0.1-0.1c0.1-0.1,0.2-0.1,0.3-0.2l4.1-2.5c0.1-0.1,0.3-0.2,0.4-0.3
				c2.2-1.7,3.5-4.4,3.5-7.7l0.2-83.3c0-5.7-3.7-12.2-8.7-15L-166.2,212C-168,211-169.7,210.5-171.5,210.5L-171.5,210.5z"/>
		</g>
	</g>
	<g>
		<g>
			
				<line fill="none" stroke="#00C3DC" stroke-width="5" stroke-linecap="round" stroke-linejoin="round" stroke-dasharray="0,8" x1="-6.1" y1="524.5" x2="61.9" y2="481.5"/>
			<g>
				<polygon fill="#00C3DC" points="59.9,498.5 56.8,497.7 60.9,482.2 45.1,479.2 45.7,476.1 64.9,479.7 				"/>
			</g>
		</g>
	</g>
	<g>
		<g>
			
				<line fill="none" stroke="#00C3DC" stroke-width="5" stroke-linecap="round" stroke-linejoin="round" x1="-303.6" y1="434.3" x2="-303.6" y2="434.3"/>
			
				<line fill="none" stroke="#00C3DC" stroke-width="5" stroke-linecap="round" stroke-linejoin="round" stroke-dasharray="0,7.4715" x1="-310.1" y1="438.1" x2="-339" y2="455.2"/>
			
				<line fill="none" stroke="#00C3DC" stroke-width="5" stroke-linecap="round" stroke-linejoin="round" x1="-342.2" y1="457.1" x2="-342.2" y2="457.1"/>
			<g>
				<polygon fill="#00C3DC" points="-339.9,441.5 -337,442.4 -341.2,456.6 -326.8,459.7 -327.4,462.6 -345,458.8 				"/>
			</g>
		</g>
	</g>
	<g>
		
			<ellipse transform="matrix(0.9991 4.243155e-02 -4.243155e-02 0.9991 22.9012 1.813)" opacity="0.7" fill="#FFFFFF" cx="-31.3" cy="540.4" rx="34.7" ry="22.2"/>
		
			<ellipse fill="none" stroke="#00C3DC" stroke-width="5" stroke-linejoin="round" stroke-miterlimit="10" cx="-31.3" cy="540.4" rx="34.7" ry="22.2"/>
		<g>
			<g>
				<path fill="#FFFFFF" d="M-32.3,550.3c-4,0-7.1-2.1-7.1-4.9v-37.6c0-2.5,1.1-4.6,3-5.9V406c-0.6-0.8-1-1.8-1-2.4v-12l-13.1-8.1
					v5.6c3,1.1,5,4.2,5.7,8.6c0.1,0.2,0.2,0.5,0.2,0.7c0,0.2,0,0.5,0,0.8c0,0.4,0,0.9,0,1.2c0,0.8-0.2,1.4-0.5,2.2l0,0
					c0,0.2,0,0.4,0,0.6c0,4.4-3.6,7.9-8.3,7.9c-4.6,0-8.3-3.7-8.3-8.3c0,0,0,0,0,0c-0.9-0.9-0.9-1.9-0.9-2.6l0-0.2c0-0.3,0-0.6,0-1
					c0-0.2,0-0.4,0-0.6c0-0.2,0-0.4,0.1-0.6c0.2-2.5,0.8-7.2,4.8-9.1v-5.3c0-2.9,1.2-5.2,3.3-6.4c0.9-0.5,1.9-0.8,3-0.8
					c2.3,0,4.2,1.1,4.3,1.2l34.4,21.1c3,1.8,4.5,4.5,4.5,8v8c3.1,1.5,5.2,4.5,5.8,8.4c0.2,0.3,0.2,0.7,0.2,1.1c0,0.4,0,0.7,0,1
					c0,0.8-0.2,1.6-0.5,2.3c0,0.1,0,0.1,0,0.4c0,4.6-3.6,8.1-8.3,8.1c-4.6,0-8.3-3.7-8.3-8.3c0-0.1,0-0.1,0-0.2c0-0.1,0-0.2,0-0.3
					c0-0.1-0.1-0.2-0.1-0.2c-0.3-0.4-0.7-1.1-0.7-1.9c0-0.2,0-0.5,0.1-0.7c0-0.1,0-0.1,0-0.2c0-0.2,0-0.5,0-0.7c0,0,0-0.1,0-0.1
					c0.5-4.2,2.2-7.1,5.3-8.4l-0.1-8.4c0-0.2-0.3-0.9-1.7-1.7l-12-7.2v6.2c0,0.4,0,1.5-1,2.2v95.8c2.5,1.3,4,3.8,4,6.2v37.6
					C-25.3,548.2-28.4,550.3-32.3,550.3z"/>
				<path fill="#B2B5B5" d="M-51.3,377.8c1.7,0,3.3,0.8,3.6,1l34.4,21.1c3.6,2.1,3.8,5.1,3.8,6.7v9c4,1.4,5.6,5.1,5.9,8.1h0.1
					c0,0,0,0.1-0.1,0.2c0,0.4,0.1,0.8,0.1,1.1c0,0.6-0.2,1.7-0.6,1.7h0c0.1,1,0.1,0.6,0.1,1c0,3.7-3,6.6-6.8,6.6
					c-3.7,0-6.8-3-6.8-6.7c0-0.2-0.1-0.4-0.1-0.7v0c0-0.6-0.8-1.2-0.8-2c0-0.3,0.1-0.6,0.1-1c0-0.2,0-0.2,0-0.2h0.1
					c0.2-3,1.2-6.7,5.4-7.9l-0.1-9.6c0-0.1-0.1-1.6-2.4-2.9l-14.3-8.5v8.9c0,0.5,0,1-1,1.3v97.9l0.7,0.1c1.7,0.9,3.3,2.8,3.3,4.9
					v37.6c0,1.8-2.5,3.3-5.6,3.3c-3.1,0-5.6-1.5-5.6-3.3v-37.6c0-2.1,1-4,2.8-4.9l0.2-0.1v-97.3h0.3c-0.5,0-1.3-1.4-1.3-1.9v-12.8
					l0.1,0l-14-8.7c-0.4-0.2-1.1-0.4-1.5-0.4c-0.1,0-0.2,0-0.2,0c0,0-0.6,0.3-0.6,1.7v6.9h0.5c3.6,1,4.9,5,5.2,8.1h0.1
					c0,0.6,0,0.7,0,0.7c0,0,0,0,0,0c0,0,0,0,0,0c0,0.4,0.1,1,0.1,1.3c0,0.6-0.2,1.1-0.6,2.1h0c0.1,0,0.1,0.4,0.1,0.7
					c0,3.7-3,6.4-6.7,6.4s-6.8-3-6.8-6.8c0-0.2,0-0.5,0-0.7v0c-1-0.6-0.9-1.3-0.9-2.1c0-0.3,0-0.7,0.1-1.2c0,0,0,0,0,0
					c0,0,0,0.1,0,0.1c0,0,0-0.1,0-0.6h0.1c0.2-3,0.8-7.4,4.8-8.7v-6.3c0-2.5,1-4.2,2.5-5.1C-52.8,378-52.1,377.8-51.3,377.8
					 M-3.6,423.7L-3.6,423.7 M-51.3,374.8C-51.3,374.8-51.3,374.8-51.3,374.8c-1.4,0-2.6,0.3-3.7,1c-2.6,1.5-4,4.3-4,7.8v4.4
					c-3.9,2.4-4.5,7.1-4.8,9.7c-0.1,0.3-0.1,0.6-0.1,0.9c0,0.2,0,0.4,0,0.6c0,0.4,0,0.7,0,1l0,0.2c0,0.7,0,2,0.9,3.2
					c0.3,5.1,4.6,9.2,9.8,9.2c5.5,0,9.8-4.1,9.8-9.4c0-0.1,0-0.3,0-0.4c0.3-0.8,0.5-1.5,0.5-2.4c0-0.3,0-0.8,0-1.2
					c0-0.2,0-0.5,0-0.8c0-0.4-0.1-0.8-0.3-1.2c-0.7-4.4-2.7-7.6-5.6-9.1v-1.9l10.1,6.2v11.2c0,0.8,0.4,1.9,1,2.9v94.7
					c-1.9,1.6-3,4-3,6.7v37.6c0,3.6,3.7,6.4,8.6,6.4c4.9,0,8.6-2.7,8.6-6.4v-37.6c0-2.7-1.6-5.4-4-7.1v-94.3c0.6-0.7,1-1.6,1-2.9
					v-3.6l9.8,5.8c0.6,0.3,0.8,0.6,0.9,0.8l0.1,7.1c-3.6,2-4.9,5.8-5.3,9c-0.1,0.4-0.2,0.8-0.1,1.2c0,0,0,0,0,0c0,0.2-0.1,0.6-0.1,1
					c0,1.2,0.5,2.1,0.9,2.7c0,0,0,0,0,0l0,0.1c0,5.4,4.4,9.7,9.8,9.7c5.4,0,9.8-4.3,9.8-9.6c0,0,0,0,0-0.1c0.3-0.7,0.5-1.6,0.5-2.6
					c0-0.2,0-0.4,0-0.6c0.4-0.8,0.2-1.6-0.2-2.5c0-0.1-0.1-0.2-0.1-0.2c-0.8-3.6-2.8-6.4-5.6-8.1v-7.1c0-4.1-1.8-7.2-5.3-9.3
					l-34.3-21.1c0,0,0,0-0.1,0C-46.5,376-48.7,374.8-51.3,374.8L-51.3,374.8L-51.3,374.8z"/>
			</g>
			<g>
				<path fill="none" stroke="#B2B5B5" stroke-miterlimit="10" d="M-35.1,502.5v0.8c0,0.8,0.6,1.5,2,1.5c1.4,0,2-0.7,2-1.5v-0.8"/>
				<path fill="none" stroke="#B2B5B5" stroke-width="1.0091" stroke-miterlimit="10" d="M-1.8,424c0,3-4.1,5.5-9.2,5.5
					s-9.2-2.5-9.2-5.5"/>
				<path fill="none" stroke="#B2B5B5" stroke-width="1.0091" stroke-miterlimit="10" d="M-46.4,400.7c0,2.5-3.3,4.4-7.4,4.4
					s-7.4-2-7.4-4.4"/>
				<g>
					<g>
						<path fill="#B2B5B5" d="M-35,389.6c0.2,0,0.5,0.1,0.7,0.2c1.5,0.8,1.8,3.5,2.4,3.9c0.6,0.3,1.8,1,1.8,1v8.9
							c0,1-1.4,1.9-3.1,1.9c-1.7,0-3.1-0.8-3.1-1.9v-12.8C-36.4,390.8-36,389.6-35,389.6 M-35,388.6L-35,388.6
							c-1.4,0-2.1,1.2-2.4,1.9l-0.1,0.2v0.2v12.8c0,1.6,1.8,2.9,4.2,2.9s4.2-1.3,4.2-2.9v-8.9v-0.6l-0.5-0.3c0,0-1-0.6-1.6-1
							c-0.1-0.2-0.2-0.5-0.3-0.7c-0.4-1.1-1-2.6-2.3-3.3C-34.2,388.7-34.6,388.6-35,388.6L-35,388.6z"/>
					</g>
				</g>
			</g>
		</g>
	</g>
	<g>
		<g>
			
				<line fill="none" stroke="#F9BD31" stroke-width="5" stroke-linecap="round" stroke-linejoin="round" stroke-dasharray="0,8" x1="-93.6" y1="303.1" x2="-284.3" y2="410.3"/>
			<g>
				<polygon fill="#F9BD31" points="-281.4,393.4 -278.3,394.4 -283.2,409.7 -267.6,413.5 -268.4,416.6 -287.4,412 				"/>
			</g>
		</g>
	</g>
	<g id="Commercial_Plane">
		<path fill="#FFFFFF" stroke="#B2B5B5" stroke-width="3" stroke-miterlimit="10" d="M79.8,284l-63-13.1l-23.1-10l0,0
			c9.5-5.6,15.9-9.4,15.9-9.4s10.7-5.8,18.1-10.9c4-2.8,8.7-9,12.5-14.9l24.1,1c0,0,1.1,0,4.3-1.6c3.2-1.6,4-2.3,4-2.3
			s2.2-1-1.1-1.8c-2.7-0.7-19.3-5.4-24.8-6.9c0,0,0,0,0,0c1.3-3.1-1.1-3-2.7-2.7l4.9-28.6c0,0,0.6-1.4-1.8,0c-2.4,1.4-5,2.7-5,2.7
			s-1.1,0.5-2,2.5c-0.4,0.9-3.1,7-6.2,13.5l-4.4-5.3c0,0-0.7-0.8-2.5,0s-5.6,3-5.6,3s-1.2,0.3-0.8,3.9c0.3,3.6,2.3,19.1,2.3,19.1
			c-0.5,0.5-1,1.1-1.5,1.7c-12.6,7.2-29.2,16.8-46,26.5l0,0l-15.1-11.7l-21.4-36.4c0,0-0.8-1.4-2.6-0.5c-1.8,0.8-9.6,6.7-9.6,7.3
			c0,0.5-0.7,0.5,0,4.4c0.2,1.2,1.5,7.5,3.3,15.4c-2.4,0.7-5.6,2.1-7.2,5.5c-0.1,0.2-0.4,1.3-0.4,1.8c0,2,1.6,4.5,3.6,5.7
			c1,0.6,1.9,0.6,2.6,0.4c1.6-0.4,2.9-0.8,4-1.3c0.5,2.5,1.1,5,1.6,7.5c-2.4,0.6-5.8,2.1-7.4,5.5c-0.1,0.2-0.4,1.3-0.4,1.8
			c0,2,1.6,4.5,3.6,5.7c1,0.6,1.9,0.6,2.6,0.4c1.7-0.4,3-0.9,4.2-1.4c1.4,6.5,2.4,11,2.4,11l0,0c-17.7,10.2-31,17.9-32.5,18.8
			c-3.9,2.4-5.7,5.6-6.3,6.9l0,0l0,0c-0.2,0.4-0.3,0.6-0.3,0.6c-3.2,3.7-3.5,6.1-3.5,6.1c-1.5,9.7,19.6,1.6,23.5,0
			c1.6-0.7,17.3-9.8,35.2-20.3c0,0,20.8,1.7,44.1,3.5c-1.8,0.9-3.7,2.3-4.8,4.6c-0.1,0.2-0.4,1.3-0.4,1.8c0,2,1.6,4.5,3.6,5.7
			c1,0.6,1.9,0.6,2.6,0.4c8.8-2.2,9.6-6.2,9.6-6.2c0.3-0.4,0.4-0.8,0.4-1.4c0-0.1,0-0.1,0-0.2l0,0c2.1-1,2.3-2.2,2.3-2.2
			c0.1-0.2,0.2-0.4,0.2-0.7c0-0.2,0-0.4-0.1-0.7c6.8,0.5,13.5,1,19.7,1.5c-2.1,0.8-4.5,2.3-5.8,5c-0.1,0.2-0.4,1.3-0.4,1.8
			c0,2,1.6,4.5,3.6,5.7c1,0.6,1.9,0.6,2.6,0.4c8.8-2.2,9.6-6.2,9.6-6.2c0.3-0.4,0.4-0.8,0.4-1.4c0-0.1,0-0.1,0-0.2l0,0
			c2.1-1,2.3-2.2,2.3-2.2c0.1-0.2,0.2-0.4,0.2-0.7c0-0.4-0.1-0.8-0.3-1.2c8.6,0.6,15,1,17,1c9.1,0,10.4-1.5,10.4-1.5s4-2.1,7.8-3.7
			C83.6,284.6,79.8,284,79.8,284z"/>
		<line fill="none" stroke="#B2B5B5" stroke-width="2" stroke-miterlimit="10" x1="-0.7" y1="287.1" x2="12.7" y2="288.1"/>
		<line fill="none" stroke="#B2B5B5" stroke-width="2" stroke-miterlimit="10" x1="32.2" y1="289.6" x2="44.6" y2="290.5"/>
		<line fill="none" stroke="#B2B5B5" stroke-width="2" stroke-miterlimit="10" x1="-70.1" y1="228.9" x2="-67.5" y2="240.9"/>
		<line fill="none" stroke="#B2B5B5" stroke-width="2" stroke-miterlimit="10" x1="-65.9" y1="248.4" x2="-63.3" y2="260.4"/>
		<g>
			<path fill="none" stroke="#B2B5B5" stroke-width="2" stroke-miterlimit="10" d="M-60.9,271.4c5.1-3.2,36.2-20.9,36.2-20.9"/>
			<path fill="none" stroke="#B2B5B5" stroke-width="2" stroke-miterlimit="10" d="M79.8,284"/>
			<g>
				<path fill="none" stroke="#B2B5B5" stroke-width="2" stroke-miterlimit="10" d="M40.2,290.1c1.3,1.3,2.3,3.1,2.3,4.7
					c0,0.6-0.1,1.1-0.4,1.4c0,0-0.8,4-9.6,6.2c-0.7,0.2-1.6,0.2-2.6-0.4c-2-1.1-3.6-3.7-3.6-5.7c0-0.4,0.3-1.5,0.4-1.8
					c1.3-2.7,3.7-4.2,5.8-5"/>
				<path fill="none" stroke="#B2B5B5" stroke-miterlimit="10" d="M30.3,295.2c-1.5-0.9-2.8-0.3-2.8,1.2c0,1.5,1.2,3.5,2.8,4.4
					c1.5,0.9,2.8,0.3,2.8-1.2S31.8,296.1,30.3,295.2z"/>
				<path fill="none" stroke="#B2B5B5" stroke-width="2" stroke-miterlimit="10" d="M44.6,290.5c0.2,0.4,0.3,0.9,0.3,1.2
					c0,0.3-0.1,0.5-0.2,0.7c0,0-0.2,1.2-2.3,2.2"/>
			</g>
			<g>
				<path fill="none" stroke="#B2B5B5" stroke-width="2" stroke-miterlimit="10" d="M8.6,287.8c1,1.2,1.7,2.8,1.7,4.1
					c0,0.6-0.1,1.1-0.4,1.4c0,0-0.8,4-9.6,6.2c-0.7,0.2-1.6,0.2-2.6-0.4c-2-1.1-3.6-3.7-3.6-5.7c0-0.4,0.3-1.5,0.4-1.8
					c1.1-2.3,3-3.7,4.8-4.6"/>
				<path fill="none" stroke="#B2B5B5" stroke-miterlimit="10" d="M-1.8,292.3c-1.5-0.9-2.8-0.3-2.8,1.2c0,1.5,1.2,3.5,2.8,4.4
					c1.5,0.9,2.8,0.3,2.8-1.2S-0.3,293.2-1.8,292.3z"/>
				<path fill="none" stroke="#B2B5B5" stroke-width="2" stroke-miterlimit="10" d="M12.7,288c0.1,0.3,0.1,0.5,0.1,0.8
					c0,0.3-0.1,0.5-0.2,0.7c0,0-0.2,1.2-2.3,2.2"/>
			</g>
			<g>
				<path fill="none" stroke="#B2B5B5" stroke-width="2" stroke-miterlimit="10" d="M-63.3,260.4c-1.1,0.5-2.5,1-4.2,1.4
					c-0.7,0.2-1.6,0.2-2.6-0.4c-2-1.1-3.6-3.7-3.6-5.7c0-0.4,0.3-1.5,0.4-1.8c1.6-3.4,5-4.9,7.4-5.5"/>
				<path fill="none" stroke="#B2B5B5" stroke-miterlimit="10" d="M-69.6,254.6c-1.5-0.9-2.8-0.3-2.8,1.2c0,1.5,1.2,3.5,2.8,4.4
					c1.5,0.9,2.8,0.3,2.8-1.2S-68,255.4-69.6,254.6z"/>
			</g>
			<g>
				<path fill="none" stroke="#B2B5B5" stroke-width="2" stroke-miterlimit="10" d="M-67.5,241c-1.1,0.5-2.4,0.9-4,1.3
					c-0.7,0.2-1.6,0.2-2.6-0.4c-2-1.1-3.6-3.7-3.6-5.7c0-0.4,0.3-1.5,0.4-1.8c1.6-3.3,4.9-4.8,7.2-5.5"/>
				<path fill="none" stroke="#B2B5B5" stroke-miterlimit="10" d="M-73.6,235c-1.5-0.9-2.8-0.3-2.8,1.2c0,1.5,1.2,3.5,2.8,4.4
					c1.5,0.9,2.8,0.3,2.8-1.2C-70.8,237.9-72.1,235.9-73.6,235z"/>
			</g>
			<path fill="none" stroke="#B2B5B5" stroke-width="2" stroke-miterlimit="10" d="M26.2,225.2l38,1.6c0,0,1.1,0,4.3-1.6
				c3.2-1.6,4-2.3,4-2.3s2.2-1-1.1-1.8c-3.3-0.8-26.5-7.4-26.5-7.4s-2-0.7-4.7,1C37.5,216.4,23.9,224.2,26.2,225.2z"/>
			<path fill="none" stroke="#B2B5B5" stroke-width="2" stroke-miterlimit="10" d="M43.4,213.5l5.4-30.6c0,0,0.6-1.4-1.8,0
				s-5,2.7-5,2.7s-1.1,0.5-2,2.5c-0.9,2-13.4,29.5-15,31.7s-6.3,7.4-7.3,8.2c-1,0.8-0.8,1.5,2.3,0c3.2-1.5,5.9-3.2,5.9-3.2"/>
			<path fill="#B9B9B8" d="M-98.8,295.5c0,0-0.2,2.4,2.8,2.4c3,0,5-0.3,6-0.6v2.2c0,0-2.2,1-6.6,0.9s-3.1-3.3-3.1-3.3"/>
			<path fill="none" stroke="#B2B5B5" stroke-width="2" stroke-miterlimit="10" d="M-44.7,283.6c0,0-3.2,0.6-3.5-2.2
				c0,0,3.4-6.3,20.9-14.8c17.4-8.5,21-5.6,21-5.6"/>
		</g>
	</g>
</g>
</svg>
