<?xml version="1.0" encoding="utf-8"?>
<!-- Generator: Adobe Illustrator 19.0.1, SVG Export Plug-In . SVG Version: 6.00 Build 0)  -->
<!DOCTYPE svg PUBLIC "-//W3C//DTD SVG 1.1//EN" "http://www.w3.org/Graphics/SVG/1.1/DTD/svg11.dtd">
<svg version="1.1" id="Layer_1" xmlns="http://www.w3.org/2000/svg" xmlns:xlink="http://www.w3.org/1999/xlink" x="0px" y="0px"
	 viewBox="-389 111 500 500" enable-background="new -389 111 500 500" xml:space="preserve">
<g>
	<g>
		<g>
			<path fill="none" stroke="#EEEEEE" stroke-width="2" stroke-miterlimit="10" d="M96.7,425.7l-289.9,176.8"/>
			<path fill="none" stroke="#EEEEEE" stroke-width="2" stroke-miterlimit="10" d="M87.9,412l-305.9,186.5"/>
			<path fill="none" stroke="#EEEEEE" stroke-width="2" stroke-miterlimit="10" d="M-240.7,593.5l318-193.9"/>
			<path fill="none" stroke="#EEEEEE" stroke-width="2" stroke-miterlimit="10" d="M-261.8,587.4L64.9,388.2"/>
			<path fill="none" stroke="#EEEEEE" stroke-width="2" stroke-miterlimit="10" d="M-281.4,580.3L50.9,377.7"/>
			<path fill="none" stroke="#EEEEEE" stroke-width="2" stroke-miterlimit="10" d="M-299.5,572.4L35.6,368.1"/>
			<path fill="none" stroke="#EEEEEE" stroke-width="2" stroke-miterlimit="10" d="M-166.2,605l269.4-164.3"/>
			<path fill="none" stroke="#EEEEEE" stroke-width="2" stroke-miterlimit="10" d="M-136.4,605.8L107,457.4"/>
			<path fill="none" stroke="#EEEEEE" stroke-width="2" stroke-miterlimit="10" d="M-102.8,604.3l209.6-127.8"/>
			<path fill="none" stroke="#EEEEEE" stroke-width="2" stroke-miterlimit="10" d="M-63,599l163.5-99.7"/>
			<path fill="none" stroke="#EEEEEE" stroke-width="2" stroke-miterlimit="10" d="M0.5,351.5l-331.8,202.3"/>
			<path fill="none" stroke="#EEEEEE" stroke-width="2" stroke-miterlimit="10" d="M-316.1,563.5L18.8,359.4"/>
			<path fill="none" stroke="#EEEEEE" stroke-width="2" stroke-miterlimit="10" d="M-8.1,584.5L79,531.4"/>
			<path fill="none" stroke="#EEEEEE" stroke-width="2" stroke-miterlimit="10" d="M-19.2,344.6L-345,543.2"/>
			<path fill="none" stroke="#EEEEEE" stroke-width="2" stroke-miterlimit="10" d="M-40.6,338.6l-316.6,193.1"/>
			<path fill="none" stroke="#EEEEEE" stroke-width="2" stroke-miterlimit="10" d="M-63.6,333.7l-304,185.4"/>
			<path fill="none" stroke="#EEEEEE" stroke-width="2" stroke-miterlimit="10" d="M-88.6,329.9l-287.5,175.3"/>
			<path fill="none" stroke="#EEEEEE" stroke-width="2" stroke-miterlimit="10" d="M-115.9,327.6l-266.4,162.4"/>
			<path fill="none" stroke="#EEEEEE" stroke-width="2" stroke-miterlimit="10" d="M-146.2,327.1l-239.4,146"/>
			<path fill="none" stroke="#EEEEEE" stroke-width="2" stroke-miterlimit="10" d="M-180.4,328.9l-204.4,124.7"/>
			<path fill="none" stroke="#EEEEEE" stroke-width="2" stroke-miterlimit="10" d="M-221.3,334.9l-156.1,95.2"/>
			<path fill="none" stroke="#EEEEEE" stroke-width="2" stroke-miterlimit="10" d="M-280.7,352.2l-70.5,43"/>
			<path fill="none" stroke="#EEEEEE" stroke-width="2" stroke-miterlimit="10" d="M-375.4,425.7l289.9,176.8"/>
			<path fill="none" stroke="#EEEEEE" stroke-width="2" stroke-miterlimit="10" d="M-366.6,412l305.9,186.5"/>
			<path fill="none" stroke="#EEEEEE" stroke-width="2" stroke-miterlimit="10" d="M-38,593.5l-318-193.9"/>
			<path fill="none" stroke="#EEEEEE" stroke-width="2" stroke-miterlimit="10" d="M-16.8,587.4l-326.8-199.2"/>
			<path fill="none" stroke="#EEEEEE" stroke-width="2" stroke-miterlimit="10" d="M2.7,580.3l-332.4-202.7"/>
			<path fill="none" stroke="#EEEEEE" stroke-width="2" stroke-miterlimit="10" d="M20.8,572.4l-335.1-204.3"/>
			<path fill="none" stroke="#EEEEEE" stroke-width="2" stroke-miterlimit="10" d="M-112.5,605l-269.4-164.3"/>
			<path fill="none" stroke="#EEEEEE" stroke-width="2" stroke-miterlimit="10" d="M-142.3,605.8l-243.3-148.4"/>
			<path fill="none" stroke="#EEEEEE" stroke-width="2" stroke-miterlimit="10" d="M-175.9,604.3l-209.6-127.8"/>
			<path fill="none" stroke="#EEEEEE" stroke-width="2" stroke-miterlimit="10" d="M-215.7,599l-163.5-99.7"/>
			<path fill="none" stroke="#EEEEEE" stroke-width="2" stroke-miterlimit="10" d="M-279.2,351.5L52.6,553.8"/>
			<path fill="none" stroke="#EEEEEE" stroke-width="2" stroke-miterlimit="10" d="M37.4,563.5l-334.9-204.2"/>
			<path fill="none" stroke="#EEEEEE" stroke-width="2" stroke-miterlimit="10" d="M-270.5,584.5l-87.1-53.1"/>
			<path fill="none" stroke="#EEEEEE" stroke-width="2" stroke-miterlimit="10" d="M-259.4,344.6L66.4,543.2"/>
			<path fill="none" stroke="#EEEEEE" stroke-width="2" stroke-miterlimit="10" d="M-238.1,338.6L78.5,531.7"/>
			<path fill="none" stroke="#EEEEEE" stroke-width="2" stroke-miterlimit="10" d="M-215.1,333.7l304,185.4"/>
			<path fill="none" stroke="#EEEEEE" stroke-width="2" stroke-miterlimit="10" d="M-190,329.9L97.5,505.3"/>
			<path fill="none" stroke="#EEEEEE" stroke-width="2" stroke-miterlimit="10" d="M-162.7,327.6l266.4,162.4"/>
			<path fill="none" stroke="#EEEEEE" stroke-width="2" stroke-miterlimit="10" d="M-132.4,327.1l239.4,146"/>
			<path fill="none" stroke="#EEEEEE" stroke-width="2" stroke-miterlimit="10" d="M-98.3,328.9l204.4,124.7"/>
			<path fill="none" stroke="#EEEEEE" stroke-width="2" stroke-miterlimit="10" d="M-57.4,334.9l156.1,95.2"/>
			<path fill="none" stroke="#EEEEEE" stroke-width="2" stroke-miterlimit="10" d="M2.1,352.2l70.5,43"/>
		</g>
		
			<radialGradient id="SVGID_1_" cx="-1279.0538" cy="1111.6348" r="139.9592" gradientTransform="matrix(7.600000e-03 -1 1.7427 1.320000e-02 -2066.5251 -827.2994)" gradientUnits="userSpaceOnUse">
			<stop  offset="0.7901" style="stop-color:#FFFFFF;stop-opacity:0"/>
			<stop  offset="1" style="stop-color:#FFFFFF"/>
		</radialGradient>
		<path fill="url(#SVGID_1_)" d="M-139,322.7c-63.9,0-127.7,14-176.2,42v0c-96.9,56-96.9,147.5,0,203.5c48.5,28,112.3,42,176.2,42
			s127.8-14,176.2-42c96.9-56,96.9-147.5,0-203.5v0C-11.2,336.7-75.1,322.7-139,322.7L-139,322.7z"/>
	</g>
</g>
<g>
	<g>
		<polygon fill="#FFFFFF" points="-84.3,436.1 -29.9,403.3 -29.9,156.9 -86.2,124.4 -140.4,156.9 -140.4,402.5 		"/>
		<line fill="none" stroke="#EEEEEE" stroke-width="1.5916" stroke-miterlimit="10" x1="-85.3" y1="189.8" x2="-140.2" y2="156.9"/>
		<polyline fill="none" stroke="#EEEEEE" stroke-miterlimit="10" points="-85.6,435.9 -85.6,189.8 -30.7,157.2 		"/>
		<path fill="#EEEEEE" enable-background="new    " d="M-129.4,181v14.4l10.1,6.4v-14.4L-129.4,181L-129.4,181z"/>
		<path fill="#EEEEEE" enable-background="new    " d="M-118.3,189.1v14.4l11.1,6.4v-14.4L-118.3,189.1L-118.3,189.1z"/>
		<path fill="#EEEEEE" enable-background="new    " d="M-104.5,197.1v14.4l11.1,6.4v-14.4L-104.5,197.1L-104.5,197.1z"/>
		<path fill="#EEEEEE" enable-background="new    " d="M-129.4,200.1v14.4l10.1,6.4v-14.4L-129.4,200.1L-129.4,200.1z"/>
		<path fill="#EEEEEE" enable-background="new    " d="M-118.3,208.1v14.4l11.1,6.4v-14.4L-118.3,208.1L-118.3,208.1z"/>
		<path fill="#EEEEEE" enable-background="new    " d="M-104.5,216.2v14.4l11.1,6.4v-14.4L-104.5,216.2L-104.5,216.2z"/>
		<path fill="#EEEEEE" enable-background="new    " d="M-129.4,218.9v14.4l10.1,6.4v-14.4L-129.4,218.9L-129.4,218.9z"/>
		<path fill="#EEEEEE" enable-background="new    " d="M-118.3,226.9v14.4l11.1,6.4v-14.4L-118.3,226.9L-118.3,226.9z"/>
		<path fill="#F9BD31" enable-background="new    " d="M-104.5,234.9v14.4l11.1,6.4v-14.4L-104.5,234.9L-104.5,234.9z"/>
		<path fill="#EEEEEE" enable-background="new    " d="M-129.4,237.6V252l10.1,6.4V244L-129.4,237.6L-129.4,237.6z"/>
		<path fill="#F9BD31" enable-background="new    " d="M-118.3,245.6v14.4l11.1,6.4v-14.4L-118.3,245.6L-118.3,245.6z"/>
		<path fill="#EEEEEE" enable-background="new    " d="M-104.5,253.7v14.4l11.1,6.4v-14.4L-104.5,253.7L-104.5,253.7z"/>
		<path fill="#EEEEEE" enable-background="new    " d="M-129.4,257.3v14.4l10.1,6.4v-14.4L-129.4,257.3L-129.4,257.3z"/>
		<path fill="#EEEEEE" enable-background="new    " d="M-118.3,265.4v14.4l11.1,6.4v-14.4L-118.3,265.4L-118.3,265.4z"/>
		<path fill="#EEEEEE" enable-background="new    " d="M-104.5,273.4v14.4l11.1,6.4v-14.4L-104.5,273.4L-104.5,273.4z"/>
		<path fill="#EEEEEE" enable-background="new    " d="M-129.4,276.4v14.4l10.1,6.4v-14.4L-129.4,276.4L-129.4,276.4z"/>
		<path fill="#EEEEEE" enable-background="new    " d="M-118.3,284.4v14.4l11.1,6.4v-14.4L-118.3,284.4L-118.3,284.4z"/>
		<path fill="#EEEEEE" enable-background="new    " d="M-104.5,292.5v14.4l11.1,6.4v-14.4L-104.5,292.5L-104.5,292.5z"/>
		<path fill="#EEEEEE" enable-background="new    " d="M-129.4,295.1v14.4l10.1,6.4v-14.4L-129.4,295.1L-129.4,295.1z"/>
		<path fill="#EEEEEE" enable-background="new    " d="M-118.3,303.2v14.4l11.1,6.4v-14.4L-118.3,303.2L-118.3,303.2z"/>
		<path fill="#EEEEEE" enable-background="new    " d="M-104.5,311.2v14.4l11.1,6.4v-14.4L-104.5,311.2L-104.5,311.2z"/>
		<path fill="#EEEEEE" enable-background="new    " d="M-129.4,313.9v14.4l10.1,6.4v-14.4L-129.4,313.9L-129.4,313.9z"/>
		<path fill="#EEEEEE" enable-background="new    " d="M-118.3,321.9v14.4l11.1,6.4v-14.4L-118.3,321.9L-118.3,321.9z"/>
		<path fill="#EEEEEE" enable-background="new    " d="M-104.5,330v14.4l11.1,6.4v-14.4L-104.5,330L-104.5,330z"/>
		<path fill="#EEEEEE" enable-background="new    " d="M-129.4,332.5v14.4l10.1,6.4v-14.4L-129.4,332.5L-129.4,332.5z"/>
		<path fill="#EEEEEE" enable-background="new    " d="M-118.3,340.5V355l11.1,6.4V347L-118.3,340.5L-118.3,340.5z"/>
		<path fill="#EEEEEE" enable-background="new    " d="M-104.5,348.6V363l11.1,6.4V355L-104.5,348.6L-104.5,348.6z"/>
		<path fill="#EEEEEE" enable-background="new    " d="M-129.4,351.6V366l10.1,6.4V358L-129.4,351.6L-129.4,351.6z"/>
		<path fill="#EEEEEE" enable-background="new    " d="M-118.3,359.6V374l11.1,6.4V366L-118.3,359.6L-118.3,359.6z"/>
		<path fill="#EEEEEE" enable-background="new    " d="M-104.5,367.6v14.4l11.1,6.4v-14.4L-104.5,367.6L-104.5,367.6z"/>
		<path fill="#EEEEEE" enable-background="new    " d="M-129.4,378.4v30.5l10.1,6.4v-30.5L-129.4,378.4L-129.4,378.4z"/>
		<path fill="#EEEEEE" enable-background="new    " d="M-118.3,386.4v30.5l11.1,6.4v-30.5L-118.3,386.4L-118.3,386.4z"/>
		<path fill="#EEEEEE" enable-background="new    " d="M-104.5,394.4v30.5l11.1,6.4v-30.5L-104.5,394.4L-104.5,394.4z"/>
		<path fill="#F9BD31" enable-background="new    " d="M-40,181l-10.1,6.4v14.4l10.1-6.4V181L-40,181z"/>
		<path fill="#F9BD31" enable-background="new    " d="M-52,189.1l-10.1,6.4v14.4l10.1-6.4V189.1L-52,189.1z"/>
		<path fill="#EEEEEE" enable-background="new    " d="M-64.9,197.1l-11.1,6.4v14.4l11.1-6.4V197.1L-64.9,197.1z"/>
		<path fill="#EEEEEE" enable-background="new    " d="M-40,200.1l-10.1,6.4v14.4l10.1-6.4V200.1L-40,200.1z"/>
		<path fill="#EEEEEE" enable-background="new    " d="M-52,208.1l-10.1,6.4V229l10.1-6.4V208.1L-52,208.1z"/>
		<path fill="#EEEEEE" enable-background="new    " d="M-64.9,216.2l-11.1,6.4V237l11.1-6.4V216.2L-64.9,216.2z"/>
		<path fill="#EEEEEE" enable-background="new    " d="M-40,218.9l-10.1,6.4v14.4l10.1-6.4V218.9L-40,218.9z"/>
		<path fill="#F9BD31" enable-background="new    " d="M-52,226.9l-10.1,6.4v14.4l10.1-6.4V226.9L-52,226.9z"/>
		<path fill="#F9BD31" enable-background="new    " d="M-64.9,234.9l-11.1,6.4v14.4l11.1-6.4V234.9L-64.9,234.9z"/>
		<path fill="#EEEEEE" enable-background="new    " d="M-40,237.6l-10.1,6.4v14.4L-40,252V237.6L-40,237.6z"/>
		<path fill="#EEEEEE" enable-background="new    " d="M-52,245.6l-10.1,6.4v14.4l10.1-6.4V245.6L-52,245.6z"/>
		<path fill="#EEEEEE" enable-background="new    " d="M-64.9,253.7l-11.1,6.4v14.4l11.1-6.4V253.7L-64.9,253.7z"/>
		<path fill="#EEEEEE" enable-background="new    " d="M-40,257.3l-10.1,6.4v14.4l10.1-6.4V257.3L-40,257.3z"/>
		<path fill="#F9BD31" enable-background="new    " d="M-52,265.4l-10.1,6.4v14.4l10.1-6.4V265.4L-52,265.4z"/>
		<path fill="#EEEEEE" enable-background="new    " d="M-64.9,273.4l-11.1,6.4v14.4l11.1-6.4V273.4L-64.9,273.4z"/>
		<path fill="#EEEEEE" enable-background="new    " d="M-40,276.4l-10.1,6.4v14.4l10.1-6.4V276.4L-40,276.4z"/>
		<path fill="#EEEEEE" enable-background="new    " d="M-52,284.4l-10.1,6.4v14.4l10.1-6.4V284.4L-52,284.4z"/>
		<path fill="#EEEEEE" enable-background="new    " d="M-64.9,292.5l-11.1,6.4v14.4l11.1-6.4V292.5L-64.9,292.5z"/>
		<path fill="#F9BD31" enable-background="new    " d="M-40,295.1l-10.1,6.4V316l10.1-6.4V295.1L-40,295.1z"/>
		<path fill="#EEEEEE" enable-background="new    " d="M-52,303.2l-10.1,6.4V324l10.1-6.4V303.2L-52,303.2z"/>
		<path fill="#EEEEEE" enable-background="new    " d="M-64.9,311.2l-11.1,6.4v14.4l11.1-6.4V311.2L-64.9,311.2z"/>
		<path fill="#F9BD31" enable-background="new    " d="M-40,313.9l-10.1,6.4v14.4l10.1-6.4V313.9L-40,313.9z"/>
		<path fill="#F9BD31" enable-background="new    " d="M-52,321.9l-10.1,6.4v14.4l10.1-6.4V321.9L-52,321.9z"/>
		<path fill="#F9BD31" enable-background="new    " d="M-64.9,330l-11.1,6.4v14.4l11.1-6.4V330L-64.9,330z"/>
		<path fill="#F9BD31" enable-background="new    " d="M-40,332.5l-10.1,6.4v14.4l10.1-6.4V332.5L-40,332.5z"/>
		<path fill="#F9BD31" enable-background="new    " d="M-52,340.5l-10.1,6.4v14.4L-52,355V340.5L-52,340.5z"/>
		<path fill="#F9BD31" enable-background="new    " d="M-64.9,348.6L-76,355v14.4l11.1-6.4V348.6L-64.9,348.6z"/>
		<path fill="#EEEEEE" enable-background="new    " d="M-40,351.6l-10.1,6.4v14.4L-40,366V351.6L-40,351.6z"/>
		<path fill="#EEEEEE" enable-background="new    " d="M-52,359.6l-10.1,6.4v14.4L-52,374V359.6L-52,359.6z"/>
		<path fill="#EEEEEE" enable-background="new    " d="M-64.9,367.6l-11.1,6.4v14.4l11.1-6.4V367.6L-64.9,367.6z"/>
		<path fill="#EEEEEE" enable-background="new    " d="M-40,378.4l-10.1,6.4v30.5l10.1-6.4V378.4L-40,378.4z"/>
		<path fill="#EEEEEE" enable-background="new    " d="M-52,386.4l-10.1,6.4v30.5l10.1-6.4V386.4L-52,386.4z"/>
		<path fill="#EEEEEE" enable-background="new    " d="M-64.9,394.4l-11.1,6.4v30.5l11.1-6.4V394.4L-64.9,394.4z"/>
		<polygon fill="none" stroke="#B2B5B5" stroke-width="5" stroke-miterlimit="10" points="-84.3,436.1 -29.5,403.3 -29.5,156.9 
			-86.2,124.4 -140.9,156.9 -140.9,402.5 		"/>
	</g>
	<g>
		<g>
			<g>
				<path id="XMLID_517_" fill="#FFFFFF" stroke="#B2B5B5" stroke-width="4.774" stroke-miterlimit="10" d="M25.8,460.9L1.2,445.7
					c-2-1.3-3.1-3.5-3.1-5.9s1.3-4.6,3.3-5.8L26,419.1c2.2-1.3,5-1.3,7.2,0l25.5,15.5c2,1.3,3.3,3.5,3.3,5.9s-1.2,4.6-3.3,5.9
					l-25.5,14.7c-1.1,0.7-2.3,1-3.6,1C28.2,462.1,26.9,461.7,25.8,460.9z"/>
				<g id="XMLID_508_">
					
						<line id="XMLID_515_" fill="none" stroke="#B2B5B5" stroke-width="3.0926" stroke-linecap="round" stroke-miterlimit="10" x1="42.9" y1="438.1" x2="43.2" y2="259.1"/>
					
						<line id="XMLID_514_" fill="none" stroke="#B2B5B5" stroke-width="3" stroke-linecap="round" stroke-miterlimit="10" x1="29.6" y1="258.1" x2="29.6" y2="447.1"/>
					
						<polyline id="XMLID_513_" fill="none" stroke="#B2B5B5" stroke-width="1.9052" stroke-linejoin="bevel" stroke-miterlimit="10" points="
						42.9,435.8 29.8,426.4 42.9,401 29.8,390.5 42.9,365.6 29.8,356.9 42.9,330.4 					"/>
					
						<polyline id="XMLID_512_" fill="none" stroke="#B2B5B5" stroke-width="1.9052" stroke-linejoin="bevel" stroke-miterlimit="10" points="
						29.8,443.7 42.9,418.4 29.8,408.4 42.9,384.1 29.8,373.9 42.9,348.9 29.8,338.7 					"/>
					
						<line id="XMLID_511_" fill="none" stroke="#B2B5B5" stroke-width="3.0926" stroke-linecap="round" stroke-miterlimit="10" x1="16.5" y1="438.9" x2="16.5" y2="263.7"/>
					
						<polyline id="XMLID_510_" fill="none" stroke="#B2B5B5" stroke-width="1.9052" stroke-linejoin="bevel" stroke-miterlimit="10" points="
						16.2,435.8 29.3,426.4 16.2,401 29.3,390.5 16.2,365.6 29.3,356.9 16.2,330.4 					"/>
					
						<polyline id="XMLID_509_" fill="none" stroke="#B2B5B5" stroke-width="1.9052" stroke-linejoin="bevel" stroke-miterlimit="10" points="
						29.3,443.7 16.2,418.4 29.3,408.4 16.2,384.1 29.3,373.9 16.2,348.9 					"/>
				</g>
			</g>
			<g>
				<g id="XMLID_312_">
					<path id="XMLID_493_" fill="none" stroke="#B2B5B5" stroke-width="1.9052" stroke-linecap="round" stroke-miterlimit="10" d="
						M43.2,216"/>
					
						<polyline id="XMLID_323_" fill="none" stroke="#B2B5B5" stroke-width="1.9052" stroke-linejoin="bevel" stroke-miterlimit="10" points="
						30,337.9 43.2,312.5 30,302 43.2,277.1 30,268.4 43.2,241.9 29.6,232.8 					"/>
					
						<polyline id="XMLID_321_" fill="none" stroke="#B2B5B5" stroke-width="1.9052" stroke-linejoin="bevel" stroke-miterlimit="10" points="
						43.2,329.9 30,319.9 43.2,295.6 30,285.4 43.2,260.4 30,250.2 43.2,225.7 					"/>
					
						<polyline id="XMLID_320_" fill="none" stroke="#B2B5B5" stroke-width="1.9052" stroke-linejoin="bevel" stroke-miterlimit="10" points="
						16.5,347.3 29.6,337.9 16.5,312.5 29.6,302 16.5,277.1 29.6,268.4 16.5,241.9 30,232.8 					"/>
					
						<polyline id="XMLID_313_" fill="none" stroke="#B2B5B5" stroke-width="1.9052" stroke-linejoin="bevel" stroke-miterlimit="10" points="
						16.5,329.9 29.6,319.9 16.5,295.6 29.6,285.4 16.5,260.4 29.6,250.2 16.5,225.7 					"/>
				</g>
				<g>
					<path id="XMLID_159_" fill="#FFFFFF" d="M9.1,238l-130.5,78.1c-2.4,1.4-4.4,4.7-4.4,7.5c0,1.4,0.5,2.3,1.3,2.8l5.9,3.5
						c0-0.1-0.1-0.1-0.2-0.2c0.1,0.1,0.3,0.2,0.5,0.3l8.8-3.8L-2,260.7 M55,229.5l5.2-3c3.3-1.9,6.5-2.7,9.3-2.6l8.8,0.5l2.9-2.4
						v-9.9c0-2.1-0.7-3.5-1.9-4.2l0,0l0,0l0,0l-5.9-3.5c-1.2-0.7-2.9-0.6-4.7,0.4l-27.6,15.7"/>
					<path id="XMLID_144_" fill="none" stroke="#D4D6D6" stroke-width="0.5968" stroke-miterlimit="10" d="M79.4,214.1
						c0-3.1-2.2-4.3-4.9-2.8l-28.3,15.3"/>
					<path id="XMLID_143_" fill="none" stroke="#D4D6D6" stroke-width="0.6581" stroke-miterlimit="10" d="M2.7,249.6l-118.3,71.2
						c-2.4,1.4-4.4,4.7-4.4,7.5c0,1.3,0.4,2.2,1.1,2.7"/>
					<path id="XMLID_1_" fill="none" stroke="#B2B5B5" stroke-width="4.4524" stroke-linejoin="bevel" stroke-miterlimit="10" d="
						M15.2,235.7l-136.6,81.5c-2.4,1.4-4.4,4.7-4.4,7.5c0,1.4,0.5,2.3,1.3,2.8l5.9,3.5c0-0.1-0.1-0.1-0.2-0.2
						c0.1,0.1,0.3,0.2,0.5,0.3l8.8-3.8L-2,261.8 M52.5,232.7l7.7-5.2c3.3-1.9,6.5-2.7,9.3-2.6l8.8,0.5l2.9-2.4v-9.9
						c0-2.1-0.7-3.5-1.9-4.2l0,0l0,0l0,0l-5.9-3.5c-1.2-0.7-2.9-0.6-4.7,0.4l-30.2,17.9"/>
					<g>
						<g>
							<path fill="#FFFFFF" d="M59.5,232.9c0.9,0.3,1.6,1.2,1.6,2.5v28.2c0,2.7-2.3,6.1-5,7.7L26.2,289c-1.5,0.9-2.8,1-3.7,0.5
								c-0.7-0.4-22-13.3-22.9-13.7s-1.5-1.3-1.5-2.6V245c0-2.7,2.2-6.1,4.9-7.7l29.8-17.7c1.4-0.8,2.7-1,3.6-0.5
								C37.2,219.5,58.6,232.5,59.5,232.9z"/>
						</g>
						<path fill="none" stroke="#D4D6D6" stroke-linecap="round" stroke-linejoin="round" stroke-miterlimit="10" d="M62.6,263.6
							v-28.5c0-2.7-2.6-3.6-5.3-2L26.8,251c-2.7,1.6-4.1,5.1-4.1,7.8v28.5c0,2.7,1.8,3.6,4.5,2l29.7-17.9
							C59.6,269.8,62.6,266.3,62.6,263.6z"/>
						<path fill="#EEEEEE" d="M17,275.1v-18.3c0-2.7,2.2-6.2,4.9-7.8l18.6-11l-15.3-9.6l-18.1,11c-2.7,1.6-4,5.1-4,7.8v18.7
							L17,275.1z"/>
						<path fill="#EEEEEE" d="M49.1,262.4V246c0-1.5-1.8-2-3.4-1.1l-18,10.3c-1.5,0.9-2.6,2.9-2.6,4.5v16.4c0,1.5,1.4,2,3,1.1
							l17.5-10.3C47.1,266,49.1,264,49.1,262.4z"/>
						<g>
							<path fill="#B2B5B5" d="M35.3,218.9c0.4,0,0.9,0,1.3,0.4c0.8,0.4,22.1,13.3,23,13.7c0.9,0.3,1.6,1.2,1.6,2.5v28.2
								c0,2.7-2.3,6.1-5,7.7l-29.9,17.7c-0.9,0.5-1.8,0.8-2.5,0.8c-0.5,0-1-0.1-1.3-0.3c-0.7-0.4-22-13.3-22.9-13.7
								s-1.5-1.3-1.5-2.6v-28.2c0-2.7,2.2-6.1,4.9-7.7l29.8-17.7C33.7,219.2,34.6,218.9,35.3,218.9 M35.3,214.4
								c-1.6,0-3.1,0.5-4.7,1.5L1,233.6c-4.1,2.4-6.9,7.2-6.9,11.5v28.2c0,3,1.3,5.5,3.8,6.6c1.7,0.9,15.3,9.2,19.9,12
								c1.4,0.9,2.4,1.4,2.5,1.5c1,0.6,2.2,0.9,3.5,0.9c1.5,0,3.1-0.5,4.7-1.4l29.7-17.7c4.1-2.4,7-7.2,7-11.5v-28.2
								c0-3-1.4-5.5-3.9-6.6c-1.3-0.7-10.1-6.1-15.4-9.3c-5.9-3.6-7-4.2-7.3-4.4C37.6,214.7,36.5,214.4,35.3,214.4L35.3,214.4
								L35.3,214.4z"/>
						</g>
					</g>
				</g>
			</g>
		</g>
		<g>
			<g id="Tower_Block_17_">
				<polygon fill="#FFFFFF" points="-41.9,521.1 15.2,486.7 15.2,442 -43.9,407.9 -100.8,442 -100.8,485.8 				"/>
				<line fill="none" stroke="#EEEEEE" stroke-width="1.5346" stroke-miterlimit="10" x1="-43.5" y1="476.3" x2="-101" y2="442"/>
				<polyline fill="none" stroke="#EEEEEE" stroke-miterlimit="10" points="-45.3,520.2 -45.3,476.3 12.2,441.9 				"/>
				<path fill="#EEEEEE" d="M-90.8,460.6v31.9l12,6.7v-31.9L-90.8,460.6L-90.8,460.6z"/>
				<path fill="#EEEEEE" d="M-77.8,469v31.9l13,6.7v-31.9L-77.8,469L-77.8,469z"/>
				<path fill="#EEEEEE" d="M-62.8,477.5v31.9l11,6.7v-31.9L-62.8,477.5L-62.8,477.5z"/>
				<path fill="#EEEEEE" d="M5.2,460.6l-12,6.7v31.9l12-6.7V460.6L5.2,460.6z"/>
				<path fill="#EEEEEE" d="M-8.8,469l-12,6.7v31.9l12-6.7V469L-8.8,469z"/>
				<path fill="#EEEEEE" d="M-22.8,477.5l-11,6.7v31.9l11-6.7V477.5L-22.8,477.5z"/>
				<g>
					<path fill="#B2B5B5" d="M-45.4,407.9l58.6,34v44.8l-56.6,34.4l-58.4-35.2V442L-45.4,407.9 M-45.3,404.5l-1.5,0.9l-56.3,34
						l-1.7,0.9v1.7v43.9v1.7l1.7,0.9l58.1,35.2l1.6,0.9l1.6-0.9l56.4-34.4l1.6-0.9v-1.7v-44.8v-1.7l-1.6-0.9l-58.3-34L-45.3,404.5
						L-45.3,404.5z"/>
				</g>
			</g>
			<g id="Tower_Block_18_">
				<g>
					<g>
						<polygon fill="#B2B5B5" points="-44.8,470.2 -48.4,468 -48.4,452.1 -44.7,449.9 -41,452.1 -41,467.9 						"/>
						<polygon fill="#B2B5B5" points="-23.7,458.1 -27.3,455.9 -27.3,440 -23.5,437.7 -19.9,440 -19.9,455.8 						"/>
						<polygon fill="#B2B5B5" points="-65.8,458.1 -62.1,455.9 -62.1,440 -65.9,437.7 -69.6,440 -69.6,455.8 						"/>
					</g>
					<g>
						<polygon fill="#B2B5B5" points="-86.2,444.5 -82.6,442.2 -82.6,424.8 -86.3,422.6 -90,424.8 -90,442.2 						"/>
						<polygon fill="#B2B5B5" points="-2.9,443.8 -6.5,441.6 -6.5,424.2 -2.8,422 0.9,424.2 0.9,441.5 						"/>
					</g>
				</g>
				<g>
					<g>
						<polygon fill="#FFFFFF" points="-42.9,454.4 11.2,421.1 11.2,416.1 -44.8,383.1 -98.8,416.1 -98.8,420.3 						"/>
						
							<line fill="none" stroke="#EEEEEE" stroke-width="1.4625" stroke-miterlimit="10" x1="-43.8" y1="449" x2="-98.6" y2="416.3"/>
						<polyline fill="none" stroke="#EEEEEE" stroke-miterlimit="10" points="-45.3,453.2 -45.3,449 9.5,416.3 						"/>
					</g>
					<g>
						<path fill="#B2B5B5" d="M-45.3,383.9l55.5,32.4v4.9l-53.7,32.7l-55.3-33.6v-4.1L-45.3,383.9 M-45.6,378.7l-2.3,1.4l-53.6,32.4
							l-2.3,1.3v2.5v4.1v2.5l2.3,1.3l55.4,33.6l2.4,1.4l2.3-1.4l53.5-32.7l2-1.3v-2.6v-4.9v-2.6l-2.1-1.3L-43.4,380L-45.6,378.7
							L-45.6,378.7z"/>
					</g>
				</g>
				<g>
					<g>
						<polygon fill="#B2B5B5" points="-43.7,443.8 -47.3,441.5 -47.3,425.6 -43.6,423.4 -39.9,425.6 -39.9,441.5 						"/>
						<polygon fill="#B2B5B5" points="-22.6,431.7 -26.2,429.4 -26.2,413.5 -22.4,411.3 -18.8,413.5 -18.8,429.4 						"/>
						<polygon fill="#B2B5B5" points="-64.7,431.7 -61,429.4 -61,413.5 -64.8,411.3 -68.5,413.5 -68.5,429.4 						"/>
					</g>
					<g>
						<polygon fill="#B2B5B5" points="-85.1,418 -81.5,415.8 -81.5,398.4 -85.3,396.2 -88.9,398.4 -88.9,415.7 						"/>
						<polygon fill="#B2B5B5" points="-1.8,417.4 -5.4,415.2 -5.4,397.8 -1.7,395.5 2,397.8 2,415.1 						"/>
					</g>
				</g>
				<g>
					<g>
						<polygon fill="#FFFFFF" points="-42.9,429.2 11.2,395.9 11.2,390.9 -44.8,357.9 -98.8,390.9 -98.8,395 						"/>
						
							<line fill="none" stroke="#EEEEEE" stroke-width="1.4625" stroke-miterlimit="10" x1="-43.8" y1="423.8" x2="-98.6" y2="391.1"/>
						<polyline fill="none" stroke="#EEEEEE" stroke-miterlimit="10" points="-45.3,428.2 -45.3,423.8 9.5,391.1 						"/>
					</g>
					<g>
						<path fill="#B2B5B5" d="M-45.3,358.6L10.2,391v4.9l-53.7,32.7L-98.8,395v-4.1L-45.3,358.6 M-45.6,353.5l-2.3,1.4l-53.6,32.4
							l-2.3,1.3v2.5v4.1v2.5l2.3,1.3l55.4,33.6l2.4,1.4l2.3-1.4l53.5-32.7l2-1.3v-2.5v-4.9v-2.6l-2.1-1.3l-55.4-32.4L-45.6,353.5
							L-45.6,353.5z"/>
					</g>
				</g>
				<g>
					<g>
						<polygon fill="#B2B5B5" points="-44.3,418 -47.9,415.8 -47.9,399.9 -44.1,397.7 -40.5,399.9 -40.5,415.7 						"/>
						<polygon fill="#B2B5B5" points="-23.1,405.9 -26.8,403.7 -26.8,387.8 -23,385.5 -19.4,387.8 -19.4,403.6 						"/>
						<polygon fill="#B2B5B5" points="-65.3,405.9 -61.6,403.7 -61.6,387.8 -65.4,385.5 -69,387.8 -69,403.6 						"/>
					</g>
					<polygon fill="#B2B5B5" points="-44.6,366.5 -48.3,364.3 -48.3,348.4 -44.5,346.2 -40.8,348.4 -40.8,364.2 					"/>
					<g>
						<polygon fill="#B2B5B5" points="-85.7,392.3 -82.1,390 -82.1,372.6 -85.8,370.4 -89.5,372.6 -89.5,390 						"/>
						<polygon fill="#B2B5B5" points="-65,380.1 -68.7,377.9 -68.7,360.5 -64.9,358.3 -61.3,360.5 -61.3,377.8 						"/>
						<polygon fill="#B2B5B5" points="-2.4,391.6 -6,389.4 -6,372 -2.2,369.8 1.4,372 1.4,389.3 						"/>
						<polygon fill="#B2B5B5" points="-23.4,379.5 -19.7,377.3 -19.7,359.9 -23.5,357.7 -27.1,359.9 -27.1,377.2 						"/>
					</g>
				</g>
			</g>
		</g>
	</g>
	<g id="Lamp_post">
		<g id="XMLID_7803_">
			<path fill="#FFFFFF" d="M-20,574.8c-4.5,0-8.1-2.4-8.1-5.5v-43.2c0-2.8,1.4-5.4,3.8-6.9V408.4c-0.7-0.7-1-1.4-1-2.3v-14.3
				c0-0.1,0-0.2,0-0.3c0-3.4,2.1-4.6,4-4.6c1.6,0,3.3,0.8,3.5,0.9h0.1L3,400.4c4.4,2.6,5.8,6.6,5.6,9.2v2.7c6,3.1,6.1,9.7,6.1,10.5
				c0,0.8-0.2,1.5-0.5,2.3c0,0.3,0,0.7,0,0.9c0,5.1-4.3,9.4-9.4,9.4s-9.4-4.3-9.4-9.4c0-0.1,0-0.2,0-0.3c-0.7-0.9-1-2-1-2.9
				c0-0.9,0.2-8.2,6.3-10.7v-3.1c0,0-0.1-1-1.7-2l-13.6-8.3v7.3c0,0.9-0.3,1.6-1,2.3v110.8c2.4,1.4,3.8,4,3.8,6.9v43.2
				C-12,572.3-15.5,574.8-20,574.8z"/>
			<path fill="#B2B5B5" d="M-21.2,388.4c1.3,0,2.7,0.8,2.7,0.8l20.6,12.7c4.1,2.4,4.9,5.9,4.7,7.8v3.8c6.1,2.4,6.1,9.1,6.1,9.4
				c0,0.7-0.2,1.3-0.7,2l0,0c0.1,0.4,0.1,0.9,0.1,1.3c0,4.3-3.5,7.8-7.8,7.8s-7.8-3.5-7.8-7.8c0-0.2,0-0.5,0-0.8l0,0
				c-0.7-0.8-1.1-1.5-1.1-2.4c0-0.4,0-7.9,6.3-9.6v-4.1c0-0.1,0-1.9-2.5-3.4l-16.1-9.8v10.3c0,0.5-0.4,1.1-1,1.5v112.7l0.4,0.1
				c2,1.1,3.4,3.2,3.4,5.7v43c0,2.1-2.8,3.8-6.4,3.8c-3.5,0-6.4-1.7-6.4-3.8V526c0-2.4,1.4-4.6,3.4-5.7l0.4-0.1V407.6l0,0
				c-0.7-0.4-1-0.9-1-1.5v-14.6l0,0C-23.6,389.1-22.4,388.4-21.2,388.4 M-21.2,385.1c-3.9,0-5.7,3.2-5.7,6.2c0,0.2,0,0.3,0,0.5v14.2
				c0,1.1,0.3,2.1,1,2.9v109.3c-2.4,1.9-3.8,4.7-3.8,7.8v43.1c0,4,4.1,7.1,9.7,7.1s9.7-3.1,9.7-7.1V526c0-3.1-1.4-5.9-3.8-7.8V409
				c0.7-0.9,1-1.9,1-2.9v-4.4l11.1,6.8c0.7,0.3,0.9,0.7,1,0.8v1.7c-2.4,1.3-4.3,3.5-5.4,6.3c-0.9,2.5-1,4.8-1,5.5
				c0,1.2,0.3,2.4,1,3.4c0.1,6,5,10.9,11,10.9c6.1,0,11-4.9,11-11c0-0.2,0-0.4,0-0.5c0.3-0.9,0.5-1.7,0.5-2.6
				c0-3.7-1.6-8.6-6.1-11.5v-1.7c0.2-3.1-1.3-7.6-6.3-10.7l-20.6-12.6c-0.1,0-0.1-0.1-0.2-0.1C-17.4,386.1-19.3,385.1-21.2,385.1
				L-21.2,385.1z"/>
		</g>
		<path id="XMLID_7802_" fill="none" stroke="#B2B5B5" stroke-miterlimit="10" d="M14.4,422.1c0,3.3-4.5,5.9-9.9,5.9
			s-9.9-2.6-9.9-5.9"/>
		<g id="XMLID_7249_">
			<path id="XMLID_7801_" fill="none" stroke="#B2B5B5" stroke-miterlimit="10" d="M-14.3,405.8c0,1.9-2.5,3.4-5.7,3.4
				s-5.7-1.5-5.7-3.4"/>
		</g>
		<path id="XMLID_7799_" fill="none" stroke="#B2B5B5" stroke-miterlimit="10" d="M-23.9,519.7c0,0,0.7,1.6,3.5,1.6s4.7-1.6,4.7-1.6
			"/>
	</g>
	<g>
		<g>
			<g id="Browaser_2_">
				<g>
					<path fill="#FFFFFF" stroke="#B2B5B5" stroke-width="5" stroke-miterlimit="10" d="M-325.9,327.9l164.4-93.5
						c2.1-1.2,3.9-0.5,3.9,1.7v142.3c0,2.1-1.4,4.8-3.5,6l-165,93.5c-2.1,1.2-4.5,0.5-4.5-1.7V333.9
						C-330.5,331.8-328,329.1-325.9,327.9z"/>
					
						<line fill="none" stroke="#B2B5B5" stroke-width="1.4456" stroke-miterlimit="10" x1="-157.7" y1="258.5" x2="-329.2" y2="354.2"/>
					<path fill="#00C3DC" d="M-302.9,321.4c2.7-1.5,4.8-0.6,4.8,2.1c0,2.7-2.2,6.1-4.8,7.6c-2.7,1.5-4.8,0.6-4.8-2.1
						S-305.6,322.9-302.9,321.4z"/>
					<path fill="#00C3DC" d="M-316.6,329.9c2.7-1.5,4.8-0.6,4.8,2.1c0,2.7-2.2,6.1-4.8,7.6c-2.7,1.5-4.8,0.6-4.8-2.1
						S-319.2,331.4-316.6,329.9z"/>
				</g>
			</g>
		</g>
		<g>
			<g>
				<path fill="#D4D6D6" d="M-223.8,312.4v87.3l-19.4,10.9v-86.7L-223.8,312.4 M-221.8,308.9l-3,1.8l-19.4,11.5l-1,0.6v1.1v86.7v3.4
					l3-1.7l19.4-10.9l1-0.6v-1.2v-87.3V308.9L-221.8,308.9z"/>
			</g>
			<path fill="#EEEEEE" enable-background="new    " d="M-227.1,320.8l-3.6,2.3v5.1l3.6-2.3V320.8L-227.1,320.8z"/>
			<path fill="#EEEEEE" enable-background="new    " d="M-231.3,323.7l-3.6,2.3v5.1l3.6-2.3V323.7L-231.3,323.7z"/>
			<path fill="#F9BD31" enable-background="new    " d="M-235.8,326.5l-3.9,2.3v5.1l3.9-2.3V326.5L-235.8,326.5z"/>
			<path fill="#EEEEEE" enable-background="new    " d="M-227.1,327.5l-3.6,2.3v5.1l3.6-2.3V327.5L-227.1,327.5z"/>
			<path fill="#EEEEEE" enable-background="new    " d="M-231.3,330.4l-3.6,2.3v5.1l3.6-2.3V330.4L-231.3,330.4z"/>
			<path fill="#F9BD31" enable-background="new    " d="M-235.8,333.2l-3.9,2.3v5.1l3.9-2.3V333.2L-235.8,333.2z"/>
			<path fill="#F9BD31" enable-background="new    " d="M-227.1,334.1l-3.6,2.3v5.1l3.6-2.3V334.1L-227.1,334.1z"/>
			<path fill="#EEEEEE" enable-background="new    " d="M-231.3,337l-3.6,2.3v5.1l3.6-2.3V337L-231.3,337z"/>
			<path fill="#EEEEEE" enable-background="new    " d="M-235.8,339.8l-3.9,2.3v5.1l3.9-2.3V339.8L-235.8,339.8z"/>
			<path fill="#EEEEEE" enable-background="new    " d="M-227.1,340.8l-3.6,2.3v5.1l3.6-2.3V340.8L-227.1,340.8z"/>
			<path fill="#F9BD31" enable-background="new    " d="M-231.3,343.6l-3.6,2.3v5.1l3.6-2.3V343.6L-231.3,343.6z"/>
			<path fill="#EEEEEE" enable-background="new    " d="M-235.8,346.4l-3.9,2.3v5.1l3.9-2.3V346.4L-235.8,346.4z"/>
			<path fill="#EEEEEE" enable-background="new    " d="M-227.1,347.7l-3.6,2.3v5.1l3.6-2.3V347.7L-227.1,347.7z"/>
			<path fill="#EEEEEE" enable-background="new    " d="M-231.3,350.5l-3.6,2.3v5.1l3.6-2.3V350.5L-231.3,350.5z"/>
			<path fill="#EEEEEE" enable-background="new    " d="M-235.8,353.4l-3.9,2.3v5.1l3.9-2.3V353.4L-235.8,353.4z"/>
			<path fill="#EEEEEE" enable-background="new    " d="M-227.1,354.4l-3.6,2.3v5.1l3.6-2.3V354.4L-227.1,354.4z"/>
			<path fill="#EEEEEE" enable-background="new    " d="M-231.3,357.3l-3.6,2.3v5.1l3.6-2.3V357.3L-231.3,357.3z"/>
			<path fill="#EEEEEE" enable-background="new    " d="M-235.8,360.1l-3.9,2.3v5.1l3.9-2.3V360.1L-235.8,360.1z"/>
			<path fill="#EEEEEE" enable-background="new    " d="M-227.1,361l-3.6,2.3v5.1l3.6-2.3V361L-227.1,361z"/>
			<path fill="#EEEEEE" enable-background="new    " d="M-231.3,363.9l-3.6,2.3v5.1l3.6-2.3V363.9L-231.3,363.9z"/>
			<path fill="#EEEEEE" enable-background="new    " d="M-235.8,366.7l-3.9,2.3v5.1l3.9-2.3V366.7L-235.8,366.7z"/>
			<path fill="#EEEEEE" enable-background="new    " d="M-227.1,367.6l-3.6,2.3v5.1l3.6-2.3V367.6L-227.1,367.6z"/>
			<path fill="#EEEEEE" enable-background="new    " d="M-231.3,370.5l-3.6,2.3v5.1l3.6-2.3V370.5L-231.3,370.5z"/>
			<path fill="#EEEEEE" enable-background="new    " d="M-235.8,373.3l-3.9,2.3v5.1l3.9-2.3V373.3L-235.8,373.3z"/>
			<path fill="#EEEEEE" enable-background="new    " d="M-227.1,374.2l-3.6,2.3v5.1l3.6-2.3V374.2L-227.1,374.2z"/>
			<path fill="#EEEEEE" enable-background="new    " d="M-231.3,377l-3.6,2.3v5.1l3.6-2.3V377L-231.3,377z"/>
			<path fill="#EEEEEE" enable-background="new    " d="M-235.8,379.9l-3.9,2.3v5.1l3.9-2.3V379.9L-235.8,379.9z"/>
			<path fill="#EEEEEE" enable-background="new    " d="M-227.1,380.9l-3.6,2.3v5.1l3.6-2.3V380.9L-227.1,380.9z"/>
			<path fill="#EEEEEE" enable-background="new    " d="M-231.3,383.7l-3.6,2.3v5.1l3.6-2.3V383.7L-231.3,383.7z"/>
			<path fill="#EEEEEE" enable-background="new    " d="M-235.8,386.6l-3.9,2.3v5.1l3.9-2.3V386.6L-235.8,386.6z"/>
			<path fill="#EEEEEE" enable-background="new    " d="M-227.1,390.3l-3.6,2.3v10.7l3.6-2.3V390.3L-227.1,390.3z"/>
			<path fill="#EEEEEE" enable-background="new    " d="M-231.3,393.2l-3.6,2.3v10.7l3.6-2.3V393.2L-231.3,393.2z"/>
			<path fill="#EEEEEE" enable-background="new    " d="M-235.8,396l-3.9,2.3V409l3.9-2.3V396L-235.8,396z"/>
		</g>
		<g>
			<g>
				<path fill="#D4D6D6" d="M-194,295.2v87.3l-19.4,10.9v-86.7L-194,295.2 M-192,291.6l-3,1.8l-19.4,11.5l-1,0.6v1.1v86.7v3.4l3-1.7
					l19.4-10.9l1-0.6v-1.2v-87.3V291.6L-192,291.6z"/>
			</g>
			<path fill="#F9BD31" enable-background="new    " d="M-197.3,303.6l-3.6,2.3v5.1l3.6-2.3V303.6L-197.3,303.6z"/>
			<path fill="#F9BD31" enable-background="new    " d="M-201.5,306.4l-3.6,2.3v5.1l3.6-2.3V306.4L-201.5,306.4z"/>
			<path fill="#EEEEEE" enable-background="new    " d="M-206.1,309.2l-3.9,2.3v5.1l3.9-2.3V309.2L-206.1,309.2z"/>
			<path fill="#EEEEEE" enable-background="new    " d="M-197.3,310.3l-3.6,2.3v5.1l3.6-2.3V310.3L-197.3,310.3z"/>
			<path fill="#EEEEEE" enable-background="new    " d="M-201.5,313.1l-3.6,2.3v5.1l3.6-2.3V313.1L-201.5,313.1z"/>
			<path fill="#EEEEEE" enable-background="new    " d="M-206.1,315.9l-3.9,2.3v5.1l3.9-2.3V315.9L-206.1,315.9z"/>
			<path fill="#EEEEEE" enable-background="new    " d="M-197.3,316.9l-3.6,2.3v5.1l3.6-2.3V316.9L-197.3,316.9z"/>
			<path fill="#F9BD31" enable-background="new    " d="M-201.5,319.7l-3.6,2.3v5.1l3.6-2.3V319.7L-201.5,319.7z"/>
			<path fill="#F9BD31" enable-background="new    " d="M-206.1,322.5l-3.9,2.3v5.1l3.9-2.3V322.5L-206.1,322.5z"/>
			<path fill="#EEEEEE" enable-background="new    " d="M-197.3,323.5l-3.6,2.3v5.1l3.6-2.3V323.5L-197.3,323.5z"/>
			<path fill="#EEEEEE" enable-background="new    " d="M-201.5,326.3l-3.6,2.3v5.1l3.6-2.3V326.3L-201.5,326.3z"/>
			<path fill="#EEEEEE" enable-background="new    " d="M-206.1,329.2l-3.9,2.3v5.1l3.9-2.3V329.2L-206.1,329.2z"/>
			<path fill="#EEEEEE" enable-background="new    " d="M-197.3,330.4l-3.6,2.3v5.1l3.6-2.3V330.4L-197.3,330.4z"/>
			<path fill="#F9BD31" enable-background="new    " d="M-201.5,333.3l-3.6,2.3v5.1l3.6-2.3V333.3L-201.5,333.3z"/>
			<path fill="#EEEEEE" enable-background="new    " d="M-206.1,336.1l-3.9,2.3v5.1l3.9-2.3V336.1L-206.1,336.1z"/>
			<path fill="#EEEEEE" enable-background="new    " d="M-197.3,337.2l-3.6,2.3v5.1l3.6-2.3V337.2L-197.3,337.2z"/>
			<path fill="#F9BD31" enable-background="new    " d="M-201.5,340l-3.6,2.3v5.1l3.6-2.3V340L-201.5,340z"/>
			<path fill="#EEEEEE" enable-background="new    " d="M-206.1,342.8l-3.9,2.3v5.1l3.9-2.3V342.8L-206.1,342.8z"/>
			<path fill="#F9BD31" enable-background="new    " d="M-197.3,343.8l-3.6,2.3v5.1l3.6-2.3V343.8L-197.3,343.8z"/>
			<path fill="#EEEEEE" enable-background="new    " d="M-201.5,346.6l-3.6,2.3v5.1l3.6-2.3V346.6L-201.5,346.6z"/>
			<path fill="#EEEEEE" enable-background="new    " d="M-206.1,349.4l-3.9,2.3v5.1l3.9-2.3V349.4L-206.1,349.4z"/>
			<path fill="#F9BD31" enable-background="new    " d="M-197.3,350.4l-3.6,2.3v5.1l3.6-2.3V350.4L-197.3,350.4z"/>
			<path fill="#F9BD31" enable-background="new    " d="M-201.5,353.2l-3.6,2.3v5.1l3.6-2.3V353.2L-201.5,353.2z"/>
			<path fill="#F9BD31" enable-background="new    " d="M-206.1,356l-3.9,2.3v5.1l3.9-2.3V356L-206.1,356z"/>
			<path fill="#F9BD31" enable-background="new    " d="M-197.3,356.9l-3.6,2.3v5.1l3.6-2.3V356.9L-197.3,356.9z"/>
			<path fill="#F9BD31" enable-background="new    " d="M-201.5,359.8l-3.6,2.3v5.1l3.6-2.3V359.8L-201.5,359.8z"/>
			<path fill="#F9BD31" enable-background="new    " d="M-206.1,362.6l-3.9,2.3v5.1l3.9-2.3V362.6L-206.1,362.6z"/>
			<path fill="#EEEEEE" enable-background="new    " d="M-197.3,363.6l-3.6,2.3v5.1l3.6-2.3V363.6L-197.3,363.6z"/>
			<path fill="#EEEEEE" enable-background="new    " d="M-201.5,366.5l-3.6,2.3v5.1l3.6-2.3V366.5L-201.5,366.5z"/>
			<path fill="#EEEEEE" enable-background="new    " d="M-206.1,369.3l-3.9,2.3v5.1l3.9-2.3V369.3L-206.1,369.3z"/>
			<path fill="#F9BD31" enable-background="new    " d="M-197.3,373.1l-3.6,2.3v10.7l3.6-2.3V373.1L-197.3,373.1z"/>
			<path fill="#F9BD31" enable-background="new    " d="M-201.5,375.9l-3.6,2.3v10.7l3.6-2.3V375.9L-201.5,375.9z"/>
			<path fill="#F9BD31" enable-background="new    " d="M-206.1,378.7l-3.9,2.3v10.7l3.9-2.3V378.7L-206.1,378.7z"/>
		</g>
		<g>
			<path fill="#F9BD31" d="M-178.5,329.8c-0.6,0.4-1.5,0.7-2.4,0.7c-1,0-2-0.3-2.6-0.8c0,0,0,0.1,0,0.1c0,1.4,1.1,2.5,2.5,2.5
				C-179.7,332.4-178.5,331.2-178.5,329.8C-178.5,329.8-178.5,329.8-178.5,329.8z"/>
			<path fill="#D4D6D6" d="M-172.2,359.4l-0.1,0V323c0.2-0.1,0.3-0.3,0.3-0.5v-4.7c0-0.8-0.4-1-0.8-1c-0.4,0-0.9,0.2-0.9,0.2
				l-6.7,4.1c-1.3,0.8-1.6,1.9-1.5,2.5v1.2c-2,0.8-2,2.9-2,3c0,0.2,0.1,0.4,0.2,0.6c0,0.1,0,0.2,0,0.3c0.6,0.5,1.5,0.8,2.6,0.8
				c1,0,1.8-0.3,2.4-0.7c0-0.1,0-0.2,0-0.2c0.2-0.2,0.4-0.5,0.4-0.8c0-0.1,0-2.5-2-3.1v-1.3c0,0,0-0.6,0.8-1.1l5.2-3.2v3.3
				c0,0.2,0.1,0.4,0.3,0.5v36.3l-0.1,0c-0.6,0.4-1.1,1-1.1,1.8v13.9c0,0.7,0.9,1.2,2.1,1.2c1.1,0,2.1-0.6,2.1-1.2v-13.9
				C-171.1,360.4-171.5,359.7-172.2,359.4z"/>
		</g>
		<g id="Male_User_1_">
			<g id="XMLID_2496_">
				<path fill="#FFFFFF" d="M-269,530.5c-3.7,0-7.4-1.5-7.9-1.7c-1.6-0.6-7.9-3.6-8.7-4.1c-1.5-0.9-1.8-2.9-1.9-3.5
					c-0.1-0.3-0.1-0.4-0.1-0.7c0-0.2,0-0.4,0-0.4h0c0-1-0.4-1-0.4-1.3V516c0-0.2,0-0.5,0-0.8l0.1-0.1l3.7-73.1
					c-0.7-1.2-1.4-3.4-1.9-8.2c-5.2-5.8-8.9-11-9.1-11.3l-0.1-0.1c-0.1-0.2-3.1-5.2-1.7-12.3c0.3-1.5,0.7-3.3,1-5.2
					c1.3-6.6,3-14.8,4.3-19.6c0.7-2.5,1.9-3.8,3-4.6c1.7-2.2,4.1-4,4.3-4.1c1.4-1.1,8.1-5.3,10.9-7.1c-0.1-0.1-0.2-0.2-0.3-0.4
					c-0.7-0.9-1.4-1.8-1.7-4.1c-0.1-0.5-0.2-1.3-0.4-2.2c-0.4-2-0.9-4.8-1.1-7.1c-0.5-4.3,1-8.8,4.1-12.2c3-3.3,7.2-5.2,11.4-5.2
					c4,0,8.1,1.7,11.7,4.8c1.6,1.4,3.5,4.2,4.2,5.3c0.2,0.4,0.4,0.7,0.5,1c1.1,2.2,0.4,5.3-1.1,7.1c-0.4,0.5-0.8,0.9-1.2,1.3
					c-0.1,0.4-0.2,0.8-0.3,1.1c-0.9,2.2-3.2,9.2-3.7,10.9c3.9,2,6.7,7.6,9.1,12.2c0.8,1.6,6.4,11.1,7.9,13.7l0.1,0.2
					c3.2,5,2.4,9.1,1.7,11.1c-0.5,1.2-1.2,2.3-1.8,3.3l-14.1,37l-2.4,54.5l0.9,2.1l0.1,0.1l8.5,3.3c0.2,0.1,0.5,0.2,0.8,0.4l0.1,0
					c1.4,0.8,2,2.2,2.2,3.1c0.4,0.9,0.6,2.9,0.2,3.8c-1.1,2.4-3.6,3.1-4.6,3.4c-1,0.3-2.1,0.4-3.6,0.4c-4,0-8.8-1-9-1.1
					c-0.4-0.1-1.1-0.2-2-0.4c-3.6-0.8-5.2-1.1-5.8-1.4c-1.5-0.6-2.1-2.2-2.3-3c-0.1-0.3-0.2-0.6-0.3-0.8l-0.1-0.2l0-0.2
					c0-0.2,0-0.4,0-0.6c-0.1-0.3-0.1-0.7-0.2-0.9c-0.3-0.9-0.7-2.6-0.7-6l-1.1-20.9l-3.3,27l0,0.1c-0.3,1.6,0.4,2.8,1.1,3.9
					c0.2,0.3,0.4,0.6,0.5,0.9c1.7,1.2,6.5,4.4,7.2,5c1.3,1,1.7,2.5,1.9,3.3c0.3,1,0.2,2.9-0.3,3.8c-1.2,1.9-3.4,2.6-4.9,3
					C-266.6,530.3-267.7,530.5-269,530.5z M-248,405.3c0.2-1,0.4-2.1,0.6-3c-0.2-0.3-0.5-0.6-0.8-1L-248,405.3z"/>
				<path fill="#B2B5B5" d="M-261.5,340.6c3.3,0,6.9,1.3,10.4,4.3c1.3,1.1,3.1,3.6,3.8,4.8c0.2,0.4,0.3,0.6,0.3,0.7
					c0.8,1.3,0.4,3.7-0.8,5.1c-0.5,0.6-0.9,1-1.5,1.4c-0.1,0.5-0.2,1-0.4,1.5c-1,2.6-3.9,11.4-3.9,11.4c-0.2,0.6-0.4,1.1-0.6,1.6
					c3.9,0.3,7.2,6.5,9.9,11.8c0.9,1.8,6.8,11.9,8.1,14c0,0,0,0,0,0c2.7,4.2,2.1,7.6,1.5,9.3c-0.4,1-1,2-1.7,3l-14.3,37.6l-2.4,55.3
					l1.4,3.2l0.9,0.4l8.6,3.3c0,0,0,0,0,0c0,0,0.4,0.2,0.6,0.3c0.8,0.5,1.3,1.5,1.4,2.2c0,0,0,0,0-0.1c0,0,0,0,0,0
					c0,0,0.4,1.8,0.2,2.2c-0.6,1.3-2,1.9-3.3,2.2c-0.9,0.2-1.9,0.3-3.1,0.3c-3.9,0-8.6-1-8.6-1c-1.4-0.3-6.7-1.4-7.4-1.7
					c-0.9-0.4-1.1-1.9-1.1-1.9c0,0,0,0,0,0c-0.1,0-0.3-0.7-0.3-0.7s-0.1-0.7-0.1-0.7c0,0,0,0,0,0c-0.1-0.3-0.2-1.2-0.2-1.2
					c-0.4-0.3-0.6-4.6-0.6-5.5l-2.4-43.7l-6,49.6c-0.7,3.3,1.8,5.5,1.9,6.5c0,0,6.8,4.6,7.7,5.2c0.8,0.6,1.1,1.7,1.1,2.4
					c0,0,0,0,0-0.1c0,0,0,0,0,0c0,0,0.2,1.8-0.1,2.2c-0.8,1.3-2.5,1.8-3.8,2.2c-0.9,0.3-1.8,0.4-2.8,0.4c-3.6,0-7.2-1.6-7.2-1.6
					c-1.3-0.5-7.8-3.5-8.4-3.9c-0.8-0.5-0.9-2-0.9-2c0,0,0,0,0,0c-0.1,0-0.1-0.8-0.1-0.8s-0.1-0.7-0.1-0.7c0,0-0.2,0-0.2,0
					c0-0.3-0.2-0.6-0.2-0.8v-3c0-0.2,0-0.4,0-0.5l3.8-73.7c-1.1-1.5-1.6-4.9-1.9-8.5c-5.4-5.9-9.4-11.6-9.4-11.6s-2.7-4.5-1.4-10.8
					c1.4-6.7,3.6-18.5,5.3-24.6c0.5-1.8,1.4-3,2.5-3.6c1.5-2.1,4-3.9,4-3.9c1.7-1.3,11.9-7.7,11.9-7.7s0-0.1,0.1-0.1
					c0.2-0.4,0.3-0.9,0.4-1.3c-0.6-0.2-0.6-0.2-1.5-1.3c-0.5-0.6-1-1.3-1.3-3.1c-0.2-1.5-1.2-5.9-1.5-9.3
					C-275.8,348-269.5,340.6-261.5,340.6 M-249.8,410.6c1.2-1.8,2.4-2.8,3.4-3.2c0.2-1.6,0.6-3.8,1.1-5.3c0-0.2-0.1-0.4-0.2-0.6
					c-0.3-0.4-1-1.5-2.1-2.6c-0.4-0.4-1.6-1.6-2.9-3.1L-249.8,410.6 M-261.5,336.6c-4.8,0-9.6,2.1-12.9,5.9
					c-3.4,3.8-5.1,8.8-4.6,13.7c0.3,2.4,0.8,5.3,1.2,7.3c0.2,0.9,0.3,1.7,0.4,2.1c0.2,1.6,0.7,2.8,1.1,3.6c-3.2,2-7.9,5-9.2,6
					c-0.5,0.4-2.7,2-4.4,4.2c-1.3,1-2.8,2.7-3.5,5.5c-1.3,4.9-3,13.1-4.3,19.7c-0.4,1.9-0.7,3.7-1,5.2c-1.6,7.7,1.5,13.1,1.9,13.7
					l0.1,0.1l0.1,0.1c0.2,0.2,3.8,5.3,8.8,11c0.4,4.1,1.1,6.3,1.8,7.8l-3.6,72.5l0,0.2l-0.1,0.2c0,0.4,0,0.7,0,1v2.4
					c0,0.4,0.3,0.3,0.4,1.3h0c0,0,0,0.3,0,0.5c0,0.3,0.1,0.7,0.1,0.9c0.1,1,0.6,3.6,2.9,5c0.9,0.5,7.2,3.5,9,4.2
					c0.8,0.3,4.6,1.8,8.7,1.8c1.4,0,2.8-0.2,4-0.6c1.7-0.5,4.5-1.4,6.1-3.9c0.8-1.3,0.9-3.6,0.5-5.1c-0.3-1.9-1.2-3.6-2.6-4.6
					c0,0,0,0,0,0c0.8,0.2,1.9,0.4,3.3,0.7c0.8,0.2,1.5,0.3,1.9,0.4l0,0l0,0c0.2,0,5.2,1.1,9.5,1.1c1.6,0,3-0.2,4.1-0.5
					c1.2-0.3,4.4-1.2,5.9-4.4l0-0.1l0-0.1c0.6-1.4,0.4-3.7-0.1-5.1c-0.5-1.8-1.7-3.4-3.2-4.3l-0.1,0l-0.1,0c-0.4-0.2-0.7-0.4-1-0.5
					l0,0l-7.9-3.1l-0.4-0.9l2.4-53.7l13.9-36.5c0.7-1,1.4-2.2,1.9-3.5c0.9-2.4,1.9-7.2-1.9-12.9l-0.1-0.2c-1.6-2.7-7-12-7.8-13.5
					c-2.2-4.4-4.8-9.5-8.5-12.2c0.9-2.7,2.5-7.5,3.2-9.3c0.1-0.2,0.2-0.5,0.3-0.8c0.4-0.3,0.7-0.7,1-1.1c1.8-2.2,2.8-6,1.4-9.1
					c-0.2-0.5-0.4-1-0.6-1.3c-0.6-1-2.7-4.1-4.6-5.8C-252.4,338.4-256.9,336.6-261.5,336.6L-261.5,336.6z M-267.9,513.5
					c-0.1-0.2-0.2-0.4-0.4-0.6c-0.7-1.1-1-1.7-0.8-2.5l0-0.1l0-0.1l0.5-3.9c0.1,1.9,0.4,3.2,0.7,4.1c0,0.2,0.1,0.5,0.1,0.7
					c0,0.2,0,0.3,0,0.5l0,0.4l0.1,0.4c0.1,0.3,0.2,0.6,0.3,0.8c0.1,0.3,0.2,0.6,0.3,1C-267.3,513.9-267.6,513.7-267.9,513.5
					L-267.9,513.5z"/>
			</g>
			<path fill="none" stroke="#B2B5B5" stroke-linecap="round" stroke-linejoin="round" stroke-miterlimit="10" d="M-250.1,433.6
				l-3,69l1.6,3.6c-0.5,2.2-5.1,3.8-7.1,3.8c-3.3,0-7.3-0.2-7.3-3.3"/>
			<path fill="none" stroke="#B2B5B5" stroke-linecap="round" stroke-linejoin="round" stroke-miterlimit="10" d="M-271.4,512.8
				c1.8,5.8-12.8,5.4-12.8,5.4c-0.6-0.4-3-2.2-3.1-2.8"/>
			
				<line fill="none" stroke="#B2B5B5" stroke-linecap="round" stroke-linejoin="round" stroke-miterlimit="10" x1="-266" y1="454.1" x2="-271.4" y2="510.5"/>
			<path id="XMLID_2506_" fill="none" stroke="#B2B5B5" stroke-linecap="round" stroke-linejoin="round" stroke-miterlimit="10" d="
				M-267.8,446.5c-8.7-0.2-15.5-5.2-15.5-5.2"/>
			
				<line id="XMLID_2509_" fill="none" stroke="#B2B5B5" stroke-linecap="round" stroke-linejoin="round" stroke-miterlimit="10" x1="-250.5" y1="388.9" x2="-248.9" y2="429.9"/>
			<path fill="none" stroke="#B2B5B5" stroke-linecap="round" stroke-linejoin="round" stroke-miterlimit="10" d="M-267.8,370.6
				c0,0,1.3,1,3.1,2.5c1.1,0.9,2.5,1.9,4.1,2.6c1.1,0.5,3.8-0.4,3.8-0.4c1.8-0.5,3.1-2.2,4.9-6.9"/>
			<path fill="#FFFFFF" stroke="#B2B5B5" stroke-linecap="round" stroke-linejoin="round" stroke-miterlimit="10" d="M-276.5,438.5
				c-0.8,1,3.4,5.1,3.4,5.1s4.4,3.9,6.7,4.6c1.6,0.4,5.3,0.4,6.4,0c1.9-0.7,0.9-1.8,0.9-1.8"/>
			<g enable-background="new    ">
				<defs>
					<path id="XMLID_2515_" enable-background="new    " d="M-253.5,429.4v-0.6c0,0.1-0.1,0.1-0.1,0.2v0.6
						C-253.5,429.5-253.5,429.4-253.5,429.4z"/>
				</defs>
				<clipPath id="XMLID_7_">
					<use xlink:href="#XMLID_2515_"  overflow="visible"/>
				</clipPath>
			</g>
			<g enable-background="new    ">
				<defs>
					<path id="XMLID_2516_" enable-background="new    " d="M-255.6,432.3c0-0.2,0-0.4,0-0.6c0,0.1-0.1,0.1-0.1,0.2l0,0.6
						C-255.7,432.4-255.6,432.4-255.6,432.3z"/>
				</defs>
				<clipPath id="XMLID_8_">
					<use xlink:href="#XMLID_2516_"  overflow="visible"/>
				</clipPath>
			</g>
			<polygon id="XMLID_2512_" fill="#5E5E5E" points="-256.6,432.3 -256.6,433 -255.8,432.5 -255.8,431.8 			"/>
			<g enable-background="new    ">
				<defs>
					<path id="XMLID_2518_" enable-background="new    " d="M-257.3,432.3l0,0.6c0.2,0.1,0.5,0.1,0.7,0v-0.6
						C-256.8,432.5-257.1,432.5-257.3,432.3z"/>
				</defs>
				<clipPath id="XMLID_9_">
					<use xlink:href="#XMLID_2518_"  overflow="visible"/>
				</clipPath>
			</g>
			<g enable-background="new    ">
				<defs>
					<path id="XMLID_2519_" enable-background="new    " d="M-257.4,433.3l0-0.6c0,0.1,0,0.1-0.1,0.2v0.6
						C-257.5,433.5-257.4,433.4-257.4,433.3z"/>
				</defs>
				<clipPath id="XMLID_10_">
					<use xlink:href="#XMLID_2519_"  overflow="visible"/>
				</clipPath>
			</g>
			<g enable-background="new    ">
				<defs>
					<path id="XMLID_2520_" enable-background="new    " d="M-255.9,434.2l0-0.6c0,0.1-0.1,0.1-0.1,0.2l0,0.6
						C-256,434.3-255.9,434.3-255.9,434.2z"/>
				</defs>
				<clipPath id="XMLID_11_">
					<use xlink:href="#XMLID_2520_"  overflow="visible"/>
				</clipPath>
			</g>
			<polygon id="XMLID_2517_" fill="#5E5E5E" points="-256.9,434.3 -256.9,434.9 -256.1,434.4 -256.1,433.8 			"/>
			<g enable-background="new    ">
				<defs>
					<path id="XMLID_2522_" enable-background="new    " d="M-256.3,436.1l0-0.6c0,0.1,0,0.1-0.1,0.2v0.6
						C-256.4,436.3-256.3,436.2-256.3,436.1z"/>
				</defs>
				<clipPath id="XMLID_12_">
					<use xlink:href="#XMLID_2522_"  overflow="visible"/>
				</clipPath>
			</g>
			<polygon id="XMLID_2521_" fill="#5E5E5E" points="-257.3,436.2 -257.3,436.8 -256.5,436.3 -256.5,435.7 			"/>
			<g enable-background="new    ">
				<defs>
					<path id="XMLID_2524_" enable-background="new    " d="M-256.7,438l0-0.6c0,0.1,0,0.1-0.1,0.2l0,0.6
						C-256.8,438.2-256.7,438.1-256.7,438z"/>
				</defs>
				<clipPath id="XMLID_13_">
					<use xlink:href="#XMLID_2524_"  overflow="visible"/>
				</clipPath>
			</g>
			<path id="XMLID_2523_" fill="#817F7B" d="M-242,421.1C-242,421.1-242,421-242,421.1c0-0.1,0.1-0.2,0.1-0.3l0,0l0,0
				c0-0.1,0.1-0.1,0.1-0.2c0,0,0,0,0-0.1c0-0.1,0.1-0.1,0.1-0.1c0,0,0,0,0,0c0,0,0,0,0,0c0,0,0.1-0.1,0.1-0.1c0,0,0,0,0.1,0
				c0.1,0,0.1-0.1,0.2-0.1l8-4.6c0.2-0.1,0.4-0.1,0.5-0.1l0.6,0.3c-0.1-0.1-0.3-0.1-0.5,0.1l-8,4.6c-0.1,0-0.1,0.1-0.2,0.1
				c0,0,0,0,0,0c0,0-0.1,0.1-0.1,0.1c0,0,0,0,0,0.1c0,0-0.1,0.1-0.1,0.1c0,0,0,0,0,0.1c0,0.1-0.1,0.1-0.1,0.2l0,0
				c0,0.1-0.1,0.2-0.1,0.2c0,0,0,0,0,0.1c0,0.1,0,0.2,0,0.2c0,0.2,0.1,0.4,0.2,0.5l-0.6-0.3c-0.1-0.1-0.2-0.2-0.2-0.5
				C-242.1,421.2-242,421.2-242,421.1z"/>
			<path id="XMLID_2527_" fill="none" stroke="#B2B5B5" stroke-linecap="round" stroke-linejoin="round" stroke-miterlimit="10" d="
				M-241.2,409.4c0,0-1.5-1.4-2.7-1.8c0,0,0,0,0,0c-0.1-0.1-0.3-0.1-0.4-0.1c-0.1,0-0.1-0.1-0.2-0.1c0,0,0,0-0.1,0
				c-1.4-0.2-3.4,0.7-5.5,4.2c-0.5,0.9,0,2.8,0.1,3.1c0.2,0.6,0.4,0.8,0.6,0.9c-0.3,0.9-1.1,3.7-0.9,5c0.1,0.6,0.7,0.6,1.2,0.2
				c0.5-0.4,1.2-3.2,1.7-3.1c3,0.5,5.1-0.3,5.1-0.3l2.3-4.1C-239.4,411.8-239.9,411.4-241.2,409.4z"/>
			<path fill="#B2B5B5" d="M-280.5,436.3l22.4,13l1,0.5c0,0,0.4,0.2,0.8,0.2c0.1,0,0.2,0,0.2,0c0.1,0,0.1,0,0.2,0
				c0.3,0,0.7-0.1,1-0.2l0,0c0.1,0,0.1,0,0.2,0l32.1-18.5c0.1-0.1,0.2-0.2,0.3-0.2l0,0c0,0,0,0,0,0c0.1-0.1,0.1-0.1,0.2-0.2
				c0.3-0.3,0.4-0.7,0.4-1.2l0.1-1.1c0-0.1,0.2-0.2,0.1-0.3c0.1-0.2,0.6-0.3,0.6-0.5v-23.9c0-0.3-0.6-0.4-0.7-0.4l-1.7-0.8
				c-0.1-0.1-0.3-0.1-0.5,0l-20.9,12l-0.8-0.5c-0.7-0.4-1.9-0.4-2.6,0l-32.1,18.5c-0.4,0.2-0.6,0.5-0.6,0.8l-0.1,0v1.7
				C-281,435.4-281,435.9-280.5,436.3z M-256.2,423.6c0-0.1,0-0.1,0-0.2l0,0C-256.1,423.5-256.2,423.5-256.2,423.6z"/>
			<path fill="none" stroke="#B2B5B5" stroke-linecap="round" stroke-linejoin="round" stroke-miterlimit="10" d="M-262,375l-0.5,3
				c-3.8,4.9-11.9-3.7-10.3-7.7"/>
			<path id="XMLID_33_" fill="none" stroke="#B2B5B5" stroke-linecap="round" stroke-linejoin="round" stroke-miterlimit="10" d="
				M-244.6,400.9c-0.7,0.9-1.3,4.4-1.7,6.8c0.6-0.3,1.2-0.3,1.7-0.3c0,0,0,0,0.1,0c0,0,0.1,0.1,0.2,0.1c0.1,0,0.3,0.1,0.4,0.1
				c0,0,0,0,0,0c1.2,0.5,2.7,1.8,2.7,1.8c1.4,2,1.8,2.3,1.1,3.9l-0.1,0.1l0.6,0.3"/>
			<path fill="none" stroke="#B2B5B5" stroke-linecap="round" stroke-linejoin="round" stroke-miterlimit="10" d="M-274.3,442.6
				c-9.5-7.2-19.2-20.8-19.2-20.8s-2.7-4.5-1.4-10.8"/>
			<path fill="none" stroke="#B2B5B5" stroke-linecap="round" stroke-linejoin="round" stroke-miterlimit="10" d="M-279,389.1
				c0.5,4.3-3.8,18.4-4.3,25.3c-0.1,1.6,4.6,8.6,8.7,14.3c3.2,4.4,0.6,0.8,0.6,0.8"/>
			<path fill="#B2B5B5" d="M-275.1,339.2c2.8-4.2,7.3-3.3,11.8-4.3s8.8,0.9,13.4,2.1c4.6,1.2,4.2,4.9,6.9,9.1s-3.4,8.8-3.4,8.8
				s-0.4,0-1-0.1c-0.1,0.2-0.3,0.4-0.4,0.6c-0.9,1.2-1.5,1.4-2.3,1.3c-4-0.4-4.1-0.3-7.5-0.7c0,0-1.1-0.4-1.5-1.1
				c-1.4-2-3.2,3.1-4.2,5.4c-1.2,2.6-1.9,2-2.1,1.7c0,0.1-0.1,0.1-0.1,0.1c0,0-0.1,0-0.2,0l0.2-2.3c0,0,0.1-3.6-2.2-3.2
				c-2.2,0.4-2.7,2.6-2.2,4.3c0,0.1,0.7,2,0.7,2.1c0,0.1,0.1,0.1,0.1,0.2c-0.5,2.5-1.6,5.9-1.6,5.9c-0.6-0.2-0.6-0.2-1.5-1.3
				c-0.5-0.6-1-1.3-1.3-3.1c-1.3-3.1-2.5-5.7-4.6-11.7C-279.1,350.5-279.2,345.4-275.1,339.2z"/>
		</g>
		<g>
			<g id="LightBulb">
				<path fill="#FFFFFF" stroke="#B2B5B5" stroke-width="5" stroke-miterlimit="10" d="M-228.6,228.4c0.1-0.3,0.3-0.5,0.4-0.8
					c0.3-0.5,0.5-1,0.8-1.5c0.1-0.3,0.3-0.6,0.4-0.9c0.2-0.4,0.4-0.8,0.6-1.2c0.2-0.4,0.4-0.9,0.5-1.3c0.1-0.3,0.2-0.6,0.3-0.9
					c0.2-0.6,0.4-1.1,0.6-1.7c0.1-0.3,0.2-0.5,0.2-0.8c0.2-0.6,0.3-1.1,0.5-1.7c0.1-0.2,0.1-0.4,0.2-0.7c0.1-0.6,0.3-1.2,0.4-1.8
					c0-0.2,0.1-0.3,0.1-0.5c0.1-0.7,0.2-1.4,0.3-2.2c0-0.2,0-0.3,0.1-0.5c0.1-0.7,0.2-1.5,0.2-2.3c0-0.1,0-0.3,0-0.4
					c0-0.8,0.1-1.6,0.1-2.4c0-12.7-5.5-24.2-14.2-32.1c-7.7-7-17.9-11.3-29.2-11.3h0l0,0c-11.2,0-21.5,4.3-29.2,11.3
					c-8.7,7.9-14.2,19.4-14.2,32.1c0,0.8,0,1.6,0.1,2.4c0,0.1,0,0.3,0,0.4c0,0.8,0.1,1.5,0.2,2.3c0,0.2,0,0.3,0.1,0.5
					c0.1,0.7,0.2,1.4,0.3,2.2c0,0.2,0.1,0.4,0.1,0.5c0.1,0.6,0.3,1.2,0.4,1.8c0.1,0.2,0.1,0.4,0.2,0.7c0.1,0.6,0.3,1.1,0.5,1.7
					c0.1,0.3,0.2,0.5,0.2,0.8c0.2,0.6,0.4,1.1,0.6,1.7c0.1,0.3,0.2,0.6,0.3,0.9c0.2,0.4,0.4,0.9,0.5,1.3c0.2,0.4,0.4,0.8,0.6,1.2
					c0.1,0.3,0.3,0.6,0.4,0.9c0.3,0.5,0.5,1,0.8,1.5c0.1,0.3,0.3,0.5,0.4,0.8c0.2,0.3,0.4,0.7,0.6,1l0,0c0.1,0.3,0.2,0.6,0.5,0.8
					c0,0,0,0,0,0c0,0,0,0,0,0c0.4,0.7,0.9,1.4,1.4,2c0,0,0,0,0,0c0.5,0.7,1,1.3,1.5,2c0,0,0,0,0,0c0.5,0.6,1.1,1.3,1.6,1.9
					c0,0,0,0,0,0c0.6,0.6,1.1,1.2,1.7,1.8c1.8,3.2,2.9,6.9,3.2,10.7c0,0,0,0.1,0,0.1c0,0.4-0.1,0.7-0.1,1.1c0,0.4,0,0.8,0,1.2
					c0,2.8,0.4,5.5,1.2,8c0.5,1.7,1.2,3.3,2,4.8c0.4,0.8,0.9,1.5,1.4,2.2c0.7,1.1,1.5,2.1,2.4,3.1c0.6,0.6,1.2,1.3,1.8,1.8
					c1.3,1.2,2.7,2.2,4.2,3.1c1.1,0.7,2.3,1.3,3.5,1.8c0.8,0.3,1.6,0.6,2.5,0.9c0.8,0.3,1.7,0.5,2.6,0.7c1.8,0.4,3.6,0.5,5.5,0.5
					l0,0h0c1.9,0,3.7-0.2,5.5-0.5c0.9-0.2,1.7-0.4,2.6-0.7c0.8-0.3,1.7-0.6,2.5-0.9c1.2-0.5,2.4-1.1,3.5-1.8c3.3-2,6.2-4.8,8.4-8
					c0.5-0.7,0.9-1.5,1.4-2.2c0.8-1.5,1.5-3.2,2-4.8c0.8-2.5,1.2-5.2,1.2-8c0-0.4,0-0.8,0-1.2c0-0.4,0-0.7-0.1-1.1c0,0,0-0.1,0-0.1
					c0.3-3.9,1.5-7.5,3.2-10.7c0.6-0.6,1.2-1.2,1.7-1.8c0,0,0,0,0,0c0.6-0.6,1.1-1.2,1.6-1.9c0,0-0.7,0-0.7,0c0.5-0.6,0.8-1.3,0.8-2
					c0,0,0,0,0,0c1-0.7,2.1-0.8,2.6-0.8h0.1c0,0,0.1-0.6,0.1-0.7c0.3-0.2,0.5-0.8,0.5-1.1l0,0C-229,229.4-228.8,228.7-228.6,228.4z"
					/>
				<path fill="#FFFFFF" stroke="#B2B5B5" stroke-width="5" stroke-miterlimit="10" d="M-245.4,290.2c0,0,0-24.5,0-25.5
					c0-1.1-0.2-2.1-0.6-3.2c-2.7-6.8-14-11-25.1-9.3c-9.2,1.4-15.4,6.3-15.8,11.8c-0.1,1.2,0,25.1,0,26.1c0,1,0.2,2.1,0.6,3.1
					c2.7,6.8,14,11,25.1,9.3C-251.8,301.2-245.4,295.9-245.4,290.2L-245.4,290.2z"/>
				<path fill="none" stroke="#B2B5B5" stroke-width="2.3621" stroke-miterlimit="10" d="M-261.2,277c11.2-1.7,18-8.6,15.2-15.5
					c-2.7-6.8-14-11-25.1-9.3c-11.2,1.7-18,8.6-15.2,15.5C-283.6,274.5-272.4,278.7-261.2,277z"/>
				<path fill="#FFFFFF" stroke="#B2B5B5" stroke-width="5" stroke-miterlimit="10" d="M-261.2,302.6c-8.2,1.2-16.5-0.7-21.4-4.6
					c1.7,7.5,8.4,13.1,16.4,13.1c8,0,14.7-5.6,16.4-13.1C-252.5,300.2-256.5,301.9-261.2,302.6z"/>
				<path fill="none" stroke="#B2B5B5" stroke-miterlimit="10" d="M-286.4,276.6c2.7,6.8,14,11,25.1,9.3c11.2-1.7,18-8.6,15.2-15.5"
					/>
				<path fill="none" stroke="#B2B5B5" stroke-miterlimit="10" d="M-286.4,285.5c2.7,6.8,14,11,25.1,9.3c11.2-1.7,18-8.6,15.2-15.5"
					/>
				<path fill="none" stroke="#B2B5B5" stroke-miterlimit="10" d="M-262.2,273.2c8.9-1.2,14.3-6.1,12.1-11c-2.2-4.9-11.1-7.9-20-6.7
					c-8.9,1.2-14.3,6.1-12.1,11C-280.1,271.4-271.1,274.4-262.2,273.2z"/>
				<g>
					<path fill="none" stroke="#F9BD31" stroke-width="3" stroke-linecap="round" stroke-miterlimit="10" d="M-281.5,223.3
						c7.1,11,11.2,24,11.2,38.1"/>
					<path fill="none" stroke="#F9BD31" stroke-width="3" stroke-linecap="round" stroke-miterlimit="10" d="M-252.4,223.3
						c-7.1,11-11.2,24-11.2,38.1"/>
				</g>
				<path fill="none" stroke="#F9BD31" stroke-width="3" stroke-linecap="round" stroke-miterlimit="10" d="M-245.8,226
					c-6.3-3.5-13.5-5.5-21.2-5.5c-7.7,0-14.9,2-21.2,5.5"/>
			</g>
			<g>
				<g>
					
						<line fill="none" stroke="#F9BD31" stroke-width="8" stroke-linecap="round" stroke-linejoin="round" x1="-305.3" y1="254.3" x2="-305.3" y2="254.3"/>
					
						<path fill="none" stroke="#F9BD31" stroke-width="8" stroke-linecap="round" stroke-linejoin="round" stroke-dasharray="0,12.7668" d="
						M-313.8,244.8c-7-9.7-11.1-21.6-11.1-34.5c0-32.5,26.4-58.9,58.9-58.9s58.9,26.4,58.9,58.9c0,14-4.9,26.8-13,36.9"/>
					
						<line fill="none" stroke="#F9BD31" stroke-width="8" stroke-linecap="round" stroke-linejoin="round" x1="-224.3" y1="252" x2="-224.3" y2="252"/>
				</g>
			</g>
		</g>
	</g>
	<g>
		<g>
			<g>
				<g>
					<polygon fill="#FFFFFF" stroke="#B2B5B5" stroke-width="5" stroke-miterlimit="10" points="-84.7,562.7 -120.8,582.3 
						-201.3,532.9 -201.9,382.7 -168.3,364.4 -86.9,412.6 					"/>
					
						<line fill="none" stroke="#B2B5B5" stroke-width="1.4173" stroke-miterlimit="10" x1="-121.6" y1="432.3" x2="-86.6" y2="413.2"/>
					<polyline fill="none" stroke="#B2B5B5" stroke-width="1.4173" stroke-miterlimit="10" points="-120.8,582.3 -121.6,432.3 
						-201.9,382.7 					"/>
					<polygon fill="none" stroke="#B2B5B5" stroke-width="0.9203" stroke-miterlimit="10" points="-84.7,562.7 -120.8,582.3 
						-201.3,532.9 -201.9,382.7 -168.3,364.4 -86.9,412.6 					"/>
				</g>
			</g>
			<polygon fill="none" stroke="#B9B9B8" stroke-width="0.5669" stroke-miterlimit="10" points="-188.8,411.1 -192.9,408.6 
				-192.8,403.2 -188.8,405.8 			"/>
			<polygon fill="none" stroke="#B9B9B8" stroke-width="0.5669" stroke-miterlimit="10" points="-188.9,420.9 -192.9,418.4 
				-192.9,413.1 -188.9,415.6 			"/>
			<polygon fill="none" stroke="#B9B9B8" stroke-width="0.5669" stroke-miterlimit="10" points="-188.9,430.8 -193,428.2 
				-192.9,422.9 -188.9,425.5 			"/>
			<polygon fill="none" stroke="#B9B9B8" stroke-width="0.5669" stroke-miterlimit="10" points="-189,440.6 -193,438.1 -193,432.8 
				-189,435.3 			"/>
			<polygon fill="none" stroke="#B9B9B8" stroke-width="0.5669" stroke-miterlimit="10" points="-189.1,450.5 -193.1,447.9 
				-193,442.6 -189,445.2 			"/>
			<polygon fill="none" stroke="#B9B9B8" stroke-width="0.5669" stroke-miterlimit="10" points="-189.1,460.3 -193.1,457.8 
				-193.1,452.5 -189.1,455 			"/>
			<polygon fill="none" stroke="#B9B9B8" stroke-width="0.5669" stroke-miterlimit="10" points="-189.2,470.2 -193.2,467.6 
				-193.2,462.3 -189.1,464.8 			"/>
			<polygon fill="none" stroke="#B9B9B8" stroke-width="0.5669" stroke-miterlimit="10" points="-189.3,489.8 -193.3,487.3 
				-193.3,482 -189.2,484.5 			"/>
			<polygon fill="none" stroke="#B9B9B8" stroke-width="0.5669" stroke-miterlimit="10" points="-189.2,480 -193.2,477.5 
				-193.2,472.2 -189.2,474.7 			"/>
			<polygon fill="none" stroke="#B9B9B8" stroke-width="0.5669" stroke-miterlimit="10" points="-189.3,499.7 -193.4,497.2 
				-193.3,491.8 -189.3,494.4 			"/>
			<polygon fill="none" stroke="#B9B9B8" stroke-width="0.5669" stroke-miterlimit="10" points="-189.4,509.5 -193.4,507 
				-193.4,501.7 -189.4,504.2 			"/>
			<polygon fill="none" stroke="#B9B9B8" stroke-width="0.5669" stroke-miterlimit="10" points="-189.5,529.2 -193.5,526.7 
				-193.5,521.4 -189.5,523.9 			"/>
			<polygon fill="none" stroke="#B9B9B8" stroke-width="0.5669" stroke-miterlimit="10" points="-189.4,519.4 -193.5,516.8 
				-193.4,511.5 -189.4,514.1 			"/>
			<polygon fill="none" stroke="#B9B9B8" stroke-width="0.5669" stroke-miterlimit="10" points="-181,416 -185,413.5 -185,408.2 
				-181,410.7 			"/>
			<polygon fill="none" stroke="#B9B9B8" stroke-width="0.5669" stroke-miterlimit="10" points="-181,425.9 -185.1,423.3 -185,418 
				-181,420.6 			"/>
			<polygon fill="none" stroke="#B9B9B8" stroke-width="0.5669" stroke-miterlimit="10" points="-181.1,435.7 -185.1,433.2 
				-185.1,427.9 -181.1,430.4 			"/>
			<polygon fill="none" stroke="#B9B9B8" stroke-width="0.5669" stroke-miterlimit="10" points="-181.1,445.6 -185.2,443 
				-185.1,437.7 -181.1,440.2 			"/>
			<polygon fill="none" stroke="#B9B9B8" stroke-width="0.5669" stroke-miterlimit="10" points="-181.2,455.4 -185.2,452.9 
				-185.2,447.5 -181.2,450.1 			"/>
			<polygon fill="none" stroke="#B9B9B8" stroke-width="0.5669" stroke-miterlimit="10" points="-181.3,465.2 -185.3,462.7 
				-185.2,457.4 -181.2,459.9 			"/>
			<polygon fill="none" stroke="#B9B9B8" stroke-width="0.5669" stroke-miterlimit="10" points="-181.3,475.1 -185.3,472.6 
				-185.3,467.2 -181.3,469.8 			"/>
			<polygon fill="none" stroke="#B9B9B8" stroke-width="0.5669" stroke-miterlimit="10" points="-181.4,494.8 -185.4,492.2 
				-185.4,486.9 -181.4,489.5 			"/>
			<polygon fill="none" stroke="#B9B9B8" stroke-width="0.5669" stroke-miterlimit="10" points="-181.4,484.9 -185.4,482.4 
				-185.4,477.1 -181.3,479.6 			"/>
			<polygon fill="none" stroke="#B9B9B8" stroke-width="0.5669" stroke-miterlimit="10" points="-181.5,504.6 -185.5,502.1 
				-185.5,496.8 -181.4,499.3 			"/>
			<polygon fill="none" stroke="#B9B9B8" stroke-width="0.5669" stroke-miterlimit="10" points="-181.5,514.5 -185.6,511.9 
				-185.5,506.6 -181.5,509.1 			"/>
			<polygon fill="none" stroke="#B9B9B8" stroke-width="0.5669" stroke-miterlimit="10" points="-181.6,534.1 -185.7,531.6 
				-185.6,526.3 -181.6,528.8 			"/>
			<polygon fill="none" stroke="#B9B9B8" stroke-width="0.5669" stroke-miterlimit="10" points="-181.6,524.3 -185.6,521.8 
				-185.6,516.5 -181.6,519 			"/>
			<polygon fill="none" stroke="#B9B9B8" stroke-width="0.5669" stroke-miterlimit="10" points="-173.1,421 -177.1,418.5 
				-177.1,413.2 -173.1,415.7 			"/>
			<polygon fill="none" stroke="#B9B9B8" stroke-width="0.5669" stroke-miterlimit="10" points="-173.2,430.9 -177.2,428.3 
				-177.2,423 -173.2,425.6 			"/>
			<polygon fill="none" stroke="#B9B9B8" stroke-width="0.5669" stroke-miterlimit="10" points="-173.2,440.7 -177.3,438.2 
				-177.2,432.9 -173.2,435.4 			"/>
			<polygon fill="none" stroke="#B9B9B8" stroke-width="0.5669" stroke-miterlimit="10" points="-173.3,450.6 -177.3,448 
				-177.3,442.7 -173.3,445.2 			"/>
			<polygon fill="none" stroke="#B9B9B8" stroke-width="0.5669" stroke-miterlimit="10" points="-173.3,460.4 -177.4,457.9 
				-177.3,452.6 -173.3,455.1 			"/>
			<polygon fill="none" stroke="#B9B9B8" stroke-width="0.5669" stroke-miterlimit="10" points="-173.4,470.2 -177.4,467.7 
				-177.4,462.4 -173.4,464.9 			"/>
			<polygon fill="none" stroke="#B9B9B8" stroke-width="0.5669" stroke-miterlimit="10" points="-173.5,480.1 -177.5,477.6 
				-177.4,472.2 -173.4,474.8 			"/>
			<polygon fill="none" stroke="#B9B9B8" stroke-width="0.5669" stroke-miterlimit="10" points="-173.6,499.8 -177.6,497.2 
				-177.6,491.9 -173.5,494.5 			"/>
			<polygon fill="none" stroke="#B9B9B8" stroke-width="0.5669" stroke-miterlimit="10" points="-173.5,489.9 -177.5,487.4 
				-177.5,482.1 -173.5,484.6 			"/>
			<polygon fill="none" stroke="#B9B9B8" stroke-width="0.5669" stroke-miterlimit="10" points="-173.6,509.6 -177.6,507.1 
				-177.6,501.8 -173.6,504.3 			"/>
			<polygon fill="none" stroke="#B9B9B8" stroke-width="0.5669" stroke-miterlimit="10" points="-173.7,519.5 -177.7,516.9 
				-177.7,511.6 -173.6,514.2 			"/>
			<polygon fill="none" stroke="#B9B9B8" stroke-width="0.5669" stroke-miterlimit="10" points="-173.8,539.2 -177.8,536.6 
				-177.8,531.3 -173.8,533.8 			"/>
			<polygon fill="none" stroke="#B9B9B8" stroke-width="0.5669" stroke-miterlimit="10" points="-173.7,529.3 -177.8,526.8 
				-177.7,521.5 -173.7,524 			"/>
			<polygon fill="none" stroke="#B9B9B8" stroke-width="0.5669" stroke-miterlimit="10" points="-145,436.7 -149,434.2 
				-148.9,428.8 -144.9,431.4 			"/>
			<polygon fill="none" stroke="#B9B9B8" stroke-width="0.5669" stroke-miterlimit="10" points="-145,446.5 -149,444 -149,438.7 
				-145,441.2 			"/>
			<polygon fill="none" stroke="#B9B9B8" stroke-width="0.5669" stroke-miterlimit="10" points="-145.1,456.4 -149.1,453.8 
				-149.1,448.5 -145,451.1 			"/>
			<polygon fill="none" stroke="#B9B9B8" stroke-width="0.5669" stroke-miterlimit="10" points="-145.1,466.2 -149.1,463.7 
				-149.1,458.4 -145.1,460.9 			"/>
			<polygon fill="none" stroke="#B9B9B8" stroke-width="0.5669" stroke-miterlimit="10" points="-145.2,476.1 -149.2,473.5 
				-149.2,468.2 -145.1,470.7 			"/>
			<polygon fill="none" stroke="#B9B9B8" stroke-width="0.5669" stroke-miterlimit="10" points="-145.2,485.9 -149.2,483.4 
				-149.2,478.1 -145.2,480.6 			"/>
			<polygon fill="none" stroke="#B9B9B8" stroke-width="0.5669" stroke-miterlimit="10" points="-145.3,495.8 -149.3,493.2 
				-149.3,487.9 -145.3,490.4 			"/>
			<polygon fill="none" stroke="#B9B9B8" stroke-width="0.5669" stroke-miterlimit="10" points="-145.4,515.4 -149.4,512.9 
				-149.4,507.6 -145.4,510.1 			"/>
			<polygon fill="none" stroke="#B9B9B8" stroke-width="0.5669" stroke-miterlimit="10" points="-145.3,505.6 -149.4,503.1 
				-149.3,497.7 -145.3,500.3 			"/>
			<polygon fill="none" stroke="#B9B9B8" stroke-width="0.5669" stroke-miterlimit="10" points="-145.5,525.3 -149.5,522.7 
				-149.4,517.4 -145.4,520 			"/>
			<polygon fill="none" stroke="#B9B9B8" stroke-width="0.5669" stroke-miterlimit="10" points="-145.5,535.1 -149.5,532.6 
				-149.5,527.3 -145.5,529.8 			"/>
			<polygon fill="none" stroke="#B9B9B8" stroke-width="0.5669" stroke-miterlimit="10" points="-145.6,554.8 -149.6,552.3 
				-149.6,547 -145.6,549.5 			"/>
			<polygon fill="none" stroke="#B9B9B8" stroke-width="0.5669" stroke-miterlimit="10" points="-145.6,545 -149.6,542.4 
				-149.5,537.1 -145.5,539.7 			"/>
			<polygon fill="none" stroke="#B9B9B8" stroke-width="0.5669" stroke-miterlimit="10" points="-137.1,441.6 -141.1,439.1 
				-141.1,433.8 -137.1,436.3 			"/>
			<polygon fill="none" stroke="#B9B9B8" stroke-width="0.5669" stroke-miterlimit="10" points="-137.2,451.5 -141.2,448.9 
				-141.1,443.6 -137.1,446.1 			"/>
			<polygon fill="none" stroke="#B9B9B8" stroke-width="0.5669" stroke-miterlimit="10" points="-137.2,461.3 -141.2,458.8 
				-141.2,453.5 -137.2,456 			"/>
			<polygon fill="none" stroke="#B9B9B8" stroke-width="0.5669" stroke-miterlimit="10" points="-137.3,471.1 -141.3,468.6 
				-141.3,463.3 -137.2,465.8 			"/>
			<polygon fill="none" stroke="#B9B9B8" stroke-width="0.5669" stroke-miterlimit="10" points="-137.3,481 -141.3,478.5 
				-141.3,473.1 -137.3,475.7 			"/>
			<polygon fill="none" stroke="#B9B9B8" stroke-width="0.5669" stroke-miterlimit="10" points="-137.4,490.8 -141.4,488.3 
				-141.4,483 -137.3,485.5 			"/>
			<polygon fill="none" stroke="#B9B9B8" stroke-width="0.5669" stroke-miterlimit="10" points="-137.4,500.7 -141.4,498.1 
				-141.4,492.8 -137.4,495.4 			"/>
			<polygon fill="none" stroke="#B9B9B8" stroke-width="0.5669" stroke-miterlimit="10" points="-137.5,520.4 -141.6,517.8 
				-141.5,512.5 -137.5,515.1 			"/>
			<polygon fill="none" stroke="#B9B9B8" stroke-width="0.5669" stroke-miterlimit="10" points="-137.5,510.5 -141.5,508 
				-141.5,502.7 -137.5,505.2 			"/>
			<polygon fill="none" stroke="#B9B9B8" stroke-width="0.5669" stroke-miterlimit="10" points="-137.6,530.2 -141.6,527.7 
				-141.6,522.4 -137.6,524.9 			"/>
			<polygon fill="none" stroke="#B9B9B8" stroke-width="0.5669" stroke-miterlimit="10" points="-137.7,540.1 -141.7,537.5 
				-141.6,532.2 -137.6,534.7 			"/>
			<polygon fill="none" stroke="#B9B9B8" stroke-width="0.5669" stroke-miterlimit="10" points="-137.8,559.7 -141.8,557.2 
				-141.7,551.9 -137.7,554.4 			"/>
			<polygon fill="none" stroke="#B9B9B8" stroke-width="0.5669" stroke-miterlimit="10" points="-137.7,549.9 -141.7,547.4 
				-141.7,542 -137.7,544.6 			"/>
			<polygon fill="none" stroke="#B9B9B8" stroke-width="0.5669" stroke-miterlimit="10" points="-129.2,446.6 -133.3,444.1 
				-133.2,438.8 -129.2,441.3 			"/>
			<polygon fill="none" stroke="#B9B9B8" stroke-width="0.5669" stroke-miterlimit="10" points="-129.3,456.5 -133.3,453.9 
				-133.3,448.6 -129.3,451.1 			"/>
			<polygon fill="none" stroke="#B9B9B8" stroke-width="0.5669" stroke-miterlimit="10" points="-129.4,466.3 -133.4,463.8 
				-133.3,458.5 -129.3,461 			"/>
			<polygon fill="none" stroke="#B9B9B8" stroke-width="0.5669" stroke-miterlimit="10" points="-129.4,476.2 -133.4,473.6 
				-133.4,468.3 -129.4,470.8 			"/>
			<polygon fill="none" stroke="#B9B9B8" stroke-width="0.5669" stroke-miterlimit="10" points="-129.5,486 -133.5,483.5 
				-133.5,478.1 -129.4,480.7 			"/>
			<polygon fill="none" stroke="#B9B9B8" stroke-width="0.5669" stroke-miterlimit="10" points="-129.5,495.8 -133.5,493.3 
				-133.5,488 -129.5,490.5 			"/>
			<polygon fill="none" stroke="#B9B9B8" stroke-width="0.5669" stroke-miterlimit="10" points="-129.6,505.7 -133.6,503.1 
				-133.6,497.8 -129.5,500.4 			"/>
			<polygon fill="none" stroke="#B9B9B8" stroke-width="0.5669" stroke-miterlimit="10" points="-129.7,525.4 -133.7,522.8 
				-133.7,517.5 -129.7,520.1 			"/>
			<polygon fill="none" stroke="#B9B9B8" stroke-width="0.5669" stroke-miterlimit="10" points="-129.6,515.5 -133.6,513 
				-133.6,507.7 -129.6,510.2 			"/>
			<polygon fill="none" stroke="#B9B9B8" stroke-width="0.5669" stroke-miterlimit="10" points="-129.7,535.2 -133.8,532.7 
				-133.7,527.4 -129.7,529.9 			"/>
			<polygon fill="none" stroke="#B9B9B8" stroke-width="0.5669" stroke-miterlimit="10" points="-129.8,545.1 -133.8,542.5 
				-133.8,537.2 -129.8,539.7 			"/>
			<polygon fill="none" stroke="#B9B9B8" stroke-width="0.5669" stroke-miterlimit="10" points="-129.9,564.7 -133.9,562.2 
				-133.9,556.9 -129.9,559.4 			"/>
			<polygon fill="none" stroke="#B9B9B8" stroke-width="0.5669" stroke-miterlimit="10" points="-129.9,554.9 -133.9,552.4 
				-133.8,547.1 -129.8,549.6 			"/>
			<path id="XMLID_542_" fill="none" stroke="#B2B5B5" stroke-width="0.8504" stroke-miterlimit="10" d="M-154.5,543.9
				c0,2.1-0.7,3.8-2.1,4.6c-2.8,1.6-7.2-0.9-9.9-5.5c-1.3-2.2-1.9-4.6-1.9-6.6l0-114.3c0-2.1,0.7-3.9,2.1-4.7
				c2.8-1.6,7.2,0.9,9.9,5.5c1.3,2.3,2,4.6,1.9,6.7L-154.5,543.9z"/>
			
				<path fill="none" stroke="#B2B5B5" stroke-width="3.685" stroke-linecap="round" stroke-linejoin="round" stroke-miterlimit="10" d="
				M-131.2,443.3c0,0-9.2,8.3-0.1,19.7"/>
			
				<path fill="none" stroke="#B2B5B5" stroke-width="3.685" stroke-linecap="round" stroke-linejoin="round" stroke-miterlimit="10" d="
				M-139.1,437.7c0,0-13.5,17.8-0.2,39.4"/>
			
				<path fill="none" stroke="#B2B5B5" stroke-width="3.685" stroke-linecap="round" stroke-linejoin="round" stroke-miterlimit="10" d="
				M-139.4,506.5c0,0-46-4.5-43.7-55.1"/>
			
				<path fill="none" stroke="#B2B5B5" stroke-width="3.685" stroke-linecap="round" stroke-linejoin="round" stroke-miterlimit="10" d="
				M-146.9,432.8c0,0-29.2,15.3-36-20.7"/>
			
				<path fill="none" stroke="#B2B5B5" stroke-width="3.685" stroke-linecap="round" stroke-linejoin="round" stroke-miterlimit="10" d="
				M-139.5,516.4c0,0-5.9,3.5-7.9-4.9"/>
			
				<path fill="none" stroke="#B2B5B5" stroke-width="3.685" stroke-linecap="round" stroke-linejoin="round" stroke-miterlimit="10" d="
				M-131.7,531.3c0,0-7.6-18,0.3-59.1"/>
		</g>
		<g id="Component_11_">
			<polygon fill="#FFFFFF" stroke="#B2B5B5" stroke-width="1.4173" stroke-miterlimit="10" points="-134,557.1 -129.6,554.4 
				-129.3,539.9 -141.4,532.7 -146.3,535 -146.1,549.9 			"/>
			<polyline fill="none" stroke="#B9B9B8" stroke-width="0.5669" stroke-miterlimit="10" points="-133.9,556.9 -133.6,542.5 
				-145.8,535.3 			"/>
		</g>
		
			<path fill="none" stroke="#B2B5B5" stroke-width="3.685" stroke-linecap="round" stroke-linejoin="round" stroke-miterlimit="10" d="
			M-175.6,505.7c0,0-25.7,6.2-15.7-9.9"/>
		
			<path fill="none" stroke="#B2B5B5" stroke-width="3.685" stroke-linecap="round" stroke-linejoin="round" stroke-miterlimit="10" d="
			M-175.7,515.5c0,0-20.9,7.4-15.3-9.4"/>
		
			<path fill="none" stroke="#B2B5B5" stroke-width="3.685" stroke-linecap="round" stroke-linejoin="round" stroke-miterlimit="10" d="
			M-175.7,525.4c0,0-17.8,5.8-15.7-9.9"/>
	</g>
</g>
</svg>
