<?xml version="1.0" encoding="utf-8"?>
<!-- Generator: Adobe Illustrator 18.1.1, SVG Export Plug-In . SVG Version: 6.00 Build 0)  -->
<!DOCTYPE svg PUBLIC "-//W3C//DTD SVG 1.1//EN" "http://www.w3.org/Graphics/SVG/1.1/DTD/svg11.dtd">
<svg version="1.1" xmlns="http://www.w3.org/2000/svg" xmlns:xlink="http://www.w3.org/1999/xlink" x="0px" y="0px"
	 viewBox="0 0 144 144" enable-background="new 0 0 144 144" xml:space="preserve">
<g id="Layer_1" display="none">
	<g display="inline">
		<g>
			<g>
				
					<path fill="none" stroke="#FF4833" stroke-width="4" stroke-linecap="round" stroke-miterlimit="10" stroke-dasharray="47.3246,8,129.0672,8,75.2892,8" d="
					M8,31.8c0-7.1,5.8-12.9,12.9-12.9h85.3c7.1,0,12.9,5.8,12.9,12.9v61.9c0,7.1-5.8,12.9-12.9,12.9H20.9c-7.1,0-12.9-5.8-12.9-12.9
					V31.8z"/>
			</g>
			<g>
				<g>
					<polyline fill="none" stroke="#FF4833" stroke-width="4" stroke-linecap="round" stroke-miterlimit="10" points="26.1,83 
						52.4,56.7 62.5,66.7 86.8,42.4 					"/>
					<polyline fill="none" stroke="#FF4833" stroke-width="4" stroke-linecap="round" stroke-miterlimit="10" points="75.8,42.4 
						86.8,42.4 86.8,53.4 					"/>
				</g>
			</g>
			<g>
				
					<line fill="none" stroke="#FF4833" stroke-width="4" stroke-linecap="round" stroke-miterlimit="10" x1="26.1" y1="18.9" x2="26.1" y2="106.6"/>
				
					<line fill="none" stroke="#FF4833" stroke-width="4" stroke-linecap="round" stroke-miterlimit="10" x1="101.1" y1="18.9" x2="101.1" y2="106.6"/>
			</g>
			<circle fill="#FF4833" cx="17.4" cy="62.7" r="3.4"/>
			
				<line fill="none" stroke="#FF4833" stroke-width="4" stroke-linecap="round" stroke-miterlimit="10" x1="110" y1="56.2" x2="110" y2="69.2"/>
		</g>
		<g>
			<g>
			</g>
		</g>
	</g>
	<g display="inline">
		<g>
			<path fill="none" stroke="#FFFFFF" stroke-width="3" stroke-linecap="round" stroke-miterlimit="10" d="M110.2,114.2
				c7.6,0,13.8-6.2,13.8-13.8v-8.2c0-7.6-6.2-13.8-13.8-13.8c-7.6,0-13.8,6.2-13.8,13.8v8.4"/>
			<path fill="#FFFFFF" d="M123.9,90.2c3.4,0,6.2,2.8,6.2,6.2c0,3.4-2.8,6.2-6.2,6.2"/>
			
				<circle fill="none" stroke="#FFFFFF" stroke-width="4.3163" stroke-linecap="round" stroke-miterlimit="10" cx="110.2" cy="114.2" r="2.8"/>
			<path fill="#FFFFFF" d="M96.4,102.6c-3.4,0-6.2-2.8-6.2-6.2c0-3.4,2.8-6.2,6.2-6.2"/>
		</g>
	</g>
</g>
<g id="Red_Outline">
	<g>
		<g>
			<g>
				<path fill="#FF4833" d="M26.1,85c-0.5,0-1-0.2-1.4-0.6c-0.8-0.8-0.8-2,0-2.8l27.8-27.8l10.1,10.1L85.4,41c0.8-0.8,2-0.8,2.8,0
					s0.8,2,0,2.8L62.5,69.6L52.4,59.5l-25,25C27.1,84.8,26.6,85,26.1,85z"/>
				<path fill="#FF4833" d="M86.8,55.4c-1.1,0-2-0.9-2-2v-9h-9c-1.1,0-2-0.9-2-2s0.9-2,2-2h13v13C88.8,54.5,87.9,55.4,86.8,55.4z"/>
			</g>
		</g>
		<path fill="#FF4833" d="M26.1,108.6c-1.1,0-2-0.9-2-2V18.9c0-1.1,0.9-2,2-2s2,0.9,2,2v87.7C28.1,107.7,27.2,108.6,26.1,108.6z"/>
		<circle fill="#FF4833" cx="17.4" cy="62.7" r="3.4"/>
		<path fill="#FF4833" d="M110,71.2c-1.1,0-2-0.9-2-2v-13c0-1.1,0.9-2,2-2s2,0.9,2,2v13C112,70.3,111.1,71.2,110,71.2z"/>
	</g>
	<path fill="#FF4833" d="M138,75.5c0-3.6-2.9-6.5-6.5-6.5H88.5c-3.6,0-6.5,2.9-6.5,6.5v43.1c0,3.6,2.9,6.5,6.5,6.5h43.1
		c3.6,0,6.5-2.9,6.5-6.5V75.5z M125.3,102.4c-0.8,5.8-4.8,10.6-10.3,12.5c-0.3,2.4-2.4,4.3-4.9,4.3c-2.7,0-5-2.2-5-5s2.2-5,5-5
		c1.9,0,3.3,1.1,4.1,2.6c4.6-1.8,7.7-6.2,7.7-11.5v-8.2c0-6.8-5.2-12.3-12-12.3s-12,5.5-12,12.3v8.4c0,0.8-0.7,1.3-1.6,1.3
		c0,0,0,0,0,0h0c-3.4,0-6.2-2.3-6.2-5.7c0-3,2.1-5.4,4.9-6c1-7.5,7.4-13.3,15.1-13.3s14.2,5.8,15.1,13.3c2.8,0.6,4.9,3.1,4.9,6.1
		S128.1,101.8,125.3,102.4z"/>
	<path fill="#FF4833" d="M103,72V18.9c0-1.1-0.9-2-2-2s-2,0.9-2,2V72H103z"/>
	<g>
		<path fill="#FF4833" d="M8,78.3c1.1,0,2-0.9,2-2V31.8c0-6,4.9-10.8,10.9-10.8H48c1.1,0,2-0.9,2-2s-0.9-2-2-2H20.9
			C12.7,17,6,23.6,6,31.8v44.5C6,77.4,6.9,78.3,8,78.3z"/>
		<path fill="#FF4833" d="M56,21h50.3c6,0,10.7,4.8,10.7,10.8V72h4V31.8c0-8.2-6.5-14.8-14.7-14.8H56c-1.1,0-2,0.9-2,2
			S54.9,21,56,21z"/>
		<path fill="#FF4833" d="M86,105H46.6c-1.1,0-2,0.9-2,2s0.9,2,2,2H86V105z"/>
		<path fill="#FF4833" d="M38.6,105H20.9c-6,0-10.9-5.3-10.9-11.3v-9.4c0-1.1-0.9-2-2-2s-2,0.9-2,2v9.4c0,8.2,6.7,15.3,14.9,15.3
			h17.7c1.1,0,2-0.9,2-2S39.7,105,38.6,105z"/>
	</g>
</g>
<g id="Blue_Outline" display="none">
	<g display="inline">
		<g>
			<g>
				<path fill="#272727" d="M26.1,85c-0.5,0-1-0.2-1.4-0.6c-0.8-0.8-0.8-2,0-2.8l27.8-27.8l10.1,10.1L85.4,41c0.8-0.8,2-0.8,2.8,0
					s0.8,2,0,2.8L62.5,69.6L52.4,59.5l-25,25C27.1,84.8,26.6,85,26.1,85z"/>
				<path fill="#272727" d="M86.8,55.4c-1.1,0-2-0.9-2-2v-9h-9c-1.1,0-2-0.9-2-2s0.9-2,2-2h13v13C88.8,54.5,87.9,55.4,86.8,55.4z"/>
			</g>
		</g>
		<path fill="#272727" d="M26.1,108.6c-1.1,0-2-0.9-2-2V18.9c0-1.1,0.9-2,2-2s2,0.9,2,2v87.7C28.1,107.7,27.2,108.6,26.1,108.6z"/>
		<circle fill="#272727" cx="17.4" cy="62.7" r="3.4"/>
		<path fill="#272727" d="M110,71.2c-1.1,0-2-0.9-2-2v-13c0-1.1,0.9-2,2-2s2,0.9,2,2v13C112,70.3,111.1,71.2,110,71.2z"/>
	</g>
	<path display="inline" fill="#272727" d="M138,75.5c0-3.6-2.9-6.5-6.5-6.5H88.5c-3.6,0-6.5,2.9-6.5,6.5v43.1c0,3.6,2.9,6.5,6.5,6.5
		h43.1c3.6,0,6.5-2.9,6.5-6.5V75.5z M125.3,102.4c-0.8,5.8-4.8,10.6-10.3,12.5c-0.3,2.4-2.4,4.3-4.9,4.3c-2.7,0-5-2.2-5-5s2.2-5,5-5
		c1.9,0,3.3,1.1,4.1,2.6c4.6-1.8,7.7-6.2,7.7-11.5v-8.2c0-6.8-5.2-12.3-12-12.3s-12,5.5-12,12.3v8.4c0,0.8-0.7,1.3-1.6,1.3
		c0,0,0,0,0,0h0c-3.4,0-6.2-2.3-6.2-5.7c0-3,2.1-5.4,4.9-6c1-7.5,7.4-13.3,15.1-13.3s14.2,5.8,15.1,13.3c2.8,0.6,4.9,3.1,4.9,6.1
		S128.1,101.8,125.3,102.4z"/>
	<path display="inline" fill="#272727" d="M103,72V18.9c0-1.1-0.9-2-2-2s-2,0.9-2,2V72H103z"/>
	<g display="inline">
		<path fill="#272727" d="M8,78.3c1.1,0,2-0.9,2-2V31.8c0-6,4.9-10.8,10.9-10.8H48c1.1,0,2-0.9,2-2s-0.9-2-2-2H20.9
			C12.7,17,6,23.6,6,31.8v44.5C6,77.4,6.9,78.3,8,78.3z"/>
		<path fill="#272727" d="M56,21h50.3c6,0,10.7,4.8,10.7,10.8V72h4V31.8c0-8.2-6.5-14.8-14.7-14.8H56c-1.1,0-2,0.9-2,2
			S54.9,21,56,21z"/>
		<path fill="#272727" d="M86,105H46.6c-1.1,0-2,0.9-2,2s0.9,2,2,2H86V105z"/>
		<path fill="#272727" d="M38.6,105H20.9c-6,0-10.9-5.3-10.9-11.3v-9.4c0-1.1-0.9-2-2-2s-2,0.9-2,2v9.4c0,8.2,6.7,15.3,14.9,15.3
			h17.7c1.1,0,2-0.9,2-2S39.7,105,38.6,105z"/>
	</g>
</g>
<g id="White_Outline" display="none">
	<g display="inline">
		<g>
			<g>
				<path fill="#FFFFFF" d="M26.1,85c-0.5,0-1-0.2-1.4-0.6c-0.8-0.8-0.8-2,0-2.8l27.8-27.8l10.1,10.1L85.4,41c0.8-0.8,2-0.8,2.8,0
					s0.8,2,0,2.8L62.5,69.6L52.4,59.5l-25,25C27.1,84.8,26.6,85,26.1,85z"/>
				<path fill="#FFFFFF" d="M86.8,55.4c-1.1,0-2-0.9-2-2v-9h-9c-1.1,0-2-0.9-2-2s0.9-2,2-2h13v13C88.8,54.5,87.9,55.4,86.8,55.4z"/>
			</g>
		</g>
		<path fill="#FFFFFF" d="M26.1,108.6c-1.1,0-2-0.9-2-2V18.9c0-1.1,0.9-2,2-2s2,0.9,2,2v87.7C28.1,107.7,27.2,108.6,26.1,108.6z"/>
		<circle fill="#FFFFFF" cx="17.4" cy="62.7" r="3.4"/>
		<path fill="#FFFFFF" d="M110,71.2c-1.1,0-2-0.9-2-2v-13c0-1.1,0.9-2,2-2s2,0.9,2,2v13C112,70.3,111.1,71.2,110,71.2z"/>
	</g>
	<path display="inline" fill="#FFFFFF" d="M138,75.5c0-3.6-2.9-6.5-6.5-6.5H88.5c-3.6,0-6.5,2.9-6.5,6.5v43.1c0,3.6,2.9,6.5,6.5,6.5
		h43.1c3.6,0,6.5-2.9,6.5-6.5V75.5z M125.3,102.4c-0.8,5.8-4.8,10.6-10.3,12.5c-0.3,2.4-2.4,4.3-4.9,4.3c-2.7,0-5-2.2-5-5s2.2-5,5-5
		c1.9,0,3.3,1.1,4.1,2.6c4.6-1.8,7.7-6.2,7.7-11.5v-8.2c0-6.8-5.2-12.3-12-12.3s-12,5.5-12,12.3v8.4c0,0.8-0.7,1.3-1.6,1.3
		c0,0,0,0,0,0h0c-3.4,0-6.2-2.3-6.2-5.7c0-3,2.1-5.4,4.9-6c1-7.5,7.4-13.3,15.1-13.3s14.2,5.8,15.1,13.3c2.8,0.6,4.9,3.1,4.9,6.1
		S128.1,101.8,125.3,102.4z"/>
	<path display="inline" fill="#FFFFFF" d="M103,72V18.9c0-1.1-0.9-2-2-2s-2,0.9-2,2V72H103z"/>
	<g display="inline">
		<path fill="#FFFFFF" d="M8,78.3c1.1,0,2-0.9,2-2V31.8c0-6,4.9-10.8,10.9-10.8H48c1.1,0,2-0.9,2-2s-0.9-2-2-2H20.9
			C12.7,17,6,23.6,6,31.8v44.5C6,77.4,6.9,78.3,8,78.3z"/>
		<path fill="#FFFFFF" d="M56,21h50.3c6,0,10.7,4.8,10.7,10.8V72h4V31.8c0-8.2-6.5-14.8-14.7-14.8H56c-1.1,0-2,0.9-2,2
			S54.9,21,56,21z"/>
		<path fill="#FFFFFF" d="M86,105H46.6c-1.1,0-2,0.9-2,2s0.9,2,2,2H86V105z"/>
		<path fill="#FFFFFF" d="M38.6,105H20.9c-6,0-10.9-5.3-10.9-11.3v-9.4c0-1.1-0.9-2-2-2s-2,0.9-2,2v9.4c0,8.2,6.7,15.3,14.9,15.3
			h17.7c1.1,0,2-0.9,2-2S39.7,105,38.6,105z"/>
	</g>
</g>
</svg>
