<?xml version="1.0" encoding="utf-8"?>
<!-- Generator: Adobe Illustrator 21.0.0, SVG Export Plug-In . SVG Version: 6.00 Build 0)  -->
<svg version="1.1" xmlns="http://www.w3.org/2000/svg" xmlns:xlink="http://www.w3.org/1999/xlink" x="0px" y="0px"
	 viewBox="0 0 800 800" style="enable-background:new 0 0 800 800;" xml:space="preserve">
<style type="text/css">
	.st0{fill:#1673CA;}
	.st1{fill:#FFFFFF;}
</style>
<g id="_x38_00X800">
	<g>
		<g>
			<path class="st0" d="M763,449.9c-0.3,0-0.6,0-0.8,0.1l-30.9-194.9c5.4-2,9-7,9-12.8c0-7.5-6.1-13.7-13.7-13.7
				c-3.2,0-6.2,1.1-8.7,3.2l-137-137c1.6-2.3,2.5-5,2.5-7.8c0-7.5-6.1-13.7-13.7-13.7c-6.2,0-11.5,4.1-13.2,10.1L361.2,52.5
				c-0.4-7.2-6.4-12.9-13.6-12.9c-7.5,0-13.7,6.1-13.7,13.7c0,2.2,0.5,4.3,1.6,6.3l-172.1,87.7c-2.6-2.9-6.2-4.5-10.1-4.5
				c-7.5,0-13.7,6.1-13.7,13.7c0,4.6,2.3,8.8,6.1,11.3L59.2,337.8c-1.7-0.7-3.4-1.1-5.2-1.1c-7.5,0-13.7,6.1-13.7,13.7
				c0,7.5,6.1,13.7,13.7,13.7c0.3,0,0.6,0,0.9-0.1l29.5,186.3c-6.4,1.2-11.2,6.9-11.2,13.4c0,7.5,6.1,13.7,13.7,13.7
				c2.1,0,4.1-0.5,6.1-1.5l141.1,141.1c-1.4,2.2-2.1,4.7-2.1,7.3c0,7.5,6.1,13.7,13.7,13.7c5.4,0,10.2-3.1,12.5-8.1l195.2,30.9
				c0,0.2,0,0.4,0,0.6c0,7.5,6.1,13.7,13.7,13.7c7.5,0,13.7-6.1,13.7-13.7c0-2-0.5-4.1-1.5-6l175-89.1c2.6,2.9,6.2,4.5,10,4.5
				c7.5,0,13.7-6.1,13.7-13.7c0-4.6-2.4-9-6.4-11.5l86.3-169.4c1.7,0.7,3.5,1.1,5.3,1.1c7.5,0,13.7-6.1,13.7-13.7
				C776.7,456,770.5,449.9,763,449.9z M650.6,659.3l-50.1,7.7c-0.4-1.4-1.1-2.8-2-4.1l52.4-48.4c2.2,1.9,4.9,3,7.8,3l2.7,26.1
				c-6.4,1.2-11.1,6.8-11.1,13.4C650.4,657.8,650.5,658.5,650.6,659.3z M411.4,739.2c0.6-0.6,1.1-1.4,1.6-2.1l27.2,13L411.4,739.2z
				 M64.2,359.5l25.8,19v116.2c-2.3,0.5-4.3,1.7-6,3.3c-4.8,4.8-4.8,12.7,0,17.5c1.7,1.7,3.9,2.9,6.3,3.4L87.3,550
				c-0.1,0-0.3,0-0.4,0c0,0-0.1,0-0.1,0L57.3,363.7C59.9,363,62.4,361.5,64.2,359.5z M167,155.2l30.1-5.4c0.4,1.4,1.1,2.8,2,4
				l-43.3,39.9c-2.2-1.9-4.9-3-7.8-3c-6.5,0-11.8,5.3-11.8,11.8c0,5.7,4.1,10.6,9.7,11.6l-1.5,19L100.8,293
				c-4.9-3.3-11.4-2.7-15.6,1.5c-4.8,4.8-4.8,12.6-0.2,17.4l-23.2,27.4c-0.2-0.1-0.3-0.2-0.5-0.3l86.6-170c1.8,0.8,3.6,1.2,5.4,1.2
				c7.5,0,13.7-6.1,13.7-13.7C167.1,156,167,155.6,167,155.2z M122.1,393.5c-1.5,0.6-2.8,1.6-3.9,2.8l-25.8-19v-61.7
				c1.4,0.2,2.8,0.1,4.2-0.2L122.1,393.5z M221,143.9l12.4-4c1.2,3.3,3.8,5.8,7.1,7l0.5,1.5l-19.8-2
				C221.3,145.5,221.2,144.7,221,143.9z M289.1,153.1L256,138c0.2-0.8,0.2-1.5,0.2-2.2l62.9,14.3c-1.5,1.6-2.5,3.6-3,5.7
				L289.1,153.1z M637.3,180.8l-14.8,9.8l-27.8-38.3c0.8-1,1.5-2,2-3.2l40.5,26.7c-0.3,0.8-0.5,1.6-0.5,2.4
				C636.8,179.1,637,180,637.3,180.8z M257.1,575l-67.7,0.6c-0.6-6-5.6-10.7-11.7-10.7c-0.4,0-0.9,0-1.4,0.1l-4.3-85
				c0.1,0,0.1,0,0.2,0c1.9,0,3.8-0.6,5.4-1.8l81.4,88c-1.4,1.7-2.2,3.8-2.2,5.9C256.7,573.2,256.8,574.1,257.1,575z M441.6,109.6
				l18.6-3.6l81.3,26.4l-29.1,20.6c-1.7-1.4-3.8-2.2-5.9-2.2c-0.5,0-1,0-1.6,0.1c-2.2-2.9-5.7-4.7-9.4-4.7c-1.5,0-3,0.3-4.4,0.9
				l-50.5-33c0.6-1.3,1-2.7,1-4C441.6,110,441.6,109.8,441.6,109.6z M677.2,242.4l-13.7,4.8l-8.6-11.9l20.1-1
				c-0.1,0.5-0.1,0.9-0.1,1.3C675,238,675.8,240.4,677.2,242.4z M692.7,524.3L545,578.6c-1.3-2.5-3.8-4.3-6.6-4.8l5.1-102.9
				c3.2-0.2,6-2.1,7.5-4.9L692.7,520c-0.2,0.8-0.3,1.5-0.3,2.2C692.4,522.9,692.5,523.6,692.7,524.3z M372.2,199.6l-86.5,43.3
				c-1.7-2.6-4.6-4.1-7.7-4.1c-0.6,0-1.3,0.1-2,0.2l-31.5-87.9l44.4,4.4l82.2,37.7c-0.1,0.6-0.2,1.2-0.2,1.7
				C370.9,196.6,371.3,198.2,372.2,199.6z M295.9,156.3l20,2c0,3.8,1.8,7.1,4.6,9.3L295.9,156.3z M339,154.6l40.6,9.3
				c0,0.2,0,0.3,0,0.5c0,3.7,2.5,6.9,6,7.8l-3.3,13.8c-0.8-0.2-1.4-0.3-2.1-0.3c-3.6,0-6.8,2.1-8.4,5.3l-46.4-21.3
				c0.8,0.2,1.5,0.2,2.3,0.2c6.5,0,11.8-5.3,11.8-11.8C339.6,157,339.4,155.8,339,154.6z M693.5,310.5l-106.8-30.7
				c0.1-0.5,0.1-1,0.1-1.4c0-0.6-0.1-1.2-0.2-1.9l30.6-10.7c1.8,1,3.7,1.5,5.6,1.5c4.8,0,9-2.8,10.9-7.2l28.8-10l34.9,48
				c-0.3,0.2-0.5,0.4-0.7,0.6l0,0C693.6,301.7,692.4,306.2,693.5,310.5z M189.8,415c0.5,0.9,1.2,1.7,2.2,2.3l-17.5,44.5
				c-0.8-0.2-1.5-0.3-2.3-0.3c-0.4,0-0.7,0-1,0.1L159,411.7L189.8,415z M193.9,283.2l101.8,75.4c-0.8,1.4-1.2,2.9-1.2,4.5
				c0,0.9,0.1,1.8,0.5,2.8l-95,43.6c-0.9-1.6-2.5-2.7-4.4-2.9l-6.7-120.7C190.8,285.5,192.6,284.6,193.9,283.2z M387.8,172.5
				c3.8-0.1,7-2.8,7.8-6.5l71.5,1.2c0,0.2,0.1,0.5,0.1,0.7l-78.1,24.8c-0.6-2.5-2.4-4.7-4.7-5.9L387.8,172.5z M299.3,446.1
				l-55.7,24.4c-1.7-2.8-4.7-4.5-7.9-4.5c-1.4,0-2.8,0.3-4.1,1l-33-50.1c0.4-0.3,0.8-0.7,1.1-1.2l99.6,26.6c-0.2,0.7-0.2,1.3-0.2,2
				C299.1,444.8,299.1,445.5,299.3,446.1z M200.7,411.7l95.2-43.7c1.6,2.5,4.3,4.2,7.2,4.4l3.5,62.6l0,0.1c-2.9,0.5-5.3,2.3-6.6,4.9
				l-99.4-26.5c0.1-0.4,0.1-0.8,0.1-1.1C200.7,412.2,200.7,411.9,200.7,411.7z M542.3,240.7l-160.7,48.7c-0.6-1.1-1.4-2.2-2.4-3
				l92.1-112.3c3.3,2.1,7.7,1.8,10.7-0.6l62.3,59.9c-1.4,1.7-2.2,3.8-2.2,5.9C542.2,239.7,542.3,240.2,542.3,240.7z M312,367.4
				l54,19.9l77.3,28.5c-0.3,0.8-0.5,1.6-0.5,2.5l-126,22.6c-1.3-3.3-4.4-5.5-7.9-5.8l-3.5-62.8C308.2,371.7,310.7,369.9,312,367.4z
				 M494.3,354.9l-38.6,55.5c-1.2-0.5-2.4-0.8-3.7-0.8c-1.2,0-2.3,0.2-3.4,0.7l-70.4-109c1.1-0.7,2-1.6,2.8-2.7l109.7,46.5l0.9,0.4
				c-0.2,0.8-0.4,1.7-0.4,2.5C491.2,350.6,492.3,353.1,494.3,354.9z M376.2,302.3l70.4,109.1c-0.8,0.6-1.6,1.4-2.2,2.3l-131.7-48.4
				c0.2-0.7,0.3-1.4,0.3-2.1c0-2.1-0.7-4.1-2-5.7l56-57.3C369.4,302.4,372.8,303.4,376.2,302.3z M535.1,456.6l-16.7-8.1l-57.4-27.8
				c0.2-0.7,0.2-1.3,0.2-1.9c0-2.9-1.3-5.6-3.6-7.3l38.5-55.4c1.8,0.9,3.7,1.3,5.7,1l36,96.7C536.8,454.5,535.8,455.5,535.1,456.6z
				 M377.2,285.1c-1.1-0.5-2.2-0.8-3.4-0.9l7.5-80.1c4.5-0.6,8-4.5,8.1-9.1l78.4-24.9c0.4,0.9,1,1.8,1.7,2.5L377.2,285.1z
				 M448.1,427.2c1.3,0.6,2.6,0.9,4,0.9c3.6,0,6.7-2,8.3-5.2l73.7,35.7c-0.3,1-0.5,2-0.5,3c0,1.2,0.2,2.4,0.7,3.6L458,508.8
				L380.8,553c-0.5-0.7-1.2-1.3-1.9-1.9L448.1,427.2z M542.8,452.4c-0.7,0-1.4,0.1-2.1,0.3l-36-96.4c2-1.1,3.6-2.9,4.4-5l118.3,25
				c0,0.2,0,0.4,0,0.6c0,1.7,0.5,3.4,1.4,4.9l-80.3,72.7C546.8,453.1,544.8,452.4,542.8,452.4z M503.3,339.2
				c-4.3-1.4-8.7,0.5-10.8,4.2l-110.4-46.8c0.4-1,0.5-2,0.5-3.1c0-0.7-0.1-1.4-0.3-2L543,242.9c0.8,1.8,2.1,3.3,3.8,4.3L503.3,339.2
				z M285.8,253.1l78.7,38.1c-0.2,0.8-0.3,1.6-0.3,2.3c0,1.7,0.5,3.4,1.4,4.9l-56.2,57.5c-1.6-1.2-3.6-1.9-5.6-1.9
				c-0.3,0-0.6,0-0.9,0.1l-21.7-97.2C283.1,256.1,284.7,254.8,285.8,253.1z M176.6,462.6l17.5-44.5c0.9,0.1,1.7,0.1,2.5-0.2
				l31.5,47.9l1.6,2.4c-1.6,1.3-2.6,3.2-3.1,5.2l-45.3-3.2C181.2,467.1,179.4,464.2,176.6,462.6z M317.6,444.2c0-0.4,0-0.8-0.1-1.2
				L443,420.5c0.4,2.2,1.5,4.1,3.1,5.5L376.8,550c-2.2-0.9-4.7-0.9-7,0l-55.8-98.6C316.3,449.6,317.6,447,317.6,444.2z M627.9,373.8
				l-118.3-25c0-0.3,0.1-0.5,0.1-0.8c0-1.9-0.6-3.7-1.7-5.3l63.6-57.4c2.7,2.3,6.4,2.9,9.8,1.4l49.6,82.7
				C629.6,370.6,628.5,372.1,627.9,373.8z M379.1,204.2l-7.5,80.3c-2.7,0.5-4.9,2.2-6.3,4.6l-78.5-38c0.3-1,0.5-2,0.5-2.9
				c0-1.1-0.2-2.1-0.5-3.1l86.8-43.5C375.1,203,377,203.9,379.1,204.2z M137.6,409.3l19,2.1l12.3,50.7c-0.3,0.1-0.7,0.3-1,0.5
				L133,414.3C135,413.1,136.6,411.4,137.6,409.3z M568.4,278.3c0,1.9,0.6,3.7,1.7,5.3L506.5,341c-0.3-0.3-0.7-0.5-1.1-0.8
				l43.4-92.1c2.5,0.8,5,0.4,7.2-0.8l15.6,24C569.6,273.1,568.4,275.6,568.4,278.3z M546.1,231.8l-62.5-60c1.2-1.6,1.9-3.5,1.9-5.5
				c0-0.4,0-0.7-0.1-1.1l0.5-0.1c2.2,3.1,5.8,5,9.7,5c2.3,0,4.4-0.6,6.3-1.8c2.6,1.6,6,1.7,8.8,0.2l35.7,63.2
				C546.3,231.6,546.2,231.7,546.1,231.8z M483.7,158.2c0,1.2,0.2,2.4,0.6,3.5c-1.6-2.9-4.7-4.7-8-4.7c-1.7,0-3.3,0.5-4.8,1.3
				l-32.6-41.6c0.2-0.2,0.3-0.3,0.5-0.5l49.5,32.3C485.7,150.7,483.7,154.3,483.7,158.2z M437.1,118.1l32.6,41.6
				c-1.4,1.4-2.3,3.2-2.6,5.2l-71.4-1.2c-0.1-1.5-0.7-2.9-1.6-4.2l33.4-41.5C430.4,119.9,434.2,119.9,437.1,118.1z M147,326.8
				c0-2.2-0.8-4.2-2.2-5.9l36.7-36.8c1.5,1.1,3.2,1.8,5,1.9l6.7,120.8c-0.4,0.1-0.7,0.2-1,0.4L143.5,334
				C145.7,332.3,147,329.6,147,326.8z M189.2,412.4C189.2,412.4,189.2,412.4,189.2,412.4l-30.7-3.2l-17.8-73.6
				c0.3-0.1,0.6-0.2,0.9-0.4l48.9,73.5C189.6,409.7,189.2,411,189.2,412.4z M138.4,407c0.2-1,0.4-1.9,0.4-2.7
				c0-5.4-3.7-10.2-8.9-11.5l8.3-56.7c0.1,0,0.2,0,0.3,0l17.6,72.9L138.4,407z M181.2,472.5l45.3,3.2c0.3,4.9,4.3,8.8,9.2,8.8
				c0.5,0,1.1-0.1,1.6-0.2l24.8,79.4c-0.5,0.2-1,0.5-1.5,0.9l-81.4-88C180.2,475.5,180.9,474.1,181.2,472.5z M244.9,475.3
				c0-0.8-0.1-1.7-0.4-2.6l55.5-24.3c0.9,1.8,2.3,3.2,4.1,4.1l-36.4,110.7c-0.6-0.1-1.2-0.2-1.8-0.2c-0.5,0-1.1,0.1-1.6,0.2
				l-24.8-79.4C242.8,482.2,244.9,478.9,244.9,475.3z M306.3,453.2c0.7,0.2,1.4,0.3,2,0.3c1.3,0,2.6-0.3,3.8-0.9l55.7,98.6
				c-2.3,1.7-3.7,4.5-3.7,7.4c0,0,0,0,0,0l-89.2,11.3c-0.7-2.7-2.5-4.9-5-6.1L306.3,453.2z M382.6,558.8c0-0.1,0-0.1,0-0.2
				c0-1.2-0.2-2.4-0.7-3.6l153.5-87.8c1.4,1.9,3.5,3.1,5.8,3.5l-5.1,102.9c-3.9,0.3-7.2,3-8.2,6.7L382.6,558.8z M634.6,257.3
				c0.1-0.7,0.2-1.3,0.2-1.9c0-6.5-5.3-11.8-11.8-11.8c-6.5,0-11.8,5.3-11.8,11.8c0,3.4,1.4,6.5,3.9,8.7l-29.1,10.1
				c-1.6-3.1-4.8-5.1-8.3-5.1c-1.4,0-2.8,0.3-4,1L557.8,246c1.7-1.7,2.8-3.9,2.9-6.3l91.3-4.3l9.2,12.6L634.6,257.3z M392.5,157.9
				c-1.4-1.1-3.1-1.7-4.9-1.7c-3.4,0-6.5,2.2-7.6,5.4l-37.6-8.6l83.1-36.7c0.1,0.1,0.1,0.2,0.2,0.2L392.5,157.9z M278,257.3
				c0.3,0,0.6,0,0.9-0.1l21.7,97.2c-1.3,0.5-2.6,1.3-3.5,2.3l-101.8-75.4c0.8-1.4,1.2-2.9,1.2-4.5c0-0.5-0.1-1.1-0.2-1.7l73.3-23.2
				C271.1,255.2,274.4,257.3,278,257.3z M418.8,640.2c-1,0-2.1,0.2-3.1,0.5l-37.2-74.5c1.9-1.2,3.2-3.1,3.8-5.2l145.3,21.5
				c0,0.1,0,0.1,0,0.2c0,1.2,0.2,2.4,0.7,3.5L426.2,644C424.4,641.6,421.7,640.2,418.8,640.2z M632.9,368.4l-49.6-82.7
				c1.2-1,2.2-2.2,2.8-3.6l108.5,31.2c0.6,1.1,1.3,2.1,2.1,2.9c1,1,2.2,1.8,3.6,2.5c0.3,1,0.6,1.9,1.2,2.7L642.9,370
				c-1.7-1.6-3.9-2.5-6.3-2.5C635.4,367.5,634.1,367.8,632.9,368.4z M560.5,237.4c-0.2-0.8-0.4-1.6-0.8-2.3l62.2-41.2l28.5,39.3
				L560.5,237.4z M441.1,107.3c-1.2-3.8-4.8-6.4-8.8-6.4c-3.3,0-6.4,1.8-8,4.7l-17.8-13.1c0.6-1.1,1.1-2.2,1.4-3.4l47.7,15.5
				L441.1,107.3z M269,249.7L195.6,273c-1.5-3.3-4.7-5.4-8.4-5.4c-1.2,0-2.5,0.3-3.7,0.8l-27.7-46.9l10.7-14.7l102.6,39.1
				c-0.2,0.8-0.3,1.5-0.3,2.2C268.8,248.6,268.8,249.1,269,249.7z M179,272.8l-0.4,1c-0.4,1.1-0.6,2.1-0.6,3c0,2,0.7,4,2,5.7
				l-36.8,36.9c-0.9-0.7-2-1.2-3.1-1.5l6.6-83.8l7.7-10.6l27.2,46C180.5,270.3,179.6,271.5,179,272.8z M137.7,317.5
				c-1.8,0-3.5,0.6-5.1,1.6l-0.9,0.7c-0.6,0.5-1.1,1-1.5,1.7l-24.9-13.4c1.9-4.6,0.9-10-2.6-13.5l41.2-56.7L137.7,317.5z
				 M101.9,498.4L164,475c1.2,2.2,3.3,3.9,5.7,4.6l4.6,85.8c-5,1.5-8.4,6.1-8.4,11.3c0,4.4,2.4,8.4,6.3,10.4l-5.1,18.3
				c-0.9-0.2-1.7-0.3-2.5-0.3c-0.5,0-0.9,0-1.4,0.1l-63.9-88c0.9-0.5,1.6-1.1,2.3-1.7C106.3,510.9,106.4,503.3,101.9,498.4z
				 M372.6,567.8c1.3,0.2,2.6-0.1,3.8-0.5l37.2,74.5c-2.6,1.7-4.1,4.6-4.1,7.7c0,1.7,0.5,3.4,1.5,4.9l-63,52c-0.9-0.9-2.1-1.6-3.4-2
				L372.6,567.8z M546,583.4c0-0.2,0-0.4,0-0.6c0-0.7-0.1-1.3-0.3-2.1l145.5-53.5l-53.3,73.3l-39.9-7.5h0L546,583.4z M636.5,602.7
				L595,659.7c-1.9-1.1-4.1-1.7-6.3-1.7c-1.7,0-3.5,0.4-5.1,1.1L543.6,589c0.9-1,1.5-2.1,1.9-3.4L636.5,602.7z M693.5,517.9
				l-141.8-54.1c0.2-0.8,0.3-1.5,0.3-2.2c0-1.9-0.6-3.7-1.7-5.3l80.2-72.5c2.4,2,5.7,2.8,8.7,1.8l52.1,116.4l3,6.7
				c0.3,1.6,1,3.2,2.1,4.6l0.4,0.9C695.5,515.2,694.3,516.4,693.5,517.9z M699.4,296.5L665,249.1l13.9-4.9c2.1,1.8,4.7,2.8,7.5,2.8
				c0.6,0,1.3-0.1,2-0.2l14,48.5C701.3,295.6,700.4,296,699.4,296.5z M554.5,230.5c-1.9-0.7-4.1-0.7-6,0l-35.8-63.4
				c2-1.8,3.1-4.3,3.1-6.9c0-1.9-0.6-3.8-1.8-5.4l30.2-21.5l29,9.4c-0.4,3.8,0.8,7.6,3.5,10.2c1,1.1,2.3,1.9,3.7,2.5L554.5,230.5z
				 M221,148.8l21,2.1l31.9,88.9c-1.7,0.9-3.1,2.2-4,3.9l-102-38.8l34.7-47.8c4.8,2.8,11.1,2.1,15.1-1.9
				C219.4,153.4,220.6,151.3,221,148.8z M147,229.5l1.2-15.1c0.2,0,0.5,0,0.7-0.1l4.1,6.9L147,229.5z M151.4,213.9
				c4.4-1.3,7.6-5.1,8.2-9.7l4.6,1.7l-9.7,13.3L151.4,213.9z M104.2,310.2l24.9,13.4c-0.1,0.2-0.1,0.4-0.2,0.6l-0.2,1.1l0,0.1
				c-0.1,0.4-0.1,0.8-0.1,1.3c0,1.2,0.2,2.4,0.7,3.5l0.5,1c1.3,2.3,3.4,3.9,5.9,4.5l-8.2,56.6c-0.9-0.1-1.8,0-3,0.3L99,314.6
				c1.4-0.6,2.7-1.5,3.8-2.6C103.3,311.5,103.7,310.9,104.2,310.2z M124.4,415.7c0.9,0.2,1.7,0.3,2.5,0.3c1.2,0,2.5-0.2,3.8-0.7
				l35.1,48.6c-0.9,0.8-1.6,1.7-2.1,2.8l-0.4,1c-0.3,1-0.5,1.9-0.5,2.9c0,0.7,0.1,1.4,0.3,2.2l-63.3,23.9c-0.7-0.5-1.4-0.9-2-1.2
				L124.4,415.7z M251.5,679.1l54,21.1l-57.1-18.6C249.5,681,250.6,680.2,251.5,679.1z M253.6,673.3c0-3.6-2.2-7-5.5-8.5l17.2-83.4
				c0.2,0,0.5,0,0.7,0c1.1,0,2.3-0.2,3.3-0.6l67,124.7c-1.2,0.8-2.1,1.9-2.8,3.1l-80.8-31.6C253.3,675.8,253.6,674.6,253.6,673.3z
				 M275.2,572.2C275.2,572.2,275.2,572.2,275.2,572.2l89.2-11.3c0.8,3,3,5.4,6,6.4l-28.1,136.5c-1.3-0.2-2.7,0.1-4,0.6l-67-124.7
				C273.7,578,275.2,575.2,275.2,572.2z M611.4,155.9l-13.9-9.2c0.1-0.4,0.1-0.8,0.2-1.1L611.4,155.9z M558.4,233.1
				c-0.5-0.6-1.2-1.1-1.8-1.6l26-75.4c3.6,0.9,7.4,0.1,10.4-2.2l27.6,38L558.4,233.1z M573.7,140.3l-27-8.8l12.7-9
				c1.8,1.1,4,1.1,5.8,0.2l11.2,13.1C575.2,137,574.3,138.6,573.7,140.3z M512.9,106.7c4.2,0,8-2.2,10.1-5.9l33.8,15.4
				c-0.1,0.4-0.2,0.8-0.2,1.2c0,1.2,0.4,2.4,1.1,3.3l-13.7,9.8l-78.9-25.6l36.4-7C502.9,103.1,507.6,106.7,512.9,106.7z
				 M243.6,148.6l-0.4-1.1c0.4,0,0.8,0.1,1.2,0.1c4.8,0,9.1-2.9,10.9-7.4l26.7,12.3L243.6,148.6z M165.6,204l-5.9-2.2
				c-0.2-2.2-1-4.4-2.3-6.2l43.2-39.8L165.6,204z M390,731.1l-17.6-6.6l17.6,5.7C390,730.5,390,730.8,390,731.1z M412.4,656.2
				c1.7,1.6,4,2.5,6.3,2.5c4.1,0,7.6-2.7,8.8-6.5l148.8,18.9c0,0.6,0.1,1.1,0.2,1.7l-76.8,24.9l-149.2,13.4c-0.2-1.1-0.6-2.1-1.2-3
				L412.4,656.2z M428,649.9c0-0.1,0-0.3,0-0.5c0-1.2-0.2-2.4-0.7-3.5l102-57.6c1.7,2.4,4.5,3.7,7.4,3.7c1.8,0,3.6-0.5,5.1-1.6
				l39.7,69.8c-0.7,0.5-1.2,0.9-1.7,1.4c-1.9,1.9-3.2,4.5-3.5,7.2L428,649.9z M649.3,612.8L597,661.1l42.1-57.9l7.9,1.5
				c0,0.4-0.1,0.7-0.1,1.1C646.9,608.3,647.8,610.7,649.3,612.8z M694.5,503.3l-53.1-118.7c1.4-0.8,2.5-2,3.3-3.4l32,13
				c0.7,5.9,5.7,10.5,11.7,10.5c2.7,0,5.3-1,7.4-2.7l9.5,3.9v87.9c-2.9,0.3-5.6,1.5-7.6,3.5C696.2,499.1,695,501.1,694.5,503.3z
				 M700.2,393c0-6.5-5.3-11.8-11.8-11.8c-6.2,0-11.2,4.6-11.7,10.7l-31.1-12.7c0.2-0.8,0.3-1.6,0.3-2.4c0-1.8-0.5-3.5-1.5-5
				L703,323c0.7,0.6,1.5,1.2,2.4,1.6v79l-7.7-3.1C699.3,398.3,700.2,395.7,700.2,393z M675.6,232l-22.3,1l-29.4-40.5l14.7-9.8
				c1.2,1.3,2.9,2,4.7,2c1,0,2-0.2,2.9-0.7l32.4,43.2C677.3,228.6,676.2,230.2,675.6,232z M175.3,621.9c0.8-1.6,1.1-3.3,1.1-4.9
				c0-4.7-2.7-8.9-7-10.8l5-18.1c1.1,0.3,2.2,0.5,3.3,0.5c6.2,0,11.3-4.7,11.8-10.9l68.7-0.5c1.1,1.8,2.8,3.1,4.8,3.7l-17.1,83.2
				c-0.5-0.1-1-0.1-1.5-0.1c-4.1,0-7.7,2.8-8.9,6.7l-0.3,1.2c-0.1,0.4-0.1,0.8-0.1,1.3c0,0.7,0.1,1.5,0.4,2.5l0.4,1.1
				c0.1,0.3,0.3,0.6,0.4,0.8l-13.8-4.5c0.5-3.8-0.7-7.7-3.5-10.5c-4.1-4.1-10.4-4.8-15.3-1.7L175.3,621.9z M707.8,407l8.2,3.3
				c-0.8,1.6-1.2,3.4-1.2,5.1c0,4.7,2.7,8.9,7,10.8l-14.1,63.3V407z M707.8,404.5v-79.2c0.7,0.1,1.3,0.2,1.9,0.1l13.5,78.7
				c-2.4,0.7-4.5,2.2-6,4.2L707.8,404.5z M725.4,403.5L711.9,325c3.9-1.2,6.6-4.7,6.6-8.9c0-0.6-0.1-1.2-0.2-1.8l0-0.2l-1.7-1.5
				c2.3-4.8,1.4-10.4-2.4-14.1c-1-1-2.2-1.8-3.5-2.4l13-40.5c0.6,0.1,1.2,0.2,1.8,0.3V403.5z M578.3,134.2l-7.6-8.9l10,7.5
				C579.8,133.2,579,133.6,578.3,134.2z M404.7,94.9c0.2-0.2,0.3-0.3,0.4-0.5l18.3,13.5c-0.2,0.8-0.3,1.5-0.3,2.3
				c0,1.4,0.3,2.8,1,4.1l-85.7,37.8l-0.7-0.2c-2.2-3.5-5.9-5.6-10-5.6c-2.3,0-4.5,0.6-6.4,1.9L256,133.3c-0.1-0.2-0.1-0.5-0.2-0.7
				l128.7-41.8c0.6,1.6,1.5,2.9,2.7,4.1C392,99.7,399.8,99.7,404.7,94.9z M92.4,380.3l24.3,17.9c-1.1,1.8-1.6,3.9-1.6,6
				c0,4.7,2.7,8.8,7,10.8l-26.5,79.8c-1-0.2-1.9-0.3-2.8-0.3c-0.1,0-0.2,0-0.2,0V380.3z M393.6,721.9c-1.6,1.6-2.7,3.6-3.3,5.8
				l-39.7-12.9c0.1-0.5,0.2-1,0.2-1.5l139.1-12.5l-76.2,24.8c-0.6-1.5-1.5-2.8-2.6-3.8c-2.3-2.3-5.4-3.6-8.8-3.6c0,0,0,0,0,0
				C399,718.3,395.9,719.6,393.6,721.9z M510.7,696.8l66.6-21.6c0.3,0.7,0.6,1.3,1,2l-12.9,9.4c-2.3-2.5-5.4-3.9-8.7-3.9
				c-6.2,0-11.4,4.9-11.8,11.1L510.7,696.8z M647.4,602.4l-6.9-1.3l53.5-73.7c0.6,0.9,1.4,1.7,2.3,2.3l-34.1,64.7
				c-1.2-0.4-2.4-0.6-3.5-0.6C653.5,593.9,648.9,597.4,647.4,602.4z M700.7,531.4c0.3,0,0.6,0.1,1,0.1c1.8,0,3.6-0.6,5.2-1.7
				l0.1-0.1l0.1-0.2c1.1-2.6,2.3-5.5,3.6-9l0.1-0.2l0-0.2c-0.2-0.7-0.4-1.4-0.8-2.2c2-0.6,3.9-1.6,5.4-3.1c3.7-3.7,4.6-9.3,2.4-14.1
				l36.1-27.3c0.6,0.5,1.1,1,1.7,1.4l-86.3,169.4c-0.1,0-0.2-0.1-0.3-0.1L700.7,531.4z M749.3,463.6c0,3,1,5.9,2.8,8.2l-35.7,27
				c-0.4-0.5-0.7-0.9-1.1-1.3c-1.6-1.7-3.8-2.8-6.2-3.3L724,427c1,0.2,1.8,0.3,2.6,0.3c2.2,0,4.3-0.6,6.1-1.7l21.1,27.9
				C750.9,456,749.3,459.7,749.3,463.6z M708.4,295.3c-0.9-0.2-1.9-0.3-2.8-0.3c-0.2,0-0.5,0-0.7,0l-14.1-48.8
				c4.3-1.7,7.1-5.9,7.1-10.5c0-6.3-5.1-11.4-11.4-11.4c-2.1,0-4.1,0.6-5.9,1.6L650,185l65.1,50c-1.4,2.2-2.2,4.7-2.2,7.3
				c0,5.5,3.3,10.4,8.4,12.6L708.4,295.3z M712.8,230.1l-63.7-48.8c0.5-0.9,0.7-2,0.7-3c0-3.9-3.4-7-7.4-6.4L579.7,97L712.8,230.1z
				 M638.9,173.5l-41.2-31c-0.4-2.7-1.5-5.2-3.5-7.1c-2.8-2.8-6.7-4.1-10.6-3.5l-15.9-12c0.4-0.8,0.5-1.6,0.5-2.4
				c0-2.3-1.4-4.4-3.6-5.3l2.2-11.8c1,0.2,2,0.4,2.9,0.4c2.8,0,5.5-0.9,7.8-2.5l62.4,74.5C639.5,172.9,639.2,173.2,638.9,173.5z
				 M562.3,111.8c-1.3,0-2.6,0.5-3.6,1.4l-4.4-3.3l3.6,4.2c0,0,0,0,0,0l-33.7-15.4c0.4-1.2,0.6-2.5,0.6-3.8c0-0.7-0.1-1.5-0.3-2.3
				l31.9-3.1c0.8,4.5,3.9,8.3,8.2,10.1L562.3,111.8z M556.1,87.2l-32.3,3.1c-1.9-4.4-6.1-7.2-10.8-7.2c-6.5,0-11.8,5.3-11.8,11.8
				c0,0.3,0,0.6,0.1,0.9l-40.5,7.8l-52.3-17c0.1-3.5-1.1-6.8-3.6-9.2c-4.8-4.8-12.7-4.8-17.5,0c-0.2,0.2-0.3,0.3-0.4,0.5l-26.5-19.5
				c0.4-1.1,0.7-2.2,0.9-3.3l195.1,30.9C556.1,86.3,556.1,86.7,556.1,87.2C556.1,87.1,556.1,87.1,556.1,87.2z M383.8,88.4
				l-128.9,41.9c-2-3.9-6.1-6.4-10.5-6.4c-6.5,0-11.8,5.3-11.8,11.8c0,0.6,0,1.2,0.1,1.8l-12.5,4.1c-0.6-1.5-1.5-2.8-2.6-3.9
				c-2.3-2.3-5.5-3.6-8.8-3.6c-3.3,0-6.4,1.3-8.8,3.6c-2.6,2.6-3.8,6.1-3.5,9.7l-30.1,5.4c-0.4-1.3-0.9-2.5-1.5-3.6l171.8-87.6
				c2.6,3.3,6.6,5.3,10.8,5.3c4.7,0,9-2.4,11.5-6.4l26.2,19.3C383.8,82.4,383.2,85.5,383.8,88.4z M86.9,313.5c0.9,0.6,2,1.1,3.1,1.5
				v60.5l-24.4-18c1.3-2.2,2-4.6,2-7.1c0-3.6-1.4-7-4-9.5L86.9,313.5z M92.8,519.2c1.5,0,2.9-0.3,4.3-0.8l63.6,87.5
				c-2.4,0.9-4.4,2.4-5.8,4.5l-56-40.2c1.1-2,1.7-4.3,1.7-6.5c0-6.5-4.5-12-10.9-13.3L92.8,519.2z M97.5,572.2l56.1,40.3
				c-0.6,1.4-0.9,2.9-0.9,4.4c0,6.5,5.3,11.8,11.8,11.8c3.7,0,7.1-1.7,9.3-4.6l27.8,38.2c-0.1,0.1-0.2,0.2-0.3,0.3
				c-2.3,2.3-3.6,5.5-3.6,8.8c0,3.3,1.3,6.4,3.6,8.8c3.8,3.8,9.6,4.7,14.4,2.2l20.5,31.9c-0.2,0.2-0.5,0.4-0.7,0.7L95.1,574.6
				C96,573.9,96.8,573.1,97.5,572.2z M218.9,680.2c1.3-1.3,2.3-2.9,2.9-4.7l18.3,5.9c0.9,0.5,1.8,0.8,2.7,0.9l89.7,29.1
				c-0.1,0.6-0.2,1.1-0.2,1.5c0,0.2,0,0.5,0,0.7l-73.2,9.1c-0.7-6.9-6.6-12.2-13.5-12.2c-2.6,0-5.2,0.8-7.4,2.2l-20.4-31.7
				C218.2,680.9,218.6,680.6,218.9,680.2z M259.2,725.3l73.7-9.1c0.8,2.4,2.6,4.3,4.9,5.3l1.1,0.3c0.9,0.2,1.8,0.4,2.7,0.6l0.1,0
				c3,0,5.8-1.5,7.5-4l41.3,15.6c0.6,2.2,1.6,4,3.1,5.5c4.2,4.2,10.7,4.8,15.6,1.5l44.5,16.8c-0.1,0.2-0.1,0.4-0.2,0.6l-194.7-30.8
				C259,726.8,259.1,726,259.2,725.3z M414.4,728.1l86.4-28.1l44.2-4c0.2,1.6,0.7,3.1,1.5,4.4l-70.2,51c-2.5-2.4-5.8-3.7-9.4-3.7
				c-4.8,0-9.3,2.6-11.7,6.7L414,734.9C414.7,732.7,414.9,730.3,414.4,728.1z M547.9,702.3c2.3,2.5,5.4,4,8.8,4
				c6.5,0,11.8-5.3,11.8-11.8c0-2.1-0.6-4.1-1.6-6l12.9-9.5c0,0,0.1,0.1,0.1,0.1c2.3,2.3,5.4,3.6,8.8,3.6c0,0,0,0,0,0
				c3.3,0,6.4-1.3,8.8-3.6c2.6-2.6,3.8-6.1,3.6-9.7l50.3-7.8c0.3,0.9,0.7,1.7,1.3,2.6l-174.6,89L547.9,702.3z M670.6,605.8
				c0-4.3-2.4-8.3-6.2-10.3l33.7-64.1l-31.6,112.2c-0.8-0.2-1.7-0.3-2.5-0.3c-0.1,0-0.1,0-0.2,0l-2.7-26.1
				C666.7,616.2,670.6,611.4,670.6,605.8z M738.5,415.5c0-4.5-2.5-8.6-6.5-10.6l0.5-0.9l0-0.6c0-0.3,0-0.6,0-0.9c0-0.3,0-0.6,0-0.9
				v-2.3l-2.7,4.7c-0.6-0.2-1.3-0.3-1.9-0.4V255.9c0.4,0,0.7-0.1,1.1-0.1l30.8,194.5c-1.4,0.3-2.7,0.9-4,1.7l-21.1-27.9
				C737.1,421.8,738.5,418.7,738.5,415.5z"/>
			<g>
				<g>
					<circle class="st0" cx="231.9" cy="692.7" r="48.3"/>
				</g>
			</g>
			<g>
				<g>
					<circle class="st0" cx="379.7" cy="563.7" r="48.3"/>
				</g>
			</g>
			<g>
				<g>
					<circle class="st0" cx="83.2" cy="537.3" r="48.3"/>
				</g>
			</g>
			<g>
				<g>
					<circle class="st0" cx="198" cy="449.8" r="48.3"/>
				</g>
			</g>
			<g>
				<g>
					<circle class="st0" cx="704.1" cy="314.1" r="48.3"/>
				</g>
			</g>
			<g>
				<g>
					<circle class="st0" cx="545.6" cy="464.6" r="48.3"/>
				</g>
			</g>
			<g>
				<g>
					<circle class="st0" cx="569.6" cy="683.4" r="48.3"/>
				</g>
			</g>
			<g>
				<g>
					<circle class="st0" cx="372.7" cy="296.6" r="48.3"/>
				</g>
			</g>
			<g>
				<g>
					<circle class="st0" cx="702.3" cy="511.7" r="48.3"/>
				</g>
			</g>
			<g>
				<g>
					<circle class="st0" cx="490" cy="174.6" r="48.3"/>
				</g>
			</g>
			<g>
				<g>
					<circle class="st0" cx="144.2" cy="188.9" r="48.3"/>
				</g>
			</g>
			<g>
				<g>
					<circle class="st0" cx="365.5" cy="73.3" r="48.3"/>
				</g>
			</g>
		</g>
	</g>
	<g>
		<g>
			<path class="st1" d="M391.3,279.4h-37.2c-2,0-3.7,1.7-3.7,3.7v11.6h11.4l2.5-6.4c0.3-0.7,1-1.2,1.8-1.2c0.8,0,1.5,0.5,1.7,1.3
				l3.5,10.6l3.8-9.1c0.3-0.7,0.9-1.1,1.6-1.1c0.7,0,1.4,0.4,1.7,1l2.5,4.9h2.5c1,0,1.9,0.8,1.9,1.9c0,1-0.8,1.9-1.9,1.9h-3.7
				c-0.7,0-1.3-0.4-1.7-1l-1.2-2.3l-4.2,10c-0.3,0.7-1,1.1-1.7,1.1c0,0,0,0-0.1,0c-0.8,0-1.4-0.5-1.7-1.3l-3.5-10.4l-1.1,2.8
				c-0.3,0.7-1,1.2-1.7,1.2h-12.7v11.7c0,2,1.7,3.7,3.7,3.7h37.2c2,0,3.7-1.7,3.7-3.7v-27C395.1,281.1,393.4,279.4,391.3,279.4z"/>
		</g>
	</g>
</g>
<g id="_x31_200X800">
</g>
<g id="DESIGNED_BY_FREEPIK">
	<g>
		<g>
			<path class="st1" d="M545.6,434.4c-15.4,0-28,12.6-28,28c0,15.4,12.5,28,28,28c15.4,0,28-12.6,28-28
				C573.6,447,561,434.4,545.6,434.4z M545.6,486c-13,0-23.5-10.6-23.5-23.5c0-13,10.6-23.5,23.5-23.5c13,0,23.5,10.6,23.5,23.5
				C569.1,475.4,558.6,486,545.6,486z"/>
			<path class="st1" d="M552,456.5v-9c0-1.5-1.3-2.8-2.8-2.8h-6.1c-1.5,0-2.8,1.3-2.8,2.8v9h-9c-1.5,0-2.8,1.3-2.8,2.8v6.2
				c0,1.5,1.3,2.8,2.8,2.8h9v9c0,1.5,1.3,2.8,2.8,2.8h6.1c1.5,0,2.8-1.3,2.8-2.8v-9h9c1.5,0,2.8-1.3,2.8-2.8v-6.2
				c0-1.5-1.3-2.8-2.8-2.8H552z"/>
		</g>
	</g>
	<g>
		<g>
			<path class="st1" d="M520.7,162.3c-0.7-3.4-2.6-6.4-5.5-8.3c-2.2-1.5-4.7-2.2-7.3-2.2c-4.3,0-8.4,2.1-10.8,5.7l-13.4,19.8
				c-2,2.9-2.7,6.4-2,9.8c0.7,3.4,2.6,6.4,5.5,8.3c2.2,1.5,4.7,2.2,7.3,2.2c4.3,0,8.4-2.1,10.8-5.7l13.4-19.8
				C520.7,169.2,521.4,165.7,520.7,162.3z M509.7,159.6c-0.3-0.1-3.2-0.6-5.5,2.9l-3.6,5.3c-0.4,0.6-1.1,1-1.8,1
				c-0.4,0-0.8-0.1-1.2-0.4c-1-0.7-1.3-2-0.6-3l3.6-5.3c4.2-6.2,10-4.7,10.3-4.6c1.2,0.3,1.8,1.5,1.5,2.7
				C512,159.2,510.8,159.9,509.7,159.6z M501.7,189.5c-1.6,2.4-4.3,3.8-7.2,3.8c-1.7,0-3.4-0.5-4.9-1.5c-1.9-1.3-3.2-3.3-3.7-5.6
				c-0.4-2.3,0-4.6,1.3-6.5l5.3-7.9c0.8-1.2,2.4-1.5,3.6-0.7l10.2,6.9c0.6,0.4,1,1,1.1,1.6c0.1,0.7,0,1.4-0.4,1.9L501.7,189.5z"/>
			<path class="st1" d="M486,165.1c0.1-7.4-5.8-13.5-13.2-13.6c-7.4-0.1-13.5,5.8-13.6,13.2c-0.1,7.4,5.8,13.5,13.2,13.6
				C479.8,178.4,485.9,172.5,486,165.1z M480.1,167.3C480.1,167.3,480,167.3,480.1,167.3l-15.1-0.4c-1.2,0-2.1-1-2.1-2.2
				c0-1.2,1-2.1,2.2-2.1l15,0.4c1.2,0,2.1,1,2.1,2.2C482.2,166.4,481.3,167.3,480.1,167.3z"/>
		</g>
	</g>
	<g>
		<g>
			<path class="st1" d="M136,177.2c-0.3,0.5-0.3,1.2-0.1,1.7c0.2,0.6,0.6,1,1.2,1.3l2,1c1.1,0.5,2.5,0.1,3-1l0.2-0.4l0.3,0.1
				c1.1,0.5,2.5,0.1,3-1.1l3-6.2c1.7,0.9,3.4,2.2,4.6,3.8c1.7-1.5,4-2.5,6.4-2.5c0.2,0,0.5,0,0.7,0c-2.1-3.8-5.5-6.3-8.6-8l1.3-2.8
				c0.3-0.5,0.3-1.2,0.1-1.7c-0.2-0.6-0.6-1-1.2-1.3l-0.2-0.1c0.2-0.4,0.2-0.8,0.1-1.1c-0.1-0.4-0.4-0.7-0.7-0.8l-3.4-1.6
				c-0.7-0.4-1.6,0-2,0.7l-0.3-0.1c-1.1-0.5-2.5-0.1-3,1.1l-7.5,15.6c-0.3,0.5-0.3,1.2-0.1,1.7c0.2,0.6,0.6,1,1.2,1.3l0.2,0.1
				L136,177.2z"/>
			<path class="st1" d="M153.1,190.4c-0.4,0.7-0.8,1.4-1.4,2c-1.4,1.5-3.2,2.6-5.5,3.2v-2.2h1.9v-2c0-0.8-0.7-1.5-1.5-1.5h-15.8
				c-0.8,0-1.5,0.7-1.5,1.5v2h3.2h0.1v11.5c0,0,0,0-0.1,0c-3.6,1.5-6.6,4.1-8.4,7.5h29.1c-1.6-3-4.1-5.4-7.1-6.9
				c-0.1,0-0.1-0.1-0.2-0.1c0.1,0,0.1,0.1,0.2,0.1v-2.4c4.5-0.8,8.2-2.8,11-5.9c1.2-1.4,2.2-2.9,2.9-4.4c-0.2,0-0.4,0-0.5,0
				C157.1,192.9,154.8,192,153.1,190.4z"/>
			<path class="st1" d="M159.5,175.7c-4.3,0-7.7,3.4-7.7,7.7c0,4.2,3.5,7.7,7.7,7.7c4.3,0,7.7-3.4,7.7-7.7
				C167.3,179.1,163.8,175.7,159.5,175.7z"/>
		</g>
	</g>
	<g>
		<g>
			<path class="st1" d="M213.6,434.6c-0.6-2.8-2-4.7-4.3-5.5c-1.6-0.6-3.6-0.5-6,0.3c-2.4,0.8-4.2,1.1-5.3,1.1
				c-1.1,0-2.9-0.4-5.3-1.1s-4.4-0.8-6-0.3c-2.3,0.8-3.7,2.6-4.3,5.5c-0.3,1.7-0.3,3.5,0.2,5.2c0.5,1.7,1.1,3.5,1.9,5.3
				s1.3,3.2,1.5,4.3c0.1,0.6,0.1,2.1,0.1,4.3c-0.1,2.2,0,4.4,0.3,6.5c1,7.1,2.5,10.6,4.7,10.6c0.5,0,0.9-0.1,1.2-0.4
				c0.3-0.3,0.6-0.7,0.8-1.3c0.2-0.6,0.3-1.1,0.4-1.7c0.1-0.5,0.1-1.3,0.1-2.2c0-0.9-0.1-1.7-0.1-2.3c0-0.6-0.1-1.4-0.1-2.3
				c-0.1-1.7-0.1-2.8-0.1-3.4c0.3-3.9,2-5.8,4.9-5.8c2.9,0,4.6,1.9,4.9,5.8c0.1,0.6,0,1.8-0.1,3.4c-0.1,1-0.1,1.8-0.2,2.3
				c-0.1,0.6-0.1,1.3-0.1,2.3c0,0.9,0,1.7,0.1,2.2c0.1,0.5,0.2,1.1,0.4,1.7c0.2,0.6,0.4,1,0.8,1.3c0.3,0.3,0.8,0.4,1.2,0.4
				c2.1,0,3.7-3.5,4.7-10.6c0.2-2.1,0.3-4.3,0.3-6.6c-0.1-2.3,0-3.7,0.1-4.2c0.2-1.1,0.7-2.5,1.5-4.3c0.8-1.8,1.4-3.6,1.9-5.3
				C214,438.1,214,436.3,213.6,434.6z"/>
		</g>
	</g>
	<g>
		<g>
			<path class="st1" d="M389.6,566v-24.8c0-5.3-4.3-9.6-9.7-9.6c-5.3,0-9.7,4.3-9.7,9.6V566c-4.3,3.1-7.1,8.1-7.1,13.3
				c0,9.1,7.3,16.4,16.3,16.4c9.2,0,16.7-7.4,16.7-16.4C396.2,573.9,393.7,569,389.6,566z M379.5,591.2c-6.5,0-11.7-5.3-11.7-11.8
				c0-2.4,0.8-4.8,2.3-6.8h8.7c0.6,0,1.1-0.6,1.1-1.2c0-0.6-0.5-1.2-1.1-1.2h-6.4c0.4-0.3,0.8-0.6,1.3-0.9l1.1-0.7v-3.2h4
				c0.6,0,1.1-0.5,1.1-1.1c0-0.6-0.5-1.1-1.1-1.1h-4V561h4c0.6,0,1.1-0.5,1.1-1.1c0-0.6-0.5-1.1-1.1-1.1h-4v-2.6h4
				c0.6,0,1.1-0.5,1.1-1.1c0-0.6-0.5-1.1-1.1-1.1h-4v-2.2h4c0.6,0,1.1-0.5,1.1-1.1c0-0.6-0.5-1.1-1.1-1.1h-4v-2.6h4
				c0.6,0,1.1-0.5,1.1-1.1s-0.5-1.1-1.1-1.1h-4v-3.8c0-2.8,2.3-5,5.1-5c2.8,0,5.1,2.3,5.1,5v27.4l1.1,0.7c3.5,2.1,5.5,5.7,5.5,10.1
				C391.6,585.9,386.2,591.2,379.5,591.2z"/>
			<path class="st1" d="M372.2,577.7c-0.2,0.9-0.4,1.6-0.4,2.5c0,4.4,3.5,7.9,7.9,7.9c4.4,0,7.9-3.6,7.9-7.9c0-0.8-0.2-1.6-0.4-2.4
				H372.2z"/>
		</g>
	</g>
	<g>
		<path class="st1" d="M243.6,672.9c-1.6-1.3-2.7-1-4.3,1.8c-1.1,1.9-2.7,2.1-3.8,2l0-0.4c1.2-0.6,2-1.8,2-3.2c0-2-1.6-3.6-3.6-3.6
			c-2,0-3.6,1.6-3.6,3.6c0,1.4,0.8,2.6,2,3.2l0,0.4c-1,0.1-2.7-0.2-3.8-2c-1.6-2.8-2.7-3.2-4.3-1.8c-1.6,1.3-7.9,8.8-15.6,8.1
			c0,0,1.5,3.5,5.7,2.7c0,0,2.2,2.3,5.8,0.7c0,0,1.9,1.7,4.8,0.2c0,0,2.2,1.7,4.6,0.2c0,0,1.3,1,2.8,0.7l0.1,8.7
			c-0.2,0-0.3-0.1-0.5-0.1c0,0-2.6-0.6-5.3-1.3c-2.6-0.7-5.5-1.8-5.9-2.4c0,0,0.1-0.1,0.2-0.1c0.2-0.1,0.6-0.2,1.1-0.3
			c1-0.2,2.3-0.3,3.6-0.3c2.6-0.1,3.1,0,3.1,0c0-0.1,1.5,0.2,1.9-1.4c0,0,0-0.1,0-0.1c-0.1-1.1-0.9-1.1-1.6-1.2
			c-1.1-0.1-0.5-0.1-2-0.1c-2.4,0.2-9.7-0.4-10.7,3.4c0,0.1,0,0.2,0,0.3c0.3,3.4,7.3,4.8,12.3,5.8c-1.7,1.2-2.6,2.7-3,4.7
			c-0.2,2.1,1.5,4.1,5.4,6.3c-2.9,2.1-4.9,4-4.7,6.4c0.3,1.9,2,4.5,5.3,6.1c0,0,0,0,0,0l0,0c0,0,0,0,0,0c0,0-2.3-3.6-2.5-5.5
			c-0.2-1.1,0.5-2.8,3.3-4.9l0.1,7.1h0c0,0.6,0.5,1.1,1.1,1.1c0.6,0,1.1-0.5,1.1-1.1h0l0.1-7c2.6,1.9,3.2,3.6,3.1,4.7
			c-0.2,2-2.5,5.5-2.5,5.5s0,0,0,0c0,0,0,0,0,0c3.3-1.6,5.1-4.2,5.3-6.1c0.2-2.4-1.8-4.3-4.7-6.4c3.9-2.2,5.5-4.2,5.4-6.3
			c-0.4-2-1.3-3.5-3-4.7c5.1-1,12-2.5,12.3-5.8c0-0.1,0-0.2,0-0.3c-0.9-3.9-8.3-3.3-10.7-3.4c-1.5,0-0.9-0.1-2,0.1
			c-0.7,0.1-1.5,0.2-1.6,1.2c0,0,0,0.1,0,0.1c0.4,1.5,1.9,1.3,1.9,1.4c0,0,0.5-0.1,3.1,0c1.3,0.1,2.6,0.2,3.6,0.3
			c0.5,0.1,0.9,0.2,1.1,0.3c0.1,0,0.1,0.1,0.2,0.1c-0.4,0.6-3.3,1.7-5.9,2.4c-2.7,0.8-5.3,1.3-5.3,1.3c-0.1,0-0.1,0-0.2,0l0.1-8.6
			c1.5,0.3,2.8-0.7,2.8-0.7c2.4,1.5,4.6-0.2,4.6-0.2c3,1.5,4.8-0.2,4.8-0.2c3.6,1.6,5.8-0.7,5.8-0.7c4.2,0.8,5.7-2.7,5.7-2.7
			C251.5,681.8,245.2,674.2,243.6,672.9z M229.2,701.8c0.1-0.8-0.2-2.6,3.4-3.9l0.1,7.2c-0.7-0.4-1.4-0.9-2.1-1.4
			C229.6,703.1,229.1,702.3,229.2,701.8z M237,703.7c-0.6,0.4-1.2,0.8-1.9,1.2l0.1-6.9c3.3,1.3,3,3,3.1,3.8
			C238.4,702.3,238,703.1,237,703.7z"/>
	</g>
	<g>
		<g>
			<path class="st1" d="M571.6,657.9c-0.5-0.6-1.2-1-2-1c-0.8,0-1.5,0.4-2,1c-4.8,6.8-17,24.5-17,32.9c0,10.5,8.5,18.9,18.9,18.9
				c10.5,0,18.9-8.5,18.9-18.9C588.6,682.5,576.4,664.7,571.6,657.9z M563,701.6c-0.5,0.6-1.3,0.9-2,0.9c-0.6,0-1.2-0.2-1.7-0.6
				c-7.5-6.3-4.9-15.6-4.8-16c0.4-1.4,1.9-2.2,3.3-1.8c1.4,0.4,2.2,1.9,1.8,3.2c-0.1,0.3-1.7,6.5,3.1,10.5
				C563.8,698.8,563.9,700.5,563,701.6z M568.1,706.8c-1.5,0-2.8-1.3-2.8-2.8c0-1.5,1.3-2.8,2.8-2.8c1.5,0,2.8,1.3,2.8,2.8
				S569.7,706.8,568.1,706.8z"/>
		</g>
	</g>
	<g>
		<path class="st1" d="M726.2,305c-1.1-1-2.4-1.5-3.8-1.5h-4.5v-4.7c0-1.7-0.6-3.1-1.8-4.3c-1.2-1.2-2.6-1.8-4.2-1.8h-11.4
			c-1.6,0-3,0.6-4.2,1.8s-1.8,2.6-1.8,4.3v4.7h-4.5c-1.5,0-2.7,0.5-3.8,1.5c-1.1,1-1.6,2.3-1.6,3.8v20.7c0,1.5,0.5,2.7,1.6,3.8
			c1.1,1.1,2.4,1.6,3.8,1.6h32.3c1.5,0,2.7-0.5,3.8-1.6c1.1-1.1,1.6-2.4,1.6-3.9v-20.6C727.9,307.3,727.3,306,726.2,305z
			 M698.2,298.8c0-0.6,0.2-1.2,0.7-1.8c0.5-0.5,1-0.8,1.6-0.8H712c0.6,0,1.1,0.3,1.6,0.8c0.5,0.5,0.7,1.1,0.7,1.8v4.7h-16.1V298.8z
			 M716.2,323.2h-6.3v6.3h-7.2v-6.3h-6.3V316h6.3v-6.2h7.2v6.2h6.3V323.2z"/>
	</g>
	<g>
		<path class="st1" d="M731.5,497.3l-13-13c-0.8-0.8-2.1-0.8-2.9,0c-0.8,0.8-0.8,2.1,0,2.9l5,5l-4.9,4.9l-4.6-4.6
			c-0.5-0.5-1.2-0.8-1.9-0.8c-0.7,0-1.4,0.3-1.9,0.8l-21.8,21.8c-1.4,1.4-2.1,3.4-1.9,5.4l1.1,8.3l-8.1,8.1c-0.8,0.8-0.8,2.1,0,2.9
			c0.4,0.4,0.9,0.6,1.4,0.6c0.5,0,1-0.2,1.4-0.6l8.2-8.2l8.2,1.2c2,0.3,4.1-0.4,5.5-1.9l21.7-21.8c1-1,1-2.7,0-3.7l-4.6-4.6l4.9-4.9
			l5,5.1c0.4,0.4,0.9,0.6,1.4,0.6c0.5,0,1-0.2,1.4-0.6C732.3,499.4,732.3,498.1,731.5,497.3z M689.1,525.6c-0.6,0.6-1.5,0.6-2.1,0
			c-0.6-0.6-0.6-1.5,0-2.1c0.6-0.6,1.5-0.6,2.1,0C689.7,524,689.7,525,689.1,525.6z M696.9,514.1L691,520c-0.4,0.4-0.9,0.6-1.4,0.6
			c-0.5,0-1-0.2-1.4-0.6c-0.8-0.8-0.8-2.1,0-2.9l5.9-5.9c0.8-0.8,2.1-0.8,2.9,0C697.7,512,697.7,513.3,696.9,514.1z M697.8,508
			l0.4-0.4l1.8,1.8c0.2,0.2,0.5,0.3,0.7,0.3c0.3,0,0.5-0.1,0.7-0.3c0.4-0.4,0.4-1,0-1.4l-1.8-1.8l1-1l1.8,1.8
			c0.2,0.2,0.5,0.3,0.7,0.3c0.3,0,0.5-0.1,0.7-0.3c0.4-0.4,0.4-1,0-1.4l-1.8-1.8l1-1l1.8,1.8c0.2,0.2,0.5,0.3,0.7,0.3
			c0.3,0,0.5-0.1,0.7-0.3c0.4-0.4,0.4-1,0-1.4l-1.8-1.8l1-1l1.8,1.8c0.2,0.2,0.5,0.3,0.7,0.3c0.3,0,0.5-0.1,0.7-0.3
			c0.4-0.4,0.4-1,0-1.4l-1.8-1.8l1.2-1.2c0.6-0.6,1.6-0.6,2.2,0l2.5,2.5l-11.5,11.5L697.8,508z M718.3,505.4
			c0.3,0.3,0.5,0.7,0.5,1.1c0,0.4-0.2,0.8-0.5,1.1L708,518l-3.6-3.6l11.5-11.5L718.3,505.4z"/>
	</g>
	<g>
		<path class="st1" d="M385.4,59.8c-2.6,0-4.8,2.1-4.8,4.8c0,1.9,1.1,3.6,2.8,4.4v13.3c0,6.4-5.2,11.6-11.6,11.6
			c-5.9,0-10.8-4.4-11.5-10.1c8.5-1,14.9-7.6,14.9-15.7v-9.7c0-4.2-3.4-7.6-7.6-7.6h-0.5c-0.1-0.9-0.5-2.2-2.1-2.2
			c-1.6,0-2.1,1.4-2.1,2.4v3.9c0,1,0.5,2.4,2.1,2.4c1.6,0,2-1.3,2.1-2.3h0.5c1.9,0,3.5,1.6,3.5,3.5v9.8c0,6.4-5.9,11.7-13.1,11.7
			s-13.1-5.2-13.1-11.7v-9.7c0-1.9,1.6-3.5,3.5-3.5h0.8c0.1,0.9,0.5,2.2,2.1,2.2c1.6,0,2-1.3,2.1-2.3v-4c0-1-0.5-2.4-2.1-2.4
			c-1.6,0-2,1.4-2.1,2.3h-0.7c-4.2,0-7.6,3.4-7.6,7.6v9.7c0,8.1,6.7,14.8,15.3,15.7c0.7,7.9,7.5,14.2,15.6,14.2
			c8.6,0,15.7-7.1,15.9-15.8V68.9c1.6-0.8,2.6-2.5,2.6-4.3C390.2,62,388.1,59.8,385.4,59.8z M385.4,65.3c-0.4,0-0.7-0.3-0.7-0.7
			c0-0.4,0.3-0.7,0.7-0.7c0.4,0,0.7,0.4,0.7,0.7C386.1,64.9,385.8,65.3,385.4,65.3z"/>
	</g>
	<g>
		<path class="st1" d="M112.8,536.3h-0.2v-1.9c0-1.9-1.5-3.4-3.4-3.4h-1v-2.7c0-1.9-1.5-3.4-3.4-3.4h-5.6c-1.9,0-3.4,1.5-3.4,3.4v8
			H70.8v-8c0-1.9-1.5-3.4-3.4-3.4h-5.6c-1.9,0-3.4,1.5-3.4,3.4v2.7h-1c-1.9,0-3.4,1.5-3.4,3.4v1.9h-0.4c-1.9,0-3.5,1.5-3.5,3.5
			c0,1.9,1.6,3.5,3.5,3.5h0.4v1.9c0,1.9,1.5,3.4,3.4,3.4h1v2.7c0,1.9,1.5,3.4,3.4,3.4h5.6c1.9,0,3.4-1.5,3.4-3.4v-8h25.1v8
			c0,1.9,1.5,3.4,3.4,3.4h5.6c1.9,0,3.4-1.5,3.4-3.4v-2.7h1c1.9,0,3.4-1.5,3.4-3.4v-1.9h0.2c1.9,0,3.5-1.5,3.5-3.5
			C116.3,537.8,114.7,536.3,112.8,536.3z"/>
	</g>
</g>
</svg>
