<?xml version="1.0" encoding="UTF-8"?>
<svg width="80px" height="80px" viewBox="0 0 80 80" version="1.1" xmlns="http://www.w3.org/2000/svg" xmlns:xlink="http://www.w3.org/1999/xlink">
    <!-- Generator: Sketch 45.2 (43514) - http://www.bohemiancoding.com/sketch -->
    <title>Group 39</title>
    <desc>Created with Sketch.</desc>
    <defs>
        <circle id="path-1" cx="40" cy="40" r="40"></circle>
    </defs>
    <g id="Whitepaper" stroke="none" stroke-width="1" fill="none" fill-rule="evenodd">
        <g id="Medium-Product-Set4_01" transform="translate(-497.000000, -7126.000000)">
            <g id="Group-39" transform="translate(497.000000, 7126.000000)">
                <g id="Group-3">
                    <g id="Oval-2">
                        <use fill="#FFFFFF" fill-rule="evenodd" xlink:href="#path-1"></use>
                        <circle stroke="#374151" stroke-width="2" cx="40" cy="40" r="39"></circle>
                    </g>
                </g>
                <g id="Group-12" transform="translate(20.000000, 15.000000)">
                    <g id="noun_1018334_cc">
                        <path d="M30.6894,24.2472222 L34.44,24.2472222 C34.90368,24.2472222 35.28,23.8726444 35.28,23.4111111 L35.28,21.3843778 C36.76092,20.7372278 37.8,19.2681806 37.8,17.5583333 C37.8,15.5282556 36.33672,13.8351306 34.4064,13.4588806 C34.0788,6.22568333 29.11356,0.734105556 22.38432,0.0693972222 C21.93072,0.0234111111 21.46872,0 21,0 C20.52876,0 20.06424,0.0234111111 19.60812,0.0693972222 C12.88308,0.73745 7.9212,6.22819167 7.5936,13.4588806 C5.66328,13.8351306 4.2,15.5282556 4.2,17.5583333 C4.2,19.8634917 6.08412,21.7388889 8.4,21.7388889 C8.74272,21.7388889 9.08292,21.6903944 9.41724,21.6051111 C10.74276,24.0005694 12.7134,25.8968694 15.12,27.0757861 L15.12,27.2697639 C12.85032,27.6978528 9.79104,28.6083778 9.31056,30.4361167 L0.49728,34.3532972 C0.19488,34.4879111 0,34.7864028 0,35.1166667 L0,45.15 L1.68,45.15 L1.68,35.6584667 L9.5634,32.1551611 C10.54368,34.3700194 13.74072,37.6467389 17.88528,38.836525 C17.976,38.8632806 18.0684,38.8866917 18.15996,38.9109389 C18.38592,38.9703028 18.61188,39.0263222 18.84288,39.0723083 C19.0218,39.1082611 19.20324,39.1341806 19.38468,39.1617722 C19.55268,39.1868556 19.71816,39.2169556 19.88784,39.2345139 C20.25408,39.272975 20.62452,39.2972222 21,39.2972222 C21.37548,39.2972222 21.74592,39.272975 22.11216,39.2345139 C22.28184,39.2169556 22.44816,39.1868556 22.61532,39.1617722 C22.79676,39.1341806 22.9782,39.1082611 23.15712,39.0723083 C23.38812,39.0263222 23.61408,38.9703028 23.84004,38.9109389 C23.9316,38.8866917 24.024,38.8632806 24.11472,38.836525 C28.25928,37.6467389 31.45632,34.3700194 32.4366,32.1551611 L40.32,35.6584667 L40.32,45.15 L42,45.15 L42,35.1166667 C42,34.7864028 41.80512,34.4879111 41.50272,34.3532972 L32.68944,30.4361167 C32.20896,28.6083778 29.14968,27.6978528 26.88,27.2697639 L26.88,27.0757861 C28.31808,26.3709444 29.6058,25.4186139 30.6894,24.2472222 Z M16.8,27.9712611 L16.8,27.7756111 C16.82772,27.7848083 16.85712,27.7906611 16.88568,27.7998583 C16.93776,27.8165806 16.99236,27.8282861 17.04528,27.8441722 C17.37876,27.9453417 17.71644,28.0331333 18.06,28.1067111 C18.19692,28.1368111 18.33636,28.1618944 18.47496,28.1869778 C18.74544,28.2363083 19.0176,28.2781139 19.29144,28.3115583 C19.44684,28.3307889 19.60224,28.3508556 19.75932,28.3650694 C20.1096,28.3960056 20.46156,28.4135639 20.81436,28.4177444 C20.87736,28.4194167 20.937,28.4277778 21,28.4277778 C21.063,28.4277778 21.12264,28.4194167 21.1848,28.4185806 C21.5376,28.4144 21.88956,28.3968417 22.23984,28.3659056 C22.39776,28.3516917 22.55232,28.331625 22.70772,28.3123944 C22.9824,28.27895 23.25372,28.2379806 23.5242,28.1878139 C23.6628,28.1618944 23.80224,28.1376472 23.93916,28.1075472 C24.28272,28.0331333 24.6204,27.9453417 24.95388,27.8450083 C25.0068,27.8291222 25.0614,27.8174167 25.11348,27.8006944 C25.14204,27.7914972 25.17144,27.7856444 25.19916,27.7764472 L25.19916,27.9712611 L25.19916,30.6836056 L20.99916,36.9544389 L16.79916,30.6836056 L16.79916,27.9712611 L16.8,27.9712611 Z M33.6,22.575 L31.99644,22.575 C32.20476,22.2622944 32.3988,21.9378833 32.58276,21.6051111 C32.91708,21.6903944 33.25728,21.7388889 33.6,21.7388889 L33.6,22.575 Z M9.28284,13.2431639 C9.3072,12.8761111 9.34668,12.514075 9.39792,12.1578917 C9.40464,12.1127417 9.40968,12.0667556 9.4164,12.0216056 C9.47436,11.6470278 9.54576,11.2783028 9.63228,10.9179389 C9.63648,10.8987083 9.64068,10.8794778 9.64572,10.8602472 C10.67892,6.61865556 13.65252,3.378725 17.57364,2.17890556 C17.62236,2.16385556 17.67276,2.15382222 17.72232,2.14044444 C18.02976,2.05098056 18.3414,1.96904167 18.6606,1.90549722 C18.80508,1.87706944 18.95376,1.86118333 19.10076,1.83777222 C19.33344,1.80014722 19.56444,1.75750556 19.803,1.73409444 C20.19444,1.69396111 20.59428,1.67222222 21,1.67222222 C21.41748,1.67222222 21.82908,1.693125 22.23312,1.73409444 C22.24656,1.73576667 22.26,1.738275 22.27344,1.73994722 C26.68596,2.20315278 30.22908,5.05930833 31.83096,9.15959722 C31.85028,9.20976389 31.87044,9.25993056 31.88892,9.31009722 C31.98972,9.57848889 32.07708,9.85607778 32.16108,10.1353389 C32.20728,10.2916917 32.25516,10.4463722 32.29548,10.6052333 C32.34084,10.7791444 32.37864,10.9580722 32.41728,11.1361639 C32.47272,11.3945222 32.52732,11.6528806 32.56932,11.9187639 C32.58276,12.0040472 32.592,12.0910028 32.60376,12.1762861 C32.65164,12.5224361 32.69196,12.8710944 32.71548,13.2281139 C32.71548,13.2339667 32.71548,13.2389833 32.71632,13.2448361 C29.94852,13.80085 26.42976,12.4739417 23.74764,9.805075 C22.90596,8.96729167 22.18104,8.02583056 21.59388,7.00828333 C21.294,6.48905833 20.4372,6.48905833 20.13732,7.00828333 C19.55016,8.02583056 18.82524,8.96729167 17.98356,9.805075 C15.41064,12.3652472 12.00276,13.7122222 9.28032,13.296675 C9.282,13.2791167 9.282,13.2607222 9.28284,13.2431639 Z M36.12,17.5583333 C36.12,19.030725 34.81212,20.2154944 33.33036,20.0507806 C33.46224,19.7238611 33.57648,19.3869083 33.68568,19.0466111 C33.70836,18.9755417 33.7344,18.9061444 33.75624,18.835075 C33.84696,18.5357472 33.92508,18.2305667 33.99816,17.9212056 C34.02924,17.7899361 34.062,17.6586667 34.08972,17.5265611 C34.14516,17.2598417 34.19388,16.9906139 34.23588,16.7172056 C34.2678,16.5165389 34.29384,16.3158722 34.3182,16.1135333 C34.34424,15.8902917 34.3686,15.66705 34.3854,15.4396278 C34.39212,15.3535083 34.40556,15.2690611 34.41144,15.1829417 C35.40348,15.5198944 36.12,16.4580111 36.12,17.5583333 Z M5.88,17.5583333 C5.88,16.4580111 6.59652,15.5198944 7.5894,15.1829417 C7.59444,15.2690611 7.60872,15.3543444 7.61544,15.4396278 C7.63224,15.66705 7.6566,15.8902917 7.68264,16.1135333 C7.707,16.3158722 7.73304,16.5165389 7.76496,16.7172056 C7.80696,16.9897778 7.85484,17.2598417 7.91112,17.5265611 C7.93884,17.6595028 7.9716,17.7899361 8.00268,17.9212056 C8.07576,18.2297306 8.15388,18.5357472 8.2446,18.835075 C8.26644,18.9061444 8.29248,18.9755417 8.31516,19.0466111 C8.42436,19.3869083 8.5386,19.7238611 8.67048,20.0507806 C7.19208,20.2154944 5.88,19.030725 5.88,17.5583333 Z M10.48908,19.9972694 C10.33032,19.6536278 10.18248,19.3032972 10.05396,18.9429333 C10.01196,18.8250417 9.975,18.7046417 9.93552,18.5850778 C9.82296,18.2389278 9.72216,17.8877611 9.63732,17.5307417 C9.60876,17.4103417 9.57936,17.2899417 9.55416,17.1678694 C9.47604,16.7958 9.41556,16.4178778 9.36684,16.0366111 C9.35256,15.9237361 9.33324,15.8133694 9.32148,15.6996583 C9.29712,15.4613667 9.2946,15.2197306 9.282,14.9797667 C12.50088,15.3710667 16.26408,13.8827889 19.17216,10.9881722 C19.79628,10.3669417 20.36328,9.69470833 20.86644,8.98066944 C21.37044,9.69470833 21.9366,10.3669417 22.56156,10.9881722 C25.17816,13.5926583 28.434,15.0483278 31.38996,15.0483278 C31.84188,15.0483278 32.28624,15.0115389 32.72052,14.9421417 C32.70792,15.1946472 32.7054,15.448825 32.67936,15.6996583 C32.6676,15.8133694 32.64828,15.9237361 32.634,16.0366111 C32.58528,16.4178778 32.52564,16.7958 32.44668,17.1678694 C32.42064,17.2899417 32.39208,17.4103417 32.36352,17.5307417 C32.27784,17.8877611 32.17788,18.2397639 32.06532,18.5850778 C32.02584,18.7046417 31.98972,18.8250417 31.94688,18.9429333 C31.81752,19.3032972 31.67052,19.6536278 31.51176,19.9972694 C31.07496,20.9370583 30.53148,21.799925 29.8956,22.575 L21,22.575 L21,24.2472222 L28.2072,24.2472222 C26.90772,25.291525 25.38564,26.0473694 23.70144,26.4386694 C23.60484,26.4604083 23.51076,26.4921806 23.41416,26.5122472 C21.82908,26.8291333 20.17008,26.8291333 18.5934,26.5130833 C18.48924,26.4921806 18.39516,26.4604083 18.29772,26.4386694 C14.81172,25.6276417 12.00864,23.2656278 10.48908,19.9972694 Z M15.12,28.9720861 L15.12,30.9361111 C15.12,31.100825 15.16956,31.2630306 15.26112,31.4001528 L19.3158,37.4535972 C19.22508,37.436875 19.13268,37.4268417 19.0428,37.406775 C18.99408,37.3967417 18.94536,37.3842 18.89748,37.3733306 C14.37072,36.3131417 11.00484,32.1668667 10.93008,30.9536694 C10.92924,30.9419639 10.92504,30.9310944 10.9242,30.920225 C10.95192,30.5347778 12.04308,29.5983333 15.12,28.9720861 Z M31.07748,30.9193889 C31.07664,30.9310944 31.0716,30.9411278 31.0716,30.9528333 C30.996,32.1660306 27.63012,36.3123056 23.1042,37.3724944 C23.05548,37.3833639 23.0076,37.3959056 22.95888,37.4059389 C22.869,37.4251694 22.7766,37.4352028 22.68588,37.4527611 L26.74056,31.3993167 C26.83044,31.2630306 26.88,31.100825 26.88,30.9361111 L26.88,28.9720861 C29.95692,29.5983333 31.04808,30.5347778 31.07748,30.9193889 Z" id="Shape" fill="#374151" fill-rule="nonzero"></path>
                        <rect id="Rectangle-path" fill="#374151" fill-rule="nonzero" x="7.35" y="42" width="2.1" height="3.15"></rect>
                        <rect id="Rectangle-path" fill="#374151" fill-rule="nonzero" x="32.55" y="42" width="2.1" height="3.15"></rect>
                        <path d="M18.9,18.9 C18.9,17.7422 17.72225,16.8 16.275,16.8 C14.82775,16.8 13.65,17.7422 13.65,18.9 L15.4,18.9 C15.4,18.5143 15.792875,18.2 16.275,18.2 C16.757125,18.2 17.15,18.5143 17.15,18.9 L18.9,18.9 Z" id="Shape" fill="#374151" fill-rule="nonzero"></path>
                        <rect id="Rectangle-2" fill="#E16B0F" x="21" y="22.05" width="4.2" height="2.1"></rect>
                        <path d="M25.725,18.2 C26.207125,18.2 26.6,18.5143 26.6,18.9 L28.35,18.9 C28.35,17.7422 27.17225,16.8 25.725,16.8 C24.27775,16.8 23.1,17.7422 23.1,18.9 L24.85,18.9 C24.85,18.5143 25.242875,18.2 25.725,18.2 Z" id="Shape" fill="#374151" fill-rule="nonzero"></path>
                    </g>
                </g>
            </g>
        </g>
    </g>
</svg>